<svg width="70" height="57" viewBox="0 0 70 57" fill="none" xmlns="http://www.w3.org/2000/svg">
<path d="M20.1769 44.1814C17.4333 38.9913 12.4617 27.0121 12.6736 21.5556C12.7135 20.5258 13.7548 20.5901 14.4866 21.0947C17.9653 23.4934 17.844 27.4228 19.6592 30.8436C21.0568 33.4773 21.7759 35.7235 21.9965 39.1442C22.0487 39.954 22.2128 40.5291 22.287 39.6729C22.8408 33.2885 22.7982 30.3586 23.1608 25.5683C23.8879 15.9623 24.2486 13.3205 25.5592 11.2759C25.8443 10.8311 26.5728 10.9788 26.942 11.3392C31.983 16.2609 27.3155 30.9091 27.0228 35.208C26.6967 39.9971 26.149 41.7 25.9306 42.2854C24.5771 45.9128 29.7795 32.1061 30.876 28.8318C32.3552 24.415 35.3103 20.8959 37.6433 19.1397C38.2268 18.7003 38.8054 18.1261 39.2466 18.1174C39.6878 18.1086 39.9762 18.6853 40.1247 19.4149C40.7956 22.7101 38.0976 26.5403 36.3479 29.0283C34.6023 31.5105 32.5667 33.8275 30.2338 36.6715C28.1705 39.187 26.8786 40.8262 26.8742 41.2674C26.8223 46.5192 37.6258 33.5653 40.7014 31.1559C43.0326 29.3297 44.926 28.1655 45.874 28.0891C46.1837 28.0641 45.8129 29.0218 45.376 29.6094C43.6366 31.9489 39.8539 33.1022 35.7013 36.1603C32.4794 38.5331 29.3688 41.5427 28.1827 43.3055C25.484 47.3162 36.9006 40.5466 40.697 39.0175C44.9443 37.3069 49.5831 36.7545 51.2563 37.0429C51.9698 37.1658 52.2087 37.9079 52.2131 38.6374C52.2228 40.2571 50.767 41.7 49.2402 42.79C47.0795 44.3324 44.0741 44.7581 41.23 45.4178C38.6787 45.6362 27.4116 45.9289 21.3478 44.4785C20.9109 44.1814 20.3342 44.1814 19.7401 44.1814" stroke="#FF6868" stroke-width="6.156" stroke-linecap="round"/>
<path d="M46.1755 40.707L37.3789 42.4664" stroke="#FF6868" stroke-width="4.617" stroke-linecap="round"/>
<path d="M12 22.9854C12 23.2633 12.0503 23.82 12.0887 24.8472C12.1103 25.4238 12.2026 25.9278 12.2536 26.8401C12.2898 27.4876 12.431 28.1362 12.5959 28.6061C12.7399 29.0165 12.8118 29.481 12.9134 29.9136C13.0164 30.3516 13.1925 30.8015 13.3448 31.2839C13.4934 31.7547 13.5992 32.1722 13.7381 32.5789C13.8748 32.9786 13.954 33.3906 14.1189 33.7973C14.2805 34.1958 14.3607 34.609 14.4364 35.0157C14.5145 35.4344 14.7155 35.8777 14.8298 36.3103C14.9418 36.7346 15.0963 37.122 15.2612 37.5287C15.4227 37.9272 15.5532 38.3404 15.6674 38.7471C15.8327 39.1537 15.934 39.4835 16.0352 39.7241C16.0863 39.8391 16.1365 39.9396 16.1883 40.0432" stroke="#FF6868" stroke-width="4.617" stroke-linecap="round"/>
<path d="M12.5776 21.8784C12.5479 22.7159 12.4877 24.6766 12.592 25.9948C12.6339 26.5253 12.9065 26.968 12.9667 27.5372C13.0325 28.1599 13.2066 28.7346 13.3706 29.3941C13.5104 29.9564 13.5948 30.6216 13.7453 31.296C13.8755 31.8792 13.9255 32.3594 14.0894 32.8393C14.281 33.3997 14.4341 34.126 14.5837 34.6661C14.7637 35.3158 15.002 36.0113 15.1233 36.7625C15.2095 37.2967 15.4225 37.7509 15.5276 38.2308C15.6451 38.7672 15.8718 39.487 16.0214 40.1173C16.1671 40.7311 16.4702 41.2248 16.6953 41.7352C16.9001 42.1994 17.0992 42.6931 17.354 43.1729C17.6231 43.6799 18.0266 44.1308 18.417 44.6704C18.7283 45.1006 19.1947 45.3601 19.6746 45.6746C20.118 45.9652 20.6918 46.0789 21.2318 46.1697C21.8704 46.277 22.3991 46.3791 22.9391 46.5588C23.5395 46.7586 24.2843 46.6792 26.2508 46.7538C27.6755 46.8078 30.3748 46.769 31.8242 46.7542C33.8716 46.7333 34.8893 46.6199 36.1455 46.5745C36.7781 46.4698 37.3748 46.4096 38.2581 46.335C38.5429 46.3198 38.8987 46.3198 39.5349 46.2299" stroke="#FF6868" stroke-width="4.617" stroke-linecap="round"/>
<path d="M12.6095 27.1733C12.5334 28.0041 12.6339 29.633 12.8247 30.1288C12.9835 30.5415 13.1167 30.9535 13.2816 31.3601C13.4431 31.7586 13.5736 32.1719 13.6878 32.5785C13.7173 32.6834 13.7762 32.7811 13.8021 32.7072C14.0285 32.0612 13.7015 31.6175 13.5873 31.1477C13.4752 30.6867 13.3208 30.1965 13.2191 29.625C13.1094 29.0082 13.0421 28.2928 12.9271 28.0361C12.6467 27.4105 13.0664 29.0253 13.0664 29.0897C13.0664 29.6093 12.9652 28.2151 12.902 28.113C12.4453 27.3757 12.8121 30.4966 12.9012 30.9158C12.9993 31.3772 13.0406 31.7911 13.1422 32.1978C13.2439 32.6044 13.2949 33.0598 13.4213 33.5175C13.5649 34.0372 13.6498 34.5067 13.8146 34.9392C13.9629 35.3283 14.0046 35.751 14.069 36.2208C14.1305 36.6701 14.3092 37.172 14.4494 37.6803C14.5851 38.1726 14.7159 38.5686 14.944 38.9752C15.1564 39.3541 15.2992 39.787 15.49 40.2568C15.6595 40.6746 15.9084 41.0816 16.1749 41.5514C16.4138 41.9725 16.7202 42.4264 17.0252 42.8083C17.3645 43.2332 17.8107 43.6448 18.3186 43.9761C19.1578 44.5233 19.9916 44.8891 21.1468 45.1949C21.607 45.3167 22.7034 45.2973 24.2245 45.2722C25.2456 45.2553 25.757 45.0947 25.9977 44.9683C26.2132 44.7916 26.3921 44.5876 26.5315 44.385C26.5954 44.2829 26.6457 44.1824 26.6975 44.0789" stroke="#FF6868" stroke-width="4.617" stroke-linecap="round"/>
<path d="M24.5518 34.2334L24.5875 34.5391" stroke="#0D0D0D" stroke-width="2.25" stroke-linecap="round"/>
<path d="M30.708 33.3101L30.7437 33.6158" stroke="#0D0D0D" stroke-width="2.25" stroke-linecap="round"/>
<path d="M20.5498 30.2319L24.5975 31.0016" stroke="#0D0D0D" stroke-width="1.8" stroke-linecap="round"/>
<path d="M30.0929 37.6433C28.3647 37.552 26.7223 37.7327 25.8983 37.9617C25.0446 38.199 24.4393 39.3113 24.1323 39.9527C23.7752 40.6987 23.9785 41.5039 24.1756 41.8534C24.4479 42.3362 26.2168 42.2056 27.2926 42.0541C27.9289 41.9645 28.4176 41.8716 29.3725 41.6891C31.5437 41.2742 32.3704 41.2949 32.8139 40.9144C33.4639 40.3567 32.7117 38.4408 32.2691 37.8573C32.1624 37.7957 32.0419 37.7656 31.7992 37.75C31.5565 37.7345 31.1952 37.7345 30.5491 37.6433" stroke="#0D0D0D" stroke-width="1.8" stroke-linecap="round"/>
<path d="M29.4766 30.3262L31.9753 29.0006" stroke="#0D0D0D" stroke-width="1.8" stroke-linecap="round"/>
<path d="M13.4853 1.91406C9.73369 2.82457 7.51071 4.44155 5.42173 6.6767C4.35288 8.40634 3.43934 9.7249 2.83183 10.7374C2.52579 11.2475 2.22432 11.7499 1.30469 13.1812" stroke="#1A1A1A" stroke-width="2" stroke-linecap="round"/>
<path d="M1 5.87256C1 6.07354 1 6.27452 1.5527 7.03124C2.10539 7.78797 3.21078 9.09434 4.95869 10.7448" stroke="#1A1A1A" stroke-width="2" stroke-linecap="round"/>
<path d="M8.30859 1.00049C8.50958 1.50294 8.71056 2.00539 9.01508 2.71644C9.3196 3.42748 9.72156 4.3319 10.0794 4.99879C10.4372 5.66568 10.7386 6.06764 11.6583 6.48177" stroke="#1A1A1A" stroke-width="2" stroke-linecap="round"/>
<path d="M63.9587 37.0005C63.9587 37.2015 63.9587 40.7217 63.6572 46.7024C63.3558 49.2664 62.7528 50.8742 62.191 52.1045C61.6292 53.3347 61.1267 54.1387 60 55.576" stroke="#1A1A1A" stroke-width="2" stroke-linecap="round"/>
<path d="M61.5225 42.4818C61.9244 42.4818 63.1364 42.4818 64.9102 42.4315C65.6791 42.3813 66.1815 42.2808 66.7419 42.229C67.3022 42.1772 67.9051 42.1772 68.5263 42.1772" stroke="#1A1A1A" stroke-width="2" stroke-linecap="round"/>
<path d="M60.6094 48.8765C61.5138 49.1779 62.4182 49.4794 63.0851 49.7352C63.752 49.991 64.1539 50.192 64.562 50.3458C64.97 50.4995 65.372 50.6 66.0907 50.7036" stroke="#1A1A1A" stroke-width="2" stroke-linecap="round"/>
</svg>
