<svg width="48" height="58" viewBox="0 0 48 58" fill="none" xmlns="http://www.w3.org/2000/svg">
<path d="M12.1769 36.2571C9.43335 31.067 4.46168 19.0878 4.67355 13.6312C4.71354 12.6014 5.75482 12.6657 6.48659 13.1703C9.96526 15.5691 9.844 19.4985 11.6592 22.9193C13.0568 25.553 13.7759 27.7992 13.9965 31.2199C14.0487 32.0297 14.2128 32.6048 14.287 31.7485C14.8408 25.3641 14.7982 22.4343 15.1608 17.644C15.8879 8.03802 16.2486 5.39614 17.5592 3.35154C17.8443 2.90676 18.5728 3.05445 18.942 3.41488C23.983 8.33658 19.3155 22.9848 19.0228 27.2837C18.6967 32.0728 18.149 33.7756 17.9306 34.361C16.5771 37.9885 21.7795 24.1818 22.876 20.9074C24.3552 16.4907 27.3103 12.9716 29.6433 11.2153C30.2268 10.776 30.8054 10.2018 31.2466 10.193C31.6878 10.1843 31.9762 10.761 32.1247 11.4906C32.7956 14.7858 30.0976 18.616 28.3479 21.104C26.6023 23.5862 24.5667 25.9031 22.2338 28.7472C20.1705 31.2627 18.8786 32.9019 18.8742 33.3431C18.8223 38.5949 29.6258 25.641 32.7014 23.2316C35.0326 21.4054 36.926 20.2412 37.874 20.1647C38.1837 20.1398 37.8129 21.0975 37.376 21.6851C35.6366 24.0246 31.8539 25.1779 27.7013 28.236C24.4794 30.6088 21.3688 33.6184 20.1827 35.3812C17.484 39.3919 28.9006 32.6223 32.697 31.0932C36.9443 29.3826 41.5831 28.8302 43.2563 29.1185C43.9698 29.2415 44.2087 29.9835 44.2131 30.7131C44.2228 32.3328 42.767 33.7756 41.2402 34.8656C39.0795 36.4081 36.0741 36.8338 33.23 37.4935C30.6787 37.7119 19.4116 38.0046 13.3478 36.5542C12.9109 36.2571 12.3342 36.2571 11.7401 36.2571" stroke="#FF6868" stroke-width="6.156" stroke-linecap="round"/>
<path d="M38.1755 32.7827L29.3789 34.5421" stroke="#FF6868" stroke-width="4.617" stroke-linecap="round"/>
<path d="M4 15.061C4 15.339 4.05026 15.8957 4.08871 16.9229C4.1103 17.4995 4.20256 18.0035 4.25358 18.9158C4.28979 19.5632 4.43101 20.2119 4.59588 20.6817C4.73989 21.0922 4.81177 21.5567 4.91343 21.9893C5.01639 22.4273 5.19252 22.8772 5.34482 23.3596C5.49345 23.8304 5.59917 24.2479 5.73814 24.6545C5.87477 25.0543 5.95403 25.4663 6.1189 25.873C6.28045 26.2714 6.36068 26.6847 6.43645 27.0914C6.51447 27.5101 6.71554 27.9534 6.82977 28.3859C6.94184 28.8103 7.0963 29.1977 7.26116 29.6044C7.42272 30.0028 7.5532 30.4161 7.66743 30.8228C7.83268 31.2294 7.93396 31.5592 8.03524 31.7998C8.08626 31.9148 8.13652 32.0153 8.18831 32.1189" stroke="#FF6868" stroke-width="4.617" stroke-linecap="round"/>
<path d="M4.57759 13.9541C4.54794 14.7916 4.48773 16.7523 4.59197 18.0705C4.63392 18.601 4.90647 19.0436 4.96667 19.6129C5.03253 20.2356 5.20659 20.8103 5.37058 21.4698C5.51039 22.0321 5.59478 22.6973 5.74529 23.3717C5.87546 23.9549 5.92546 24.4351 6.08945 24.915C6.28096 25.4754 6.43405 26.2017 6.58367 26.7418C6.76366 27.3915 7.00195 28.0869 7.12326 28.8382C7.20952 29.3723 7.42249 29.8266 7.52762 30.3064C7.64514 30.8428 7.87178 31.5626 8.02139 32.193C8.16708 32.8068 8.47023 33.3005 8.69533 33.8109C8.90007 34.2751 9.09924 34.7688 9.35398 35.2486C9.62312 35.7556 10.0266 36.2065 10.417 36.7461C10.7283 37.1763 11.1947 37.4358 11.6746 37.7503C12.118 38.0409 12.6918 38.1546 13.2318 38.2454C13.8704 38.3527 14.3991 38.4547 14.9391 38.6345C15.5395 38.8343 16.2843 38.7549 18.2508 38.8294C19.6755 38.8835 22.3748 38.8447 23.8242 38.8299C25.8716 38.809 26.8893 38.6956 28.1455 38.6502C28.7781 38.5455 29.3748 38.4853 30.2581 38.4107C30.5429 38.3954 30.8987 38.3954 31.5349 38.3056" stroke="#FF6868" stroke-width="4.617" stroke-linecap="round"/>
<path d="M4.60954 19.249C4.53339 20.0798 4.63391 21.7087 4.82467 22.2044C4.9835 22.6172 5.11671 23.0292 5.28158 23.4358C5.44313 23.8343 5.57362 24.2476 5.68784 24.6542C5.7173 24.7591 5.77618 24.8568 5.80207 24.7829C6.02852 24.1369 5.70155 23.6932 5.58732 23.2233C5.47525 22.7623 5.32079 22.2722 5.21913 21.7007C5.10942 21.0839 5.04208 20.3684 4.92709 20.1118C4.64675 19.4861 5.06645 21.101 5.06645 21.1654C5.06645 21.6849 4.96517 20.2908 4.90196 20.1887C4.44526 19.4514 4.81211 22.5723 4.9012 22.9915C4.99928 23.4529 5.04056 23.8668 5.14222 24.2735C5.24389 24.6801 5.2949 25.1355 5.42131 25.5932C5.56487 26.1129 5.64977 26.5824 5.81463 27.0149C5.96293 27.404 6.00463 27.8267 6.06898 28.2965C6.13051 28.7458 6.30924 29.2477 6.44935 29.756C6.58506 30.2483 6.71588 30.6443 6.94395 31.0509C7.15643 31.4298 7.2992 31.8627 7.48996 32.3325C7.65955 32.7502 7.90841 33.1572 8.17494 33.6271C8.41378 34.0481 8.72018 34.5021 9.02516 34.884C9.36452 35.3089 9.81066 35.7205 10.3186 36.0517C11.1578 36.599 11.9916 36.9648 13.1468 37.2705C13.607 37.3923 14.7034 37.373 16.2245 37.3478C17.2456 37.331 17.757 37.1704 17.9977 37.044C18.2132 36.8673 18.3921 36.6632 18.5315 36.4607C18.5954 36.3586 18.6457 36.2581 18.6975 36.1545" stroke="#FF6868" stroke-width="4.617" stroke-linecap="round"/>
<path d="M16.5518 26.3091L16.5875 26.6148" stroke="#0D0D0D" stroke-width="2.25" stroke-linecap="round"/>
<path d="M22.708 25.3857L22.7437 25.6915" stroke="#0D0D0D" stroke-width="2.25" stroke-linecap="round"/>
<path d="M12.5498 22.3076L16.5975 23.0773" stroke="#0D0D0D" stroke-width="1.8" stroke-linecap="round"/>
<path d="M22.0929 29.719C20.3647 29.6277 18.7223 29.8084 17.8983 30.0374C17.0446 30.2747 16.4393 31.3869 16.1323 32.0284C15.7752 32.7744 15.9785 33.5796 16.1756 33.929C16.4479 34.4119 18.2168 34.2813 19.2926 34.1298C19.9289 34.0402 20.4176 33.9473 21.3725 33.7648C23.5437 33.3499 24.3704 33.3706 24.8139 32.9901C25.4639 32.4324 24.7117 30.5165 24.2691 29.9329C24.1624 29.8714 24.0419 29.8412 23.7992 29.8257C23.5565 29.8102 23.1952 29.8102 22.5491 29.719" stroke="#0D0D0D" stroke-width="1.8" stroke-linecap="round"/>
<path d="M21.4766 22.4019L23.9753 21.0763" stroke="#0D0D0D" stroke-width="1.8" stroke-linecap="round"/>
<path d="M3.42701 53.8874C3.11063 53.6282 2.64863 53.168 1.97123 52.3029C1.41086 51.3564 1.05807 50.6525 1.01474 50.3791C1 50.22 1 50.0198 1 49.8135" stroke="#E0D0FF" stroke-width="2" stroke-linecap="round"/>
<path d="M11.427 53.8874C11.1106 53.6282 10.6486 53.168 9.97123 52.3029C9.41086 51.3564 9.05807 50.6525 9.01474 50.3791C9 50.22 9 50.0198 9 49.8135" stroke="#FCA8A8" stroke-width="2" stroke-linecap="round"/>
<path d="M19.427 53.8874C19.1106 53.6282 18.6486 53.168 17.9712 52.3029C17.4109 51.3564 17.0581 50.6525 17.0147 50.3791C17 50.22 17 50.0198 17 49.8135" stroke="#FFF06C" stroke-width="2" stroke-linecap="round"/>
<path d="M1 49.8135C1.34498 50.3318 2.09389 51.2523 2.55892 51.964C2.64603 52.0949 2.73184 52.2093 2.81896 52.3397C2.90607 52.4702 2.99188 52.6132 3.08029 52.7606" stroke="#E0D0FF" stroke-width="2" stroke-linecap="round"/>
<path d="M9 49.8135C9.34498 50.3318 10.0939 51.2523 10.5589 51.964C10.646 52.0949 10.7318 52.2093 10.819 52.3397C10.9061 52.4702 10.9919 52.6132 11.0803 52.7606" stroke="#FCA8A8" stroke-width="2" stroke-linecap="round"/>
<path d="M17 49.8135C17.345 50.3318 18.0939 51.2523 18.5589 51.964C18.646 52.0949 18.7318 52.2093 18.819 52.3397C18.9061 52.4702 18.9919 52.6132 19.0803 52.7606" stroke="#FFF06C" stroke-width="2" stroke-linecap="round"/>
<path d="M2.64724 51.7204C2.53196 50.6525 2.47389 49.7909 2.58873 48.8773C2.63714 48.4923 2.87781 48.2255 3.0503 48.095C3.14313 48.0248 3.33721 48.1648 3.45422 48.2805C3.80181 49.0871 4.03411 51.2731 3.94786 52.4117C3.91882 52.5568 3.89022 52.6999 3.86075 53.1073" stroke="#E0D0FF" stroke-width="2" stroke-linecap="round"/>
<path d="M10.6472 51.7204C10.532 50.6525 10.4739 49.7909 10.5887 48.8773C10.6371 48.4923 10.8778 48.2255 11.0503 48.095C11.1431 48.0248 11.3372 48.1648 11.4542 48.2805C11.8018 49.0871 12.0341 51.2731 11.9479 52.4117C11.9188 52.5568 11.8902 52.6999 11.8607 53.1073" stroke="#FCA8A8" stroke-width="2" stroke-linecap="round"/>
<path d="M18.6472 51.7204C18.532 50.6525 18.4739 49.7909 18.5887 48.8773C18.6371 48.4923 18.8778 48.2255 19.0503 48.095C19.1431 48.0248 19.3372 48.1648 19.4542 48.2805C19.8018 49.0871 20.0341 51.2731 19.9479 52.4117C19.9188 52.5568 19.8902 52.6999 19.8607 53.1073" stroke="#FFF06C" stroke-width="2" stroke-linecap="round"/>
<path d="M4.46761 50.3336C4.55342 49.8152 4.84206 49.3524 5.11553 49.179C5.2588 49.0882 5.47482 49.1201 5.59227 49.1773C6.23232 49.489 5.65338 50.9091 5.40764 51.4725C5.13077 52.1073 4.81606 52.556 4.54085 53.0046C4.38266 53.1922 4.23704 53.3951 4.10746 53.6113C4.03508 53.7132 3.94927 53.799 3.6875 53.9741" stroke="#E0D0FF" stroke-width="2" stroke-linecap="round"/>
<path d="M12.4676 50.3336C12.5534 49.8152 12.8421 49.3524 13.1155 49.179C13.2588 49.0882 13.4748 49.1201 13.5923 49.1773C14.2323 49.489 13.6534 50.9091 13.4076 51.4725C13.1308 52.1073 12.8161 52.556 12.5409 53.0046C12.3827 53.1922 12.237 53.3951 12.1075 53.6113C12.0351 53.7132 11.9493 53.799 11.6875 53.9741" stroke="#FCA8A8" stroke-width="2" stroke-linecap="round"/>
<path d="M20.4676 50.3336C20.5534 49.8152 20.8421 49.3524 21.1155 49.179C21.2588 49.0882 21.4748 49.1201 21.5923 49.1773C22.2323 49.489 21.6534 50.9091 21.4076 51.4725C21.1308 52.1073 20.8161 52.556 20.5409 53.0046C20.3827 53.1922 20.237 53.3951 20.1075 53.6113C20.0351 53.7132 19.9493 53.799 19.6875 53.9741" stroke="#FFF06C" stroke-width="2" stroke-linecap="round"/>
<path d="M3.68683 54.5809C2.3303 53.9169 1.8111 53.6291 1.37683 53.4683C1.28576 53.4346 1.23208 53.6534 1.21691 53.7986C1.20174 53.9438 1.23035 54.0868 1.28799 54.2034C1.66288 54.5228 2.12488 54.6095 2.64235 54.6528C2.9882 54.6675 3.50307 54.6675 4.03355 54.6675" stroke="#AFECB2" stroke-width="2" stroke-linecap="round"/>
<path d="M11.6868 54.5809C10.3303 53.9169 9.8111 53.6291 9.37683 53.4683C9.28576 53.4346 9.23208 53.6534 9.21691 53.7986C9.20174 53.9438 9.23035 54.0868 9.28799 54.2034C9.66288 54.5228 10.1249 54.6095 10.6423 54.6528C10.9882 54.6675 11.5031 54.6675 12.0335 54.6675" stroke="#AFECB2" stroke-width="2" stroke-linecap="round"/>
<path d="M19.6868 54.5809C18.3303 53.9169 17.8111 53.6291 17.3768 53.4683C17.2858 53.4346 17.2321 53.6534 17.2169 53.7986C17.2017 53.9438 17.2303 54.0868 17.288 54.2034C17.6629 54.5228 18.1249 54.6095 18.6423 54.6528C18.9882 54.6675 19.5031 54.6675 20.0335 54.6675" stroke="#AFECB2" stroke-width="2" stroke-linecap="round"/>
<path d="M4.4668 54.5805C4.4954 54.0908 4.7251 53.6288 5.01461 53.2097C5.17094 52.9834 5.448 52.8764 5.64996 52.847C5.85072 52.8177 5.85366 53.3072 5.82505 53.6678C5.56588 54.1463 5.24777 54.4063 5.06055 54.5649C4.95913 54.6377 4.84471 54.695 4.64015 54.8406" stroke="#AFECB2" stroke-width="2" stroke-linecap="round"/>
<path d="M12.4668 54.5805C12.4954 54.0908 12.7251 53.6288 13.0146 53.2097C13.1709 52.9834 13.448 52.8764 13.65 52.847C13.8507 52.8177 13.8537 53.3072 13.8251 53.6678C13.5659 54.1463 13.2478 54.4063 13.0605 54.5649C12.9591 54.6377 12.8447 54.695 12.6402 54.8406" stroke="#AFECB2" stroke-width="2" stroke-linecap="round"/>
<path d="M20.4668 54.5805C20.4954 54.0908 20.7251 53.6288 21.0146 53.2097C21.1709 52.9834 21.448 52.8764 21.65 52.847C21.8507 52.8177 21.8537 53.3072 21.8251 53.6678C21.5659 54.1463 21.2478 54.4063 21.0605 54.5649C20.9591 54.6377 20.8447 54.695 20.6402 54.8406" stroke="#AFECB2" stroke-width="2" stroke-linecap="round"/>
<path d="M3.86035 55.1011C3.94616 55.1583 4.03198 55.2155 4.09049 55.3022C4.14899 55.3888 4.1776 55.5033 4.19233 55.7624C4.20707 56.0216 4.20707 56.4221 4.38042 56.8347" stroke="#AFECB2" stroke-linecap="round"/>
<path d="M11.8604 55.1011C11.9462 55.1583 12.032 55.2155 12.0905 55.3022C12.149 55.3888 12.1776 55.5033 12.1923 55.7624C12.2071 56.0216 12.2071 56.4221 12.3804 56.8347" stroke="#AFECB2" stroke-linecap="round"/>
<path d="M19.8604 55.1011C19.9462 55.1583 20.032 55.2155 20.0905 55.3022C20.149 55.3888 20.1776 55.5033 20.1923 55.7624C20.2071 56.0216 20.2071 56.4221 20.3804 56.8347" stroke="#AFECB2" stroke-linecap="round"/>
<path d="M28.427 53.8874C28.1106 53.6282 27.6486 53.168 26.9712 52.3029C26.4109 51.3564 26.0581 50.6525 26.0147 50.3791C26 50.22 26 50.0198 26 49.8135" stroke="#E0D0FF" stroke-width="2" stroke-linecap="round"/>
<path d="M36.427 53.8874C36.1106 53.6282 35.6486 53.168 34.9712 52.3029C34.4109 51.3564 34.0581 50.6525 34.0147 50.3791C34 50.22 34 50.0198 34 49.8135" stroke="#FCA8A8" stroke-width="2" stroke-linecap="round"/>
<path d="M44.427 53.8874C44.1106 53.6282 43.6486 53.168 42.9712 52.3029C42.4109 51.3564 42.0581 50.6525 42.0147 50.3791C42 50.22 42 50.0198 42 49.8135" stroke="#FFF06C" stroke-width="2" stroke-linecap="round"/>
<path d="M26 49.8135C26.345 50.3318 27.0939 51.2523 27.5589 51.964C27.646 52.0949 27.7318 52.2093 27.819 52.3397C27.9061 52.4702 27.9919 52.6132 28.0803 52.7606" stroke="#E0D0FF" stroke-width="2" stroke-linecap="round"/>
<path d="M34 49.8135C34.345 50.3318 35.0939 51.2523 35.5589 51.964C35.646 52.0949 35.7318 52.2093 35.819 52.3397C35.9061 52.4702 35.9919 52.6132 36.0803 52.7606" stroke="#FCA8A8" stroke-width="2" stroke-linecap="round"/>
<path d="M42 49.8135C42.345 50.3318 43.0939 51.2523 43.5589 51.964C43.646 52.0949 43.7318 52.2093 43.819 52.3397C43.9061 52.4702 43.9919 52.6132 44.0803 52.7606" stroke="#FFF06C" stroke-width="2" stroke-linecap="round"/>
<path d="M27.6472 51.7204C27.532 50.6525 27.4739 49.7909 27.5887 48.8773C27.6371 48.4923 27.8778 48.2255 28.0503 48.095C28.1431 48.0248 28.3372 48.1648 28.4542 48.2805C28.8018 49.0871 29.0341 51.2731 28.9479 52.4117C28.9188 52.5568 28.8902 52.6999 28.8607 53.1073" stroke="#E0D0FF" stroke-width="2" stroke-linecap="round"/>
<path d="M35.6472 51.7204C35.532 50.6525 35.4739 49.7909 35.5887 48.8773C35.6371 48.4923 35.8778 48.2255 36.0503 48.095C36.1431 48.0248 36.3372 48.1648 36.4542 48.2805C36.8018 49.0871 37.0341 51.2731 36.9479 52.4117C36.9188 52.5568 36.8902 52.6999 36.8607 53.1073" stroke="#FCA8A8" stroke-width="2" stroke-linecap="round"/>
<path d="M43.6472 51.7204C43.532 50.6525 43.4739 49.7909 43.5887 48.8773C43.6371 48.4923 43.8778 48.2255 44.0503 48.095C44.1431 48.0248 44.3372 48.1648 44.4542 48.2805C44.8018 49.0871 45.0341 51.2731 44.9479 52.4117C44.9188 52.5568 44.8902 52.6999 44.8607 53.1073" stroke="#FFF06C" stroke-width="2" stroke-linecap="round"/>
<path d="M29.4676 50.3336C29.5534 49.8152 29.8421 49.3524 30.1155 49.179C30.2588 49.0882 30.4748 49.1201 30.5923 49.1773C31.2323 49.489 30.6534 50.9091 30.4076 51.4725C30.1308 52.1073 29.8161 52.556 29.5409 53.0046C29.3827 53.1922 29.237 53.3951 29.1075 53.6113C29.0351 53.7132 28.9493 53.799 28.6875 53.9741" stroke="#E0D0FF" stroke-width="2" stroke-linecap="round"/>
<path d="M37.4676 50.3336C37.5534 49.8152 37.8421 49.3524 38.1155 49.179C38.2588 49.0882 38.4748 49.1201 38.5923 49.1773C39.2323 49.489 38.6534 50.9091 38.4076 51.4725C38.1308 52.1073 37.8161 52.556 37.5409 53.0046C37.3827 53.1922 37.237 53.3951 37.1075 53.6113C37.0351 53.7132 36.9493 53.799 36.6875 53.9741" stroke="#FCA8A8" stroke-width="2" stroke-linecap="round"/>
<path d="M45.4676 50.3336C45.5534 49.8152 45.8421 49.3524 46.1155 49.179C46.2588 49.0882 46.4748 49.1201 46.5923 49.1773C47.2323 49.489 46.6534 50.9091 46.4076 51.4725C46.1308 52.1073 45.8161 52.556 45.5409 53.0046C45.3827 53.1922 45.237 53.3951 45.1075 53.6113C45.0351 53.7132 44.9493 53.799 44.6875 53.9741" stroke="#FFF06C" stroke-width="2" stroke-linecap="round"/>
<path d="M28.6868 54.5809C27.3303 53.9169 26.8111 53.6291 26.3768 53.4683C26.2858 53.4346 26.2321 53.6534 26.2169 53.7986C26.2017 53.9438 26.2303 54.0868 26.288 54.2034C26.6629 54.5228 27.1249 54.6095 27.6423 54.6528C27.9882 54.6675 28.5031 54.6675 29.0335 54.6675" stroke="#AFECB2" stroke-width="2" stroke-linecap="round"/>
<path d="M36.6868 54.5809C35.3303 53.9169 34.8111 53.6291 34.3768 53.4683C34.2858 53.4346 34.2321 53.6534 34.2169 53.7986C34.2017 53.9438 34.2303 54.0868 34.288 54.2034C34.6629 54.5228 35.1249 54.6095 35.6423 54.6528C35.9882 54.6675 36.5031 54.6675 37.0335 54.6675" stroke="#AFECB2" stroke-width="2" stroke-linecap="round"/>
<path d="M44.6868 54.5809C43.3303 53.9169 42.8111 53.6291 42.3768 53.4683C42.2858 53.4346 42.2321 53.6534 42.2169 53.7986C42.2017 53.9438 42.2303 54.0868 42.288 54.2034C42.6629 54.5228 43.1249 54.6095 43.6423 54.6528C43.9882 54.6675 44.5031 54.6675 45.0335 54.6675" stroke="#AFECB2" stroke-width="2" stroke-linecap="round"/>
<path d="M29.4668 54.5805C29.4954 54.0908 29.7251 53.6288 30.0146 53.2097C30.1709 52.9834 30.448 52.8764 30.65 52.847C30.8507 52.8177 30.8537 53.3072 30.8251 53.6678C30.5659 54.1463 30.2478 54.4063 30.0605 54.5649C29.9591 54.6377 29.8447 54.695 29.6402 54.8406" stroke="#AFECB2" stroke-width="2" stroke-linecap="round"/>
<path d="M37.4668 54.5805C37.4954 54.0908 37.7251 53.6288 38.0146 53.2097C38.1709 52.9834 38.448 52.8764 38.65 52.847C38.8507 52.8177 38.8537 53.3072 38.8251 53.6678C38.5659 54.1463 38.2478 54.4063 38.0605 54.5649C37.9591 54.6377 37.8447 54.695 37.6402 54.8406" stroke="#AFECB2" stroke-width="2" stroke-linecap="round"/>
<path d="M45.4668 54.5805C45.4954 54.0908 45.7251 53.6288 46.0146 53.2097C46.1709 52.9834 46.448 52.8764 46.65 52.847C46.8507 52.8177 46.8537 53.3072 46.8251 53.6678C46.5659 54.1463 46.2478 54.4063 46.0605 54.5649C45.9591 54.6377 45.8447 54.695 45.6402 54.8406" stroke="#AFECB2" stroke-width="2" stroke-linecap="round"/>
<path d="M28.8604 55.1011C28.9462 55.1583 29.032 55.2155 29.0905 55.3022C29.149 55.3888 29.1776 55.5033 29.1923 55.7624C29.2071 56.0216 29.2071 56.4221 29.3804 56.8347" stroke="#AFECB2" stroke-linecap="round"/>
<path d="M36.8604 55.1011C36.9462 55.1583 37.032 55.2155 37.0905 55.3022C37.149 55.3888 37.1776 55.5033 37.1923 55.7624C37.2071 56.0216 37.2071 56.4221 37.3804 56.8347" stroke="#AFECB2" stroke-linecap="round"/>
<path d="M44.8604 55.1011C44.9462 55.1583 45.032 55.2155 45.0905 55.3022C45.149 55.3888 45.1776 55.5033 45.1923 55.7624C45.2071 56.0216 45.2071 56.4221 45.3804 56.8347" stroke="#AFECB2" stroke-linecap="round"/>
</svg>
