<svg width="56" height="57" viewBox="0 0 56 57" fill="none" xmlns="http://www.w3.org/2000/svg">
<path d="M10.5881 51.9807C7.84448 46.7906 2.87281 34.8115 3.08468 29.3549C3.12467 28.3251 4.16596 28.3894 4.89772 28.894C8.3764 31.2927 8.25514 35.2222 10.0704 38.6429C11.468 41.2766 12.187 43.5228 12.4077 46.9435C12.4599 47.7533 12.6239 48.3285 12.6982 47.4722C13.2519 41.0878 13.2093 38.158 13.5719 33.3676C14.299 23.7617 14.6598 21.1198 15.9704 19.0752C16.2555 18.6304 16.9839 18.7781 17.3531 19.1385C22.3941 24.0602 17.7266 38.7084 17.4339 43.0073C17.1078 47.7965 16.5602 49.4993 16.3417 50.0847C14.9882 53.7121 20.1906 39.9055 21.2872 36.6311C22.7663 32.2143 25.7215 28.6952 28.0544 26.939C28.638 26.4997 29.2165 25.9254 29.6577 25.9167C30.099 25.9079 30.3873 26.4846 30.5358 27.2142C31.2067 30.5094 28.5087 34.3397 26.759 36.8277C25.0135 39.3098 22.9779 41.6268 20.645 44.4708C18.5816 46.9863 17.2897 48.6255 17.2854 49.0668C17.2335 54.3185 28.0369 41.3646 31.1125 38.9552C33.4437 37.129 35.3371 35.9648 36.2852 35.8884C36.5948 35.8634 36.224 36.8211 35.7871 37.4087C34.0477 39.7482 30.265 40.9015 26.1125 43.9597C22.8906 46.3324 19.78 49.342 18.5938 51.1048C15.8951 55.1155 27.3117 48.3459 31.1082 46.8169C35.3555 45.1062 39.9942 44.5538 41.6675 44.8422C42.3809 44.9651 42.6199 45.7072 42.6242 46.4368C42.6339 48.0564 41.1782 49.4993 39.6513 50.5893C37.4906 52.1317 34.4852 52.5574 31.6412 53.2171C29.0898 53.4355 17.8227 53.7282 11.7589 52.2778C11.322 51.9807 10.7453 51.9807 10.1512 51.9807" stroke="#FF6868" stroke-width="6.156" stroke-linecap="round"/>
<path d="M36.5867 48.5063L27.79 50.2657" stroke="#FF6868" stroke-width="4.617" stroke-linecap="round"/>
<path d="M2.41113 30.7847C2.41113 31.0626 2.46139 31.6193 2.49985 32.6466C2.52143 33.2231 2.61369 33.7271 2.66471 34.6394C2.70092 35.2869 2.84215 35.9355 3.00701 36.4054C3.15103 36.8158 3.2229 37.2803 3.32456 37.7129C3.42752 38.151 3.60366 38.6008 3.75596 39.0832C3.90458 39.554 4.0103 39.9715 4.14928 40.3782C4.28591 40.778 4.36517 41.1899 4.53003 41.5966C4.69159 41.9951 4.77181 42.4084 4.84758 42.815C4.9256 43.2338 5.12668 43.677 5.2409 44.1096C5.35297 44.534 5.50743 44.9213 5.6723 45.328C5.83385 45.7265 5.96434 46.1398 6.07856 46.5464C6.24381 46.953 6.34509 47.2828 6.44637 47.5234C6.49739 47.6384 6.54765 47.7389 6.59944 47.8425" stroke="#FF6868" stroke-width="4.617" stroke-linecap="round"/>
<path d="M2.98873 29.6777C2.95907 30.5152 2.89886 32.4759 3.0031 33.7941C3.04505 34.3246 3.3176 34.7673 3.3778 35.3365C3.44366 35.9592 3.61773 36.5339 3.78172 37.1934C3.92152 37.7557 4.00591 38.4209 4.15642 39.0953C4.28659 39.6785 4.33659 40.1588 4.50058 40.6386C4.6921 41.199 4.84519 41.9254 4.9948 42.4654C5.1748 43.1151 5.41309 43.8106 5.53439 44.5618C5.62066 45.096 5.83362 45.5502 5.93875 46.0301C6.05628 46.5665 6.28291 47.2863 6.43252 47.9166C6.57821 48.5304 6.88136 49.0241 7.10646 49.5345C7.3112 49.9988 7.51037 50.4924 7.76512 50.9722C8.03426 51.4792 8.4377 51.9301 8.82814 52.4697C9.13941 52.8999 9.60586 53.1594 10.0857 53.4739C10.5291 53.7645 11.1029 53.8782 11.6429 53.969C12.2815 54.0763 12.8102 54.1784 13.3502 54.3581C13.9506 54.5579 14.6954 54.4785 16.6619 54.5531C18.0866 54.6071 20.786 54.5684 22.2354 54.5535C24.2827 54.5326 25.3004 54.4192 26.5566 54.3738C27.1892 54.2691 27.7859 54.2089 28.6692 54.1343C28.954 54.1191 29.3099 54.1191 29.9461 54.0292" stroke="#FF6868" stroke-width="4.617" stroke-linecap="round"/>
<path d="M3.02068 34.9727C2.94453 35.8035 3.04504 37.4323 3.2358 37.9281C3.39463 38.3408 3.52784 38.7528 3.69271 39.1594C3.85427 39.5579 3.98475 39.9712 4.09898 40.3779C4.12843 40.4827 4.18731 40.5804 4.2132 40.5066C4.43965 39.8605 4.11268 39.4168 3.99846 38.947C3.88638 38.486 3.73193 37.9959 3.63027 37.4243C3.52055 36.8076 3.45322 36.0921 3.33823 35.8354C3.05788 35.2098 3.47758 36.8246 3.47758 36.889C3.47758 37.4086 3.3763 36.0144 3.3131 35.9124C2.85639 35.175 3.22324 38.2959 3.31234 38.7151C3.41041 39.1766 3.45169 39.5905 3.55336 39.9971C3.65502 40.4037 3.70604 40.8591 3.83245 41.3168C3.976 41.8366 4.0609 42.306 4.22577 42.7385C4.37406 43.1276 4.41576 43.5503 4.48011 44.0202C4.54164 44.4695 4.72037 44.9713 4.86049 45.4796C4.99619 45.9719 5.12702 46.3679 5.35509 46.7745C5.56757 47.1534 5.71033 47.5863 5.90109 48.0562C6.07068 48.4739 6.31954 48.8809 6.58607 49.3507C6.82491 49.7718 7.13131 50.2257 7.43629 50.6076C7.77565 51.0325 8.22179 51.4441 8.72972 51.7754C9.56888 52.3227 10.4028 52.6884 11.558 52.9942C12.0182 53.116 13.1145 53.0966 14.6356 53.0715C15.6568 53.0546 16.1681 52.894 16.4088 52.7676C16.6243 52.591 16.8032 52.3869 16.9426 52.1843C17.0066 52.0823 17.0568 51.9817 17.1086 51.8782" stroke="#FF6868" stroke-width="4.617" stroke-linecap="round"/>
<path d="M14.9629 42.0327L14.9986 42.3384" stroke="#0D0D0D" stroke-width="2.25" stroke-linecap="round"/>
<path d="M21.1191 41.1094L21.1549 41.4151" stroke="#0D0D0D" stroke-width="2.25" stroke-linecap="round"/>
<path d="M10.9609 38.0312L15.0086 38.8009" stroke="#0D0D0D" stroke-width="1.8" stroke-linecap="round"/>
<path d="M20.504 45.4426C18.7758 45.3514 17.1334 45.532 16.3095 45.7611C15.4558 45.9984 14.8505 47.1106 14.5434 47.752C14.1863 48.498 14.3897 49.3032 14.5868 49.6527C14.8591 50.1355 16.6279 50.0049 17.7037 49.8534C18.34 49.7638 18.8288 49.6709 19.7837 49.4884C21.9549 49.0735 22.7815 49.0943 23.225 48.7138C23.875 48.156 23.1228 46.2401 22.6803 45.6566C22.5735 45.595 22.4531 45.5649 22.2103 45.5494C21.9676 45.5339 21.6063 45.5339 20.9603 45.4426" stroke="#0D0D0D" stroke-width="1.8" stroke-linecap="round"/>
<path d="M19.8877 38.1255L22.3865 36.7999" stroke="#0D0D0D" stroke-width="1.8" stroke-linecap="round"/>
<path d="M48.0523 5.21472C47.7596 5.13146 46.8388 4.96243 46.0365 5.23427C45.196 5.51907 44.6489 6.43074 44.2484 7.14598C43.9969 7.59513 43.8895 8.65466 43.952 9.93629C44.0058 11.041 45.1055 11.5194 45.7791 11.7736C46.9606 12.2194 48.9731 11.6506 49.6688 11.2293C50.3283 10.8299 50.28 9.92746 50.2604 8.75116C50.2476 7.97915 49.233 7.69723 48.2882 7.40205C47.945 7.29483 47.4316 7.35916 47.1119 7.44242C46.7921 7.52567 46.6672 7.69218 46.6029 7.86122C46.3603 8.49851 46.454 9.0394 46.6003 9.33332C46.705 9.46072 46.8716 9.54398 47.0614 9.58687C47.2512 9.62976 47.4594 9.62976 47.6738 9.62976" stroke="#FF6868" stroke-width="1.6" stroke-linecap="round"/>
<path d="M47.043 0.799805V2.06124" stroke="#FF6868" stroke-width="1.6" stroke-linecap="round"/>
<path d="M41.6182 3.82715C41.6598 3.82715 41.7014 3.82715 41.8061 3.86878C41.9108 3.9104 42.0773 3.99366 42.2255 4.09899C42.3738 4.20432 42.4986 4.3292 43.0057 4.45787" stroke="#FF6868" stroke-width="1.6" stroke-linecap="round"/>
<path d="M52.8457 5.97186C52.929 5.97186 53.0122 5.97186 53.1384 5.95105C53.2645 5.93024 53.431 5.88861 53.6001 5.80472C53.7691 5.72084 53.9356 5.59595 54.2333 5.46729" stroke="#FF6868" stroke-width="1.6" stroke-linecap="round"/>
<path d="M50.5752 13.2881C50.6168 13.2881 50.6584 13.2881 50.7423 13.3505C50.8262 13.413 50.9511 13.5379 51.0571 13.6854C51.163 13.833 51.2463 13.9995 51.4582 14.2972" stroke="#FF6868" stroke-width="1.6" stroke-linecap="round"/>
<path d="M39.4111 10.1974C39.4944 10.1974 39.5776 10.1974 39.7454 10.1974C39.9132 10.1974 40.1629 10.1974 40.3749 10.1766C40.5868 10.1558 40.7533 10.1142 41.051 10.0713" stroke="#FF6868" stroke-width="1.6" stroke-linecap="round"/>
<path d="M45.5923 14.2339C45.5507 14.3588 45.509 14.4837 45.4668 14.6312C45.4245 14.7788 45.3829 14.9453 45.2139 15.3692" stroke="#FF6868" stroke-width="1.6" stroke-linecap="round"/>
<path d="M53.1611 9.69287C53.2444 9.69287 53.3276 9.69287 53.4954 9.7345C53.6632 9.77613 53.913 9.85938 54.1665 9.96471C54.4201 10.07 54.6698 10.1949 54.9272 10.3236" stroke="#FF6868" stroke-width="1.6" stroke-linecap="round"/>
</svg>
