<svg width="70" height="68" viewBox="0 0 70 68" fill="none" xmlns="http://www.w3.org/2000/svg">
<path d="M20.1769 48.2805C17.4333 43.0904 12.4617 31.1113 12.6736 25.6547C12.7135 24.6249 13.7548 24.6892 14.4866 25.1938C17.9653 27.5925 17.844 31.522 19.6592 34.9427C21.0568 37.5764 21.7759 39.8226 21.9965 43.2434C22.0487 44.0531 22.2128 44.6283 22.287 43.772C22.8408 37.3876 22.7982 34.4578 23.1608 29.6674C23.8879 20.0615 24.2486 17.4196 25.5592 15.375C25.8443 14.9302 26.5728 15.0779 26.942 15.4383C31.983 20.36 27.3155 35.0082 27.0228 39.3071C26.6967 44.0963 26.149 45.7991 25.9306 46.3845C24.5771 50.0119 29.7795 36.2053 30.876 32.9309C32.3552 28.5141 35.3103 24.995 37.6433 23.2388C38.2268 22.7995 38.8054 22.2252 39.2466 22.2165C39.6878 22.2077 39.9762 22.7844 40.1247 23.514C40.7956 26.8092 38.0976 30.6395 36.3479 33.1275C34.6023 35.6096 32.5667 37.9266 30.2338 40.7706C28.1705 43.2861 26.8786 44.9253 26.8742 45.3666C26.8223 50.6183 37.6258 37.6644 40.7014 35.2551C43.0326 33.4289 44.926 32.2646 45.874 32.1882C46.1837 32.1632 45.8129 33.1209 45.376 33.7085C43.6366 36.048 39.8539 37.2013 35.7013 40.2595C32.4794 42.6322 29.3688 45.6418 28.1827 47.4046C25.484 51.4153 36.9006 44.6457 40.697 43.1167C44.9443 41.406 49.5831 40.8536 51.2563 41.142C51.9698 41.2649 52.2087 42.007 52.2131 42.7366C52.2228 44.3562 50.767 45.7991 49.2402 46.8891C47.0795 48.4315 44.0741 48.8572 41.23 49.5169C38.6787 49.7353 27.4116 50.028 21.3478 48.5776C20.9109 48.2805 20.3342 48.2805 19.7401 48.2805" stroke="#FF6868" stroke-width="6.156" stroke-linecap="round"/>
<path d="M46.1755 44.8062L37.3789 46.5655" stroke="#FF6868" stroke-width="4.617" stroke-linecap="round"/>
<path d="M12 27.0845C12 27.3624 12.0503 27.9191 12.0887 28.9464C12.1103 29.5229 12.2026 30.0269 12.2536 30.9392C12.2898 31.5867 12.431 32.2353 12.5959 32.7052C12.7399 33.1156 12.8118 33.5802 12.9134 34.0127C13.0164 34.4508 13.1925 34.9006 13.3448 35.383C13.4934 35.8538 13.5992 36.2713 13.7381 36.678C13.8748 37.0778 13.954 37.4897 14.1189 37.8964C14.2805 38.2949 14.3607 38.7082 14.4364 39.1148C14.5145 39.5336 14.7155 39.9768 14.8298 40.4094C14.9418 40.8338 15.0963 41.2211 15.2612 41.6278C15.4227 42.0263 15.5532 42.4396 15.6674 42.8462C15.8327 43.2529 15.934 43.5826 16.0352 43.8232C16.0863 43.9382 16.1365 44.0387 16.1883 44.1423" stroke="#FF6868" stroke-width="4.617" stroke-linecap="round"/>
<path d="M12.5776 25.9775C12.5479 26.815 12.4877 28.7757 12.592 30.0939C12.6339 30.6244 12.9065 31.0671 12.9667 31.6363C13.0325 32.259 13.2066 32.8337 13.3706 33.4932C13.5104 34.0555 13.5948 34.7207 13.7453 35.3951C13.8755 35.9783 13.9255 36.4586 14.0894 36.9384C14.281 37.4988 14.4341 38.2252 14.5837 38.7652C14.7637 39.4149 15.002 40.1104 15.1233 40.8616C15.2095 41.3958 15.4225 41.85 15.5276 42.3299C15.6451 42.8663 15.8718 43.5861 16.0214 44.2164C16.1671 44.8302 16.4702 45.3239 16.6953 45.8343C16.9001 46.2986 17.0992 46.7922 17.354 47.2721C17.6231 47.779 18.0266 48.2299 18.417 48.7695C18.7283 49.1997 19.1947 49.4592 19.6746 49.7737C20.118 50.0643 20.6918 50.1781 21.2318 50.2688C21.8704 50.3761 22.3991 50.4782 22.9391 50.6579C23.5395 50.8577 24.2843 50.7783 26.2508 50.8529C27.6755 50.9069 30.3748 50.8682 31.8242 50.8533C33.8716 50.8324 34.8893 50.719 36.1455 50.6736C36.7781 50.5689 37.3748 50.5087 38.2581 50.4341C38.5429 50.4189 38.8987 50.4189 39.5349 50.329" stroke="#FF6868" stroke-width="4.617" stroke-linecap="round"/>
<path d="M12.6095 31.2725C12.5334 32.1033 12.6339 33.7321 12.8247 34.2279C12.9835 34.6406 13.1167 35.0526 13.2816 35.4592C13.4431 35.8577 13.5736 36.271 13.6878 36.6777C13.7173 36.7825 13.7762 36.8802 13.8021 36.8064C14.0285 36.1603 13.7015 35.7166 13.5873 35.2468C13.4752 34.7858 13.3208 34.2957 13.2191 33.7241C13.1094 33.1074 13.0421 32.3919 12.9271 32.1353C12.6467 31.5096 13.0664 33.1245 13.0664 33.1888C13.0664 33.7084 12.9652 32.3142 12.902 32.2122C12.4453 31.4748 12.8121 34.5957 12.9012 35.0149C12.9993 35.4764 13.0406 35.8903 13.1422 36.2969C13.2439 36.7035 13.2949 37.1589 13.4213 37.6166C13.5649 38.1364 13.6498 38.6058 13.8146 39.0383C13.9629 39.4274 14.0046 39.8501 14.069 40.32C14.1305 40.7693 14.3092 41.2711 14.4494 41.7794C14.5851 42.2717 14.7159 42.6677 14.944 43.0743C15.1564 43.4532 15.2992 43.8861 15.49 44.356C15.6595 44.7737 15.9084 45.1807 16.1749 45.6505C16.4138 46.0716 16.7202 46.5255 17.0252 46.9074C17.3645 47.3323 17.8107 47.7439 18.3186 48.0752C19.1578 48.6225 19.9916 48.9882 21.1468 49.294C21.607 49.4158 22.7034 49.3964 24.2245 49.3713C25.2456 49.3544 25.757 49.1938 25.9977 49.0674C26.2132 48.8908 26.3921 48.6867 26.5315 48.4841C26.5954 48.3821 26.6457 48.2815 26.6975 48.178" stroke="#FF6868" stroke-width="4.617" stroke-linecap="round"/>
<path d="M24.5518 38.3325L24.5875 38.6382" stroke="#0D0D0D" stroke-width="2.25" stroke-linecap="round"/>
<path d="M30.708 37.4092L30.7437 37.7149" stroke="#0D0D0D" stroke-width="2.25" stroke-linecap="round"/>
<path d="M20.5498 34.3311L24.5975 35.1007" stroke="#0D0D0D" stroke-width="1.8" stroke-linecap="round"/>
<path d="M30.0929 41.7424C28.3647 41.6512 26.7223 41.8318 25.8983 42.0609C25.0446 42.2982 24.4393 43.4104 24.1323 44.0518C23.7752 44.7978 23.9785 45.603 24.1756 45.9525C24.4479 46.4353 26.2168 46.3047 27.2926 46.1532C27.9289 46.0636 28.4176 45.9707 29.3725 45.7882C31.5437 45.3733 32.3704 45.3941 32.8139 45.0136C33.4639 44.4558 32.7117 42.5399 32.2691 41.9564C32.1624 41.8948 32.0419 41.8647 31.7992 41.8492C31.5565 41.8337 31.1952 41.8337 30.5491 41.7424" stroke="#0D0D0D" stroke-width="1.8" stroke-linecap="round"/>
<path d="M29.4766 34.4253L31.9753 33.0997" stroke="#0D0D0D" stroke-width="1.8" stroke-linecap="round"/>
<path d="M3.71671 0.788387C4.44082 1.02457 5.4572 2.13392 6.43977 4.2787C6.87817 5.23564 6.77019 6.58569 6.66223 7.93601C6.52979 9.59245 3.15836 10.9563 0.667603 11.9989C-0.305282 12.4061 4.99917 12.9556 7.34707 12.4414C8.69555 12.1462 9.74515 10.1022 10.2228 7.99565C11.0393 4.39456 9.46161 3.02142 8.51939 1.7868C7.93924 1.27029 7.35472 0.869493 6.34271 0.63092C5.6186 0.549805 4.467 0.549805 3.28051 0.549805" stroke="#FFF200" stroke-width="1.1" stroke-linecap="round"/>
<path d="M5.63939 1.09961C6.64004 1.71267 7.39805 2.28674 8.26339 3.11859C8.8153 3.64914 8.81868 4.63283 8.83682 6.40052C8.84549 7.24506 8.5781 7.88443 7.26947 9.37971C6.56303 10.1869 6.09149 10.5576 5.53777 10.9367C4.97439 11.3224 4.19181 11.5693 3.37831 11.8038C3.18711 11.8589 3.0159 11.8942 3.01331 11.9126C2.91676 12.5984 4.63354 11.2119 5.60102 10.7412C6.43084 10.3376 7.01853 9.33801 7.48723 8.48558C7.79992 7.91688 7.81698 6.66914 7.73092 5.72356C7.64195 4.74614 7.26532 3.73815 7.07453 3.05198C6.97267 2.68568 6.74685 2.36472 6.71055 2.34468C6.12398 2.02082 7.67699 3.37313 7.98756 3.75007C8.45156 4.31322 8.33546 5.14082 8.28413 5.62716C8.19328 6.48786 7.50797 7.05258 6.66234 8.06423C6.15221 8.67452 5.81359 9.18421 5.08929 10.0323C4.80296 10.3676 4.56925 10.6302 4.44741 10.7927C3.8397 11.603 6.81322 10.3063 6.72974 10.4493C6.59468 10.6807 5.92766 10.8782 5.69642 11.0077C5.58166 11.0719 6.11949 10.9216 6.58716 10.8122C6.68157 10.7901 6.47309 11.0602 6.43576 11.1528C6.39843 11.2454 6.53531 11.2097 6.55449 11.2449C6.78982 11.6767 5.57302 11.9289 5.24119 12.022C3.86089 12.4095 6.88269 10.7775 7.02112 10.614C7.39817 10.1685 6.91898 11.6408 6.88373 11.6966C6.64859 12.0686 7.33169 10.7418 7.55619 10.5062C7.693 10.3626 7.71329 11.0624 7.76462 11.2622C7.97437 12.0789 8.50759 9.91099 8.64551 9.71169C8.75152 9.55849 8.85393 10.1244 8.85393 10.2695C8.85393 10.7772 9.47195 8.47366 9.78667 7.60065C10.0806 6.78536 9.75401 5.50801 9.37396 4.89278C8.98368 4.26099 8.54492 3.70133 8.19858 3.12401C7.73479 2.35091 7.40324 1.93146 7.40168 1.78632C7.39099 0.786918 8.8166 2.72216 9.26716 3.15596C9.71996 3.59192 9.88984 4.13133 9.82296 4.18657C8.72651 5.09213 7.95801 2.94313 7.62722 2.5624C7.13422 1.99498 8.71291 4.09126 9.12924 5.06771C9.5681 6.09697 9.06339 7.70246 8.26961 9.19883C8.05099 9.61094 7.88957 10.0096 7.81854 10.0691C7.18068 10.6041 8.3002 8.14438 8.50759 6.88252C8.82988 4.92147 8.23384 4.09993 7.73247 3.41267C7.62022 3.2588 7.50797 3.15975 7.4893 3.03302C7.47064 2.9063 7.53908 2.76332 7.64277 2.68967C7.85008 2.54242 8.435 3.15217 9.1085 4.08963C9.54243 4.69362 9.57979 5.35637 9.47714 6.13028C9.262 7.75214 8.44123 8.20937 7.92275 8.7699C7.41541 9.31839 6.57679 9.72578 5.93543 10.0345C5.21585 10.3808 4.60658 10.9541 3.8102 11.2622C3.187 11.461 2.70274 11.6061 2.42692 11.624C2.28797 11.6419 2.15109 11.6776 2.21745 11.8227" stroke="#FFF200" stroke-width="1.1" stroke-linecap="round"/>
<path d="M60.9023 18.1187C61.0145 19.2398 61.1266 20.3609 61.2404 21.443C61.3542 22.5251 61.4663 23.5341 61.5801 24.3342C61.6939 25.1343 61.8061 25.6948 61.9216 26.2724" stroke="#FFF200" stroke-width="1.6" stroke-linecap="round"/>
<path d="M56.4863 23.2147C58.3923 22.8784 60.2982 22.542 61.6724 22.3127C63.0467 22.0834 63.8314 21.9712 64.516 21.8574C65.2006 21.7436 65.7612 21.6315 66.6785 21.1763" stroke="#FFF200" stroke-width="1.6" stroke-linecap="round"/>
<path d="M62.9411 19.1382C61.9321 20.7078 60.9231 22.2774 60.2351 23.3102C59.5471 24.343 59.2108 24.7914 58.8643 25.5932" stroke="#FFF200" stroke-width="1.6" stroke-linecap="round"/>
<path d="M58.1846 20.4971C60.8753 21.9545 63.566 23.412 65.2885 24.275C67.011 25.1379 67.6836 25.3621 68.3767 25.9329" stroke="#FFF200" stroke-width="1.6" stroke-linecap="round"/>
<path d="M10.3975 60.0996V66.5546" stroke="#FFF200" stroke-width="1.6" stroke-linecap="round"/>
<path d="M7 62.8174C8.56959 62.9295 10.1392 63.0416 11.2841 63.0994C12.429 63.1571 13.1017 63.1571 13.7948 62.8174" stroke="#FFF200" stroke-width="1.6" stroke-linecap="round"/>
</svg>
