<svg width="76" height="42" viewBox="0 0 76 42" fill="none" xmlns="http://www.w3.org/2000/svg">
<path d="M25.7992 15.2252C20.9653 12.9355 16.4398 10.8654 12.9107 9.42087C9.14972 7.88133 6.02802 8.54101 3.57734 9.79093C2.66468 10.2564 2.15974 11.3646 1.67789 12.5818C1.17939 13.841 1.57767 14.965 1.83305 15.7331C2.72772 18.4238 7.40418 20.4176 9.41156 21.0392C9.72145 21.1351 10.0524 21.1346 9.93003 21.1674C9.2581 21.3473 8.2638 21.3909 7.55837 21.8709C6.20632 22.7907 6.20534 24.2146 6.17161 26.0437C6.15902 26.7268 6.77778 27.3639 7.64318 28.0376C8.38174 28.6125 11.5095 28.7806 15.1754 29.0678C16.7161 29.1884 13.595 31.5387 12.984 33.3976C12.4646 34.9778 13.0129 36.4227 13.3328 37.1599C13.6547 37.9016 14.551 38.4156 15.4491 38.8011C16.0929 38.9322 16.7366 38.9958 18.3325 39.0921C19.5468 39.1249 21.5821 39.1249 24.2573 38.9322" stroke="#C8E1FF" stroke-width="2.88" stroke-linecap="round"/>
<path d="M48.133 13.5642C52.6615 10.7179 56.9099 8.12625 60.243 6.27371C63.7951 4.2994 66.9729 4.58457 69.5545 5.53532C70.5158 5.88938 71.1485 6.92999 71.7712 8.08147C72.4154 9.27276 72.1531 10.436 71.9905 11.2289C71.4209 14.0067 67.0137 16.5406 65.0941 17.3956C64.7977 17.5276 64.469 17.5663 64.5944 17.5843C65.2829 17.6833 66.2754 17.6089 67.0327 18.0018C68.4843 18.755 68.6539 20.1687 68.9041 21.981C68.9976 22.6577 68.4587 23.3637 67.6792 24.1352C67.0139 24.7935 63.9281 25.331 60.322 26.0505C58.8065 26.3529 62.1841 28.3168 63.0111 30.0903C63.714 31.5978 63.3408 33.0974 63.1104 33.8674C62.8787 34.642 62.0497 35.2586 61.2035 35.7477C60.5798 35.9541 59.9481 36.0936 58.3749 36.3784C57.1731 36.5548 55.1521 36.7959 52.4729 36.9215" stroke="#C8E1FF" stroke-width="2.88" stroke-linecap="round"/>
<path d="M25.5207 36.2571C22.7771 31.067 17.8054 19.0878 18.0173 13.6312C18.0573 12.6014 19.0986 12.6657 19.8303 13.1703C23.309 15.5691 23.1878 19.4985 25.003 22.9193C26.4006 25.553 27.1197 27.7992 27.3403 31.2199C27.3925 32.0297 27.5565 32.6048 27.6308 31.7485C28.1845 25.3641 28.1419 22.4343 28.5045 17.644C29.2316 8.03802 29.5924 5.39614 30.903 3.35154C31.1881 2.90676 31.9165 3.05445 32.2857 3.41488C37.3267 8.33658 32.6592 22.9848 32.3665 27.2837C32.0404 32.0728 31.4928 33.7756 31.2744 34.361C29.9208 37.9885 35.1232 24.1818 36.2198 20.9074C37.6989 16.4907 40.6541 12.9716 42.987 11.2153C43.5706 10.776 44.1491 10.2018 44.5904 10.193C45.0316 10.1843 45.3199 10.761 45.4685 11.4906C46.1393 14.7858 43.4414 18.616 41.6917 21.104C39.9461 23.5862 37.9105 25.9031 35.5776 28.7472C33.5142 31.2627 32.2224 32.9019 32.218 33.3431C32.1661 38.5949 42.9695 25.641 46.0451 23.2316C48.3763 21.4054 50.2697 20.2412 51.2178 20.1647C51.5274 20.1398 51.1566 21.0975 50.7197 21.6851C48.9803 24.0246 45.1976 25.1779 41.0451 28.236C37.8232 30.6088 34.7126 33.6184 33.5264 35.3812C30.8277 39.3919 42.2443 32.6223 46.0408 31.0932C50.2881 29.3826 54.9268 28.8302 56.6001 29.1185C57.3135 29.2415 57.5525 29.9835 57.5569 30.7131C57.5666 32.3328 56.1108 33.7756 54.5839 34.8656C52.4233 36.4081 49.4179 36.8338 46.5738 37.4935C44.0224 37.7119 32.7554 38.0046 26.6915 36.5542C26.2546 36.2571 25.678 36.2571 25.0838 36.2571" stroke="#FF6868" stroke-width="6.156" stroke-linecap="round"/>
<path d="M51.5193 32.7827L42.7227 34.5421" stroke="#FF6868" stroke-width="4.617" stroke-linecap="round"/>
<path d="M17.3438 15.061C17.3438 15.339 17.394 15.8957 17.4325 16.9229C17.454 17.4995 17.5463 18.0035 17.5973 18.9158C17.6335 19.5632 17.7748 20.2119 17.9396 20.6817C18.0836 21.0922 18.1555 21.5567 18.2572 21.9893C18.3601 22.4273 18.5363 22.8772 18.6886 23.3596C18.8372 23.8304 18.9429 24.2479 19.0819 24.6545C19.2185 25.0543 19.2978 25.4663 19.4626 25.873C19.6242 26.2714 19.7044 26.6847 19.7802 27.0914C19.8582 27.5101 20.0593 27.9534 20.1735 28.3859C20.2856 28.8103 20.44 29.1977 20.6049 29.6044C20.7665 30.0028 20.897 30.4161 21.0112 30.8228C21.1764 31.2294 21.2777 31.5592 21.379 31.7998C21.43 31.9148 21.4803 32.0153 21.5321 32.1189" stroke="#FF6868" stroke-width="4.617" stroke-linecap="round"/>
<path d="M17.9213 13.9541C17.8917 14.7916 17.8315 16.7523 17.9357 18.0705C17.9777 18.601 18.2502 19.0436 18.3104 19.6129C18.3763 20.2356 18.5503 20.8103 18.7143 21.4698C18.8541 22.0321 18.9385 22.6973 19.089 23.3717C19.2192 23.9549 19.2692 24.4351 19.4332 24.915C19.6247 25.4754 19.7778 26.2017 19.9274 26.7418C20.1074 27.3915 20.3457 28.0869 20.467 28.8382C20.5533 29.3723 20.7662 29.8266 20.8714 30.3064C20.9889 30.8428 21.2155 31.5626 21.3651 32.193C21.5108 32.8068 21.814 33.3005 22.0391 33.8109C22.2438 34.2751 22.443 34.7688 22.6977 35.2486C22.9669 35.7556 23.3703 36.2065 23.7608 36.7461C24.072 37.1763 24.5385 37.4358 25.0183 37.7503C25.4618 38.0409 26.0355 38.1546 26.5755 38.2454C27.2141 38.3527 27.7428 38.4547 28.2828 38.6345C28.8833 38.8343 29.628 38.7549 31.5946 38.8294C33.0192 38.8835 35.7186 38.8447 37.168 38.8299C39.2153 38.809 40.233 38.6956 41.4893 38.6502C42.1219 38.5455 42.7185 38.4853 43.6018 38.4107C43.8867 38.3954 44.2425 38.3954 44.8787 38.3056" stroke="#FF6868" stroke-width="4.617" stroke-linecap="round"/>
<path d="M17.9533 19.249C17.8771 20.0798 17.9777 21.7087 18.1684 22.2044C18.3272 22.6172 18.4605 23.0292 18.6253 23.4358C18.7869 23.8343 18.9174 24.2476 19.0316 24.6542C19.061 24.7591 19.1199 24.8568 19.1458 24.7829C19.3723 24.1369 19.0453 23.6932 18.9311 23.2233C18.819 22.7623 18.6645 22.2722 18.5629 21.7007C18.4532 21.0839 18.3858 20.3684 18.2708 20.1118C17.9905 19.4861 18.4102 21.101 18.4102 21.1654C18.4102 21.6849 18.3089 20.2908 18.2457 20.1887C17.789 19.4514 18.1559 22.5723 18.245 22.9915C18.343 23.4529 18.3843 23.8668 18.486 24.2735C18.5876 24.6801 18.6387 25.1355 18.7651 25.5932C18.9086 26.1129 18.9935 26.5824 19.1584 27.0149C19.3067 27.404 19.3484 27.8267 19.4127 28.2965C19.4743 28.7458 19.653 29.2477 19.7931 29.756C19.9288 30.2483 20.0596 30.6443 20.2877 31.0509C20.5002 31.4298 20.6429 31.8627 20.8337 32.3325C21.0033 32.7502 21.2522 33.1572 21.5187 33.6271C21.7575 34.0481 22.0639 34.5021 22.3689 34.884C22.7083 35.3089 23.1544 35.7205 23.6623 36.0517C24.5015 36.599 25.3354 36.9648 26.4906 37.2705C26.9508 37.3923 28.0471 37.373 29.5682 37.3478C30.5894 37.331 31.1008 37.1704 31.3414 37.044C31.5569 36.8673 31.7359 36.6632 31.8752 36.4607C31.9392 36.3586 31.9894 36.2581 32.0412 36.1545" stroke="#FF6868" stroke-width="4.617" stroke-linecap="round"/>
<path d="M29.8955 26.3091L29.9312 26.6148" stroke="#0D0D0D" stroke-width="2.25" stroke-linecap="round"/>
<path d="M36.0518 25.3857L36.0875 25.6915" stroke="#0D0D0D" stroke-width="2.25" stroke-linecap="round"/>
<path d="M25.8936 22.3076L29.9412 23.0773" stroke="#0D0D0D" stroke-width="1.8" stroke-linecap="round"/>
<path d="M35.4367 29.719C33.7085 29.6277 32.066 29.8084 31.2421 30.0374C30.3884 30.2747 29.7831 31.3869 29.476 32.0284C29.119 32.7744 29.3223 33.5796 29.5194 33.929C29.7917 34.4119 31.5605 34.2813 32.6363 34.1298C33.2726 34.0402 33.7614 33.9473 34.7163 33.7648C36.8875 33.3499 37.7142 33.3706 38.1576 32.9901C38.8076 32.4324 38.0554 30.5165 37.6129 29.9329C37.5061 29.8714 37.3857 29.8412 37.143 29.8257C36.9002 29.8102 36.5389 29.8102 35.8929 29.719" stroke="#0D0D0D" stroke-width="1.8" stroke-linecap="round"/>
<path d="M34.8203 22.4019L37.3191 21.0763" stroke="#0D0D0D" stroke-width="1.8" stroke-linecap="round"/>
</svg>
