<svg width="46" height="56" viewBox="0 0 46 56" fill="none" xmlns="http://www.w3.org/2000/svg">
<path d="M10.5881 50.7508C7.84448 45.5607 2.87281 33.5815 3.08468 28.1249C3.12467 27.0951 4.16596 27.1594 4.89772 27.664C8.3764 30.0628 8.25514 33.9922 10.0704 37.4129C11.468 40.0466 12.187 42.2928 12.4077 45.7136C12.4599 46.5233 12.6239 47.0985 12.6982 46.2422C13.2519 39.8578 13.2093 36.928 13.5719 32.1376C14.299 22.5317 14.6598 19.8898 15.9704 17.8452C16.2555 17.4004 16.9839 17.5481 17.3531 17.9085C22.3941 22.8302 17.7266 37.4784 17.4339 41.7773C17.1078 46.5665 16.5602 48.2693 16.3417 48.8547C14.9882 52.4821 20.1906 38.6755 21.2872 35.4011C22.7663 30.9843 25.7215 27.4652 28.0544 25.709C28.638 25.2697 29.2165 24.6954 29.6577 24.6867C30.099 24.6779 30.3873 25.2546 30.5358 25.9842C31.2067 29.2795 28.5087 33.1097 26.759 35.5977C25.0135 38.0798 22.9779 40.3968 20.645 43.2408C18.5816 45.7563 17.2897 47.3955 17.2854 47.8368C17.2335 53.0885 28.0369 40.1346 31.1125 37.7253C33.4437 35.8991 35.3371 34.7348 36.2852 34.6584C36.5948 34.6334 36.224 35.5911 35.7871 36.1787C34.0477 38.5182 30.265 39.6716 26.1125 42.7297C22.8906 45.1025 19.78 48.112 18.5938 49.8748C15.8951 53.8856 27.3117 47.1159 31.1082 45.5869C35.3555 43.8762 39.9942 43.3239 41.6675 43.6122C42.3809 43.7351 42.6199 44.4772 42.6242 45.2068C42.6339 46.8264 41.1782 48.2693 39.6513 49.3593C37.4906 50.9017 34.4852 51.3274 31.6412 51.9871C29.0898 52.2056 17.8227 52.4983 11.7589 51.0478C11.322 50.7508 10.7453 50.7508 10.1512 50.7508" stroke="#FF6868" stroke-width="6.156" stroke-linecap="round"/>
<path d="M36.5867 47.2764L27.79 49.0357" stroke="#FF6868" stroke-width="4.617" stroke-linecap="round"/>
<path d="M2.41113 29.5547C2.41113 29.8326 2.46139 30.3893 2.49985 31.4166C2.52143 31.9931 2.61369 32.4972 2.66471 33.4095C2.70092 34.0569 2.84215 34.7055 3.00701 35.1754C3.15103 35.5858 3.2229 36.0504 3.32456 36.4829C3.42752 36.921 3.60366 37.3708 3.75596 37.8532C3.90458 38.324 4.0103 38.7415 4.14928 39.1482C4.28591 39.548 4.36517 39.96 4.53003 40.3666C4.69159 40.7651 4.77181 41.1784 4.84758 41.585C4.9256 42.0038 5.12668 42.4471 5.2409 42.8796C5.35297 43.304 5.50743 43.6914 5.6723 44.098C5.83385 44.4965 5.96434 44.9098 6.07856 45.3164C6.24381 45.7231 6.34509 46.0528 6.44637 46.2934C6.49739 46.4084 6.54765 46.5089 6.59944 46.6125" stroke="#FF6868" stroke-width="4.617" stroke-linecap="round"/>
<path d="M2.98873 28.4478C2.95907 29.2852 2.89886 31.2459 3.0031 32.5641C3.04505 33.0946 3.3176 33.5373 3.3778 34.1066C3.44366 34.7292 3.61773 35.3039 3.78172 35.9635C3.92152 36.5257 4.00591 37.1909 4.15642 37.8653C4.28659 38.4485 4.33659 38.9288 4.50058 39.4086C4.6921 39.969 4.84519 40.6954 4.9948 41.2354C5.1748 41.8852 5.41309 42.5806 5.53439 43.3318C5.62066 43.866 5.83362 44.3202 5.93875 44.8001C6.05628 45.3365 6.28291 46.0563 6.43252 46.6866C6.57821 47.3005 6.88136 47.7941 7.10646 48.3045C7.3112 48.7688 7.51037 49.2624 7.76512 49.7423C8.03426 50.2492 8.4377 50.7001 8.82814 51.2397C9.13941 51.6699 9.60586 51.9294 10.0857 52.2439C10.5291 52.5346 11.1029 52.6483 11.6429 52.739C12.2815 52.8463 12.8102 52.9484 13.3502 53.1281C13.9506 53.3279 14.6954 53.2485 16.6619 53.3231C18.0866 53.3771 20.786 53.3384 22.2354 53.3236C24.2827 53.3026 25.3004 53.1892 26.5566 53.1438C27.1892 53.0391 27.7859 52.9789 28.6692 52.9044C28.954 52.8891 29.3099 52.8891 29.9461 52.7992" stroke="#FF6868" stroke-width="4.617" stroke-linecap="round"/>
<path d="M3.02068 33.7427C2.94453 34.5735 3.04504 36.2024 3.2358 36.6981C3.39463 37.1108 3.52784 37.5228 3.69271 37.9295C3.85427 38.3279 3.98475 38.7412 4.09898 39.1479C4.12843 39.2527 4.18731 39.3504 4.2132 39.2766C4.43965 38.6305 4.11268 38.1868 3.99846 37.717C3.88638 37.256 3.73193 36.7659 3.63027 36.1944C3.52055 35.5776 3.45322 34.8621 3.33823 34.6055C3.05788 33.9798 3.47758 35.5947 3.47758 35.659C3.47758 36.1786 3.3763 34.7844 3.3131 34.6824C2.85639 33.945 3.22324 37.0659 3.31234 37.4851C3.41041 37.9466 3.45169 38.3605 3.55336 38.7671C3.65502 39.1738 3.70604 39.6291 3.83245 40.0868C3.976 40.6066 4.0609 41.076 4.22577 41.5086C4.37406 41.8976 4.41576 42.3203 4.48011 42.7902C4.54164 43.2395 4.72037 43.7413 4.86049 44.2496C4.99619 44.7419 5.12702 45.1379 5.35509 45.5446C5.56757 45.9234 5.71033 46.3563 5.90109 46.8262C6.07068 47.2439 6.31954 47.6509 6.58607 48.1207C6.82491 48.5418 7.13131 48.9957 7.43629 49.3776C7.77565 49.8026 8.22179 50.2141 8.72972 50.5454C9.56888 51.0927 10.4028 51.4584 11.558 51.7642C12.0182 51.886 13.1145 51.8666 14.6356 51.8415C15.6568 51.8246 16.1681 51.6641 16.4088 51.5376C16.6243 51.361 16.8032 51.1569 16.9426 50.9543C17.0066 50.8523 17.0568 50.7518 17.1086 50.6482" stroke="#FF6868" stroke-width="4.617" stroke-linecap="round"/>
<path d="M14.9629 40.8027L14.9986 41.1085" stroke="#0D0D0D" stroke-width="2.25" stroke-linecap="round"/>
<path d="M21.1191 39.8794L21.1549 40.1851" stroke="#0D0D0D" stroke-width="2.25" stroke-linecap="round"/>
<path d="M10.9609 36.8013L15.0086 37.5709" stroke="#0D0D0D" stroke-width="1.8" stroke-linecap="round"/>
<path d="M20.504 44.2126C18.7758 44.1214 17.1334 44.302 16.3095 44.5311C15.4558 44.7684 14.8505 45.8806 14.5434 46.5221C14.1863 47.268 14.3897 48.0732 14.5868 48.4227C14.8591 48.9055 16.6279 48.7749 17.7037 48.6234C18.34 48.5339 18.8288 48.441 19.7837 48.2585C21.9549 47.8435 22.7815 47.8643 23.225 47.4838C23.875 46.9261 23.1228 45.0101 22.6803 44.4266C22.5735 44.365 22.4531 44.3349 22.2103 44.3194C21.9676 44.3039 21.6063 44.3039 20.9603 44.2126" stroke="#0D0D0D" stroke-width="1.8" stroke-linecap="round"/>
<path d="M19.8877 36.8955L22.3865 35.5699" stroke="#0D0D0D" stroke-width="1.8" stroke-linecap="round"/>
<path d="M21.007 1.91233C19.6989 2.0311 18.1277 2.22014 16.5856 2.46524C15.557 2.62873 15.1029 2.80734 14.6868 2.97384C13.7754 3.33847 13.0802 3.76926 12.5395 4.03541C10.9626 4.81162 10.8947 5.39854 10.6777 5.78573C10.2568 6.5366 10.5987 7.64939 10.9066 8.0012C11.271 8.41748 12.9307 8.80007 15.0875 9.36013C16.083 9.61863 16.9097 9.74659 18.0321 9.84726C19.1544 9.94794 20.5555 9.99743 21.4468 10.0082C22.6779 10.0231 23.3424 9.89237 24.6934 9.69033C25.7238 9.53624 27.4738 9.35374 28.5792 9.20838C30.1046 9.00779 30.9622 8.70071 31.7384 8.33625C32.8688 7.80548 33.2967 7.09208 33.6772 5.89122C33.8272 5.4177 33.7093 5.06765 33.6058 4.79535C33.4228 4.31394 32.5432 3.8678 30.9626 3.27321C30.1284 2.9594 28.5657 2.71986 27.2061 2.48215C25.8466 2.24444 24.6891 2.10801 23.9358 2.03425C22.8684 1.95354 22.4485 1.92578 22.1093 1.89029C21.8664 1.8754 21.4798 1.86684 21.0095 1.80046" stroke="#FFDE09" stroke-width="3.6" stroke-linecap="round"/>
</svg>
