<svg width="57" height="30" viewBox="0 0 57 30" fill="none" xmlns="http://www.w3.org/2000/svg">
<path d="M14.765 24.2762C15.003 19.7737 15.5891 16.6297 15.9513 14.9706C16.1823 13.9125 17.1441 12.0678 18.8597 9.63037C22.3661 4.64865 26.5273 3.81728 28.0524 3.56274C30.651 3.12902 34.7564 2.89536 36.3203 3.04346C38.2423 3.22547 39.5838 3.32583 40.9164 3.38522C42.9674 3.47663 44.8632 4.66778 46.1109 5.39866C47.4958 6.20996 48.8151 7.53415 49.7439 8.8094C50.6012 9.98633 51.3528 11.0498 51.8291 12.1843C52.2975 13.3 52.6629 16.3543 52.7004 20.2502C52.7144 21.7031 51.8846 22.0402 51.3865 22.2735C49.8914 22.9737 48.5102 23.0235 47.0065 23.4593C43.909 24.357 40.1843 24.4668 35.6742 25.1481C32.4753 25.6313 26.4618 26.0496 23.1172 26.3269C18.0913 26.7435 16.0265 26.6618 14.0463 26.736C12.7111 26.786 11.231 26.5242 9.45705 26.4676C7.71325 26.4119 6.08059 25.7575 4.71818 25.4039C4.10069 25.2437 3.49806 24.9663 3.13795 24.67C2.25976 23.9473 5.86626 22.9071 7.27435 22.1469C8.48809 21.4916 9.98019 21.1921 11.3069 20.8115C11.6271 20.6711 11.9025 20.4995 12.2971 20.3874C12.6918 20.2753 13.1974 20.2279 13.7184 20.179" stroke="#F15659" stroke-width="6" stroke-linecap="round"/>
<path d="M24.9489 8.08536C21.7898 11.9764 19.8709 15.1063 18.8972 18.0614C18.3902 19.6002 18.331 20.7002 18.5075 20.6516C19.9681 20.2496 20.3713 17.4286 21.539 15.7767C24.1787 12.0427 28.0777 7.07211 29.6349 5.51291C29.9255 5.22195 29.5122 8.00627 28.2987 11.5006C26.3095 17.2286 21.8231 20.1474 20.4323 21.0926C19.8916 21.4601 18.9707 21.965 18.6137 22.1486C18.3348 22.2921 20.0533 21.2894 22.3813 19.4956C24.7093 17.7018 28.1559 14.8283 30.3242 12.8739C32.4925 10.9196 33.278 9.97154 33.7808 9.36464C34.48 8.52073 32.195 11.2787 27.7153 16.4042C22.9611 21.8438 21.1085 22.7934 20.2568 23.9409C19.871 24.4606 23.6912 21.0431 29.9334 15.4167C32.9496 12.6981 34.0158 11.4347 35.0458 10.2341C35.3009 9.93673 35.4651 9.60743 35.5063 9.23482C35.5476 8.86221 35.4347 8.4356 35.0414 8.13797C34.648 7.84035 33.9776 7.68462 33.8094 7.55135C32.4245 6.45377 39.3481 7.17211 41.7642 7.354C43.2709 7.46743 45.0716 7.73935 47.0265 8.51319C48.8851 9.24891 49.4369 11.8123 49.9423 13.6461C50.5766 15.948 49.5985 17.3967 48.7253 18.6577C48.0744 19.5979 46.0988 20.0103 42.3956 20.7252C35.9282 21.9739 31.1912 22.0002 30.1248 21.9898C28.3968 21.9729 26.5626 22.0655 25.7515 21.7044C24.3054 21.0606 28.2009 18.5336 29.9995 16.9694C34.7237 12.8609 39.2465 9.10264 39.7809 8.53805C40.0345 8.27013 40.3288 8.11791 40.3804 8.62093C40.7794 12.511 37.3171 15.8172 36.5726 17.0374C34.6639 20.1658 41.8899 12.1668 42.211 12.0594C44.3672 11.3383 41.1278 16.4954 40.8716 17.778C40.3848 20.2155 43.9769 14.0312 44.6897 13.4145C45.0844 13.0731 45.4544 12.5744 45.8046 13.5186C46.1548 14.4628 46.4506 16.8397 44.6064 18.142C36.1384 24.1224 33.3259 19.6648 32.4853 19.7072C32.0786 19.7277 31.7102 19.6706 32.1696 19.1892C32.629 18.7078 33.9268 17.7846 34.776 17.292C35.6252 16.7995 35.9863 16.7656 36.3584 16.7307" stroke="#F15659" stroke-width="6" stroke-linecap="round"/>
<path d="M12.7817 17.8027C13.6116 18.1876 16.0951 19.2789 18.4521 19.8615C20.0301 20.2516 21.9238 20.3994 23.3608 20.4332C24.467 20.4591 25.5295 20.5279 27.2 20.6375C28.1317 20.6986 28.8765 20.7465 31.6623 20.5849C34.1849 20.4386 38.9434 19.936 41.5567 19.658C45.1644 19.2742 47.225 18.7604 48.798 18.4144C50.2243 18.0144 51.396 17.7709 52.4332 17.4752C52.6919 17.3842 52.9468 17.2944 53.7653 16.751" stroke="#D93033" stroke-width="6" stroke-linecap="round"/>
<path d="M13.4429 15.0024C14.0354 15.1565 15.3441 15.5642 16.2191 15.8521C17.1404 16.1553 18.1089 16.2577 18.9854 16.2819C20.0469 16.3112 21.0907 16.4545 22.0306 16.5784C23.1648 16.7278 24.337 16.6265 25.2729 16.7245C26.6127 16.8649 27.8853 16.6653 29.161 16.7037C30.4958 16.7438 32.6964 16.6905 34.1625 16.6848C35.4054 16.68 36.2523 16.6747 37.2115 16.7427C37.5313 16.7654 37.9518 16.7789 40.0126 16.6126C42.0734 16.4463 45.7619 16.1004 47.7895 15.884C50.6089 15.5832 52.042 15.1938 53.2638 14.895C53.6922 14.6706 54.0991 14.472 54.5056 14.3021C54.7092 14.2036 54.9073 14.0802 55.0965 13.7956" stroke="#FFF06C" stroke-width="1.5" stroke-linecap="round"/>
</svg>
