<svg width="41" height="37" viewBox="0 0 41 37" fill="none" xmlns="http://www.w3.org/2000/svg">
<path d="M10.5792 21.2961C6.95247 22.2568 5.99334 22.4682 4.60748 23.8244C2.7869 25.6061 2.682 27.0541 2.62596 28.1509C2.60146 28.6304 3.05188 29.0332 3.39775 29.4327C4.28345 30.4557 6.56658 30.7945 7.77309 30.9298C9.91824 31.1704 12.8146 31.4863 13.7785 31.8898C14.7801 32.309 16.8625 33.459 21.0521 33.7063C23.2927 33.8387 24.2921 32.5078 25.6516 31.6808C27.1566 30.7652 28.1351 30.4775 33.7994 30.0267C37.8025 29.7082 37.6367 26.0005 37.933 24.6122C38.2535 23.1102 37.696 21.7796 37.1636 21.1672C35.8927 19.7052 33.4287 19.429 32.2534 19.2417C31.2478 19.0814 29.9605 19.0543 27.8565 18.9214C24.1482 18.6872 22.5404 19.3201 20.7046 19.5067C16.4139 19.9427 15.495 20.441 13.8946 20.5219C12.4252 20.5961 10.8515 21.3473 9.80905 21.7484C8.10885 22.4026 5.77877 23.8548 5.19032 24.5225C4.90604 24.8451 4.92212 25.3504 4.8949 25.8291C4.87965 26.0973 5.02619 26.4136 5.18632 26.6562C5.48749 27.1124 6.09261 27.2734 6.70508 27.3006C7.88956 27.3533 10.8226 25.9492 14.0131 24.3432C14.5313 24.0823 14.7905 23.9669 15.0323 23.8596C15.274 23.7523 15.4854 23.6467 15.3037 24.0678C13.9321 27.2458 12.2365 28.3927 12.0211 28.6337C11.7292 28.9604 14.6175 27.3375 17.8944 25.42C20.5713 23.8537 22.1561 22.6331 22.5868 22.6555C23.9931 22.7287 19.1378 26.2438 16.1771 28.8306C15.0506 29.8149 14.7488 30.2021 14.8761 30.2869C15.0034 30.3718 15.5847 30.1604 17.4429 29.1004C19.3011 28.0404 22.4187 26.1382 24.1568 25.0525C25.895 23.9669 26.1592 23.7555 26.1367 23.8844C26.018 24.5674 23.7269 26.9868 21.0585 30.1348C20.1093 31.2546 20.0809 31.4863 21.7446 30.1156C23.4083 28.745 26.79 25.7859 28.5058 24.4729C30.2215 23.1599 30.1686 23.5826 29.9565 24.1174C29.475 25.3312 28.5178 26.5737 27.8765 27.4023C26.1974 29.572 33.6881 22.1511 34.0348 22.0967C35.5707 21.8555 32.3079 26.5193 31.982 27.2734C31.8143 27.6616 33.2542 25.5233 34.6417 24.0542C35.0809 23.589 35.1837 23.9061 35.1845 24.2007C35.1853 24.4953 35.1324 24.8123 35.0524 25.0814C34.9723 25.3504 34.8666 25.5617 34.7577 25.9396" stroke="#FBFFE5" stroke-width="5.25" stroke-linecap="round"/>
<path d="M11.54 20.6557C11.8571 19.0705 12.496 16.563 13.5864 12.9707C15.5354 6.54984 16.0747 5.66187 16.6351 4.00941C16.8395 3.4068 17.037 2.99103 17.1964 2.77646C17.876 1.8612 18.1563 5.38646 19.3012 9.05807C20.041 11.4306 20.398 12.592 20.932 14.2709C21.2531 15.4229 21.4676 16.4862 21.7334 17.5029C21.7879 17.7703 21.7879 18.0874 22.1081 18.5741" stroke="#C59163" stroke-width="5.25" stroke-linecap="round"/>
<path d="M12.3403 21.6164C12.9248 21.5635 14.201 21.2449 16.2289 20.8174C17.7285 20.4427 18.6876 20.2297 19.5659 20.0696C20.0214 20.0151 20.497 20.0151 20.9869 20.0151" stroke="#C59163" stroke-width="5.25" stroke-linecap="round"/>
<path d="M17.6245 9.76709C17.4132 12.0921 17.3043 14.875 17.1986 17.3825C17.0929 18.3048 16.8816 18.5162 16.6406 18.6779C16.3996 18.8396 16.1354 18.9453 15.3828 19.0542" stroke="#C59163" stroke-width="5.25" stroke-linecap="round"/>
<path d="M7.17383 23.486C7.39533 23.6523 8.06152 23.9858 8.60692 24.2374C9.16388 24.4943 9.73492 24.6829 10.2644 24.7536C10.8258 24.8284 11.3231 24.9069 12.2939 24.9763C15.0782 25.1753 15.8067 24.7414 16.6442 24.4205C17.1637 24.2214 17.6472 23.9607 18.1496 23.7238C18.7215 23.454 19.1802 23.3756 19.6959 23.2356C20.1792 23.1044 20.6848 23.0129 21.9636 22.9707C22.7762 22.9438 23.6103 22.8457 24.7504 22.7759C25.1347 22.7524 25.3389 22.5113 25.4233 22.4278C25.5608 22.2916 24.9234 22.4545 24.7421 22.4829C24.6061 22.5042 24.8933 22.1494 25.0739 22.0102C25.282 21.9262 25.506 21.8702 25.7146 21.7871C25.8128 21.7315 25.8956 21.6487 26.148 21.5635" stroke="#FBFFE5" stroke-width="5.25" stroke-linecap="round"/>
<path d="M21.7944 22.8704C21.9651 22.8443 22.2815 22.7912 22.5917 22.7518C22.9303 22.7088 23.4535 22.6724 23.8522 22.6396C24.0745 22.6212 24.262 22.6198 24.3151 22.5934C24.4583 22.5224 23.9991 22.6063 23.9526 22.6261C23.7763 22.7011 24.3016 22.5406 24.3547 22.5012C24.3759 22.4855 24.3032 22.4356 24.2502 22.4154C24.0403 22.3356 23.7885 22.5006 23.577 22.5863C23.3584 22.675 23.0892 22.712 22.9362 22.7449C22.6704 22.8019 23.4693 22.6328 23.7271 22.5606C23.9725 22.4918 24.2613 22.4087 24.565 22.3295C24.7229 22.3161 24.8691 22.2899 25.0072 22.2503C25.0801 22.2369 25.1585 22.2369 25.2789 22.1973" stroke="#FBFFE5" stroke-width="5.25" stroke-linecap="round"/>
</svg>
