<svg width="61" height="30" viewBox="0 0 61 30" fill="none" xmlns="http://www.w3.org/2000/svg">
<path d="M11.0949 9.99734C7.30034 10.373 5.76945 11.5042 4.03126 13.1358C3.22468 13.893 3.07713 14.8889 3.01318 16.0843C2.88983 18.3901 3.6621 20.1976 4.10101 20.8664C4.96821 22.1878 7.19194 22.9367 9.27854 23.2273C11.1799 23.492 12.5679 23.3451 15.2626 23.0851C17.4472 22.8743 19.8027 23.3319 21.3242 23.4312C22.902 23.5341 24.634 24.274 27.4559 25.1884C29.8746 25.9722 31.5037 26.0124 33.0301 25.9157C35.6212 25.7516 38.324 25.2161 39.6748 24.6807C41.026 24.1452 42.031 22.5445 43.4057 21.6188C44.6127 20.8059 45.8669 20.2338 47.3052 19.7624C48.5798 19.3447 52.791 18.7253 55.6487 18.0197C57.2946 17.6133 57.2693 15.2573 57.4954 13.569C57.6419 12.4754 57.2173 11.5631 56.9076 10.9918C56.1802 9.65022 54.3302 9.04152 52.9535 8.30859C51.6182 7.59772 49.6758 7.15053 46.7159 6.3316C44.1703 5.62731 42.5459 6.29413 40.8233 6.34314C37.1188 6.44855 35.8242 7.23372 34.3751 7.62805C33.0727 7.98248 31.7838 8.64416 30.433 9.17956C28.6866 9.87181 21.7276 11.2837 17.7573 11.6088C16.0029 11.7524 13.8548 11.46 11.3081 11.7374C8.8056 12.01 9.96545 16.232 9.65079 17.2868C9.11296 19.0897 8.85313 13.7788 8.26745 13.7047C5.35939 13.3368 4.71616 18.895 4.61022 19.5256C4.33543 21.1612 12.0488 17.1191 14.5825 15.9389C17.3642 14.6432 11.7791 19.8347 11.6737 20.196C11.2271 21.7264 17.5057 17.5116 19.7164 15.7642C21.7048 14.1926 15.5456 19.7703 15.5239 19.9293C14.8979 24.5207 24.6989 14.3411 27.0779 13.4263C28.0316 13.0596 24.5851 17.6426 22.6169 20.1578C21.4536 21.6443 28.4288 15.7513 32.4594 13.4527C33.7665 12.7073 33.8138 13.2819 32.7312 14.5457C31.6486 15.8096 29.4959 17.8642 28.1461 19.1088C26.3499 20.7649 30.1012 17.3845 36.408 12.0713C37.8613 10.8469 30.9614 19.3229 27.7088 23.121C22.3331 29.398 38.5864 16.6304 39.1138 16.7832C40.8237 17.2783 35.4903 20.7462 34.1589 22.0564C29.075 27.0593 41.9662 16.5439 42.3401 16.45C44.9918 15.7844 38.9619 20.8871 38.6348 21.0507C35.9089 22.4134 43.4096 17.4974 43.7666 17.2915C44.161 17.0641 43.3367 18.5796 42.9832 19.0923C41.4044 21.3822 49.2071 14.3764 50.2441 14.0755C50.7033 13.9423 49.7132 15.6828 48.873 16.5731C48.5457 16.92 49.9719 14.8887 51.0899 14.0763C51.4782 13.794 51.7245 14.1701 51.9466 14.1056C52.1686 14.041 52.4155 13.6253 52.3078 13.3677C50.6589 9.42133 40.2843 14.3136 38.3107 14.013C37.8863 13.9484 37.573 13.6945 37.5844 13.5369C37.6186 13.0674 42.0732 12.5987 47.5789 11.7528C49.3536 11.4801 49.0251 11.3219 47.7662 11.0762C46.5072 10.8305 44.3191 10.4502 43.6511 10.2663C41.5196 9.67957 48.7535 10.5858 49.7384 10.4493C50.2069 10.3844 45.7946 10.0799 40.324 10.2669C33.1552 10.5121 30.3835 10.693 27.3107 11.0416C26.5815 11.1244 26.0208 11.4507 25.8834 11.6247C25.746 11.7987 26.0661 11.9065 26.4927 11.9254C28.9695 12.0352 31.5812 10.5995 34.6415 9.97992C36.1409 9.73104 38.5341 9.39651 39.9591 9.23544C41.3842 9.07436 41.7686 9.09688 42.3912 9.0884" stroke="white" stroke-width="6" stroke-linecap="round"/>
<path d="M31.7443 3.71651C31.6137 3.67253 30.6439 3.65151 27.9877 3.89642C26.2246 4.05899 23.656 4.62455 21.9329 5.05405C19.377 5.69115 18.4047 6.33481 17.9824 6.56644C16.9897 7.11099 15.3513 8.0472 14.5793 8.66114C14.3168 8.86989 14.1189 9.19663 14.0531 9.7378C13.9521 10.5681 14.2742 11.2188 14.4861 11.5028C15.1437 12.3845 17.0446 12.1851 18.5188 12.1511C18.9334 12.1416 19.4686 12.1914 20.9071 12.0847C23.6032 11.8846 25.7368 11.3794 26.4787 11.1813C27.4909 10.9112 28.8399 10.6306 29.8001 10.4181C30.9433 10.1651 31.5598 10.0617 32.8005 9.62233C33.6678 9.31515 34.4341 9.03179 35.0451 8.67946C35.2913 8.53746 35.5817 8.46297 35.8439 8.20702C36.3642 7.69929 36.2172 6.93009 36.0564 5.8844C35.9616 5.26748 35.2826 4.95363 34.8082 4.70398C34.3146 4.44428 33.7616 4.4098 33.0922 4.45574C32.7632 4.47831 30.8734 4.7805 28.1231 5.33756C27.0971 5.54537 26.8339 5.65925 25.8285 5.95636C23.0923 6.76495 20.9176 7.42947 20.2853 7.73761C19.9066 7.92221 19.693 8.13545 19.5359 8.36114C19.4637 8.46489 19.5052 8.60029 19.5814 8.70045C19.6577 8.80062 19.7926 8.87514 20.0059 8.94012C20.2192 9.00509 20.5067 9.05827 22.4607 8.75543C24.4146 8.45258 28.0262 7.79211 29.9457 7.42806C31.8651 7.06402 31.983 7.01642 32.1044 6.96738" stroke="#FFE749" stroke-width="6" stroke-linecap="round"/>
</svg>
