<svg width="40" height="48" viewBox="0 0 40 48" fill="none" xmlns="http://www.w3.org/2000/svg">
<path d="M8.94206 19.1614C8.16166 20.9611 7.70246 22.3016 7.34618 23.5734C7.00749 24.7825 6.635 27.7623 6.39846 30.0894C6.09994 33.0263 5.85638 34.2983 5.91578 35.6391C5.96822 36.8231 5.87841 38.0907 5.9815 39.1945C6.10683 40.5365 6.22619 42.4516 6.87033 43.7012C7.58745 45.0924 10.3105 44.8641 13.0748 44.5335C13.6445 44.4654 13.9856 44.462 16.733 44.0178C19.4803 43.5737 24.6233 42.6874 27.471 42.2251C32.7694 41.3649 36.3535 40.7245 36.7141 40.3189C37.1611 39.8163 37.0915 38.9891 37.1192 38.1534C37.1567 37.0192 36.8438 33.8775 36.0816 29.7847C35.445 26.3672 34.4277 25.1847 33.9641 24.1715C33.3974 22.9329 32.3755 21.2866 31.6926 20.1628C30.7386 18.5926 29.4927 17.2349 28.533 16.5073C27.5978 15.7983 25.2918 15.8278 21.8274 16.166C16.8635 16.6506 13.6703 17.5407 12.9332 17.754C12.0206 17.9406 11.1855 18.1415 10.5914 18.3586C10.3195 18.4633 10.1079 18.5567 9.72219 18.6818" stroke="#FFE749" stroke-width="5.76" stroke-linecap="round"/>
<path d="M14.5873 18.8787C12.0297 24.3737 11.1176 27.7421 10.3692 29.9228C9.43218 32.6531 9.48914 33.6722 9.03011 38.3378C8.91562 39.5015 9.11122 40.1702 9.3904 40.3033C10.089 40.6363 11.2143 38.7362 12.9024 36.0709C14.0202 34.3061 15.3458 31.5102 16.4065 29.2395C19.164 23.3365 19.641 21.8696 20.2424 20.6685C20.4955 20.1629 20.8146 19.6484 21.1979 19.2088C21.3749 19.0057 21.6097 18.9351 21.7664 19.1635C22.8078 20.6812 21.5168 22.6817 20.2239 24.8268C17.0336 30.12 16.1422 31.5455 15.5639 32.5407C14.7277 33.9801 13.5028 36.2556 12.8811 37.6595C11.9332 39.8 11.9315 40.8455 12.0725 41.338C12.1425 41.5825 12.5262 41.6627 12.8216 41.6998C13.3892 41.771 14.2124 41.4342 15.6412 40.5884C17.9934 39.1958 20.1531 36.5659 22.3552 33.8646C23.5245 32.4304 24.5269 30.6561 25.4834 28.8167C28.5132 22.9896 28.4213 21.7334 28.7506 20.4705C28.8808 19.9714 28.6163 19.1805 28.3779 18.9533C26.9572 17.5996 25.4295 22.356 24.5029 23.9781C22.7208 27.0977 21.2813 28.6444 20.3142 30.0517C18.5422 32.6305 17.9353 35.6022 17.7546 37.2519C17.6977 37.7713 17.8055 38.2232 18.0996 38.6031C18.8529 39.576 21.1707 38.7959 22.9706 37.8559C23.6701 37.4906 25.4807 35.1387 28.0066 31.4576C30.5381 27.7685 31.1705 25.6908 31.7981 24.9718C33.7127 22.7783 33.1095 32.8766 32.1117 34.2608C31.3673 35.2933 30.2923 35.5536 29.0464 36.8304C28.762 37.1219 28.642 37.3323 28.7009 37.5241C28.7599 37.7158 29.0192 37.8989 29.2682 38.0018C29.7251 38.1907 31.2575 37.9204 32.2674 37.7179C36.5957 36.8499 26.5837 38.7258 24.9615 39.3203C24.3083 39.5597 23.7629 39.7296 23.5146 39.8009C23.1588 39.903 24.5581 39.7082 26.8018 39.1498C32.2047 37.8053 35.7574 36.9171 35.5138 36.5001C35.2452 36.04 33.6586 34.3609 31.1374 31.5513C28.9771 29.144 26.7228 27.8378 25.0475 26.778C22.6201 25.0885 21.6861 24.6749 21.0797 24.3204C20.7879 24.1395 20.5286 23.9564 20.0939 23.7966" stroke="#FFE749" stroke-width="5.76" stroke-linecap="round"/>
<path d="M17.4488 19.4261C15.7882 21.7782 14.4756 23.7887 13.7484 25.1614C12.7513 27.0436 12.2843 29.2591 12.1413 29.9018C12.0975 30.0988 12.4555 29.1737 13.2158 27.8498C13.8443 26.7554 15.0317 24.8415 15.7503 23.6117C16.6996 21.9038 17.0274 21.208 17.2599 20.8208C17.4023 20.6369 17.5941 20.4786 17.9601 20.1917" stroke="#FFE749" stroke-width="5.76" stroke-linecap="round"/>
<path d="M10.3463 16.1914C9.59242 16.5727 8.94007 17.1907 8.44845 17.734C8.0333 18.1929 7.86228 18.8296 7.70355 19.4745C7.63763 19.7423 7.7247 20.2439 7.89124 20.847C8.10575 21.6238 9.09894 21.8113 10.4963 22.1396C11.4033 22.3527 11.9343 22.1147 13.4194 21.9061C14.7206 21.7235 17.1184 21.2848 18.4138 21.0459C20.171 20.7218 21.3039 20.3738 22.1835 20.1278C22.8496 19.9415 23.6918 19.7099 24.2223 19.5706C24.8197 19.4137 25.6482 19.1508 26.2961 18.9448C26.9115 18.7491 27.6239 18.4954 28.1651 18.322C28.6516 18.166 29.1473 17.7908 29.605 17.4108C29.8086 17.2417 29.7851 16.7029 29.641 16.0486C29.4889 15.3577 28.9216 14.984 28.4027 14.7249C27.9082 14.4779 27.22 14.6436 26.5991 14.624C26.0694 14.6073 25.5592 14.5504 24.8299 14.6282C24.2453 14.6906 23.6083 14.6021 22.7712 14.6984C22.2068 14.7634 21.6421 14.7512 19.49 15.0742C18.8666 15.1678 18.4574 15.173 17.9951 15.237C17.5915 15.2929 15.7838 15.5389 13.2845 15.9852C11.9917 16.2161 11.4218 16.5429 10.8327 16.708C10.6936 16.747 10.5878 16.8441 10.5352 16.8228C10.4827 16.8015 10.4922 16.6747 10.55 16.5533C10.798 16.0322 11.3817 15.7929 11.9433 15.4741C12.5296 15.1414 13.1239 15.081 17.238 14.3553C18.5888 14.1171 19.4195 14.1838 20.7386 14.0523C21.5241 13.9739 22.4534 14.01 23.149 13.9845C23.7782 13.9614 24.526 13.9051 25.0391 13.9434C25.5522 13.9816 26.0634 14.0196 26.5659 13.9966C27.11 13.9716 27.6167 14.2262 28.133 14.3739C28.6425 14.5196 28.9591 15.0364 29.3663 15.4727C29.4671 15.5808 29.5467 15.694 29.5993 15.812C29.6519 15.93 29.6728 16.0516 29.5825 16.163C29.1013 16.7561 28.0527 16.7122 25.4556 17.2077C24.9265 17.3086 24.8112 17.3657 23.1962 17.7227C21.5811 18.0798 18.4709 18.741 16.7953 19.1099C14.9729 19.5355 14.4873 19.6514 13.9225 19.7644C13.692 19.8198 13.5757 19.8711 13.4558 19.924" stroke="#BA5801" stroke-width="5.76" stroke-linecap="round"/>
<path d="M16.7156 11.8691C16.8519 11.9395 17.4375 12.0292 17.6086 11.9215C17.6932 11.8682 17.632 11.6827 17.5551 11.5996C17.403 11.4355 17.0938 11.488 16.8461 11.5146C16.7206 11.528 16.614 11.6323 16.5725 11.7657C16.531 11.899 16.5624 12.0814 16.6321 12.2131C16.7017 12.3448 16.8086 12.4203 17.0157 12.4329C17.2228 12.4456 17.5268 12.3932 17.7337 12.295C17.9406 12.1967 18.0413 12.0542 18.0979 11.9173C18.1544 11.7804 18.1639 11.6536 18.1431 11.5301C18.1222 11.4066 18.0709 11.2902 17.981 11.2255C17.8911 11.1609 17.7643 11.1514 17.5774 11.1675C17.3904 11.1836 17.1472 11.2255 16.7283 11.3926" stroke="#FF0000" stroke-width="5.76" stroke-linecap="round"/>
<path d="M17.0359 9.32354C17.0129 8.82667 17.0147 8.28663 17.1596 7.39656C17.5394 5.87127 17.9558 4.58345 18.3697 3.78741C18.6233 3.33205 18.965 2.77231 19.5618 1.96374" stroke="#FF0000" stroke-width="1.44" stroke-linecap="round"/>
</svg>
