<svg width="43" height="44" viewBox="0 0 43 44" fill="none" xmlns="http://www.w3.org/2000/svg">
<path d="M10.0807 14.3772C9.39157 16.0025 8.98813 17.2123 8.67682 18.3596C8.38087 19.4502 8.06749 22.1346 7.87167 24.2307C7.62455 26.876 7.41468 28.0225 7.47797 29.2288C7.53384 30.2939 7.46231 31.4354 7.56318 32.4281C7.68582 33.6349 7.80728 35.3576 8.39615 36.4775C9.05174 37.7242 11.5007 37.4988 13.9861 37.181C14.4983 37.1155 14.8053 37.1099 17.2745 36.6901C19.7438 36.2702 24.3658 35.4348 26.9253 34.9979C31.6874 34.185 34.9083 33.5823 35.2299 33.2147C35.6284 32.7591 35.5597 32.0151 35.5785 31.2628C35.604 30.2418 35.2994 27.4166 34.5833 23.7388C33.9854 20.6678 33.0612 19.6111 32.6365 18.7026C32.1174 17.5921 31.1857 16.118 30.5629 15.1115C29.6928 13.7054 28.5615 12.4927 27.6925 11.8449C26.8457 11.2137 24.7705 11.2571 21.6551 11.5869C17.1914 12.0594 14.3241 12.8839 13.6623 13.0813C12.8423 13.2559 12.0923 13.4428 11.5592 13.6426C11.3153 13.7388 11.1255 13.8244 10.7793 13.9399" stroke="#FEAFB0" stroke-width="5.184" stroke-linecap="round"/>
<path d="M15.1593 14.0811C12.8978 19.0452 12.1017 22.0834 11.4441 24.0514C10.6208 26.5155 10.6796 27.4322 10.3007 31.6345C10.2062 32.6826 10.3871 33.283 10.6393 33.4007C11.2705 33.6953 12.2693 31.977 13.769 29.5659C14.762 27.9695 15.9346 25.4435 16.8725 23.3922C19.3109 18.0594 19.7294 16.7358 20.2618 15.6504C20.486 15.1936 20.7694 14.7282 21.111 14.3297C21.2689 14.1457 21.4797 14.0804 21.6224 14.2847C22.5707 15.6431 21.4236 17.4529 20.2757 19.3929C17.4433 24.18 16.6515 25.4695 16.1384 26.3694C15.3964 27.6709 14.3107 29.7278 13.7615 30.9958C12.9241 32.9291 12.9303 33.87 13.0607 34.3122C13.1255 34.5318 13.4714 34.6011 13.7376 34.6324C14.2489 34.6923 14.9873 34.3832 16.2669 33.6114C18.3736 32.3409 20.298 29.9582 22.2601 27.511C23.3019 26.2117 24.1911 24.6076 25.0383 22.9451C27.7223 17.6787 27.6304 16.5488 27.9175 15.4098C28.031 14.9597 27.7872 14.2498 27.5709 14.0471C26.2825 12.8392 24.9424 17.1311 24.1204 18.5977C22.5394 21.4184 21.2553 22.8209 20.3953 24.0945C18.8195 26.4283 18.295 29.1072 18.1445 30.5932C18.0971 31.0611 18.1974 31.467 18.4649 31.8067C19.15 32.6768 21.2302 31.9578 22.8432 31.0986C23.4701 30.7647 25.0822 28.6348 27.3285 25.3034C29.5797 21.9647 30.1336 20.0902 30.6932 19.4386C32.4002 17.4504 31.9313 26.543 31.0435 27.7961C30.3812 28.7307 29.4156 28.9729 28.3037 30.1311C28.0499 30.3955 27.9434 30.5858 27.9979 30.7579C28.0523 30.93 28.287 31.0929 28.5119 31.1837C28.9245 31.3503 30.3016 31.0958 31.209 30.9062C35.098 30.0933 26.1013 31.855 24.6457 32.4019C24.0595 32.6221 23.5699 32.7791 23.347 32.845C23.0275 32.9395 24.2855 32.7539 26.3006 32.235C31.1532 30.9853 34.344 30.1599 34.1218 29.7864C33.8766 29.3743 32.4364 27.8748 30.1468 25.3648C28.185 23.2141 26.1465 22.055 24.6311 21.1135C22.4341 19.6109 21.5905 19.2455 21.0422 18.9309C20.7783 18.7702 20.5435 18.6073 20.1511 18.4667" stroke="#FEAFB0" stroke-width="5.184" stroke-linecap="round"/>
<path d="M17.7381 14.5527C16.2608 16.6817 15.0943 18.5007 14.4499 19.7414C13.5663 21.4427 13.1623 23.44 13.0383 24.0194C13.0003 24.197 13.3158 23.3618 13.9902 22.1648C14.5479 21.1753 15.6025 19.4441 16.2402 18.332C17.082 16.7881 17.3719 16.1594 17.5783 15.8092C17.7051 15.6427 17.8766 15.4988 18.2039 15.2379" stroke="#FEAFB0" stroke-width="5.184" stroke-linecap="round"/>
<path d="M11.323 11.694C10.6474 12.0426 10.0648 12.6036 9.62638 13.0962C9.25612 13.5122 9.10688 14.0865 8.96876 14.668C8.91139 14.9096 8.99343 15.3604 9.14773 15.9019C9.34648 16.5994 10.2417 16.7608 11.5017 17.0461C12.3195 17.2312 12.7957 17.0131 14.1307 16.8146C15.3003 16.6406 17.4551 16.2282 18.6192 16.0037C20.1982 15.6992 21.2153 15.3776 22.0051 15.1498C22.6032 14.9773 23.3594 14.7627 23.8358 14.6334C24.3724 14.4878 25.116 14.2452 25.6976 14.055C26.25 13.8743 26.8893 13.6408 27.3751 13.4808C27.8118 13.3369 28.2552 12.9956 28.6642 12.6502C28.8463 12.4965 28.8212 12.0118 28.6867 11.424C28.5447 10.8034 28.0314 10.4712 27.5625 10.2418C27.1157 10.0232 26.4976 10.1773 25.9387 10.1642C25.4618 10.153 25.0022 10.1056 24.3464 10.181C23.8208 10.2414 23.2469 10.1664 22.4942 10.2593C21.9867 10.3219 21.4784 10.315 19.5439 10.6215C18.9836 10.7103 18.6153 10.7179 18.1998 10.779C17.837 10.8322 16.2119 11.0668 13.9658 11.4869C12.8041 11.7042 12.2936 12.0025 11.7646 12.1553C11.6397 12.1914 11.5452 12.2796 11.4977 12.2609C11.4503 12.2421 11.4579 12.1278 11.509 12.0182C11.7285 11.5474 12.252 11.3277 12.7551 11.0367C13.2803 10.733 13.8147 10.6743 17.5119 9.99106C18.7259 9.76674 19.474 9.82068 20.6601 9.69264C21.3665 9.61639 22.2031 9.64203 22.829 9.61397C23.3951 9.5886 24.0676 9.53246 24.5297 9.56308C24.9917 9.5937 25.4521 9.6242 25.9042 9.59977C26.3936 9.57332 26.8515 9.79874 27.3173 9.92786C27.7769 10.0553 28.0656 10.518 28.4352 10.9078C28.5268 11.0043 28.5992 11.1055 28.6474 11.2114C28.6956 11.3172 28.7154 11.4265 28.6349 11.5274C28.2061 12.0647 27.2621 12.0328 24.9284 12.4978C24.453 12.5925 24.3497 12.6447 22.8988 12.9779C21.4479 13.3111 18.6537 13.929 17.1484 14.2733C15.5114 14.6696 15.0752 14.7775 14.5677 14.8833C14.3608 14.9349 14.2564 14.9819 14.1489 15.0304" stroke="#FFFAF5" stroke-width="5.184" stroke-linecap="round"/>
<path d="M6.06592 39.4449L6.11474 39.7151" stroke="#FFFAF5" stroke-width="7.776" stroke-linecap="round"/>
<path d="M12.6225 38.6783L12.2905 39.1568" stroke="#FFFAF5" stroke-width="7.776" stroke-linecap="round"/>
<path d="M19.4495 37.8629L19.3389 38.0224" stroke="#FFFAF5" stroke-width="7.776" stroke-linecap="round"/>
<path d="M26.4977 36.7286L26.252 36.9125" stroke="#FFFAF5" stroke-width="7.776" stroke-linecap="round"/>
<path d="M32.8101 34.6114L32.8833 35.0166" stroke="#FFFAF5" stroke-width="7.776" stroke-linecap="round"/>
<path d="M38.6177 33.5616L38.6421 33.6967" stroke="#FFFAF5" stroke-width="7.776" stroke-linecap="round"/>
<path d="M16.398 2.91975C15.7596 4.01013 15.3503 4.82475 14.6927 6.19894C14.4453 6.71586 14.319 7.10617 14.3687 7.76739C14.4624 9.01245 14.972 9.96329 15.6178 10.3334C17.0714 11.1664 18.0139 10.8572 18.7988 10.5772C19.5143 10.322 19.5871 9.50578 19.5958 9.04043C19.6172 7.88966 19.2111 6.646 18.8781 5.96134C18.6565 5.63037 18.4021 5.25653 18.1676 4.85814C18.0625 4.66652 17.9857 4.49628 17.5632 3.9645" stroke="#FC5B44" stroke-width="5.184" stroke-linecap="round"/>
<path d="M17.5908 4.34141C17.938 4.89609 18.2091 5.3504 18.3773 5.67784C18.4533 5.83671 18.5102 5.98078 18.5611 6.17458C18.612 6.36839 18.6553 6.60755 18.6998 6.85396" stroke="#FFFAF5" stroke-width="1.296" stroke-linecap="round"/>
<path d="M19.3884 9.62923L19.2979 9.64561" stroke="#FFFAF5" stroke-width="1.296" stroke-linecap="round"/>
<path d="M8.93213 24.2477L8.95145 24.3546" stroke="#FC5B44" stroke-width="1.296" stroke-linecap="round"/>
<path d="M18.0537 26.4627L17.9468 26.482" stroke="#FC5B44" stroke-width="1.296" stroke-linecap="round"/>
<path d="M24.958 20.6891L24.9773 20.796" stroke="#FC5B44" stroke-width="1.296" stroke-linecap="round"/>
<path d="M33.5044 24.0013L33.3975 24.0206" stroke="#FC5B44" stroke-width="1.296" stroke-linecap="round"/>
<path d="M8.16602 32.2237L8.18534 32.3306" stroke="#FC5B44" stroke-width="1.296" stroke-linecap="round"/>
<path d="M25.1719 29.8126L25.1912 29.9195" stroke="#FC5B44" stroke-width="1.296" stroke-linecap="round"/>
</svg>
