<svg width="44" height="35" viewBox="0 0 44 35" fill="none" xmlns="http://www.w3.org/2000/svg">
<path d="M10.1806 31.7533C9.24243 29.632 7.26665 25.5967 5.37371 21.8293C4.56751 20.2248 3.87389 18.6902 3.63911 17.3095C3.60364 17.1008 3.94994 17.0773 4.20865 17.2088C5.63541 17.9342 6.8061 19.0081 7.73791 19.4728C8.69991 19.9527 9.82286 20.5057 11.0265 21.0115C12.3494 21.5675 13.3683 21.9749 13.8067 21.9616C14.9382 21.927 14.8746 19.7268 16.0104 16.337C16.9237 13.6113 17.3807 12.1856 18.2638 9.74422C19.0882 7.4654 19.3432 6.67123 19.5756 6.3082C19.6812 6.14318 19.9689 6.20966 20.2372 6.39875C21.7021 7.43097 22.6512 9.92876 23.8975 11.7282C24.7592 12.9724 25.7683 14.4723 26.6607 15.5663C27.3024 16.353 27.7893 17.0269 28.1415 17.3795C28.3165 17.5546 28.5882 17.5996 28.8659 17.4966C30.1832 17.0078 30.7926 15.9976 32.5788 14.7297C33.8047 13.8594 34.8953 13.0744 35.8785 12.4382C36.7817 11.8536 37.6073 11.677 37.9175 11.5942C38.8063 11.3568 37.3747 13.7684 37.0076 15.6261C36.782 16.7676 36.4914 19.3775 36.0866 21.7273C35.8428 23.1421 35.7686 24.5747 35.6594 25.863C35.5415 26.3825 35.4451 26.872 35.3791 27.3529C35.3317 27.5975 35.2563 27.8433 35.2362 28.4401" stroke="#FFDE09" stroke-width="5.04" stroke-linecap="round"/>
<path d="M9.60158 24.0791C10.4646 26.4479 12.3425 30.2682 12.8823 30.6803C13.896 31.4543 12.5282 27.4853 12.0865 26.0818C11.9813 25.7474 11.9331 25.3453 12.0408 25.292C13.4403 24.5983 14.4486 28.0892 15.3126 28.6819C15.586 28.8694 15.6941 28.4811 15.7372 28.0323C15.8365 27.0005 15.6279 25.2599 15.6619 24.0709C15.6998 22.7455 17.287 26.381 17.4963 26.4077C20.5326 26.7957 18.2379 19.7519 18.2129 19.2545C18.0717 16.4475 20.1314 27.1975 20.4842 27.5534C21.7794 28.8603 20.855 20.2974 20.6126 16.8833C20.5837 16.4757 20.5544 16.0134 20.4258 15.0662C20.2972 14.1189 20.0598 12.7015 20.5635 14.8391C21.0672 16.9767 22.3192 22.7122 23.1014 25.9644C23.8837 29.2166 24.1582 29.8118 24.0523 28.1198C23.6951 22.4102 23.2825 18.2553 23.9588 18.4335C27.3033 19.3146 27.7639 26.3784 28.3398 27.1809C30.573 30.2925 27.5335 20.4259 27.9765 20.9672C28.5843 21.7099 29.4123 24.2725 30.5492 26.6785C31.6051 28.9133 31.7727 22.9057 32.2315 21.4106C32.789 19.5937 32.2123 27.5762 32.1091 28.9376C31.9381 31.1955 33.3544 23.2378 34.3542 20.4228C34.8541 19.0153 34.7229 17.9943 34.4088 17.1629C34.2244 16.6749 31.5361 19.563 28.3326 22.9246C26.2563 25.1034 25.0063 26.7343 22.8876 28.1206C21.0946 29.2938 19.5413 29.2427 18.4871 29.655C17.2692 30.1314 15.7302 30.7641 14.8276 31.1802C13.7428 31.6803 12.4224 32.0846 11.3994 32.3142C11.2035 32.3582 15.9247 31.8513 22.1703 30.8345C25.1969 30.3417 27.8557 30.2064 29.985 29.9963C31.3824 29.7923 32.4949 29.6643 33.1364 29.6452C33.5416 29.6073 34.1085 29.5124 35.065 29.5288" stroke="#FFDE09" stroke-width="5.04" stroke-linecap="round"/>
<path d="M2.52051 14.4907L2.57806 14.8343" stroke="#C8E1FF" stroke-width="5.04" stroke-linecap="round"/>
<path d="M19.8662 3.10791L19.9525 3.62332" stroke="#C8E1FF" stroke-width="5.04" stroke-linecap="round"/>
<path d="M40.0322 9.62109L40.061 9.7929" stroke="#C8E1FF" stroke-width="5.04" stroke-linecap="round"/>
<path d="M20.6952 14.6436C20.271 16.0278 19.9129 16.778 19.4655 18.1318C19.366 18.4328 19.2805 18.5801 19.2683 18.7212C19.2118 19.3768 20.321 19.8591 20.9134 20.2971C21.5287 20.6616 21.9614 20.9701 22.2549 21.1794C22.4317 21.3055 22.6651 21.472 23.0066 21.6266" stroke="#C8E1FF" stroke-width="2.52" stroke-linecap="round"/>
<path d="M20.998 14.5928C21.4114 14.7986 22.9287 15.6459 24.046 16.2772C24.2259 16.3789 24.3351 16.5563 24.3733 16.7752C24.5331 17.6901 24.2562 18.5397 23.8733 19.7644C23.7136 20.2582 23.6341 20.6203 23.612 20.9002C23.6008 21.0411 23.5898 21.18 23.4775 21.34" stroke="#C8E1FF" stroke-width="2.52" stroke-linecap="round"/>
</svg>
