<svg width="39" height="30" viewBox="0 0 39 30" fill="none" xmlns="http://www.w3.org/2000/svg">
<path d="M4.60867 24.0248C4.89678 22.1912 6.26675 18.0172 7.35511 15.7078C8.36339 13.5684 9.92558 11.6326 11.6196 9.759C13.2102 7.99985 15.3759 7.14018 16.8897 6.47197C18.8761 5.64032 20.7883 5.13028 23.9672 4.79962C26.0315 4.72645 29.7535 4.66811 33.5883 4.60801" stroke="#AE6163" stroke-width="9.216" stroke-linecap="round"/>
<path d="M4.8597 24.7411C7.16 24.945 12.4512 24.5452 13.7685 24.2822C15.3702 23.9623 17.2246 23.1118 19.1348 22.1602C20.499 21.4805 21.9072 20.4797 24.8355 18.6336C26.4387 17.6228 27.8451 16.4645 28.9908 15.286C30.0601 14.186 31.0765 13.135 31.7781 11.8026C32.5645 10.3094 32.8518 8.7866 33.1125 7.50075C33.1769 7.18303 33.1433 6.86178 32.6303 6.98383C29.4094 7.75023 27.9122 9.4113 26.0824 10.2837C24.5379 11.0201 23.2321 12.2066 21.8438 12.9905C20.0189 14.0209 17.4569 15.5712 15.4606 16.691C13.7136 17.6389 12.5237 18.2985 11.8107 18.6685C11.491 18.8739 11.2572 19.1152 10.7763 19.3676" stroke="#AE6163" stroke-width="9.216" stroke-linecap="round"/>
<path d="M16.5226 7.65563C16.5207 7.53622 16.5188 7.41681 16.5449 7.17572C16.571 6.93463 16.6251 6.57547 16.678 6.02451" stroke="#EAAB74" stroke-width="0.576" stroke-linecap="round"/>
<path d="M23.2027 6.6463C23.2624 6.64537 23.3221 6.64443 23.441 6.55299C23.5599 6.46155 23.7362 6.27963 24.0931 5.72752" stroke="#EAAB74" stroke-width="0.576" stroke-linecap="round"/>
<path d="M29.4331 11.6157L31.6041 11.5817" stroke="#EAAB74" stroke-width="0.576" stroke-linecap="round"/>
<path d="M21.8857 14.9912L23.1635 15.695" stroke="#EAAB74" stroke-width="0.576" stroke-linecap="round"/>
<path d="M15.7113 13.6403C15.5937 13.7616 15.4762 13.8829 15.3275 14.0363C15.1788 14.1897 15.0025 14.3717 14.459 14.5648" stroke="#EAAB74" stroke-width="0.576" stroke-linecap="round"/>
<path d="M11.8786 23.1106C11.998 23.1088 12.1174 23.1069 12.387 23.0429C12.6565 22.979 13.0726 22.853 13.6793 22.5395" stroke="#EAAB74" stroke-width="0.576" stroke-linecap="round"/>
<path d="M7.61527 16.663L6.90294 17.398" stroke="#EAAB74" stroke-width="0.576" stroke-linecap="round"/>
</svg>
