<svg width="35" height="41" viewBox="0 0 35 41" fill="none" xmlns="http://www.w3.org/2000/svg">
<path d="M16.8361 18.096C13.6346 18.3866 12.1814 18.9657 10.432 20.6386C9.17978 21.8361 9.33609 23.6248 9.2596 26.1357C9.2114 27.7182 10.4943 28.7996 11.587 29.8562C12.5913 30.8274 13.9165 31.0592 16.7159 31.1717C18.3085 31.2358 19.7425 30.4823 20.9838 29.7174C21.5519 29.3673 22.4392 28.6641 23.4575 27.5015C24.362 26.4689 24.4846 24.5907 24.4125 22.6982C24.3463 20.9594 22.7408 20.0671 21.6481 19.6268C20.2829 19.0766 18.3002 19.2629 13.4324 19.3328C11.5541 19.3598 10.5751 20.4233 9.95671 21.1139C8.98725 22.1964 8.68049 23.6991 8.31445 24.866C7.74555 26.6797 8.38329 29.5251 9.32844 30.8745C10.6186 32.7165 12.1682 32.6632 13.5166 32.7736C15.5872 32.943 18.5056 32.8118 19.854 32.448C21.1781 32.0906 22.2207 31.5006 23.4237 30.9554C24.8151 30.3248 25.7172 29.2454 26.1957 28.0806C26.8067 26.5935 26.4514 24.7349 26.1979 23.3451C25.9723 22.108 24.8518 21.2341 24.0148 20.3206C23.1606 19.3884 21.9409 19.1886 20.6658 18.8258C18.9514 18.6073 18.0773 18.3145 17.8205 18.3145C17.8522 18.3145 17.5679 18.5653 18.3765 17.9097" stroke="#FF0000" stroke-width="16.2" stroke-linecap="round"/>
<path d="M16.6084 13.5706C16.6084 12.6241 16.8187 10.7694 17.4266 8.1196C18.0141 5.55865 19.314 4.22533 20.239 3.53778C21.7423 2.53473 23.1366 1.83363 24.5109 1.67429C25.4119 1.62012 26.7265 1.62012 28.0809 1.62012" stroke="#62A565" stroke-width="3.24" stroke-linecap="round"/>
<path d="M28.0814 1.62012C28.0814 2.78489 27.9762 4.16319 27.6313 5.175C27.2257 6.36439 26.7047 7.5635 26.1446 8.44226C25.5596 9.36009 22.001 11.0084 19.9582 11.9493C19.7447 12.0298 19.5344 12.0824 19.2683 12.1621C19.0022 12.2417 18.6867 12.3469 18.043 12.7739" stroke="#62A565" stroke-width="3.24" stroke-linecap="round"/>
<path d="M21.7073 4.64759C21.4969 4.85792 20.4421 6.91181 19.6916 8.88683C18.8133 11.1984 22.7685 4.75594 22.9015 4.64759C24.1123 3.66156 22.1327 7.5667 22.1319 7.72763C22.1298 8.1484 23.3979 5.8283 24.726 4.36397C25.9146 3.05335 24.3635 7.40736 24.4678 7.33167C25.4361 6.62947 25.7402 4.97105 26.2453 4.49064C27.2554 3.52985 25.533 7.0345 25.2414 7.24961C25.0518 5.39808 25.5298 3.7999 25.8214 3.37606C25.9553 3.16254 26.0604 2.95221 26.6468 2.57617" stroke="#62A565" stroke-width="3.24" stroke-linecap="round"/>
</svg>
