<svg width="44" height="47" viewBox="0 0 44 47" fill="none" xmlns="http://www.w3.org/2000/svg">
<path d="M30.0646 12.3966C28.3412 12.7105 26.7266 13.2122 23.4639 15.1566C20.8862 16.6928 16.6053 19.6196 14.2251 21.2377C10.7659 23.5893 9.66074 24.7707 8.24606 26.1528C6.53397 27.8253 6.20253 29.0727 5.63082 30.8285C5.52295 31.1598 5.87571 31.2628 6.22938 31.2234C7.84628 31.0433 9.37364 30.5723 10.8341 30.0167C12.1204 29.5274 14.9042 27.4486 16.9665 25.8076C18.6841 24.441 19.5315 23.6885 20.4754 23.0471C21.6196 22.2697 22.4127 21.3476 23.5057 20.3875C24.7052 19.3338 25.9827 18.0373 26.9991 17.0138C27.8552 16.1517 28.5136 15.3621 29.1308 14.5007C29.3079 14.2926 29.5124 14.0985 29.7145 13.7318C29.9166 13.3652 30.11 12.8317 29.9501 12.1519" stroke="#FFA24F" stroke-width="8.1" stroke-linecap="round"/>
<path d="M36.8577 19.2893C36.7008 19.907 35.3999 23.8696 33.7946 26.8083C32.7001 28.8121 29.4463 31.1523 27.8266 32.4356C26.6536 33.365 25.8416 33.9867 23.8356 35.3209C22.3605 36.302 21.2514 36.9271 20.2293 37.5065C18.6628 38.3947 17.0112 38.9133 15.7913 39.2848C14.6144 39.5378 13.4863 39.6672 12.3852 39.7109C12.112 39.7134 11.8319 39.746 11.5434 39.7796" stroke="#FFA24F" stroke-width="8.1" stroke-linecap="round"/>
<path d="M5.67139 35.3594C6.11478 35.2519 7.29643 34.5993 10.605 33.0272C12.3047 32.2196 13.6491 31.282 14.8334 30.7258C16.0628 30.1485 17.2278 29.2591 18.2842 28.5905C19.3727 27.9016 20.8314 26.9771 21.971 26.2696C22.9494 25.6621 23.9283 24.9827 25.3081 24.1621C26.7327 23.3148 27.7273 22.1618 28.897 21.3657C30.8307 20.0495 31.3987 18.9533 32.2368 18.1385C33.1367 17.2635 33.9817 16.5043 35.0569 15.4026C36.0276 14.6003 36.5648 14.0493 37.0045 13.7698C37.202 13.6036 37.3472 13.388 37.4969 13.1659" stroke="#EC0808" stroke-width="11.34" stroke-linecap="round"/>
<path d="M41.71 11.5076C40.192 10.9571 37.3501 10.1552 36.9758 10.4994C36.1822 11.2291 35.7801 11.933 35.4117 12.6848C35.1107 13.2988 35.0076 13.8499 35.1073 14.3648C35.4775 16.2764 36.4159 16.8625 36.5752 17.5937C36.6446 17.9124 36.4748 18.1938 36.2748 18.4285C35.7725 19.0179 34.5636 19.231 33.5602 19.4464C31.8024 19.8238 30.6922 19.1785 28.9324 19.2103C27.1813 19.2419 26.5022 20.5399 25.5378 21.8645C24.3308 23.5224 24.9286 24.4395 24.8169 25.4928C24.671 26.868 23.6743 27.9108 22.9705 28.3671C22.033 28.9751 20.6491 28.9333 19.0722 28.6711C17.67 28.4378 16.5061 27.9322 15.791 27.942C14.6818 27.9572 12.7896 29.2712 11.6529 30.2128C10.6994 31.0025 11.1791 34.1901 11.4761 35.7885C11.6244 36.5863 10.9387 37.1177 10.6426 37.2986C9.92299 37.4817 9.04449 37.356 7.80912 36.9658C6.85548 36.6396 5.23845 36.0532 3.40528 35.2729" stroke="#FF0004" stroke-width="0.972" stroke-linecap="round"/>
<path d="M38.9521 9.23655C39.3019 10.2852 39.4148 11.2479 39.156 12.4425C38.9539 13.375 38.543 13.9766 38.2062 14.2189C36.8972 15.1606 35.1378 15.0912 34.442 15.2039C33.3802 15.3758 31.8948 15.7587 31.0023 16.2465C30.1668 16.7031 29.4088 17.8234 28.9655 18.9899C28.7097 19.6632 28.9104 20.5674 28.9926 21.6195C29.0441 22.2783 28.5497 23.5877 27.9338 24.5472C27.4416 25.3139 26.6705 25.3805 25.9344 25.7096C25.2612 26.0105 23.8623 25.7089 22.7591 25.6566C21.6087 25.6019 20.8629 25.4691 19.7635 25.5318C18.5768 25.5996 17.3992 26.3245 16.2768 27.2297C15.2274 28.076 15.0202 29.47 14.0148 32.0815C13.5808 33.209 12.644 33.6907 11.9541 34.0007C11.2156 34.3325 10.3939 34.3787 9.26432 34.4692C8.11417 34.3998 7.06324 34.3259 6.10574 34.3639C5.89189 34.3643 5.74493 34.3491 5.21321 34.4266" stroke="#FFF200" stroke-width="0.972" stroke-linecap="round"/>
<path d="M8.7961 23.3611C8.61011 23.71 8.42412 24.0589 8.25437 24.3605C8.08463 24.662 7.93676 24.9058 7.7844 25.1569" stroke="#ED7003" stroke-width="0.972" stroke-linecap="round"/>
<path d="M13.2383 21.5479L12.7184 22.9813" stroke="#ED7003" stroke-width="0.972" stroke-linecap="round"/>
<path d="M17.3184 19.2427L17.0296 20.0391" stroke="#ED7003" stroke-width="0.972" stroke-linecap="round"/>
<path d="M21.9756 15.3447L21.2247 17.4153" stroke="#ED7003" stroke-width="0.972" stroke-linecap="round"/>
<path d="M26.9536 13.5454L26.6648 14.3418" stroke="#ED7003" stroke-width="0.972" stroke-linecap="round"/>
<path d="M14.5356 40.0337L14.1949 40.9734" stroke="#ED7003" stroke-width="0.972" stroke-linecap="round"/>
<path d="M21.0063 36.8516L20.5292 38.1672" stroke="#ED7003" stroke-width="0.972" stroke-linecap="round"/>
<path d="M25.8721 34.5752L25.395 35.8908" stroke="#ED7003" stroke-width="0.972" stroke-linecap="round"/>
<path d="M30.3955 30.8989L30.1745 32.0948" stroke="#ED7003" stroke-width="0.972" stroke-linecap="round"/>
</svg>
