<svg width="40" height="29" viewBox="0 0 40 29" fill="none" xmlns="http://www.w3.org/2000/svg">
<path d="M7.70078 19.2692C7.49074 16.5992 7.57823 12.7176 7.93005 11.6896C8.30994 10.5795 8.73012 9.80449 9.20505 8.96589C9.88723 7.76136 10.7362 7.06207 11.8436 6.08901C12.7489 5.29355 14.2174 4.84839 15.1552 4.46745C16.3375 3.98714 20.2098 3.79406 23.2013 4.46947C24.628 4.79157 25.806 5.63068 26.6274 6.29442C27.3428 6.87245 27.8002 7.84286 28.0131 8.69003C28.2099 9.47304 28.6189 10.2778 28.8832 11.334C29.1118 12.2474 29.2578 14.8701 28.8853 16.8342C28.702 17.801 27.7912 18.3267 26.9069 18.7757C26.3369 19.0651 25.7354 19.1838 23.4468 19.3841C21.3948 19.5637 17.5126 19.5843 15.3742 19.5924C12.9519 19.6015 12.4739 19.3834 12.0932 19.2289C11.6445 19.0468 11.4133 18.5623 11.2375 18.1433C10.6872 16.8312 11.7172 14.1752 12.496 13.0349C13.0553 12.2161 13.8209 11.3736 14.5652 10.9035C15.2917 10.4445 17.2208 9.96366 20.0301 9.77058C21.103 9.69684 21.9505 9.93311 23.3569 10.4856C23.9004 10.699 24.2027 11.1019 24.4492 11.5191C24.7219 11.9806 24.6769 12.9735 24.6341 14.0361C24.6174 14.4488 24.4379 14.5886 24.1825 14.7374C23.5838 15.0865 22.9902 15.2418 22.5227 15.3479C21.8755 15.4949 18.9612 15.5348 14.9737 15.5428C13.5097 15.5457 13.1815 15.4945 12.9394 15.3598C12.6973 15.2251 12.5512 14.9951 12.4736 14.7832C12.3959 14.5714 12.3911 14.3845 12.4563 14.1931C12.871 12.9753 14.821 11.821 15.8013 11.2499C16.9764 10.5654 18.8086 9.02786 20.3038 8.34937C21.5533 7.78241 22.3677 7.75262 23.1229 7.70848C23.9969 7.6574 24.9322 8.34408 25.8199 8.91123C27.5083 9.98997 28.0757 11.1896 28.4496 11.9364C28.8014 12.6388 28.983 13.4325 29.1453 14.1847C29.4957 15.808 29.3911 18.1922 29.2526 18.3155C28.5658 18.9266 29.6315 16.6338 29.8726 15.8713C30.1186 15.0931 30.3269 14.2564 30.4624 13.0745C30.7639 10.4432 29.9294 9.68617 29.6263 8.93762C29.282 8.08767 28.4107 7.45897 27.6421 6.98083C26.8742 6.5031 26.111 6.1469 25.3491 5.92919C24.5997 5.71507 23.6929 5.68766 22.921 5.9645C22.5737 6.08906 22.6761 6.74196 22.7319 7.09886C22.8827 8.0617 24.1319 8.50622 25.0865 8.83725C26.4734 9.3182 27.3843 10.0743 28.2572 10.9492C29.0647 11.7584 29.254 12.9525 29.7556 14.0968C30.1196 14.9271 30.1317 15.8108 30.2919 16.563C30.7132 18.5413 30.3755 21.5676 30.0014 21.6714C28.7699 22.013 26.8483 21.988 25.8353 22.0854C25.5286 22.115 25.1563 22.173 22.8158 22.257C20.4754 22.3411 16.1783 22.4512 13.8694 22.4402C10.9673 22.4265 10.228 21.9436 9.36905 21.6123C9.17566 21.499 9.03194 21.3624 8.84114 21.2951C8.65034 21.2277 8.4168 21.2337 8.17618 21.2399" stroke="#8B4A2A" stroke-width="8.064" stroke-linecap="round"/>
<path d="M19.0023 7.08267C17.872 6.97 16.2789 7.47821 15.2787 8.0732C14.0964 8.77648 13.2948 8.97383 12.6493 9.64967C12.4432 9.86547 12.5711 10.3549 12.7173 10.5912C13.2527 11.4562 17.1357 10.9546 19.2347 10.7365C20.0451 10.6523 20.4815 9.64513 20.9852 8.99346C21.4559 8.38471 21.2839 7.68704 21.1826 7.38301C20.8201 6.29454 18.354 7.42787 17.6084 7.8485C17.2386 8.11646 16.8665 8.41067 16.4967 8.67934C16.3101 8.80309 16.1256 8.90129 15.9356 9.00247" stroke="#A99124" stroke-width="8.064" stroke-linecap="round"/>
<path d="M4.85756 25.2803C4.76371 25.2827 4.52767 25.2887 4.2463 25.4133C4.10725 25.4749 4.15863 25.7677 4.25677 25.9331C4.65329 26.6013 5.7849 26.4887 8.26889 26.45C10.3338 26.4177 12.9834 26.1164 15.7728 25.9731C17.8147 25.8682 20.1795 25.6475 21.9074 25.5313C22.36 25.5009 22.7808 25.4385 24.64 25.3667C26.4992 25.2949 29.7838 25.2107 31.5691 25.1415C33.5409 25.0205 33.9208 24.9624 34.2984 24.9293C34.4883 24.9009 34.6748 24.8492 35.0055 24.6501" stroke="#4B3429" stroke-width="3.2256" stroke-linecap="round"/>
<path d="M4.0326 20.5905C4.4073 20.6235 5.16226 20.7418 5.87027 20.8443C6.49337 20.9345 7.23658 20.9815 7.96618 20.9634C8.84828 20.9414 9.20419 20.6909 9.83705 20.5584C9.98034 20.5283 10.1873 20.519 10.3766 20.5268C11.2689 20.5636 11.6519 20.7475 12.2194 20.8452C12.4904 20.8918 12.833 20.9244 13.2087 20.9406C13.5632 20.9559 14.0535 20.8766 14.7563 20.7766C15.5599 20.6622 16.2538 20.5273 16.9829 20.491C17.9225 20.4441 18.281 20.6898 18.755 20.7982C18.9909 20.8522 19.5084 20.8567 19.931 20.8589C20.6781 20.8628 21.1944 20.642 22.4332 20.3996C22.9255 20.3033 23.4436 20.2739 23.9126 20.2704C24.8357 20.2635 25.3279 20.4229 26.0356 20.5127C26.3672 20.5548 26.7904 20.5668 27.1657 20.5702C27.9865 20.5777 28.4298 20.3532 28.9917 20.2312C29.3018 20.1638 29.5999 20.0991 30.0443 20.0704C31.1278 20.0004 31.8565 20.1869 32.659 20.2313C32.8336 20.241 33.0339 20.2177 33.199 20.192C33.8773 20.0414 34.486 19.9052 34.7655 19.8293C34.9063 19.7911 35.045 19.7535 35.4686 19.6558" stroke="#FCFCFC" stroke-width="8.064" stroke-linecap="round"/>
<path d="M13.652 7.78688L12.9427 9.47748" stroke="#A66B38" stroke-width="0.4032" stroke-linecap="round"/>
<path d="M17.0118 8.36993C16.9906 8.61883 16.9694 8.86773 16.9602 9.06489C16.951 9.26205 16.9546 9.39994 16.9582 9.542" stroke="#A66B38" stroke-width="0.4032" stroke-linecap="round"/>
<path d="M21.7603 7.6626C21.761 7.69017 21.7617 7.71775 21.8914 7.9356C22.0212 8.15346 22.28 8.56075 22.5488 9.06396" stroke="#A66B38" stroke-width="0.4032" stroke-linecap="round"/>
<path d="M20.7511 10.699L20.6932 11.704" stroke="#A66B38" stroke-width="0.4032" stroke-linecap="round"/>
<path d="M14.4321 12.1152L15.5185 12.0874" stroke="#A66B38" stroke-width="0.4032" stroke-linecap="round"/>
<path d="M14.8819 6.83552C15.3182 6.63118 15.7544 6.42683 16.034 6.30636C16.3136 6.18589 16.4232 6.15549 16.5486 6.13806C16.674 6.12063 16.8118 6.1171 16.9539 6.11346" stroke="#A66B38" stroke-width="0.4032" stroke-linecap="round"/>
<path d="M19.5186 8.30548C19.4988 8.60953 19.479 8.91358 19.4706 9.13916C19.4621 9.36473 19.4657 9.50262 19.4693 9.64468" stroke="#A66B38" stroke-width="0.4032" stroke-linecap="round"/>
<path d="M11.3976 11.2548C11.6662 11.1988 11.9348 11.1428 12.1827 11.0743C12.4305 11.0059 12.6494 10.9266 12.8232 10.872C12.997 10.8173 13.119 10.7896 13.2428 10.6868" stroke="#A66B38" stroke-width="0.4032" stroke-linecap="round"/>
<path d="M18.7769 11.81C18.6617 12.1075 18.5466 12.405 18.464 12.608C18.3815 12.811 18.3349 12.9104 18.2999 13.011C18.2649 13.1115 18.2429 13.2103 18.2202 13.312" stroke="#A66B38" stroke-width="0.4032" stroke-linecap="round"/>
</svg>
