<svg width="57" height="31" viewBox="0 0 57 31" fill="none" xmlns="http://www.w3.org/2000/svg">
<path d="M14.7584 24.7452C14.8924 20.2385 15.4059 17.0818 15.7297 15.4148C15.9362 14.3516 16.8552 12.4852 18.5141 10.0089C21.9048 4.94761 26.0457 4.02048 27.5645 3.73083C30.1524 3.23729 34.2513 2.90899 35.8182 3.02098C37.7439 3.15861 39.0873 3.228 40.4209 3.25664C42.4735 3.30072 44.3963 4.44783 45.6605 5.14973C47.0638 5.92887 48.4132 7.22228 49.3713 8.47577C50.2554 9.63261 51.0314 10.6785 51.5337 11.8016C52.0277 12.9063 52.4635 15.9514 52.5908 19.8454C52.6383 21.2975 51.8165 21.6537 51.3239 21.8984C49.8454 22.6329 48.4657 22.7145 46.9725 23.1849C43.8965 24.1538 40.1753 24.3495 35.6821 25.1346C32.4953 25.6915 26.4929 26.2484 23.1556 26.6027C18.1407 27.1352 16.0746 27.1011 14.0966 27.221C12.7629 27.3018 11.2772 27.0742 9.50239 27.0585C7.75777 27.043 6.11045 26.4265 4.74025 26.1044C4.11922 25.9584 3.51035 25.6951 3.14351 25.4071C2.24889 24.7049 5.83043 23.5818 7.22061 22.7893C8.41891 22.1061 9.90371 21.7723 11.2213 21.3612C11.5382 21.2134 11.8095 21.0356 12.2015 20.9144C12.5935 20.7933 13.0978 20.7342 13.6175 20.6733" stroke="#37A2FF" stroke-width="6" stroke-linecap="round"/>
<path d="M24.5665 8.324C21.4979 12.2868 19.6517 15.4602 18.7464 18.437C18.275 19.9871 18.2413 21.0881 18.4166 21.0355C19.8675 20.5999 20.2056 17.7703 21.3349 16.092C23.8877 12.298 27.671 7.23886 29.1919 5.64415C29.4757 5.34656 29.1267 8.13968 27.9941 11.6611C26.1375 17.4334 21.7197 20.455 20.3511 21.432C19.819 21.8119 18.91 22.3378 18.5573 22.5296C18.2817 22.6795 19.9767 21.6374 22.2627 19.7904C24.5487 17.9434 27.9281 14.9911 30.0507 12.9873C32.1734 10.9835 32.9368 10.0176 33.4254 9.39923C34.105 8.53941 31.8842 11.3494 27.5239 16.5768C22.8964 22.1246 21.0663 23.1167 20.2412 24.2836C19.8676 24.812 23.6079 21.3073 29.7187 15.5384C32.6713 12.751 33.7081 11.4633 34.7102 10.2393C34.9584 9.93611 35.1149 9.6031 35.1476 9.22964C35.1802 8.85618 35.0575 8.43229 34.6574 8.14381C34.2573 7.85534 33.5835 7.71512 33.4123 7.58576C32.0024 6.52042 38.9407 7.07887 41.3604 7.20498C42.8693 7.28363 44.6757 7.51394 46.648 8.24249C48.5231 8.93514 49.1338 11.4851 49.6814 13.3068C50.3687 15.5934 49.4242 17.0643 48.5804 18.3451C47.9513 19.3 45.9857 19.7579 42.3 20.5581C35.8631 21.9556 31.128 22.0911 30.0617 22.1053C28.3337 22.1284 26.5021 22.2632 25.6829 21.9209C24.2223 21.3106 28.0586 18.6944 29.8206 17.0892C34.4488 12.8728 38.8837 9.01122 39.4049 8.43446C39.6523 8.16077 39.943 8.0018 40.0062 8.50349C40.4948 12.3833 37.1097 15.7685 36.3935 17.0056C34.5575 20.1772 41.597 12.0136 41.9156 11.8988C44.0546 11.1282 40.935 16.3586 40.7085 17.6468C40.278 20.0949 43.7265 13.8293 44.4249 13.1964C44.8116 12.8459 45.17 12.3389 45.5419 13.2748C45.9138 14.2106 46.2643 16.58 44.4507 17.9246C36.1228 24.0987 33.2083 19.7071 32.3689 19.7689C31.9628 19.7988 31.5931 19.7502 32.0413 19.2583C32.4894 18.7665 33.7657 17.8136 34.6032 17.3016C35.4408 16.7896 35.8011 16.7474 36.1723 16.7039" stroke="#37A2FF" stroke-width="6" stroke-linecap="round"/>
<path d="M30.4404 5.87598L30.4862 6.26688" stroke="white" stroke-width="3" stroke-linecap="round"/>
<path d="M44.062 8.83789L44.2575 8.815" stroke="white" stroke-width="3" stroke-linecap="round"/>
<path d="M36.0469 13.1445L36.0927 13.5354" stroke="white" stroke-width="3" stroke-linecap="round"/>
<path d="M20.3315 12.6074L20.527 12.5845" stroke="white" stroke-width="3" stroke-linecap="round"/>
<path d="M5.74316 24.6982L6.24008 24.64" stroke="white" stroke-width="3" stroke-linecap="round"/>
<path d="M16.0303 26.5161L16.0691 26.8474" stroke="white" stroke-width="3" stroke-linecap="round"/>
<path d="M33.5773 25.8043L33.431 25.9894" stroke="white" stroke-width="3" stroke-linecap="round"/>
<path d="M24.7607 24.459L24.8616 24.4472" stroke="white" stroke-width="3" stroke-linecap="round"/>
<path d="M47.5669 21.7627L47.5905 21.9643" stroke="white" stroke-width="3" stroke-linecap="round"/>
<path d="M12.6265 18.3188C13.4649 18.6845 15.973 19.7182 18.3428 20.2463C19.9294 20.5998 21.826 20.704 23.2634 20.7046C24.3699 20.705 25.4337 20.7493 27.1063 20.8203C28.0391 20.8599 28.7848 20.8906 31.5662 20.6648C34.0847 20.4604 38.8303 19.8481 41.4366 19.5099C45.0345 19.043 47.0827 18.4818 48.6472 18.0997C50.0639 17.6669 51.2297 17.3964 52.2599 17.0768C52.5164 16.9798 52.7691 16.8843 53.5749 16.3221" stroke="#078BFF" stroke-width="6" stroke-linecap="round"/>
</svg>
