<svg width="61" height="34" viewBox="0 0 61 34" fill="none" xmlns="http://www.w3.org/2000/svg">
<path d="M11.1792 15.3354C11.1792 14.5151 12.1864 10.4672 13.4645 6.6025C13.6547 6.02721 13.9719 5.92722 14.2275 5.95679C15.5225 6.10658 16.3258 7.82717 17.7231 9.5106C18.7907 10.7967 19.6946 12.0238 21.091 12.9166C22.4775 13.803 24.3358 12.9204 25.446 12.6982C30.0115 11.7843 36.611 12.474 37.0555 12.3166C38.1615 11.925 39.0832 9.18536 40.1715 7.54961C40.4826 7.08205 40.9355 6.69025 41.3475 6.27726C41.542 6.08236 41.8225 6.05312 42.0781 6.08365C43.3919 6.24052 44.8708 8.39563 46.084 9.7357C46.5914 10.1811 47.0397 10.6275 47.4203 11.1034C47.612 11.3276 47.8008 11.5164 47.9954 11.9017" stroke="#CEB6A1" stroke-width="6" stroke-linecap="round"/>
<path d="M11.3701 17.6244C9.59226 18.1318 8.07384 19.1428 6.98556 20.3226C6.07727 21.3074 6.09377 22.6413 6.06039 23.7878C6.01483 25.3524 7.16964 26.5862 8.1549 27.6668C9.2902 28.912 12.3697 29.4475 14.1943 29.7051C15.1821 29.8445 18.8421 30.0236 23.7675 29.9921C26.1137 29.9772 27.0084 29.8329 28.7453 29.7384C32.439 29.5376 35.0851 29.1976 35.6555 29.1023C38.108 28.6921 42.7001 28.055 45.3164 27.5142C47.6919 27.0232 49.2622 25.8308 50.5021 24.9724C52.0574 23.8957 52.5699 22.5879 53.0812 21.4443C53.6034 20.276 53.3368 18.5248 52.673 17.0254C52.0091 16.2967 51.4311 15.7187 50.9876 15.3696C50.7329 15.2094 50.4182 15.0835 49.5216 14.5723" stroke="#CEB6A1" stroke-width="6" stroke-linecap="round"/>
<path d="M37.2891 10.2577C37.5782 9.53205 38.3579 8.26616 38.8689 7.48647C39.3659 6.72812 39.9143 6.02638 40.3779 5.32043C40.9097 4.51064 41.6664 3.59387 42.2512 3.10401C42.9657 2.50547 43.7602 4.65682 44.2712 5.31532C44.7992 5.99572 45.1706 6.84695 45.7313 7.52954C46.4153 8.36225 46.7767 9.47511 47.2162 10.2548C47.7024 11.2272 48.1901 12.2026 48.3602 12.5909C48.4339 12.7866 48.4821 12.9793 48.8238 13.6159" stroke="#CEB6A1" stroke-width="6" stroke-linecap="round"/>
<path d="M49.1154 13.3237C50.4718 13.3237 52.3217 13.6128 53.2248 14.1494C53.6404 14.3964 54.0782 14.4903 54.3695 14.8057C55.0072 15.4962 55.1485 16.4834 55.3689 17.4799C55.7856 19.3632 54.8594 20.376 54.4221 21.0841C54.0052 21.7592 53.7906 22.5194 53.327 23.3465C52.9133 24.0847 51.9918 24.7562 50.9201 25.4162C50.1305 25.9024 49.314 26.2192 48.2919 26.7303C47.4809 27.1358 46.6858 27.3873 45.9061 27.656C45.068 27.9447 44.2036 28.167 43.3999 28.2648C42.4727 28.3777 41.5288 28.7014 40.4804 28.9219C39.4477 29.1391 38.6553 29.2387 37.442 29.3599C34.3363 29.6701 33.1566 29.6767 32.255 29.7979C31.1175 29.9508 30.2364 29.9687 29.1406 30.0899C28.1446 30.2001 25.7248 30.2608 22.7535 30.382C18.1769 30.5686 14.8544 30.3586 14.3689 30.2615C13.1214 30.012 11.6437 29.922 10.8158 29.5081C10.2828 29.2416 9.79226 28.9481 9.42797 28.6569C9.25641 28.5101 9.11186 28.3656 8.5249 27.9246" stroke="#CEB6A1" stroke-width="6" stroke-linecap="round"/>
<path d="M12.6131 19.0183C12.6131 19.1147 11.6013 21.0916 10.3091 23.5782C9.43532 25.2596 12.1255 20.823 12.5868 20.1163C13.2956 19.0308 13.8746 16.8895 14.2908 15.5908C14.6937 14.3332 15.3376 13.6685 15.6538 12.8889C15.7323 12.6951 15.7757 12.5005 15.8005 12.6662C16.0273 14.1804 14.7157 17.675 13.6388 20.3003C12.3455 23.4533 11.74 24.7068 11.4932 25.4172C11.0489 26.6961 14.263 23.6468 16.4729 21.9217C18.6492 20.2228 19.1806 18.6825 19.7654 17.732C20.0303 17.3014 20.3501 16.9275 20.4969 16.8041C22.2848 15.3008 17.2416 22.0787 16.5335 23.2482C15.8886 24.3132 15.0515 25.3376 14.6098 26.3399C14.5129 26.5598 14.3681 26.8006 14.39 26.9729C14.412 27.1452 14.6047 27.2415 14.8244 27.1948C15.3323 27.0868 15.9669 26.5159 17.1299 25.7895C18.9274 24.6668 21.3591 22.4393 23.7419 20.1535C25.7214 18.2548 26.7731 17.5611 27.8908 16.6128C28.1714 16.3747 28.4259 16.2471 28.4536 16.1244C28.6843 15.1045 25.8532 16.4865 25.4407 16.7289C25.2133 16.8626 24.9801 17.0676 25.1932 17.1187C27.1215 17.581 30.6423 15.5258 32.9989 14.7855C35.7845 13.9105 37.1835 13.9576 38.4041 13.7386C39.296 13.5786 40.2993 12.9852 41.4703 12.5954C41.9249 12.444 42.2997 12.2537 42.7362 12.2048C43.9216 12.072 45.1673 13.1254 46.0462 13.7839C47.0238 14.5163 47.8947 15.6075 48.3838 16.3872C48.9044 17.2169 49.2117 18.3321 49.1891 19.525C49.1692 20.5725 47.6115 21.1559 46.7098 21.6932C45.4564 22.4402 43.7714 22.9576 38.1136 24.1972C36.5395 24.5421 34.5787 24.6134 31.8089 24.9054C28.45 25.2595 25.3874 25.1507 22.7272 24.6929C22.1309 24.5903 23.8733 23.3197 25.6072 22.4627C27.341 21.6056 29.2202 20.8347 31.5614 19.9557C33.9027 19.0767 36.6491 18.1131 38.2326 17.5925C40.7111 16.7778 41.6163 16.5858 42.6618 16.415C43.0228 16.356 43.5086 16.3902 43.805 16.4865C44.1014 16.5829 44.1978 16.7756 44.151 16.9713C44.0451 17.4151 42.7975 18.1364 39.2422 19.3738C36.6725 20.2682 32.2659 20.7558 30.2006 21.1281C28.1353 21.5005 28.4726 21.5005 31.3446 20.85C34.2166 20.1995 39.6131 18.8986 42.6099 18.2043C46.0293 17.4122 46.6317 17.2677 46.8748 16.9523C47.1142 16.6418 47.0712 16.1492 46.9508 15.6638C46.805 15.0764 46.1484 14.8337 45.5191 14.6636C45.0917 14.5481 44.408 14.5417 41.7718 14.83C39.1356 15.1184 34.5583 15.7448 32.0798 16.0675C28.7748 16.4865 27.3191 17.0195 25.9824 17.5787C25.4166 17.8006 25.0794 17.897 24.5858 18.1423" stroke="#CEB6A1" stroke-width="6" stroke-linecap="round"/>
<path d="M23.3945 18.8452V19.0729" stroke="#0D0D0D" stroke-width="3" stroke-linecap="round"/>
<path d="M33.0693 17.5928V17.8204" stroke="#0D0D0D" stroke-width="3" stroke-linecap="round"/>
<path d="M12.7676 13.6613C12.9213 12.9702 13.3038 11.8956 13.614 11.0832C13.7793 10.6506 14.0375 10.3113 14.2871 10.1189C14.4107 10.0236 14.5749 10.0028 14.7297 10.0213C15.3716 10.0979 15.9985 10.9989 16.3873 11.6945C16.4717 11.8454 16.5786 12.0019 16.6375 12.1758C16.6965 12.3497 16.6965 12.5404 16.4867 12.7149C15.2347 13.199 14.5425 13.2753 13.8295 13.4296C13.655 13.4683 13.5025 13.5064 13.3454 13.5457" stroke="#8F6E51" stroke-width="3" stroke-linecap="round"/>
<path d="M43.1589 5.57227C42.6216 5.99404 41.8532 6.68621 40.9663 7.59101C40.7808 7.78025 40.7716 7.95732 40.8473 8.07403C41.0262 8.35 42.3015 8.34559 43.8037 8.19305C44.334 8.13921 44.3145 7.73546 44.2764 7.50203C44.162 7.11608 44.0452 6.76826 43.9684 6.38404C43.9297 6.19048 43.8916 5.99982 43.7367 5.57227" stroke="#8F6E51" stroke-width="3" stroke-linecap="round"/>
<path d="M0.75 20.9414C1.97026 20.9033 3.19053 20.8651 5.47794 20.8073C7.76536 20.7496 11.083 20.6733 14.5011 20.5947" stroke="#8F6E51" stroke-width="1.5" stroke-linecap="round"/>
<path d="M14.617 23.9458C14.5407 23.9458 14.4644 23.9458 12.2134 24.6322C9.96241 25.3186 5.53895 26.6914 0.981445 28.2213" stroke="#8F6E51" stroke-width="1.5" stroke-linecap="round"/>
<path d="M43.1587 17.3591C45.7518 16.9015 48.3448 16.4439 50.8246 16.0366C53.3044 15.6292 55.5924 15.286 56.9427 15.1092C58.293 14.9324 58.6362 14.9324 59.3364 14.8169" stroke="#8F6E51" stroke-width="1.5" stroke-linecap="round"/>
<path d="M43.9678 20.71C45.9126 20.9006 47.8574 21.0913 50.518 21.3611C53.1787 21.6309 56.4963 21.9741 59.9144 22.3277" stroke="#8F6E51" stroke-width="1.5" stroke-linecap="round"/>
</svg>
