<svg width="61" height="34" viewBox="0 0 61 34" fill="none" xmlns="http://www.w3.org/2000/svg">
<path d="M11.1787 15.3354C11.1787 14.5151 12.1859 10.4672 13.464 6.6025C13.6542 6.02721 13.9714 5.92722 14.227 5.95679C15.522 6.10658 16.3254 7.82717 17.7227 9.5106C18.7902 10.7967 19.6941 12.0238 21.0905 12.9166C22.477 13.803 24.3353 12.9204 25.4455 12.6982C30.011 11.7843 36.6105 12.474 37.055 12.3166C38.161 11.925 39.0827 9.18536 40.171 7.54961C40.4821 7.08205 40.935 6.69025 41.347 6.27726C41.5415 6.08236 41.822 6.05312 42.0776 6.08365C43.3914 6.24052 44.8703 8.39563 46.0835 9.7357C46.591 10.1811 47.0392 10.6275 47.4198 11.1034C47.6115 11.3276 47.8003 11.5164 47.9949 11.9017" stroke="#E3E3E3" stroke-width="6" stroke-linecap="round"/>
<path d="M11.3696 17.6244C9.59178 18.1318 8.07335 19.1428 6.98507 20.3226C6.07678 21.3074 6.09328 22.6413 6.0599 23.7878C6.01434 25.3524 7.16915 26.5862 8.15442 27.6668C9.28971 28.912 12.3692 29.4475 14.1938 29.7051C15.1816 29.8445 18.8416 30.0236 23.767 29.9921C26.1132 29.9772 27.0079 29.8329 28.7448 29.7384C32.4385 29.5376 35.0846 29.1976 35.655 29.1023C38.1075 28.6921 42.6997 28.055 45.3159 27.5142C47.6914 27.0232 49.2617 25.8308 50.5016 24.9724C52.0569 23.8957 52.5695 22.5879 53.0807 21.4443C53.6029 20.276 53.3363 18.5248 52.6725 17.0254C52.0086 16.2967 51.4306 15.7187 50.9871 15.3696C50.7325 15.2094 50.4177 15.0835 49.5212 14.5723" stroke="#E3E3E3" stroke-width="6" stroke-linecap="round"/>
<path d="M37.2881 10.2577C37.5772 9.53205 38.3569 8.26616 38.8679 7.48647C39.365 6.72812 39.9133 6.02638 40.3769 5.32043C40.9087 4.51064 41.6654 3.59387 42.2502 3.10401C42.9647 2.50547 43.7592 4.65682 44.2702 5.31532C44.7983 5.99572 45.1696 6.84695 45.7303 7.52954C46.4143 8.36225 46.7758 9.47511 47.2152 10.2548C47.7014 11.2272 48.1891 12.2026 48.3592 12.5909C48.433 12.7866 48.4811 12.9793 48.8228 13.6159" stroke="#E3E3E3" stroke-width="6" stroke-linecap="round"/>
<path d="M49.1149 13.3237C50.4713 13.3237 52.3212 13.6128 53.2243 14.1494C53.6399 14.3964 54.0777 14.4903 54.369 14.8057C55.0067 15.4962 55.148 16.4834 55.3685 17.4799C55.7851 19.3632 54.8589 20.376 54.4216 21.0841C54.0047 21.7592 53.7901 22.5194 53.3265 23.3465C52.9128 24.0847 51.9913 24.7562 50.9196 25.4162C50.13 25.9024 49.3135 26.2192 48.2914 26.7303C47.4804 27.1358 46.6853 27.3873 45.9056 27.656C45.0675 27.9447 44.2032 28.167 43.3994 28.2648C42.4722 28.3777 41.5283 28.7014 40.4799 28.9219C39.4472 29.1391 38.6548 29.2387 37.4415 29.3599C34.3358 29.6701 33.1561 29.6767 32.2545 29.7979C31.117 29.9508 30.2359 29.9687 29.1401 30.0899C28.1441 30.2001 25.7243 30.2608 22.753 30.382C18.1764 30.5686 14.8539 30.3586 14.3684 30.2615C13.1209 30.012 11.6432 29.922 10.8153 29.5081C10.2824 29.2416 9.79177 28.9481 9.42748 28.6569C9.25592 28.5101 9.11137 28.3656 8.52441 27.9246" stroke="#E3E3E3" stroke-width="6" stroke-linecap="round"/>
<path d="M12.6131 19.0183C12.6131 19.1147 11.6013 21.0916 10.3091 23.5782C9.43532 25.2596 12.1255 20.823 12.5868 20.1163C13.2956 19.0308 13.8746 16.8895 14.2908 15.5908C14.6937 14.3332 15.3376 13.6685 15.6538 12.8889C15.7323 12.6951 15.7757 12.5005 15.8005 12.6662C16.0273 14.1804 14.7157 17.675 13.6388 20.3003C12.3455 23.4533 11.74 24.7068 11.4932 25.4172C11.0489 26.6961 14.263 23.6468 16.4729 21.9217C18.6492 20.2228 19.1806 18.6825 19.7654 17.732C20.0303 17.3014 20.3501 16.9275 20.4969 16.8041C22.2848 15.3008 17.2416 22.0787 16.5335 23.2482C15.8886 24.3132 15.0515 25.3376 14.6098 26.3399C14.5129 26.5598 14.3681 26.8006 14.39 26.9729C14.412 27.1452 14.6047 27.2415 14.8244 27.1948C15.3323 27.0868 15.9669 26.5159 17.1299 25.7895C18.9274 24.6668 21.3591 22.4393 23.7419 20.1535C25.7214 18.2548 26.7731 17.5611 27.8908 16.6128C28.1714 16.3747 28.4259 16.2471 28.4536 16.1244C28.6843 15.1045 25.8532 16.4865 25.4407 16.7289C25.2133 16.8626 24.9801 17.0676 25.1932 17.1187C27.1215 17.581 30.6423 15.5258 32.9989 14.7855C35.7845 13.9105 37.1835 13.9576 38.4041 13.7386C39.296 13.5786 40.2993 12.9852 41.4703 12.5954C41.9249 12.444 42.2997 12.2537 42.7362 12.2048C43.9216 12.072 45.1673 13.1254 46.0462 13.7839C47.0238 14.5163 47.8947 15.6075 48.3838 16.3872C48.9044 17.2169 49.2117 18.3321 49.1891 19.525C49.1692 20.5725 47.6115 21.1559 46.7098 21.6932C45.4564 22.4402 43.7714 22.9576 38.1136 24.1972C36.5395 24.5421 34.5787 24.6134 31.8089 24.9054C28.45 25.2595 25.3874 25.1507 22.7272 24.6929C22.1309 24.5903 23.8733 23.3197 25.6072 22.4627C27.341 21.6056 29.2202 20.8347 31.5614 19.9557C33.9027 19.0767 36.6491 18.1131 38.2326 17.5925C40.7111 16.7778 41.6163 16.5858 42.6618 16.415C43.0228 16.356 43.5086 16.3902 43.805 16.4865C44.1014 16.5829 44.1978 16.7756 44.151 16.9713C44.0451 17.4151 42.7975 18.1364 39.2422 19.3738C36.6725 20.2682 32.2659 20.7558 30.2006 21.1281C28.1353 21.5005 28.4726 21.5005 31.3446 20.85C34.2166 20.1995 39.6131 18.8986 42.6099 18.2043C46.0293 17.4122 46.6317 17.2677 46.8748 16.9523C47.1142 16.6418 47.0712 16.1492 46.9508 15.6638C46.805 15.0764 46.1484 14.8337 45.5191 14.6636C45.0917 14.5481 44.408 14.5417 41.7718 14.83C39.1356 15.1184 34.5583 15.7448 32.0798 16.0675C28.7748 16.4865 27.3191 17.0195 25.9824 17.5787C25.4166 17.8006 25.0794 17.897 24.5858 18.1423" stroke="#E3E3E3" stroke-width="6" stroke-linecap="round"/>
<path d="M23.3945 17.7725V18.0001" stroke="#0D0D0D" stroke-width="3" stroke-linecap="round"/>
<path d="M33.0693 16.5205V16.7481" stroke="#0D0D0D" stroke-width="3" stroke-linecap="round"/>
<path d="M12.7676 12.589C12.9213 11.898 13.3038 10.8233 13.614 10.0109C13.7793 9.57832 14.0375 9.23904 14.2871 9.04664C14.4107 8.95135 14.5749 8.9305 14.7297 8.94899C15.3716 9.02565 15.9985 9.92659 16.3873 10.6222C16.4717 10.7731 16.5786 10.9296 16.6375 11.1035C16.6965 11.2774 16.6965 11.4681 16.4867 11.6426C15.2347 12.1268 14.5425 12.203 13.8295 12.3573C13.655 12.396 13.5025 12.4341 13.3454 12.4734" stroke="#B9B9B9" stroke-width="3" stroke-linecap="round"/>
<path d="M43.1589 4.5C42.6216 4.92177 41.8532 5.61395 40.9663 6.51875C40.7808 6.70798 40.7716 6.88506 40.8473 7.00177C41.0262 7.27773 42.3015 7.27332 43.8037 7.12079C44.334 7.06694 44.3145 6.66319 44.2764 6.42977C44.162 6.04381 44.0452 5.69599 43.9684 5.31177C43.9297 5.11822 43.8916 4.92755 43.7367 4.5" stroke="#B9B9B9" stroke-width="3" stroke-linecap="round"/>
<path d="M0.75 19.8686C1.97026 19.8305 3.19053 19.7924 5.47794 19.7346C7.76536 19.6768 11.083 19.6005 14.5011 19.522" stroke="#B9B9B9" stroke-width="1.5" stroke-linecap="round"/>
<path d="M14.617 22.8735C14.5407 22.8735 14.4644 22.8735 12.2134 23.5599C9.96241 24.2463 5.53895 25.6191 0.981445 27.1491" stroke="#B9B9B9" stroke-width="1.5" stroke-linecap="round"/>
<path d="M43.1592 16.2868C45.7522 15.8292 48.3453 15.3716 50.8251 14.9643C53.3049 14.557 55.5929 14.2138 56.9432 14.037C58.2935 13.8602 58.6367 13.8602 59.3369 13.7446" stroke="#B9B9B9" stroke-width="1.5" stroke-linecap="round"/>
<path d="M43.9678 19.6377C45.9126 19.8284 47.8574 20.019 50.518 20.2888C53.1787 20.5587 56.4963 20.9019 59.9144 21.2555" stroke="#B9B9B9" stroke-width="1.5" stroke-linecap="round"/>
</svg>
