<svg width="61" height="34" viewBox="0 0 61 34" fill="none" xmlns="http://www.w3.org/2000/svg">
<path d="M11.1792 15.3354C11.1792 14.5151 12.1864 10.4672 13.4645 6.6025C13.6547 6.02721 13.9719 5.92722 14.2275 5.95679C15.5225 6.10658 16.3258 7.82717 17.7231 9.5106C18.7907 10.7967 19.6946 12.0238 21.091 12.9166C22.4775 13.803 24.3358 12.9204 25.446 12.6982C30.0115 11.7843 36.611 12.474 37.0555 12.3166C38.1615 11.925 39.0832 9.18536 40.1715 7.54961C40.4826 7.08205 40.9355 6.69025 41.3475 6.27726C41.542 6.08236 41.8225 6.05312 42.0781 6.08365C43.3919 6.24052 44.8708 8.39563 46.084 9.7357C46.5914 10.1811 47.0397 10.6275 47.4203 11.1034C47.612 11.3276 47.8008 11.5164 47.9954 11.9017" stroke="#FFC871" stroke-width="6" stroke-linecap="round"/>
<path d="M11.3701 17.6244C9.59226 18.1318 8.07384 19.1428 6.98556 20.3226C6.07727 21.3074 6.09377 22.6413 6.06039 23.7878C6.01483 25.3524 7.16964 26.5862 8.1549 27.6668C9.2902 28.912 12.3697 29.4475 14.1943 29.7051C15.1821 29.8445 18.8421 30.0236 23.7675 29.9921C26.1137 29.9772 27.0084 29.8329 28.7453 29.7384C32.439 29.5376 35.0851 29.1976 35.6555 29.1023C38.108 28.6921 42.7001 28.055 45.3164 27.5142C47.6919 27.0232 49.2622 25.8308 50.5021 24.9724C52.0574 23.8957 52.5699 22.5879 53.0812 21.4443C53.6034 20.276 53.3368 18.5248 52.673 17.0254C52.0091 16.2967 51.4311 15.7187 50.9876 15.3696C50.7329 15.2094 50.4182 15.0835 49.5216 14.5723" stroke="#FFC871" stroke-width="6" stroke-linecap="round"/>
<path d="M37.2891 10.2577C37.5782 9.53205 38.3579 8.26616 38.8689 7.48647C39.3659 6.72812 39.9143 6.02638 40.3779 5.32043C40.9097 4.51064 41.6664 3.59387 42.2512 3.10401C42.9657 2.50547 43.7602 4.65682 44.2712 5.31532C44.7992 5.99572 45.1706 6.84695 45.7313 7.52954C46.4153 8.36225 46.7767 9.47511 47.2162 10.2548C47.7024 11.2272 48.1901 12.2026 48.3602 12.5909C48.4339 12.7866 48.4821 12.9793 48.8238 13.6159" stroke="#FFC871" stroke-width="6" stroke-linecap="round"/>
<path d="M49.1159 13.3237C50.4723 13.3237 52.3222 13.6128 53.2253 14.1494C53.6409 14.3964 54.0787 14.4903 54.37 14.8057C55.0077 15.4962 55.149 16.4834 55.3694 17.4799C55.7861 19.3632 54.8599 20.376 54.4226 21.0841C54.0057 21.7592 53.7911 22.5194 53.3275 23.3465C52.9138 24.0847 51.9922 24.7562 50.9205 25.4162C50.131 25.9024 49.3144 26.2192 48.2924 26.7303C47.4814 27.1358 46.6863 27.3873 45.9066 27.656C45.0685 27.9447 44.2041 28.167 43.4004 28.2648C42.4732 28.3777 41.5292 28.7014 40.4809 28.9219C39.4482 29.1391 38.6558 29.2387 37.4425 29.3599C34.3368 29.6701 33.1571 29.6767 32.2555 29.7979C31.118 29.9508 30.2369 29.9687 29.1411 30.0899C28.1451 30.2001 25.7252 30.2608 22.754 30.382C18.1774 30.5686 14.8549 30.3586 14.3694 30.2615C13.1219 30.012 11.6441 29.922 10.8163 29.5081C10.2833 29.2416 9.79275 28.9481 9.42846 28.6569C9.2569 28.5101 9.11235 28.3656 8.52539 27.9246" stroke="#FFC871" stroke-width="6" stroke-linecap="round"/>
<path d="M12.6136 19.0183C12.6136 19.1147 11.6018 21.0916 10.3096 23.5782C9.43581 25.2596 12.1259 20.823 12.5873 20.1163C13.2961 19.0308 13.8751 16.8895 14.2913 15.5908C14.6942 14.3332 15.3381 13.6685 15.6542 12.8889C15.7328 12.6951 15.7762 12.5005 15.801 12.6662C16.0278 14.1804 14.7161 17.675 13.6393 20.3003C12.346 23.4533 11.7405 24.7068 11.4937 25.4172C11.0494 26.6961 14.2635 23.6468 16.4734 21.9217C18.6497 20.2228 19.1811 18.6825 19.7659 17.732C20.0308 17.3014 20.3506 16.9275 20.4974 16.8041C22.2853 15.3008 17.2421 22.0787 16.5339 23.2482C15.8891 24.3132 15.052 25.3376 14.6103 26.3399C14.5134 26.5598 14.3686 26.8006 14.3905 26.9729C14.4124 27.1452 14.6052 27.2415 14.8249 27.1948C15.3327 27.0868 15.9674 26.5159 17.1304 25.7895C18.9279 24.6668 21.3595 22.4393 23.7424 20.1535C25.7218 18.2548 26.7736 17.5611 27.8913 16.6128C28.1719 16.3747 28.4264 16.2471 28.4541 16.1244C28.6848 15.1045 25.8537 16.4865 25.4412 16.7289C25.2138 16.8626 24.9806 17.0676 25.1937 17.1187C27.122 17.581 30.6428 15.5258 32.9994 14.7855C35.785 13.9105 37.184 13.9576 38.4046 13.7386C39.2965 13.5786 40.2998 12.9852 41.4708 12.5954C41.9254 12.444 42.3001 12.2537 42.7367 12.2048C43.9221 12.072 45.1678 13.1254 46.0467 13.7839C47.0243 14.5163 47.8952 15.6075 48.3843 16.3872C48.9048 17.2169 49.2122 18.3321 49.1896 19.525C49.1697 20.5725 47.6119 21.1559 46.7103 21.6932C45.4569 22.4402 43.7719 22.9576 38.1141 24.1972C36.54 24.5421 34.5792 24.6134 31.8094 24.9054C28.4505 25.2595 25.3879 25.1507 22.7276 24.6929C22.1314 24.5903 23.8738 23.3197 25.6077 22.4627C27.3415 21.6056 29.2207 20.8347 31.5619 19.9557C33.9032 19.0767 36.6496 18.1131 38.2331 17.5925C40.7116 16.7778 41.6168 16.5858 42.6622 16.415C43.0233 16.356 43.5091 16.3902 43.8055 16.4865C44.1019 16.5829 44.1983 16.7756 44.1515 16.9713C44.0456 17.4151 42.798 18.1364 39.2427 19.3738C36.673 20.2682 32.2664 20.7558 30.2011 21.1281C28.1358 21.5005 28.4731 21.5005 31.3451 20.85C34.2171 20.1995 39.6136 18.8986 42.6104 18.2043C46.0298 17.4122 46.6322 17.2677 46.8753 16.9523C47.1147 16.6418 47.0717 16.1492 46.9513 15.6638C46.8055 15.0764 46.1489 14.8337 45.5196 14.6636C45.0922 14.5481 44.4085 14.5417 41.7723 14.83C39.1361 15.1184 34.5587 15.7448 32.0802 16.0675C28.7753 16.4865 27.3196 17.0195 25.9829 17.5787C25.4171 17.8006 25.0798 17.897 24.5863 18.1423" stroke="#FFC871" stroke-width="6" stroke-linecap="round"/>
<path d="M23.3945 17.7725V18.0001" stroke="#0D0D0D" stroke-width="3" stroke-linecap="round"/>
<path d="M33.0693 16.5205V16.7481" stroke="#0D0D0D" stroke-width="3" stroke-linecap="round"/>
<path d="M12.7676 12.589C12.9213 11.898 13.3038 10.8233 13.614 10.0109C13.7793 9.57832 14.0375 9.23904 14.2871 9.04664C14.4107 8.95135 14.5749 8.9305 14.7297 8.94899C15.3716 9.02565 15.9985 9.92659 16.3873 10.6222C16.4717 10.7731 16.5786 10.9296 16.6375 11.1035C16.6965 11.2774 16.6965 11.4681 16.4867 11.6426C15.2347 12.1268 14.5425 12.203 13.8295 12.3573C13.655 12.396 13.5025 12.4341 13.3454 12.4734" stroke="#EDA666" stroke-width="3" stroke-linecap="round"/>
<path d="M43.1589 4.5C42.6216 4.92177 41.8532 5.61395 40.9663 6.51875C40.7808 6.70798 40.7716 6.88506 40.8473 7.00177C41.0262 7.27773 42.3015 7.27332 43.8037 7.12079C44.334 7.06694 44.3145 6.66319 44.2764 6.42977C44.162 6.04381 44.0452 5.69599 43.9684 5.31177C43.9297 5.11822 43.8916 4.92755 43.7367 4.5" stroke="#EDA666" stroke-width="3" stroke-linecap="round"/>
<path d="M0.75 19.8686C1.97026 19.8305 3.19053 19.7924 5.47794 19.7346C7.76536 19.6768 11.083 19.6005 14.5011 19.522" stroke="#EDA666" stroke-width="1.5" stroke-linecap="round"/>
<path d="M14.617 22.8735C14.5407 22.8735 14.4644 22.8735 12.2134 23.5599C9.96241 24.2463 5.53895 25.6191 0.981445 27.1491" stroke="#EDA666" stroke-width="1.5" stroke-linecap="round"/>
<path d="M43.1587 16.2868C45.7518 15.8292 48.3448 15.3716 50.8246 14.9643C53.3044 14.557 55.5924 14.2138 56.9427 14.037C58.293 13.8602 58.6362 13.8602 59.3364 13.7446" stroke="#EDA666" stroke-width="1.5" stroke-linecap="round"/>
<path d="M43.9678 19.6377C45.9126 19.8284 47.8574 20.019 50.518 20.2888C53.1787 20.5587 56.4963 20.9019 59.9144 21.2555" stroke="#EDA666" stroke-width="1.5" stroke-linecap="round"/>
</svg>
