<svg width="36" height="29" viewBox="0 0 36 29" fill="none" xmlns="http://www.w3.org/2000/svg">
<path d="M16.2018 6.30851C14.203 6.52269 9.79187 7.04706 7.59285 8.29125C5.22473 9.63113 4.54687 13.1939 4.50092 15.1877C4.4479 17.4879 5.95147 20.3401 7.28818 21.3352C8.73317 22.411 11.5568 23.4504 16.1358 23.6289C23.6963 23.9237 25.6758 20.3775 27.7824 18.9556C29.0882 18.0742 30.0739 16.6998 30.7414 15.4477C32.0487 12.9955 29.5709 9.23615 28.4523 7.94015C27.3581 6.67252 25.8748 5.93144 23.8802 5.25259C21.7299 4.52076 20.0761 4.83456 17.4073 5.16547C13.9251 5.59721 11.5006 6.80884 10.855 7.36608C10.2094 7.92332 9.67398 8.55321 9.37512 9.31685C8.69032 11.0667 9.77853 13.6418 11.1645 16.0089C12.0605 17.5393 13.0407 18.3494 13.7468 18.614C14.0896 18.7425 14.4749 18.5802 14.7433 18.268C15.9308 16.8871 15.1399 14.5774 14.9937 12.0481C14.96 11.4633 14.9202 10.9825 15.0909 10.6877C15.2617 10.3929 15.6286 10.2998 15.9559 10.4121C17.6923 11.0076 19.0932 14.6277 20.1648 16.6886C20.7856 17.8826 21.5683 11.5798 22.1106 9.39655C23.3771 10.4997 24.215 11.4705 24.7264 12.1277C24.9612 12.4646 25.146 12.8082 25.407 13.4402" stroke="#FF7B00" stroke-width="9" stroke-linecap="round"/>
<path d="M19.2677 3.61637C19.1687 3.70181 19.0697 3.78725 18.3682 4.35825C17.6667 4.92924 16.3656 5.98322 15.5963 6.61161C14.8271 7.24 14.6291 7.41087 13.9535 7.88938" stroke="#0B7F28" stroke-width="0.9" stroke-linecap="round"/>
<path d="M13.6411 4.49534C14.9681 4.70348 16.6898 5.24289 18.0446 5.53902C18.6252 5.66594 19.1016 5.85038 19.5523 6.07057C19.7899 6.16387 20.0453 6.21971 20.8674 6.31829" stroke="#0B7F28" stroke-width="0.9" stroke-linecap="round"/>
<path d="M16.6865 2.80882C16.772 2.9078 16.8574 3.00678 17.0739 3.7379C17.2905 4.46903 17.6356 5.82931 17.9911 7.23081" stroke="#0B7F28" stroke-width="0.9" stroke-linecap="round"/>
<path d="M17.1997 16.8498L17.9146 17.0061" stroke="#0D0D0D" stroke-width="0.54" stroke-linecap="round"/>
<path d="M6.31592 13.8713L6.47686 14.5057" stroke="#0D0D0D" stroke-width="0.54" stroke-linecap="round"/>
<path d="M25.2217 9.92894L25.6998 10.4829" stroke="#0D0D0D" stroke-width="0.54" stroke-linecap="round"/>
<path d="M26.5693 17.8493L26.7303 18.4838" stroke="#0D0D0D" stroke-width="0.54" stroke-linecap="round"/>
<path d="M11.3484 23.0609L11.8219 22.2656" stroke="#0D0D0D" stroke-width="0.54" stroke-linecap="round"/>
</svg>
