<svg width="32" height="40" viewBox="0 0 32 40" fill="none" xmlns="http://www.w3.org/2000/svg">
<path d="M6.14658 30.5701C6.64681 28.0614 8.16265 23.5063 9.11196 21.4201C10.2228 18.9791 12.5662 13.3047 14.4799 9.73486C14.7482 9.23449 14.984 8.72683 15.3629 8.46913C15.7419 8.21144 16.2421 8.21144 16.6249 8.46155C18.6537 9.78732 19.9104 12.6225 21.5513 16.4065C23.0022 19.7523 23.5788 22.3467 24.5224 25.2533C25.4264 28.038 25.3447 30.6838 24.9108 33.5298C21.4376 34.1058 12.9148 34.3598 7.35548 33.166C6.78325 32.7226 6.28302 32.2224 5.38867 31.3281" stroke="#FF7B00" stroke-width="5.25" stroke-linecap="round"/>
<path d="M16.311 12.1128C14.1473 18.1403 12.1826 23.1772 10.5856 26.6839C9.86319 28.2701 9.22039 29.4178 8.78601 30.1308C8.35163 30.8438 8.11981 31.0757 8.81178 30.2678C13.0858 25.2778 14.2737 23.3622 16.1096 20.3976C16.6734 19.4872 16.9339 18.7514 17.2453 17.9728C17.4022 17.5806 17.5568 17.1942 17.3659 17.9998C15.7292 24.9081 13.5057 29.3569 12.4121 31.2677C11.8907 32.1787 11.63 33.0286 11.7037 32.8788C13.5195 29.1896 15.5195 27.2681 16.9304 25.3116C18.8429 22.6595 19.587 20.5475 19.9769 20.3087C23.2903 18.2788 19.4348 28.4202 18.8892 30.4481C18.6704 31.261 18.4185 31.9351 18.5344 32.25C19.2505 34.1959 21.2215 28.5115 22.3139 27.651C22.7108 27.4859 22.788 27.8723 22.8665 28.2258C22.9449 28.5794 23.0222 28.8885 23.1018 29.4412" stroke="#FF7B00" stroke-width="5.25" stroke-linecap="round"/>
<path d="M15.8428 29.9097C16.461 30.0642 17.0792 30.2188 17.5908 30.3757C18.1025 30.5326 18.4889 30.6871 19.1211 30.8463" stroke="#FF7B00" stroke-width="5.25" stroke-linecap="round"/>
<path d="M10.9258 13.0493C12.0919 13.1266 13.806 13.2835 15.9861 13.4778C17.15 13.5176 19.1591 13.5176 20.3487 13.4404C21.5382 13.3631 21.8474 13.2085 22.4 13.0493" stroke="#FFF200" stroke-width="3.15" stroke-linecap="round"/>
<path d="M7.17871 20.3086C8.41512 20.6177 13.3795 20.7769 20.0907 20.7383C22.7836 20.6224 23.4885 20.4655 24.2671 20.3484C24.6593 20.3086 25.0457 20.3086 25.4438 20.3086" stroke="#FFF200" stroke-width="3.15" stroke-linecap="round"/>
<path d="M4.83691 28.2705C6.23021 28.2705 9.35634 28.4251 11.9263 28.699C14.6392 28.7388 16.7748 28.8161 19.1773 28.9332C21.1162 28.973 24.5163 28.973 28.0195 28.7388" stroke="#FFF200" stroke-width="3.15" stroke-linecap="round"/>
<path d="M4.13411 33.656C4.13411 33.9651 4.05683 34.4335 4.05566 35.0177C4.05509 35.3032 4.3636 35.5247 4.5603 35.4896C4.757 35.4544 4.91155 35.1454 4.99116 35.1407C5.30528 35.1222 5.30261 35.9954 5.84705 36.4239C6.46176 36.9077 7.71688 36.9344 8.88772 36.7412C9.3243 36.6692 9.2858 36.1616 9.13125 35.8853C8.82227 35.3329 7.96275 35.2179 7.26142 35.2168C6.9374 35.2162 6.71463 35.5247 6.71112 35.7987C6.70309 36.4248 7.48739 36.8548 8.14892 37.1662C10.4753 38.2615 13.8099 37.4823 14.3942 37.0936C14.695 36.8935 14.9011 36.5504 14.866 36.2752C14.8309 36.0001 14.5218 35.7682 14.1307 35.6488C13.7397 35.5294 13.276 35.5294 12.9985 35.6839C12.721 35.8385 12.6438 36.1476 12.6812 36.4614C12.7187 36.7752 12.8732 37.0843 13.1847 37.3594C15.0767 39.0309 18.5682 37.7961 19.5049 37.1346C19.8929 36.8606 19.8233 36.3958 19.5529 36.1968C19.2824 35.9977 18.7415 35.9977 18.4242 36.1523C18.1069 36.3068 18.0296 36.6159 18.0671 36.9297C18.1045 37.2435 18.2591 37.5526 18.5705 37.7891C19.2619 38.3141 21.137 38.3394 23.2047 38.1848C23.9723 38.1275 24.1133 37.7212 24.1543 37.4074C24.1952 37.0936 24.118 36.7845 23.9236 36.5094C23.7292 36.2342 23.4201 36.0024 23.1064 35.883C22.7926 35.7635 22.4835 35.7635 22.2083 35.8795C21.9332 35.9954 21.7013 36.2272 21.6206 36.5012C21.5398 36.7752 21.617 37.0843 21.8887 37.3208C23.8389 39.0188 27.3916 37.7165 27.9372 37.2892C28.5406 36.8165 28.4875 35.8455 28.333 35.1828C28.2611 34.8745 27.8693 34.7519 27.5169 34.6723C27.1645 34.5927 26.7781 34.5927 26.6177 34.7473C26.4573 34.9018 26.5346 35.2109 26.7289 35.4474C27.1337 35.9399 28.169 35.9977 29.2216 35.8818C29.6685 35.8326 29.8878 35.5341 30.0459 35.2601C30.204 34.9861 30.2812 34.677 30.2438 34.3632C30.2063 34.0494 30.0518 33.7403 29.7017 33.5811C29.3516 33.4219 28.8107 33.4219 28.6866 33.4219C28.5625 33.4219 28.8716 33.4219 29.8925 33.656" stroke="#FFF200" stroke-width="3.15" stroke-linecap="round"/>
<path d="M2.26121 33.4219C2.10666 33.4219 1.87249 33.731 1.63832 34.3539C1.5244 34.6569 1.5587 34.9768 1.75189 35.1746C1.94507 35.3725 2.33145 35.4498 2.87823 35.4896C3.42501 35.5294 4.12049 35.5294 4.60288 34.8269" stroke="#FFF200" stroke-width="3.15" stroke-linecap="round"/>
<path d="M16.7795 1.5752C16.6249 1.5752 16.0044 1.5752 15.0689 1.72975C14.6508 1.79882 14.4425 2.1934 14.3231 2.73901C14.04 4.03216 14.3582 5.16264 14.7469 5.66961C15.1175 6.15288 16.0723 6.02438 16.8907 5.86983C17.6254 5.73108 17.948 4.85588 18.3379 4.35008C18.7218 3.85208 18.6528 2.98488 18.4983 2.24374C18.3791 1.67223 17.4071 1.73209 16.8228 1.76956C16.5477 1.8843 16.3159 2.1934 16.1964 2.6231C16.077 3.0528 16.077 3.59372 16.3112 4.61937" stroke="#FFF200" stroke-width="3.15" stroke-linecap="round"/>
</svg>
