<svg width="37" height="49" viewBox="0 0 37 49" fill="none" xmlns="http://www.w3.org/2000/svg">
<path d="M16.3588 5.74902C15.8332 7.69654 13.7368 11.8924 12.429 14.1899C11.8498 15.2073 11.3998 16.0883 10.5566 17.408C9.82918 18.5467 9.23693 20.148 8.6028 21.6039C7.98534 23.0215 7.75808 24.5307 7.23003 25.8006C6.86384 26.6812 6.4914 28.1693 5.98947 29.8896C5.66867 30.9891 5.75039 33.6477 5.93406 35.5382C6.06005 36.835 6.85557 37.834 7.75254 39.468C8.35395 40.5636 9.7531 41.3174 10.9454 42.0054C11.9694 42.5963 13.1351 42.7994 15.8435 43.0623C19.7683 43.4432 20.8397 42.9578 21.8966 42.8002C22.912 42.6488 23.7436 42.3782 24.7989 41.9832C26.1615 41.4731 26.8058 40.4276 27.5713 39.6098C28.4199 38.7033 28.6013 37.473 28.9718 36.6275C29.3171 35.8396 29.4468 34.7307 29.5268 33.7775C29.612 32.762 29.9218 31.6146 29.9495 25.5916C29.9595 23.424 29.45 22.5895 28.9219 21.3498C28.4928 20.3423 27.9205 19.0555 27.2863 17.8134C26.7154 16.695 26.1249 15.7811 25.5446 14.8042C25.0152 13.9129 24.1743 12.9343 23.434 11.9011C22.6809 10.85 21.9576 10.0811 21.2174 9.34085C20.2666 8.39005 19.4242 7.75671 18.7362 7.045C18.4123 6.70984 18.1021 6.38395 17.734 6.14645C17.5438 6.02378 17.2613 6.06569 17.1006 6.19632C16.3049 6.84311 16.6755 10.5244 16.5441 12.7641C16.4234 14.8215 16.0422 17.6685 15.8585 19.0705C15.6646 20.5507 15.4088 21.6839 14.7517 25.5781C14.441 27.4195 14.1453 29.6449 13.6949 32.2876C13.6042 32.8194 13.5626 33.1346 14.3717 32.0683C15.1808 31.0019 16.8528 28.5461 18.1844 26.3666C19.516 24.1871 20.4565 22.3584 21.0717 21.5992C21.6868 20.8399 21.9481 21.2057 22.1349 21.6815C22.5334 22.6963 22.5862 24.7872 22.6131 27.5003C22.6568 31.912 21.0566 34.3522 20.9775 34.513C20.2756 35.9377 22.3154 30.7248 23.7167 29.8698C23.9709 29.7147 24.2186 29.8159 24.4569 29.9727C25.0301 30.3497 25.3301 30.975 25.4884 31.6051C25.5919 32.0169 25.5423 32.6533 25.4639 33.0547C25.3478 33.6491 22.8727 33.7743 20.6917 34.247C19.4588 34.5141 18.6864 35.8802 18.2589 36.7273C18.3095 36.8872 18.5185 36.9917 18.7307 37.1239C18.9429 37.2561 19.1519 37.4129 19.3672 37.5744" stroke="#C8E1FF" stroke-width="11.495" stroke-linecap="round"/>
<path d="M27.374 20.436C27.5934 21.5359 27.945 22.3264 28.3859 22.9675C28.8108 23.5854 29.1348 24.3542 29.5756 25.082C30.0203 25.816 30.1923 26.6015 30.3919 27.3729C30.5293 27.9038 30.458 28.4099 30.5241 29.7431C30.8051 35.4102 30.0628 36.1194 29.8645 36.8253C29.6537 37.5757 29.1824 38.2345 28.8294 38.9404C28.4842 39.6308 27.9926 40.2174 27.4863 40.7699C26.8029 41.1454 26.2741 41.3661 25.8352 41.4322C25.5709 41.4547 25.2219 41.4547 24.8623 41.4547" stroke="#C8E1FF" stroke-width="11.495" stroke-linecap="round"/>
<path d="M24.7305 15.6772C25.2143 16.1161 25.7404 17.0811 26.3148 18.0534C26.7971 18.8698 27.0201 19.5954 27.4827 20.1916C27.9485 20.7918 28.0776 21.5783 28.299 22.2842C28.5246 23.0033 29.0029 23.6934 29.4656 24.2896C29.9437 24.9056 30.1054 25.6763 30.3698 26.3822C30.6345 27.089 30.6342 27.9236 30.6573 31.8332C30.6661 33.3144 30.1081 34.0917 29.6672 34.8426C29.2973 35.4727 28.6566 36.2068 28.0155 36.8704C27.6863 36.9603 27.2448 37.0475 26.7173 37.2015C26.4516 37.2683 26.1899 37.3119 25.9202 37.3569" stroke="#C8E1FF" stroke-width="11.495" stroke-linecap="round"/>
<path d="M21.083 16.7637L21.653 16.9509" stroke="#0D0D0D" stroke-width="2.5" stroke-linecap="round"/>
<path d="M14.1182 17.9507L14.6882 17.7635" stroke="#0D0D0D" stroke-width="2.5" stroke-linecap="round"/>
<path d="M14.7539 24.8748C15.2122 24.7498 16.0734 24.4145 17.2183 23.9729C18.134 23.7397 19.0627 23.5294 20.1956 23.2772C20.8076 23.1708 21.4952 23.1083 22.2035 23.0439" stroke="#0D0D0D" stroke-width="2" stroke-linecap="round"/>
<path d="M31.2462 16.0878C29.8297 16.1954 26.9481 16.8379 26.3312 17.4079C25.6043 18.0795 25.729 18.9249 25.8541 19.7888C25.9135 20.1986 26.3347 20.399 26.6907 20.5821C27.5184 21.0079 30.0332 20.6035 31.8648 20.1972C32.5962 20.035 33.1996 19.6076 33.597 19.2768C33.93 18.9996 34.062 18.6198 34.1051 18.1242C34.1713 17.3634 33.7944 16.7538 33.444 16.4818C32.9144 16.1944 32.4902 16.1782 32.1151 16.1199C31.8857 16.1129 31.5772 16.1517 31.2592 16.1917" stroke="#FCA7A7" stroke-width="2.4576" stroke-linecap="round"/>
<path d="M27.0773 17.9904C27.0847 18.0485 27.1254 18.8412 27.2195 19.8297C27.2357 20.0006 27.6484 18.9953 28.0218 18.5298C28.4465 18.0001 28.4291 19.7262 28.5943 19.7528C28.8382 19.792 29.1039 18.9981 29.3196 18.7858C29.5352 18.5736 29.6153 18.7406 29.6748 18.9719C29.7344 19.2032 29.7709 19.4937 29.8314 19.5054C30.6229 19.6573 30.4991 18.1875 30.7518 17.9464C30.867 17.8365 30.9884 18.5078 31.113 18.9111C31.2196 19.2565 31.4394 18.0691 31.5704 17.6957C31.6412 17.4939 31.8176 17.3077 31.9491 17.6279C32.0807 17.9481 32.1868 18.7907 32.2485 19.0468C32.3103 19.3028 32.3245 18.9469 32.3662 18.6854C32.408 18.4239 32.4769 18.2676 32.6359 18.0955" stroke="#FCA7A7" stroke-width="2.4576" stroke-linecap="round"/>
<path d="M6.71785 20.5693C5.30134 20.6769 2.41974 21.3193 1.80285 21.8894C1.076 22.561 1.2007 23.4063 1.32582 24.2702C1.38517 24.68 1.80633 24.8804 2.16237 25.0636C2.99008 25.4893 5.50485 25.085 7.33651 24.6787C8.06786 24.5164 8.67123 24.089 9.06863 23.7582C9.40168 23.481 9.53367 23.1013 9.57681 22.6056C9.64302 21.8448 9.26603 21.2353 8.9157 20.9633C8.38613 20.6759 7.96192 20.6596 7.58677 20.6013C7.3574 20.5943 7.04884 20.6331 6.73093 20.6732" stroke="#FCA7A7" stroke-width="2.4576" stroke-linecap="round"/>
<path d="M2.54902 22.4718C2.55633 22.5299 2.5971 23.3226 2.69114 24.3112C2.7074 24.482 3.12006 23.4768 3.49344 23.0112C3.91822 22.4815 3.90076 24.2076 4.06599 24.2342C4.30986 24.2735 4.5756 23.4796 4.79126 23.2673C5.00692 23.055 5.08698 23.222 5.14651 23.4533C5.20604 23.6846 5.24262 23.9752 5.30311 23.9868C6.09456 24.1388 5.97078 22.6689 6.2235 22.4278C6.33866 22.3179 6.4601 22.9892 6.58466 23.3926C6.69132 23.7379 6.9111 22.5505 7.04208 22.1772C7.11288 21.9754 7.28928 21.7892 7.42082 22.1094C7.55236 22.4296 7.65844 23.2721 7.72019 23.5282C7.78194 23.7843 7.79616 23.4283 7.83792 23.1668C7.87968 22.9053 7.94856 22.7491 8.10757 22.577" stroke="#FCA7A7" stroke-width="2.4576" stroke-linecap="round"/>
</svg>
