<svg width="42" height="49" viewBox="0 0 42 49" fill="none" xmlns="http://www.w3.org/2000/svg">
<path d="M18.7573 5.74902C18.2316 7.69654 16.1352 11.8924 14.8274 14.1899C14.2482 15.2073 13.7982 16.0883 12.9551 17.408C12.2276 18.5467 11.6354 20.148 11.0012 21.6039C10.3838 23.0215 10.1565 24.5307 9.62847 25.8006C9.26228 26.6812 8.88984 28.1693 8.38791 29.8896C8.06711 30.9891 8.14883 33.6477 8.3325 35.5382C8.45848 36.835 9.25401 37.834 10.151 39.468C10.7524 40.5636 12.1515 41.3174 13.3438 42.0054C14.3678 42.5963 15.5336 42.7994 18.2419 43.0623C22.1668 43.4432 23.2382 42.9578 24.295 42.8002C25.3105 42.6488 26.142 42.3782 27.1973 41.9832C28.56 41.4731 29.2042 40.4276 29.9698 39.6098C30.8184 38.7033 30.9997 37.473 31.3702 36.6275C31.7155 35.8396 31.8453 34.7307 31.9252 33.7775C32.0104 32.762 32.3203 31.6146 32.348 25.5916C32.3579 23.424 31.8484 22.5895 31.3204 21.3498C30.8913 20.3423 30.3189 19.0555 29.6848 17.8134C29.1138 16.695 28.5234 15.7811 27.9431 14.8042C27.4136 13.9129 26.5727 12.9343 25.8325 11.9011C25.0793 10.85 24.356 10.0811 23.6158 9.34085C22.665 8.39005 21.8226 7.75671 21.1347 7.045C20.8107 6.70984 20.5005 6.38395 20.1324 6.14645C19.9423 6.02378 19.6598 6.06569 19.4991 6.19632C18.7033 6.84311 19.0739 10.5244 18.9425 12.7641C18.8218 14.8215 18.4406 17.6685 18.2569 19.0705C18.063 20.5507 17.8073 21.6839 17.1502 25.5781C16.8395 27.4195 16.5437 29.6449 16.0933 32.2876C16.0026 32.8194 15.9611 33.1346 16.7702 32.0683C17.5793 31.0019 19.2513 28.5461 20.5829 26.3666C21.9145 24.1871 22.855 22.3584 23.4701 21.5992C24.0853 20.8399 24.3465 21.2057 24.5333 21.6815C24.9318 22.6963 24.9846 24.7872 25.0115 27.5003C25.0553 31.912 23.4551 34.3522 23.3759 34.513C22.6741 35.9377 24.7138 30.7248 26.1151 29.8698C26.3693 29.7147 26.617 29.8159 26.8553 29.9727C27.4285 30.3497 27.7285 30.975 27.8869 31.6051C27.9903 32.0169 27.9407 32.6533 27.8623 33.0547C27.7463 33.6491 25.2712 33.7743 23.0901 34.247C21.8572 34.5141 21.0848 35.8802 20.6573 36.7273C20.708 36.8872 20.917 36.9917 21.1291 37.1239C21.3413 37.2561 21.5503 37.4129 21.7656 37.5744" stroke="#C8E1FF" stroke-width="11.495" stroke-linecap="round"/>
<path d="M29.7724 20.436C29.9918 21.5359 30.3435 22.3264 30.7843 22.9675C31.2092 23.5854 31.5332 24.3542 31.9741 25.082C32.4188 25.816 32.5908 26.6015 32.7904 27.3729C32.9278 27.9038 32.8565 28.4099 32.9226 29.7431C33.2035 35.4102 32.4612 36.1194 32.2629 36.8253C32.0521 37.5757 31.5808 38.2345 31.2279 38.9404C30.8826 39.6308 30.3911 40.2174 29.8848 40.7699C29.2013 41.1454 28.6726 41.3661 28.2337 41.4322C27.9693 41.4547 27.6203 41.4547 27.2607 41.4547" stroke="#C8E1FF" stroke-width="11.495" stroke-linecap="round"/>
<path d="M27.1289 15.6772C27.6127 16.1161 28.1389 17.0811 28.7132 18.0534C29.1955 18.8698 29.4185 19.5954 29.8812 20.1916C30.3469 20.7918 30.476 21.5783 30.6975 22.2842C30.923 23.0033 31.4014 23.6934 31.8641 24.2896C32.3421 24.9056 32.5039 25.6763 32.7683 26.3822C33.033 27.089 33.0326 27.9236 33.0558 31.8332C33.0645 33.3144 32.5065 34.0917 32.0657 34.8426C31.6957 35.4727 31.055 36.2068 30.4139 36.8704C30.0847 36.9603 29.6432 37.0475 29.1158 37.2015C28.8501 37.2683 28.5883 37.3119 28.3186 37.3569" stroke="#C8E1FF" stroke-width="11.495" stroke-linecap="round"/>
<path d="M23.4814 16.7637L24.0515 16.9509" stroke="#0D0D0D" stroke-width="2.5" stroke-linecap="round"/>
<path d="M16.5166 17.9507L17.0866 17.7635" stroke="#0D0D0D" stroke-width="2.5" stroke-linecap="round"/>
<path d="M17.1523 24.8748C17.6107 24.7498 18.4718 24.4145 19.6167 23.9729C20.5324 23.7397 21.4611 23.5294 22.594 23.2772C23.2061 23.1708 23.8936 23.1083 24.6019 23.0439" stroke="#0D0D0D" stroke-width="2" stroke-linecap="round"/>
<path d="M34.3281 16.0865C34.2072 16.4481 34.0725 16.7308 33.9185 16.9693C33.8369 17.1113 33.7484 17.2962 33.6725 17.4818C33.5967 17.6674 33.5363 17.8482 33.2424 18.2413" stroke="#FCA8A8" stroke-width="1.4" stroke-linecap="round"/>
<path d="M1.7861 23.0958C1.66523 23.4574 1.53055 23.7401 1.37654 23.9786C1.29495 24.1206 1.20638 24.3054 1.13054 24.491C1.0547 24.6767 0.994268 24.8575 0.70044 25.2506" stroke="#FCA8A8" stroke-width="1.4" stroke-linecap="round"/>
<path d="M37.6171 15.3587C37.4024 15.8807 37.0214 16.4559 36.7297 16.9618C36.6743 17.0862 36.634 17.2068 36.579 17.3311C36.524 17.4555 36.4556 17.58 36.312 17.8057" stroke="#FCA8A8" stroke-width="1.4" stroke-linecap="round"/>
<path d="M5.0751 22.3675C4.86045 22.8895 4.47939 23.4647 4.18766 23.9706C4.13227 24.095 4.09198 24.2156 4.03702 24.3399C3.98205 24.4643 3.91363 24.5888 3.76998 24.8145" stroke="#FCA8A8" stroke-width="1.4" stroke-linecap="round"/>
<path d="M41.2344 15.1057C41.2424 15.162 41.1861 15.3718 41.0482 15.7241C40.8783 16.0523 40.7426 16.3342 40.6474 16.5791C40.5924 16.7035 40.524 16.828 40.3924 17.139" stroke="#FCA8A8" stroke-width="1.4" stroke-linecap="round"/>
<path d="M8.69339 22.1145C8.70138 22.1708 8.64507 22.3806 8.50723 22.7329C8.33725 23.0611 8.20159 23.343 8.10634 23.5879C8.05137 23.7123 7.98295 23.8368 7.85141 24.1478" stroke="#FCA8A8" stroke-width="1.4" stroke-linecap="round"/>
</svg>
