<svg width="23" height="22" viewBox="0 0 23 22" fill="none" xmlns="http://www.w3.org/2000/svg">
<path d="M12.2729 6.77972C11.8925 6.67149 10.6954 6.45174 9.65241 6.80514C8.55973 7.17538 7.84855 8.36055 7.32789 9.29036C7.00093 9.87426 6.86135 11.2516 6.94252 12.9178C7.01249 14.3539 8.44218 14.9758 9.31787 15.3062C10.8538 15.8858 13.47 15.1463 14.3744 14.5986C15.2317 14.0794 15.1689 12.9063 15.1435 11.3771C15.1268 10.3735 13.8078 10.007 12.5796 9.62325C12.1334 9.48387 11.4661 9.5675 11.0504 9.67573C10.6347 9.78396 10.4723 10.0004 10.3887 10.2202C10.0734 11.0487 10.1952 11.7518 10.3854 12.1339C10.5215 12.2995 10.738 12.4078 10.9848 12.4635C11.2316 12.5193 11.5022 12.5193 11.781 12.5193" stroke="#FF6868" stroke-width="2.08" stroke-linecap="round"/>
<path d="M10.9609 1.04004V2.67991" stroke="#FF6868" stroke-width="2.08" stroke-linecap="round"/>
<path d="M3.91016 4.97559C3.96427 4.97559 4.01839 4.97559 4.1545 5.0297C4.2906 5.08382 4.50707 5.19205 4.69975 5.32898C4.89244 5.46591 5.05478 5.62826 5.71401 5.79552" stroke="#FF6868" stroke-width="2.08" stroke-linecap="round"/>
<path d="M18.5049 7.76337C18.6131 7.76337 18.7214 7.76337 18.8853 7.73632C19.0493 7.70926 19.2658 7.65514 19.4855 7.54609C19.7053 7.43704 19.9217 7.27469 20.3088 7.10742" stroke="#FF6868" stroke-width="2.08" stroke-linecap="round"/>
<path d="M15.5527 17.2749C15.6068 17.2749 15.661 17.2749 15.77 17.3561C15.8791 17.4372 16.0414 17.5996 16.1792 17.7915C16.3169 17.9833 16.4251 18.1998 16.7006 18.5868" stroke="#FF6868" stroke-width="2.08" stroke-linecap="round"/>
<path d="M1.04004 13.2572C1.14827 13.2572 1.2565 13.2572 1.4746 13.2572C1.6927 13.2572 2.0174 13.2572 2.29289 13.2302C2.56839 13.2031 2.78486 13.149 3.17187 13.0933" stroke="#FF6868" stroke-width="2.08" stroke-linecap="round"/>
<path d="M9.07496 18.5049C9.02085 18.6672 8.96673 18.8296 8.9118 19.0214C8.85686 19.2133 8.80275 19.4298 8.58301 19.9808" stroke="#FF6868" stroke-width="2.08" stroke-linecap="round"/>
<path d="M18.915 12.6011C19.0233 12.6011 19.1315 12.6011 19.3496 12.6552C19.5677 12.7093 19.8924 12.8175 20.222 12.9545C20.5516 13.0914 20.8763 13.2537 21.2109 13.421" stroke="#FF6868" stroke-width="2.08" stroke-linecap="round"/>
</svg>
