<svg width="63" height="14" viewBox="0 0 63 14" fill="none" xmlns="http://www.w3.org/2000/svg">
<path d="M4.45491 8.85419C4.04363 8.51727 3.44302 7.91892 2.56241 6.79435C1.83392 5.56385 1.3753 4.64887 1.31896 4.29336C1.2998 4.08659 1.2998 3.82629 1.2998 3.55811" stroke="#E0D0FF" stroke-width="2.6" stroke-linecap="round"/>
<path d="M14.8553 8.85419C14.444 8.51727 13.8434 7.91892 12.9628 6.79435C12.2343 5.56385 11.7757 4.64887 11.7194 4.29336C11.7002 4.08659 11.7002 3.82629 11.7002 3.55811" stroke="#FCA8A8" stroke-width="2.6" stroke-linecap="round"/>
<path d="M25.2547 8.85419C24.8434 8.51727 24.2428 7.91892 23.3622 6.79435C22.6337 5.56385 22.1751 4.64887 22.1188 4.29336C22.0996 4.08659 22.0996 3.82629 22.0996 3.55811" stroke="#FFF06C" stroke-width="2.6" stroke-linecap="round"/>
<path d="M1.2998 3.55811C1.74828 4.23195 2.72186 5.42864 3.3264 6.35376C3.43964 6.52391 3.5512 6.67265 3.66445 6.84224C3.77769 7.01183 3.88925 7.19775 4.00418 7.38931" stroke="#E0D0FF" stroke-width="2.6" stroke-linecap="round"/>
<path d="M11.7002 3.55811C12.1487 4.23195 13.1222 5.42864 13.7268 6.35376C13.84 6.52391 13.9516 6.67265 14.0648 6.84224C14.1781 7.01183 14.2896 7.19775 14.4046 7.38931" stroke="#FCA8A8" stroke-width="2.6" stroke-linecap="round"/>
<path d="M22.0996 3.55811C22.5481 4.23195 23.5217 5.42864 24.1262 6.35376C24.2394 6.52391 24.351 6.67265 24.4643 6.84224C24.5775 7.01183 24.6891 7.19775 24.804 7.38931" stroke="#FFF06C" stroke-width="2.6" stroke-linecap="round"/>
<path d="M3.44034 6.03729C3.29047 4.64904 3.21498 3.52897 3.36428 2.3413C3.42721 1.84074 3.74008 1.49392 3.96432 1.32433C4.085 1.23306 4.33729 1.41505 4.48942 1.56548C4.94128 2.61399 5.24327 5.45585 5.13114 6.93593C5.09339 7.12468 5.05621 7.3106 5.0179 7.84021" stroke="#E0D0FF" stroke-width="2.6" stroke-linecap="round"/>
<path d="M13.8407 6.03729C13.6909 4.64904 13.6154 3.52897 13.7647 2.3413C13.8276 1.84074 14.1405 1.49392 14.3647 1.32433C14.4854 1.23306 14.7377 1.41505 14.8898 1.56548C15.3417 2.61399 15.6437 5.45585 15.5315 6.93593C15.4938 7.12468 15.4566 7.3106 15.4183 7.84021" stroke="#FCA8A8" stroke-width="2.6" stroke-linecap="round"/>
<path d="M24.2411 6.03729C24.0913 4.64904 24.0158 3.52897 24.1651 2.3413C24.228 1.84074 24.5409 1.49392 24.7651 1.32433C24.8858 1.23306 25.1381 1.41505 25.2902 1.56548C25.7421 2.61399 26.044 5.45585 25.9319 6.93593C25.8942 7.12468 25.857 7.3106 25.8187 7.84021" stroke="#FFF06C" stroke-width="2.6" stroke-linecap="round"/>
<path d="M5.80711 4.23413C5.91867 3.56029 6.2939 2.95856 6.64941 2.7332C6.83566 2.61514 7.11648 2.65658 7.26917 2.73095C8.10123 3.13623 7.34861 4.98234 7.02915 5.71478C6.66922 6.54002 6.26009 7.12331 5.90233 7.70645C5.69668 7.95041 5.50737 8.21408 5.33891 8.49523C5.24483 8.62763 5.13327 8.73918 4.79297 8.9668" stroke="#E0D0FF" stroke-width="2.6" stroke-linecap="round"/>
<path d="M16.2075 4.23413C16.3191 3.56029 16.6943 2.95856 17.0498 2.7332C17.236 2.61514 17.5169 2.65658 17.6696 2.73095C18.5016 3.13623 17.749 4.98234 17.4295 5.71478C17.0696 6.54002 16.6605 7.12331 16.3027 7.70645C16.0971 7.95041 15.9078 8.21408 15.7393 8.49523C15.6452 8.62763 15.5337 8.73918 15.1934 8.9668" stroke="#FCA8A8" stroke-width="2.6" stroke-linecap="round"/>
<path d="M26.6069 4.23413C26.7185 3.56029 27.0937 2.95856 27.4492 2.7332C27.6355 2.61514 27.9163 2.65658 28.069 2.73095C28.901 3.13623 28.1484 4.98234 27.829 5.71478C27.469 6.54002 27.0599 7.12331 26.7021 7.70645C26.4965 7.95041 26.3072 8.21408 26.1387 8.49523C26.0446 8.62763 25.9331 8.73918 25.5928 8.9668" stroke="#FFF06C" stroke-width="2.6" stroke-linecap="round"/>
<path d="M4.79327 9.75598C3.02979 8.89283 2.35482 8.51873 1.79028 8.3097C1.67188 8.26586 1.6021 8.55028 1.58238 8.73902C1.56266 8.92777 1.59984 9.11369 1.67478 9.26525C2.16213 9.68049 2.76273 9.79317 3.43545 9.84951C3.88505 9.86867 4.55439 9.86867 5.244 9.86867" stroke="#AFECB2" stroke-width="2.6" stroke-linecap="round"/>
<path d="M15.1927 9.75598C13.4292 8.89283 12.7542 8.51873 12.1897 8.3097C12.0713 8.26586 12.0015 8.55028 11.9818 8.73902C11.9621 8.92777 11.9993 9.11369 12.0742 9.26525C12.5615 9.68049 13.1621 9.79317 13.8349 9.84951C14.2845 9.86867 14.9538 9.86867 15.6434 9.86867" stroke="#AFECB2" stroke-width="2.6" stroke-linecap="round"/>
<path d="M25.5931 9.75598C23.8296 8.89283 23.1546 8.51873 22.5901 8.3097C22.4717 8.26586 22.4019 8.55028 22.3822 8.73902C22.3625 8.92777 22.3996 9.11369 22.4746 9.26525C22.9619 9.68049 23.5625 9.79317 24.2353 9.84951C24.6849 9.86867 25.3542 9.86867 26.0438 9.86867" stroke="#AFECB2" stroke-width="2.6" stroke-linecap="round"/>
<path d="M5.80664 9.75578C5.84383 9.11912 6.14243 8.51852 6.51879 7.9737C6.72203 7.6795 7.08221 7.54043 7.34475 7.50212C7.60574 7.46404 7.60956 8.10047 7.57238 8.56923C7.23545 9.19123 6.82191 9.52928 6.57851 9.73549C6.44667 9.83015 6.29793 9.90452 6.032 10.0938" stroke="#AFECB2" stroke-width="2.6" stroke-linecap="round"/>
<path d="M16.207 9.75578C16.2442 9.11912 16.5428 8.51852 16.9192 7.9737C17.1224 7.6795 17.4826 7.54043 17.7451 7.50212C18.0061 7.46404 18.01 8.10047 17.9728 8.56923C17.6358 9.19123 17.2223 9.52928 16.9789 9.73549C16.8471 9.83015 16.6983 9.90452 16.4324 10.0938" stroke="#AFECB2" stroke-width="2.6" stroke-linecap="round"/>
<path d="M26.6074 9.75578C26.6446 9.11912 26.9432 8.51852 27.3196 7.9737C27.5228 7.6795 27.883 7.54043 28.1455 7.50212C28.4065 7.46404 28.4103 8.10047 28.3732 8.56923C28.0362 9.19123 27.6227 9.52928 27.3793 9.73549C27.2475 9.83015 27.0987 9.90452 26.8328 10.0938" stroke="#AFECB2" stroke-width="2.6" stroke-linecap="round"/>
<path d="M5.01855 10.4321C5.13011 10.5065 5.24167 10.5809 5.31773 10.6936C5.39379 10.8062 5.43098 10.955 5.45013 11.2919C5.46929 11.6288 5.46929 12.1494 5.69465 12.6858" stroke="#AFECB2" stroke-width="1.3" stroke-linecap="round"/>
<path d="M15.418 10.4321C15.5295 10.5065 15.6411 10.5809 15.7171 10.6936C15.7932 10.8062 15.8304 10.955 15.8495 11.2919C15.8687 11.6288 15.8687 12.1494 16.0941 12.6858" stroke="#AFECB2" stroke-width="1.3" stroke-linecap="round"/>
<path d="M25.8184 10.4321C25.9299 10.5065 26.0415 10.5809 26.1175 10.6936C26.1936 10.8062 26.2308 10.955 26.2499 11.2919C26.2691 11.6288 26.2691 12.1494 26.4945 12.6858" stroke="#AFECB2" stroke-width="1.3" stroke-linecap="round"/>
<path d="M36.9549 8.85419C36.5436 8.51727 35.943 7.91892 35.0624 6.79435C34.3339 5.56385 33.8753 4.64887 33.819 4.29336C33.7998 4.08659 33.7998 3.82629 33.7998 3.55811" stroke="#E0D0FF" stroke-width="2.6" stroke-linecap="round"/>
<path d="M47.3553 8.85419C46.944 8.51727 46.3434 7.91892 45.4628 6.79435C44.7343 5.56385 44.2757 4.64887 44.2194 4.29336C44.2002 4.08659 44.2002 3.82629 44.2002 3.55811" stroke="#FCA8A8" stroke-width="2.6" stroke-linecap="round"/>
<path d="M57.7547 8.85419C57.3434 8.51727 56.7428 7.91892 55.8622 6.79435C55.1337 5.56385 54.6751 4.64887 54.6188 4.29336C54.5996 4.08659 54.5996 3.82629 54.5996 3.55811" stroke="#FFF06C" stroke-width="2.6" stroke-linecap="round"/>
<path d="M33.7998 3.55811C34.2483 4.23195 35.2219 5.42864 35.8264 6.35376C35.9396 6.52391 36.0512 6.67265 36.1644 6.84224C36.2777 7.01183 36.3892 7.19775 36.5042 7.38931" stroke="#E0D0FF" stroke-width="2.6" stroke-linecap="round"/>
<path d="M44.2002 3.55811C44.6487 4.23195 45.6222 5.42864 46.2268 6.35376C46.34 6.52391 46.4516 6.67265 46.5648 6.84224C46.6781 7.01183 46.7896 7.19775 46.9046 7.38931" stroke="#FCA8A8" stroke-width="2.6" stroke-linecap="round"/>
<path d="M54.5996 3.55811C55.0481 4.23195 56.0217 5.42864 56.6262 6.35376C56.7394 6.52391 56.851 6.67265 56.9643 6.84224C57.0775 7.01183 57.1891 7.19775 57.304 7.38931" stroke="#FFF06C" stroke-width="2.6" stroke-linecap="round"/>
<path d="M35.9403 6.03729C35.7905 4.64904 35.715 3.52897 35.8643 2.3413C35.9272 1.84074 36.2401 1.49392 36.4643 1.32433C36.585 1.23306 36.8373 1.41505 36.9894 1.56548C37.4413 2.61399 37.7433 5.45585 37.6311 6.93593C37.5934 7.12468 37.5562 7.3106 37.5179 7.84021" stroke="#E0D0FF" stroke-width="2.6" stroke-linecap="round"/>
<path d="M46.3407 6.03729C46.1909 4.64904 46.1154 3.52897 46.2647 2.3413C46.3276 1.84074 46.6405 1.49392 46.8647 1.32433C46.9854 1.23306 47.2377 1.41505 47.3898 1.56548C47.8417 2.61399 48.1437 5.45585 48.0315 6.93593C47.9938 7.12468 47.9566 7.3106 47.9183 7.84021" stroke="#FCA8A8" stroke-width="2.6" stroke-linecap="round"/>
<path d="M56.7411 6.03729C56.5913 4.64904 56.5158 3.52897 56.6651 2.3413C56.728 1.84074 57.0409 1.49392 57.2651 1.32433C57.3858 1.23306 57.6381 1.41505 57.7902 1.56548C58.2421 2.61399 58.544 5.45585 58.4319 6.93593C58.3942 7.12468 58.357 7.3106 58.3187 7.84021" stroke="#FFF06C" stroke-width="2.6" stroke-linecap="round"/>
<path d="M38.3071 4.23413C38.4187 3.56029 38.7939 2.95856 39.1494 2.7332C39.3357 2.61514 39.6165 2.65658 39.7692 2.73095C40.6012 3.13623 39.8486 4.98234 39.5292 5.71478C39.1692 6.54002 38.7601 7.12331 38.4023 7.70645C38.1967 7.95041 38.0074 8.21408 37.8389 8.49523C37.7448 8.62763 37.6333 8.73918 37.293 8.9668" stroke="#E0D0FF" stroke-width="2.6" stroke-linecap="round"/>
<path d="M48.7075 4.23413C48.8191 3.56029 49.1943 2.95856 49.5498 2.7332C49.736 2.61514 50.0169 2.65658 50.1696 2.73095C51.0016 3.13623 50.249 4.98234 49.9295 5.71478C49.5696 6.54002 49.1605 7.12331 48.8027 7.70645C48.5971 7.95041 48.4078 8.21408 48.2393 8.49523C48.1452 8.62763 48.0337 8.73918 47.6934 8.9668" stroke="#FCA8A8" stroke-width="2.6" stroke-linecap="round"/>
<path d="M59.1069 4.23413C59.2185 3.56029 59.5937 2.95856 59.9492 2.7332C60.1355 2.61514 60.4163 2.65658 60.569 2.73095C61.401 3.13623 60.6484 4.98234 60.329 5.71478C59.969 6.54002 59.5599 7.12331 59.2021 7.70645C58.9965 7.95041 58.8072 8.21408 58.6387 8.49523C58.5446 8.62763 58.4331 8.73918 58.0928 8.9668" stroke="#FFF06C" stroke-width="2.6" stroke-linecap="round"/>
<path d="M37.2933 9.75598C35.5298 8.89283 34.8548 8.51873 34.2903 8.3097C34.1719 8.26586 34.1021 8.55028 34.0824 8.73902C34.0627 8.92777 34.0998 9.11369 34.1748 9.26525C34.6621 9.68049 35.2627 9.79317 35.9354 9.84951C36.385 9.86867 37.0544 9.86867 37.744 9.86867" stroke="#AFECB2" stroke-width="2.6" stroke-linecap="round"/>
<path d="M47.6927 9.75598C45.9292 8.89283 45.2542 8.51873 44.6897 8.3097C44.5713 8.26586 44.5015 8.55028 44.4818 8.73902C44.4621 8.92777 44.4993 9.11369 44.5742 9.26525C45.0615 9.68049 45.6621 9.79317 46.3349 9.84951C46.7845 9.86867 47.4538 9.86867 48.1434 9.86867" stroke="#AFECB2" stroke-width="2.6" stroke-linecap="round"/>
<path d="M58.0931 9.75598C56.3296 8.89283 55.6546 8.51873 55.0901 8.3097C54.9717 8.26586 54.9019 8.55028 54.8822 8.73902C54.8625 8.92777 54.8996 9.11369 54.9746 9.26525C55.4619 9.68049 56.0625 9.79317 56.7353 9.84951C57.1849 9.86867 57.8542 9.86867 58.5438 9.86867" stroke="#AFECB2" stroke-width="2.6" stroke-linecap="round"/>
<path d="M38.3066 9.75578C38.3438 9.11912 38.6424 8.51852 39.0188 7.9737C39.222 7.6795 39.5822 7.54043 39.8448 7.50212C40.1057 7.46404 40.1096 8.10047 40.0724 8.56923C39.7355 9.19123 39.3219 9.52928 39.0785 9.73549C38.9467 9.83015 38.7979 9.90452 38.532 10.0938" stroke="#AFECB2" stroke-width="2.6" stroke-linecap="round"/>
<path d="M48.707 9.75578C48.7442 9.11912 49.0428 8.51852 49.4192 7.9737C49.6224 7.6795 49.9826 7.54043 50.2451 7.50212C50.5061 7.46404 50.51 8.10047 50.4728 8.56923C50.1358 9.19123 49.7223 9.52928 49.4789 9.73549C49.3471 9.83015 49.1983 9.90452 48.9324 10.0938" stroke="#AFECB2" stroke-width="2.6" stroke-linecap="round"/>
<path d="M59.1074 9.75578C59.1446 9.11912 59.4432 8.51852 59.8196 7.9737C60.0228 7.6795 60.383 7.54043 60.6455 7.50212C60.9065 7.46404 60.9103 8.10047 60.8732 8.56923C60.5362 9.19123 60.1227 9.52928 59.8793 9.73549C59.7475 9.83015 59.5987 9.90452 59.3328 10.0938" stroke="#AFECB2" stroke-width="2.6" stroke-linecap="round"/>
<path d="M37.5186 10.4321C37.6301 10.5065 37.7417 10.5809 37.8177 10.6936C37.8938 10.8062 37.931 10.955 37.9501 11.2919C37.9693 11.6288 37.9693 12.1494 38.1946 12.6858" stroke="#AFECB2" stroke-width="1.3" stroke-linecap="round"/>
<path d="M47.918 10.4321C48.0295 10.5065 48.1411 10.5809 48.2171 10.6936C48.2932 10.8062 48.3304 10.955 48.3495 11.2919C48.3687 11.6288 48.3687 12.1494 48.5941 12.6858" stroke="#AFECB2" stroke-width="1.3" stroke-linecap="round"/>
<path d="M58.3184 10.4321C58.4299 10.5065 58.5415 10.5809 58.6175 10.6936C58.6936 10.8062 58.7308 10.955 58.7499 11.2919C58.7691 11.6288 58.7691 12.1494 58.9945 12.6858" stroke="#AFECB2" stroke-width="1.3" stroke-linecap="round"/>
</svg>
