<svg width="84" height="68" viewBox="0 0 84 68" fill="none" xmlns="http://www.w3.org/2000/svg">
<path d="M16.1832 2.29639C11.6812 3.38899 9.01364 5.32937 6.50686 8.01155C5.22424 10.0871 4.12798 11.6694 3.39898 12.8844C3.03173 13.4965 2.66996 14.0994 1.56641 15.8169" stroke="#1A1A1A" stroke-width="2.4" stroke-linecap="round"/>
<path d="M1.2002 7.04688C1.2002 7.28805 1.2002 7.52923 1.86343 8.4373C2.52667 9.34536 3.85314 10.913 5.95063 12.8936" stroke="#1A1A1A" stroke-width="2.4" stroke-linecap="round"/>
<path d="M9.9707 1.2002C10.2119 1.80314 10.4531 2.40608 10.8185 3.25933C11.1839 4.11259 11.6663 5.19789 12.0956 5.99816C12.525 6.79842 12.8868 7.28077 13.9903 7.77774" stroke="#1A1A1A" stroke-width="2.4" stroke-linecap="round"/>
<path d="M76.7504 44.4004C76.7504 44.6416 76.7504 48.8658 76.3887 56.0426C76.0269 59.1195 75.3034 61.0489 74.6292 62.5252C73.955 64.0015 73.352 64.9662 72 66.691" stroke="#1A1A1A" stroke-width="2.4" stroke-linecap="round"/>
<path d="M73.8271 50.9777C74.3095 50.9777 75.7639 50.9777 77.8924 50.9174C78.8151 50.8571 79.4181 50.7366 80.0904 50.6744C80.7628 50.6123 81.4863 50.6123 82.2318 50.6123" stroke="#1A1A1A" stroke-width="2.4" stroke-linecap="round"/>
<path d="M72.7314 58.6514C73.8167 59.0131 74.902 59.3749 75.7023 59.6818C76.5026 59.9888 76.9849 60.23 77.4746 60.4145C77.9643 60.599 78.4466 60.7196 79.309 60.8439" stroke="#1A1A1A" stroke-width="2.4" stroke-linecap="round"/>
</svg>
