<svg width="74" height="75" viewBox="0 0 74 75" fill="none" xmlns="http://www.w3.org/2000/svg">
<path d="M4.83183 1.025C5.77316 1.33204 7.09445 2.7742 8.37179 5.5624C8.94171 6.80643 8.80135 8.56149 8.661 10.3169C8.48883 12.4703 4.10597 14.2433 0.867982 15.5987C-0.396769 16.128 6.49902 16.8423 9.55129 16.174C11.3043 15.7901 12.6688 13.133 13.2897 10.3944C14.3512 5.71303 12.3002 3.92794 11.0753 2.32294C10.3211 1.65148 9.56123 1.13044 8.24562 0.820293C7.30428 0.714844 5.8072 0.714844 4.26476 0.714844" stroke="#FFF200" stroke-width="1.43" stroke-linecap="round"/>
<path d="M7.33033 1.42969C8.63117 2.22667 9.61659 2.97295 10.7415 4.05436C11.459 4.74408 11.4634 6.02287 11.487 8.32087C11.4983 9.41877 11.1507 10.25 9.44944 12.1938C8.53106 13.2432 7.91806 13.7251 7.19822 14.2179C6.46583 14.7194 5.44847 15.0403 4.39093 15.3451C4.14236 15.4168 3.91979 15.4627 3.91642 15.4866C3.79091 16.3781 6.02273 14.5756 7.28045 13.9638C8.35921 13.439 9.12321 12.1396 9.73252 11.0314C10.139 10.2921 10.1612 8.67008 10.0493 7.44082C9.93366 6.17018 9.44404 4.85979 9.19601 3.96777C9.0636 3.49158 8.77002 3.07434 8.72284 3.04829C7.9603 2.62727 9.97921 4.38527 10.3829 4.87528C10.9861 5.60738 10.8352 6.68327 10.7685 7.3155C10.6504 8.43441 9.75948 9.16854 8.66016 10.4837C7.997 11.2771 7.55679 11.9397 6.61519 13.0422C6.24297 13.478 5.93915 13.8195 5.78075 14.0307C4.99073 15.0841 8.8563 13.3984 8.74778 13.5843C8.5722 13.885 7.70508 14.1419 7.40446 14.3102C7.25528 14.3937 7.95446 14.1982 8.56243 14.056C8.68516 14.0273 8.41414 14.3785 8.36561 14.4989C8.31709 14.6193 8.49503 14.5728 8.51996 14.6185C8.82589 15.1799 7.24405 15.5078 6.81267 15.6289C5.01828 16.1326 8.94662 14.011 9.12658 13.7983C9.61674 13.2192 8.9938 15.1332 8.94796 15.2057C8.64229 15.6894 9.53032 13.9645 9.82217 13.6582C10 13.4716 10.0264 14.3813 10.0931 14.6411C10.3658 15.7027 11.059 12.8845 11.2383 12.6254C11.3761 12.4262 11.5092 13.1619 11.5092 13.3506C11.5092 14.0105 12.3127 11.016 12.7218 9.88104C13.1039 8.82116 12.6793 7.16061 12.1853 6.36081C11.6779 5.53949 11.1075 4.81192 10.6573 4.06141C10.0543 3.05638 9.62333 2.5111 9.62131 2.32242C9.60741 1.02319 11.4607 3.53901 12.0464 4.10294C12.6351 4.66969 12.8559 5.37093 12.769 5.44274C11.3436 6.61996 10.3445 3.82626 9.9145 3.33131C9.27361 2.59367 11.3259 5.31883 11.8671 6.58822C12.4376 7.92626 11.7815 10.0134 10.7496 11.9587C10.4654 12.4944 10.2556 13.0126 10.1632 13.0901C9.33401 13.7855 10.7894 10.5879 11.059 8.94747C11.478 6.39811 10.7031 5.3301 10.0513 4.43667C9.90541 4.23664 9.75948 4.10788 9.73522 3.94313C9.71095 3.77838 9.79993 3.59251 9.93473 3.49676C10.2042 3.30534 10.9646 4.09801 11.8402 5.31672C12.4043 6.10191 12.4529 6.96348 12.3194 7.96956C12.0397 10.078 10.9727 10.6724 10.2987 11.4011C9.63916 12.1141 8.54894 12.6437 7.71518 13.045C6.77972 13.4953 5.98768 14.2405 4.95239 14.6411C4.14222 14.8995 3.51269 15.0881 3.15411 15.1114C2.97348 15.1346 2.79554 15.1811 2.8818 15.3698" stroke="#FFF200" stroke-width="1.43" stroke-linecap="round"/>
<path d="M63.1738 18.5547C63.3196 20.0122 63.4653 21.4696 63.6133 22.8763C63.7612 24.283 63.907 25.5947 64.055 26.6349C64.2029 27.675 64.3487 28.4037 64.4988 29.1545" stroke="#FFF200" stroke-width="2.08" stroke-linecap="round"/>
<path d="M57.4326 25.1792C59.9103 24.742 62.388 24.3048 64.1745 24.0066C65.961 23.7085 66.9813 23.5628 67.8712 23.4148C68.7612 23.2669 69.4899 23.1211 70.6824 22.5293" stroke="#FFF200" stroke-width="2.08" stroke-linecap="round"/>
<path d="M65.8243 19.8799C64.5126 21.9204 63.2009 23.9608 62.3065 25.3035C61.4122 26.6461 60.9749 27.2291 60.5244 28.2714" stroke="#FFF200" stroke-width="2.08" stroke-linecap="round"/>
<path d="M59.6406 21.6465C63.1386 23.5412 66.6365 25.4359 68.8757 26.5577C71.1149 27.6796 71.9894 27.971 72.8904 28.713" stroke="#FFF200" stroke-width="2.08" stroke-linecap="round"/>
<path d="M14.5156 65.1299V73.5214" stroke="#FFF200" stroke-width="2.08" stroke-linecap="round"/>
<path d="M10.0996 68.6631C12.1401 68.8088 14.1805 68.9546 15.6689 69.0297C17.1573 69.1048 18.0318 69.1048 18.9328 68.6631" stroke="#FFF200" stroke-width="2.08" stroke-linecap="round"/>
</svg>
