<svg width="84" height="42" viewBox="0 0 84 42" fill="none" xmlns="http://www.w3.org/2000/svg">
<path d="M28.665 13.1825C23.294 10.6384 18.2657 8.33835 14.3445 6.73326C10.1656 5.02266 6.69704 5.75564 3.97406 7.14443C2.95999 7.66164 2.39895 8.89301 1.86357 10.2454C1.30968 11.6445 1.75221 12.8934 2.03597 13.7468C3.03005 16.7365 8.22611 18.9519 10.4565 19.6425C10.8009 19.7491 11.1686 19.7485 11.0326 19.7849C10.286 19.9848 9.18124 20.0333 8.39743 20.5666C6.89515 21.5886 6.89407 23.1707 6.85659 25.203C6.84259 25.962 7.5301 26.67 8.49166 27.4185C9.31229 28.0572 12.7876 28.244 16.8608 28.5631C18.5727 28.6972 15.1048 31.3086 14.4259 33.3741C13.8488 35.1299 14.458 36.7353 14.8135 37.5544C15.1712 38.3785 16.167 38.9496 17.1649 39.3779C17.8802 39.5236 18.5955 39.5942 20.3687 39.7013C21.7179 39.7377 23.9793 39.7377 26.9518 39.5236" stroke="#C8E1FF" stroke-width="3.2" stroke-linecap="round"/>
<path d="M53.4809 11.337C58.5126 8.17439 63.233 5.29479 66.9364 3.23642C70.8832 1.04274 74.4142 1.35959 77.2825 2.41598C78.3507 2.80939 79.0537 3.96561 79.7456 5.24504C80.4613 6.56869 80.1699 7.86121 79.9892 8.74223C79.3564 11.8287 74.4594 14.644 72.3265 15.5941C71.9973 15.7407 71.632 15.7837 71.7714 15.8037C72.5364 15.9138 73.6391 15.8311 74.4806 16.2677C76.0934 17.1045 76.2819 18.6753 76.5599 20.6889C76.6638 21.4409 76.065 22.2253 75.1989 23.0825C74.4597 23.814 71.031 24.4112 67.0243 25.2107C65.3404 25.5466 69.0933 27.7287 70.0121 29.6993C70.7931 31.3743 70.3784 33.0406 70.1225 33.8961C69.865 34.7567 68.9439 35.4418 68.0037 35.9853C67.3107 36.2147 66.6088 36.3696 64.8608 36.686C63.5255 36.882 61.2799 37.15 58.303 37.2895" stroke="#C8E1FF" stroke-width="3.2" stroke-linecap="round"/>
</svg>
