<svg width="60" height="19" viewBox="0 0 60 19" fill="none" xmlns="http://www.w3.org/2000/svg">
<path d="M3.22277 16.826C2.46032 15.621 1.80256 13.6722 1.50331 10.579C1.46904 8.81387 1.67353 6.65188 1.83922 5.26983C2.00492 3.88778 2.12563 3.35119 2.25 2.79834" stroke="#1A1A1A" stroke-width="3" stroke-linecap="round"/>
<path d="M2.65625 2.89014C3.47845 4.92435 3.94667 5.78561 4.94837 7.12634C5.49598 7.85929 5.89874 8.50534 6.58569 9.22647C7.90761 10.4663 9.71326 11.9701 11.3007 13.1336C11.9257 13.5639 12.1839 13.669 12.6905 13.9737" stroke="#1A1A1A" stroke-width="3" stroke-linecap="round"/>
<path d="M55.1729 15.5514C55.8981 14.3236 56.4959 12.3555 56.7004 9.25465C56.6806 7.48929 56.41 5.33457 56.2021 3.95824C55.9941 2.58191 55.8571 2.04927 55.7158 1.50049" stroke="#1A1A1A" stroke-width="3" stroke-linecap="round"/>
<path d="M55.3125 1.60449C54.553 3.66292 54.1113 4.53811 53.1511 5.90888C52.6262 6.65826 52.2434 7.31633 51.5789 8.05815C50.2955 9.33784 48.5368 10.8962 46.9856 12.1078C46.3741 12.5571 46.1193 12.67 45.6222 12.9901" stroke="#1A1A1A" stroke-width="3" stroke-linecap="round"/>
</svg>
