<svg width="41" height="18" viewBox="0 0 41 18" fill="none" xmlns="http://www.w3.org/2000/svg">
<path d="M18.4876 2.86825C16.5254 3.0464 14.1686 3.32997 11.8555 3.69761C10.3125 3.94286 9.63147 4.21077 9.00725 4.46051C7.64022 5.00746 6.59732 5.65365 5.78628 6.05287C3.42091 7.21718 3.31903 8.09757 2.99353 8.67835C2.36231 9.80465 2.87504 11.4738 3.33698 12.0016C3.88358 12.626 6.37309 13.1999 9.60834 14.04C11.1016 14.4277 12.3417 14.6196 14.0251 14.7706C15.7086 14.9217 17.8103 14.9959 19.1473 15.0121C20.9939 15.0344 21.9907 14.8383 24.0172 14.5353C25.5628 14.3041 28.1877 14.0304 29.8458 13.8123C32.134 13.5114 33.4204 13.0508 34.5847 12.5041C36.2803 11.708 36.9221 10.6379 37.4928 8.83659C37.7178 8.12631 37.541 7.60123 37.3858 7.19279C37.1113 6.47067 35.7919 5.80146 33.421 4.90957C32.1697 4.43886 29.8256 4.07955 27.7862 3.72298C25.7469 3.36641 24.0107 3.16177 22.8808 3.05114C21.2796 2.93007 20.6498 2.88842 20.1411 2.83519C19.7767 2.81285 19.1968 2.80001 18.4913 2.70045" stroke="#FFDE09" stroke-width="5.4" stroke-linecap="round"/>
</svg>
