<svg width="61" height="56" viewBox="0 0 61 56" fill="none" xmlns="http://www.w3.org/2000/svg">
<g filter="url(#filter0_d_1014_7928)">
<path d="M8.91525 36.9577C8.37435 28.4031 8.73134 24.6248 10.3473 19.808C13.2663 11.1074 15.7632 10.2798 16.9776 8.97082C18.9969 6.79406 21.7024 6.13102 27.2333 5.18172C35.3875 3.78216 37.4809 5.67125 39.201 6.48262C40.8762 7.27281 42.6142 10.5232 46.1369 16.1122C47.8662 18.856 48.4885 20.9899 49.1213 24.1434C49.2133 25.6742 49.3025 26.7669 49.4378 28.7804C49.4837 30.437 49.4837 33.3822 49.4837 36.4168" stroke="#E0D0FF" stroke-width="9.36" stroke-linecap="round"/>
<path d="M8.91504 38.5802C9.81296 40.1976 11.0733 41.8203 12.9165 42.5451C16.5732 43.9832 18.6407 41.5607 20.2242 40.702C21.572 39.9711 22.0755 38.7642 22.4798 38.3571C23.3316 37.4996 24.5907 40.6466 26.4433 41.9569C27.8653 42.9627 31.1628 42.6371 33.6997 41.8298C35.5412 41.2438 36.1392 39.2185 36.8586 38.0867C37.6497 36.8421 39.3793 39.9271 40.8681 40.9657C43.3828 42.7198 48.2124 40.8413 49.704 39.8906C50.0327 39.6811 50.2895 39.397 50.5167 39.0806C53.3312 35.1604 50.9278 25.7877 50.7466 23.9824C50.5669 22.1921 49.846 20.8275 49.3956 19.294C48.8144 17.3148 48.0447 15.9593 47.0981 14.515C46.192 13.1326 45.0697 11.9024 44.0785 10.7273C43.0874 9.55239 41.6457 8.83543 40.0689 7.79688C38.6688 6.87469 36.6044 6.66636 34.5273 6.44189C32.7466 6.24945 31.0979 6.66366 29.9295 7.42635C27.2267 9.19069 26.3216 11.0748 24.6975 12.3865C22.7405 13.9672 20.285 16.7544 17.9388 18.7842C15.5018 20.8925 13.7887 24.5922 12.3904 29.098C11.7607 31.1274 11.6196 33.5173 11.9766 35.7702C12.2063 37.2197 15.3898 36.9575 18.0024 36.8237C20.3295 36.7044 21.3506 33.8148 22.5677 31.8729C24.7708 28.3577 25.2236 24.6301 25.9971 21.551C26.5926 19.1803 27.5712 16.2432 28.3825 12.8652C28.6987 11.549 28.6584 11.0045 28.0783 11.9335C26.084 15.1271 23.8037 19.7186 21.6414 22.9614C19.8173 25.6969 19.1978 27.6646 18.5636 29.1535C18.186 30.04 17.6616 31.0913 17.3911 31.5024C15.7842 33.9448 18.9977 24.6355 20.8097 22.1771C21.079 21.8118 21.5291 21.7254 21.8023 21.8119C23.376 22.3105 23.5143 27.9973 24.4595 33.1373C24.7687 34.8182 25.137 34.5288 25.8997 33.186C28.0026 29.4835 29.5563 26.4151 30.1865 26.0946C31.3266 25.5148 30.822 30.1772 31.2237 31.5443C31.406 32.165 32.4285 28.0919 32.8423 29.0291C33.2561 29.9662 33.2561 34.875 33.2115 34.5031C32.4758 28.3725 33.0749 21.7281 33.2994 20.96C33.4059 20.5957 34.0648 23.4157 34.5151 26.0324C34.5833 26.4286 35.1466 21.674 35.6416 15.8984C35.6915 15.3162 36.3204 20.1541 36.5003 25.6065C36.5773 27.9407 36.7721 22.3231 36.8167 13.8429C36.8299 11.3422 36.9506 12.5028 36.7734 16.9383C36.5963 21.3738 36.15 29.0494 36.3218 31.7986C36.5329 35.1776 39.6497 26.1582 40.9101 23.9431C41.5437 22.8295 42.7167 30.4233 43.5281 35.8432C44.1922 40.2794 44.3449 27.5051 44.3449 25.6551C44.3449 23.3608 45.4267 32.8925 45.4267 32.7708C45.4267 24.9797 44.8858 21.1899 44.6613 19.3846C44.6051 18.9327 44.6153 18.4853 44.4815 18.3893C43.4594 17.6563 40.4016 21.9688 37.2778 25.2711C34.4606 28.2493 33.1804 31.3482 31.5928 34.1989C30.9548 35.3444 30.3731 36.4112 30.1026 36.5532C29.7448 36.741 30.0107 34.8209 29.7429 34.4436C29.2565 33.7582 28.2094 35.781 27.939 36.234C27.243 37.3998 27.3981 33.6255 26.9491 32.9953C26.7261 32.6823 26.3216 32.5437 26.0039 32.5856C25.6861 32.6275 25.4183 32.8952 25.5928 32.9886C25.7672 33.0819 26.392 32.9926 26.8477 32.7682C27.3034 32.5437 27.5711 32.1867 28.6584 31.8188" stroke="#E0D0FF" stroke-width="9.36" stroke-linecap="round"/>
<path d="M20.3392 18.1855C19.7964 19.0765 19.4097 19.9279 19.0592 20.7257C18.7787 21.364 18.5549 21.9871 18.3598 22.609C18.1591 23.2489 18.089 23.967 17.8747 24.589C17.656 25.2237 17.3902 25.8305 17.1951 26.4525C17.0057 27.0563 17.0012 27.694 16.8649 28.316C16.723 28.9635 16.7286 29.7508 16.5353 31.2195C15.921 35.8857 16.6122 36.5456 16.7473 37.1675C17 37.7895 17.2318 38.2554 17.5032 38.5652C17.6208 38.7212 17.6977 38.875 18.0098 39.0334" stroke="#E0D0FF" stroke-width="9.36" stroke-linecap="round"/>
<path d="M23.8896 27.5311C25.1391 28.2895 26.3412 28.4069 27.3875 28.2037C27.6435 28.1161 27.919 28.0005 28.1527 27.9121C28.3865 27.8236 28.5701 27.7658 29.0376 27.356" stroke="#0D0D0D" stroke-width="2.34" stroke-linecap="round"/>
<path d="M35.9502 27.0853C37.1996 27.8437 38.4018 27.9611 39.448 27.7579C39.7041 27.6703 39.9795 27.5547 40.2133 27.4663C40.447 27.3778 40.6307 27.32 41.0982 26.9102" stroke="#0D0D0D" stroke-width="2.34" stroke-linecap="round"/>
<path d="M28.6816 35.4527C29.0607 35.3111 29.9176 34.9291 30.8003 34.643C31.5556 34.3982 32.3496 34.3569 35.8444 34.3555C36.7843 34.4971 37.2149 34.6416 37.6669 34.7367C37.8829 34.7846 38.0718 34.8318 38.6955 35.0235" stroke="#0D0D0D" stroke-width="2.34" stroke-linecap="round"/>
</g>
<defs>
<filter id="filter0_d_1014_7928" x="0" y="0" width="60.5549" height="55.6284" filterUnits="userSpaceOnUse" color-interpolation-filters="sRGB">
<feFlood flood-opacity="0" result="BackgroundImageFix"/>
<feColorMatrix in="SourceAlpha" type="matrix" values="0 0 0 0 0 0 0 0 0 0 0 0 0 0 0 0 0 0 127 0" result="hardAlpha"/>
<feOffset dy="4"/>
<feGaussianBlur stdDeviation="2"/>
<feComposite in2="hardAlpha" operator="out"/>
<feColorMatrix type="matrix" values="0 0 0 0 0 0 0 0 0 0 0 0 0 0 0 0 0 0 0.25 0"/>
<feBlend mode="normal" in2="BackgroundImageFix" result="effect1_dropShadow_1014_7928"/>
<feBlend mode="normal" in="SourceGraphic" in2="effect1_dropShadow_1014_7928" result="shape"/>
</filter>
</defs>
</svg>
