<svg width="68" height="55" viewBox="0 0 68 55" fill="none" xmlns="http://www.w3.org/2000/svg">
<g filter="url(#filter0_d_1014_7929)">
<path d="M12.9827 13.4544C11.3646 14.3791 10.2998 15.3178 9.8918 16.365C8.98799 18.6847 9.24908 20.6836 9.18778 26.7394C9.15308 30.1681 10.2928 32.2419 11.3436 34.4607C12.4851 36.8712 14.6079 37.965 16.8268 39.3099C18.8363 40.528 20.9124 40.767 36.1553 41.0664C40.773 41.1571 43.0903 40.5428 46.4772 39.7845C49.1554 39.1849 51.0339 38.7915 53.8342 37.5114C56.5439 36.2726 56.8761 32.8513 58.0442 29.4031C58.8732 26.9557 58.8655 18.7782 58.517 13.8117C58.3668 11.6706 56.0705 9.95893 53.6223 8.32327C51.0563 6.60894 48.2529 6.09918 45.1007 5.51776C43.0144 5.13294 31.6511 5.04843 24.2591 5.45471C21.8915 5.58484 20.1138 6.56151 17.0807 8.0781C14.9595 9.13867 13.6903 11.2269 12.636 13.0972C11.6333 14.8761 11.3506 16.8309 11.4049 26.0267C11.4274 29.8425 13.9074 31.3102 15.6026 32.7129C16.6851 33.6086 17.9983 34.0001 22.0507 34.5237C32.2794 35.8454 40.6385 35.1735 43.029 34.5903C44.6104 34.2383 45.7837 33.888 47.0639 33.4222C47.7661 33.1875 48.5752 32.9564 49.759 32.7182" stroke="#D9D9D9" stroke-width="10.374" stroke-linecap="round"/>
<path d="M26.2507 5.34473C24.6439 5.66673 23.4654 5.87925 22.15 6.04186C21.1621 6.16398 20.3516 6.68426 19.2246 7.11413C18.3005 7.46661 17.2411 7.81127 16.2718 8.10751C15.364 8.385 14.1305 9.57584 13.212 10.5209C12.4027 11.3536 11.7091 12.3708 11.1721 13.1235C10.5892 13.9406 10.6883 14.9469 10.3397 15.8066C9.29563 18.3819 10.3631 23.3189 10.6859 24.1521C11.0435 25.0751 11.9699 26.1622 13.8447 27.8246C15.08 28.9198 17.5421 29.1713 19.8219 28.9612C21.4698 28.8094 21.1518 26.2798 21.1526 23.6957C21.1533 21.5891 20.9409 17.8706 20.7525 16.6986C20.3378 14.1181 20.0795 21.118 19.999 22.5067C19.9463 23.416 19.9717 24.7454 20.928 23.3576C21.8844 21.9697 23.797 17.8256 25.048 15.3719C26.299 12.9182 26.8303 12.2807 27.3697 14.0774C27.909 15.8742 28.4403 20.1247 28.714 22.6862C28.9877 25.2477 28.9877 25.9916 28.9877 26.0294C28.9877 26.0672 28.9877 25.3765 29.3597 22.7361C29.7316 20.0957 30.4754 15.5265 31.7618 15.9354C33.0482 16.3444 34.8546 21.8699 35.8384 24.8227C36.8221 27.7755 36.9283 27.988 37.0362 27.9381C37.1441 27.8882 37.2503 27.5694 37.8895 24.7221C38.5287 21.8748 39.6976 16.5086 41.3623 16.1085C43.0271 15.7084 45.1523 20.437 46.6456 21.9432C48.1389 23.4493 48.9358 21.5898 49.4261 20.5256C50.0255 19.2245 50.5056 18.4454 51.0144 17.6927C51.1799 17.4478 51.47 17.7901 51.6857 18.2192C53.2768 21.3835 53.138 25.9996 53.0317 27.0461C52.9835 27.5214 49.7312 28.1989 44.1637 29.6189C41.3799 30.329 38.5963 30.6671 36.323 30.886C32.3618 31.2675 29.8539 30.9456 28.6472 30.6244C28.1734 30.4983 28.025 30.3032 27.8631 29.9554C27.4683 29.1069 27.2715 27.6789 27.1105 25.0892C26.6548 17.7592 27.323 16.354 27.8849 15.4902C29.0486 13.7013 31.4012 11.7864 31.7755 11.5183C32.1878 11.2231 34.5487 11.3018 37.9265 11.3549C41.175 11.406 42.7759 11.73 46.8428 12.2122C48.3945 12.3962 49.1097 13.4431 49.9139 14.4365C50.2351 14.8374 50.7133 15.4749 51.0659 15.83C51.4185 16.185 51.631 16.2381 51.85 16.2928" stroke="#D9D9D9" stroke-width="10.374" stroke-linecap="round"/>
<path d="M24.2124 25.292V25.7601" stroke="#0D0D0D" stroke-width="3.25" stroke-linecap="round"/>
<path d="M31.3623 25.292V25.604" stroke="#0D0D0D" stroke-width="3.25" stroke-linecap="round"/>
<path d="M24.075 32.4461C25.423 32.6021 27.289 32.3962 29.0356 32.2643C29.7884 32.1871 30.8806 32.134 32.4619 32.1083C33.3223 32.0826 34.3006 32.0311 35.3084 31.978" stroke="#0D0D0D" stroke-width="2.6" stroke-linecap="round"/>
</g>
<defs>
<filter id="filter0_d_1014_7929" x="0" y="0" width="67.927" height="54.2622" filterUnits="userSpaceOnUse" color-interpolation-filters="sRGB">
<feFlood flood-opacity="0" result="BackgroundImageFix"/>
<feColorMatrix in="SourceAlpha" type="matrix" values="0 0 0 0 0 0 0 0 0 0 0 0 0 0 0 0 0 0 127 0" result="hardAlpha"/>
<feOffset dy="4"/>
<feGaussianBlur stdDeviation="2"/>
<feComposite in2="hardAlpha" operator="out"/>
<feColorMatrix type="matrix" values="0 0 0 0 0 0 0 0 0 0 0 0 0 0 0 0 0 0 0.25 0"/>
<feBlend mode="normal" in2="BackgroundImageFix" result="effect1_dropShadow_1014_7929"/>
<feBlend mode="normal" in="SourceGraphic" in2="effect1_dropShadow_1014_7929" result="shape"/>
</filter>
</defs>
</svg>
