<svg width="56" height="72" viewBox="0 0 56 72" fill="none" xmlns="http://www.w3.org/2000/svg">
<g filter="url(#filter0_d_1014_7930)">
<path d="M25.2342 7.47363C24.5508 10.0054 21.8256 15.46 20.1254 18.4467C19.3724 19.7694 18.7874 20.9147 17.6914 22.6303C16.7457 24.1106 15.9757 26.1923 15.1514 28.085C14.3487 29.9279 14.0532 31.8898 13.3668 33.5406C12.8907 34.6855 12.4065 36.6199 11.754 38.8564C11.337 40.2858 11.4432 43.7419 11.682 46.1995C11.8458 47.8854 12.88 49.1841 14.046 51.3084C14.8279 52.7326 16.6468 53.7125 18.1967 54.6069C19.5279 55.375 21.0434 55.6391 24.5642 55.9808C29.6666 56.476 31.0594 55.845 32.4333 55.6402C33.7533 55.4434 34.8344 55.0916 36.2063 54.5781C37.9777 53.9149 38.8152 52.5557 39.8105 51.4926C40.9136 50.3141 41.1494 48.7148 41.6311 47.6157C42.0799 46.5914 42.2486 45.1498 42.3525 43.9106C42.4633 42.5905 42.8661 41.0989 42.9021 33.2689C42.9151 30.4512 42.2527 29.3663 41.5662 27.7546C41.0084 26.4449 40.2643 24.7721 39.44 23.1573C38.6977 21.7034 37.9302 20.5154 37.1758 19.2454C36.4875 18.0866 35.3943 16.8144 34.432 15.4714C33.4529 14.1049 32.5126 13.1053 31.5503 12.143C30.3142 10.907 29.2192 10.0836 28.3248 9.1584C27.9037 8.7227 27.5005 8.29903 27.0219 7.99028C26.7747 7.83081 26.4075 7.88531 26.1986 8.05512C25.1641 8.89594 25.6459 13.6816 25.475 16.5932C25.3181 19.2679 24.8225 22.9689 24.5838 24.7916C24.3317 26.7158 23.9992 28.1889 23.145 33.2514C22.7411 35.6453 22.3566 38.5383 21.771 41.9737C21.6532 42.6652 21.5992 43.0749 22.651 41.6886C23.7028 40.3023 25.8764 37.1098 27.6075 34.2765C29.3386 31.4432 30.5612 29.0658 31.3609 28.0788C32.1606 27.0918 32.5002 27.5673 32.7431 28.1858C33.2611 29.505 33.3297 32.2233 33.3647 35.7503C33.4216 41.4855 31.3414 44.6578 31.2384 44.8667C30.326 46.719 32.9777 39.9421 34.7994 38.8306C35.1299 38.629 35.4519 38.7606 35.7617 38.9644C36.5068 39.4546 36.8969 40.2674 37.1027 41.0866C37.2372 41.6219 37.1727 42.4492 37.0708 42.971C36.9199 43.7437 33.7023 43.9065 30.8669 44.5209C29.2641 44.8683 28.26 46.6441 27.7042 47.7454C27.7701 47.9533 28.0418 48.0891 28.3176 48.261C28.5934 48.4329 28.8651 48.6366 29.1451 48.8466" stroke="#C8E1FF" stroke-width="14.9435" stroke-linecap="round"/>
<path d="M39.554 26.5664C39.8393 27.9962 40.2964 29.0239 40.8695 29.8574C41.4219 30.6606 41.843 31.6601 42.4162 32.6061C42.9943 33.5604 43.2178 34.5815 43.4773 35.5843C43.656 36.2745 43.5633 36.9325 43.6492 38.6656C44.0144 46.0328 43.0494 46.9548 42.7917 47.8725C42.5176 48.848 41.9049 49.7044 41.4461 50.6221C40.9973 51.5197 40.3582 52.2821 39.7001 53.0005C38.8116 53.4885 38.1242 53.7755 37.5536 53.8615C37.2099 53.8907 36.7563 53.8907 36.2888 53.8907" stroke="#C8E1FF" stroke-width="14.9435" stroke-linecap="round"/>
<path d="M36.1169 20.3799C36.7459 20.9504 37.4299 22.2049 38.1766 23.4689C38.8035 24.5302 39.0934 25.4735 39.6949 26.2486C40.3004 27.0288 40.4682 28.0513 40.7561 28.969C41.0493 29.9037 41.6712 30.8009 42.2726 31.576C42.8941 32.3768 43.1044 33.3787 43.4481 34.2964C43.7922 35.2152 43.7918 36.3001 43.8219 41.3826C43.8333 43.3082 43.1078 44.3187 42.5347 45.2948C42.0538 46.1139 41.2209 47.0683 40.3874 47.931C39.9595 48.0478 39.3855 48.1613 38.6999 48.3615C38.3544 48.4483 38.0142 48.505 37.6636 48.5634" stroke="#C8E1FF" stroke-width="14.9435" stroke-linecap="round"/>
<path d="M31.376 21.7925L32.117 22.0359" stroke="#0D0D0D" stroke-width="3.25" stroke-linecap="round"/>
<path d="M22.3208 23.3359L23.0619 23.0925" stroke="#0D0D0D" stroke-width="3.25" stroke-linecap="round"/>
<path d="M23.1482 32.3371C23.744 32.1746 24.8635 31.7388 26.3519 31.1647C27.5423 30.8615 28.7496 30.5882 30.2224 30.2603C31.0181 30.122 31.9118 30.0407 32.8327 29.957" stroke="#0D0D0D" stroke-width="2.6" stroke-linecap="round"/>
</g>
<defs>
<filter id="filter0_d_1014_7930" x="0" y="0" width="55.2937" height="71.6377" filterUnits="userSpaceOnUse" color-interpolation-filters="sRGB">
<feFlood flood-opacity="0" result="BackgroundImageFix"/>
<feColorMatrix in="SourceAlpha" type="matrix" values="0 0 0 0 0 0 0 0 0 0 0 0 0 0 0 0 0 0 127 0" result="hardAlpha"/>
<feOffset dy="4"/>
<feGaussianBlur stdDeviation="2"/>
<feComposite in2="hardAlpha" operator="out"/>
<feColorMatrix type="matrix" values="0 0 0 0 0 0 0 0 0 0 0 0 0 0 0 0 0 0 0.25 0"/>
<feBlend mode="normal" in2="BackgroundImageFix" result="effect1_dropShadow_1014_7930"/>
<feBlend mode="normal" in="SourceGraphic" in2="effect1_dropShadow_1014_7930" result="shape"/>
</filter>
</defs>
</svg>
