<svg width="73" height="50" viewBox="0 0 73 50" fill="none" xmlns="http://www.w3.org/2000/svg">
<g filter="url(#filter0_d_1014_7931)">
<path d="M20.9332 12.9331C19.3946 12.86 15.8428 13.1504 14.14 14.1858C12.7368 15.0391 10.7479 17.0614 9.40762 18.5446C8.27335 19.7999 8.44651 21.571 8.36891 25.5185C8.33093 27.4507 9.17815 28.5948 9.88208 29.7787C10.597 30.9811 12.056 31.9204 14.5314 33.1786C17.084 34.4761 21.0751 33.4059 22.6615 32.8161C25.8321 31.6374 27.2076 30.8961 28.2464 29.9716C29.5389 28.8212 29.948 26.6127 30.5754 23.6296C31.3381 20.0035 30.6153 17.2964 30.4313 16.7067C29.871 14.9108 27.4427 13.5273 26.0381 13.3034C24.6016 13.0744 23.4519 12.7868 18.7716 12.8212C17.4249 12.8311 16.652 13.7424 15.6565 14.5162C13.6533 16.0733 13.8385 21.2517 14.7209 25.7425C14.9954 27.1395 15.9048 27.8587 16.6409 28.3021C18.4189 29.3732 20.4809 26.8344 22.146 25.4664C23.5244 24.334 24.035 22.6197 24.4041 21.6242C24.734 20.7345 24.7023 19.2253 24.1536 18.7342C21.8258 16.6509 20.9377 24.7459 20.0165 25.2026C16.8875 26.7539 18.4213 19.5069 18.3104 20.2806C18.2727 20.6886 18.2727 21.1276 18.3459 21.5C18.419 21.8725 18.5654 22.1652 18.7161 22.4667" stroke="#AFECB2" stroke-width="8.736" stroke-linecap="round"/>
<path d="M43.9557 11.4392C41.2464 11.4392 33.8546 11.7319 31.214 12.4336C29.3876 12.919 29.2519 16.2282 28.9171 18.8177C28.6066 21.2191 29.0989 23.4781 29.5412 24.6964C30.1076 26.2565 31.7572 27.3226 32.8658 27.9179C34.1506 28.6078 35.4509 28.9544 37.6591 29.1384C41.3093 29.4426 44.6851 28.2981 46.2726 26.6386C48.2119 24.6112 47.8711 22.241 47.9831 20.6823C48.1213 18.7584 47.8755 16.2548 47.3202 14.5853C46.9059 13.3399 45.6629 12.1842 44.2206 11.294C42.3861 10.1617 40.4926 10.2597 38.4939 10.0724C35.2647 9.76969 30.3649 10.3262 29.3261 11.2142C28.3315 12.0644 27.8462 13.5011 26.9616 15.5697C26.1971 17.3574 26.0725 19.1902 26.0703 22.8063C26.069 25.0043 26.9549 26.4357 27.5835 27.6197C28.267 28.9071 29.3184 29.8368 30.611 30.6515C31.6911 31.3324 33.3047 31.3178 39.4971 31.2834C42.108 31.2689 43.3571 30.0673 44.6164 29.216C45.7054 28.4798 47.1971 27.3359 48.3866 25.8194C49.5529 24.3324 49.7157 21.8729 49.8321 19.5028C49.9255 17.6009 47.3656 16.472 45.3702 15.6174C43.1821 14.6801 39.5414 14.9866 36.2557 15.2061C34.2534 15.3398 33.4644 16.7558 32.838 17.8965C31.1933 20.892 31.5399 23.181 31.796 24.4015C32.8109 29.2386 42.4015 16.8379 42.5878 16.5031C44.2706 13.4779 39.2266 24.5889 39.3718 25.2185C40.9227 24.3029 41.8827 22.9726 42.5833 22.4538C42.9181 22.374 43.2108 22.6666 43.734 22.9682" stroke="#AFECB2" stroke-width="8.736" stroke-linecap="round"/>
<path d="M56.8322 9.01911C51.5931 8.79738 49.0812 8.94372 47.5624 9.42371C46.9387 9.62086 46.1945 10.1232 45.4562 10.9713C44.367 12.2223 44.6381 17.3288 44.8953 20.6522C45.0759 22.9857 46.1147 24.6807 46.8519 26.0121C47.511 27.2026 48.9925 27.5674 51.02 28.1948C53.0213 28.8141 54.9055 28.0884 55.7912 27.6461C57.0643 27.0104 58.0826 25.5809 59.0459 24.1009C60.0575 22.547 60.0824 20.4815 60.0481 15.8367C60.0403 14.7823 59.7188 14.349 59.2034 13.9034C56.651 11.6968 52.8591 11.387 51.0721 11.0522C49.9033 10.8332 45.1968 10.7928 41.9831 11.7483C39.7816 12.4029 40.2793 16.3222 40.2405 20.2011C40.2182 22.4296 41.3834 23.5722 42.7103 25.3436C44.4249 27.6326 45.2988 28.5252 46.4805 29.0451C48.0559 29.7382 52.2871 30.0816 55.6416 29.3466C58.2941 28.7654 59.7055 27.2792 61.2242 26.2427C62.7167 25.2241 63.479 23.7318 64.1098 21.9958C65.1064 19.253 64.0777 14.6417 63.6331 13.3846C62.97 11.5092 61.1245 10.5001 59.5359 9.79729C58.1377 9.17866 54.9343 9.46251 51.8891 10.5655C50.804 10.9586 50.3316 12.4113 49.8882 13.7759C49.5312 14.8744 49.8106 15.8877 49.9946 16.6992C50.0806 17.0782 50.2518 17.3643 50.5467 17.4053C51.2947 17.5093 51.9523 16.6348 52.358 15.8977C53.0835 14.5796 48.9304 24.224 48.2608 27.4111C48.137 28.0005 48.1855 28.3744 48.405 28.1605C51.6384 25.0087 54.5397 20.6988 54.798 20.4017C55.8436 19.199 55.5019 24.1663 55.6482 24.4269C55.9384 24.9435 56.6082 23.2862 56.9408 22.5856C57.0539 22.2508 57.0539 21.9581 56.9441 21.6244C56.8344 21.2908 56.6149 20.9249 55.9453 19.8829" stroke="#AFECB2" stroke-width="8.736" stroke-linecap="round"/>
<path d="M25.918 9.04022C26.2349 8.4009 27.8055 6.92024 28.5444 6.43591C29.2962 5.94315 30.1579 5.62778 30.9882 5.28252C32.1691 4.79144 33.0168 4.65912 34.2823 4.49721C38.1485 4.00257 40.4893 5.07149 41.2753 5.32611C42.6537 5.77262 44.411 7.10013 45.15 7.65434C45.8676 8.19256 46.6251 8.71364 47.6629 9.79716C47.9646 10.2358 48.1957 10.6067 48.4489 10.9748C48.5652 11.1602 48.6565 11.3429 48.889 11.6694" stroke="#AFECB2" stroke-width="8.736" stroke-linecap="round"/>
<path d="M28.5176 34.7252C28.84 35.1846 29.298 35.8295 30.037 36.2232C30.7648 36.6109 31.6505 36.7538 32.3894 36.9158C33.1144 37.0746 33.8646 37.169 34.6035 37.2389C35.401 37.3143 39.0483 37.4928 41.2457 37.3551C42.0182 37.3067 42.7209 36.7566 43.5747 36.2495C44.3371 35.6496 45.0733 35.0047 45.6746 34.3128C45.8136 34.1274 45.9506 33.9447 46.2302 33.6182" stroke="#AFECB2" stroke-width="8.736" stroke-linecap="round"/>
<path d="M30.9878 17.5972V17.9716" stroke="#0D0D0D" stroke-width="3.25" stroke-linecap="round"/>
<path d="M40.3481 17.3682V17.6178" stroke="#0D0D0D" stroke-width="3.25" stroke-linecap="round"/>
<path d="M27.8677 27.1653C27.975 26.7896 28.2449 26.3546 28.6239 25.9619C28.8601 25.717 29.1133 25.7017 29.343 25.7285C29.9106 25.7948 30.4663 26.2692 30.9424 26.5274C31.3653 26.7567 31.7413 27.11 32.2429 27.1384C32.9079 27.1761 33.5837 26.2725 34.2472 25.8123C34.8524 25.3925 35.6425 25.2138 36.2787 25.2541C36.9779 25.2983 37.3516 25.8627 37.9208 26.1749C38.1599 26.3061 38.7851 26.3522 39.6112 26.3119C40.2876 26.279 40.604 25.757 41.4691 25.2028C42.7233 24.3996 43.5295 24.482 44.0466 24.5764C44.2629 24.6707 44.4808 24.7796 44.6837 24.9012C44.7792 24.9691 44.8597 25.0496 45.1866 25.2951" stroke="#0D0D0D" stroke-width="2.6" stroke-linecap="round"/>
</g>
<defs>
<filter id="filter0_d_1014_7931" x="0" y="0" width="72.8989" height="49.7734" filterUnits="userSpaceOnUse" color-interpolation-filters="sRGB">
<feFlood flood-opacity="0" result="BackgroundImageFix"/>
<feColorMatrix in="SourceAlpha" type="matrix" values="0 0 0 0 0 0 0 0 0 0 0 0 0 0 0 0 0 0 127 0" result="hardAlpha"/>
<feOffset dy="4"/>
<feGaussianBlur stdDeviation="2"/>
<feComposite in2="hardAlpha" operator="out"/>
<feColorMatrix type="matrix" values="0 0 0 0 0 0 0 0 0 0 0 0 0 0 0 0 0 0 0.25 0"/>
<feBlend mode="normal" in2="BackgroundImageFix" result="effect1_dropShadow_1014_7931"/>
<feBlend mode="normal" in="SourceGraphic" in2="effect1_dropShadow_1014_7931" result="shape"/>
</filter>
</defs>
</svg>
