<svg width="75" height="68" viewBox="0 0 75 68" fill="none" xmlns="http://www.w3.org/2000/svg">
<g filter="url(#filter0_d_1014_7932)">
<path d="M26.418 17.9908C22.2516 15.6125 19.0866 13.6277 14.81 13.5175C13.8603 13.493 13.3169 14.4026 12.9146 15.1C12.1148 16.4863 12.1129 19.5584 12.5063 23.23C13.0251 28.0717 20.8271 28.9103 25.3123 30.2037C26.1409 30.4427 26.2153 31.4852 25.5299 32.579C22.0945 38.0605 18.6813 41.9995 17.5786 45.9929C17.3644 46.769 17.4773 47.5784 17.8707 48.1804C18.2641 48.7824 19.0509 49.1758 20.243 49.3785C21.4351 49.5811 23.0086 49.5811 24.1143 48.8927C33.4567 43.0757 26.8114 21.7816 28.5965 18.104C30.1897 14.8221 33.356 12.0422 37.6266 9.16039C41.2842 6.69228 46.2544 6.6659 50.2479 7.35732C51.0879 7.50276 51.8333 8.04874 52.337 8.64478C53.3375 9.82874 53.24 11.625 52.8466 13.2105C51.6896 17.8734 45.5153 20.9591 37.9694 24.6337C35.6672 25.7548 33.9758 26.5261 32.6854 28.3083C31.345 30.1595 31.7824 32.88 32.0774 34.9631C32.5611 38.3785 38.3031 42.2021 42.4993 45.7963C43.9211 47.0141 45.6822 47.3937 47.4643 47.5934C53.1527 48.2307 58.9859 43.43 61.2807 40.0623C63.178 37.2778 61.1912 33.8932 60.3001 32.3078C58.1871 28.5482 54.0506 26.1447 49.8783 23.4654C48.0228 22.2739 46.0994 21.567 43.7212 21.9604C41.1018 22.3937 39.5369 24.5413 38.6429 26.4188C38.0741 27.6132 38.3389 29.6732 38.929 31.2766C40.924 36.6975 46.4689 37.0523 51.3327 39.1444C52.5585 39.6717 53.8122 39.4484 54.5185 39.055C55.2248 38.6616 55.4215 37.8748 55.5229 36.9778C55.6242 36.0807 55.6242 35.0972 55.1325 34.2956C53.6572 32.9038 51.8572 32.0991 50.1734 31.7028C49.2763 31.5031 48.2928 31.3064 47.2796 31.1037" stroke="#FFF06C" stroke-width="13.9392" stroke-linecap="round"/>
<path d="M28.3713 26.6082C28.3713 26.4565 28.523 25.9991 28.9046 25.3486C29.4378 24.9257 30.0538 24.6936 30.6652 24.5786C30.9732 24.5396 31.2766 24.5396 32.0489 24.9993" stroke="#0D0D0D" stroke-width="2.64" stroke-linecap="round"/>
<path d="M39.5913 23.5006C39.5913 23.3489 39.6672 22.9674 39.9338 22.4318C40.1246 22.1997 40.428 22.048 41.0014 21.9698C41.5749 21.8917 42.4092 21.8917 43.4987 22.1215" stroke="#0D0D0D" stroke-width="2.64" stroke-linecap="round"/>
<path d="M36.9514 30.102C36.9514 30.4054 36.9514 32.3062 37.4065 34.9495C37.5774 35.9422 38.7718 35.8482 39.3545 35.7344C40.2173 35.5659 40.5508 34.8552 40.8186 34.2438C41.0757 33.6569 41.0887 32.7131 40.9749 31.6799C40.0957 30.4881 39.2522 29.6446 38.6419 29.2998C38.2592 29.1826 37.7283 29.1826 37.1813 29.1826" stroke="#0D0D0D" stroke-width="2.64" stroke-linecap="round"/>
</g>
<defs>
<filter id="filter0_d_1014_7932" x="2.90871e-05" y="0" width="74.3215" height="67.0253" filterUnits="userSpaceOnUse" color-interpolation-filters="sRGB">
<feFlood flood-opacity="0" result="BackgroundImageFix"/>
<feColorMatrix in="SourceAlpha" type="matrix" values="0 0 0 0 0 0 0 0 0 0 0 0 0 0 0 0 0 0 127 0" result="hardAlpha"/>
<feOffset dy="5.28"/>
<feGaussianBlur stdDeviation="2.64"/>
<feComposite in2="hardAlpha" operator="out"/>
<feColorMatrix type="matrix" values="0 0 0 0 0 0 0 0 0 0 0 0 0 0 0 0 0 0 0.25 0"/>
<feBlend mode="normal" in2="BackgroundImageFix" result="effect1_dropShadow_1014_7932"/>
<feBlend mode="normal" in="SourceGraphic" in2="effect1_dropShadow_1014_7932" result="shape"/>
</filter>
</defs>
</svg>
