<svg width="68" height="62" viewBox="0 0 68 62" fill="none" xmlns="http://www.w3.org/2000/svg">
<g filter="url(#filter0_d_1014_7927)">
<path d="M17.7644 47.1342C14.1977 40.3871 7.73455 24.8142 8.00999 17.7206C8.06198 16.3819 9.41564 16.4655 10.3669 17.1215C14.8892 20.2398 14.7316 25.3481 17.0914 29.795C18.9083 33.2189 19.843 36.1389 20.1299 40.5859C20.1977 41.6386 20.411 42.3863 20.5075 41.2731C21.2274 32.9734 21.172 29.1646 21.6434 22.9372C22.5886 10.4494 23.0576 7.01499 24.7614 4.357C25.132 3.77878 26.079 3.97079 26.5589 4.43934C33.1122 10.8376 27.0445 29.8802 26.664 35.4688C26.2401 41.6947 25.5281 43.9083 25.2442 44.6694C23.4846 49.385 30.2477 31.4364 31.6732 27.1797C33.5961 21.4379 37.4378 16.863 40.4706 14.5799C41.2293 14.0088 41.9813 13.2623 42.555 13.2509C43.1286 13.2396 43.5034 13.9893 43.6965 14.9377C44.5686 19.2215 41.0613 24.2008 38.7867 27.4352C36.5174 30.6621 33.8711 33.6741 30.8384 37.3714C28.156 40.6415 26.4766 42.7724 26.4709 43.3461C26.4034 50.1733 40.4479 33.3333 44.4462 30.2011C47.4767 27.827 49.9382 26.3135 51.1706 26.2142C51.5731 26.1817 51.0911 27.4267 50.5232 28.1906C48.2619 31.232 43.3444 32.7313 37.9461 36.7068C33.7576 39.7915 29.7138 43.7039 28.1719 45.9955C24.6636 51.2095 39.5051 42.409 44.4405 40.4212C49.962 38.1973 55.9924 37.4793 58.1676 37.8541C59.0951 38.0139 59.4057 38.9786 59.4114 39.9271C59.424 42.0326 57.5315 43.9083 55.5466 45.3253C52.7377 47.3305 48.8307 47.8839 45.1334 48.7415C41.8166 49.0255 27.1695 49.406 19.2865 47.5204C18.7185 47.1342 17.9688 47.1342 17.1964 47.1342" stroke="#FF6868" stroke-width="8.0028" stroke-linecap="round"/>
<path d="M51.5631 42.6172L40.1274 44.9043" stroke="#FF6868" stroke-width="6.0021" stroke-linecap="round"/>
<path d="M7.13477 19.5791C7.13477 19.9404 7.2001 20.6641 7.25009 21.9996C7.27815 22.749 7.39809 23.4043 7.46442 24.5903C7.51149 25.432 7.69508 26.2752 7.90941 26.886C8.09663 27.4196 8.19007 28.0235 8.32222 28.5858C8.45607 29.1553 8.68505 29.7401 8.88304 30.3672C9.07625 30.9792 9.21369 31.522 9.39435 32.0507C9.57197 32.5704 9.67501 33.106 9.88933 33.6346C10.0994 34.1526 10.2036 34.6899 10.3021 35.2185C10.4036 35.7629 10.665 36.3392 10.8135 36.9015C10.9592 37.4532 11.16 37.9568 11.3743 38.4854C11.5843 39.0034 11.7539 39.5407 11.9024 40.0694C12.1172 40.598 12.2489 41.0267 12.3806 41.3395C12.4469 41.489 12.5122 41.6196 12.5796 41.7543" stroke="#FF6868" stroke-width="6.0021" stroke-linecap="round"/>
<path d="M7.88534 18.1401C7.84679 19.2289 7.76852 21.7778 7.90403 23.4914C7.95856 24.1811 8.31288 24.7565 8.39115 25.4966C8.47676 26.306 8.70305 27.0531 8.91623 27.9106C9.09798 28.6415 9.20769 29.5063 9.40335 30.383C9.57257 31.1412 9.63757 31.7655 9.85076 32.3893C10.0997 33.1178 10.2987 34.062 10.4932 34.7641C10.7272 35.6088 11.037 36.5128 11.1947 37.4894C11.3069 38.1839 11.5837 38.7744 11.7204 39.3982C11.8732 40.0955 12.1678 41.0312 12.3623 41.8507C12.5517 42.6487 12.9458 43.2905 13.2384 43.954C13.5046 44.5575 13.7635 45.1992 14.0947 45.823C14.4445 46.482 14.969 47.0683 15.4766 47.7697C15.8812 48.329 16.4876 48.6663 17.1114 49.0751C17.6879 49.453 18.4338 49.6008 19.1358 49.7188C19.966 49.8583 20.6532 49.991 21.3553 50.2246C22.1358 50.4843 23.104 50.3811 25.6605 50.4781C27.5126 50.5483 31.0218 50.498 32.906 50.4787C35.5675 50.4514 36.8906 50.304 38.5236 50.245C39.346 50.109 40.1217 50.0307 41.27 49.9337C41.6403 49.9139 42.1028 49.9139 42.9299 49.7971" stroke="#FF6868" stroke-width="6.0021" stroke-linecap="round"/>
<path d="M7.92727 25.0239C7.82828 26.104 7.95895 28.2215 8.20694 28.866C8.41341 29.4025 8.58659 29.9381 8.80091 30.4667C9.01094 30.9848 9.18057 31.522 9.32906 32.0507C9.36735 32.187 9.44389 32.314 9.47755 32.218C9.77194 31.3781 9.34688 30.8014 9.19838 30.1905C9.05269 29.5912 8.8519 28.9541 8.71974 28.2111C8.57711 27.4093 8.48957 26.4792 8.34009 26.1456C7.97563 25.3322 8.52125 27.4315 8.52125 27.5152C8.52125 28.1906 8.38958 26.3782 8.30742 26.2455C7.7137 25.287 8.1906 29.3441 8.30643 29.8891C8.43393 30.489 8.48759 31.0271 8.61975 31.5557C8.75192 32.0843 8.81824 32.6763 8.98257 33.2713C9.16919 33.947 9.27956 34.5573 9.49389 35.1196C9.68667 35.6254 9.74088 36.1749 9.82454 36.7857C9.90453 37.3698 10.1369 38.0221 10.319 38.6829C10.4954 39.3229 10.6655 39.8377 10.962 40.3664C11.2382 40.8589 11.4238 41.4217 11.6718 42.0325C11.8923 42.5755 12.2158 43.1046 12.5623 43.7154C12.8728 44.2628 13.2711 44.8529 13.6676 45.3494C14.1087 45.9018 14.6887 46.4368 15.349 46.8675C16.4399 47.5789 17.524 48.0544 19.0257 48.4519C19.624 48.6102 21.0492 48.5851 23.0267 48.5524C24.3542 48.5305 25.019 48.3217 25.3318 48.1574C25.612 47.9277 25.8446 47.6624 26.0258 47.3991C26.1089 47.2664 26.1743 47.1357 26.2416 47.0011" stroke="#FF6868" stroke-width="6.0021" stroke-linecap="round"/>
<path d="M23.4521 34.2017L23.4986 34.5991" stroke="#0D0D0D" stroke-width="2.925" stroke-linecap="round"/>
<path d="M31.4546 33.001L31.501 33.3984" stroke="#0D0D0D" stroke-width="2.925" stroke-linecap="round"/>
<path d="M18.25 29L23.512 30.0005" stroke="#0D0D0D" stroke-width="2.34" stroke-linecap="round"/>
<path d="M30.6552 38.6344C28.4085 38.5158 26.2734 38.7507 25.2022 39.0484C24.0924 39.3569 23.3055 40.8028 22.9063 41.6367C22.4422 42.6064 22.7065 43.6532 22.9627 44.1075C23.3167 44.7352 25.6162 44.5654 27.0147 44.3685C27.8419 44.252 28.4773 44.1312 29.7187 43.894C32.5412 43.3546 33.6159 43.3816 34.1924 42.8869C35.0374 42.1619 34.0595 39.6712 33.4842 38.9126C33.3455 38.8325 33.1889 38.7934 32.8733 38.7732C32.5578 38.753 32.0881 38.753 31.2483 38.6344" stroke="#0D0D0D" stroke-width="2.34" stroke-linecap="round"/>
<path d="M29.854 29.1226L33.1024 27.3993" stroke="#0D0D0D" stroke-width="2.34" stroke-linecap="round"/>
</g>
<defs>
<filter id="filter0_d_1014_7927" x="0" y="0" width="67.4131" height="61.5151" filterUnits="userSpaceOnUse" color-interpolation-filters="sRGB">
<feFlood flood-opacity="0" result="BackgroundImageFix"/>
<feColorMatrix in="SourceAlpha" type="matrix" values="0 0 0 0 0 0 0 0 0 0 0 0 0 0 0 0 0 0 127 0" result="hardAlpha"/>
<feOffset dy="4"/>
<feGaussianBlur stdDeviation="2"/>
<feComposite in2="hardAlpha" operator="out"/>
<feColorMatrix type="matrix" values="0 0 0 0 0 0 0 0 0 0 0 0 0 0 0 0 0 0 0.25 0"/>
<feBlend mode="normal" in2="BackgroundImageFix" result="effect1_dropShadow_1014_7927"/>
<feBlend mode="normal" in="SourceGraphic" in2="effect1_dropShadow_1014_7927" result="shape"/>
</filter>
</defs>
</svg>
