<svg width="70" height="57" viewBox="0 0 70 57" fill="none" xmlns="http://www.w3.org/2000/svg">
<path d="M19.6658 22.5883C18.4822 22.532 15.7501 22.7554 14.4403 23.5519C13.3609 24.2082 11.8309 25.7639 10.8 26.9048C9.92744 27.8704 10.0606 29.2328 10.0009 32.2694C9.97173 33.7556 10.6234 34.6357 11.1649 35.5464C11.7148 36.4713 12.8371 37.1939 14.7413 38.1618C16.7049 39.1598 19.775 38.3366 20.9952 37.8829C23.4342 36.9762 24.4923 36.406 25.2913 35.6948C26.2855 34.8098 26.6002 33.111 27.0829 30.8163C27.6696 28.027 27.1136 25.9446 26.972 25.491C26.541 24.1096 24.6731 23.0454 23.5927 22.8731C22.4876 22.6969 21.6032 22.4757 18.003 22.5022C16.9671 22.5098 16.3726 23.2108 15.6068 23.806C14.0658 25.0038 14.2083 28.9872 14.8871 32.4416C15.0983 33.5163 15.7978 34.0695 16.364 34.4106C17.7317 35.2345 19.3179 33.2816 20.5987 32.2293C21.659 31.3582 22.0518 30.0395 22.3357 29.2737C22.5895 28.5894 22.5651 27.4284 22.143 27.0506C20.3524 25.4481 19.6692 31.675 18.9606 32.0263C16.5537 33.2196 17.7335 27.645 17.6483 28.2402C17.6193 28.554 17.6193 28.8917 17.6755 29.1782C17.7318 29.4647 17.8444 29.6899 17.9604 29.9218" stroke="#AFECB2" stroke-width="6.72" stroke-linecap="round"/>
<path d="M37.3752 21.4396C35.2911 21.4396 29.6051 21.6647 27.5739 22.2045C26.1689 22.5778 26.0645 25.1234 25.807 27.1154C25.5682 28.9626 25.9469 30.7002 26.2871 31.6374C26.7228 32.8375 27.9917 33.6575 28.8444 34.1154C29.8328 34.6462 30.833 34.9128 32.5317 35.0543C35.3395 35.2883 37.9363 34.4079 39.1574 33.1314C40.6492 31.5719 40.387 29.7486 40.4732 28.5497C40.5795 27.0697 40.3904 25.1438 39.9632 23.8596C39.6445 22.9016 38.6884 22.0126 37.579 21.3279C36.1678 20.4568 34.7112 20.5323 33.1738 20.3882C30.6898 20.1553 26.9207 20.5834 26.1217 21.2665C25.3566 21.9205 24.9833 23.0257 24.3028 24.6169C23.7147 25.992 23.6189 27.4019 23.6172 30.1835C23.6162 31.8743 24.2977 32.9753 24.7812 33.8861C25.3069 34.8764 26.1157 35.5915 27.11 36.2183C27.9409 36.742 29.1821 36.7308 33.9455 36.7044C35.9539 36.6932 36.9147 35.7689 37.8834 35.114C38.7211 34.5477 39.8686 33.6678 40.7836 32.5012C41.6807 31.3574 41.806 29.4655 41.8955 27.6424C41.9674 26.1793 39.9982 25.311 38.4633 24.6535C36.7801 23.9326 33.9796 24.1683 31.4521 24.3372C29.9119 24.44 29.3049 25.5293 28.8231 26.4067C27.558 28.7109 27.8246 30.4717 28.0216 31.4106C28.8022 35.1314 36.1797 25.5924 36.3229 25.3349C37.6174 23.0078 33.7374 31.5547 33.8491 32.039C35.0421 31.3347 35.7806 30.3114 36.3195 29.9123C36.577 29.8509 36.8021 30.0761 37.2046 30.308" stroke="#AFECB2" stroke-width="6.72" stroke-linecap="round"/>
<path d="M47.2803 19.5778C43.2503 19.4072 41.318 19.5198 40.1497 19.889C39.6699 20.0407 39.0975 20.4271 38.5296 21.0794C37.6917 22.0418 37.9002 25.9699 38.0981 28.5264C38.237 30.3214 39.0361 31.6252 39.6031 32.6493C40.1102 33.5651 41.2498 33.8457 42.8094 34.3284C44.3488 34.8047 45.7982 34.2465 46.4796 33.9063C47.4588 33.4172 48.2422 32.3176 48.9832 31.1792C49.7613 29.9839 49.7805 28.3951 49.7541 24.8221C49.7481 24.011 49.5008 23.6777 49.1043 23.3349C47.141 21.6376 44.2241 21.3992 42.8495 21.1417C41.9504 20.9733 38.33 20.9422 35.8579 21.6772C34.1645 22.1808 34.5473 25.1956 34.5174 28.1793C34.5003 29.8936 35.3966 30.7725 36.4173 32.1351C37.7362 33.8958 38.4085 34.5825 39.3175 34.9824C40.5293 35.5156 43.7841 35.7797 46.3645 35.2143C48.4049 34.7673 49.4906 33.624 50.6588 32.8267C51.8069 32.0432 52.3933 30.8953 52.8785 29.5599C53.6451 27.45 52.8538 23.9028 52.5118 22.9359C52.0017 21.4932 50.5821 20.717 49.3601 20.1764C48.2845 19.7005 45.8204 19.9189 43.478 20.7673C42.6433 21.0697 42.2799 22.1871 41.9388 23.2369C41.6642 24.0818 41.8791 24.8613 42.0206 25.4855C42.0868 25.7771 42.2185 25.9972 42.4453 26.0287C43.0207 26.1087 43.5266 25.4361 43.8387 24.869C44.3967 23.8551 41.202 31.2739 40.687 33.7255C40.5917 34.1788 40.629 34.4665 40.7978 34.3019C43.2851 31.8775 45.5168 28.5622 45.7155 28.3337C46.5199 27.4085 46.257 31.2295 46.3696 31.4299C46.5928 31.8273 47.108 30.5525 47.3639 30.0135C47.4508 29.756 47.4508 29.5309 47.3664 29.2742C47.282 29.0175 47.1132 28.7361 46.5981 27.9346" stroke="#AFECB2" stroke-width="6.72" stroke-linecap="round"/>
<path d="M23.5 19.5939C23.7438 19.1021 24.9519 17.9631 25.5203 17.5906C26.0987 17.2115 26.7615 16.9689 27.4002 16.7034C28.3086 16.3256 28.9607 16.2238 29.9341 16.0993C32.9081 15.7188 34.7087 16.541 35.3134 16.7369C36.3736 17.0804 37.7254 18.1015 38.2938 18.5278C38.8459 18.9418 39.4286 19.3427 40.2269 20.1761C40.4589 20.5136 40.6367 20.7989 40.8315 21.082C40.9209 21.2246 40.9912 21.3651 41.17 21.6164" stroke="#AFECB2" stroke-width="6.72" stroke-linecap="round"/>
<path d="M25.5 39.3516C25.748 39.705 26.1004 40.201 26.6688 40.5038C27.2286 40.8021 27.9099 40.9121 28.4784 41.0366C29.036 41.1588 29.6131 41.2314 30.1815 41.2852C30.7949 41.3432 33.6005 41.4805 35.2909 41.3746C35.8851 41.3373 36.4256 40.9142 37.0824 40.5241C37.6689 40.0626 38.2352 39.5666 38.6977 39.0344C38.8047 38.8917 38.91 38.7512 39.1251 38.5" stroke="#AFECB2" stroke-width="6.72" stroke-linecap="round"/>
<path d="M27.4004 26.1758V26.4638" stroke="#0D0D0D" stroke-width="2.5" stroke-linecap="round"/>
<path d="M34.6006 26V26.192" stroke="#0D0D0D" stroke-width="2.5" stroke-linecap="round"/>
<path d="M25 33.5363C25.0826 33.2473 25.2902 32.9127 25.5817 32.6106C25.7634 32.4223 25.9582 32.4105 26.1349 32.4311C26.5715 32.4821 26.999 32.847 27.3652 33.0456C27.6905 33.222 27.9797 33.4938 28.3656 33.5157C28.8771 33.5447 29.397 32.8495 29.9073 32.4955C30.3729 32.1726 30.9806 32.0352 31.47 32.0662C32.0078 32.1002 32.2953 32.5343 32.7331 32.7745C32.9171 32.8754 33.398 32.9108 34.0335 32.8799C34.5538 32.8545 34.7972 32.453 35.4626 32.0268C36.4274 31.4088 37.0475 31.4723 37.4453 31.5448C37.6117 31.6174 37.7793 31.7012 37.9354 31.7947C38.0089 31.8469 38.0708 31.9089 38.3222 32.0977" stroke="#0D0D0D" stroke-width="2" stroke-linecap="round"/>
<path d="M13.4853 1.91406C9.73369 2.82457 7.51071 4.44155 5.42173 6.6767C4.35288 8.40634 3.43934 9.7249 2.83183 10.7374C2.52579 11.2475 2.22432 11.7499 1.30469 13.1812" stroke="#1A1A1A" stroke-width="2" stroke-linecap="round"/>
<path d="M1 5.87207C1 6.07305 1 6.27403 1.5527 7.03076C2.10539 7.78748 3.21078 9.09385 4.95869 10.7443" stroke="#1A1A1A" stroke-width="2" stroke-linecap="round"/>
<path d="M8.30859 1C8.50958 1.50245 8.71056 2.0049 9.01508 2.71595C9.3196 3.427 9.72156 4.33141 10.0794 4.9983C10.4372 5.66519 10.7386 6.06715 11.6583 6.48129" stroke="#1A1A1A" stroke-width="2" stroke-linecap="round"/>
<path d="M63.9587 37C63.9587 37.201 63.9587 40.7212 63.6572 46.7019C63.3558 49.2659 62.7528 50.8738 62.191 52.104C61.6292 53.3342 61.1267 54.1382 60 55.5755" stroke="#1A1A1A" stroke-width="2" stroke-linecap="round"/>
<path d="M61.5225 42.4813C61.9244 42.4813 63.1364 42.4813 64.9102 42.431C65.6791 42.3808 66.1815 42.2803 66.7419 42.2285C67.3022 42.1768 67.9051 42.1768 68.5263 42.1768" stroke="#1A1A1A" stroke-width="2" stroke-linecap="round"/>
<path d="M60.6094 48.876C61.5138 49.1774 62.4182 49.4789 63.0851 49.7347C63.752 49.9905 64.1539 50.1915 64.562 50.3453C64.97 50.499 65.372 50.5995 66.0907 50.7031" stroke="#1A1A1A" stroke-width="2" stroke-linecap="round"/>
</svg>
