<svg width="50" height="54" viewBox="0 0 50 54" fill="none" xmlns="http://www.w3.org/2000/svg">
<path d="M13.0262 9.94864C11.8426 9.89236 9.11042 10.1158 7.80062 10.9122C6.72121 11.5686 5.19126 13.1242 4.16031 14.2652C3.2878 15.2308 3.42099 16.5931 3.3613 19.6297C3.33208 21.116 3.98379 21.9961 4.52528 22.9068C5.0752 23.8317 6.19749 24.5543 8.10164 25.5221C10.0652 26.5202 13.1353 25.6969 14.3556 25.2433C16.7946 24.3365 17.8526 23.7663 18.6516 23.0551C19.6459 22.1702 19.9606 20.4714 20.4432 18.1767C21.0299 15.3874 20.4739 13.305 20.3324 12.8513C19.9013 11.4699 18.0334 10.4057 16.953 10.2335C15.848 10.0573 14.9636 9.83608 11.3633 9.86251C10.3274 9.87012 9.73292 10.5711 8.96716 11.1663C7.42618 12.3641 7.56868 16.3476 8.24746 19.802C8.45863 20.8766 9.15817 21.4298 9.72439 21.7709C11.092 22.5948 12.6783 20.6419 13.9591 19.5896C15.0193 18.7186 15.4121 17.3998 15.6961 16.6341C15.9498 15.9497 15.9255 14.7888 15.5034 14.411C13.7127 12.8084 13.0296 19.0354 12.321 19.3867C9.91408 20.58 11.0939 15.0054 11.0086 15.6006C10.9796 15.9144 10.9796 16.252 11.0359 16.5386C11.0922 16.8251 11.2047 17.0502 11.3207 17.2822" stroke="#AFECB2" stroke-width="6.72" stroke-linecap="round"/>
<path d="M30.7355 8.79994C28.6515 8.79994 22.9654 9.02505 20.9342 9.56483C19.5293 9.93818 19.4249 12.4837 19.1674 14.4757C18.9285 16.3229 19.3072 18.0606 19.6475 18.9978C20.0832 20.1979 21.3521 21.0179 22.2048 21.4758C23.1932 22.0066 24.1934 22.2731 25.892 22.4147C28.6999 22.6487 31.2966 21.7683 32.5177 20.4917C34.0095 18.9322 33.7474 17.109 33.8335 15.91C33.9398 14.43 33.7508 12.5042 33.3236 11.22C33.0049 10.262 32.0487 9.37296 30.9393 8.68822C29.5281 7.81719 28.0716 7.89262 26.5341 7.74851C24.0501 7.51568 20.281 7.94378 19.482 8.62682C18.7169 9.28086 18.3436 10.386 17.6631 11.9772C17.0751 13.3524 16.9792 14.7622 16.9775 17.5438C16.9765 19.2346 17.658 20.3357 18.1415 21.2464C18.6673 22.2367 19.4761 22.9519 20.4703 23.5786C21.3012 24.1024 22.5425 24.0911 27.3058 24.0647C29.3142 24.0536 30.2751 23.1292 31.2438 22.4744C32.0814 21.9081 33.2289 21.0281 34.1439 19.8616C35.0411 18.7178 35.1663 16.8258 35.2559 15.0027C35.3277 13.5397 33.3585 12.6713 31.8236 12.0139C30.1405 11.2929 27.3399 11.5287 24.8125 11.6975C23.2722 11.8004 22.6653 12.8896 22.1835 13.7671C20.9183 16.0713 21.1849 17.8321 21.3819 18.7709C22.1626 22.4918 29.54 12.9527 29.6833 12.6952C30.9778 10.3682 27.0978 18.915 27.2095 19.3994C28.4025 18.695 29.1409 17.6718 29.6798 17.2727C29.9374 17.2113 30.1625 17.4364 30.565 17.6683" stroke="#AFECB2" stroke-width="6.72" stroke-linecap="round"/>
<path d="M40.6406 6.93815C36.6106 6.76759 34.6783 6.88016 33.5101 7.24939C33.0303 7.40104 32.4578 7.78746 31.8899 8.4398C31.0521 9.40216 31.2606 13.3302 31.4584 15.8867C31.5973 17.6817 32.3964 18.9855 32.9635 20.0097C33.4705 20.9254 34.6101 21.2061 36.1698 21.6887C37.7092 22.1651 39.1586 21.6068 39.8399 21.2666C40.8192 20.7776 41.6025 19.678 42.3436 18.5396C43.1216 17.3442 43.1409 15.7554 43.1144 12.1824C43.1084 11.3714 42.8612 11.0381 42.4646 10.6953C40.5013 8.99793 37.5845 8.75958 36.2098 8.50205C35.3108 8.33362 31.6904 8.30251 29.2183 9.03756C27.5248 9.54111 27.9076 12.5559 27.8778 15.5397C27.8606 17.2539 28.757 18.1328 29.7777 19.4955C31.0966 21.2562 31.7688 21.9428 32.6778 22.3428C33.8897 22.8759 37.1444 23.1401 39.7248 22.5747C41.7652 22.1276 42.8509 20.9843 44.0192 20.187C45.1672 19.4035 45.7536 18.2556 46.2388 16.9202C47.0054 14.8104 46.2141 11.2632 45.8722 10.2962C45.362 8.85358 43.9424 8.07738 42.7205 7.53675C41.6449 7.06089 39.1808 7.27923 36.8383 8.1277C36.0036 8.43003 35.6402 9.5475 35.2991 10.5972C35.0246 11.4422 35.2394 12.2217 35.381 12.8459C35.4471 13.1374 35.5788 13.3575 35.8057 13.3891C36.3811 13.4691 36.8869 12.7964 37.199 12.2293C37.7571 11.2154 34.5624 18.6342 34.0473 21.0858C33.9521 21.5392 33.9893 21.8268 34.1582 21.6623C36.6454 19.2378 38.8772 15.9225 39.0759 15.694C39.8802 14.7689 39.6174 18.5899 39.7299 18.7903C39.9531 19.1877 40.4684 17.9128 40.7242 17.3739C40.8112 17.1164 40.8112 16.8912 40.7268 16.6346C40.6424 16.3779 40.4735 16.0965 39.9585 15.2949" stroke="#AFECB2" stroke-width="6.72" stroke-linecap="round"/>
<path d="M16.8604 6.95424C17.1041 6.46246 18.3123 5.32349 18.8807 4.95093C19.459 4.57188 20.1219 4.32928 20.7605 4.0637C21.6689 3.68595 22.321 3.58416 23.2945 3.45962C26.2685 3.07912 28.0691 3.90137 28.6737 4.09723C29.734 4.4407 31.0858 5.46187 31.6542 5.88818C32.2062 6.3022 32.7889 6.70303 33.5872 7.5365C33.8193 7.87393 33.9971 8.1592 34.1919 8.44235C34.2813 8.58499 34.3515 8.7255 34.5304 8.97671" stroke="#AFECB2" stroke-width="6.72" stroke-linecap="round"/>
<path d="M18.8604 26.7119C19.1084 27.0653 19.4607 27.5614 20.0291 27.8642C20.589 28.1625 21.2703 28.2724 21.8387 28.397C22.3964 28.5191 22.9734 28.5917 23.5418 28.6455C24.1553 28.7035 26.9609 28.8408 28.6512 28.7349C29.2455 28.6977 29.7859 28.2745 30.4427 27.8844C31.0292 27.423 31.5955 26.9269 32.058 26.3947C32.165 26.2521 32.2704 26.1116 32.4854 25.8604" stroke="#AFECB2" stroke-width="6.72" stroke-linecap="round"/>
<path d="M20.7607 13.5361V13.8242" stroke="#0D0D0D" stroke-width="2.5" stroke-linecap="round"/>
<path d="M27.9609 13.3604V13.5524" stroke="#0D0D0D" stroke-width="2.5" stroke-linecap="round"/>
<path d="M18.3604 20.8966C18.4429 20.6077 18.6506 20.2731 18.942 19.971C19.1237 19.7826 19.3185 19.7708 19.4952 19.7915C19.9318 19.8425 20.3593 20.2074 20.7255 20.406C21.0508 20.5824 21.34 20.8541 21.7259 20.876C22.2375 20.905 22.7573 20.2099 23.2677 19.8559C23.7332 19.533 24.341 19.3956 24.8304 19.4265C25.3682 19.4605 25.6557 19.8947 26.0935 20.1348C26.2774 20.2357 26.7584 20.2712 27.3938 20.2402C27.9141 20.2149 28.1575 19.8134 28.823 19.3871C29.7877 18.7692 30.4079 18.8326 30.8057 18.9052C30.9721 18.9777 31.1397 19.0616 31.2957 19.1551C31.3692 19.2073 31.4311 19.2692 31.6826 19.4581" stroke="#0D0D0D" stroke-width="2" stroke-linecap="round"/>
<path d="M4.78736 50.1716C4.47098 49.9124 4.00898 49.4521 3.33159 48.5871C2.77121 47.6405 2.41843 46.9367 2.37509 46.6632C2.36035 46.5042 2.36035 46.304 2.36035 46.0977" stroke="#E0D0FF" stroke-width="2" stroke-linecap="round"/>
<path d="M12.7874 50.1716C12.471 49.9124 12.009 49.4521 11.3316 48.5871C10.7712 47.6405 10.4184 46.9367 10.3751 46.6632C10.3604 46.5042 10.3604 46.304 10.3604 46.0977" stroke="#FCA8A8" stroke-width="2" stroke-linecap="round"/>
<path d="M20.7874 50.1716C20.471 49.9124 20.009 49.4521 19.3316 48.5871C18.7712 47.6405 18.4184 46.9367 18.3751 46.6632C18.3604 46.5042 18.3604 46.304 18.3604 46.0977" stroke="#FFF06C" stroke-width="2" stroke-linecap="round"/>
<path d="M2.36035 46.0977C2.70533 46.616 3.45424 47.5365 3.91927 48.2482C4.00638 48.379 4.09219 48.4935 4.17931 48.6239C4.26642 48.7544 4.35223 48.8974 4.44064 49.0447" stroke="#E0D0FF" stroke-width="2" stroke-linecap="round"/>
<path d="M10.3604 46.0977C10.7053 46.616 11.4542 47.5365 11.9193 48.2482C12.0064 48.379 12.0922 48.4935 12.1793 48.6239C12.2664 48.7544 12.3522 48.8974 12.4406 49.0447" stroke="#FCA8A8" stroke-width="2" stroke-linecap="round"/>
<path d="M18.3604 46.0977C18.7053 46.616 19.4542 47.5365 19.9193 48.2482C20.0064 48.379 20.0922 48.4935 20.1793 48.6239C20.2664 48.7544 20.3522 48.8974 20.4406 49.0447" stroke="#FFF06C" stroke-width="2" stroke-linecap="round"/>
<path d="M4.00759 48.0046C3.89231 46.9367 3.83424 46.0751 3.94909 45.1615C3.99749 44.7765 4.23816 44.5097 4.41065 44.3792C4.50348 44.309 4.69756 44.449 4.81457 44.5647C5.16216 45.3713 5.39446 47.5573 5.30821 48.6958C5.27917 48.841 5.25057 48.984 5.2211 49.3914" stroke="#E0D0FF" stroke-width="2" stroke-linecap="round"/>
<path d="M12.0076 48.0046C11.8923 46.9367 11.8342 46.0751 11.9491 45.1615C11.9975 44.7765 12.2382 44.5097 12.4107 44.3792C12.5035 44.309 12.6976 44.449 12.8146 44.5647C13.1622 45.3713 13.3945 47.5573 13.3082 48.6958C13.2792 48.841 13.2506 48.984 13.2211 49.3914" stroke="#FCA8A8" stroke-width="2" stroke-linecap="round"/>
<path d="M20.0076 48.0046C19.8923 46.9367 19.8342 46.0751 19.9491 45.1615C19.9975 44.7765 20.2382 44.5097 20.4107 44.3792C20.5035 44.309 20.6976 44.449 20.8146 44.5647C21.1622 45.3713 21.3945 47.5573 21.3082 48.6958C21.2792 48.841 21.2506 48.984 21.2211 49.3914" stroke="#FFF06C" stroke-width="2" stroke-linecap="round"/>
<path d="M5.82796 46.6178C5.91377 46.0994 6.20241 45.6365 6.47589 45.4632C6.61915 45.3724 6.83517 45.4042 6.95262 45.4615C7.59267 45.7732 7.01373 47.1933 6.76799 47.7567C6.49112 48.3915 6.17641 48.8402 5.9012 49.2888C5.74302 49.4764 5.59739 49.6793 5.46781 49.8955C5.39543 49.9974 5.30962 50.0832 5.04785 50.2583" stroke="#E0D0FF" stroke-width="2" stroke-linecap="round"/>
<path d="M13.828 46.6178C13.9138 46.0994 14.2024 45.6365 14.4759 45.4632C14.6192 45.3724 14.8352 45.4042 14.9526 45.4615C15.5927 45.7732 15.0137 47.1933 14.768 47.7567C14.4911 48.3915 14.1764 48.8402 13.9012 49.2888C13.743 49.4764 13.5974 49.6793 13.4678 49.8955C13.3954 49.9974 13.3096 50.0832 13.0479 50.2583" stroke="#FCA8A8" stroke-width="2" stroke-linecap="round"/>
<path d="M21.828 46.6178C21.9138 46.0994 22.2024 45.6365 22.4759 45.4632C22.6192 45.3724 22.8352 45.4042 22.9526 45.4615C23.5927 45.7732 23.0137 47.1933 22.768 47.7567C22.4911 48.3915 22.1764 48.8402 21.9012 49.2888C21.743 49.4764 21.5974 49.6793 21.4678 49.8955C21.3954 49.9974 21.3096 50.0832 21.0479 50.2583" stroke="#FFF06C" stroke-width="2" stroke-linecap="round"/>
<path d="M5.04718 50.865C3.69066 50.2011 3.17145 49.9133 2.73719 49.7525C2.64611 49.7188 2.59243 49.9376 2.57726 50.0828C2.5621 50.2279 2.5907 50.371 2.64834 50.4875C3.02323 50.807 3.48523 50.8936 4.0027 50.937C4.34855 50.9517 4.86342 50.9517 5.3939 50.9517" stroke="#AFECB2" stroke-width="2" stroke-linecap="round"/>
<path d="M13.0472 50.865C11.6907 50.2011 11.1714 49.9133 10.7372 49.7525C10.6461 49.7188 10.5924 49.9376 10.5773 50.0828C10.5621 50.2279 10.5907 50.371 10.6483 50.4875C11.0232 50.807 11.4852 50.8936 12.0027 50.937C12.3486 50.9517 12.8634 50.9517 13.3939 50.9517" stroke="#AFECB2" stroke-width="2" stroke-linecap="round"/>
<path d="M21.0472 50.865C19.6907 50.2011 19.1714 49.9133 18.7372 49.7525C18.6461 49.7188 18.5924 49.9376 18.5773 50.0828C18.5621 50.2279 18.5907 50.371 18.6483 50.4875C19.0232 50.807 19.4852 50.8936 20.0027 50.937C20.3486 50.9517 20.8634 50.9517 21.3939 50.9517" stroke="#AFECB2" stroke-width="2" stroke-linecap="round"/>
<path d="M5.82715 50.8647C5.85575 50.375 6.08545 49.913 6.37496 49.4939C6.53129 49.2676 6.80835 49.1606 7.01031 49.1311C7.21107 49.1018 7.21401 49.5914 7.18541 49.952C6.92623 50.4305 6.60812 50.6905 6.4209 50.8491C6.31948 50.9219 6.20507 50.9791 6.0005 51.1248" stroke="#AFECB2" stroke-width="2" stroke-linecap="round"/>
<path d="M13.8271 50.8647C13.8558 50.375 14.0854 49.913 14.375 49.4939C14.5313 49.2676 14.8084 49.1606 15.0103 49.1311C15.2111 49.1018 15.214 49.5914 15.1854 49.952C14.9262 50.4305 14.6081 50.6905 14.4209 50.8491C14.3195 50.9219 14.2051 50.9791 14.0005 51.1248" stroke="#AFECB2" stroke-width="2" stroke-linecap="round"/>
<path d="M21.8271 50.8647C21.8558 50.375 22.0854 49.913 22.375 49.4939C22.5313 49.2676 22.8084 49.1606 23.0103 49.1311C23.2111 49.1018 23.214 49.5914 23.1854 49.952C22.9262 50.4305 22.6081 50.6905 22.4209 50.8491C22.3195 50.9219 22.2051 50.9791 22.0005 51.1248" stroke="#AFECB2" stroke-width="2" stroke-linecap="round"/>
<path d="M5.2207 51.3848C5.30652 51.442 5.39233 51.4992 5.45084 51.5859C5.50935 51.6725 5.53795 51.787 5.55269 52.0461C5.56742 52.3053 5.56742 52.7058 5.74078 53.1183" stroke="#AFECB2" stroke-linecap="round"/>
<path d="M13.2207 51.3848C13.3065 51.442 13.3923 51.4992 13.4508 51.5859C13.5093 51.6725 13.5379 51.787 13.5527 52.0461C13.5674 52.3053 13.5674 52.7058 13.7408 53.1183" stroke="#AFECB2" stroke-linecap="round"/>
<path d="M21.2207 51.3848C21.3065 51.442 21.3923 51.4992 21.4508 51.5859C21.5093 51.6725 21.5379 51.787 21.5527 52.0461C21.5674 52.3053 21.5674 52.7058 21.7408 53.1183" stroke="#AFECB2" stroke-linecap="round"/>
<path d="M29.7874 50.1716C29.471 49.9124 29.009 49.4521 28.3316 48.5871C27.7712 47.6405 27.4184 46.9367 27.3751 46.6632C27.3604 46.5042 27.3604 46.304 27.3604 46.0977" stroke="#E0D0FF" stroke-width="2" stroke-linecap="round"/>
<path d="M37.7874 50.1716C37.471 49.9124 37.009 49.4521 36.3316 48.5871C35.7712 47.6405 35.4184 46.9367 35.3751 46.6632C35.3604 46.5042 35.3604 46.304 35.3604 46.0977" stroke="#FCA8A8" stroke-width="2" stroke-linecap="round"/>
<path d="M45.7874 50.1716C45.471 49.9124 45.009 49.4521 44.3316 48.5871C43.7712 47.6405 43.4184 46.9367 43.3751 46.6632C43.3604 46.5042 43.3604 46.304 43.3604 46.0977" stroke="#FFF06C" stroke-width="2" stroke-linecap="round"/>
<path d="M27.3604 46.0977C27.7053 46.616 28.4542 47.5365 28.9193 48.2482C29.0064 48.379 29.0922 48.4935 29.1793 48.6239C29.2664 48.7544 29.3522 48.8974 29.4406 49.0447" stroke="#E0D0FF" stroke-width="2" stroke-linecap="round"/>
<path d="M35.3604 46.0977C35.7053 46.616 36.4542 47.5365 36.9193 48.2482C37.0064 48.379 37.0922 48.4935 37.1793 48.6239C37.2664 48.7544 37.3522 48.8974 37.4406 49.0447" stroke="#FCA8A8" stroke-width="2" stroke-linecap="round"/>
<path d="M43.3604 46.0977C43.7053 46.616 44.4542 47.5365 44.9193 48.2482C45.0064 48.379 45.0922 48.4935 45.1793 48.6239C45.2664 48.7544 45.3522 48.8974 45.4406 49.0447" stroke="#FFF06C" stroke-width="2" stroke-linecap="round"/>
<path d="M29.0076 48.0046C28.8923 46.9367 28.8342 46.0751 28.9491 45.1615C28.9975 44.7765 29.2382 44.5097 29.4107 44.3792C29.5035 44.309 29.6976 44.449 29.8146 44.5647C30.1622 45.3713 30.3945 47.5573 30.3082 48.6958C30.2792 48.841 30.2506 48.984 30.2211 49.3914" stroke="#E0D0FF" stroke-width="2" stroke-linecap="round"/>
<path d="M37.0076 48.0046C36.8923 46.9367 36.8342 46.0751 36.9491 45.1615C36.9975 44.7765 37.2382 44.5097 37.4107 44.3792C37.5035 44.309 37.6976 44.449 37.8146 44.5647C38.1622 45.3713 38.3945 47.5573 38.3082 48.6958C38.2792 48.841 38.2506 48.984 38.2211 49.3914" stroke="#FCA8A8" stroke-width="2" stroke-linecap="round"/>
<path d="M45.0076 48.0046C44.8923 46.9367 44.8342 46.0751 44.9491 45.1615C44.9975 44.7765 45.2382 44.5097 45.4107 44.3792C45.5035 44.309 45.6976 44.449 45.8146 44.5647C46.1622 45.3713 46.3945 47.5573 46.3082 48.6958C46.2792 48.841 46.2506 48.984 46.2211 49.3914" stroke="#FFF06C" stroke-width="2" stroke-linecap="round"/>
<path d="M30.828 46.6178C30.9138 46.0994 31.2024 45.6365 31.4759 45.4632C31.6192 45.3724 31.8352 45.4042 31.9526 45.4615C32.5927 45.7732 32.0137 47.1933 31.768 47.7567C31.4911 48.3915 31.1764 48.8402 30.9012 49.2888C30.743 49.4764 30.5974 49.6793 30.4678 49.8955C30.3954 49.9974 30.3096 50.0832 30.0479 50.2583" stroke="#E0D0FF" stroke-width="2" stroke-linecap="round"/>
<path d="M38.828 46.6178C38.9138 46.0994 39.2024 45.6365 39.4759 45.4632C39.6192 45.3724 39.8352 45.4042 39.9526 45.4615C40.5927 45.7732 40.0137 47.1933 39.768 47.7567C39.4911 48.3915 39.1764 48.8402 38.9012 49.2888C38.743 49.4764 38.5974 49.6793 38.4678 49.8955C38.3954 49.9974 38.3096 50.0832 38.0479 50.2583" stroke="#FCA8A8" stroke-width="2" stroke-linecap="round"/>
<path d="M46.828 46.6178C46.9138 46.0994 47.2024 45.6365 47.4759 45.4632C47.6192 45.3724 47.8352 45.4042 47.9526 45.4615C48.5927 45.7732 48.0137 47.1933 47.768 47.7567C47.4911 48.3915 47.1764 48.8402 46.9012 49.2888C46.743 49.4764 46.5974 49.6793 46.4678 49.8955C46.3954 49.9974 46.3096 50.0832 46.0479 50.2583" stroke="#FFF06C" stroke-width="2" stroke-linecap="round"/>
<path d="M30.0472 50.865C28.6907 50.2011 28.1714 49.9133 27.7372 49.7525C27.6461 49.7188 27.5924 49.9376 27.5773 50.0828C27.5621 50.2279 27.5907 50.371 27.6483 50.4875C28.0232 50.807 28.4852 50.8936 29.0027 50.937C29.3486 50.9517 29.8634 50.9517 30.3939 50.9517" stroke="#AFECB2" stroke-width="2" stroke-linecap="round"/>
<path d="M38.0472 50.865C36.6907 50.2011 36.1714 49.9133 35.7372 49.7525C35.6461 49.7188 35.5924 49.9376 35.5773 50.0828C35.5621 50.2279 35.5907 50.371 35.6483 50.4875C36.0232 50.807 36.4852 50.8936 37.0027 50.937C37.3486 50.9517 37.8634 50.9517 38.3939 50.9517" stroke="#AFECB2" stroke-width="2" stroke-linecap="round"/>
<path d="M46.0472 50.865C44.6907 50.2011 44.1714 49.9133 43.7372 49.7525C43.6461 49.7188 43.5924 49.9376 43.5773 50.0828C43.5621 50.2279 43.5907 50.371 43.6483 50.4875C44.0232 50.807 44.4852 50.8936 45.0027 50.937C45.3486 50.9517 45.8634 50.9517 46.3939 50.9517" stroke="#AFECB2" stroke-width="2" stroke-linecap="round"/>
<path d="M30.8271 50.8647C30.8558 50.375 31.0854 49.913 31.375 49.4939C31.5313 49.2676 31.8084 49.1606 32.0103 49.1311C32.2111 49.1018 32.214 49.5914 32.1854 49.952C31.9262 50.4305 31.6081 50.6905 31.4209 50.8491C31.3195 50.9219 31.2051 50.9791 31.0005 51.1248" stroke="#AFECB2" stroke-width="2" stroke-linecap="round"/>
<path d="M38.8271 50.8647C38.8558 50.375 39.0854 49.913 39.375 49.4939C39.5313 49.2676 39.8084 49.1606 40.0103 49.1311C40.2111 49.1018 40.214 49.5914 40.1854 49.952C39.9262 50.4305 39.6081 50.6905 39.4209 50.8491C39.3195 50.9219 39.2051 50.9791 39.0005 51.1248" stroke="#AFECB2" stroke-width="2" stroke-linecap="round"/>
<path d="M46.8271 50.8647C46.8558 50.375 47.0854 49.913 47.375 49.4939C47.5313 49.2676 47.8084 49.1606 48.0103 49.1311C48.2111 49.1018 48.214 49.5914 48.1854 49.952C47.9262 50.4305 47.6081 50.6905 47.4209 50.8491C47.3195 50.9219 47.2051 50.9791 47.0005 51.1248" stroke="#AFECB2" stroke-width="2" stroke-linecap="round"/>
<path d="M30.2207 51.3848C30.3065 51.442 30.3923 51.4992 30.4508 51.5859C30.5093 51.6725 30.5379 51.787 30.5527 52.0461C30.5674 52.3053 30.5674 52.7058 30.7408 53.1183" stroke="#AFECB2" stroke-linecap="round"/>
<path d="M38.2207 51.3848C38.3065 51.442 38.3923 51.4992 38.4508 51.5859C38.5093 51.6725 38.5379 51.787 38.5527 52.0461C38.5674 52.3053 38.5674 52.7058 38.7408 53.1183" stroke="#AFECB2" stroke-linecap="round"/>
<path d="M46.2207 51.3848C46.3065 51.442 46.3923 51.4992 46.4508 51.5859C46.5093 51.6725 46.5379 51.787 46.5527 52.0461C46.5674 52.3053 46.5674 52.7058 46.7408 53.1183" stroke="#AFECB2" stroke-linecap="round"/>
</svg>
