<svg width="59" height="53" viewBox="0 0 59 53" fill="none" xmlns="http://www.w3.org/2000/svg">
<path d="M13.0262 30.3881C11.8426 30.3318 9.11042 30.5552 7.80062 31.3517C6.72121 32.008 5.19126 33.5637 4.16031 34.7046C3.2878 35.6702 3.42099 37.0326 3.3613 40.0692C3.33208 41.5554 3.98379 42.4355 4.52528 43.3462C5.0752 44.2711 6.19749 44.9937 8.10164 45.9616C10.0652 46.9596 13.1353 46.1364 14.3556 45.6827C16.7946 44.776 17.8526 44.2058 18.6516 43.4946C19.6459 42.6096 19.9606 40.9108 20.4432 38.6161C21.0299 35.8268 20.4739 33.7445 20.3324 33.2908C19.9013 31.9094 18.0334 30.8452 16.953 30.6729C15.848 30.4967 14.9636 30.2755 11.3633 30.302C10.3274 30.3096 9.73292 31.0106 8.96716 31.6058C7.42618 32.8036 7.56868 36.787 8.24746 40.2414C8.45863 41.3161 9.15817 41.8693 9.72439 42.2104C11.092 43.0343 12.6783 41.0814 13.9591 40.0291C15.0193 39.158 15.4121 37.8393 15.6961 37.0735C15.9498 36.3892 15.9255 35.2282 15.5034 34.8504C13.7127 33.2479 13.0296 39.4748 12.321 39.8261C9.91408 41.0194 11.0939 35.4448 11.0086 36.04C10.9796 36.3538 10.9796 36.6915 11.0359 36.978C11.0922 37.2645 11.2047 37.4897 11.3207 37.7216" stroke="#AFECB2" stroke-width="6.72" stroke-linecap="round"/>
<path d="M30.7355 29.2394C28.6515 29.2394 22.9654 29.4645 20.9342 30.0043C19.5293 30.3776 19.4249 32.9232 19.1674 34.9152C18.9285 36.7624 19.3072 38.5001 19.6475 39.4372C20.0832 40.6373 21.3521 41.4573 22.2048 41.9153C23.1932 42.446 24.1934 42.7126 25.892 42.8541C28.6999 43.0881 31.2966 42.2077 32.5177 40.9312C34.0095 39.3717 33.7474 37.5484 33.8335 36.3495C33.9398 34.8695 33.7508 32.9437 33.3236 31.6594C33.0049 30.7014 32.0487 29.8124 30.9393 29.1277C29.5281 28.2566 28.0716 28.3321 26.5341 28.188C24.0501 27.9551 20.281 28.3832 19.482 29.0663C18.7169 29.7203 18.3436 30.8255 17.6631 32.4167C17.0751 33.7918 16.9792 35.2017 16.9775 37.9833C16.9765 39.6741 17.658 40.7752 18.1415 41.6859C18.6673 42.6762 19.4761 43.3913 20.4703 44.0181C21.3012 44.5418 22.5425 44.5306 27.3058 44.5042C29.3142 44.493 30.2751 43.5687 31.2438 42.9138C32.0814 42.3475 33.2289 41.4676 34.1439 40.301C35.0411 39.1572 35.1663 37.2653 35.2559 35.4422C35.3277 33.9791 33.3585 33.1108 31.8236 32.4533C30.1405 31.7324 27.3399 31.9681 24.8125 32.137C23.2722 32.2399 22.6653 33.3291 22.1835 34.2065C20.9183 36.5107 21.1849 38.2715 21.3819 39.2104C22.1626 42.9312 29.54 33.3922 29.6833 33.1347C30.9778 30.8076 27.0978 39.3545 27.2095 39.8388C28.4025 39.1345 29.1409 38.1112 29.6798 37.7121C29.9374 37.6507 30.1625 37.8759 30.565 38.1078" stroke="#AFECB2" stroke-width="6.72" stroke-linecap="round"/>
<path d="M40.6406 27.3776C36.6106 27.207 34.6783 27.3196 33.5101 27.6888C33.0303 27.8405 32.4578 28.2269 31.8899 28.8793C31.0521 29.8416 31.2606 33.7697 31.4584 36.3262C31.5973 38.1212 32.3964 39.425 32.9635 40.4491C33.4705 41.3649 34.6101 41.6455 36.1698 42.1282C37.7092 42.6045 39.1586 42.0463 39.8399 41.7061C40.8192 41.217 41.6025 40.1174 42.3436 38.979C43.1216 37.7837 43.1409 36.1949 43.1144 32.6219C43.1084 31.8108 42.8612 31.4775 42.4646 31.1347C40.5013 29.4374 37.5845 29.199 36.2098 28.9415C35.3108 28.7731 31.6904 28.742 29.2183 29.477C27.5248 29.9806 27.9076 32.9954 27.8778 35.9791C27.8606 37.6934 28.757 38.5723 29.7777 39.9349C31.0966 41.6956 31.7688 42.3823 32.6778 42.7822C33.8897 43.3154 37.1444 43.5795 39.7248 43.0142C41.7652 42.5671 42.8509 41.4238 44.0192 40.6265C45.1672 39.843 45.7536 38.6951 46.2388 37.3597C47.0054 35.2498 46.2141 31.7027 45.8722 30.7357C45.362 29.293 43.9424 28.5168 42.7205 27.9762C41.6449 27.5003 39.1808 27.7187 36.8383 28.5672C36.0036 28.8695 35.6402 29.987 35.2991 31.0367C35.0246 31.8817 35.2394 32.6611 35.381 33.2853C35.4471 33.5769 35.5788 33.797 35.8057 33.8285C36.3811 33.9085 36.8869 33.2359 37.199 32.6688C37.7571 31.6549 34.5624 39.0737 34.0473 41.5253C33.9521 41.9786 33.9893 42.2663 34.1582 42.1017C36.6454 39.6773 38.8772 36.362 39.0759 36.1335C39.8802 35.2083 39.6174 39.0293 39.7299 39.2297C39.9531 39.6271 40.4684 38.3523 40.7242 37.8133C40.8112 37.5558 40.8112 37.3307 40.7268 37.074C40.6424 36.8173 40.4735 36.5359 39.9585 35.7344" stroke="#AFECB2" stroke-width="6.72" stroke-linecap="round"/>
<path d="M16.8604 27.3937C17.1041 26.9019 18.3123 25.7629 18.8807 25.3904C19.459 25.0113 20.1219 24.7687 20.7605 24.5032C21.6689 24.1254 22.321 24.0236 23.2945 23.8991C26.2685 23.5186 28.0691 24.3408 28.6737 24.5367C29.734 24.8802 31.0858 25.9013 31.6542 26.3276C32.2062 26.7417 32.7889 27.1425 33.5872 27.976C33.8193 28.3134 33.9971 28.5987 34.1919 28.8818C34.2813 29.0244 34.3515 29.1649 34.5304 29.4162" stroke="#AFECB2" stroke-width="6.72" stroke-linecap="round"/>
<path d="M18.8604 47.1514C19.1084 47.5048 19.4607 48.0008 20.0291 48.3036C20.589 48.6019 21.2703 48.7119 21.8387 48.8364C22.3964 48.9586 22.9734 49.0312 23.5418 49.085C24.1553 49.143 26.9609 49.2803 28.6512 49.1744C29.2455 49.1371 29.7859 48.714 30.4427 48.3239C31.0292 47.8624 31.5955 47.3664 32.058 46.8342C32.165 46.6915 32.2704 46.551 32.4854 46.2998" stroke="#AFECB2" stroke-width="6.72" stroke-linecap="round"/>
<path d="M20.7607 33.9756V34.2636" stroke="#0D0D0D" stroke-width="2.5" stroke-linecap="round"/>
<path d="M27.9609 33.7998V33.9918" stroke="#0D0D0D" stroke-width="2.5" stroke-linecap="round"/>
<path d="M18.3604 41.3361C18.4429 41.0471 18.6506 40.7125 18.942 40.4104C19.1237 40.2221 19.3185 40.2103 19.4952 40.2309C19.9318 40.2819 20.3593 40.6468 20.7255 40.8454C21.0508 41.0218 21.34 41.2936 21.7259 41.3155C22.2375 41.3445 22.7573 40.6493 23.2677 40.2953C23.7332 39.9724 24.341 39.835 24.8304 39.866C25.3682 39.9 25.6557 40.3341 26.0935 40.5743C26.2774 40.6752 26.7584 40.7106 27.3938 40.6797C27.9141 40.6543 28.1575 40.2528 28.823 39.8266C29.7877 39.2086 30.4079 39.2721 30.8057 39.3446C30.9721 39.4172 31.1397 39.501 31.2957 39.5945C31.3692 39.6467 31.4311 39.7087 31.6826 39.8975" stroke="#0D0D0D" stroke-width="2" stroke-linecap="round"/>
<path d="M51.0015 5.21472C50.7088 5.13146 49.788 4.96243 48.9857 5.23427C48.1452 5.51907 47.5981 6.43074 47.1976 7.14598C46.9461 7.59513 46.8387 8.65466 46.9012 9.93629C46.955 11.041 48.0548 11.5194 48.7284 11.7736C49.9098 12.2194 51.9223 11.6506 52.618 11.2293C53.2775 10.8299 53.2292 9.92746 53.2096 8.75116C53.1968 7.97915 52.1822 7.69723 51.2374 7.40205C50.8942 7.29483 50.3809 7.35916 50.0611 7.44242C49.7413 7.52567 49.6164 7.69218 49.5521 7.86122C49.3095 8.49851 49.4032 9.0394 49.5496 9.33332C49.6543 9.46072 49.8208 9.54398 50.0106 9.58687C50.2005 9.62976 50.4086 9.62976 50.623 9.62976" stroke="#FF6868" stroke-width="1.6" stroke-linecap="round"/>
<path d="M49.9922 0.799805V2.06124" stroke="#FF6868" stroke-width="1.6" stroke-linecap="round"/>
<path d="M44.5674 3.82715C44.609 3.82715 44.6506 3.82715 44.7553 3.86878C44.86 3.9104 45.0265 3.99366 45.1748 4.09899C45.323 4.20432 45.4479 4.3292 45.955 4.45787" stroke="#FF6868" stroke-width="1.6" stroke-linecap="round"/>
<path d="M55.7949 5.97137C55.8782 5.97137 55.9614 5.97137 56.0876 5.95056C56.2137 5.92975 56.3802 5.88812 56.5493 5.80423C56.7183 5.72035 56.8848 5.59547 57.1825 5.4668" stroke="#FF6868" stroke-width="1.6" stroke-linecap="round"/>
<path d="M53.5244 13.2881C53.566 13.2881 53.6077 13.2881 53.6916 13.3505C53.7754 13.413 53.9003 13.5379 54.0063 13.6854C54.1122 13.833 54.1955 13.9995 54.4074 14.2972" stroke="#FF6868" stroke-width="1.6" stroke-linecap="round"/>
<path d="M42.3604 10.1974C42.4436 10.1974 42.5269 10.1974 42.6946 10.1974C42.8624 10.1974 43.1122 10.1974 43.3241 10.1766C43.536 10.1558 43.7025 10.1142 44.0002 10.0713" stroke="#FF6868" stroke-width="1.6" stroke-linecap="round"/>
<path d="M48.5415 14.2344C48.4999 14.3593 48.4583 14.4841 48.416 14.6317C48.3737 14.7793 48.3321 14.9458 48.1631 15.3697" stroke="#FF6868" stroke-width="1.6" stroke-linecap="round"/>
<path d="M56.1104 9.69336C56.1936 9.69336 56.2769 9.69336 56.4446 9.73499C56.6124 9.77661 56.8622 9.85987 57.1157 9.9652C57.3693 10.0705 57.619 10.1954 57.8764 10.3241" stroke="#FF6868" stroke-width="1.6" stroke-linecap="round"/>
</svg>
