<svg width="70" height="68" viewBox="0 0 70 68" fill="none" xmlns="http://www.w3.org/2000/svg">
<path d="M19.6658 26.6879C18.4822 26.6316 15.7501 26.855 14.4403 27.6515C13.3609 28.3079 11.8309 29.8635 10.8 31.0044C9.92744 31.9701 10.0606 33.3324 10.0009 36.369C9.97173 37.8553 10.6234 38.7353 11.1649 39.646C11.7148 40.5709 12.8371 41.2935 14.7413 42.2614C16.7049 43.2594 19.775 42.4362 20.9952 41.9825C23.4342 41.0758 24.4923 40.5056 25.2913 39.7944C26.2855 38.9094 26.6002 37.2106 27.0829 34.9159C27.6696 32.1266 27.1136 30.0443 26.972 29.5906C26.541 28.2092 24.6731 27.145 23.5927 26.9727C22.4876 26.7965 21.6032 26.5753 18.003 26.6018C16.9671 26.6094 16.3726 27.3104 15.6068 27.9056C14.0658 29.1034 14.2083 33.0868 14.8871 36.5412C15.0983 37.6159 15.7978 38.1691 16.364 38.5102C17.7317 39.3341 19.3179 37.3812 20.5987 36.3289C21.659 35.4578 22.0518 34.1391 22.3357 33.3733C22.5895 32.689 22.5651 31.528 22.143 31.1503C20.3524 29.5477 19.6692 35.7746 18.9606 36.1259C16.5537 37.3192 17.7335 31.7446 17.6483 32.3398C17.6193 32.6536 17.6193 32.9913 17.6755 33.2778C17.7318 33.5643 17.8444 33.7895 17.9604 34.0214" stroke="#AFECB2" stroke-width="6.72" stroke-linecap="round"/>
<path d="M37.3752 25.5392C35.2911 25.5392 29.6051 25.7643 27.5739 26.3041C26.1689 26.6774 26.0645 29.223 25.807 31.215C25.5682 33.0622 25.9469 34.7999 26.2871 35.737C26.7228 36.9371 27.9917 37.7571 28.8444 38.2151C29.8328 38.7458 30.833 39.0124 32.5317 39.1539C35.3395 39.3879 37.9363 38.5076 39.1574 37.231C40.6492 35.6715 40.387 33.8482 40.4732 32.6493C40.5795 31.1693 40.3904 29.2435 39.9632 27.9592C39.6445 27.0012 38.6884 26.1122 37.579 25.4275C36.1678 24.5564 34.7112 24.6319 33.1738 24.4878C30.6898 24.2549 26.9207 24.683 26.1217 25.3661C25.3566 26.0201 24.9833 27.1253 24.3028 28.7165C23.7147 30.0916 23.6189 31.5015 23.6172 34.2831C23.6162 35.9739 24.2977 37.075 24.7812 37.9857C25.3069 38.976 26.1157 39.6911 27.11 40.3179C27.9409 40.8416 29.1821 40.8304 33.9455 40.804C35.9539 40.7928 36.9147 39.8685 37.8834 39.2136C38.7211 38.6473 39.8686 37.7674 40.7836 36.6008C41.6807 35.457 41.806 33.5651 41.8955 31.742C41.9674 30.2789 39.9982 29.4106 38.4633 28.7531C36.7801 28.0322 33.9796 28.2679 31.4521 28.4368C29.9119 28.5397 29.3049 29.6289 28.8231 30.5063C27.558 32.8105 27.8246 34.5713 28.0216 35.5102C28.8022 39.231 36.1797 29.692 36.3229 29.4345C37.6174 27.1074 33.7374 35.6543 33.8491 36.1387C35.0421 35.4343 35.7806 34.411 36.3195 34.0119C36.577 33.9505 36.8021 34.1757 37.2046 34.4076" stroke="#AFECB2" stroke-width="6.72" stroke-linecap="round"/>
<path d="M47.2803 23.6774C43.2503 23.5069 41.318 23.6194 40.1497 23.9886C39.6699 24.1403 39.0975 24.5267 38.5296 25.1791C37.6917 26.1414 37.9002 30.0695 38.0981 32.626C38.237 34.421 39.0361 35.7248 39.6031 36.7489C40.1102 37.6647 41.2498 37.9453 42.8094 38.428C44.3488 38.9044 45.7982 38.3461 46.4796 38.0059C47.4588 37.5169 48.2422 36.4172 48.9832 35.2788C49.7613 34.0835 49.7805 32.4947 49.7541 28.9217C49.7481 28.1106 49.5008 27.7773 49.1043 27.4345C47.141 25.7372 44.2241 25.4988 42.8495 25.2413C41.9504 25.0729 38.33 25.0418 35.8579 25.7768C34.1645 26.2804 34.5473 29.2952 34.5174 32.2789C34.5003 33.9932 35.3966 34.8721 36.4173 36.2347C37.7362 37.9955 38.4085 38.6821 39.3175 39.082C40.5293 39.6152 43.7841 39.8793 46.3645 39.314C48.4049 38.8669 49.4906 37.7236 50.6588 36.9263C51.8069 36.1428 52.3933 34.9949 52.8785 33.6595C53.6451 31.5496 52.8538 28.0025 52.5118 27.0355C52.0017 25.5928 50.5821 24.8166 49.3601 24.276C48.2845 23.8001 45.8204 24.0185 43.478 24.867C42.6433 25.1693 42.2799 26.2868 41.9388 27.3365C41.6642 28.1815 41.8791 28.9609 42.0206 29.5851C42.0868 29.8767 42.2185 30.0968 42.4453 30.1283C43.0207 30.2084 43.5266 29.5357 43.8387 28.9686C44.3967 27.9547 41.202 35.3735 40.687 37.8251C40.5917 38.2785 40.629 38.5661 40.7978 38.4015C43.2851 35.9771 45.5168 32.6618 45.7155 32.4333C46.5199 31.5081 46.257 35.3291 46.3696 35.5295C46.5928 35.9269 47.108 34.6521 47.3639 34.1131C47.4508 33.8556 47.4508 33.6305 47.3664 33.3738C47.282 33.1171 47.1132 32.8357 46.5981 32.0342" stroke="#AFECB2" stroke-width="6.72" stroke-linecap="round"/>
<path d="M23.5 23.6935C23.7438 23.2017 24.9519 22.0627 25.5203 21.6902C26.0987 21.3111 26.7615 21.0685 27.4002 20.803C28.3086 20.4252 28.9607 20.3234 29.9341 20.1989C32.9081 19.8184 34.7087 20.6406 35.3134 20.8365C36.3736 21.18 37.7254 22.2011 38.2938 22.6274C38.8459 23.0415 39.4286 23.4423 40.2269 24.2758C40.4589 24.6132 40.6367 24.8985 40.8315 25.1816C40.9209 25.3242 40.9912 25.4648 41.17 25.716" stroke="#AFECB2" stroke-width="6.72" stroke-linecap="round"/>
<path d="M25.5 43.4512C25.748 43.8046 26.1004 44.3006 26.6688 44.6035C27.2286 44.9017 27.9099 45.0117 28.4784 45.1362C29.036 45.2584 29.6131 45.331 30.1815 45.3848C30.7949 45.4428 33.6005 45.5801 35.2909 45.4742C35.8851 45.4369 36.4256 45.0138 37.0824 44.6237C37.6689 44.1622 38.2352 43.6662 38.6977 43.134C38.8047 42.9913 38.91 42.8508 39.1251 42.5996" stroke="#AFECB2" stroke-width="6.72" stroke-linecap="round"/>
<path d="M27.4004 30.2754V30.5634" stroke="#0D0D0D" stroke-width="2.5" stroke-linecap="round"/>
<path d="M34.6006 30.0996V30.2916" stroke="#0D0D0D" stroke-width="2.5" stroke-linecap="round"/>
<path d="M25 37.6359C25.0826 37.3469 25.2902 37.0123 25.5817 36.7102C25.7634 36.5219 25.9582 36.5101 26.1349 36.5307C26.5715 36.5817 26.999 36.9467 27.3652 37.1452C27.6905 37.3216 27.9797 37.5934 28.3656 37.6153C28.8771 37.6443 29.397 36.9492 29.9073 36.5951C30.3729 36.2722 30.9806 36.1348 31.47 36.1658C32.0078 36.1998 32.2953 36.6339 32.7331 36.8741C32.9171 36.975 33.398 37.0104 34.0335 36.9795C34.5538 36.9541 34.7972 36.5526 35.4626 36.1264C36.4274 35.5085 37.0475 35.5719 37.4453 35.6444C37.6117 35.717 37.7793 35.8008 37.9354 35.8943C38.0089 35.9465 38.0708 36.0085 38.3222 36.1974" stroke="#0D0D0D" stroke-width="2" stroke-linecap="round"/>
<path d="M3.71671 0.788387C4.44082 1.02457 5.4572 2.13392 6.43977 4.2787C6.87817 5.23564 6.77019 6.58569 6.66223 7.93601C6.52979 9.59245 3.15836 10.9563 0.667603 11.9989C-0.305282 12.4061 4.99917 12.9556 7.34707 12.4414C8.69555 12.1462 9.74515 10.1022 10.2228 7.99565C11.0393 4.39456 9.46161 3.02142 8.51939 1.7868C7.93924 1.27029 7.35472 0.869493 6.34271 0.63092C5.6186 0.549805 4.467 0.549805 3.28051 0.549805" stroke="#FFF200" stroke-width="1.1" stroke-linecap="round"/>
<path d="M5.63939 1.09961C6.64004 1.71267 7.39805 2.28674 8.26339 3.11859C8.8153 3.64914 8.81868 4.63283 8.83682 6.40052C8.84549 7.24506 8.5781 7.88443 7.26947 9.37971C6.56303 10.1869 6.09149 10.5576 5.53777 10.9367C4.97439 11.3224 4.19181 11.5693 3.37831 11.8038C3.18711 11.8589 3.0159 11.8942 3.01331 11.9126C2.91676 12.5984 4.63354 11.2119 5.60102 10.7412C6.43084 10.3376 7.01853 9.33801 7.48723 8.48558C7.79992 7.91688 7.81698 6.66914 7.73092 5.72356C7.64195 4.74614 7.26532 3.73815 7.07453 3.05198C6.97267 2.68568 6.74685 2.36472 6.71055 2.34468C6.12398 2.02082 7.67699 3.37313 7.98756 3.75007C8.45156 4.31322 8.33546 5.14082 8.28413 5.62716C8.19328 6.48786 7.50797 7.05258 6.66234 8.06423C6.15221 8.67452 5.81359 9.18421 5.08929 10.0323C4.80296 10.3676 4.56925 10.6302 4.44741 10.7927C3.8397 11.603 6.81322 10.3063 6.72974 10.4493C6.59468 10.6807 5.92766 10.8782 5.69642 11.0077C5.58166 11.0719 6.11949 10.9216 6.58716 10.8122C6.68157 10.7901 6.47309 11.0602 6.43576 11.1528C6.39843 11.2454 6.53531 11.2097 6.55449 11.2449C6.78982 11.6767 5.57302 11.9289 5.24119 12.022C3.86089 12.4095 6.88269 10.7775 7.02112 10.614C7.39817 10.1685 6.91898 11.6408 6.88373 11.6966C6.64859 12.0686 7.33169 10.7418 7.55619 10.5062C7.693 10.3626 7.71329 11.0624 7.76462 11.2622C7.97437 12.0789 8.50759 9.91099 8.64551 9.71169C8.75152 9.55849 8.85393 10.1244 8.85393 10.2695C8.85393 10.7772 9.47195 8.47366 9.78667 7.60065C10.0806 6.78536 9.75401 5.50801 9.37396 4.89278C8.98368 4.26099 8.54492 3.70133 8.19858 3.12401C7.73479 2.35091 7.40324 1.93146 7.40168 1.78632C7.39099 0.786918 8.8166 2.72216 9.26716 3.15596C9.71996 3.59192 9.88984 4.13133 9.82296 4.18657C8.72651 5.09213 7.95801 2.94313 7.62722 2.5624C7.13422 1.99498 8.71291 4.09126 9.12924 5.06771C9.5681 6.09697 9.06339 7.70246 8.26961 9.19883C8.05099 9.61094 7.88957 10.0096 7.81854 10.0691C7.18068 10.6041 8.3002 8.14438 8.50759 6.88252C8.82988 4.92147 8.23384 4.09993 7.73247 3.41267C7.62022 3.2588 7.50797 3.15975 7.4893 3.03302C7.47064 2.9063 7.53908 2.76332 7.64277 2.68967C7.85008 2.54242 8.435 3.15217 9.1085 4.08963C9.54243 4.69362 9.57979 5.35637 9.47714 6.13028C9.262 7.75214 8.44123 8.20937 7.92275 8.7699C7.41541 9.31839 6.57679 9.72578 5.93543 10.0345C5.21585 10.3808 4.60658 10.9541 3.8102 11.2622C3.187 11.461 2.70274 11.6061 2.42692 11.624C2.28797 11.6419 2.15109 11.6776 2.21745 11.8227" stroke="#FFF200" stroke-width="1.1" stroke-linecap="round"/>
<path d="M60.9023 18.1191C61.0145 19.2403 61.1266 20.3614 61.2404 21.4435C61.3542 22.5255 61.4663 23.5346 61.5801 24.3347C61.6939 25.1347 61.8061 25.6953 61.9216 26.2729" stroke="#FFF200" stroke-width="1.6" stroke-linecap="round"/>
<path d="M56.4863 23.2152C58.3923 22.8788 60.2982 22.5425 61.6724 22.3132C63.0467 22.0839 63.8314 21.9717 64.516 21.8579C65.2006 21.7441 65.7612 21.632 66.6785 21.1768" stroke="#FFF200" stroke-width="1.6" stroke-linecap="round"/>
<path d="M62.9411 19.1387C61.9321 20.7083 60.9231 22.2779 60.2351 23.3107C59.5471 24.3435 59.2108 24.7919 58.8643 25.5937" stroke="#FFF200" stroke-width="1.6" stroke-linecap="round"/>
<path d="M58.1846 20.4971C60.8753 21.9545 63.566 23.412 65.2885 24.275C67.011 25.1379 67.6836 25.3621 68.3767 25.9329" stroke="#FFF200" stroke-width="1.6" stroke-linecap="round"/>
<path d="M10.3975 60.0996V66.5546" stroke="#FFF200" stroke-width="1.6" stroke-linecap="round"/>
<path d="M7 62.8174C8.56959 62.9295 10.1392 63.0416 11.2841 63.0994C12.429 63.1571 13.1017 63.1571 13.7948 62.8174" stroke="#FFF200" stroke-width="1.6" stroke-linecap="round"/>
</svg>
