<svg width="72" height="36" viewBox="0 0 72 36" fill="none" xmlns="http://www.w3.org/2000/svg">
<path d="M19.3262 11.3844C16.1216 9.33543 13.1149 7.46917 10.755 6.13351C8.23999 4.71005 5.97867 4.89534 4.13775 5.5572C3.45217 5.80369 2.99655 6.54017 2.54745 7.35555C2.08282 8.19912 2.26293 9.02775 2.37418 9.59248C2.7639 11.5709 5.88394 13.3969 7.24424 14.0155C7.45423 14.111 7.68776 14.1403 7.59848 14.1524C7.10834 14.219 6.40302 14.1606 5.86233 14.4359C4.82603 14.9635 4.6976 15.9678 4.50971 17.2551C4.43954 17.7359 4.81886 18.2408 5.36891 18.7937C5.83833 19.2655 8.02968 19.6647 10.59 20.1962C11.666 20.4195 9.25337 21.7974 8.65558 23.054C8.14745 24.1221 8.40459 25.1905 8.56414 25.7393C8.72467 26.2914 9.31078 26.7344 9.90979 27.0869C10.3521 27.2371 10.8006 27.3397 11.9177 27.5509C12.7713 27.6829 14.2071 27.8655 16.1116 27.9696" stroke="#C8E1FF" stroke-width="2.048" stroke-linecap="round"/>
<path d="M52.5632 7.25583C55.7835 5.23176 58.8046 3.38882 61.1748 2.07146C63.7007 0.66751 65.9605 0.870296 67.7963 1.54638C68.4799 1.79816 68.9298 2.53815 69.3726 3.35698C69.8307 4.20412 69.6442 5.03133 69.5286 5.59518C69.1236 7.5705 65.9895 9.37233 64.6244 9.98036C64.4137 10.0742 64.18 10.1017 64.2691 10.1146C64.7588 10.185 65.4645 10.132 66.0031 10.4115C67.0352 10.9471 67.1559 11.9524 67.3338 13.2411C67.4003 13.7223 67.017 14.2244 66.4627 14.7729C65.9897 15.2411 63.7953 15.6233 61.231 16.135C60.1533 16.35 62.5552 17.7465 63.1432 19.0077C63.6431 20.0797 63.3777 21.1461 63.2139 21.6936C63.0491 22.2445 62.4595 22.6829 61.8578 23.0308C61.4143 23.1776 60.9651 23.2767 59.8464 23.4792C58.9918 23.6047 57.5546 23.7761 55.6494 23.8654" stroke="#C8E1FF" stroke-width="2.048" stroke-linecap="round"/>
<path d="M24.6648 13.0609C23.4812 13.0047 20.7491 13.2281 19.4393 14.0245C18.3599 14.6809 16.8299 16.2365 15.799 17.3775C14.9265 18.3431 15.0597 19.7054 15 22.742C14.9708 24.2283 15.6225 25.1084 16.1639 26.0191C16.7139 26.944 17.8362 27.6666 19.7403 28.6344C21.7039 29.6325 24.774 28.8092 25.9942 28.3556C28.4332 27.4488 29.4913 26.8786 30.2903 26.1675C31.2846 25.2825 31.5993 23.5837 32.0819 21.289C32.6686 18.4997 32.1126 16.4173 31.9711 15.9637C31.54 14.5822 29.6721 13.518 28.5917 13.3458C27.4867 13.1696 26.6022 12.9484 23.002 12.9748C21.9661 12.9824 21.3716 13.6834 20.6058 14.2787C19.0649 15.4764 19.2074 19.4599 19.8861 22.9143C20.0973 23.9889 20.7968 24.5421 21.3631 24.8832C22.7307 25.7071 24.3169 23.7542 25.5977 22.702C26.658 21.8309 27.0508 20.5121 27.3347 19.7464C27.5885 19.062 27.5641 17.9011 27.142 17.5233C25.3514 15.9208 24.6683 22.1477 23.9596 22.499C21.5528 23.6923 22.7326 18.1177 22.6473 18.7129C22.6183 19.0267 22.6183 19.3643 22.6746 19.6509C22.7308 19.9374 22.8434 20.1625 22.9594 20.3945" stroke="#AFECB2" stroke-width="6.72" stroke-linecap="round"/>
<path d="M42.3742 11.9122C40.2901 11.9122 34.6041 12.1374 32.5729 12.6771C31.1679 13.0505 31.0636 15.596 30.806 17.588C30.5672 19.4352 30.9459 21.1729 31.2861 22.1101C31.7218 23.3102 32.9907 24.1302 33.8435 24.5881C34.8318 25.1189 35.832 25.3854 37.5307 25.527C40.3385 25.761 42.9353 24.8806 44.1564 23.604C45.6482 22.0445 45.3861 20.2213 45.4722 19.0223C45.5785 17.5423 45.3895 15.6165 44.9623 14.3323C44.6435 13.3743 43.6874 12.4853 42.578 11.8005C41.1668 10.9295 39.7103 11.0049 38.1728 10.8608C35.6888 10.628 31.9197 11.0561 31.1207 11.7391C30.3556 12.3932 29.9823 13.4983 29.3018 15.0895C28.7137 16.4647 28.6179 17.8745 28.6162 20.6562C28.6152 22.3469 29.2967 23.448 29.7802 24.3587C30.306 25.349 31.1147 26.0642 32.109 26.6909C32.9399 27.2147 34.1811 27.2034 38.9445 27.177C40.9529 27.1659 41.9137 26.2415 42.8824 25.5867C43.7201 25.0204 44.8676 24.1404 45.7826 22.9739C46.6798 21.8301 46.805 19.9382 46.8945 18.115C46.9664 16.652 44.9972 15.7836 43.4623 15.1262C41.7792 14.4052 38.9786 14.641 36.4511 14.8098C34.9109 14.9127 34.3039 16.0019 33.8222 16.8794C32.557 19.1836 32.8236 20.9444 33.0206 21.8832C33.8013 25.6041 41.1787 16.065 41.3219 15.8075C42.6165 13.4805 38.7364 22.0273 38.8482 22.5117C40.0411 21.8073 40.7796 20.7841 41.3185 20.385C41.576 20.3236 41.8012 20.5487 42.2037 20.7807" stroke="#AFECB2" stroke-width="6.72" stroke-linecap="round"/>
<path d="M52.2793 10.0505C48.2493 9.8799 46.317 9.99246 45.1488 10.3617C44.6689 10.5133 44.0965 10.8998 43.5286 11.5521C42.6908 12.5145 42.8993 16.4425 43.0971 18.999C43.236 20.794 44.0351 22.0978 44.6022 23.122C45.1092 24.0377 46.2488 24.3184 47.8084 24.801C49.3479 25.2774 50.7973 24.7191 51.4786 24.3789C52.4579 23.8899 53.2412 22.7903 53.9822 21.6519C54.7603 20.4565 54.7795 18.8677 54.7531 15.2947C54.7471 14.4837 54.4998 14.1504 54.1033 13.8076C52.14 12.1102 49.2231 11.8719 47.8485 11.6144C46.9495 11.4459 43.329 11.4148 40.857 12.1499C39.1635 12.6534 39.5463 15.6682 39.5165 18.652C39.4993 20.3662 40.3956 21.2451 41.4164 22.6078C42.7353 24.3685 43.4075 25.0551 44.3165 25.4551C45.5283 25.9882 48.7831 26.2524 51.3635 25.687C53.4039 25.2399 54.4896 24.0967 55.6578 23.2993C56.8059 22.5158 57.3923 21.3679 57.8775 20.0325C58.6441 17.9227 57.8528 14.3755 57.5108 13.4085C57.0007 11.9659 55.5811 11.1897 54.3591 10.6491C53.2836 10.1732 50.8194 10.3915 48.477 11.24C47.6423 11.5423 47.2789 12.6598 46.9378 13.7095C46.6632 14.5545 46.8781 15.334 47.0197 15.9582C47.0858 16.2497 47.2175 16.4698 47.4443 16.5014C48.0198 16.5814 48.5256 15.9087 48.8377 15.3416C49.3957 14.3277 46.201 21.7465 45.686 24.1981C45.5907 24.6515 45.628 24.9392 45.7969 24.7746C48.2841 22.3501 50.5159 19.0348 50.7146 18.8063C51.5189 17.8812 51.256 21.7022 51.3686 21.9026C51.5918 22.3 52.1071 21.0251 52.3629 20.4862C52.4499 20.2287 52.4499 20.0035 52.3655 19.7469C52.281 19.4902 52.1122 19.2088 51.5971 18.4072" stroke="#AFECB2" stroke-width="6.72" stroke-linecap="round"/>
<path d="M28.499 10.0665C28.7428 9.57476 29.9509 8.43579 30.5194 8.06323C31.0977 7.68418 31.7605 7.44159 32.3992 7.17601C33.3076 6.79826 33.9597 6.69647 34.9331 6.57192C37.9072 6.19143 39.7078 7.01368 40.3124 7.20954C41.3726 7.55301 42.7244 8.57417 43.2929 9.00049C43.8449 9.4145 44.4276 9.81533 45.2259 10.6488C45.458 10.9862 45.6357 11.2715 45.8305 11.5547C45.9199 11.6973 45.9902 11.8378 46.169 12.089" stroke="#AFECB2" stroke-width="6.72" stroke-linecap="round"/>
<path d="M30.499 29.8242C30.747 30.1776 31.0994 30.6737 31.6678 30.9765C32.2277 31.2748 32.909 31.3847 33.4774 31.5093C34.0351 31.6314 34.6121 31.7041 35.1805 31.7578C35.7939 31.8158 38.5996 31.9531 40.2899 31.8472C40.8842 31.81 41.4246 31.3869 42.0814 30.9967C42.6679 30.5353 43.2342 30.0392 43.6967 29.507C43.8037 29.3644 43.9091 29.2239 44.1241 28.9727" stroke="#AFECB2" stroke-width="6.72" stroke-linecap="round"/>
<path d="M32.3994 16.6484V16.9365" stroke="#0D0D0D" stroke-width="2.5" stroke-linecap="round"/>
<path d="M39.5996 16.4727V16.6647" stroke="#0D0D0D" stroke-width="2.5" stroke-linecap="round"/>
<path d="M29.999 24.009C30.0816 23.72 30.2892 23.3854 30.5807 23.0833C30.7624 22.8949 30.9572 22.8831 31.1339 22.9038C31.5705 22.9548 31.998 23.3197 32.3642 23.5183C32.6895 23.6947 32.9787 23.9664 33.3646 23.9883C33.8761 24.0173 34.396 23.3222 34.9064 22.9682C35.3719 22.6453 35.9796 22.5079 36.4691 22.5388C37.0069 22.5728 37.2943 23.007 37.7322 23.2471C37.9161 23.348 38.397 23.3835 39.0325 23.3525C39.5528 23.3272 39.7962 22.9257 40.4617 22.4994C41.4264 21.8815 42.0466 21.9449 42.4444 22.0175C42.6107 22.09 42.7784 22.1739 42.9344 22.2674C43.0079 22.3196 43.0698 22.3815 43.3213 22.5704" stroke="#0D0D0D" stroke-width="2" stroke-linecap="round"/>
</svg>
