<svg width="50" height="40" viewBox="0 0 50 40" fill="none" xmlns="http://www.w3.org/2000/svg">
<path d="M13.3566 13.9983C12.6722 13.3385 11.938 12.1804 11.2549 10.2245C10.9535 9.08675 10.744 7.65424 10.6327 6.73297C10.5214 5.8117 10.5147 5.4451 10.5078 5.06738" stroke="#1A1A1A" stroke-width="2" stroke-linecap="round"/>
<path d="M10.7852 5.0625C11.6394 6.24987 12.0789 6.73359 12.9397 7.44345C13.4102 7.83152 13.7733 8.18621 14.3322 8.54458C15.3844 9.13842 16.7917 9.82672 18.0038 10.3292C18.4766 10.509 18.6605 10.5362 19.0368 10.6534" stroke="#1A1A1A" stroke-width="2" stroke-linecap="round"/>
<path d="M34.3678 12.2633C35.0087 11.5612 35.6677 10.3586 36.2247 8.36318C36.4529 7.20855 36.5708 5.76559 36.6231 4.8391C36.6755 3.91262 36.6588 3.54633 36.6416 3.16895" stroke="#1A1A1A" stroke-width="2" stroke-linecap="round"/>
<path d="M36.3643 3.18164C35.5874 4.42104 35.1797 4.93178 34.3659 5.69505C33.921 6.11233 33.5813 6.48944 33.0463 6.8827C32.0341 7.54239 30.6736 8.31897 29.4959 8.89768C29.0355 9.10727 28.8538 9.14613 28.4857 9.28709" stroke="#1A1A1A" stroke-width="2" stroke-linecap="round"/>
<path d="M13.0262 16.8578C11.8426 16.8015 9.11042 17.025 7.80062 17.8214C6.72121 18.4778 5.19126 20.0334 4.16031 21.1744C3.2878 22.14 3.42099 23.5023 3.3613 26.5389C3.33208 28.0252 3.98379 28.9052 4.52528 29.8159C5.0752 30.7408 6.19749 31.4634 8.10164 32.4313C10.0652 33.4293 13.1353 32.6061 14.3556 32.1524C16.7946 31.2457 17.8526 30.6755 18.6516 29.9643C19.6459 29.0794 19.9606 27.3805 20.4432 25.0858C21.0299 22.2966 20.4739 20.2142 20.3324 19.7605C19.9013 18.3791 18.0334 17.3149 16.953 17.1426C15.848 16.9665 14.9636 16.7453 11.3633 16.7717C10.3274 16.7793 9.73292 17.4803 8.96716 18.0755C7.42618 19.2733 7.56868 23.2567 8.24746 26.7111C8.45863 27.7858 9.15817 28.339 9.72439 28.6801C11.092 29.504 12.6783 27.5511 13.9591 26.4988C15.0193 25.6277 15.4121 24.309 15.6961 23.5432C15.9498 22.8589 15.9255 21.6979 15.5034 21.3202C13.7127 19.7176 13.0296 25.9445 12.321 26.2959C9.91408 27.4891 11.0939 21.9145 11.0086 22.5097C10.9796 22.8235 10.9796 23.1612 11.0359 23.4477C11.0922 23.7343 11.2047 23.9594 11.3207 24.1913" stroke="#AFECB2" stroke-width="6.72" stroke-linecap="round"/>
<path d="M30.7355 15.7091C28.6515 15.7091 22.9654 15.9342 20.9342 16.474C19.5293 16.8474 19.4249 19.3929 19.1674 21.3849C18.9285 23.2321 19.3072 24.9698 19.6475 25.9069C20.0832 27.107 21.3521 27.9271 22.2048 28.385C23.1932 28.9157 24.1934 29.1823 25.892 29.3238C28.6999 29.5578 31.2966 28.6775 32.5177 27.4009C34.0095 25.8414 33.7474 24.0181 33.8335 22.8192C33.9398 21.3392 33.7508 19.4134 33.3236 18.1292C33.0049 17.1711 32.0487 16.2821 30.9393 15.5974C29.5281 14.7264 28.0716 14.8018 26.5341 14.6577C24.0501 14.4249 20.281 14.853 19.482 15.536C18.7169 16.19 18.3436 17.2952 17.6631 18.8864C17.0751 20.2615 16.9792 21.6714 16.9775 24.453C16.9765 26.1438 17.658 27.2449 18.1415 28.1556C18.6673 29.1459 19.4761 29.8611 20.4703 30.4878C21.3012 31.0116 22.5425 31.0003 27.3058 30.9739C29.3142 30.9627 30.2751 30.0384 31.2438 29.3835C32.0814 28.8172 33.2289 27.9373 34.1439 26.7708C35.0411 25.6269 35.1663 23.735 35.2559 21.9119C35.3277 20.4489 33.3585 19.5805 31.8236 18.9231C30.1405 18.2021 27.3399 18.4378 24.8125 18.6067C23.2722 18.7096 22.6653 19.7988 22.1835 20.6763C20.9183 22.9805 21.1849 24.7412 21.3819 25.6801C22.1626 29.401 29.54 19.8619 29.6833 19.6044C30.9778 17.2774 27.0978 25.8242 27.2095 26.3086C28.4025 25.6042 29.1409 24.5809 29.6798 24.1819C29.9374 24.1205 30.1625 24.3456 30.565 24.5775" stroke="#AFECB2" stroke-width="6.72" stroke-linecap="round"/>
<path d="M40.6406 13.8473C36.6106 13.6768 34.6783 13.7893 33.5101 14.1586C33.0303 14.3102 32.4578 14.6966 31.8899 15.349C31.0521 16.3113 31.2606 20.2394 31.4584 22.7959C31.5973 24.5909 32.3964 25.8947 32.9635 26.9189C33.4705 27.8346 34.6101 28.1152 36.1698 28.5979C37.7092 29.0743 39.1586 28.516 39.8399 28.1758C40.8192 27.6868 41.6025 26.5871 42.3436 25.4487C43.1216 24.2534 43.1409 22.6646 43.1144 19.0916C43.1084 18.2806 42.8612 17.9473 42.4646 17.6045C40.5013 15.9071 37.5845 15.6688 36.2098 15.4112C35.3108 15.2428 31.6904 15.2117 29.2183 15.9467C27.5248 16.4503 27.9076 19.4651 27.8778 22.4488C27.8606 24.1631 28.757 25.042 29.7777 26.4047C31.0966 28.1654 31.7688 28.852 32.6778 29.2519C33.8897 29.7851 37.1444 30.0492 39.7248 29.4839C41.7652 29.0368 42.8509 27.8935 44.0192 27.0962C45.1672 26.3127 45.7536 25.1648 46.2388 23.8294C47.0054 21.7195 46.2141 18.1724 45.8722 17.2054C45.362 15.7628 43.9424 14.9866 42.7205 14.4459C41.6449 13.9701 39.1808 14.1884 36.8383 15.0369C36.0036 15.3392 35.6402 16.4567 35.2991 17.5064C35.0246 18.3514 35.2394 19.1309 35.381 19.7551C35.4471 20.0466 35.5788 20.2667 35.8057 20.2982C36.3811 20.3783 36.8869 19.7056 37.199 19.1385C37.7571 18.1246 34.5624 25.5434 34.0473 27.995C33.9521 28.4484 33.9893 28.736 34.1582 28.5715C36.6454 26.147 38.8772 22.8317 39.0759 22.6032C39.8802 21.678 39.6174 25.4991 39.7299 25.6994C39.9531 26.0968 40.4684 24.822 40.7242 24.2831C40.8112 24.0255 40.8112 23.8004 40.7268 23.5437C40.6424 23.2871 40.4735 23.0057 39.9585 22.2041" stroke="#AFECB2" stroke-width="6.72" stroke-linecap="round"/>
<path d="M16.8604 13.8634C17.1041 13.3716 18.3123 12.2327 18.8807 11.8601C19.459 11.4811 20.1219 11.2385 20.7605 10.9729C21.6689 10.5951 22.321 10.4933 23.2945 10.3688C26.2685 9.9883 28.0691 10.8106 28.6737 11.0064C29.734 11.3499 31.0858 12.371 31.6542 12.7974C32.2062 13.2114 32.7889 13.6122 33.5872 14.4457C33.8193 14.7831 33.9971 15.0684 34.1919 15.3515C34.2813 15.4942 34.3515 15.6347 34.5304 15.8859" stroke="#AFECB2" stroke-width="6.72" stroke-linecap="round"/>
<path d="M18.8604 33.6211C19.1084 33.9745 19.4607 34.4705 20.0291 34.7734C20.589 35.0717 21.2703 35.1816 21.8387 35.3061C22.3964 35.4283 22.9734 35.5009 23.5418 35.5547C24.1553 35.6127 26.9609 35.75 28.6512 35.6441C29.2455 35.6069 29.7859 35.1837 30.4427 34.7936C31.0292 34.3322 31.5955 33.8361 32.058 33.3039C32.165 33.1613 32.2704 33.0207 32.4854 32.7695" stroke="#AFECB2" stroke-width="6.72" stroke-linecap="round"/>
<path d="M20.7607 20.4453V20.7334" stroke="#0D0D0D" stroke-width="2.5" stroke-linecap="round"/>
<path d="M27.9609 20.2695V20.4616" stroke="#0D0D0D" stroke-width="2.5" stroke-linecap="round"/>
<path d="M18.3604 27.8058C18.4429 27.5169 18.6506 27.1822 18.942 26.8802C19.1237 26.6918 19.3185 26.68 19.4952 26.7006C19.9318 26.7516 20.3593 27.1166 20.7255 27.3152C21.0508 27.4915 21.34 27.7633 21.7259 27.7852C22.2375 27.8142 22.7573 27.1191 23.2677 26.7651C23.7332 26.4422 24.341 26.3047 24.8304 26.3357C25.3682 26.3697 25.6557 26.8038 26.0935 27.044C26.2774 27.1449 26.7584 27.1804 27.3938 27.1494C27.9141 27.1241 28.1575 26.7225 28.823 26.2963C29.7877 25.6784 30.4079 25.7418 30.8057 25.8144C30.9721 25.8869 31.1397 25.9707 31.2957 26.0642C31.3692 26.1165 31.4311 26.1784 31.6826 26.3673" stroke="#0D0D0D" stroke-width="2" stroke-linecap="round"/>
</svg>
