<svg width="50" height="47" viewBox="0 0 50 47" fill="none" xmlns="http://www.w3.org/2000/svg">
<path d="M13.0262 24.1576C11.8426 24.1013 9.11042 24.3248 7.80062 25.1212C6.72121 25.7776 5.19126 27.3332 4.16031 28.4742C3.2878 29.4398 3.42099 30.8021 3.3613 33.8387C3.33208 35.325 3.98379 36.205 4.52528 37.1158C5.0752 38.0407 6.19749 38.7632 8.10164 39.7311C10.0652 40.7291 13.1353 39.9059 14.3556 39.4522C16.7946 38.5455 17.8526 37.9753 18.6516 37.2641C19.6459 36.3792 19.9606 34.6803 20.4432 32.3856C21.0299 29.5964 20.4739 27.514 20.3324 27.0603C19.9013 25.6789 18.0334 24.6147 16.953 24.4424C15.848 24.2663 14.9636 24.0451 11.3633 24.0715C10.3274 24.0791 9.73292 24.7801 8.96716 25.3753C7.42618 26.5731 7.56868 30.5565 8.24746 34.011C8.45863 35.0856 9.15817 35.6388 9.72439 35.9799C11.092 36.8038 12.6783 34.8509 13.9591 33.7986C15.0193 32.9275 15.4121 31.6088 15.6961 30.8431C15.9498 30.1587 15.9255 28.9977 15.5034 28.62C13.7127 27.0174 13.0296 33.2444 12.321 33.5957C9.91408 34.789 11.0939 29.2143 11.0086 29.8095C10.9796 30.1234 10.9796 30.461 11.0359 30.7475C11.0922 31.0341 11.2047 31.2592 11.3207 31.4911" stroke="#AFECB2" stroke-width="6.72" stroke-linecap="round"/>
<path d="M30.7355 23.0089C28.6515 23.0089 22.9654 23.234 20.9342 23.7738C19.5293 24.1472 19.4249 26.6927 19.1674 28.6847C18.9285 30.5319 19.3072 32.2696 19.6475 33.2067C20.0832 34.4068 21.3521 35.2269 22.2048 35.6848C23.1932 36.2155 24.1934 36.4821 25.892 36.6237C28.6999 36.8577 31.2966 35.9773 32.5177 34.7007C34.0095 33.1412 33.7474 31.3179 33.8335 30.119C33.9398 28.639 33.7508 26.7132 33.3236 25.429C33.0049 24.4709 32.0487 23.5819 30.9393 22.8972C29.5281 22.0262 28.0716 22.1016 26.5341 21.9575C24.0501 21.7247 20.281 22.1528 19.482 22.8358C18.7169 23.4898 18.3436 24.595 17.6631 26.1862C17.0751 27.5613 16.9792 28.9712 16.9775 31.7528C16.9765 33.4436 17.658 34.5447 18.1415 35.4554C18.6673 36.4457 19.4761 37.1609 20.4703 37.7876C21.3012 38.3114 22.5425 38.3001 27.3058 38.2737C29.3142 38.2625 30.2751 37.3382 31.2438 36.6833C32.0814 36.117 33.2289 35.2371 34.1439 34.0706C35.0411 32.9267 35.1663 31.0348 35.2559 29.2117C35.3277 27.7487 33.3585 26.8803 31.8236 26.2229C30.1405 25.5019 27.3399 25.7377 24.8125 25.9065C23.2722 26.0094 22.6653 27.0986 22.1835 27.9761C20.9183 30.2803 21.1849 32.0411 21.3819 32.9799C22.1626 36.7008 29.54 27.1617 29.6833 26.9042C30.9778 24.5772 27.0978 33.124 27.2095 33.6084C28.4025 32.904 29.1409 31.8807 29.6798 31.4817C29.9374 31.4203 30.1625 31.6454 30.565 31.8773" stroke="#AFECB2" stroke-width="6.72" stroke-linecap="round"/>
<path d="M40.6406 21.1471C36.6106 20.9766 34.6783 21.0891 33.5101 21.4584C33.0303 21.61 32.4578 21.9964 31.8899 22.6488C31.0521 23.6111 31.2606 27.5392 31.4584 30.0957C31.5973 31.8907 32.3964 33.1945 32.9635 34.2187C33.4705 35.1344 34.6101 35.415 36.1698 35.8977C37.7092 36.3741 39.1586 35.8158 39.8399 35.4756C40.8192 34.9866 41.6025 33.8869 42.3436 32.7485C43.1216 31.5532 43.1409 29.9644 43.1144 26.3914C43.1084 25.5804 42.8612 25.2471 42.4646 24.9043C40.5013 23.2069 37.5845 22.9686 36.2098 22.711C35.3108 22.5426 31.6904 22.5115 29.2183 23.2465C27.5248 23.7501 27.9076 26.7649 27.8778 29.7486C27.8606 31.4629 28.757 32.3418 29.7777 33.7045C31.0966 35.4652 31.7688 36.1518 32.6778 36.5517C33.8897 37.0849 37.1444 37.3491 39.7248 36.7837C41.7652 36.3366 42.8509 35.1933 44.0192 34.396C45.1672 33.6125 45.7536 32.4646 46.2388 31.1292C47.0054 29.0193 46.2141 25.4722 45.8722 24.5052C45.362 23.0626 43.9424 22.2864 42.7205 21.7457C41.6449 21.2699 39.1808 21.4882 36.8383 22.3367C36.0036 22.639 35.6402 23.7565 35.2991 24.8062C35.0246 25.6512 35.2394 26.4307 35.381 27.0549C35.4471 27.3464 35.5788 27.5665 35.8057 27.598C36.3811 27.6781 36.8869 27.0054 37.199 26.4383C37.7571 25.4244 34.5624 32.8432 34.0473 35.2948C33.9521 35.7482 33.9893 36.0358 34.1582 35.8713C36.6454 33.4468 38.8772 30.1315 39.0759 29.903C39.8802 28.9778 39.6174 32.7989 39.7299 32.9992C39.9531 33.3966 40.4684 32.1218 40.7242 31.5829C40.8112 31.3253 40.8112 31.1002 40.7268 30.8435C40.6424 30.5869 40.4735 30.3055 39.9585 29.5039" stroke="#AFECB2" stroke-width="6.72" stroke-linecap="round"/>
<path d="M16.8604 21.1632C17.1041 20.6714 18.3123 19.5325 18.8807 19.1599C19.459 18.7809 20.1219 18.5383 20.7605 18.2727C21.6689 17.8949 22.321 17.7931 23.2945 17.6686C26.2685 17.2881 28.0691 18.1104 28.6737 18.3062C29.734 18.6497 31.0858 19.6708 31.6542 20.0972C32.2062 20.5112 32.7889 20.912 33.5872 21.7455C33.8193 22.0829 33.9971 22.3682 34.1919 22.6513C34.2813 22.794 34.3515 22.9345 34.5304 23.1857" stroke="#AFECB2" stroke-width="6.72" stroke-linecap="round"/>
<path d="M18.8604 40.9209C19.1084 41.2743 19.4607 41.7703 20.0291 42.0732C20.589 42.3715 21.2703 42.4814 21.8387 42.6059C22.3964 42.7281 22.9734 42.8007 23.5418 42.8545C24.1553 42.9125 26.9609 43.0498 28.6512 42.9439C29.2455 42.9067 29.7859 42.4835 30.4427 42.0934C31.0292 41.632 31.5955 41.1359 32.058 40.6037C32.165 40.4611 32.2704 40.3205 32.4854 40.0693" stroke="#AFECB2" stroke-width="6.72" stroke-linecap="round"/>
<path d="M20.7607 27.7451V28.0332" stroke="#0D0D0D" stroke-width="2.5" stroke-linecap="round"/>
<path d="M27.9609 27.5693V27.7614" stroke="#0D0D0D" stroke-width="2.5" stroke-linecap="round"/>
<path d="M18.3604 35.1056C18.4429 34.8167 18.6506 34.482 18.942 34.18C19.1237 33.9916 19.3185 33.9798 19.4952 34.0004C19.9318 34.0514 20.3593 34.4164 20.7255 34.615C21.0508 34.7914 21.34 35.0631 21.7259 35.085C22.2375 35.114 22.7573 34.4189 23.2677 34.0649C23.7332 33.742 24.341 33.6045 24.8304 33.6355C25.3682 33.6695 25.6557 34.1036 26.0935 34.3438C26.2774 34.4447 26.7584 34.4802 27.3938 34.4492C27.9141 34.4239 28.1575 34.0223 28.823 33.5961C29.7877 32.9782 30.4079 33.0416 30.8057 33.1142C30.9721 33.1867 31.1397 33.2705 31.2957 33.364C31.3692 33.4163 31.4311 33.4782 31.6826 33.6671" stroke="#0D0D0D" stroke-width="2" stroke-linecap="round"/>
<path d="M22.9562 1.91184C21.6481 2.03061 20.0769 2.21966 18.5348 2.46475C17.5062 2.62825 17.0522 2.80685 16.636 2.97335C15.7247 3.33798 15.0294 3.76878 14.4887 4.03492C12.9118 4.81113 12.8439 5.39805 12.6269 5.78524C12.2061 6.53611 12.5479 7.6489 12.8558 8.00071C13.2202 8.41699 14.8799 8.79958 17.0367 9.35964C18.0322 9.61814 18.859 9.7461 19.9813 9.84677C21.1036 9.94745 22.5047 9.99694 23.396 10.0077C24.6271 10.0226 25.2916 9.89189 26.6426 9.68985C27.673 9.53575 29.423 9.35326 30.5284 9.20789C32.0538 9.0073 32.9114 8.70022 33.6876 8.33577C34.8181 7.80499 35.246 7.0916 35.6264 5.89073C35.7764 5.41721 35.6585 5.06716 35.555 4.79487C35.3721 4.31345 34.4924 3.86732 32.9118 3.27272C32.0776 2.95891 30.5149 2.71937 29.1553 2.48166C27.7958 2.24395 26.6384 2.10752 25.885 2.03376C24.8176 1.95305 24.3977 1.92529 24.0586 1.8898C23.8157 1.87491 23.429 1.86635 22.9587 1.79998" stroke="#FFDE09" stroke-width="3.6" stroke-linecap="round"/>
</svg>
