<svg width="43" height="43" viewBox="0 0 43 43" fill="none" xmlns="http://www.w3.org/2000/svg">
<path d="M5.74547 34.3713C5.32939 27.7909 5.604 24.8845 6.84706 21.1793C9.09242 14.4865 11.0131 13.8499 11.9472 12.843C13.5006 11.1685 15.5818 10.6585 19.8363 9.92829C26.1087 8.8517 27.719 10.3048 29.0422 10.929C30.3308 11.5368 31.6677 14.0371 34.3775 18.3364C35.7078 20.447 36.1864 22.0884 36.6732 24.5142C36.744 25.6917 36.8126 26.5322 36.9166 28.0811C36.952 29.3554 36.952 31.621 36.952 33.9552" stroke="#E0D0FF" stroke-width="7.2" stroke-linecap="round"/>
<path d="M5.74512 35.6197C6.43583 36.8638 7.40531 38.1121 8.82313 38.6696C11.636 39.7758 13.2264 37.9123 14.4445 37.2518C15.4812 36.6896 15.8685 35.7612 16.1795 35.4481C16.8348 34.7884 17.8033 37.2091 19.2284 38.2171C20.3223 38.9908 22.8588 38.7403 24.8102 38.1193C26.2268 37.6686 26.6868 36.1107 27.2402 35.24C27.8487 34.2826 29.1791 36.6557 30.3244 37.4546C32.2588 38.804 35.9739 37.3589 37.1212 36.6277C37.3741 36.4665 37.5716 36.248 37.7464 36.0046C39.9114 32.989 38.0626 25.7792 37.9232 24.3905C37.785 23.0134 37.2304 21.9637 36.884 20.7841C36.437 19.2617 35.8449 18.2189 35.1167 17.108C34.4197 16.0446 33.5564 15.0983 32.7939 14.1943C32.0316 13.2906 30.9226 12.7391 29.7097 11.9402C28.6327 11.2308 27.0446 11.0705 25.4468 10.8979C24.0771 10.7498 22.8089 11.0685 21.9101 11.6551C19.831 13.0123 19.1348 14.4617 17.8855 15.4707C16.3801 16.6865 14.4913 18.8306 12.6865 20.3919C10.8119 22.0137 9.49407 24.8597 8.41849 28.3257C7.93405 29.8867 7.82555 31.7251 8.10017 33.4581C8.27686 34.5731 10.7257 34.3714 12.7354 34.2685C14.5255 34.1767 15.311 31.954 16.2472 30.4602C17.9419 27.7561 18.2902 24.8888 18.8852 22.5202C19.3432 20.6967 20.096 18.4374 20.7201 15.8389C20.9633 14.8264 20.9323 14.4076 20.486 15.1222C18.952 17.5788 17.1979 21.1107 15.5346 23.6052C14.1315 25.7095 13.6549 27.223 13.1671 28.3683C12.8766 29.0502 12.4732 29.859 12.2652 30.1752C11.0291 32.054 13.501 24.893 14.8949 23.0019C15.102 22.7208 15.4483 22.6544 15.6584 22.721C16.8689 23.1045 16.9753 27.4789 17.7024 31.4328C17.9402 32.7258 18.2236 32.5032 18.8103 31.4703C20.4279 28.6222 21.623 26.2619 22.1077 26.0154C22.9848 25.5693 22.5966 29.1558 22.9056 30.2074C23.0458 30.6849 23.8324 27.5518 24.1507 28.2726C24.469 28.9935 24.469 32.7695 24.4347 32.4834C23.8688 27.7675 24.3297 22.6565 24.5023 22.0656C24.5842 21.7854 25.0911 23.9547 25.4375 25.9675C25.4899 26.2722 25.9233 22.6149 26.304 18.1721C26.3424 17.7243 26.8262 21.4457 26.9645 25.6398C27.0238 27.4354 27.1736 23.1142 27.2079 16.591C27.2181 14.6673 27.3109 15.5601 27.1747 18.972C27.0384 22.384 26.6951 28.2882 26.8272 30.403C26.9896 33.0023 29.3872 26.0642 30.3567 24.3604C30.8441 23.5037 31.7464 29.3451 32.3705 33.5143C32.8814 36.9267 32.9988 27.1003 32.9988 25.6773C32.9988 23.9124 33.831 31.2445 33.831 31.1509C33.831 25.1577 33.4149 22.2425 33.2422 20.8538C33.199 20.5062 33.2069 20.1621 33.1039 20.0882C32.3177 19.5244 29.9656 22.8417 27.5627 25.3819C25.3956 27.6728 24.4108 30.0566 23.1896 32.2494C22.6988 33.1306 22.2513 33.9512 22.0433 34.0604C21.768 34.2049 21.9725 32.7279 21.7666 32.4377C21.3924 31.9104 20.587 33.4664 20.3789 33.8149C19.8435 34.7116 19.9628 31.8083 19.6175 31.3236C19.4459 31.0828 19.1348 30.9762 18.8904 31.0084C18.6459 31.0406 18.4399 31.2466 18.5741 31.3184C18.7083 31.3902 19.1889 31.3215 19.5395 31.1488C19.89 30.9762 20.096 30.7015 20.9323 30.4186" stroke="#E0D0FF" stroke-width="7.2" stroke-linecap="round"/>
<path d="M14.5329 19.9316C14.1154 20.617 13.818 21.2719 13.5483 21.8856C13.3325 22.3766 13.1604 22.8559 13.0103 23.3343C12.8559 23.8266 12.802 24.3789 12.6372 24.8574C12.4689 25.3456 12.2645 25.8124 12.1144 26.2908C11.9687 26.7553 11.9652 27.2458 11.8604 27.7243C11.7513 28.2224 11.7556 28.828 11.6069 29.9578C11.1344 33.5472 11.666 34.0548 11.7699 34.5332C11.9643 35.0116 12.1426 35.37 12.3514 35.6083C12.4418 35.7283 12.501 35.8466 12.7411 35.9684" stroke="#E0D0FF" stroke-width="7.2" stroke-linecap="round"/>
<path d="M17.2646 27.1201C18.2258 27.7035 19.1505 27.7938 19.9553 27.6375C20.1522 27.5701 20.3641 27.4812 20.544 27.4131C20.7238 27.3451 20.865 27.3006 21.2246 26.9854" stroke="#0D0D0D" stroke-width="1.8" stroke-linecap="round"/>
<path d="M26.542 26.7773C27.5031 27.3607 28.4278 27.451 29.2326 27.2947C29.4296 27.2273 29.6415 27.1384 29.8213 27.0704C30.0011 27.0023 30.1424 26.9579 30.502 26.6426" stroke="#0D0D0D" stroke-width="1.8" stroke-linecap="round"/>
<path d="M20.9502 33.2137C21.2418 33.1047 21.901 32.8109 22.5799 32.5908C23.161 32.4025 23.7717 32.3707 26.46 32.3696C27.183 32.4786 27.5142 32.5897 27.862 32.6629C28.0281 32.6998 28.1734 32.7361 28.6532 32.8835" stroke="#0D0D0D" stroke-width="1.8" stroke-linecap="round"/>
<path d="M9.83894 16.497C9.92829 13.4925 10.2706 11.388 10.4865 10.2767C10.6242 9.56793 11.2368 8.32363 12.3428 6.67275C14.6032 3.29857 17.3638 2.68048 18.3763 2.48738C20.1016 2.15835 22.8342 1.93949 23.8788 2.01415C25.1626 2.1059 26.0582 2.15217 26.9473 2.17126C28.3157 2.20064 29.5975 2.96538 30.4403 3.43332C31.3758 3.95274 32.2755 4.81502 32.9142 5.65068C33.5036 6.4219 34.0209 7.11915 34.3558 7.86791C34.6851 8.60435 34.9757 10.6344 35.0605 13.2304C35.0922 14.1985 34.5443 14.4359 34.2159 14.5991C33.2303 15.0888 32.3104 15.1432 31.315 15.4568C29.2643 16.1027 26.7835 16.2331 23.7881 16.7566C21.6635 17.1279 17.662 17.4991 15.4371 17.7353C12.0938 18.0903 10.7164 18.0676 9.39772 18.1475C8.50861 18.2014 7.51812 18.0496 6.33493 18.0391C5.17185 18.0288 4.07363 17.6178 3.16017 17.4031C2.74615 17.3058 2.34024 17.1302 2.09567 16.9383C1.49926 16.4701 3.88695 15.7214 4.81374 15.193C5.61261 14.7376 6.60247 14.515 7.48083 14.241C7.69211 14.1425 7.87301 14.0239 8.13433 13.9431C8.39564 13.8623 8.7319 13.823 9.07834 13.7824" stroke="#37A2FF" stroke-width="4" stroke-linecap="round"/>
<path d="M16.3776 5.54966C14.332 8.19154 13.1011 10.3071 12.4976 12.2917C12.1834 13.325 12.1608 14.059 12.2777 14.024C13.245 13.7336 13.4704 11.8472 14.2232 10.7283C15.9251 8.199 18.4473 4.82623 19.4613 3.76309C19.6505 3.5647 19.4178 5.42678 18.6627 7.77437C17.425 11.6226 14.4798 13.637 13.5674 14.2883C13.2126 14.5416 12.6067 14.8922 12.3715 15.0201C12.1878 15.12 13.3178 14.4253 14.8418 13.1939C16.3658 11.9626 18.6187 9.99442 20.0338 8.65853C21.4489 7.32264 21.9578 6.6787 22.2836 6.26648C22.7367 5.69327 21.2561 7.56656 18.3493 11.0515C15.2643 14.7501 14.0442 15.4115 13.4942 16.1894C13.245 16.5417 15.7386 14.2052 19.8125 10.3593C21.7809 8.50097 22.4721 7.64255 23.1401 6.82651C23.3056 6.6244 23.41 6.40239 23.4317 6.15342C23.4535 5.90444 23.3717 5.62185 23.1049 5.42953C22.8382 5.23722 22.389 5.14374 22.2749 5.0575C21.3349 4.34727 25.9605 4.71957 27.5736 4.80365C28.5795 4.85608 29.7838 5.00962 31.0987 5.49532C32.3487 5.95708 32.7559 7.65706 33.1209 8.87153C33.5791 10.396 32.9495 11.3765 32.3869 12.2304C31.9675 12.867 30.6571 13.1723 28.2 13.7057C23.9087 14.6374 20.752 14.7277 20.0411 14.7372C18.8891 14.7526 17.6681 14.8425 17.122 14.6143C16.1482 14.2074 18.7057 12.4633 19.8804 11.3931C22.9659 8.58221 25.9225 6.00781 26.2699 5.6233C26.4348 5.44084 26.6287 5.33486 26.6708 5.66932C26.9965 8.25588 24.7398 10.5127 24.2624 11.3374C23.0383 13.4518 27.7314 8.00939 27.9437 7.93287C29.3697 7.41913 27.29 10.9061 27.139 11.7649C26.852 13.3969 29.151 9.21989 29.6166 8.79793C29.8744 8.56429 30.1133 8.22624 30.3612 8.85017C30.6092 9.47409 30.8429 11.0537 29.6338 11.95C24.0819 16.0661 22.1389 13.1384 21.5793 13.1796C21.3085 13.1995 21.0621 13.1671 21.3608 12.8392C21.6596 12.5113 22.5104 11.876 23.0688 11.5347C23.6272 11.1934 23.8674 11.1652 24.1149 11.1363" stroke="#37A2FF" stroke-width="4" stroke-linecap="round"/>
<path d="M20.2939 3.91748L20.3245 4.17808" stroke="white" stroke-width="2" stroke-linecap="round"/>
<path d="M29.375 5.89209L29.5053 5.87683" stroke="white" stroke-width="2" stroke-linecap="round"/>
<path d="M24.0312 8.76318L24.0618 9.02378" stroke="white" stroke-width="2" stroke-linecap="round"/>
<path d="M13.5547 8.40527L13.685 8.39001" stroke="white" stroke-width="2" stroke-linecap="round"/>
<path d="M3.8291 16.4658L4.16038 16.427" stroke="white" stroke-width="2" stroke-linecap="round"/>
<path d="M10.6865 17.6772L10.7124 17.8981" stroke="white" stroke-width="2" stroke-linecap="round"/>
<path d="M22.3848 17.2029L22.2873 17.3262" stroke="white" stroke-width="2" stroke-linecap="round"/>
<path d="M16.5068 16.3062L16.574 16.2983" stroke="white" stroke-width="2" stroke-linecap="round"/>
<path d="M31.7109 14.5088L31.7267 14.6432" stroke="white" stroke-width="2" stroke-linecap="round"/>
<path d="M8.41797 12.2129C8.97696 12.4566 10.649 13.1458 12.2289 13.4978C13.2866 13.7335 14.551 13.803 15.5093 13.8034C16.2469 13.8037 16.9561 13.8332 18.0712 13.8805C18.6931 13.9069 19.1902 13.9274 21.0444 13.7769C22.7235 13.6406 25.8872 13.2324 27.6247 13.0069C30.0233 12.6956 31.3888 12.3215 32.4318 12.0668C33.3763 11.7782 34.1535 11.5979 34.8402 11.3849C35.0112 11.3202 35.1797 11.2565 35.7169 10.8817" stroke="#078BFF" stroke-width="4" stroke-linecap="round"/>
</svg>
