<svg width="42" height="43" viewBox="0 0 42 43" fill="none" xmlns="http://www.w3.org/2000/svg">
<path d="M4.64781 34.1448C4.23173 27.5643 4.50634 24.658 5.74941 20.9527C7.99476 14.2599 9.91547 13.6233 10.8496 12.6164C12.4029 10.942 14.4841 10.432 18.7386 9.70172C25.011 8.62513 26.6214 10.0783 27.9445 10.7024C29.2332 11.3103 30.57 13.8106 33.2798 18.1098C34.6101 20.2204 35.0888 21.8619 35.5756 24.2877C35.6463 25.4652 35.715 26.3057 35.819 27.8546C35.8543 29.1288 35.8543 31.3944 35.8543 33.7287" stroke="#E0D0FF" stroke-width="7.2" stroke-linecap="round"/>
<path d="M4.64746 35.3931C5.33817 36.6372 6.30765 37.8855 7.72547 38.443C10.5384 39.5492 12.1287 37.6858 13.3468 37.0252C14.3836 36.463 14.7709 35.5346 15.0819 35.2215C15.7371 34.5619 16.7057 36.9826 18.1308 37.9906C19.2246 38.7642 21.7611 38.5138 23.7126 37.8928C25.1291 37.442 25.5891 35.8841 26.1425 35.0134C26.7511 34.056 28.0815 36.4292 29.2268 37.2281C31.1612 38.5774 34.8762 37.1324 36.0236 36.4011C36.2764 36.2399 36.474 36.0214 36.6487 35.778C38.8137 32.7625 36.965 25.5527 36.8256 24.164C36.6873 22.7868 36.1328 21.7371 35.7864 20.5575C35.3393 19.0351 34.7472 17.9924 34.0191 16.8814C33.3221 15.818 32.4587 14.8717 31.6962 13.9678C30.9339 13.064 29.8249 12.5125 28.612 11.7136C27.535 11.0042 25.947 10.844 24.3492 10.6713C22.9795 10.5233 21.7112 10.8419 20.8125 11.4286C18.7334 12.7858 18.0372 14.2351 16.7878 15.2441C15.2824 16.46 13.3936 18.604 11.5888 20.1654C9.71423 21.7872 8.39641 24.6331 7.32083 28.0991C6.8364 29.6602 6.7279 31.4985 7.00252 33.2316C7.17921 34.3466 9.62803 34.1449 11.6377 34.0419C13.4278 33.9502 14.2133 31.7274 15.1495 30.2336C16.8442 27.5296 17.1925 24.6622 17.7875 22.2937C18.2456 20.4701 18.9983 18.2108 19.6224 15.6123C19.8656 14.5999 19.8346 14.181 19.3884 14.8956C17.8543 17.3523 16.1003 20.8842 14.437 23.3786C13.0338 25.4829 12.5573 26.9965 12.0694 28.1418C11.7789 28.8237 11.3756 29.6324 11.1675 29.9486C9.93147 31.8274 12.4033 24.6664 13.7972 22.7753C14.0043 22.4943 14.3506 22.4279 14.5607 22.4944C15.7713 22.878 15.8777 27.2524 16.6048 31.2062C16.8426 32.4993 17.1259 32.2766 17.7126 31.2437C19.3302 28.3956 20.5253 26.0353 21.0101 25.7888C21.8871 25.3427 21.499 28.9292 21.8079 29.9809C21.9482 30.4583 22.7348 27.3252 23.0531 28.0461C23.3714 28.7669 23.3714 32.5429 23.3371 32.2569C22.7712 27.541 23.232 22.4299 23.4047 21.8391C23.4866 21.5588 23.9934 23.7281 24.3398 25.7409C24.3923 26.0457 24.8256 22.3883 25.2063 17.9456C25.2447 17.4977 25.7285 21.2191 25.8669 25.4133C25.9261 27.2089 26.076 22.8876 26.1103 16.3644C26.1204 14.4408 26.2133 15.3336 26.077 18.7455C25.9407 22.1574 25.5975 28.0617 25.7296 30.1764C25.8919 32.7757 28.2895 25.8377 29.259 24.1338C29.7465 23.2771 30.6488 29.1185 31.2729 33.2877C31.7837 36.7002 31.9012 26.8738 31.9012 25.4507C31.9012 23.6858 32.7333 31.018 32.7333 30.9243C32.7333 24.9311 32.3173 22.0159 32.1446 20.6272C32.1014 20.2797 32.1092 19.9355 32.0062 19.8616C31.22 19.2978 28.8679 22.6151 26.465 25.1553C24.2979 27.4462 23.3131 29.83 22.0919 32.0228C21.6012 32.904 21.1536 33.7246 20.9456 33.8338C20.6704 33.9783 20.8749 32.5013 20.6689 32.2111C20.2947 31.6838 19.4893 33.2399 19.2812 33.5883C18.7459 34.4851 18.8652 31.5818 18.5198 31.097C18.3482 30.8562 18.0372 30.7496 17.7927 30.7818C17.5482 30.8141 17.3423 31.02 17.4765 31.0918C17.6107 31.1636 18.0912 31.095 18.4418 30.9223C18.7923 30.7496 18.9983 30.475 19.8346 30.192" stroke="#E0D0FF" stroke-width="7.2" stroke-linecap="round"/>
<path d="M13.4352 19.7051C13.0177 20.3905 12.7203 21.0454 12.4506 21.6591C12.2349 22.1501 12.0627 22.6293 11.9126 23.1077C11.7582 23.6 11.7043 24.1524 11.5395 24.6308C11.3713 25.119 11.1668 25.5858 11.0167 26.0642C10.871 26.5287 10.8676 27.0193 10.7627 27.4977C10.6536 27.9958 10.6579 28.6015 10.5092 29.7312C10.0367 33.3206 10.5683 33.8282 10.6723 34.3066C10.8667 34.785 11.045 35.1434 11.2537 35.3817C11.3442 35.5018 11.4033 35.62 11.6434 35.7419" stroke="#E0D0FF" stroke-width="7.2" stroke-linecap="round"/>
<path d="M16.167 26.8935C17.1281 27.4769 18.0528 27.5672 18.8576 27.4109C19.0546 27.3435 19.2665 27.2546 19.4463 27.1866C19.6261 27.1185 19.7674 27.0741 20.127 26.7588" stroke="#0D0D0D" stroke-width="1.8" stroke-linecap="round"/>
<path d="M25.4443 26.5508C26.4054 27.1341 27.3302 27.2244 28.135 27.0681C28.3319 27.0008 28.5438 26.9118 28.7236 26.8438C28.9034 26.7758 29.0447 26.7313 29.4043 26.416" stroke="#0D0D0D" stroke-width="1.8" stroke-linecap="round"/>
<path d="M19.8525 32.9871C20.1441 32.8782 20.8033 32.5843 21.4823 32.3642C22.0633 32.1759 22.674 32.1442 25.3624 32.1431C26.0853 32.252 26.4166 32.3632 26.7643 32.4363C26.9305 32.4732 27.0757 32.5095 27.5555 32.657" stroke="#0D0D0D" stroke-width="1.8" stroke-linecap="round"/>
<path d="M9.84335 16.1843C10.002 13.1827 10.3927 11.0866 10.6342 9.98057C10.7882 9.27518 11.4294 8.04534 12.5731 6.42041C14.9107 3.09926 17.6849 2.54502 18.7016 2.37533C20.434 2.08618 23.1709 1.9304 24.2135 2.02913C25.4949 2.15047 26.3892 2.21738 27.2776 2.25698C28.6449 2.31792 29.9088 3.11202 30.7406 3.59927C31.6639 4.14014 32.5434 5.02293 33.1626 5.8731C33.7341 6.65772 34.2352 7.36671 34.5527 8.123C34.865 8.86683 35.1086 10.9031 35.1336 13.5003C35.1429 14.4689 34.5897 14.6936 34.2576 14.8492C33.261 15.316 32.3401 15.3492 31.3377 15.6397C29.2727 16.2382 26.7895 16.3113 23.7828 16.7656C21.6502 17.0877 17.6412 17.3666 15.4115 17.5514C12.0608 17.8292 10.6844 17.7747 9.36418 17.8242C8.47406 17.8575 7.48734 17.683 6.3047 17.6452C5.14217 17.6081 4.05373 17.1718 3.14546 16.9361C2.73379 16.8293 2.33204 16.6444 2.09197 16.4468C1.50651 15.9651 3.91084 15.2716 4.84957 14.7648C5.65873 14.3279 6.65346 14.1282 7.53791 13.8745C7.75141 13.7809 7.93499 13.6665 8.1981 13.5918C8.46121 13.517 8.79828 13.4854 9.14557 13.4529" stroke="#F15659" stroke-width="4" stroke-linecap="round"/>
<path d="M16.6326 5.3904C14.5266 7.9844 13.2473 10.071 12.5981 12.0411C12.2601 13.067 12.2207 13.8003 12.3383 13.7679C13.3121 13.4999 13.5809 11.6192 14.3594 10.518C16.1191 8.02861 18.7184 4.71491 19.7566 3.67544C19.9504 3.48146 19.6748 5.33768 18.8658 7.66723C17.5397 11.4859 14.5487 13.4318 13.6216 14.0619C13.2611 14.3069 12.6472 14.6435 12.4091 14.7659C12.2232 14.8615 13.3689 14.1931 14.9209 12.9972C16.4729 11.8014 18.7706 9.88567 20.2161 8.58278C21.6617 7.27989 22.1853 6.64786 22.5205 6.24326C22.9866 5.68065 21.4633 7.5193 18.4769 10.9363C15.3074 14.5627 14.0724 15.1958 13.5045 15.9608C13.2473 16.3072 15.7941 14.0289 19.9556 10.278C21.9664 8.46556 22.6772 7.62331 23.3639 6.82289C23.534 6.62465 23.6434 6.40512 23.6709 6.15671C23.6984 5.9083 23.6231 5.6239 23.3609 5.42548C23.0987 5.22706 22.6517 5.12325 22.5396 5.0344C21.6163 4.30268 26.2321 4.78157 27.8428 4.90283C28.8473 4.97845 30.0477 5.15973 31.351 5.67563C32.5901 6.1661 32.9579 7.87501 33.2948 9.09758C33.7178 10.6322 33.0657 11.598 32.4836 12.4386C32.0496 13.0654 30.7325 13.3404 28.2637 13.817C23.9521 14.6494 20.7941 14.6669 20.0832 14.66C18.9312 14.6488 17.7084 14.7105 17.1677 14.4698C16.2036 14.0405 18.8006 12.3559 19.9997 11.3131C23.1492 8.57411 26.1643 6.06859 26.5206 5.69219C26.6897 5.51359 26.8859 5.41211 26.9203 5.74745C27.1863 8.34084 24.8781 10.545 24.3818 11.3584C23.1093 13.4441 27.9266 8.11136 28.1407 8.03976C29.5781 7.55904 27.4185 10.9971 27.2477 11.8522C26.9232 13.4772 29.3179 9.35428 29.7931 8.94318C30.0562 8.71554 30.3029 8.3831 30.5364 9.01257C30.7699 9.64205 30.967 11.2266 29.7376 12.0948C24.0922 16.0818 22.2173 13.11 21.6569 13.1383C21.3857 13.152 21.1401 13.1139 21.4464 12.793C21.7526 12.472 22.6179 11.8565 23.184 11.5282C23.7501 11.1998 23.9909 11.1772 24.2389 11.154" stroke="#F15659" stroke-width="4" stroke-linecap="round"/>
<path d="M8.52148 11.8687C9.0747 12.1252 10.7304 12.8527 12.3017 13.2412C13.3537 13.5012 14.6162 13.5998 15.5742 13.6223C16.3117 13.6396 17.02 13.6854 18.1337 13.7585C18.7548 13.7992 19.2513 13.8312 21.1085 13.7235C22.7903 13.6259 25.9626 13.2908 27.7048 13.1055C30.1099 12.8496 31.4837 12.5071 32.5323 12.2765C33.4832 12.0098 34.2643 11.8475 34.9558 11.6503C35.1283 11.5896 35.2982 11.5298 35.8439 11.1675" stroke="#D93033" stroke-width="4" stroke-linecap="round"/>
<path d="M8.96191 10.002C9.35692 10.1047 10.2294 10.3764 10.8128 10.5684C11.4269 10.7705 12.0726 10.8388 12.6569 10.8549C13.3646 10.8745 14.0605 10.97 14.6871 11.0526C15.4432 11.1522 16.2247 11.0846 16.8486 11.15C17.7418 11.2436 18.5902 11.1105 19.4406 11.1361C20.3306 11.1629 21.7976 11.1273 22.775 11.1235C23.6036 11.1203 24.1682 11.1168 24.8077 11.1621C25.0209 11.1773 25.3012 11.1862 26.6751 11.0754C28.049 10.9645 30.5079 10.7339 31.8596 10.5897C33.7393 10.3891 34.6946 10.1295 35.5092 9.93031C35.7948 9.78071 36.0661 9.64833 36.3371 9.53504C36.4728 9.46938 36.6048 9.38712 36.731 9.19742" stroke="#FFF06C" stroke-linecap="round"/>
</svg>
