<svg width="41" height="44" viewBox="0 0 41 44" fill="none" xmlns="http://www.w3.org/2000/svg">
<path d="M3.78062 34.8293C3.36454 28.2489 3.63916 25.3425 4.88222 21.6373C7.12758 14.9445 9.04829 14.3079 9.98241 13.301C11.5358 11.6265 13.6169 11.1165 17.8714 10.3863C24.1439 9.30971 25.7542 10.7629 27.0773 11.387C28.366 11.9948 29.7029 14.4952 32.4126 18.7944C33.7429 20.905 34.2216 22.5464 34.7084 24.9722C34.7791 26.1498 34.8478 26.9903 34.9518 28.5391C34.9872 29.8134 34.9872 32.079 34.9872 34.4132" stroke="#E0D0FF" stroke-width="7.2" stroke-linecap="round"/>
<path d="M3.78027 36.0777C4.47098 37.3218 5.44046 38.5701 6.85828 39.1276C9.67117 40.2338 11.2615 38.3703 12.4796 37.7098C13.5164 37.1476 13.9037 36.2192 14.2147 35.9061C14.8699 35.2464 15.8385 37.6672 17.2636 38.6751C18.3574 39.4488 20.8939 39.1983 22.8454 38.5773C24.2619 38.1266 24.7219 36.5687 25.2753 35.698C25.8839 34.7406 27.2143 37.1138 28.3596 37.9126C30.294 39.262 34.009 37.8169 35.1564 37.0857C35.4093 36.9245 35.6068 36.706 35.7815 36.4626C37.9466 33.447 36.0978 26.2372 35.9584 24.8485C35.8201 23.4714 35.2656 22.4217 34.9192 21.2421C34.4721 19.7197 33.88 18.6769 33.1519 17.566C32.4549 16.5026 31.5915 15.5563 30.8291 14.6523C30.0667 13.7486 28.9577 13.1971 27.7448 12.3982C26.6678 11.6888 25.0798 11.5286 23.482 11.3559C22.1123 11.2078 20.844 11.5265 19.9453 12.1132C17.8662 13.4703 17.17 14.9197 15.9207 15.9287C14.4152 17.1446 12.5264 19.2886 10.7217 20.8499C8.84704 22.4717 7.52922 25.3177 6.45364 28.7837C5.96921 30.3447 5.86071 32.1831 6.13533 33.9161C6.31202 35.0311 8.76084 34.8294 10.7705 34.7265C12.5606 34.6347 13.3461 32.412 14.2823 30.9182C15.977 28.2142 16.3253 25.3468 16.9203 22.9782C17.3784 21.1547 18.1311 18.8954 18.7553 16.2969C18.9984 15.2844 18.9675 14.8656 18.5212 15.5802C16.9871 18.0368 15.2331 21.5687 13.5698 24.0632C12.1666 26.1675 11.6901 27.6811 11.2022 28.8263C10.9117 29.5082 10.5084 30.317 10.3004 30.6332C9.06428 32.512 11.5361 25.351 12.93 23.4599C13.1372 23.1788 13.4834 23.1124 13.6936 23.179C14.9041 23.5625 15.0105 27.937 15.7376 31.8908C15.9754 33.1838 16.2587 32.9612 16.8454 31.9283C18.463 29.0802 19.6582 26.7199 20.1429 26.4734C21.02 26.0273 20.6318 29.6138 20.9407 30.6654C21.081 31.1429 21.8676 28.0098 22.1859 28.7306C22.5042 29.4515 22.5042 33.2275 22.4699 32.9414C21.904 28.2256 22.3648 23.1145 22.5375 22.5237C22.6194 22.2434 23.1263 24.4127 23.4726 26.4255C23.5251 26.7302 23.9584 23.0729 24.3391 18.6301C24.3775 18.1823 24.8613 21.9037 24.9997 26.0978C25.0589 27.8935 25.2088 23.5722 25.2431 17.049C25.2532 15.1253 25.3461 16.0181 25.2098 19.4301C25.0735 22.842 24.7303 28.7462 24.8624 30.861C25.0248 33.4603 27.4223 26.5223 28.3918 24.8184C28.8793 23.9617 29.7816 29.8031 30.4057 33.9723C30.9165 37.3847 31.034 27.5583 31.034 26.1353C31.034 24.3704 31.8662 31.7025 31.8662 31.6089C31.8662 25.6157 31.4501 22.7005 31.2774 21.3118C31.2342 20.9642 31.242 20.6201 31.1391 20.5462C30.3529 19.9824 28.0007 23.2997 25.5978 25.8399C23.4307 28.1308 22.4459 30.5146 21.2247 32.7074C20.734 33.5886 20.2865 34.4092 20.0784 34.5184C19.8032 34.6629 20.0077 33.1859 19.8017 32.8957C19.4275 32.3684 18.6221 33.9244 18.4141 34.2729C17.8787 35.1696 17.998 32.2663 17.6526 31.7816C17.4811 31.5408 17.17 31.4342 16.9255 31.4664C16.6811 31.4987 16.4751 31.7046 16.6093 31.7764C16.7435 31.8482 17.2241 31.7795 17.5746 31.6068C17.9252 31.4342 18.1311 31.1595 18.9675 30.8766" stroke="#E0D0FF" stroke-width="7.2" stroke-linecap="round"/>
<path d="M12.5681 20.3896C12.1506 21.075 11.8531 21.7299 11.5835 22.3436C11.3677 22.8346 11.1955 23.3139 11.0455 23.7923C10.8911 24.2846 10.8372 24.8369 10.6723 25.3154C10.5041 25.8036 10.2996 26.2704 10.1496 26.7488C10.0039 27.2133 10.0004 27.7039 9.89556 28.1823C9.78641 28.6804 9.79074 29.286 9.64202 30.4158C9.16951 34.0052 9.70115 34.5128 9.80507 34.9912C9.99948 35.4696 10.1778 35.828 10.3865 36.0663C10.477 36.1863 10.5361 36.3046 10.7762 36.4264" stroke="#E0D0FF" stroke-width="7.2" stroke-linecap="round"/>
<path d="M15.2998 27.5781C16.2609 28.1615 17.1856 28.2518 17.9905 28.0955C18.1874 28.0281 18.3993 27.9392 18.5791 27.8711C18.7589 27.8031 18.9002 27.7586 19.2598 27.4434" stroke="#0D0D0D" stroke-width="1.8" stroke-linecap="round"/>
<path d="M24.5771 27.2353C25.5383 27.8187 26.463 27.909 27.2678 27.7527C27.4647 27.6853 27.6766 27.5964 27.8565 27.5284C28.0363 27.4603 28.1775 27.4159 28.5371 27.1006" stroke="#0D0D0D" stroke-width="1.8" stroke-linecap="round"/>
<path d="M18.9854 33.6717C19.277 33.5627 19.9361 33.2689 20.6151 33.0488C21.1961 32.8605 21.8068 32.8287 24.4952 32.8276C25.2182 32.9366 25.5494 33.0477 25.8971 33.1209C26.0633 33.1578 26.2085 33.1941 26.6883 33.3415" stroke="#0D0D0D" stroke-width="1.8" stroke-linecap="round"/>
<path d="M7.89659 6.66522C5.36689 6.91563 4.3463 7.66981 3.1875 8.75755C2.64979 9.2623 2.55142 9.92626 2.50879 10.7232C2.42655 12.2604 2.9414 13.4654 3.23401 13.9113C3.81214 14.7922 5.29462 15.2914 6.68569 15.4852C7.95327 15.6617 8.8786 15.5637 10.6751 15.3904C12.1315 15.2499 13.7018 15.5549 14.7161 15.6211C15.768 15.6897 16.9227 16.183 18.804 16.7926C20.4164 17.3151 21.5024 17.3419 22.5201 17.2775C24.2475 17.168 26.0493 16.8111 26.9498 16.4542C27.8506 16.0971 28.5206 15.03 29.4371 14.4128C30.2418 13.871 31.078 13.4895 32.0368 13.1753C32.8865 12.8968 35.694 12.4838 37.5992 12.0134C38.6964 11.7425 38.6795 10.1719 38.8303 9.04636C38.9279 8.31726 38.6449 7.70905 38.4384 7.32818C37.9535 6.43381 36.7201 6.028 35.8023 5.53939C34.9121 5.06547 33.6172 4.76734 31.6439 4.22139C29.9469 3.75186 28.8639 4.19641 27.7155 4.22909C25.2458 4.29936 24.3828 4.82281 23.4168 5.08569C22.5485 5.32198 21.6892 5.7631 20.7887 6.12004C19.6244 6.58153 14.9851 7.52279 12.3382 7.73952C11.1686 7.83528 9.73653 7.64032 8.03872 7.82527C6.3704 8.00701 7.14364 10.8216 6.93386 11.5249C6.57531 12.7268 6.40209 9.18621 6.01163 9.13682C4.07293 8.89156 3.6441 12.597 3.57348 13.0174C3.39029 14.1078 8.53253 11.4131 10.2217 10.6263C12.0762 9.76246 8.35276 13.2235 8.28246 13.4644C7.98472 14.4846 12.1705 11.6747 13.6443 10.5098C14.9699 9.46208 10.8637 13.1806 10.8493 13.2865C10.4319 16.3475 16.9659 9.56106 18.552 8.95119C19.1878 8.70671 16.89 11.7621 15.5779 13.4389C14.8024 14.4299 19.4526 10.5012 22.1396 8.96879C23.011 8.47185 23.0425 8.8549 22.3208 9.69747C21.5991 10.54 20.1639 11.9098 19.264 12.7395C18.0666 13.8436 20.5675 11.59 24.772 8.04784C25.7409 7.23158 21.1409 12.8823 18.9725 15.4143C15.3887 19.599 26.2243 11.0873 26.5758 11.1891C27.7158 11.5192 24.1602 13.8312 23.2726 14.7046C19.8833 18.0398 28.4775 11.0296 28.7267 10.967C30.4946 10.5232 26.4746 13.9251 26.2565 14.0341C24.4393 14.9426 29.4397 11.6652 29.6778 11.528C29.9407 11.3764 29.3911 12.3868 29.1555 12.7285C28.103 14.2551 33.3048 9.58461 33.9961 9.384C34.3022 9.29517 33.6422 10.4555 33.082 11.049C32.8638 11.2803 33.8146 9.92615 34.5599 9.38451C34.8188 9.19634 34.983 9.44705 35.131 9.40403C35.2791 9.361 35.4436 9.08384 35.3719 8.9121C34.2726 6.28121 27.3562 9.54274 26.0404 9.34234C25.7575 9.29925 25.5486 9.12997 25.5563 9.02493C25.5791 8.71192 28.5488 8.39944 32.2192 7.83554C33.4024 7.65376 33.1834 7.54827 32.3441 7.38447C31.5048 7.22068 30.0461 6.9671 29.6007 6.84451C28.1798 6.45337 33.0023 7.05755 33.6589 6.96655C33.9713 6.92325 31.0297 6.72023 27.3827 6.84495C22.6035 7.00838 20.7557 7.12897 18.7071 7.36141C18.221 7.41657 17.8472 7.63411 17.7556 7.75012C17.664 7.86613 17.8774 7.93797 18.1618 7.95058C19.813 8.02382 21.5541 7.06665 23.5943 6.6536C24.594 6.48769 26.1894 6.26467 27.1394 6.15728C28.0895 6.0499 28.3457 6.06491 28.7608 6.05926" stroke="white" stroke-width="4" stroke-linecap="round"/>
<path d="M21.6626 2.47816C21.5755 2.44884 20.929 2.43483 19.1581 2.5981C17.9827 2.70648 16.2703 3.08352 15.1216 3.36985C13.4176 3.79459 12.7695 4.22369 12.488 4.37811C11.8262 4.74115 10.7339 5.36529 10.2192 5.77458C10.0442 5.91375 9.91228 6.13158 9.86839 6.49235C9.80105 7.04591 10.0158 7.47971 10.1571 7.66904C10.5955 8.25684 11.8627 8.12387 12.8455 8.10124C13.1219 8.09488 13.4787 8.12812 14.4378 8.05694C16.2352 7.92354 17.6575 7.58675 18.1522 7.45472C18.8269 7.27462 19.7263 7.08754 20.3664 6.94588C21.1286 6.7772 21.5395 6.70832 22.3667 6.41538C22.9449 6.21059 23.4557 6.02168 23.8631 5.78679C24.0272 5.69213 24.2208 5.64247 24.3956 5.47183C24.7425 5.13335 24.6445 4.62055 24.5373 3.92342C24.4741 3.51214 24.0214 3.30291 23.7051 3.13647C23.3761 2.96334 23.0074 2.94035 22.5611 2.97098C22.3418 2.98603 21.082 3.18749 19.2484 3.55886C18.5644 3.6974 18.389 3.77332 17.7187 3.9714C15.8945 4.51045 14.4447 4.95347 14.0232 5.1589C13.7707 5.28196 13.6283 5.42412 13.5236 5.57458C13.4754 5.64375 13.5031 5.73401 13.554 5.80079C13.6048 5.86757 13.6947 5.91725 13.8369 5.96057C13.9791 6.00388 14.1708 6.03934 15.4735 5.83744C16.7761 5.63554 19.1838 5.19523 20.4635 4.95253C21.7431 4.70983 21.8217 4.6781 21.9026 4.64541" stroke="#FFE749" stroke-width="4" stroke-linecap="round"/>
</svg>
