<svg width="41" height="49" viewBox="0 0 41 49" fill="none" xmlns="http://www.w3.org/2000/svg">
<path d="M3.78062 40.5823C3.36454 34.0018 3.63916 31.0955 4.88222 27.3902C7.12758 20.6974 9.04829 20.0608 9.98241 19.0539C11.5358 17.3795 13.6169 16.8695 17.8714 16.1392C24.1439 15.0626 25.7542 16.5158 27.0773 17.1399C28.366 17.7478 29.7029 20.2481 32.4126 24.5473C33.7429 26.6579 34.2216 28.2994 34.7084 30.7252C34.7791 31.9027 34.8478 32.7432 34.9518 34.2921C34.9872 35.5663 34.9872 37.8319 34.9872 40.1662" stroke="#E0D0FF" stroke-width="7.2" stroke-linecap="round"/>
<path d="M3.78027 41.8306C4.47098 43.0747 5.44046 44.323 6.85828 44.8805C9.67117 45.9867 11.2615 44.1233 12.4796 43.4627C13.5164 42.9005 13.9037 41.9721 14.2147 41.659C14.8699 40.9994 15.8385 43.4201 17.2636 44.4281C18.3574 45.2017 20.8939 44.9513 22.8454 44.3303C24.2619 43.8795 24.7219 42.3216 25.2753 41.4509C25.8839 40.4935 27.2143 42.8667 28.3596 43.6656C30.294 45.0149 34.009 43.5699 35.1564 42.8386C35.4093 42.6774 35.6068 42.4589 35.7815 42.2155C37.9466 39.2 36.0978 31.9902 35.9584 30.6015C35.8201 29.2243 35.2656 28.1746 34.9192 26.995C34.4721 25.4726 33.88 24.4299 33.1519 23.3189C32.4549 22.2555 31.5915 21.3092 30.8291 20.4053C30.0667 19.5015 28.9577 18.95 27.7448 18.1511C26.6678 17.4417 25.0798 17.2815 23.482 17.1088C22.1123 16.9608 20.844 17.2794 19.9453 17.8661C17.8662 19.2233 17.17 20.6726 15.9207 21.6816C14.4152 22.8975 12.5264 25.0415 10.7217 26.6029C8.84704 28.2247 7.52922 31.0706 6.45364 34.5366C5.96921 36.0977 5.86071 37.936 6.13533 39.6691C6.31202 40.7841 8.76084 40.5824 10.7705 40.4794C12.5606 40.3877 13.3461 38.1649 14.2823 36.6711C15.977 33.9671 16.3253 31.0997 16.9203 28.7312C17.3784 26.9076 18.1311 24.6483 18.7553 22.0498C18.9984 21.0374 18.9675 20.6185 18.5212 21.3331C16.9871 23.7898 15.2331 27.3217 13.5698 29.8161C12.1666 31.9204 11.6901 33.434 11.2022 34.5793C10.9117 35.2612 10.5084 36.0699 10.3004 36.3861C9.06428 38.2649 11.5361 31.1039 12.93 29.2128C13.1372 28.9318 13.4834 28.8654 13.6936 28.9319C14.9041 29.3155 15.0105 33.6899 15.7376 37.6437C15.9754 38.9368 16.2587 38.7141 16.8454 37.6812C18.463 34.8331 19.6582 32.4728 20.1429 32.2263C21.02 31.7802 20.6318 35.3667 20.9407 36.4184C21.081 36.8958 21.8676 33.7627 22.1859 34.4836C22.5042 35.2044 22.5042 38.9804 22.4699 38.6944C21.904 33.9785 22.3648 28.8674 22.5375 28.2766C22.6194 27.9963 23.1263 30.1656 23.4726 32.1784C23.5251 32.4832 23.9584 28.8258 24.3391 24.3831C24.3775 23.9352 24.8613 27.6566 24.9997 31.8508C25.0589 33.6464 25.2088 29.3251 25.2431 22.8019C25.2532 20.8783 25.3461 21.7711 25.2098 25.183C25.0735 28.5949 24.7303 34.4992 24.8624 36.6139C25.0248 39.2132 27.4223 32.2752 28.3918 30.5713C28.8793 29.7146 29.7816 35.556 30.4057 39.7252C30.9165 43.1377 31.034 33.3113 31.034 31.8882C31.034 30.1233 31.8662 37.4555 31.8662 37.3618C31.8662 31.3686 31.4501 28.4534 31.2774 27.0647C31.2342 26.7172 31.242 26.373 31.1391 26.2991C30.3529 25.7353 28.0007 29.0526 25.5978 31.5928C23.4307 33.8837 22.4459 36.2675 21.2247 38.4603C20.734 39.3415 20.2865 40.1621 20.0784 40.2713C19.8032 40.4158 20.0077 38.9388 19.8017 38.6486C19.4275 38.1213 18.6221 39.6774 18.4141 40.0258C17.8787 40.9226 17.998 38.0193 17.6526 37.5345C17.4811 37.2937 17.17 37.1871 16.9255 37.2193C16.6811 37.2516 16.4751 37.4575 16.6093 37.5293C16.7435 37.6011 17.2241 37.5325 17.5746 37.3598C17.9252 37.1871 18.1311 36.9125 18.9675 36.6295" stroke="#E0D0FF" stroke-width="7.2" stroke-linecap="round"/>
<path d="M12.5681 26.1426C12.1506 26.828 11.8531 27.4829 11.5835 28.0966C11.3677 28.5876 11.1955 29.0668 11.0455 29.5452C10.8911 30.0375 10.8372 30.5899 10.6723 31.0683C10.5041 31.5565 10.2996 32.0233 10.1496 32.5017C10.0039 32.9662 10.0004 33.4568 9.89556 33.9352C9.78641 34.4333 9.79074 35.039 9.64202 36.1687C9.16951 39.7581 9.70115 40.2657 9.80507 40.7441C9.99948 41.2225 10.1778 41.5809 10.3865 41.8192C10.477 41.9393 10.5361 42.0575 10.7762 42.1794" stroke="#E0D0FF" stroke-width="7.2" stroke-linecap="round"/>
<path d="M15.2998 33.331C16.2609 33.9144 17.1856 34.0047 17.9905 33.8484C18.1874 33.781 18.3993 33.6921 18.5791 33.6241C18.7589 33.556 18.9002 33.5116 19.2598 33.1963" stroke="#0D0D0D" stroke-width="1.8" stroke-linecap="round"/>
<path d="M24.5771 32.9883C25.5383 33.5716 26.463 33.6619 27.2678 33.5056C27.4647 33.4383 27.6766 33.3493 27.8565 33.2813C28.0363 33.2133 28.1775 33.1688 28.5371 32.8535" stroke="#0D0D0D" stroke-width="1.8" stroke-linecap="round"/>
<path d="M18.9854 39.4246C19.277 39.3157 19.9361 39.0218 20.6151 38.8017C21.1961 38.6134 21.8068 38.5817 24.4952 38.5806C25.2182 38.6895 25.5494 38.8007 25.8971 38.8738C26.0633 38.9107 26.2085 38.947 26.6883 39.0945" stroke="#0D0D0D" stroke-width="1.8" stroke-linecap="round"/>
<path d="M11.9024 14.1974C9.48459 14.8379 8.84517 14.9788 7.92126 15.8829C6.70754 17.0707 6.63761 18.036 6.60025 18.7673C6.58392 19.0869 6.8842 19.3555 7.11478 19.6218C7.70524 20.3038 9.22733 20.5297 10.0317 20.6199C11.4618 20.7803 13.3926 20.9908 14.0353 21.2598C14.703 21.5394 16.0912 22.306 18.8843 22.4709C20.3781 22.5591 21.0444 21.6719 21.9507 21.1205C22.954 20.5101 23.6063 20.3183 27.3825 20.0178C30.0513 19.8055 29.9408 17.3336 30.1383 16.4081C30.3519 15.4068 29.9803 14.5198 29.6253 14.1114C28.7781 13.1368 27.1354 12.9527 26.3519 12.8278C25.6815 12.7209 24.8233 12.7029 23.4206 12.6143C20.9484 12.4581 19.8765 12.8801 18.6527 13.0045C15.7922 13.2951 15.1796 13.6273 14.1127 13.6812C13.1331 13.7307 12.0839 14.2315 11.389 14.4989C10.2555 14.9351 8.70212 15.9032 8.30982 16.3483C8.1203 16.5634 8.13102 16.9002 8.11287 17.2194C8.10271 17.3982 8.20041 17.609 8.30715 17.7708C8.50793 18.075 8.91135 18.1823 9.31966 18.2004C10.1093 18.2355 12.0647 17.2995 14.1917 16.2288C14.5371 16.0549 14.7099 15.9779 14.8711 15.9064C15.0323 15.8349 15.1732 15.7644 15.052 16.0452C14.1377 18.1639 13.0073 18.9285 12.8637 19.0891C12.6691 19.3069 14.5946 18.225 16.7792 16.9467C18.5638 15.9025 19.6203 15.0887 19.9075 15.1037C20.845 15.1525 17.6081 17.4959 15.6344 19.2204C14.8833 19.8766 14.6822 20.1347 14.767 20.1913C14.8519 20.2479 15.2394 20.107 16.4782 19.4003C17.717 18.6936 19.7954 17.4254 20.9542 16.7017C22.1129 15.9779 22.2891 15.837 22.2741 15.923C22.1949 16.3783 20.6675 17.9912 18.8886 20.0899C18.2558 20.8364 18.2369 20.9908 19.346 20.0771C20.4551 19.1633 22.7096 17.1906 23.8534 16.3153C24.9973 15.4399 24.962 15.7217 24.8206 16.0783C24.4996 16.8875 23.8615 17.7158 23.4339 18.2682C22.3145 19.7146 27.3084 14.7674 27.5395 14.7311C28.5634 14.5703 26.3882 17.6795 26.171 18.1823C26.0592 18.4411 27.0191 17.0155 27.944 16.0361C28.2369 15.726 28.3054 15.9374 28.3059 16.1338C28.3065 16.3302 28.2712 16.5416 28.2179 16.7209C28.1645 16.9002 28.094 17.0411 28.0214 17.2931" stroke="#FBFFE5" stroke-width="3.5" stroke-linecap="round"/>
<path d="M12.543 13.7707C12.7543 12.7138 13.1803 11.0422 13.9072 8.64727C15.2065 4.36672 15.5661 3.77474 15.9397 2.6731C16.076 2.27136 16.2076 1.99418 16.3139 1.85114C16.7669 1.24097 16.9538 3.59113 17.7171 6.03888C18.2103 7.62056 18.4483 8.39481 18.8043 9.51407C19.0183 10.2821 19.1614 10.9909 19.3386 11.6688C19.3749 11.8471 19.3749 12.0584 19.5884 12.3829" stroke="#C59163" stroke-width="3.5" stroke-linecap="round"/>
<path d="M13.0762 14.4112C13.4658 14.376 14.3166 14.1636 15.6686 13.8786C16.6683 13.6288 17.3077 13.4868 17.8932 13.38C18.1969 13.3438 18.5139 13.3438 18.8406 13.3438" stroke="#C59163" stroke-width="3.5" stroke-linecap="round"/>
<path d="M16.599 6.51172C16.4581 8.06171 16.3855 9.91699 16.315 11.5887C16.2446 12.2035 16.1037 12.3444 15.943 12.4523C15.7823 12.5601 15.6062 12.6305 15.1045 12.7031" stroke="#C59163" stroke-width="3.5" stroke-linecap="round"/>
<path d="M9.63184 15.6576C9.7795 15.7685 10.2236 15.9909 10.5872 16.1586C10.9585 16.3299 11.3392 16.4556 11.6922 16.5027C12.0665 16.5526 12.398 16.605 13.0452 16.6512C14.9014 16.7838 15.3871 16.4946 15.9454 16.2806C16.2918 16.1479 16.6141 15.9742 16.949 15.8162C17.3303 15.6363 17.6361 15.5841 17.9799 15.4907C18.3021 15.4033 18.6391 15.3422 19.4917 15.3141C20.0334 15.2962 20.5895 15.2308 21.3496 15.1843C21.6057 15.1686 21.7419 15.0079 21.7981 14.9522C21.8898 14.8614 21.4649 14.97 21.344 14.9889C21.2534 15.0031 21.4448 14.7666 21.5652 14.6738C21.704 14.6178 21.8533 14.5805 21.9923 14.525C22.0578 14.488 22.113 14.4328 22.2813 14.376" stroke="#FBFFE5" stroke-width="3.5" stroke-linecap="round"/>
<path d="M19.3789 15.2471C19.4927 15.2297 19.7036 15.1943 19.9104 15.168C20.1361 15.1394 20.485 15.1151 20.7508 15.0932C20.899 15.081 21.024 15.08 21.0594 15.0624C21.1548 15.0151 20.8487 15.071 20.8177 15.0842C20.7001 15.1342 21.0504 15.0272 21.0858 15.0009C21.0999 14.9905 21.0514 14.9573 21.0161 14.9438C20.8761 14.8905 20.7083 15.0005 20.5673 15.0577C20.4215 15.1168 20.2421 15.1415 20.1401 15.1634C19.9629 15.2015 20.4955 15.0887 20.6674 15.0405C20.831 14.9947 21.0235 14.9393 21.2259 14.8865C21.3312 14.8775 21.4287 14.8601 21.5208 14.8337C21.5694 14.8247 21.6216 14.8247 21.7019 14.7983" stroke="#FBFFE5" stroke-width="3.5" stroke-linecap="round"/>
</svg>
