<svg width="41" height="55" viewBox="0 0 41 55" fill="none" xmlns="http://www.w3.org/2000/svg">
<path d="M3.78062 45.8787C3.36454 39.2982 3.63916 36.3919 4.88222 32.6866C7.12758 25.9938 9.04829 25.3572 9.98241 24.3503C11.5358 22.6759 13.6169 22.1658 17.8714 21.4356C24.1439 20.359 25.7542 21.8122 27.0773 22.4363C28.366 23.0441 29.7029 25.5445 32.4126 29.8437C33.7429 31.9543 34.2216 33.5958 34.7084 36.0215C34.7791 37.1991 34.8478 38.0396 34.9518 39.5885C34.9872 40.8627 34.9872 43.1283 34.9872 45.4626" stroke="#E0D0FF" stroke-width="7.2" stroke-linecap="round"/>
<path d="M3.78027 47.127C4.47098 48.3711 5.44046 49.6194 6.85828 50.1769C9.67117 51.2831 11.2615 49.4196 12.4796 48.7591C13.5164 48.1969 13.9037 47.2685 14.2147 46.9554C14.8699 46.2958 15.8385 48.7165 17.2636 49.7244C18.3574 50.4981 20.8939 50.2477 22.8454 49.6267C24.2619 49.1759 24.7219 47.618 25.2753 46.7473C25.8839 45.7899 27.2143 48.1631 28.3596 48.962C30.294 50.3113 34.009 48.8663 35.1564 48.135C35.4093 47.9738 35.6068 47.7553 35.7815 47.5119C37.9466 44.4963 36.0978 37.2866 35.9584 35.8979C35.8201 34.5207 35.2656 33.471 34.9192 32.2914C34.4721 30.769 33.88 29.7262 33.1519 28.6153C32.4549 27.5519 31.5915 26.6056 30.8291 25.7016C30.0667 24.7979 28.9577 24.2464 27.7448 23.4475C26.6678 22.7381 25.0798 22.5779 23.482 22.4052C22.1123 22.2572 20.844 22.5758 19.9453 23.1625C17.8662 24.5197 17.17 25.969 15.9207 26.978C14.4152 28.1939 12.5264 30.3379 10.7217 31.8993C8.84704 33.521 7.52922 36.367 6.45364 39.833C5.96921 41.3941 5.86071 43.2324 6.13533 44.9654C6.31202 46.0805 8.76084 45.8788 10.7705 45.7758C12.5606 45.684 13.3461 43.4613 14.2823 41.9675C15.977 39.2635 16.3253 36.3961 16.9203 34.0275C17.3784 32.204 18.1311 29.9447 18.7553 27.3462C18.9984 26.3338 18.9675 25.9149 18.5212 26.6295C16.9871 29.0862 15.2331 32.6181 13.5698 35.1125C12.1666 37.2168 11.6901 38.7304 11.2022 39.8756C10.9117 40.5576 10.5084 41.3663 10.3004 41.6825C9.06428 43.5613 11.5361 36.4003 12.93 34.5092C13.1372 34.2282 13.4834 34.1617 13.6936 34.2283C14.9041 34.6118 15.0105 38.9863 15.7376 42.9401C15.9754 44.2331 16.2587 44.0105 16.8454 42.9776C18.463 40.1295 19.6582 37.7692 20.1429 37.5227C21.02 37.0766 20.6318 40.6631 20.9407 41.7148C21.081 42.1922 21.8676 39.0591 22.1859 39.7799C22.5042 40.5008 22.5042 44.2768 22.4699 43.9908C21.904 39.2749 22.3648 34.1638 22.5375 33.573C22.6194 33.2927 23.1263 35.462 23.4726 37.4748C23.5251 37.7796 23.9584 34.1222 24.3391 29.6794C24.3775 29.2316 24.8613 32.953 24.9997 37.1472C25.0589 38.9428 25.2088 34.6215 25.2431 28.0983C25.2532 26.1747 25.3461 27.0674 25.2098 30.4794C25.0735 33.8913 24.7303 39.7956 24.8624 41.9103C25.0248 44.5096 27.4223 37.5716 28.3918 35.8677C28.8793 35.011 29.7816 40.8524 30.4057 45.0216C30.9165 48.434 31.034 38.6076 31.034 37.1846C31.034 35.4197 31.8662 42.7519 31.8662 42.6582C31.8662 36.665 31.4501 33.7498 31.2774 32.3611C31.2342 32.0135 31.242 31.6694 31.1391 31.5955C30.3529 31.0317 28.0007 34.349 25.5978 36.8892C23.4307 39.1801 22.4459 41.5639 21.2247 43.7567C20.734 44.6379 20.2865 45.4585 20.0784 45.5677C19.8032 45.7122 20.0077 44.2352 19.8017 43.945C19.4275 43.4177 18.6221 44.9738 18.4141 45.3222C17.8787 46.2189 17.998 43.3157 17.6526 42.8309C17.4811 42.5901 17.17 42.4835 16.9255 42.5157C16.6811 42.548 16.4751 42.7539 16.6093 42.8257C16.7435 42.8975 17.2241 42.8288 17.5746 42.6562C17.9252 42.4835 18.1311 42.2089 18.9675 41.9259" stroke="#E0D0FF" stroke-width="7.2" stroke-linecap="round"/>
<path d="M12.5681 31.439C12.1506 32.1243 11.8531 32.7792 11.5835 33.3929C11.3677 33.8839 11.1955 34.3632 11.0455 34.8416C10.8911 35.3339 10.8372 35.8863 10.6723 36.3647C10.5041 36.8529 10.2996 37.3197 10.1496 37.7981C10.0039 38.2626 10.0004 38.7532 9.89556 39.2316C9.78641 39.7297 9.79074 40.3353 9.64202 41.4651C9.16951 45.0545 9.70115 45.5621 9.80507 46.0405C9.99948 46.5189 10.1778 46.8773 10.3865 47.1156C10.477 47.2356 10.5361 47.3539 10.7762 47.4757" stroke="#E0D0FF" stroke-width="7.2" stroke-linecap="round"/>
<path d="M15.2998 38.6274C16.2609 39.2108 17.1856 39.3011 17.9905 39.1448C18.1874 39.0774 18.3993 38.9885 18.5791 38.9205C18.7589 38.8524 18.9002 38.8079 19.2598 38.4927" stroke="#0D0D0D" stroke-width="1.8" stroke-linecap="round"/>
<path d="M24.5771 38.2846C25.5383 38.868 26.463 38.9583 27.2678 38.802C27.4647 38.7346 27.6766 38.6457 27.8565 38.5777C28.0363 38.5096 28.1775 38.4652 28.5371 38.1499" stroke="#0D0D0D" stroke-width="1.8" stroke-linecap="round"/>
<path d="M18.9854 44.721C19.277 44.612 19.9361 44.3182 20.6151 44.0981C21.1961 43.9098 21.8068 43.8781 24.4952 43.877C25.2182 43.9859 25.5494 44.097 25.8971 44.1702C26.0633 44.2071 26.2085 44.2434 26.6883 44.3909" stroke="#0D0D0D" stroke-width="1.8" stroke-linecap="round"/>
<path d="M13.6488 20.3796C13.9823 18.7071 14.9929 15.6704 15.6257 14.2796C16.3663 12.6522 17.9286 8.86929 19.2044 6.48942C19.3832 6.15584 19.5404 5.8174 19.7931 5.6456C20.0457 5.4738 20.3792 5.4738 20.6343 5.64055C21.9869 6.52439 22.8247 8.41454 23.9187 10.9372C24.8859 13.1677 25.2703 14.8973 25.8994 16.8351C26.5021 18.6915 26.4476 20.4554 26.1583 22.3527C23.8429 22.7367 18.161 22.906 14.4548 22.1102C14.0733 21.8146 13.7398 21.4811 13.1436 20.8849" stroke="#FF7B00" stroke-width="3.5" stroke-linecap="round"/>
<path d="M20.4248 8.07471C18.9823 12.093 17.6725 15.451 16.6078 17.7888C16.1262 18.8462 15.6977 19.6114 15.4081 20.0867C15.1185 20.5621 14.964 20.7166 15.4253 20.178C18.2746 16.8514 19.0666 15.5743 20.2905 13.5979C20.6664 12.991 20.84 12.5005 21.0477 11.9814C21.1523 11.7199 21.2553 11.4623 21.1281 11.9994C20.0369 16.6049 18.5546 19.5708 17.8255 20.8446C17.4779 21.452 17.3041 22.0186 17.3533 21.9187C18.5638 19.4592 19.8971 18.1782 20.8377 16.8739C22.1127 15.1058 22.6088 13.6978 22.8687 13.5386C25.0776 12.1854 22.5073 18.9463 22.1436 20.2982C21.9977 20.8402 21.8298 21.2895 21.9071 21.4995C22.3845 22.7968 23.6984 19.0072 24.4267 18.4335C24.6913 18.3234 24.7428 18.581 24.7951 18.8167C24.8474 19.0525 24.8989 19.2585 24.952 19.627" stroke="#FF7B00" stroke-width="3.5" stroke-linecap="round"/>
<path d="M20.1123 19.9395C20.5244 20.0425 20.9366 20.1455 21.2777 20.2501C21.6188 20.3547 21.8764 20.4577 22.2979 20.5639" stroke="#FF7B00" stroke-width="3.5" stroke-linecap="round"/>
<path d="M16.834 8.69922C17.6114 8.75073 18.7542 8.85533 20.2076 8.9849C20.9834 9.01144 22.3229 9.01144 23.1159 8.95992C23.909 8.90841 24.115 8.80537 24.4835 8.69922" stroke="#FFF200" stroke-width="2.1" stroke-linecap="round"/>
<path d="M14.3369 13.5386C15.1612 13.7446 18.4708 13.8508 22.9449 13.825C24.7402 13.7478 25.2101 13.6432 25.7292 13.5651C25.9906 13.5386 26.2482 13.5386 26.5136 13.5386" stroke="#FFF200" stroke-width="2.1" stroke-linecap="round"/>
<path d="M12.7754 18.8467C13.7043 18.8467 15.7883 18.9497 17.5017 19.1324C19.3102 19.1589 20.734 19.2104 22.3357 19.2885C23.6283 19.315 25.895 19.315 28.2304 19.1589" stroke="#FFF200" stroke-width="2.1" stroke-linecap="round"/>
<path d="M12.3072 22.4374C12.3072 22.6434 12.2557 22.9557 12.2549 23.3452C12.2545 23.5355 12.4602 23.6831 12.5913 23.6597C12.7224 23.6363 12.8255 23.4302 12.8785 23.4271C13.088 23.4148 13.0862 23.9969 13.4491 24.2826C13.8589 24.6052 14.6957 24.6229 15.4762 24.4941C15.7673 24.4461 15.7416 24.1078 15.6386 23.9235C15.4326 23.5553 14.8596 23.4786 14.3921 23.4778C14.176 23.4775 14.0275 23.6831 14.0252 23.8658C14.0198 24.2832 14.5427 24.5698 14.9837 24.7775C16.5346 25.5076 18.7577 24.9882 19.1472 24.7291C19.3477 24.5957 19.4852 24.3669 19.4618 24.1835C19.4384 24 19.2323 23.8455 18.9716 23.7659C18.7109 23.6863 18.4018 23.6863 18.2168 23.7893C18.0318 23.8923 17.9803 24.0984 18.0053 24.3076C18.0302 24.5168 18.1333 24.7228 18.3409 24.9063C19.6022 26.0206 21.9299 25.1974 22.5543 24.7564C22.813 24.5737 22.7667 24.2639 22.5863 24.1312C22.406 23.9985 22.0454 23.9985 21.8339 24.1015C21.6224 24.2045 21.5708 24.4106 21.5958 24.6198C21.6208 24.829 21.7238 25.0351 21.9315 25.1927C22.3924 25.5428 23.6424 25.5596 25.0209 25.4566C25.5326 25.4183 25.6266 25.1475 25.6539 24.9383C25.6813 24.7291 25.6297 24.523 25.5002 24.3396C25.3706 24.1562 25.1645 24.0016 24.9553 23.922C24.7462 23.8424 24.5401 23.8424 24.3567 23.9196C24.1732 23.9969 24.0187 24.1515 23.9648 24.3341C23.911 24.5168 23.9625 24.7228 24.1436 24.8805C25.4437 26.0125 27.8122 25.1443 28.1759 24.8594C28.5782 24.5444 28.5428 23.897 28.4397 23.4552C28.3918 23.2497 28.1306 23.168 27.8957 23.1149C27.6608 23.0618 27.4032 23.0618 27.2962 23.1648C27.1893 23.2679 27.2408 23.4739 27.3704 23.6316C27.6402 23.96 28.3305 23.9985 29.0322 23.9212C29.3301 23.8884 29.4763 23.6894 29.5817 23.5067C29.6871 23.3241 29.7386 23.118 29.7136 22.9088C29.6886 22.6996 29.5856 22.4936 29.3522 22.3874C29.1188 22.2812 28.7582 22.2812 28.6755 22.2812C28.5927 22.2812 28.7988 22.2812 29.4794 22.4374" stroke="#FFF200" stroke-width="2.1" stroke-linecap="round"/>
<path d="M11.0583 22.2812C10.9552 22.2812 10.7991 22.4873 10.643 22.9026C10.567 23.1046 10.5899 23.3178 10.7187 23.4497C10.8475 23.5817 11.1051 23.6332 11.4696 23.6597C11.8341 23.6863 12.2978 23.6863 12.6194 23.2179" stroke="#FFF200" stroke-width="2.1" stroke-linecap="round"/>
<path d="M20.7371 1.0498C20.6341 1.0498 20.2204 1.0498 19.5967 1.15284C19.318 1.19889 19.1791 1.46194 19.0995 1.82568C18.9108 2.68778 19.1229 3.44144 19.3821 3.77942C19.6291 4.10159 20.2657 4.01593 20.8113 3.9129C21.3011 3.8204 21.5161 3.23693 21.776 2.89973C22.032 2.56773 21.986 1.98959 21.883 1.4955C21.8035 1.11449 21.1555 1.1544 20.766 1.17938C20.5826 1.25587 20.428 1.46194 20.3484 1.74841C20.2688 2.03487 20.2688 2.39549 20.4249 3.07925" stroke="#FFF200" stroke-width="2.1" stroke-linecap="round"/>
</svg>
