<svg width="41" height="52" viewBox="0 0 41 52" fill="none" xmlns="http://www.w3.org/2000/svg">
<path d="M3.78062 42.8289C3.36454 36.2484 3.63916 33.3421 4.88222 29.6368C7.12758 22.944 9.04829 22.3074 9.98241 21.3005C11.5358 19.6261 13.6169 19.116 17.8714 18.3858C24.1439 17.3092 25.7542 18.7624 27.0773 19.3865C28.366 19.9943 29.7029 22.4947 32.4126 26.7939C33.7429 28.9045 34.2216 30.5459 34.7084 32.9717C34.7791 34.1493 34.8478 34.9898 34.9518 36.5387C34.9872 37.8129 34.9872 40.0785 34.9872 42.4128" stroke="#E0D0FF" stroke-width="7.2" stroke-linecap="round"/>
<path d="M3.78027 44.0772C4.47098 45.3213 5.44046 46.5696 6.85828 47.1271C9.67117 48.2333 11.2615 46.3698 12.4796 45.7093C13.5164 45.1471 13.9037 44.2187 14.2147 43.9056C14.8699 43.246 15.8385 45.6667 17.2636 46.6746C18.3574 47.4483 20.8939 47.1979 22.8454 46.5769C24.2619 46.1261 24.7219 44.5682 25.2753 43.6975C25.8839 42.7401 27.2143 45.1133 28.3596 45.9122C30.294 47.2615 34.009 45.8164 35.1564 45.0852C35.4093 44.924 35.6068 44.7055 35.7815 44.4621C37.9466 41.4465 36.0978 34.2367 35.9584 32.8481C35.8201 31.4709 35.2656 30.4212 34.9192 29.2416C34.4721 27.7192 33.88 26.6764 33.1519 25.5655C32.4549 24.5021 31.5915 23.5558 30.8291 22.6518C30.0667 21.7481 28.9577 21.1966 27.7448 20.3977C26.6678 19.6883 25.0798 19.5281 23.482 19.3554C22.1123 19.2074 20.844 19.526 19.9453 20.1127C17.8662 21.4699 17.17 22.9192 15.9207 23.9282C14.4152 25.1441 12.5264 27.2881 10.7217 28.8495C8.84704 30.4712 7.52922 33.3172 6.45364 36.7832C5.96921 38.3443 5.86071 40.1826 6.13533 41.9156C6.31202 43.0307 8.76084 42.829 10.7705 42.726C12.5606 42.6342 13.3461 40.4115 14.2823 38.9177C15.977 36.2137 16.3253 33.3463 16.9203 30.9777C17.3784 29.1542 18.1311 26.8949 18.7553 24.2964C18.9984 23.284 18.9675 22.8651 18.5212 23.5797C16.9871 26.0364 15.2331 29.5682 13.5698 32.0627C12.1666 34.167 11.6901 35.6806 11.2022 36.8258C10.9117 37.5078 10.5084 38.3165 10.3004 38.6327C9.06428 40.5115 11.5361 33.3505 12.93 31.4594C13.1372 31.1784 13.4834 31.1119 13.6936 31.1785C14.9041 31.562 15.0105 35.9365 15.7376 39.8903C15.9754 41.1833 16.2587 40.9607 16.8454 39.9278C18.463 37.0797 19.6582 34.7194 20.1429 34.4729C21.02 34.0268 20.6318 37.6133 20.9407 38.665C21.081 39.1424 21.8676 36.0093 22.1859 36.7301C22.5042 37.451 22.5042 41.227 22.4699 40.9409C21.904 36.2251 22.3648 31.114 22.5375 30.5232C22.6194 30.2429 23.1263 32.4122 23.4726 34.425C23.5251 34.7298 23.9584 31.0724 24.3391 26.6296C24.3775 26.1818 24.8613 29.9032 24.9997 34.0974C25.0589 35.893 25.2088 31.5717 25.2431 25.0485C25.2532 23.1249 25.3461 24.0176 25.2098 27.4296C25.0735 30.8415 24.7303 36.7458 24.8624 38.8605C25.0248 41.4598 27.4223 34.5218 28.3918 32.8179C28.8793 31.9612 29.7816 37.8026 30.4057 41.9718C30.9165 45.3842 31.034 35.5578 31.034 34.1348C31.034 32.3699 31.8662 39.702 31.8662 39.6084C31.8662 33.6152 31.4501 30.7 31.2774 29.3113C31.2342 28.9637 31.242 28.6196 31.1391 28.5457C30.3529 27.9819 28.0007 31.2992 25.5978 33.8394C23.4307 36.1303 22.4459 38.5141 21.2247 40.7069C20.734 41.5881 20.2865 42.4087 20.0784 42.5179C19.8032 42.6624 20.0077 41.1854 19.8017 40.8952C19.4275 40.3679 18.6221 41.924 18.4141 42.2724C17.8787 43.1691 17.998 40.2659 17.6526 39.7811C17.4811 39.5403 17.17 39.4337 16.9255 39.4659C16.6811 39.4982 16.4751 39.7041 16.6093 39.7759C16.7435 39.8477 17.2241 39.779 17.5746 39.6064C17.9252 39.4337 18.1311 39.1591 18.9675 38.8761" stroke="#E0D0FF" stroke-width="7.2" stroke-linecap="round"/>
<path d="M12.5681 28.3892C12.1506 29.0745 11.8531 29.7294 11.5835 30.3431C11.3677 30.8341 11.1955 31.3134 11.0455 31.7918C10.8911 32.2841 10.8372 32.8365 10.6723 33.3149C10.5041 33.8031 10.2996 34.2699 10.1496 34.7483C10.0039 35.2128 10.0004 35.7034 9.89556 36.1818C9.78641 36.6799 9.79074 37.2855 9.64202 38.4153C9.16951 42.0047 9.70115 42.5123 9.80507 42.9907C9.99948 43.4691 10.1778 43.8275 10.3865 44.0658C10.477 44.1858 10.5361 44.3041 10.7762 44.4259" stroke="#E0D0FF" stroke-width="7.2" stroke-linecap="round"/>
<path d="M15.2998 35.5776C16.2609 36.161 17.1856 36.2513 17.9905 36.095C18.1874 36.0276 18.3993 35.9387 18.5791 35.8706C18.7589 35.8026 18.9002 35.7581 19.2598 35.4429" stroke="#0D0D0D" stroke-width="1.8" stroke-linecap="round"/>
<path d="M24.5771 35.2348C25.5383 35.8182 26.463 35.9085 27.2678 35.7522C27.4647 35.6848 27.6766 35.5959 27.8565 35.5279C28.0363 35.4598 28.1775 35.4154 28.5371 35.1001" stroke="#0D0D0D" stroke-width="1.8" stroke-linecap="round"/>
<path d="M18.9854 41.6712C19.277 41.5622 19.9361 41.2684 20.6151 41.0483C21.1961 40.86 21.8068 40.8282 24.4952 40.8271C25.2182 40.9361 25.5494 41.0472 25.8971 41.1204C26.0633 41.1573 26.2085 41.1936 26.6883 41.341" stroke="#0D0D0D" stroke-width="1.8" stroke-linecap="round"/>
<path d="M12.5671 10.6453C12.1335 11.6451 11.8784 12.3898 11.6805 13.0964C11.4923 13.7682 11.2854 15.4236 11.154 16.7164C10.9881 18.348 10.8528 19.0547 10.8858 19.7996C10.915 20.4573 10.8651 21.1616 10.9223 21.7748C10.992 22.5204 11.0583 23.5843 11.4161 24.2785C11.8145 25.0514 13.3273 24.9246 14.8631 24.7409C15.1795 24.7031 15.3691 24.7012 16.8954 24.4544C18.4217 24.2077 21.2789 23.7153 22.8609 23.4585C25.8045 22.9806 27.7957 22.6248 27.996 22.3995C28.2443 22.1203 28.2057 21.6607 28.221 21.1964C28.2419 20.5663 28.0681 18.8209 27.6446 16.5472C27.291 14.6485 26.7258 13.9916 26.4682 13.4287C26.1534 12.7406 25.5857 11.826 25.2063 11.2016C24.6763 10.3293 23.9841 9.57501 23.451 9.1708C22.9314 8.77692 21.6503 8.7933 19.7256 8.9812C16.9679 9.25042 15.1939 9.74493 14.7844 9.86344C14.2774 9.96711 13.8135 10.0787 13.4834 10.1993C13.3324 10.2575 13.2148 10.3094 13.0005 10.3789" stroke="#FFE749" stroke-width="3.2" stroke-linecap="round"/>
<path d="M15.7035 10.4883C14.2826 13.5411 13.7758 15.4124 13.3601 16.6239C12.8395 18.1408 12.8711 18.7069 12.6161 21.2989C12.5525 21.9454 12.6612 22.3169 12.8163 22.3909C13.2044 22.5758 13.8296 21.5203 14.7674 20.0395C15.3884 19.0591 16.1248 17.5058 16.7141 16.2443C18.246 12.9649 18.511 12.1499 18.8452 11.4826C18.9858 11.2018 19.1631 10.9159 19.376 10.6717C19.4743 10.5589 19.6048 10.5196 19.6918 10.6465C20.2704 11.4897 19.5532 12.6011 18.8349 13.7928C17.0625 16.7335 16.5673 17.5254 16.246 18.0783C15.7814 18.878 15.1009 20.1421 14.7556 20.9221C14.229 22.1112 14.228 22.6921 14.3063 22.9657C14.3452 23.1016 14.5584 23.1461 14.7225 23.1667C15.0378 23.2063 15.4952 23.0192 16.2889 22.5492C17.5957 21.7756 18.7955 20.3145 20.019 18.8138C20.6685 18.017 21.2255 17.0313 21.7568 16.0094C23.4401 12.7721 23.389 12.0743 23.572 11.3726C23.6443 11.0954 23.4973 10.656 23.3649 10.5297C22.5756 9.77767 21.7269 12.4201 21.2121 13.3213C20.222 15.0544 19.4224 15.9137 18.8851 16.6956C17.9006 18.1282 17.5635 19.7791 17.463 20.6956C17.4314 20.9842 17.4913 21.2353 17.6547 21.4463C18.0732 21.9868 19.3609 21.5534 20.3608 21.0312C20.7495 20.8282 21.7553 19.5216 23.1586 17.4766C24.565 15.4271 24.9163 14.2728 25.265 13.8734C26.3286 12.6547 25.9935 18.2649 25.4392 19.0339C25.0257 19.6075 24.4284 19.7521 23.7363 20.4615C23.5783 20.6234 23.5116 20.7403 23.5444 20.8468C23.5771 20.9534 23.7212 21.0551 23.8595 21.1122C24.1134 21.2172 24.9647 21.067 25.5257 20.9545C27.9303 20.4723 22.3681 21.5145 21.4669 21.8448C21.104 21.9777 20.801 22.0722 20.6631 22.1118C20.4654 22.1685 21.2428 22.0603 22.4893 21.7501C25.4909 21.0031 27.4646 20.5096 27.3293 20.278C27.18 20.0224 26.2986 19.0895 24.8979 17.5287C23.6978 16.1913 22.4454 15.4656 21.5147 14.8768C20.1661 13.9382 19.6472 13.7084 19.3103 13.5115C19.1483 13.411 19.0042 13.3092 18.7626 13.2205" stroke="#FFE749" stroke-width="3.2" stroke-linecap="round"/>
<path d="M17.2929 10.792C16.3703 12.0988 15.6411 13.2157 15.2371 13.9783C14.6832 15.024 14.4237 16.2548 14.3443 16.6119C14.32 16.7213 14.5188 16.2074 14.9412 15.4719C15.2904 14.8639 15.9501 13.8006 16.3493 13.1174C16.8767 12.1686 17.0588 11.782 17.188 11.5669C17.267 11.4647 17.3736 11.3768 17.577 11.2173" stroke="#FFE749" stroke-width="3.2" stroke-linecap="round"/>
<path d="M13.3474 8.99519C12.9286 9.20702 12.5662 9.55036 12.2931 9.85222C12.0624 10.1071 11.9674 10.4609 11.8793 10.8191C11.8426 10.9679 11.891 11.2466 11.9835 11.5816C12.1027 12.0132 12.6545 12.1173 13.4308 12.2997C13.9347 12.4181 14.2297 12.2859 15.0547 12.1701C15.7776 12.0686 17.1097 11.8249 17.8294 11.6921C18.8056 11.5121 19.435 11.3187 19.9237 11.1821C20.2937 11.0786 20.7616 10.9499 21.0563 10.8725C21.3882 10.7854 21.8485 10.6393 22.2084 10.5248C22.5503 10.4161 22.9461 10.2752 23.2468 10.1788C23.5171 10.0922 23.7925 9.88376 24.0467 9.67263C24.1598 9.57869 24.1468 9.27939 24.0667 8.91587C23.9822 8.53205 23.6671 8.32444 23.3788 8.18046C23.1041 8.04328 22.7217 8.13533 22.3768 8.12443C22.0825 8.11512 21.799 8.08356 21.3939 8.12677C21.0691 8.16141 20.7152 8.11224 20.2502 8.16578C19.9366 8.20187 19.6229 8.1951 18.4273 8.37454C18.0809 8.42651 17.8536 8.4294 17.5968 8.46497C17.3726 8.49601 16.3683 8.63268 14.9798 8.88067C14.2616 9.00894 13.9449 9.19049 13.6177 9.28219C13.5404 9.30385 13.4816 9.35782 13.4524 9.34599C13.4232 9.33415 13.4285 9.26369 13.4606 9.19623C13.5984 8.90675 13.9227 8.7738 14.2347 8.59671C14.5604 8.41186 14.8905 8.37829 17.1761 7.97517C17.9266 7.84281 18.3881 7.87987 19.1209 7.8068C19.5573 7.76328 20.0736 7.78332 20.4601 7.76915C20.8096 7.75633 21.225 7.72506 21.5101 7.74629C21.7952 7.76751 22.0792 7.78865 22.3584 7.77584C22.6606 7.76198 22.9421 7.90343 23.229 7.98547C23.512 8.06643 23.6879 8.35352 23.9141 8.59594C23.9701 8.65599 24.0143 8.71885 24.0436 8.78443C24.0728 8.85 24.0844 8.91756 24.0342 8.97944C23.7669 9.30893 23.1843 9.28452 21.7415 9.55979C21.4475 9.61587 21.3835 9.64757 20.4863 9.84594C19.589 10.0443 17.8611 10.4117 16.9302 10.6166C15.9178 10.853 15.648 10.9174 15.3342 10.9802C15.2062 11.011 15.1415 11.0395 15.0749 11.0689" stroke="#BA5801" stroke-width="3.2" stroke-linecap="round"/>
<path d="M16.8864 6.59395C16.9622 6.63307 17.2875 6.68293 17.3826 6.62306C17.4296 6.59348 17.3955 6.4904 17.3528 6.44428C17.2683 6.35309 17.0965 6.38225 16.9589 6.39702C16.8892 6.40449 16.83 6.46244 16.8069 6.53651C16.7839 6.61057 16.8013 6.7119 16.84 6.78507C16.8787 6.85824 16.9381 6.90017 17.0532 6.90722C17.1682 6.91427 17.3371 6.88517 17.4521 6.83058C17.567 6.77598 17.6229 6.69679 17.6544 6.62075C17.6858 6.54472 17.691 6.47426 17.6795 6.40564C17.6679 6.33701 17.6394 6.27237 17.5894 6.23644C17.5395 6.20052 17.469 6.19527 17.3652 6.20421C17.2613 6.21315 17.1262 6.23644 16.8935 6.32924" stroke="#FF0000" stroke-width="3.2" stroke-linecap="round"/>
<path d="M17.0638 5.17983C17.051 4.90379 17.052 4.60377 17.1325 4.10929C17.3435 3.26191 17.5748 2.54645 17.8048 2.10421C17.9456 1.85122 18.1355 1.54026 18.467 1.09105" stroke="#FF0000" stroke-width="0.8" stroke-linecap="round"/>
</svg>
