<svg width="41" height="52" viewBox="0 0 41 52" fill="none" xmlns="http://www.w3.org/2000/svg">
<path d="M3.78062 42.8289C3.36454 36.2484 3.63916 33.3421 4.88222 29.6368C7.12758 22.944 9.04829 22.3074 9.98241 21.3005C11.5358 19.6261 13.6169 19.116 17.8714 18.3858C24.1439 17.3092 25.7542 18.7624 27.0773 19.3865C28.366 19.9943 29.7029 22.4947 32.4126 26.7939C33.7429 28.9045 34.2216 30.5459 34.7084 32.9717C34.7791 34.1493 34.8478 34.9898 34.9518 36.5387C34.9872 37.8129 34.9872 40.0785 34.9872 42.4128" stroke="#E0D0FF" stroke-width="7.2" stroke-linecap="round"/>
<path d="M3.78027 44.0772C4.47098 45.3213 5.44046 46.5696 6.85828 47.1271C9.67117 48.2333 11.2615 46.3698 12.4796 45.7093C13.5164 45.1471 13.9037 44.2187 14.2147 43.9056C14.8699 43.246 15.8385 45.6667 17.2636 46.6746C18.3574 47.4483 20.8939 47.1979 22.8454 46.5769C24.2619 46.1261 24.7219 44.5682 25.2753 43.6975C25.8839 42.7401 27.2143 45.1133 28.3596 45.9122C30.294 47.2615 34.009 45.8164 35.1564 45.0852C35.4093 44.924 35.6068 44.7055 35.7815 44.4621C37.9466 41.4465 36.0978 34.2367 35.9584 32.8481C35.8201 31.4709 35.2656 30.4212 34.9192 29.2416C34.4721 27.7192 33.88 26.6764 33.1519 25.5655C32.4549 24.5021 31.5915 23.5558 30.8291 22.6518C30.0667 21.7481 28.9577 21.1966 27.7448 20.3977C26.6678 19.6883 25.0798 19.5281 23.482 19.3554C22.1123 19.2074 20.844 19.526 19.9453 20.1127C17.8662 21.4699 17.17 22.9192 15.9207 23.9282C14.4152 25.1441 12.5264 27.2881 10.7217 28.8495C8.84704 30.4712 7.52922 33.3172 6.45364 36.7832C5.96921 38.3443 5.86071 40.1826 6.13533 41.9156C6.31202 43.0307 8.76084 42.829 10.7705 42.726C12.5606 42.6342 13.3461 40.4115 14.2823 38.9177C15.977 36.2137 16.3253 33.3463 16.9203 30.9777C17.3784 29.1542 18.1311 26.8949 18.7553 24.2964C18.9984 23.284 18.9675 22.8651 18.5212 23.5797C16.9871 26.0364 15.2331 29.5682 13.5698 32.0627C12.1666 34.167 11.6901 35.6806 11.2022 36.8258C10.9117 37.5078 10.5084 38.3165 10.3004 38.6327C9.06428 40.5115 11.5361 33.3505 12.93 31.4594C13.1372 31.1784 13.4834 31.1119 13.6936 31.1785C14.9041 31.562 15.0105 35.9365 15.7376 39.8903C15.9754 41.1833 16.2587 40.9607 16.8454 39.9278C18.463 37.0797 19.6582 34.7194 20.1429 34.4729C21.02 34.0268 20.6318 37.6133 20.9407 38.665C21.081 39.1424 21.8676 36.0093 22.1859 36.7301C22.5042 37.451 22.5042 41.227 22.4699 40.9409C21.904 36.2251 22.3648 31.114 22.5375 30.5232C22.6194 30.2429 23.1263 32.4122 23.4726 34.425C23.5251 34.7298 23.9584 31.0724 24.3391 26.6296C24.3775 26.1818 24.8613 29.9032 24.9997 34.0974C25.0589 35.893 25.2088 31.5717 25.2431 25.0485C25.2532 23.1249 25.3461 24.0176 25.2098 27.4296C25.0735 30.8415 24.7303 36.7458 24.8624 38.8605C25.0248 41.4598 27.4223 34.5218 28.3918 32.8179C28.8793 31.9612 29.7816 37.8026 30.4057 41.9718C30.9165 45.3842 31.034 35.5578 31.034 34.1348C31.034 32.3699 31.8662 39.702 31.8662 39.6084C31.8662 33.6152 31.4501 30.7 31.2774 29.3113C31.2342 28.9637 31.242 28.6196 31.1391 28.5457C30.3529 27.9819 28.0007 31.2992 25.5978 33.8394C23.4307 36.1303 22.4459 38.5141 21.2247 40.7069C20.734 41.5881 20.2865 42.4087 20.0784 42.5179C19.8032 42.6624 20.0077 41.1854 19.8017 40.8952C19.4275 40.3679 18.6221 41.924 18.4141 42.2724C17.8787 43.1691 17.998 40.2659 17.6526 39.7811C17.4811 39.5403 17.17 39.4337 16.9255 39.4659C16.6811 39.4982 16.4751 39.7041 16.6093 39.7759C16.7435 39.8477 17.2241 39.779 17.5746 39.6064C17.9252 39.4337 18.1311 39.1591 18.9675 38.8761" stroke="#E0D0FF" stroke-width="7.2" stroke-linecap="round"/>
<path d="M12.5681 28.3892C12.1506 29.0745 11.8531 29.7294 11.5835 30.3431C11.3677 30.8341 11.1955 31.3134 11.0455 31.7918C10.8911 32.2841 10.8372 32.8365 10.6723 33.3149C10.5041 33.8031 10.2996 34.2699 10.1496 34.7483C10.0039 35.2128 10.0004 35.7034 9.89556 36.1818C9.78641 36.6799 9.79074 37.2855 9.64202 38.4153C9.16951 42.0047 9.70115 42.5123 9.80507 42.9907C9.99948 43.4691 10.1778 43.8275 10.3865 44.0658C10.477 44.1858 10.5361 44.3041 10.7762 44.4259" stroke="#E0D0FF" stroke-width="7.2" stroke-linecap="round"/>
<path d="M15.2998 35.5776C16.2609 36.161 17.1856 36.2513 17.9905 36.095C18.1874 36.0276 18.3993 35.9387 18.5791 35.8706C18.7589 35.8026 18.9002 35.7581 19.2598 35.4429" stroke="#0D0D0D" stroke-width="1.8" stroke-linecap="round"/>
<path d="M24.5771 35.2348C25.5383 35.8182 26.463 35.9085 27.2678 35.7522C27.4647 35.6848 27.6766 35.5959 27.8565 35.5279C28.0363 35.4598 28.1775 35.4154 28.5371 35.1001" stroke="#0D0D0D" stroke-width="1.8" stroke-linecap="round"/>
<path d="M18.9854 41.6712C19.277 41.5622 19.9361 41.2684 20.6151 41.0483C21.1961 40.86 21.8068 40.8282 24.4952 40.8271C25.2182 40.9361 25.5494 41.0472 25.8971 41.1204C26.0633 41.1573 26.2085 41.1936 26.6883 41.341" stroke="#0D0D0D" stroke-width="1.8" stroke-linecap="round"/>
<path d="M10.1997 7.98715C9.81682 8.89013 9.59269 9.56223 9.41974 10.1996C9.25532 10.8055 9.08122 12.2968 8.97244 13.4613C8.83514 14.931 8.71855 15.5679 8.75371 16.2381C8.78475 16.8298 8.74501 17.464 8.80105 18.0154C8.86918 18.6859 8.93666 19.6429 9.26381 20.2651C9.62803 20.9577 10.9886 20.8325 12.3693 20.656C12.6539 20.6196 12.8244 20.6165 14.1962 20.3832C15.5681 20.15 18.1359 19.6859 19.5578 19.4431C22.2034 18.9915 23.9928 18.6567 24.1714 18.4524C24.3929 18.1993 24.3547 17.786 24.3651 17.3681C24.3793 16.8008 24.2101 15.2313 23.8123 13.1881C23.4801 11.4819 22.9666 10.8949 22.7307 10.3902C22.4423 9.77322 21.9247 8.95426 21.5787 8.39514C21.0953 7.61397 20.4668 6.9402 19.984 6.58033C19.5136 6.22966 18.3607 6.2538 16.6299 6.43701C14.15 6.69952 12.5571 7.15757 12.1894 7.26723C11.7339 7.36425 11.3172 7.46807 11.021 7.57906C10.8855 7.63249 10.7801 7.68007 10.5878 7.7442" stroke="#FEAFB0" stroke-width="2.88" stroke-linecap="round"/>
<path d="M13.0217 7.8227C11.7653 10.5805 11.323 12.2684 10.9577 13.3617C10.5003 14.7307 10.5329 15.24 10.3224 17.5746C10.2699 18.1568 10.3704 18.4904 10.5106 18.5558C10.8612 18.7194 11.4161 17.7648 12.2493 16.4254C12.8009 15.5384 13.4524 14.1351 13.9734 12.9955C15.3281 10.0329 15.5606 9.29749 15.8564 8.69451C15.9809 8.4407 16.1384 8.18216 16.3282 7.9608C16.4159 7.85855 16.533 7.82226 16.6122 7.93581C17.1391 8.69043 16.5018 9.6959 15.8641 10.7737C14.2906 13.4332 13.8507 14.1495 13.5656 14.6495C13.1534 15.3725 12.5502 16.5153 12.2451 17.2197C11.7799 18.2938 11.7833 18.8165 11.8558 19.0622C11.8918 19.1842 12.084 19.2227 12.2318 19.24C12.5159 19.2734 12.9261 19.1016 13.637 18.6729C14.8074 17.967 15.8765 16.6433 16.9666 15.2838C17.5453 14.5619 18.0393 13.6707 18.51 12.7471C20.0011 9.82133 19.95 9.19363 20.1096 8.56085C20.1726 8.31078 20.0372 7.91642 19.917 7.80378C19.2012 7.13274 18.4567 9.5171 18 10.3319C17.1217 11.8989 16.4083 12.6781 15.9306 13.3857C15.0551 14.6822 14.7637 16.1705 14.6801 16.9961C14.6538 17.256 14.7095 17.4815 14.8581 17.6702C15.2387 18.1536 16.3944 17.7541 17.2905 17.2768C17.6388 17.0913 18.5344 15.908 19.7823 14.0573C21.033 12.2024 21.3407 11.1611 21.6516 10.799C22.5999 9.69449 22.3395 14.746 21.8462 15.4421C21.4783 15.9613 20.9418 16.0959 20.3241 16.7393C20.1831 16.8862 20.124 16.9919 20.1542 17.0876C20.1844 17.1832 20.3149 17.2737 20.4397 17.3241C20.669 17.4167 21.434 17.2753 21.9382 17.1699C24.0987 16.7183 19.1005 17.697 18.2919 18.0009C17.9662 18.1232 17.6942 18.2104 17.5704 18.2471C17.3929 18.2996 18.0918 18.1965 19.2113 17.9082C21.9072 17.2139 23.6798 16.7553 23.5564 16.5478C23.4202 16.3189 22.6201 15.4858 21.3481 14.0914C20.2581 12.8965 19.1257 12.2526 18.2838 11.7296C17.0632 10.8948 16.5945 10.6918 16.2899 10.517C16.1433 10.4277 16.0129 10.3372 15.7949 10.2591" stroke="#FEAFB0" stroke-width="2.88" stroke-linecap="round"/>
<path d="M14.4545 8.08448C13.6338 9.26728 12.9858 10.2778 12.6278 10.9671C12.1369 11.9123 11.9124 13.0219 11.8436 13.3438C11.8224 13.4425 11.9977 12.9785 12.3724 12.3135C12.6822 11.7637 13.2681 10.802 13.6224 10.1841C14.09 9.32637 14.2511 8.97713 14.3658 8.78257C14.4362 8.69005 14.5315 8.61013 14.7133 8.46517" stroke="#FEAFB0" stroke-width="2.88" stroke-linecap="round"/>
<path d="M10.8902 6.49643C10.5148 6.69014 10.1912 7.00179 9.9476 7.27546C9.7419 7.50657 9.65899 7.82562 9.58225 8.1487C9.55038 8.28287 9.59596 8.53331 9.68168 8.83415C9.7921 9.22166 10.2894 9.31136 10.9894 9.46982C11.4438 9.57267 11.7083 9.4515 12.45 9.3412C13.0998 9.24456 14.2969 9.01547 14.9436 8.89075C15.8209 8.72156 16.3859 8.54292 16.8247 8.41635C17.1569 8.32052 17.5771 8.20128 17.8417 8.12946C18.1398 8.04857 18.5529 7.91376 18.876 7.8081C19.183 7.70775 19.5381 7.57801 19.808 7.4891C20.0506 7.40917 20.2969 7.21954 20.5242 7.02766C20.6253 6.94228 20.6114 6.67302 20.5367 6.34644C20.4578 6.00164 20.1726 5.81711 19.9121 5.68965C19.6639 5.5682 19.3205 5.65385 19.01 5.64656C18.7451 5.64035 18.4897 5.61402 18.1254 5.65588C17.8334 5.68943 17.5145 5.64778 17.0964 5.69937C16.8145 5.73415 16.532 5.73036 15.4573 5.90062C15.146 5.94993 14.9415 5.9542 14.7106 5.98809C14.509 6.01767 13.6062 6.14803 12.3584 6.3814C11.713 6.5021 11.4294 6.66781 11.1355 6.75274C11.0661 6.7728 11.0136 6.8218 10.9872 6.81137C10.9609 6.80093 10.9651 6.73748 10.9935 6.67653C11.1154 6.415 11.4063 6.29297 11.6858 6.13131C11.9775 5.96256 12.2744 5.92992 14.3284 5.55037C15.0029 5.42575 15.4185 5.45571 16.0775 5.38458C16.4699 5.34222 16.9347 5.35646 17.2824 5.34088C17.5969 5.32678 17.9705 5.29559 18.2272 5.3126C18.4839 5.32961 18.7396 5.34656 18.9908 5.33299C19.2627 5.31829 19.5171 5.44352 19.7759 5.51526C20.0312 5.58605 20.1916 5.84313 20.397 6.05964C20.4478 6.11327 20.4881 6.16952 20.5148 6.22832C20.5416 6.28713 20.5526 6.34784 20.5079 6.40389C20.2697 6.70239 19.7452 6.6847 18.4487 6.94301C18.1846 6.99564 18.1272 7.02463 17.3212 7.20974C16.5151 7.39484 14.9628 7.73811 14.1265 7.92939C13.2171 8.14957 12.9747 8.20951 12.6928 8.26831C12.5778 8.29693 12.5198 8.32308 12.4601 8.35002" stroke="#FFFAF5" stroke-width="2.88" stroke-linecap="round"/>
<path d="M7.96973 21.9141L7.99685 22.0641" stroke="#FFFAF5" stroke-width="4.32" stroke-linecap="round"/>
<path d="M11.6118 21.4881L11.4274 21.7539" stroke="#FFFAF5" stroke-width="4.32" stroke-linecap="round"/>
<path d="M15.4051 21.0353L15.3436 21.1239" stroke="#FFFAF5" stroke-width="4.32" stroke-linecap="round"/>
<path d="M19.32 20.405L19.1835 20.5072" stroke="#FFFAF5" stroke-width="4.32" stroke-linecap="round"/>
<path d="M22.8271 19.2285L22.8678 19.4536" stroke="#FFFAF5" stroke-width="4.32" stroke-linecap="round"/>
<path d="M26.0537 18.6455L26.0673 18.7205" stroke="#FFFAF5" stroke-width="4.32" stroke-linecap="round"/>
<path d="M13.7091 1.62198C13.3544 2.22774 13.127 2.68031 12.7617 3.44375C12.6243 3.73093 12.5541 3.94777 12.5817 4.31511C12.6338 5.00681 12.9169 5.53505 13.2757 5.74066C14.0832 6.20347 14.6068 6.03164 15.0429 5.87612C15.4404 5.73434 15.4808 5.28088 15.4857 5.02235C15.4975 4.38303 15.272 3.69211 15.087 3.31175C14.9639 3.12788 14.8225 2.92018 14.6922 2.69886C14.6338 2.5924 14.5912 2.49782 14.3564 2.20239" stroke="#FC5B44" stroke-width="2.88" stroke-linecap="round"/>
<path d="M14.3721 2.41162C14.565 2.71978 14.7156 2.97217 14.809 3.15408C14.8512 3.24234 14.8828 3.32238 14.9111 3.43005C14.9394 3.53772 14.9634 3.67059 14.9882 3.80748" stroke="#FFFAF5" stroke-width="0.72" stroke-linecap="round"/>
<path d="M15.3706 5.34979L15.3203 5.35889" stroke="#FFFAF5" stroke-width="0.72" stroke-linecap="round"/>
<path d="M9.56152 13.4707L9.57226 13.5301" stroke="#FC5B44" stroke-width="0.72" stroke-linecap="round"/>
<path d="M14.6297 14.7017L14.5703 14.7124" stroke="#FC5B44" stroke-width="0.72" stroke-linecap="round"/>
<path d="M18.4648 11.4937L18.4756 11.553" stroke="#FC5B44" stroke-width="0.72" stroke-linecap="round"/>
<path d="M23.2137 13.334L23.1543 13.3447" stroke="#FC5B44" stroke-width="0.72" stroke-linecap="round"/>
<path d="M9.13672 17.9023L9.14745 17.9617" stroke="#FC5B44" stroke-width="0.72" stroke-linecap="round"/>
<path d="M18.584 16.5625L18.5947 16.6219" stroke="#FC5B44" stroke-width="0.72" stroke-linecap="round"/>
</svg>
