<svg width="41" height="48" viewBox="0 0 41 48" fill="none" xmlns="http://www.w3.org/2000/svg">
<path d="M3.78062 38.8289C3.36454 32.2484 3.63916 29.3421 4.88222 25.6368C7.12758 18.944 9.04829 18.3074 9.98241 17.3005C11.5358 15.6261 13.6169 15.116 17.8714 14.3858C24.1439 13.3092 25.7542 14.7624 27.0773 15.3865C28.366 15.9943 29.7029 18.4947 32.4126 22.7939C33.7429 24.9045 34.2216 26.5459 34.7084 28.9717C34.7791 30.1493 34.8478 30.9898 34.9518 32.5387C34.9872 33.8129 34.9872 36.0785 34.9872 38.4128" stroke="#E0D0FF" stroke-width="7.2" stroke-linecap="round"/>
<path d="M3.78027 40.0772C4.47098 41.3213 5.44046 42.5696 6.85828 43.1271C9.67117 44.2333 11.2615 42.3698 12.4796 41.7093C13.5164 41.1471 13.9037 40.2187 14.2147 39.9056C14.8699 39.246 15.8385 41.6667 17.2636 42.6746C18.3574 43.4483 20.8939 43.1979 22.8454 42.5769C24.2619 42.1261 24.7219 40.5682 25.2753 39.6975C25.8839 38.7401 27.2143 41.1133 28.3596 41.9122C30.294 43.2615 34.009 41.8164 35.1564 41.0852C35.4093 40.924 35.6068 40.7055 35.7815 40.4621C37.9466 37.4465 36.0978 30.2367 35.9584 28.8481C35.8201 27.4709 35.2656 26.4212 34.9192 25.2416C34.4721 23.7192 33.88 22.6764 33.1519 21.5655C32.4549 20.5021 31.5915 19.5558 30.8291 18.6518C30.0667 17.7481 28.9577 17.1966 27.7448 16.3977C26.6678 15.6883 25.0798 15.5281 23.482 15.3554C22.1123 15.2074 20.844 15.526 19.9453 16.1127C17.8662 17.4699 17.17 18.9192 15.9207 19.9282C14.4152 21.1441 12.5264 23.2881 10.7217 24.8495C8.84704 26.4712 7.52922 29.3172 6.45364 32.7832C5.96921 34.3443 5.86071 36.1826 6.13533 37.9156C6.31202 39.0307 8.76084 38.829 10.7705 38.726C12.5606 38.6342 13.3461 36.4115 14.2823 34.9177C15.977 32.2137 16.3253 29.3463 16.9203 26.9777C17.3784 25.1542 18.1311 22.8949 18.7553 20.2964C18.9984 19.284 18.9675 18.8651 18.5212 19.5797C16.9871 22.0364 15.2331 25.5682 13.5698 28.0627C12.1666 30.167 11.6901 31.6806 11.2022 32.8258C10.9117 33.5078 10.5084 34.3165 10.3004 34.6327C9.06428 36.5115 11.5361 29.3505 12.93 27.4594C13.1372 27.1784 13.4834 27.1119 13.6936 27.1785C14.9041 27.562 15.0105 31.9365 15.7376 35.8903C15.9754 37.1833 16.2587 36.9607 16.8454 35.9278C18.463 33.0797 19.6582 30.7194 20.1429 30.4729C21.02 30.0268 20.6318 33.6133 20.9407 34.665C21.081 35.1424 21.8676 32.0093 22.1859 32.7301C22.5042 33.451 22.5042 37.227 22.4699 36.9409C21.904 32.2251 22.3648 27.114 22.5375 26.5232C22.6194 26.2429 23.1263 28.4122 23.4726 30.425C23.5251 30.7298 23.9584 27.0724 24.3391 22.6296C24.3775 22.1818 24.8613 25.9032 24.9997 30.0974C25.0589 31.893 25.2088 27.5717 25.2431 21.0485C25.2532 19.1249 25.3461 20.0176 25.2098 23.4296C25.0735 26.8415 24.7303 32.7458 24.8624 34.8605C25.0248 37.4598 27.4223 30.5218 28.3918 28.8179C28.8793 27.9612 29.7816 33.8026 30.4057 37.9718C30.9165 41.3842 31.034 31.5578 31.034 30.1348C31.034 28.3699 31.8662 35.702 31.8662 35.6084C31.8662 29.6152 31.4501 26.7 31.2774 25.3113C31.2342 24.9637 31.242 24.6196 31.1391 24.5457C30.3529 23.9819 28.0007 27.2992 25.5978 29.8394C23.4307 32.1303 22.4459 34.5141 21.2247 36.7069C20.734 37.5881 20.2865 38.4087 20.0784 38.5179C19.8032 38.6624 20.0077 37.1854 19.8017 36.8952C19.4275 36.3679 18.6221 37.924 18.4141 38.2724C17.8787 39.1691 17.998 36.2659 17.6526 35.7811C17.4811 35.5403 17.17 35.4337 16.9255 35.4659C16.6811 35.4982 16.4751 35.7041 16.6093 35.7759C16.7435 35.8477 17.2241 35.779 17.5746 35.6064C17.9252 35.4337 18.1311 35.1591 18.9675 34.8761" stroke="#E0D0FF" stroke-width="7.2" stroke-linecap="round"/>
<path d="M12.5681 24.3892C12.1506 25.0745 11.8531 25.7294 11.5835 26.3431C11.3677 26.8341 11.1955 27.3134 11.0455 27.7918C10.8911 28.2841 10.8372 28.8365 10.6723 29.3149C10.5041 29.8031 10.2996 30.2699 10.1496 30.7483C10.0039 31.2128 10.0004 31.7034 9.89556 32.1818C9.78641 32.6799 9.79074 33.2855 9.64202 34.4153C9.16951 38.0047 9.70115 38.5123 9.80507 38.9907C9.99948 39.4691 10.1778 39.8275 10.3865 40.0658C10.477 40.1858 10.5361 40.3041 10.7762 40.4259" stroke="#E0D0FF" stroke-width="7.2" stroke-linecap="round"/>
<path d="M15.2998 31.5776C16.2609 32.161 17.1856 32.2513 17.9905 32.095C18.1874 32.0276 18.3993 31.9387 18.5791 31.8706C18.7589 31.8026 18.9002 31.7581 19.2598 31.4429" stroke="#0D0D0D" stroke-width="1.8" stroke-linecap="round"/>
<path d="M24.5771 31.2348C25.5383 31.8182 26.463 31.9085 27.2678 31.7522C27.4647 31.6848 27.6766 31.5959 27.8565 31.5279C28.0363 31.4598 28.1775 31.4154 28.5371 31.1001" stroke="#0D0D0D" stroke-width="1.8" stroke-linecap="round"/>
<path d="M18.9854 37.6712C19.277 37.5622 19.9361 37.2684 20.6151 37.0483C21.1961 36.86 21.8068 36.8282 24.4952 36.8271C25.2182 36.9361 25.5494 37.0472 25.8971 37.1204C26.0633 37.1573 26.2085 37.1936 26.6883 37.341" stroke="#0D0D0D" stroke-width="1.8" stroke-linecap="round"/>
<path d="M11.6227 17.6407C11.1015 16.4622 10.0039 14.2204 8.95225 12.1274C8.50436 11.236 8.11901 10.3835 7.98858 9.61638C7.96887 9.50047 8.16126 9.48737 8.30499 9.56045C9.09764 9.96344 9.74802 10.56 10.2657 10.8182C10.8001 11.0848 11.424 11.3921 12.0927 11.6731C12.8277 11.9819 13.3937 12.2083 13.6372 12.2009C14.2659 12.1817 14.2305 10.9593 14.8615 9.07613C15.3689 7.56185 15.6228 6.76977 16.1134 5.41346C16.5714 4.14744 16.7131 3.70624 16.8422 3.50456C16.9009 3.41288 17.0607 3.44981 17.2097 3.55486C18.0236 4.12831 18.5508 5.51598 19.2432 6.51569C19.7219 7.20687 20.2826 8.04016 20.7783 8.64793C21.1349 9.08499 21.4053 9.4594 21.601 9.65525C21.6983 9.75256 21.8492 9.77756 22.0035 9.72032C22.7353 9.4488 23.0739 8.88755 24.0662 8.18314C24.7472 7.69968 25.3531 7.26356 25.8993 6.91009C26.4011 6.58536 26.8598 6.48724 27.0322 6.4412C27.5259 6.30932 26.7306 7.64908 26.5266 8.68117C26.4013 9.31533 26.2398 10.7653 26.0149 12.0707C25.8795 12.8567 25.8383 13.6526 25.7776 14.3683C25.7122 14.657 25.6586 14.9289 25.6219 15.1961C25.5956 15.332 25.5537 15.4685 25.5425 15.8001" stroke="#FFDE09" stroke-width="2.8" stroke-linecap="round"/>
<path d="M11.3012 13.3771C11.7807 14.6931 12.824 16.8154 13.1238 17.0444C13.687 17.4744 12.9271 15.2694 12.6817 14.4897C12.6233 14.3039 12.5965 14.0805 12.6563 14.0509C13.4338 13.6655 13.994 15.6049 14.474 15.9341C14.6259 16.0383 14.6859 15.8226 14.7099 15.5733C14.7651 15.0001 14.6492 14.0331 14.6681 13.3725C14.6891 12.6362 15.5709 14.6559 15.6872 14.6707C17.374 14.8863 16.0992 10.9731 16.0853 10.6967C16.0069 9.13727 17.1511 15.1095 17.3471 15.3073C18.0667 16.0333 17.5531 11.2761 17.4185 9.37937C17.4024 9.15292 17.3861 8.89613 17.3147 8.36988C17.2432 7.84364 17.1113 7.0562 17.3912 8.24374C17.671 9.43128 18.3666 12.6177 18.8011 14.4244C19.2357 16.2312 19.3882 16.5619 19.3294 15.6219C19.131 12.4499 18.9017 10.1416 19.2774 10.2406C21.1355 10.7301 21.3914 14.6544 21.7114 15.1003C22.952 16.829 21.2634 11.3475 21.5095 11.6482C21.8472 12.0608 22.3072 13.4845 22.9388 14.8212C23.5254 16.0627 23.6185 12.7252 23.8734 11.8946C24.1831 10.8852 23.8627 15.3199 23.8054 16.0762C23.7104 17.3306 24.4972 12.9097 25.0527 11.3458C25.3304 10.5638 25.2575 9.99661 25.083 9.53472C24.9806 9.26359 23.4871 10.8681 21.7074 12.7357C20.5539 13.9461 19.8594 14.8521 18.6824 15.6223C17.6862 16.2741 16.8233 16.2457 16.2376 16.4748C15.561 16.7394 14.706 17.0909 14.2046 17.3221C13.6019 17.5999 12.8684 17.8246 12.3 17.9521C12.1912 17.9766 14.8141 17.695 18.2838 17.13C19.9653 16.8563 21.4424 16.7811 22.6254 16.6644C23.4017 16.5511 24.0197 16.4799 24.3761 16.4693C24.6012 16.4483 24.9162 16.3956 25.4476 16.4047" stroke="#FFDE09" stroke-width="2.8" stroke-linecap="round"/>
<path d="M7.36719 8.05029L7.39916 8.24119" stroke="#C8E1FF" stroke-width="2.8" stroke-linecap="round"/>
<path d="M17.0039 1.72656L17.0519 2.0129" stroke="#C8E1FF" stroke-width="2.8" stroke-linecap="round"/>
<path d="M28.207 5.34473L28.223 5.44017" stroke="#C8E1FF" stroke-width="2.8" stroke-linecap="round"/>
<path d="M17.4643 8.13506C17.2286 8.90404 17.0297 9.32085 16.7811 10.073C16.7259 10.2402 16.6784 10.322 16.6716 10.4004C16.6402 10.7646 17.2564 11.0326 17.5855 11.2759C17.9274 11.4784 18.1677 11.6498 18.3308 11.7661C18.429 11.8361 18.5587 11.9286 18.7484 12.0145" stroke="#C8E1FF" stroke-width="1.4" stroke-linecap="round"/>
<path d="M17.6318 8.10693C17.8615 8.2213 18.7044 8.69199 19.3251 9.04274C19.4251 9.09922 19.4858 9.19779 19.507 9.31937C19.5957 9.82767 19.4419 10.2997 19.2292 10.98C19.1405 11.2544 19.0963 11.4556 19.084 11.611C19.0778 11.6893 19.0717 11.7665 19.0093 11.8554" stroke="#C8E1FF" stroke-width="1.4" stroke-linecap="round"/>
</svg>
