<svg width="41" height="39" viewBox="0 0 41 39" fill="none" xmlns="http://www.w3.org/2000/svg">
<path d="M3.78062 30.7849C3.36454 24.2045 3.63916 21.2981 4.88222 17.5929C7.12758 10.9 9.04829 10.2635 9.98241 9.25655C11.5358 7.58212 13.6169 7.07209 17.8714 6.34186C24.1439 5.26527 25.7542 6.71842 27.0773 7.34255C28.366 7.95039 29.7029 10.4507 32.4126 14.7499C33.7429 16.8606 34.2216 18.502 34.7084 20.9278C34.7791 22.1053 34.8478 22.9458 34.9518 24.4947C34.9872 25.769 34.9872 28.0346 34.9872 30.3688" stroke="#E0D0FF" stroke-width="7.2" stroke-linecap="round"/>
<path d="M3.78027 32.0333C4.47098 33.2774 5.44046 34.5256 6.85828 35.0832C9.67117 36.1893 11.2615 34.3259 12.4796 33.6654C13.5164 33.1031 13.9037 32.1747 14.2147 31.8616C14.8699 31.202 15.8385 33.6227 17.2636 34.6307C18.3574 35.4044 20.8939 35.1539 22.8454 34.5329C24.2619 34.0821 24.7219 32.5242 25.2753 31.6536C25.8839 30.6962 27.2143 33.0693 28.3596 33.8682C30.294 35.2176 34.009 33.7725 35.1564 33.0412C35.4093 32.88 35.6068 32.6615 35.7815 32.4181C37.9466 29.4026 36.0978 22.1928 35.9584 20.8041C35.8201 19.427 35.2656 18.3773 34.9192 17.1977C34.4721 15.6752 33.88 14.6325 33.1519 13.5215C32.4549 12.4581 31.5915 11.5118 30.8291 10.6079C30.0667 9.70413 28.9577 9.15263 27.7448 8.35374C26.6678 7.64437 25.0798 7.48412 23.482 7.31144C22.1123 7.16342 20.844 7.48204 19.9453 8.06872C17.8662 9.42591 17.17 10.8752 15.9207 11.8842C14.4152 13.1001 12.5264 15.2441 10.7217 16.8055C8.84704 18.4273 7.52922 21.2732 6.45364 24.7393C5.96921 26.3003 5.86071 28.1387 6.13533 29.8717C6.31202 30.9867 8.76084 30.785 10.7705 30.682C12.5606 30.5903 13.3461 28.3675 14.2823 26.8738C15.977 24.1697 16.3253 21.3024 16.9203 18.9338C17.3784 17.1102 18.1311 14.8509 18.7553 12.2525C18.9984 11.24 18.9675 10.8211 18.5212 11.5358C16.9871 13.9924 15.2331 17.5243 13.5698 20.0187C12.1666 22.123 11.6901 23.6366 11.2022 24.7819C10.9117 25.4638 10.5084 26.2725 10.3004 26.5888C9.06428 28.4676 11.5361 21.3065 12.93 19.4154C13.1372 19.1344 13.4834 19.068 13.6936 19.1346C14.9041 19.5181 15.0105 23.8925 15.7376 27.8464C15.9754 29.1394 16.2587 28.9168 16.8454 27.8838C18.463 25.0358 19.6582 22.6755 20.1429 22.4289C21.02 21.9829 20.6318 25.5693 20.9407 26.621C21.081 27.0984 21.8676 23.9653 22.1859 24.6862C22.5042 25.4071 22.5042 29.1831 22.4699 28.897C21.904 24.1811 22.3648 19.0701 22.5375 18.4792C22.6194 18.199 23.1263 20.3683 23.4726 22.3811C23.5251 22.6858 23.9584 19.0285 24.3391 14.5857C24.3775 14.1378 24.8613 17.8593 24.9997 22.0534C25.0589 23.849 25.2088 19.5278 25.2431 13.0046C25.2532 11.0809 25.3461 11.9737 25.2098 15.3856C25.0735 18.7975 24.7303 24.7018 24.8624 26.8166C25.0248 29.4159 27.4223 22.4778 28.3918 20.7739C28.8793 19.9173 29.7816 25.7587 30.4057 29.9279C30.9165 33.3403 31.034 23.5139 31.034 22.0909C31.034 20.326 31.8662 27.6581 31.8662 27.5645C31.8662 21.5713 31.4501 18.6561 31.2774 17.2674C31.2342 16.9198 31.242 16.5756 31.1391 16.5018C30.3529 15.9379 28.0007 19.2552 25.5978 21.7954C23.4307 24.0864 22.4459 26.4702 21.2247 28.663C20.734 29.5442 20.2865 30.3647 20.0784 30.474C19.8032 30.6185 20.0077 29.1415 19.8017 28.8512C19.4275 28.324 18.6221 29.88 18.4141 30.2285C17.8787 31.1252 17.998 28.2219 17.6526 27.7372C17.4811 27.4963 17.17 27.3897 16.9255 27.422C16.6811 27.4542 16.4751 27.6602 16.6093 27.732C16.7435 27.8037 17.2241 27.7351 17.5746 27.5624C17.9252 27.3897 18.1311 27.1151 18.9675 26.8322" stroke="#E0D0FF" stroke-width="7.2" stroke-linecap="round"/>
<path d="M12.5681 16.3452C12.1506 17.0306 11.8531 17.6855 11.5835 18.2992C11.3677 18.7902 11.1955 19.2695 11.0455 19.7479C10.8911 20.2401 10.8372 20.7925 10.6723 21.2709C10.5041 21.7592 10.2996 22.226 10.1496 22.7044C10.0039 23.1689 10.0004 23.6594 9.89556 24.1378C9.78641 24.636 9.79074 25.2416 9.64202 26.3713C9.16951 29.9607 9.70115 30.4683 9.80507 30.9467C9.99948 31.4252 10.1778 31.7835 10.3865 32.0218C10.477 32.1419 10.5361 32.2602 10.7762 32.382" stroke="#E0D0FF" stroke-width="7.2" stroke-linecap="round"/>
<path d="M15.2998 23.5337C16.2609 24.1171 17.1856 24.2073 17.9905 24.051C18.1874 23.9837 18.3993 23.8947 18.5791 23.8267C18.7589 23.7587 18.9002 23.7142 19.2598 23.3989" stroke="#0D0D0D" stroke-width="1.8" stroke-linecap="round"/>
<path d="M24.5771 23.1909C25.5383 23.7743 26.463 23.8646 27.2678 23.7083C27.4647 23.6409 27.6766 23.552 27.8565 23.4839C28.0363 23.4159 28.1775 23.3714 28.5371 23.0562" stroke="#0D0D0D" stroke-width="1.8" stroke-linecap="round"/>
<path d="M18.9854 29.6272C19.277 29.5183 19.9361 29.2245 20.6151 29.0044C21.1961 28.816 21.8068 28.7843 24.4952 28.7832C25.2182 28.8921 25.5494 29.0033 25.8971 29.0765C26.0633 29.1133 26.2085 29.1496 26.6883 29.2971" stroke="#0D0D0D" stroke-width="1.8" stroke-linecap="round"/>
<path d="M6.68051 10.549C7.07863 9.59783 8.37026 7.52701 9.26314 6.42501C10.0903 5.40409 11.1894 4.56639 12.3515 3.77968C13.4425 3.04103 14.7248 2.86382 15.63 2.70363C16.8119 2.51781 17.9111 2.49571 19.6701 2.73802C20.7936 2.97176 22.8096 3.4329 24.8866 3.90801" stroke="#AE6163" stroke-width="5.12" stroke-linecap="round"/>
<path d="M6.72163 10.9687C7.93579 11.3832 10.8436 11.8678 11.5892 11.9002C12.4958 11.9396 13.6089 11.7262 14.7655 11.4655C15.5915 11.2794 16.4838 10.9258 18.3081 10.3172C19.3069 9.98404 20.219 9.54521 20.9932 9.06096C21.7157 8.60899 22.4033 8.17644 22.9582 7.5504C23.5801 6.84878 23.9367 6.06517 24.2475 5.40588C24.3243 5.24298 24.3487 5.06519 24.0558 5.06316C22.2164 5.05038 21.1887 5.74846 20.086 5.97699C19.1552 6.16989 18.2936 6.63729 17.4408 6.87649C16.3198 7.19091 14.7322 7.68831 13.5069 8.02831C12.4388 8.30855 11.7095 8.50693 11.2758 8.6122C11.0762 8.68074 10.9181 8.77999 10.6252 8.85251" stroke="#AE6163" stroke-width="5.12" stroke-linecap="round"/>
<path d="M15.2748 3.29356C15.2896 3.22888 15.3044 3.16421 15.3504 3.03757C15.3964 2.91094 15.4731 2.72431 15.5746 2.43404" stroke="#EAAB74" stroke-width="0.32" stroke-linecap="round"/>
<path d="M19.0129 3.63303C19.0453 3.64043 19.0776 3.64782 19.1539 3.61422C19.2301 3.58062 19.3493 3.5058 19.615 3.25514" stroke="#EAAB74" stroke-width="0.32" stroke-linecap="round"/>
<path d="M21.7168 7.13916L22.8927 7.40814" stroke="#EAAB74" stroke-width="0.32" stroke-linecap="round"/>
<path d="M17.1982 7.96143L17.7945 8.51031" stroke="#EAAB74" stroke-width="0.32" stroke-linecap="round"/>
<path d="M14.0453 6.41569C13.9659 6.46558 13.8864 6.51546 13.7858 6.57857C13.6853 6.64167 13.5661 6.71649 13.2473 6.74875" stroke="#EAAB74" stroke-width="0.32" stroke-linecap="round"/>
<path d="M10.7238 11.0181C10.7884 11.0329 10.8531 11.0477 11.007 11.0489C11.1609 11.05 11.4021 11.0371 11.7709 10.9483" stroke="#EAAB74" stroke-width="0.32" stroke-linecap="round"/>
<path d="M9.27771 6.97491L8.79608 7.27722" stroke="#EAAB74" stroke-width="0.32" stroke-linecap="round"/>
</svg>
