<svg width="41" height="48" viewBox="0 0 41 48" fill="none" xmlns="http://www.w3.org/2000/svg">
<path d="M3.78062 39.7288C3.36454 33.1483 3.63916 30.242 4.88222 26.5367C7.12758 19.8439 9.04829 19.2073 9.98241 18.2004C11.5358 16.526 13.6169 16.0159 17.8714 15.2857C24.1439 14.2091 25.7542 15.6623 27.0773 16.2864C28.366 16.8942 29.7029 19.3946 32.4126 23.6938C33.7429 25.8044 34.2216 27.4459 34.7084 29.8716C34.7791 31.0492 34.8478 31.8897 34.9518 33.4386C34.9872 34.7128 34.9872 36.9784 34.9872 39.3127" stroke="#E0D0FF" stroke-width="7.2" stroke-linecap="round"/>
<path d="M3.78027 40.9771C4.47098 42.2212 5.44046 43.4695 6.85828 44.027C9.67117 45.1332 11.2615 43.2697 12.4796 42.6092C13.5164 42.047 13.9037 41.1186 14.2147 40.8055C14.8699 40.1459 15.8385 42.5666 17.2636 43.5745C18.3574 44.3482 20.8939 44.0978 22.8454 43.4768C24.2619 43.026 24.7219 41.4681 25.2753 40.5974C25.8839 39.64 27.2143 42.0132 28.3596 42.8121C30.294 44.1614 34.009 42.7164 35.1564 41.9851C35.4093 41.8239 35.6068 41.6054 35.7815 41.362C37.9466 38.3464 36.0978 31.1366 35.9584 29.748C35.8201 28.3708 35.2656 27.3211 34.9192 26.1415C34.4721 24.6191 33.88 23.5763 33.1519 22.4654C32.4549 21.402 31.5915 20.4557 30.8291 19.5517C30.0667 18.648 28.9577 18.0965 27.7448 17.2976C26.6678 16.5882 25.0798 16.428 23.482 16.2553C22.1123 16.1073 20.844 16.4259 19.9453 17.0126C17.8662 18.3698 17.17 19.8191 15.9207 20.8281C14.4152 22.044 12.5264 24.188 10.7217 25.7494C8.84704 27.3711 7.52922 30.2171 6.45364 33.6831C5.96921 35.2442 5.86071 37.0825 6.13533 38.8155C6.31202 39.9306 8.76084 39.7289 10.7705 39.6259C12.5606 39.5341 13.3461 37.3114 14.2823 35.8176C15.977 33.1136 16.3253 30.2462 16.9203 27.8776C17.3784 26.0541 18.1311 23.7948 18.7553 21.1963C18.9984 20.1839 18.9675 19.765 18.5212 20.4796C16.9871 22.9363 15.2331 26.4681 13.5698 28.9626C12.1666 31.0669 11.6901 32.5805 11.2022 33.7257C10.9117 34.4077 10.5084 35.2164 10.3004 35.5326C9.06428 37.4114 11.5361 30.2504 12.93 28.3593C13.1372 28.0783 13.4834 28.0118 13.6936 28.0784C14.9041 28.4619 15.0105 32.8364 15.7376 36.7902C15.9754 38.0832 16.2587 37.8606 16.8454 36.8277C18.463 33.9796 19.6582 31.6193 20.1429 31.3728C21.02 30.9267 20.6318 34.5132 20.9407 35.5649C21.081 36.0423 21.8676 32.9092 22.1859 33.63C22.5042 34.3509 22.5042 38.1269 22.4699 37.8408C21.904 33.125 22.3648 28.0139 22.5375 27.4231C22.6194 27.1428 23.1263 29.3121 23.4726 31.3249C23.5251 31.6297 23.9584 27.9723 24.3391 23.5295C24.3775 23.0817 24.8613 26.8031 24.9997 30.9973C25.0589 32.7929 25.2088 28.4716 25.2431 21.9484C25.2532 20.0248 25.3461 20.9175 25.2098 24.3295C25.0735 27.7414 24.7303 33.6457 24.8624 35.7604C25.0248 38.3597 27.4223 31.4217 28.3918 29.7178C28.8793 28.8611 29.7816 34.7025 30.4057 38.8717C30.9165 42.2841 31.034 32.4577 31.034 31.0347C31.034 29.2698 31.8662 36.602 31.8662 36.5083C31.8662 30.5151 31.4501 27.5999 31.2774 26.2112C31.2342 25.8636 31.242 25.5195 31.1391 25.4456C30.3529 24.8818 28.0007 28.1991 25.5978 30.7393C23.4307 33.0302 22.4459 35.414 21.2247 37.6068C20.734 38.488 20.2865 39.3086 20.0784 39.4178C19.8032 39.5623 20.0077 38.0853 19.8017 37.7951C19.4275 37.2678 18.6221 38.8239 18.4141 39.1723C17.8787 40.069 17.998 37.1658 17.6526 36.681C17.4811 36.4402 17.17 36.3336 16.9255 36.3658C16.6811 36.3981 16.4751 36.604 16.6093 36.6758C16.7435 36.7476 17.2241 36.6789 17.5746 36.5063C17.9252 36.3336 18.1311 36.059 18.9675 35.776" stroke="#E0D0FF" stroke-width="7.2" stroke-linecap="round"/>
<path d="M12.5681 25.2891C12.1506 25.9744 11.8531 26.6293 11.5835 27.243C11.3677 27.734 11.1955 28.2133 11.0455 28.6917C10.8911 29.184 10.8372 29.7364 10.6723 30.2148C10.5041 30.703 10.2996 31.1698 10.1496 31.6482C10.0039 32.1127 10.0004 32.6033 9.89556 33.0817C9.78641 33.5798 9.79074 34.1854 9.64202 35.3152C9.16951 38.9046 9.70115 39.4122 9.80507 39.8906C9.99948 40.369 10.1778 40.7274 10.3865 40.9657C10.477 41.0857 10.5361 41.204 10.7762 41.3258" stroke="#E0D0FF" stroke-width="7.2" stroke-linecap="round"/>
<path d="M15.2998 32.4775C16.2609 33.0609 17.1856 33.1512 17.9905 32.9949C18.1874 32.9275 18.3993 32.8386 18.5791 32.7706C18.7589 32.7025 18.9002 32.658 19.2598 32.3428" stroke="#0D0D0D" stroke-width="1.8" stroke-linecap="round"/>
<path d="M24.5771 32.1347C25.5383 32.7181 26.463 32.8084 27.2678 32.6521C27.4647 32.5847 27.6766 32.4958 27.8565 32.4278C28.0363 32.3597 28.1775 32.3153 28.5371 32" stroke="#0D0D0D" stroke-width="1.8" stroke-linecap="round"/>
<path d="M18.9854 38.5711C19.277 38.4621 19.9361 38.1683 20.6151 37.9482C21.1961 37.7599 21.8068 37.7282 24.4952 37.7271C25.2182 37.836 25.5494 37.9471 25.8971 38.0203C26.0633 38.0572 26.2085 38.0935 26.6883 38.2409" stroke="#0D0D0D" stroke-width="1.8" stroke-linecap="round"/>
<path d="M21.4532 10.0532C19.6746 10.2147 18.8672 10.5364 17.8954 11.4658C17.1997 12.131 17.2865 13.1248 17.244 14.5197C17.2173 15.3989 17.93 15.9997 18.537 16.5867C19.095 17.1262 19.8312 17.255 21.3864 17.3175C22.2712 17.3531 23.0679 16.9345 23.7575 16.5096C24.0731 16.3151 24.566 15.9244 25.1318 15.2785C25.6343 14.7049 25.7024 13.6614 25.6623 12.61C25.6255 11.644 24.7336 11.1483 24.1266 10.9036C23.3681 10.598 22.2666 10.7015 19.5623 10.7404C18.5188 10.7553 17.9749 11.3462 17.6313 11.7298C17.0927 12.3312 16.9223 13.166 16.719 13.8144C16.4029 14.822 16.7572 16.4027 17.2823 17.1524C17.999 18.1757 18.86 18.1461 19.609 18.2074C20.7594 18.3016 22.3807 18.2287 23.1298 18.0265C23.8655 17.828 24.4446 17.5002 25.113 17.1973C25.886 16.847 26.3871 16.2473 26.653 15.6002C26.9925 14.7741 26.7951 13.7415 26.6542 12.9694C26.5289 12.2821 25.9064 11.7966 25.4414 11.2891C24.9668 10.7712 24.2892 10.6602 23.5808 10.4587C22.6284 10.3373 22.1428 10.1746 22.0001 10.1746C22.0177 10.1746 21.8598 10.3139 22.309 9.94971" stroke="#FF0000" stroke-width="9" stroke-linecap="round"/>
<path d="M21.3271 7.53907C21.3271 7.01325 21.444 5.98285 21.7817 4.51072C22.1081 3.08797 22.8303 2.34724 23.3441 1.96527C24.1793 1.40802 24.9539 1.01852 25.7174 0.93C26.218 0.899902 26.9483 0.899902 27.7008 0.899902" stroke="#62A565" stroke-width="1.8" stroke-linecap="round"/>
<path d="M27.7009 0.899902C27.7009 1.547 27.6425 2.31272 27.4508 2.87483C27.2256 3.53561 26.9361 4.20178 26.6249 4.68998C26.2999 5.19988 24.3229 6.11563 23.1881 6.63836C23.0694 6.68306 22.9526 6.71227 22.8048 6.75653C22.6569 6.8008 22.4817 6.85922 22.124 7.09646" stroke="#62A565" stroke-width="1.8" stroke-linecap="round"/>
<path d="M24.1602 2.58194C24.0433 2.69879 23.4573 3.83984 23.0404 4.93708C22.5524 6.22126 24.7497 2.64214 24.8236 2.58194C25.4963 2.03415 24.3965 4.20367 24.3961 4.29307C24.3949 4.52683 25.0994 3.23789 25.8372 2.42437C26.4976 1.69625 25.6358 4.11514 25.6938 4.0731C26.2318 3.68298 26.4007 2.76164 26.6813 2.49475C27.2425 1.96097 26.2856 3.908 26.1236 4.02751C26.0183 2.99888 26.2838 2.111 26.4458 1.87553C26.5202 1.75691 26.5786 1.64006 26.9044 1.43115" stroke="#62A565" stroke-width="1.8" stroke-linecap="round"/>
</svg>
