<svg width="41" height="42" viewBox="0 0 41 42" fill="none" xmlns="http://www.w3.org/2000/svg">
<path d="M3.78062 32.8289C3.36454 26.2484 3.63916 23.3421 4.88222 19.6368C7.12758 12.944 9.04829 12.3074 9.98241 11.3005C11.5358 9.62606 13.6169 9.11604 17.8714 8.38581C24.1439 7.30922 25.7542 8.76236 27.0773 9.38649C28.366 9.99433 29.7029 12.4947 32.4126 16.7939C33.7429 18.9045 34.2216 20.5459 34.7084 22.9717C34.7791 24.1493 34.8478 24.9898 34.9518 26.5387C34.9872 27.8129 34.9872 30.0785 34.9872 32.4128" stroke="#E0D0FF" stroke-width="7.2" stroke-linecap="round"/>
<path d="M3.78027 34.0772C4.47098 35.3213 5.44046 36.5696 6.85828 37.1271C9.67117 38.2333 11.2615 36.3698 12.4796 35.7093C13.5164 35.1471 13.9037 34.2187 14.2147 33.9056C14.8699 33.246 15.8385 35.6667 17.2636 36.6746C18.3574 37.4483 20.8939 37.1979 22.8454 36.5769C24.2619 36.1261 24.7219 34.5682 25.2753 33.6975C25.8839 32.7401 27.2143 35.1133 28.3596 35.9122C30.294 37.2615 34.009 35.8164 35.1564 35.0852C35.4093 34.924 35.6068 34.7055 35.7815 34.4621C37.9466 31.4465 36.0978 24.2367 35.9584 22.8481C35.8201 21.4709 35.2656 20.4212 34.9192 19.2416C34.4721 17.7192 33.88 16.6764 33.1519 15.5655C32.4549 14.5021 31.5915 13.5558 30.8291 12.6518C30.0667 11.7481 28.9577 11.1966 27.7448 10.3977C26.6678 9.68831 25.0798 9.52806 23.482 9.35539C22.1123 9.20736 20.844 9.52598 19.9453 10.1127C17.8662 11.4699 17.17 12.9192 15.9207 13.9282C14.4152 15.1441 12.5264 17.2881 10.7217 18.8495C8.84704 20.4712 7.52922 23.3172 6.45364 26.7832C5.96921 28.3443 5.86071 30.1826 6.13533 31.9156C6.31202 33.0307 8.76084 32.829 10.7705 32.726C12.5606 32.6342 13.3461 30.4115 14.2823 28.9177C15.977 26.2137 16.3253 23.3463 16.9203 20.9777C17.3784 19.1542 18.1311 16.8949 18.7553 14.2964C18.9984 13.284 18.9675 12.8651 18.5212 13.5797C16.9871 16.0364 15.2331 19.5682 13.5698 22.0627C12.1666 24.167 11.6901 25.6806 11.2022 26.8258C10.9117 27.5078 10.5084 28.3165 10.3004 28.6327C9.06428 30.5115 11.5361 23.3505 12.93 21.4594C13.1372 21.1784 13.4834 21.1119 13.6936 21.1785C14.9041 21.562 15.0105 25.9365 15.7376 29.8903C15.9754 31.1833 16.2587 30.9607 16.8454 29.9278C18.463 27.0797 19.6582 24.7194 20.1429 24.4729C21.02 24.0268 20.6318 27.6133 20.9407 28.665C21.081 29.1424 21.8676 26.0093 22.1859 26.7301C22.5042 27.451 22.5042 31.227 22.4699 30.9409C21.904 26.2251 22.3648 21.114 22.5375 20.5232C22.6194 20.2429 23.1263 22.4122 23.4726 24.425C23.5251 24.7298 23.9584 21.0724 24.3391 16.6296C24.3775 16.1818 24.8613 19.9032 24.9997 24.0974C25.0589 25.893 25.2088 21.5717 25.2431 15.0485C25.2532 13.1249 25.3461 14.0176 25.2098 17.4296C25.0735 20.8415 24.7303 26.7458 24.8624 28.8605C25.0248 31.4598 27.4223 24.5218 28.3918 22.8179C28.8793 21.9612 29.7816 27.8026 30.4057 31.9718C30.9165 35.3842 31.034 25.5578 31.034 24.1348C31.034 22.3699 31.8662 29.702 31.8662 29.6084C31.8662 23.6152 31.4501 20.7 31.2774 19.3113C31.2342 18.9637 31.242 18.6196 31.1391 18.5457C30.3529 17.9819 28.0007 21.2992 25.5978 23.8394C23.4307 26.1303 22.4459 28.5141 21.2247 30.7069C20.734 31.5881 20.2865 32.4087 20.0784 32.5179C19.8032 32.6624 20.0077 31.1854 19.8017 30.8952C19.4275 30.3679 18.6221 31.924 18.4141 32.2724C17.8787 33.1691 17.998 30.2659 17.6526 29.7811C17.4811 29.5403 17.17 29.4337 16.9255 29.4659C16.6811 29.4982 16.4751 29.7041 16.6093 29.7759C16.7435 29.8477 17.2241 29.779 17.5746 29.6064C17.9252 29.4337 18.1311 29.1591 18.9675 28.8761" stroke="#E0D0FF" stroke-width="7.2" stroke-linecap="round"/>
<path d="M12.5681 18.3892C12.1506 19.0745 11.8531 19.7294 11.5835 20.3431C11.3677 20.8341 11.1955 21.3134 11.0455 21.7918C10.8911 22.2841 10.8372 22.8365 10.6723 23.3149C10.5041 23.8031 10.2996 24.2699 10.1496 24.7483C10.0039 25.2128 10.0004 25.7034 9.89556 26.1818C9.78641 26.6799 9.79074 27.2855 9.64202 28.4153C9.16951 32.0047 9.70115 32.5123 9.80507 32.9907C9.99948 33.4691 10.1778 33.8275 10.3865 34.0658C10.477 34.1858 10.5361 34.3041 10.7762 34.4259" stroke="#E0D0FF" stroke-width="7.2" stroke-linecap="round"/>
<path d="M15.2998 25.5776C16.2609 26.161 17.1856 26.2513 17.9905 26.095C18.1874 26.0276 18.3993 25.9387 18.5791 25.8706C18.7589 25.8026 18.9002 25.7581 19.2598 25.4429" stroke="#0D0D0D" stroke-width="1.8" stroke-linecap="round"/>
<path d="M24.5771 25.2348C25.5383 25.8182 26.463 25.9085 27.2678 25.7522C27.4647 25.6848 27.6766 25.5959 27.8565 25.5279C28.0363 25.4598 28.1775 25.4154 28.5371 25.1001" stroke="#0D0D0D" stroke-width="1.8" stroke-linecap="round"/>
<path d="M18.9854 31.6712C19.277 31.5622 19.9361 31.2684 20.6151 31.0483C21.1961 30.86 21.8068 30.8282 24.4952 30.8271C25.2182 30.9361 25.5494 31.0472 25.8971 31.1204C26.0633 31.1573 26.2085 31.1936 26.6883 31.341" stroke="#0D0D0D" stroke-width="1.8" stroke-linecap="round"/>
<path d="M17.4491 3.50482C16.3387 3.62381 13.8881 3.91512 12.6664 4.60634C11.3508 5.35072 10.9742 7.33003 10.9486 8.4377C10.9192 9.71559 11.7545 11.3001 12.4971 11.853C13.2999 12.4506 14.8686 13.0281 17.4125 13.1273C21.6127 13.291 22.7125 11.3209 23.8828 10.531C24.6082 10.0413 25.1558 9.27778 25.5267 8.58216C26.253 7.21982 24.8764 5.13129 24.2549 4.41128C23.6471 3.70705 22.823 3.29534 21.7149 2.9182C20.5203 2.51163 19.6015 2.68596 18.1188 2.86979C16.1843 3.10965 14.8373 3.78278 14.4787 4.09236C14.12 4.40194 13.8226 4.75187 13.6565 5.17612C13.2761 6.14823 13.8807 7.57885 14.6506 8.89395C15.1484 9.74413 15.693 10.1942 16.0853 10.3412C16.2757 10.4126 16.4898 10.3224 16.6389 10.149C17.2986 9.38181 16.8592 8.09866 16.778 6.69347C16.7592 6.36859 16.7371 6.10147 16.832 5.9377C16.9268 5.77393 17.1307 5.72223 17.3125 5.78458C18.2772 6.11541 19.0555 8.1266 19.6508 9.27153C19.9957 9.93485 20.4305 6.43334 20.7318 5.2204C21.4354 5.83328 21.9009 6.37261 22.185 6.73773C22.3155 6.92486 22.4182 7.11577 22.5631 7.46688" stroke="#FF7B00" stroke-width="5" stroke-linecap="round"/>
<path d="M19.1531 2.00924C19.0981 2.05671 19.0431 2.10417 18.6534 2.42139C18.2637 2.73861 17.5408 3.32415 17.1135 3.67326C16.6861 4.02237 16.5761 4.11729 16.2008 4.38314" stroke="#0B7F28" stroke-width="0.5" stroke-linecap="round"/>
<path d="M16.0273 2.49756C16.7645 2.61319 17.7211 2.91286 18.4737 3.07738C18.7963 3.14789 19.0609 3.25036 19.3113 3.37269C19.4433 3.42452 19.5852 3.45554 20.0419 3.51031" stroke="#0B7F28" stroke-width="0.5" stroke-linecap="round"/>
<path d="M17.7188 1.56055C17.7662 1.61553 17.8137 1.67052 17.934 2.07671C18.0543 2.48289 18.246 3.2386 18.4435 4.01721" stroke="#0B7F28" stroke-width="0.5" stroke-linecap="round"/>
<path d="M18.0039 9.36084L18.4011 9.44765" stroke="#0D0D0D" stroke-width="0.3" stroke-linecap="round"/>
<path d="M11.957 7.70605L12.0464 8.05851" stroke="#0D0D0D" stroke-width="0.3" stroke-linecap="round"/>
<path d="M22.4609 5.51611L22.7266 5.82386" stroke="#0D0D0D" stroke-width="0.3" stroke-linecap="round"/>
<path d="M23.209 9.91602L23.2984 10.2685" stroke="#0D0D0D" stroke-width="0.3" stroke-linecap="round"/>
<path d="M14.7535 12.8114L15.0165 12.3696" stroke="#0D0D0D" stroke-width="0.3" stroke-linecap="round"/>
</svg>
