<svg width="41" height="48" viewBox="0 0 41 48" fill="none" xmlns="http://www.w3.org/2000/svg">
<path d="M3.8568 38.8289C3.44071 32.2484 3.71533 29.3421 4.95839 25.6368C7.20375 18.944 9.12446 18.3074 10.0586 17.3005C11.6119 15.6261 13.6931 15.116 17.9476 14.3858C24.22 13.3092 25.8304 14.7624 27.1535 15.3865C28.4421 15.9943 29.779 18.4947 32.4888 22.7939C33.8191 24.9045 34.2977 26.5459 34.7846 28.9717C34.8553 30.1493 34.9239 30.9898 35.028 32.5387C35.0633 33.8129 35.0633 36.0785 35.0633 38.4128" stroke="#E0D0FF" stroke-width="7.2" stroke-linecap="round"/>
<path d="M3.85645 40.0772C4.54716 41.3213 5.51663 42.5696 6.93446 43.1271C9.74734 44.2333 11.3377 42.3698 12.5558 41.7093C13.5926 41.1471 13.9798 40.2187 14.2909 39.9056C14.9461 39.246 15.9147 41.6667 17.3397 42.6746C18.4336 43.4483 20.9701 43.1979 22.9216 42.5769C24.3381 42.1261 24.7981 40.5682 25.3515 39.6975C25.96 38.7401 27.2905 41.1133 28.4358 41.9122C30.3701 43.2615 34.0852 41.8164 35.2325 41.0852C35.4854 40.924 35.683 40.7055 35.8577 40.4621C38.0227 37.4465 36.1739 30.2367 36.0345 28.8481C35.8963 27.4709 35.3418 26.4212 34.9954 25.2416C34.5483 23.7192 33.9562 22.6764 33.228 21.5655C32.5311 20.5021 31.6677 19.5558 30.9052 18.6518C30.1429 17.7481 29.0339 17.1966 27.821 16.3977C26.744 15.6883 25.156 15.5281 23.5582 15.3554C22.1884 15.2074 20.9202 15.526 20.0214 16.1127C17.9423 17.4699 17.2461 18.9192 15.9968 19.9282C14.4914 21.1441 12.6026 23.2881 10.7978 24.8495C8.92321 26.4712 7.6054 29.3172 6.52981 32.7832C6.04538 34.3443 5.93688 36.1826 6.2115 37.9156C6.38819 39.0307 8.83701 38.829 10.8467 38.726C12.6368 38.6342 13.4223 36.4115 14.3585 34.9177C16.0532 32.2137 16.4015 29.3463 16.9965 26.9777C17.4546 25.1542 18.2073 22.8949 18.8314 20.2964C19.0746 19.284 19.0436 18.8651 18.5974 19.5797C17.0633 22.0364 15.3092 25.5682 13.6459 28.0627C12.2428 30.167 11.7663 31.6806 11.2784 32.8258C10.9879 33.5078 10.5846 34.3165 10.3765 34.6327C9.14045 36.5115 11.6123 29.3505 13.0062 27.4594C13.2133 27.1784 13.5596 27.1119 13.7697 27.1785C14.9803 27.562 15.0866 31.9365 15.8138 35.8903C16.0515 37.1833 16.3349 36.9607 16.9216 35.9278C18.5392 33.0797 19.7343 30.7194 20.2191 30.4729C21.0961 30.0268 20.708 33.6133 21.0169 34.665C21.1572 35.1424 21.9438 32.0093 22.2621 32.7301C22.5804 33.451 22.5804 37.227 22.546 36.9409C21.9801 32.2251 22.441 27.114 22.6137 26.5232C22.6956 26.2429 23.2024 28.4122 23.5488 30.425C23.6013 30.7298 24.0346 27.0724 24.4153 22.6296C24.4537 22.1818 24.9375 25.9032 25.0759 30.0974C25.1351 31.893 25.2849 27.5717 25.3193 21.0485C25.3294 19.1249 25.4222 20.0176 25.286 23.4296C25.1497 26.8415 24.8064 32.7458 24.9385 34.8605C25.1009 37.4598 27.4985 30.5218 28.468 28.8179C28.9554 27.9612 29.8577 33.8026 30.4819 37.9718C30.9927 41.3842 31.1102 31.5578 31.1102 30.1348C31.1102 28.3699 31.9423 35.702 31.9423 35.6084C31.9423 29.6152 31.5262 26.7 31.3536 25.3113C31.3104 24.9637 31.3182 24.6196 31.2152 24.5457C30.429 23.9819 28.0769 27.2992 25.674 29.8394C23.5069 32.1303 22.5221 34.5141 21.3009 36.7069C20.8101 37.5881 20.3626 38.4087 20.1546 38.5179C19.8794 38.6624 20.0839 37.1854 19.8779 36.8952C19.5037 36.3679 18.6983 37.924 18.4902 38.2724C17.9549 39.1691 18.0741 36.2659 17.7288 35.7811C17.5572 35.5403 17.2461 35.4337 17.0017 35.4659C16.7572 35.4982 16.5513 35.7041 16.6855 35.7759C16.8196 35.8477 17.3002 35.779 17.6508 35.6064C18.0013 35.4337 18.2073 35.1591 19.0436 34.8761" stroke="#E0D0FF" stroke-width="7.2" stroke-linecap="round"/>
<path d="M12.6442 24.3892C12.2267 25.0745 11.9293 25.7294 11.6596 26.3431C11.4439 26.8341 11.2717 27.3134 11.1216 27.7918C10.9672 28.2841 10.9133 28.8365 10.7485 29.3149C10.5803 29.8031 10.3758 30.2699 10.2257 30.7483C10.08 31.2128 10.0766 31.7034 9.97173 32.1818C9.86259 32.6799 9.86691 33.2855 9.71819 34.4153C9.24568 38.0047 9.77732 38.5123 9.88124 38.9907C10.0757 39.4691 10.2539 39.8275 10.4627 40.0658C10.5532 40.1858 10.6123 40.3041 10.8524 40.4259" stroke="#E0D0FF" stroke-width="7.2" stroke-linecap="round"/>
<path d="M15.376 31.5776C16.3371 32.161 17.2618 32.2513 18.0666 32.095C18.2636 32.0276 18.4755 31.9387 18.6553 31.8706C18.8351 31.8026 18.9764 31.7581 19.336 31.4429" stroke="#0D0D0D" stroke-width="1.8" stroke-linecap="round"/>
<path d="M24.6533 31.2348C25.6144 31.8182 26.5391 31.9085 27.344 31.7522C27.5409 31.6848 27.7528 31.5959 27.9326 31.5279C28.1124 31.4598 28.2537 31.4154 28.6133 31.1001" stroke="#0D0D0D" stroke-width="1.8" stroke-linecap="round"/>
<path d="M19.0615 37.6712C19.3531 37.5622 20.0123 37.2684 20.6913 37.0483C21.2723 36.86 21.883 36.8282 24.5713 36.8271C25.2943 36.9361 25.6256 37.0472 25.9733 37.1204C26.1394 37.1573 26.2847 37.1936 26.7645 37.341" stroke="#0D0D0D" stroke-width="1.8" stroke-linecap="round"/>
<path d="M19.3767 9.29386C18.4054 9.23252 17.4677 9.28697 15.4483 9.8988C13.8528 10.3822 11.1529 11.3875 9.65295 11.9415C7.4731 12.7466 6.71911 13.2357 5.77139 13.7916C4.62442 14.4644 4.27879 15.0926 3.73558 15.9628C3.63309 16.127 3.80951 16.2298 4.00548 16.2559C4.90142 16.3751 5.788 16.3255 6.64981 16.2214C7.40887 16.1296 9.18805 15.3812 10.5197 14.7724C11.6286 14.2654 12.1863 13.973 12.781 13.7535C13.502 13.4874 14.053 13.0963 14.7708 12.7249C15.5586 12.3172 16.4209 11.7891 17.1059 11.3732C17.6829 11.023 18.1436 10.6853 18.5916 10.3035C18.715 10.2149 18.8512 10.1376 19.0092 9.96697C19.1673 9.79629 19.3429 9.53455 19.3477 9.14658" stroke="#FFA24F" stroke-width="4.5" stroke-linecap="round"/>
<path d="M22.1164 13.9193C21.9491 14.2314 20.7175 16.1939 19.4587 17.5636C18.6004 18.4976 16.5328 19.3241 15.4877 19.7993C14.7309 20.1435 14.2098 20.37 12.9497 20.821C12.023 21.1527 11.3413 21.3413 10.7127 21.5169C9.74923 21.7862 8.78929 21.8448 8.0818 21.8819C7.41334 21.8608 6.78775 21.7797 6.18821 21.6559C6.04054 21.6207 5.88518 21.6008 5.7251 21.5803" stroke="#FFA24F" stroke-width="4.5" stroke-linecap="round"/>
<path d="M3.15046 18.4112C3.40391 18.4125 4.12838 18.2188 6.12272 17.8138C7.14727 17.6058 7.99765 17.2801 8.71063 17.1387C9.4508 16.9919 10.198 16.6683 10.857 16.4491C11.5362 16.2233 12.4464 15.92 13.1555 15.691C13.7644 15.4944 14.3831 15.259 15.2369 15.0012C16.1184 14.735 16.809 14.2464 17.5462 13.9736C18.765 13.5227 19.2179 13.0076 19.7789 12.6804C20.3812 12.329 20.9384 12.0327 21.6656 11.5825C22.2963 11.2799 22.6597 11.0546 22.9342 10.9628C23.0629 10.8996 23.1701 10.8028 23.2805 10.703" stroke="#EC0808" stroke-width="6.3" stroke-linecap="round"/>
<path d="M25.7746 10.3727C25.0298 9.87278 23.6047 9.06014 23.3568 9.19564C22.8313 9.48292 22.5203 9.80867 22.221 10.1647C21.9766 10.4555 21.8473 10.7389 21.8321 11.0299C21.7759 12.1101 22.2035 12.5517 22.1915 12.9673C22.1863 13.1484 22.0571 13.2774 21.9179 13.3772C21.5681 13.6278 20.8878 13.581 20.3179 13.5629C19.3196 13.5311 18.8074 13.0346 17.8542 12.8163C16.9058 12.599 16.3659 13.208 15.6687 13.7932C14.796 14.5256 14.9956 15.1001 14.7945 15.6531C14.5318 16.3751 13.8548 16.804 13.4143 16.9559C12.8274 17.1582 12.0868 16.9505 11.2716 16.5981C10.5468 16.2847 9.98686 15.8563 9.59996 15.7659C8.99989 15.6257 7.80379 16.081 7.06487 16.4366C6.44509 16.7349 6.27718 18.5178 6.22348 19.4194C6.19668 19.8694 5.7558 20.0642 5.57198 20.1221C5.15944 20.1246 4.70257 19.9392 4.08868 19.5635C3.61813 19.26 2.82469 18.7274 1.94066 18.0614" stroke="#FF0004" stroke-width="0.54" stroke-linecap="round"/>
<path d="M24.5911 8.77912C24.6394 9.39133 24.5715 9.92554 24.272 10.5351C24.0383 11.0108 23.7363 11.2802 23.5223 11.3658C22.6904 11.6984 21.7511 11.4256 21.3608 11.3932C20.7652 11.3438 19.9131 11.3515 19.3666 11.4951C18.855 11.6295 18.2963 12.1322 17.9013 12.7018C17.6732 13.0306 17.6604 13.545 17.564 14.1233C17.5036 14.4854 17.0618 15.1253 16.6013 15.5602C16.2333 15.9078 15.8087 15.8405 15.3677 15.9194C14.9644 15.9916 14.2505 15.6419 13.6627 15.466C13.0497 15.2826 12.6653 15.1111 12.0642 14.9979C11.4152 14.8757 10.6833 15.1089 9.95694 15.4468C9.27782 15.7627 8.97961 16.4866 8.08805 17.7602C7.70313 18.3101 7.13358 18.4445 6.72007 18.5193C6.27752 18.5994 5.82827 18.5144 5.20708 18.412C4.5962 18.2207 4.03943 18.0402 3.51806 17.9326C3.40269 17.9042 3.32548 17.8763 3.02841 17.847" stroke="#FFF200" stroke-width="0.54" stroke-linecap="round"/>
<path d="M6.44146 12.3598C6.2945 12.523 6.14753 12.6862 6.01565 12.8261C5.88376 12.9661 5.77142 13.0777 5.65566 13.1927" stroke="#ED7003" stroke-width="0.54" stroke-linecap="round"/>
<path d="M9.0791 11.9766L8.60698 12.6799" stroke="#ED7003" stroke-width="0.54" stroke-linecap="round"/>
<path d="M11.5869 11.2798L11.3246 11.6705" stroke="#ED7003" stroke-width="0.54" stroke-linecap="round"/>
<path d="M14.6201 9.80127L13.9382 10.8173" stroke="#ED7003" stroke-width="0.54" stroke-linecap="round"/>
<path d="M17.5449 9.49707L17.2826 9.88783" stroke="#ED7003" stroke-width="0.54" stroke-linecap="round"/>
<path d="M7.30469 22.1182L6.99519 22.5793" stroke="#ED7003" stroke-width="0.54" stroke-linecap="round"/>
<path d="M11.2197 21.2676L10.7864 21.9131" stroke="#ED7003" stroke-width="0.54" stroke-linecap="round"/>
<path d="M14.1484 20.6919L13.7151 21.3374" stroke="#ED7003" stroke-width="0.54" stroke-linecap="round"/>
<path d="M17.0791 19.3145L16.7999 19.9297" stroke="#ED7003" stroke-width="0.54" stroke-linecap="round"/>
</svg>
