<svg width="41" height="47" viewBox="0 0 41 47" fill="none" xmlns="http://www.w3.org/2000/svg">
<path d="M3.78062 37.8728C3.36454 31.2924 3.63916 28.386 4.88222 24.6808C7.12758 17.9879 9.04829 17.3514 9.98241 16.3444C11.5358 14.67 13.6169 14.16 17.8714 13.4298C24.1439 12.3532 25.7542 13.8063 27.0773 14.4304C28.366 15.0383 29.7029 17.5386 32.4126 21.8378C33.7429 23.9484 34.2216 25.5899 34.7084 28.0157C34.7791 29.1932 34.8478 30.0337 34.9518 31.5826C34.9872 32.8569 34.9872 35.1225 34.9872 37.4567" stroke="#E0D0FF" stroke-width="7.2" stroke-linecap="round"/>
<path d="M3.78027 39.1211C4.47098 40.3653 5.44046 41.6135 6.85828 42.1711C9.67117 43.2772 11.2615 41.4138 12.4796 40.7533C13.5164 40.191 13.9037 39.2626 14.2147 38.9495C14.8699 38.2899 15.8385 40.7106 17.2636 41.7186C18.3574 42.4923 20.8939 42.2418 22.8454 41.6208C24.2619 41.17 24.7219 39.6121 25.2753 38.7415C25.8839 37.7841 27.2143 40.1572 28.3596 40.9561C30.294 42.3054 34.009 40.8604 35.1564 40.1291C35.4093 39.9679 35.6068 39.7494 35.7815 39.506C37.9466 36.4905 36.0978 29.2807 35.9584 27.892C35.8201 26.5149 35.2656 25.4652 34.9192 24.2856C34.4721 22.7631 33.88 21.7204 33.1519 20.6094C32.4549 19.546 31.5915 18.5997 30.8291 17.6958C30.0667 16.792 28.9577 16.2405 27.7448 15.4416C26.6678 14.7323 25.0798 14.572 23.482 14.3993C22.1123 14.2513 20.844 14.5699 19.9453 15.1566C17.8662 16.5138 17.17 17.9631 15.9207 18.9721C14.4152 20.188 12.5264 22.332 10.7217 23.8934C8.84704 25.5152 7.52922 28.3611 6.45364 31.8271C5.96921 33.3882 5.86071 35.2266 6.13533 36.9596C6.31202 38.0746 8.76084 37.8729 10.7705 37.7699C12.5606 37.6782 13.3461 35.4554 14.2823 33.9617C15.977 31.2576 16.3253 28.3903 16.9203 26.0217C17.3784 24.1981 18.1311 21.9388 18.7553 19.3404C18.9984 18.3279 18.9675 17.909 18.5212 18.6237C16.9871 21.0803 15.2331 24.6122 13.5698 27.1066C12.1666 29.2109 11.6901 30.7245 11.2022 31.8698C10.9117 32.5517 10.5084 33.3604 10.3004 33.6766C9.06428 35.5554 11.5361 28.3944 12.93 26.5033C13.1372 26.2223 13.4834 26.1559 13.6936 26.2225C14.9041 26.606 15.0105 30.9804 15.7376 34.9343C15.9754 36.2273 16.2587 36.0047 16.8454 34.9717C18.463 32.1236 19.6582 29.7634 20.1429 29.5168C21.02 29.0708 20.6318 32.6572 20.9407 33.7089C21.081 34.1863 21.8676 31.0532 22.1859 31.7741C22.5042 32.495 22.5042 36.271 22.4699 35.9849C21.904 31.269 22.3648 26.158 22.5375 25.5671C22.6194 25.2869 23.1263 27.4561 23.4726 29.469C23.5251 29.7737 23.9584 26.1163 24.3391 21.6736C24.3775 21.2257 24.8613 24.9472 24.9997 29.1413C25.0589 30.9369 25.2088 26.6156 25.2431 20.0924C25.2532 18.1688 25.3461 19.0616 25.2098 22.4735C25.0735 25.8854 24.7303 31.7897 24.8624 33.9045C25.0248 36.5038 27.4223 29.5657 28.3918 27.8618C28.8793 27.0052 29.7816 32.8466 30.4057 37.0158C30.9165 40.4282 31.034 30.6018 31.034 29.1788C31.034 27.4139 31.8662 34.746 31.8662 34.6524C31.8662 28.6591 31.4501 25.744 31.2774 24.3553C31.2342 24.0077 31.242 23.6635 31.1391 23.5897C30.3529 23.0258 28.0007 26.3431 25.5978 28.8833C23.4307 31.1742 22.4459 33.5581 21.2247 35.7509C20.734 36.6321 20.2865 37.4526 20.0784 37.5619C19.8032 37.7064 20.0077 36.2293 19.8017 35.9391C19.4275 35.4119 18.6221 36.9679 18.4141 37.3164C17.8787 38.2131 17.998 35.3098 17.6526 34.8251C17.4811 34.5842 17.17 34.4776 16.9255 34.5099C16.6811 34.5421 16.4751 34.7481 16.6093 34.8198C16.7435 34.8916 17.2241 34.823 17.5746 34.6503C17.9252 34.4776 18.1311 34.203 18.9675 33.9201" stroke="#E0D0FF" stroke-width="7.2" stroke-linecap="round"/>
<path d="M12.5681 23.4331C12.1506 24.1185 11.8531 24.7734 11.5835 25.3871C11.3677 25.8781 11.1955 26.3574 11.0455 26.8358C10.8911 27.328 10.8372 27.8804 10.6723 28.3588C10.5041 28.8471 10.2996 29.3139 10.1496 29.7923C10.0039 30.2568 10.0004 30.7473 9.89556 31.2257C9.78641 31.7239 9.79074 32.3295 9.64202 33.4592C9.16951 37.0486 9.70115 37.5562 9.80507 38.0346C9.99948 38.5131 10.1778 38.8714 10.3865 39.1097C10.477 39.2298 10.5361 39.348 10.7762 39.4699" stroke="#E0D0FF" stroke-width="7.2" stroke-linecap="round"/>
<path d="M15.2998 30.6216C16.2609 31.205 17.1856 31.2952 17.9905 31.1389C18.1874 31.0716 18.3993 30.9826 18.5791 30.9146C18.7589 30.8466 18.9002 30.8021 19.2598 30.4868" stroke="#0D0D0D" stroke-width="1.8" stroke-linecap="round"/>
<path d="M24.5771 30.2788C25.5383 30.8622 26.463 30.9525 27.2678 30.7962C27.4647 30.7288 27.6766 30.6399 27.8565 30.5718C28.0363 30.5038 28.1775 30.4593 28.5371 30.144" stroke="#0D0D0D" stroke-width="1.8" stroke-linecap="round"/>
<path d="M18.9854 36.7151C19.277 36.6062 19.9361 36.3124 20.6151 36.0923C21.1961 35.9039 21.8068 35.8722 24.4952 35.8711C25.2182 35.98 25.5494 36.0912 25.8971 36.1644C26.0633 36.2012 26.2085 36.2375 26.6883 36.385" stroke="#0D0D0D" stroke-width="1.8" stroke-linecap="round"/>
<path d="M8.81579 11.4591C8.52663 9.99954 8.32302 7.85221 8.45042 7.26215C8.58799 6.62499 8.76953 6.17013 8.97716 5.67661C9.27539 4.96774 9.69841 4.52681 10.2463 3.91806C10.6942 3.42041 11.4755 3.0795 11.9682 2.80846C12.5894 2.46672 14.7134 2.10891 16.4079 2.28743C17.2159 2.37257 17.9203 2.75911 18.4166 3.07202C18.8489 3.34453 19.1642 3.85028 19.3366 4.30389C19.496 4.72314 19.7739 5.14062 19.9883 5.70622C20.1737 6.19537 20.4244 7.633 20.3464 8.74084C20.308 9.28617 19.8396 9.63534 19.3808 9.94045C19.085 10.1371 18.7609 10.2417 17.5112 10.5007C16.3906 10.7329 14.25 10.9963 13.0706 11.1395C11.7347 11.3017 11.4568 11.2124 11.2367 11.1518C10.9773 11.0805 10.8183 10.8281 10.6941 10.6084C10.3053 9.92015 10.7013 8.38783 11.057 7.70815C11.3124 7.22009 11.6802 6.70554 12.0604 6.39783C12.4314 6.09746 13.4646 5.70696 15.0021 5.41813C15.5893 5.30781 16.0723 5.38318 16.8841 5.59673C17.1978 5.67925 17.3908 5.88193 17.5538 6.09611C17.7342 6.33303 17.7739 6.88379 17.8192 7.47288C17.8368 7.70168 17.7468 7.79042 17.6156 7.88914C17.3079 8.12059 16.9904 8.24477 16.7393 8.33368C16.3918 8.45677 14.7864 8.6679 12.5868 8.93107C11.7792 9.0277 11.5949 9.02074 11.4525 8.96212C11.3102 8.9035 11.2147 8.7861 11.1581 8.67424C11.1015 8.56238 11.0867 8.4596 11.1103 8.34974C11.2601 7.65091 12.261 6.88751 12.7649 6.50878C13.3688 6.05481 14.28 5.0876 15.0609 4.61621C15.7135 4.2223 16.161 4.15302 16.5748 4.07966C17.0537 3.99476 17.6143 4.31293 18.1409 4.56826C19.1425 5.05389 19.5334 5.67899 19.7882 6.06674C20.0278 6.43146 20.1795 6.85762 20.3179 7.26209C20.6166 8.13505 20.7136 9.45733 20.6452 9.5343C20.3059 9.91607 20.7451 8.58184 20.8287 8.14549C20.9139 7.70018 20.9745 7.22497 20.9726 6.5641C20.9682 5.09268 20.4586 4.72915 20.2428 4.33581C19.9977 3.88919 19.4761 3.59885 19.021 3.38491C18.5663 3.17115 18.1221 3.02415 17.6876 2.95347C17.2603 2.88395 16.7581 2.92767 16.3502 3.13051C16.1666 3.22178 16.2655 3.57537 16.3195 3.76867C16.4652 4.29014 17.1833 4.45433 17.7314 4.57503C18.5279 4.7504 19.0795 5.10847 19.6179 5.53453C20.116 5.92864 20.2979 6.5752 20.6489 7.17401C20.9037 7.60849 20.9677 8.09532 21.1049 8.49996C21.4657 9.56412 21.4758 11.2558 21.2761 11.3373C20.6188 11.6057 19.5569 11.7166 19.0043 11.8362C18.837 11.8724 18.6353 11.9285 17.3494 12.1268C16.0636 12.325 13.6998 12.6646 12.4251 12.8084C10.823 12.9892 10.3838 12.7707 9.88831 12.6436C9.77425 12.5937 9.6861 12.5277 9.57645 12.5029C9.46681 12.4781 9.33834 12.4966 9.20598 12.5156" stroke="#8B4A2A" stroke-width="4.48" stroke-linecap="round"/>
<path d="M14.2606 4.00158C13.6297 4.01276 12.7836 4.39655 12.2704 4.78974C11.6637 5.2545 11.2342 5.41541 10.9219 5.83019C10.8222 5.96264 10.9245 6.22437 11.0205 6.34527C11.3721 6.78777 13.4819 6.25904 14.6259 6.0025C15.0676 5.90346 15.243 5.31944 15.4787 4.92718C15.6989 4.56076 15.5587 4.18698 15.4831 4.0258C15.2124 3.44876 13.9253 4.23412 13.5412 4.51458C13.3545 4.68643 13.1684 4.8729 12.9817 5.04514C12.8868 5.12553 12.7914 5.19169 12.6931 5.25984" stroke="#A99124" stroke-width="4.48" stroke-linecap="round"/>
<path d="M7.63739 14.96C7.58577 14.9674 7.45593 14.986 7.30876 15.073C7.23604 15.116 7.28339 15.2743 7.34827 15.3592C7.61041 15.7021 8.22748 15.5665 9.59551 15.384C10.7327 15.2322 12.1751 14.894 13.7049 14.6339C14.8247 14.4435 16.1151 14.1683 17.061 13.9921C17.3087 13.9459 17.5368 13.8842 18.558 13.7239C19.5792 13.5636 21.386 13.304 22.3666 13.15C23.4467 12.9553 23.6525 12.8986 23.8587 12.8558C23.9616 12.8278 24.0612 12.7872 24.2307 12.6558" stroke="#4B3429" stroke-width="1.792" stroke-linecap="round"/>
<path d="M6.87836 12.426C7.08724 12.4199 7.51147 12.4362 7.90877 12.4468C8.25842 12.4561 8.67154 12.4338 9.07292 12.3764C9.5582 12.3071 9.73832 12.1458 10.0789 12.0316C10.156 12.0057 10.2696 11.9872 10.3745 11.9792C10.8693 11.9416 11.0925 12.0182 11.412 12.0352C11.5645 12.0434 11.7557 12.0391 11.964 12.0237C12.1606 12.0091 12.426 11.9335 12.8073 11.8328C13.2432 11.7175 13.6173 11.5981 14.0173 11.5307C14.5326 11.4438 14.7464 11.5561 15.0149 11.5852C15.1486 11.5997 15.4344 11.5686 15.6677 11.5424C16.0802 11.496 16.3508 11.3407 17.0185 11.1266C17.2839 11.0415 17.5679 10.9916 17.8264 10.9593C18.3353 10.8956 18.6172 10.9516 19.0135 10.9552C19.1992 10.9569 19.4335 10.9361 19.6408 10.9136C20.0942 10.8645 20.3242 10.7119 20.6263 10.608C20.793 10.5507 20.9533 10.4957 21.1966 10.451C21.7899 10.3421 22.2041 10.3977 22.6497 10.3701C22.7467 10.3641 22.8557 10.3383 22.9451 10.3134C23.3096 10.1863 23.6366 10.0716 23.7859 10.0116C23.8611 9.98142 23.9352 9.95165 24.1626 9.87029" stroke="#FCFCFC" stroke-width="4.48" stroke-linecap="round"/>
<path d="M11.3542 4.73744L11.0725 5.71626" stroke="#A66B38" stroke-width="0.224" stroke-linecap="round"/>
<path d="M13.2462 4.84105C13.2506 4.97976 13.2551 5.11847 13.2628 5.22785C13.2705 5.33723 13.2814 5.41307 13.2927 5.49122" stroke="#A66B38" stroke-width="0.224" stroke-linecap="round"/>
<path d="M15.8203 4.14258C15.8225 4.15775 15.8247 4.17292 15.9104 4.2847C15.9961 4.39648 16.1654 4.60441 16.3463 4.86461" stroke="#A66B38" stroke-width="0.224" stroke-linecap="round"/>
<path d="M15.46 5.88353L15.4933 6.44177" stroke="#A66B38" stroke-width="0.224" stroke-linecap="round"/>
<path d="M12.0654 7.07471L12.663 6.98885" stroke="#A66B38" stroke-width="0.224" stroke-linecap="round"/>
<path d="M11.9718 4.1324C12.1992 3.99134 12.4267 3.85028 12.5731 3.76567C12.7196 3.68106 12.7781 3.65717 12.8461 3.63942C12.9142 3.62166 12.99 3.61077 13.0682 3.59954" stroke="#A66B38" stroke-width="0.224" stroke-linecap="round"/>
<path d="M14.6251 4.64281C14.6339 4.81186 14.6427 4.9809 14.6527 5.10591C14.6626 5.23092 14.6735 5.30677 14.6848 5.38492" stroke="#A66B38" stroke-width="0.224" stroke-linecap="round"/>
<path d="M10.336 6.79701C10.4806 6.74869 10.6252 6.70037 10.7575 6.64651C10.8898 6.59265 11.0054 6.53472 11.0978 6.49328C11.1901 6.45184 11.2556 6.42865 11.3173 6.36386" stroke="#A66B38" stroke-width="0.224" stroke-linecap="round"/>
<path d="M14.4434 6.62438C14.3992 6.79602 14.3549 6.96766 14.3226 7.08501C14.2902 7.20236 14.2709 7.26022 14.2582 7.31799C14.2454 7.37575 14.2396 7.43167 14.2337 7.48929" stroke="#A66B38" stroke-width="0.224" stroke-linecap="round"/>
</svg>
