<svg width="42" height="45" viewBox="0 0 42 45" fill="none" xmlns="http://www.w3.org/2000/svg">
<path d="M4.68101 35.8289C4.26493 29.2484 4.53955 26.3421 5.78261 22.6368C8.02797 15.944 9.94868 15.3074 10.8828 14.3005C12.4362 12.6261 14.5173 12.116 18.7718 11.3858C25.0443 10.3092 26.6546 11.7624 27.9777 12.3865C29.2664 12.9943 30.6032 15.4947 33.313 19.7939C34.6433 21.9045 35.122 23.5459 35.6088 25.9717C35.6795 27.1493 35.7482 27.9898 35.8522 29.5387C35.8875 30.8129 35.8875 33.0785 35.8875 35.4128" stroke="#E0D0FF" stroke-width="7.2" stroke-linecap="round"/>
<path d="M4.68066 37.0772C5.37137 38.3213 6.34085 39.5696 7.75867 40.1271C10.5716 41.2333 12.1619 39.3698 13.38 38.7093C14.4168 38.1471 14.8041 37.2187 15.1151 36.9056C15.7703 36.246 16.7389 38.6667 18.164 39.6746C19.2578 40.4483 21.7943 40.1979 23.7458 39.5769C25.1623 39.1261 25.6223 37.5682 26.1757 36.6975C26.7843 35.7401 28.1147 38.1133 29.26 38.9122C31.1944 40.2615 34.9094 38.8164 36.0568 38.0852C36.3096 37.924 36.5072 37.7055 36.6819 37.4621C38.8469 34.4465 36.9982 27.2367 36.8588 25.8481C36.7205 24.4709 36.166 23.4212 35.8196 22.2416C35.3725 20.7192 34.7804 19.6764 34.0523 18.5655C33.3553 17.5021 32.4919 16.5558 31.7295 15.6518C30.9671 14.7481 29.8581 14.1966 28.6452 13.3977C27.5682 12.6883 25.9802 12.5281 24.3824 12.3554C23.0127 12.2074 21.7444 12.526 20.8457 13.1127C18.7666 14.4699 18.0704 15.9192 16.8211 16.9282C15.3156 18.1441 13.4268 20.2881 11.622 21.8495C9.74743 23.4712 8.42962 26.3172 7.35403 29.7832C6.8696 31.3443 6.7611 33.1826 7.03572 34.9156C7.21241 36.0307 9.66123 35.829 11.6709 35.726C13.461 35.6342 14.2465 33.4115 15.1827 31.9177C16.8774 29.2137 17.2257 26.3463 17.8207 23.9777C18.2788 22.1542 19.0315 19.8949 19.6556 17.2964C19.8988 16.284 19.8679 15.8651 19.4216 16.5797C17.8875 19.0364 16.1335 22.5682 14.4702 25.0627C13.067 27.167 12.5905 28.6806 12.1026 29.8258C11.8121 30.5078 11.4088 31.3165 11.2007 31.6327C9.96467 33.5115 12.4365 26.3505 13.8304 24.4594C14.0376 24.1784 14.3838 24.1119 14.5939 24.1785C15.8045 24.562 15.9109 28.9365 16.638 32.8903C16.8758 34.1833 17.1591 33.9607 17.7458 32.9278C19.3634 30.0797 20.5586 27.7194 21.0433 27.4729C21.9204 27.0268 21.5322 30.6133 21.8411 31.665C21.9814 32.1424 22.768 29.0093 23.0863 29.7301C23.4046 30.451 23.4046 34.227 23.3703 33.9409C22.8044 29.2251 23.2652 24.114 23.4379 23.5232C23.5198 23.2429 24.0266 25.4122 24.373 27.425C24.4255 27.7298 24.8588 24.0724 25.2395 19.6296C25.2779 19.1818 25.7617 22.9032 25.9001 27.0974C25.9593 28.893 26.1092 24.5717 26.1435 18.0485C26.1536 16.1249 26.2465 17.0176 26.1102 20.4296C25.9739 23.8415 25.6307 29.7458 25.7628 31.8605C25.9251 34.4598 28.3227 27.5218 29.2922 25.8179C29.7797 24.9612 30.682 30.8026 31.3061 34.9718C31.8169 38.3842 31.9344 28.5578 31.9344 27.1348C31.9344 25.3699 32.7665 32.702 32.7665 32.6084C32.7665 26.6152 32.3505 23.7 32.1778 22.3113C32.1346 21.9637 32.1424 21.6196 32.0394 21.5457C31.2532 20.9819 28.9011 24.2992 26.4982 26.8394C24.3311 29.1303 23.3463 31.5141 22.1251 33.7069C21.6344 34.5881 21.1868 35.4087 20.9788 35.5179C20.7036 35.6624 20.9081 34.1854 20.7021 33.8952C20.3279 33.3679 19.5225 34.924 19.3145 35.2724C18.7791 36.1691 18.8984 33.2659 18.553 32.7811C18.3814 32.5403 18.0704 32.4337 17.8259 32.4659C17.5815 32.4982 17.3755 32.7041 17.5097 32.7759C17.6439 32.8477 18.1244 32.779 18.475 32.6064C18.8256 32.4337 19.0315 32.1591 19.8679 31.8761" stroke="#E0D0FF" stroke-width="7.2" stroke-linecap="round"/>
<path d="M13.4684 21.3892C13.051 22.0745 12.7535 22.7294 12.4838 23.3431C12.2681 23.8341 12.0959 24.3134 11.9459 24.7918C11.7914 25.2841 11.7375 25.8365 11.5727 26.3149C11.4045 26.8031 11.2 27.2699 11.0499 27.7483C10.9042 28.2128 10.9008 28.7034 10.7959 29.1818C10.6868 29.6799 10.6911 30.2855 10.5424 31.4153C10.0699 35.0047 10.6015 35.5123 10.7055 35.9907C10.8999 36.4691 11.0782 36.8275 11.2869 37.0658C11.3774 37.1858 11.4365 37.3041 11.6766 37.4259" stroke="#E0D0FF" stroke-width="7.2" stroke-linecap="round"/>
<path d="M16.2002 28.5776C17.1613 29.161 18.086 29.2513 18.8909 29.095C19.0878 29.0276 19.2997 28.9387 19.4795 28.8706C19.6593 28.8026 19.8006 28.7581 20.1602 28.4429" stroke="#0D0D0D" stroke-width="1.8" stroke-linecap="round"/>
<path d="M25.4775 28.2348C26.4386 28.8182 27.3634 28.9085 28.1682 28.7522C28.3651 28.6848 28.577 28.5959 28.7568 28.5279C28.9366 28.4598 29.0779 28.4154 29.4375 28.1001" stroke="#0D0D0D" stroke-width="1.8" stroke-linecap="round"/>
<path d="M19.8857 34.6712C20.1774 34.5622 20.8365 34.2684 21.5155 34.0483C22.0965 33.86 22.7072 33.8282 25.3956 33.8271C26.1185 33.9361 26.4498 34.0472 26.7975 34.1204C26.9637 34.1573 27.1089 34.1936 27.5887 34.341" stroke="#0D0D0D" stroke-width="1.8" stroke-linecap="round"/>
<path d="M7.45312 10.2238C7.45312 9.67691 8.12459 6.97833 8.97665 4.40183C9.10348 4.0183 9.31493 3.95164 9.48533 3.97135C10.3487 4.07122 10.8842 5.21827 11.8158 6.34056C12.5274 7.19798 13.1301 8.01605 14.061 8.61121C14.9853 9.20218 16.2242 8.61376 16.9643 8.46561C20.008 7.85635 24.4077 8.31617 24.704 8.21126C25.4413 7.95018 26.0558 6.12374 26.7813 5.03324C26.9887 4.72153 27.2906 4.46033 27.5653 4.185C27.695 4.05507 27.882 4.03558 28.0524 4.05593C28.9283 4.16051 29.9142 5.59725 30.723 6.49063C31.0613 6.78757 31.3601 7.08515 31.6138 7.40245C31.7416 7.55188 31.8676 7.67778 31.9973 7.93466" stroke="#CEB6A1" stroke-width="4" stroke-linecap="round"/>
<path d="M7.57976 11.7496C6.39452 12.0879 5.38223 12.7619 4.65672 13.5484C4.05119 14.2049 4.06219 15.0942 4.03993 15.8585C4.00956 16.9016 4.77944 17.7241 5.43628 18.4445C6.19314 19.2747 8.24614 19.6317 9.46253 19.8034C10.1211 19.8963 12.5611 20.0157 15.8446 19.9948C17.4088 19.9848 18.0053 19.8886 19.1632 19.8256C21.6257 19.6918 23.3897 19.4651 23.77 19.4015C25.405 19.1281 28.4664 18.7033 30.2106 18.3428C31.7943 18.0154 32.8411 17.2205 33.6678 16.6482C34.7046 15.9304 35.0463 15.0586 35.3871 14.2962C35.7353 13.5173 35.5575 12.3498 35.115 11.3503C34.6724 10.8645 34.2871 10.4791 33.9914 10.2464C33.8216 10.1396 33.6118 10.0557 33.0141 9.71484" stroke="#CEB6A1" stroke-width="4" stroke-linecap="round"/>
<path d="M24.8594 6.83848C25.0521 6.3547 25.5719 5.51077 25.9126 4.99098C26.244 4.48541 26.6095 4.01759 26.9186 3.54695C27.2731 3.00709 27.7776 2.39591 28.1675 2.06934C28.6438 1.67031 29.1735 3.10454 29.5141 3.54354C29.8662 3.99715 30.1138 4.56463 30.4875 5.01969C30.9435 5.57484 31.1845 6.31674 31.4775 6.83653C31.8016 7.48481 32.1267 8.13504 32.2401 8.39396C32.2893 8.5244 32.3214 8.65288 32.5492 9.07728" stroke="#CEB6A1" stroke-width="4" stroke-linecap="round"/>
<path d="M32.7439 8.88281C33.6482 8.88281 34.8815 9.07555 35.4835 9.43327C35.7606 9.5979 36.0525 9.66055 36.2467 9.87081C36.6718 10.3311 36.766 10.9892 36.913 11.6536C37.1907 12.9091 36.5732 13.5843 36.2817 14.0564C36.0038 14.5065 35.8607 15.0132 35.5517 15.5647C35.2759 16.0568 34.6615 16.5045 33.947 16.9445C33.4207 17.2686 32.8763 17.4798 32.1949 17.8205C31.6543 18.0908 31.1242 18.2585 30.6044 18.4376C30.0457 18.6302 29.4694 18.7783 28.9336 18.8435C28.3155 18.9188 27.6862 19.1346 26.9873 19.2816C26.2988 19.4264 25.7705 19.4928 24.9616 19.5736C22.8912 19.7804 22.1047 19.7848 21.5037 19.8656C20.7453 19.9675 20.1579 19.9795 19.4274 20.0603C18.7634 20.1337 17.1502 20.1742 15.1693 20.255C12.1183 20.3794 9.90325 20.2394 9.5796 20.1747C8.74794 20.0083 7.76276 19.9483 7.21085 19.6724C6.85556 19.4947 6.5285 19.2991 6.28564 19.1049C6.17126 19.0071 6.0749 18.9107 5.68359 18.6167" stroke="#CEB6A1" stroke-width="4" stroke-linecap="round"/>
<path d="M8.4094 12.6789C8.4094 12.7431 7.73484 14.0611 6.87338 15.7188C6.29086 16.8397 8.08428 13.882 8.39188 13.4109C8.86437 12.6872 9.25041 11.2597 9.52783 10.3938C9.79644 9.55548 10.2257 9.11236 10.4365 8.59257C10.4889 8.4634 10.5178 8.33365 10.5343 8.44413C10.6855 9.45359 9.81108 11.7834 9.0932 13.5335C8.23098 15.6356 7.82731 16.4712 7.66281 16.9448C7.36662 17.7974 9.50933 15.7645 10.9826 14.6145C12.4334 13.4819 12.7877 12.455 13.1776 11.8213C13.3542 11.5343 13.5674 11.285 13.6652 11.2027C14.8572 10.2006 11.4951 14.7191 11.023 15.4988C10.5931 16.2088 10.035 16.8917 9.74051 17.56C9.67593 17.7065 9.57942 17.8671 9.59402 17.9819C9.60862 18.0968 9.73711 18.161 9.8836 18.1299C10.2222 18.0579 10.6453 17.6772 11.4206 17.193C12.6189 16.4445 14.24 14.9595 15.8286 13.4357C17.1482 12.1698 17.8494 11.7074 18.5945 11.0752C18.7816 10.9164 18.9512 10.8314 18.9697 10.7496C19.1235 10.0697 17.2361 10.991 16.9611 11.1526C16.8095 11.2417 16.654 11.3784 16.7961 11.4125C18.0817 11.7207 20.4289 10.3505 21.9999 9.85701C23.857 9.27364 24.7897 9.3051 25.6034 9.15909C26.198 9.05241 26.8669 8.65682 27.6475 8.39692C27.9506 8.29602 28.2004 8.16915 28.4915 8.13654C29.2817 8.04799 30.1122 8.75026 30.6981 9.18926C31.3499 9.67752 31.9305 10.405 32.2565 10.9248C32.6036 11.478 32.8085 12.2214 32.7934 13.0166C32.7801 13.715 31.7416 14.1039 31.1406 14.4621C30.3049 14.9601 29.1816 15.3051 25.4097 16.1315C24.3603 16.3614 23.0531 16.4089 21.2066 16.6036C18.9673 16.8397 16.9256 16.7671 15.1521 16.462C14.7546 16.3936 15.9162 15.5465 17.0721 14.9751C18.228 14.4037 19.4808 13.8898 21.0416 13.3038C22.6024 12.7178 24.4334 12.0754 25.489 11.7284C27.1414 11.1852 27.7449 11.0572 28.4418 10.9433C28.6825 10.904 29.0064 10.9268 29.204 10.991C29.4016 11.0553 29.4658 11.1837 29.4347 11.3142C29.364 11.61 28.5323 12.0909 26.1621 12.9159C24.449 13.5122 21.5113 13.8372 20.1344 14.0854C18.7575 14.3336 18.9824 14.3336 20.8971 13.9C22.8117 13.4664 26.4094 12.5991 28.4073 12.1362C30.6868 11.6081 31.0885 11.5118 31.2505 11.3015C31.4101 11.0945 31.3815 10.7662 31.3012 10.4425C31.204 10.0509 30.7663 9.88913 30.3468 9.77573C30.0618 9.69871 29.606 9.69445 27.8485 9.8867C26.0911 10.0789 23.0395 10.4965 21.3872 10.7116C19.1839 10.991 18.2134 11.3463 17.3223 11.7191C16.9451 11.8671 16.7202 11.9313 16.3912 12.0948" stroke="#CEB6A1" stroke-width="4" stroke-linecap="round"/>
<path d="M15.5967 12.5635V12.7152" stroke="#0D0D0D" stroke-width="2" stroke-linecap="round"/>
<path d="M22.0459 11.7285V11.8803" stroke="#0D0D0D" stroke-width="2" stroke-linecap="round"/>
<path d="M8.51172 9.1075C8.61418 8.64682 8.86917 7.93038 9.07601 7.38881C9.18617 7.10039 9.35835 6.8742 9.52475 6.74594C9.60716 6.68241 9.71657 6.66851 9.8198 6.68084C10.2478 6.73194 10.6657 7.33257 10.9249 7.79633C10.9811 7.89693 11.0524 8.00125 11.0917 8.11719C11.131 8.23313 11.131 8.36024 10.9912 8.47657C10.1565 8.79935 9.695 8.8502 9.21969 8.95304C9.10336 8.97885 9.00167 9.00427 8.8969 9.03046" stroke="#8F6E51" stroke-width="2" stroke-linecap="round"/>
<path d="M28.7729 3.71484C28.4147 3.99603 27.9024 4.45748 27.3112 5.06067C27.1875 5.18683 27.1814 5.30488 27.2318 5.38269C27.3511 5.56666 28.2013 5.56373 29.2028 5.46204C29.5564 5.42614 29.5433 5.15697 29.5179 5.00136C29.4416 4.74405 29.3638 4.51217 29.3126 4.25603C29.2868 4.12699 29.2614 3.99988 29.1581 3.71484" stroke="#8F6E51" stroke-width="2" stroke-linecap="round"/>
<path d="M0.5 13.9606C1.31351 13.9352 2.12702 13.9098 3.65196 13.8712C5.17691 13.8327 7.38864 13.7819 9.66739 13.7295" stroke="#8F6E51" stroke-linecap="round"/>
<path d="M9.74465 15.9639C9.69381 15.9639 9.64296 15.9639 8.14228 16.4215C6.6416 16.8791 3.69263 17.7943 0.654297 18.8142" stroke="#8F6E51" stroke-linecap="round"/>
<path d="M28.7725 11.5727C30.5012 11.2677 32.2299 10.9626 33.8831 10.6911C35.5363 10.4195 37.0616 10.1907 37.9618 10.0728C38.862 9.95497 39.0908 9.95497 39.5576 9.87793" stroke="#8F6E51" stroke-linecap="round"/>
<path d="M29.3115 13.8066C30.6081 13.9338 31.9046 14.0609 33.6784 14.2407C35.4521 14.4206 37.6639 14.6494 39.9426 14.8852" stroke="#8F6E51" stroke-linecap="round"/>
</svg>
