<svg width="42" height="44" viewBox="0 0 42 44" fill="none" xmlns="http://www.w3.org/2000/svg">
<path d="M4.68101 34.8289C4.26493 28.2484 4.53955 25.3421 5.78261 21.6368C8.02797 14.944 9.94868 14.3074 10.8828 13.3005C12.4362 11.6261 14.5173 11.116 18.7718 10.3858C25.0443 9.30922 26.6546 10.7624 27.9777 11.3865C29.2664 11.9943 30.6032 14.4947 33.313 18.7939C34.6433 20.9045 35.122 22.5459 35.6088 24.9717C35.6795 26.1493 35.7482 26.9898 35.8522 28.5387C35.8875 29.8129 35.8875 32.0785 35.8875 34.4128" stroke="#E0D0FF" stroke-width="7.2" stroke-linecap="round"/>
<path d="M4.68066 36.0772C5.37137 37.3213 6.34085 38.5696 7.75867 39.1271C10.5716 40.2333 12.1619 38.3698 13.38 37.7093C14.4168 37.1471 14.8041 36.2187 15.1151 35.9056C15.7703 35.246 16.7389 37.6667 18.164 38.6746C19.2578 39.4483 21.7943 39.1979 23.7458 38.5769C25.1623 38.1261 25.6223 36.5682 26.1757 35.6975C26.7843 34.7401 28.1147 37.1133 29.26 37.9122C31.1944 39.2615 34.9094 37.8164 36.0568 37.0852C36.3096 36.924 36.5072 36.7055 36.6819 36.4621C38.8469 33.4465 36.9982 26.2367 36.8588 24.8481C36.7205 23.4709 36.166 22.4212 35.8196 21.2416C35.3725 19.7192 34.7804 18.6764 34.0523 17.5655C33.3553 16.5021 32.4919 15.5558 31.7295 14.6518C30.9671 13.7481 29.8581 13.1966 28.6452 12.3977C27.5682 11.6883 25.9802 11.5281 24.3824 11.3554C23.0127 11.2074 21.7444 11.526 20.8457 12.1127C18.7666 13.4699 18.0704 14.9192 16.8211 15.9282C15.3156 17.1441 13.4268 19.2881 11.622 20.8495C9.74743 22.4712 8.42962 25.3172 7.35403 28.7832C6.8696 30.3443 6.7611 32.1826 7.03572 33.9156C7.21241 35.0307 9.66123 34.829 11.6709 34.726C13.461 34.6342 14.2465 32.4115 15.1827 30.9177C16.8774 28.2137 17.2257 25.3463 17.8207 22.9777C18.2788 21.1542 19.0315 18.8949 19.6556 16.2964C19.8988 15.284 19.8679 14.8651 19.4216 15.5797C17.8875 18.0364 16.1335 21.5682 14.4702 24.0627C13.067 26.167 12.5905 27.6806 12.1026 28.8258C11.8121 29.5078 11.4088 30.3165 11.2007 30.6327C9.96467 32.5115 12.4365 25.3505 13.8304 23.4594C14.0376 23.1784 14.3838 23.1119 14.5939 23.1785C15.8045 23.562 15.9109 27.9365 16.638 31.8903C16.8758 33.1833 17.1591 32.9607 17.7458 31.9278C19.3634 29.0797 20.5586 26.7194 21.0433 26.4729C21.9204 26.0268 21.5322 29.6133 21.8411 30.665C21.9814 31.1424 22.768 28.0093 23.0863 28.7301C23.4046 29.451 23.4046 33.227 23.3703 32.9409C22.8044 28.2251 23.2652 23.114 23.4379 22.5232C23.5198 22.2429 24.0266 24.4122 24.373 26.425C24.4255 26.7298 24.8588 23.0724 25.2395 18.6296C25.2779 18.1818 25.7617 21.9032 25.9001 26.0974C25.9593 27.893 26.1092 23.5717 26.1435 17.0485C26.1536 15.1249 26.2465 16.0176 26.1102 19.4296C25.9739 22.8415 25.6307 28.7458 25.7628 30.8605C25.9251 33.4598 28.3227 26.5218 29.2922 24.8179C29.7797 23.9612 30.682 29.8026 31.3061 33.9718C31.8169 37.3842 31.9344 27.5578 31.9344 26.1348C31.9344 24.3699 32.7665 31.702 32.7665 31.6084C32.7665 25.6152 32.3505 22.7 32.1778 21.3113C32.1346 20.9637 32.1424 20.6196 32.0394 20.5457C31.2532 19.9819 28.9011 23.2992 26.4982 25.8394C24.3311 28.1303 23.3463 30.5141 22.1251 32.7069C21.6344 33.5881 21.1868 34.4087 20.9788 34.5179C20.7036 34.6624 20.9081 33.1854 20.7021 32.8952C20.3279 32.3679 19.5225 33.924 19.3145 34.2724C18.7791 35.1691 18.8984 32.2659 18.553 31.7811C18.3814 31.5403 18.0704 31.4337 17.8259 31.4659C17.5815 31.4982 17.3755 31.7041 17.5097 31.7759C17.6439 31.8477 18.1244 31.779 18.475 31.6064C18.8256 31.4337 19.0315 31.1591 19.8679 30.8761" stroke="#E0D0FF" stroke-width="7.2" stroke-linecap="round"/>
<path d="M13.4684 20.3892C13.051 21.0745 12.7535 21.7294 12.4838 22.3431C12.2681 22.8341 12.0959 23.3134 11.9459 23.7918C11.7914 24.2841 11.7375 24.8365 11.5727 25.3149C11.4045 25.8031 11.2 26.2699 11.0499 26.7483C10.9042 27.2128 10.9008 27.7034 10.7959 28.1818C10.6868 28.6799 10.6911 29.2855 10.5424 30.4153C10.0699 34.0047 10.6015 34.5123 10.7055 34.9907C10.8999 35.4691 11.0782 35.8275 11.2869 36.0658C11.3774 36.1858 11.4365 36.3041 11.6766 36.4259" stroke="#E0D0FF" stroke-width="7.2" stroke-linecap="round"/>
<path d="M16.2002 27.5776C17.1613 28.161 18.086 28.2513 18.8909 28.095C19.0878 28.0276 19.2997 27.9387 19.4795 27.8706C19.6593 27.8026 19.8006 27.7581 20.1602 27.4429" stroke="#0D0D0D" stroke-width="1.8" stroke-linecap="round"/>
<path d="M25.4775 27.2348C26.4386 27.8182 27.3634 27.9085 28.1682 27.7522C28.3651 27.6848 28.577 27.5959 28.7568 27.5279C28.9366 27.4598 29.0779 27.4154 29.4375 27.1001" stroke="#0D0D0D" stroke-width="1.8" stroke-linecap="round"/>
<path d="M19.8857 33.6712C20.1774 33.5622 20.8365 33.2684 21.5155 33.0483C22.0965 32.86 22.7072 32.8282 25.3956 32.8271C26.1185 32.9361 26.4498 33.0472 26.7975 33.1204C26.9637 33.1573 27.1089 33.1936 27.5887 33.341" stroke="#0D0D0D" stroke-width="1.8" stroke-linecap="round"/>
<path d="M7.45215 10.2238C7.45215 9.67691 8.12362 6.97833 8.97567 4.40183C9.10251 4.0183 9.31395 3.95164 9.48436 3.97135C10.3477 4.07122 10.8832 5.21827 11.8148 6.34056C12.5265 7.19798 13.1291 8.01605 14.06 8.61121C14.9843 9.20218 16.2232 8.61376 16.9633 8.46561C20.007 7.85635 24.4067 8.31617 24.703 8.21126C25.4404 7.95018 26.0548 6.12374 26.7803 5.03324C26.9877 4.72153 27.2897 4.46033 27.5644 4.185C27.694 4.05507 27.881 4.03558 28.0514 4.05593C28.9273 4.16051 29.9132 5.59725 30.722 6.49063C31.0603 6.78757 31.3592 7.08515 31.6129 7.40245C31.7407 7.55188 31.8666 7.67778 31.9963 7.93466" stroke="#E3E3E3" stroke-width="4" stroke-linecap="round"/>
<path d="M7.57976 11.7496C6.39452 12.0879 5.38223 12.7619 4.65672 13.5484C4.05119 14.2049 4.06219 15.0942 4.03993 15.8585C4.00956 16.9016 4.77944 17.7241 5.43628 18.4445C6.19314 19.2747 8.24614 19.6317 9.46253 19.8034C10.1211 19.8963 12.5611 20.0157 15.8446 19.9948C17.4088 19.9848 18.0053 19.8886 19.1632 19.8256C21.6257 19.6918 23.3897 19.4651 23.77 19.4015C25.405 19.1281 28.4664 18.7033 30.2106 18.3428C31.7943 18.0154 32.8411 17.2205 33.6678 16.6482C34.7046 15.9304 35.0463 15.0586 35.3871 14.2962C35.7353 13.5173 35.5575 12.3498 35.115 11.3503C34.6724 10.8645 34.2871 10.4791 33.9914 10.2464C33.8216 10.1396 33.6118 10.0557 33.0141 9.71484" stroke="#E3E3E3" stroke-width="4" stroke-linecap="round"/>
<path d="M24.8594 6.83848C25.0521 6.3547 25.5719 5.51077 25.9126 4.99098C26.244 4.48541 26.6095 4.01759 26.9186 3.54695C27.2731 3.00709 27.7776 2.39591 28.1675 2.06934C28.6438 1.67031 29.1735 3.10454 29.5141 3.54354C29.8662 3.99715 30.1138 4.56463 30.4875 5.01969C30.9435 5.57484 31.1845 6.31674 31.4775 6.83653C31.8016 7.48481 32.1267 8.13504 32.2401 8.39396C32.2893 8.5244 32.3214 8.65288 32.5492 9.07728" stroke="#E3E3E3" stroke-width="4" stroke-linecap="round"/>
<path d="M32.7439 8.88281C33.6482 8.88281 34.8815 9.07555 35.4835 9.43327C35.7606 9.5979 36.0525 9.66055 36.2467 9.87081C36.6718 10.3311 36.766 10.9892 36.913 11.6536C37.1907 12.9091 36.5732 13.5843 36.2817 14.0564C36.0038 14.5065 35.8607 15.0132 35.5517 15.5647C35.2759 16.0568 34.6615 16.5045 33.947 16.9445C33.4207 17.2686 32.8763 17.4798 32.1949 17.8205C31.6543 18.0908 31.1242 18.2585 30.6044 18.4376C30.0457 18.6302 29.4694 18.7783 28.9336 18.8435C28.3155 18.9188 27.6862 19.1346 26.9873 19.2816C26.2988 19.4264 25.7705 19.4928 24.9616 19.5736C22.8912 19.7804 22.1047 19.7848 21.5037 19.8656C20.7453 19.9675 20.1579 19.9795 19.4274 20.0603C18.7634 20.1337 17.1502 20.1742 15.1693 20.255C12.1183 20.3794 9.90325 20.2394 9.5796 20.1747C8.74794 20.0083 7.76276 19.9483 7.21085 19.6724C6.85556 19.4947 6.5285 19.2991 6.28564 19.1049C6.17126 19.0071 6.0749 18.9107 5.68359 18.6167" stroke="#E3E3E3" stroke-width="4" stroke-linecap="round"/>
<path d="M8.40842 12.6789C8.40842 12.7431 7.73386 14.0611 6.87241 15.7188C6.28989 16.8397 8.08331 13.882 8.3909 13.4109C8.86339 12.6872 9.24943 11.2597 9.52685 10.3938C9.79546 9.55548 10.2248 9.11236 10.4355 8.59257C10.4879 8.4634 10.5168 8.33365 10.5333 8.44413C10.6845 9.45359 9.81011 11.7834 9.09223 13.5335C8.23001 15.6356 7.82633 16.4712 7.66183 16.9448C7.36564 17.7974 9.50835 15.7645 10.9816 14.6145C12.4325 13.4819 12.7867 12.455 13.1766 11.8213C13.3532 11.5343 13.5664 11.285 13.6643 11.2027C14.8562 10.2006 11.4941 14.7191 11.022 15.4988C10.5921 16.2088 10.034 16.8917 9.73953 17.56C9.67495 17.7065 9.57844 17.8671 9.59304 17.9819C9.60764 18.0968 9.73613 18.161 9.88263 18.1299C10.2212 18.0579 10.6443 17.6772 11.4196 17.193C12.6179 16.4445 14.239 14.9595 15.8276 13.4357C17.1472 12.1698 17.8484 11.7074 18.5935 11.0752C18.7806 10.9164 18.9503 10.8314 18.9688 10.7496C19.1226 10.0697 17.2351 10.991 16.9602 11.1526C16.8085 11.2417 16.6531 11.3784 16.7952 11.4125C18.0807 11.7207 20.4279 10.3505 21.9989 9.85701C23.856 9.27364 24.7887 9.3051 25.6024 9.15909C26.197 9.05241 26.8659 8.65682 27.6466 8.39692C27.9496 8.29602 28.1994 8.16915 28.4905 8.13654C29.2807 8.04799 30.1112 8.75026 30.6972 9.18926C31.3489 9.67752 31.9295 10.405 32.2556 10.9248C32.6026 11.478 32.8075 12.2214 32.7924 13.0166C32.7791 13.715 31.7406 14.1039 31.1396 14.4621C30.304 14.9601 29.1806 15.3051 25.4087 16.1315C24.3593 16.3614 23.0521 16.4089 21.2056 16.6036C18.9664 16.8397 16.9246 16.7671 15.1511 16.462C14.7536 16.3936 15.9152 15.5465 17.0711 14.9751C18.227 14.4037 19.4798 13.8898 21.0406 13.3038C22.6015 12.7178 24.4324 12.0754 25.4881 11.7284C27.1404 11.1852 27.7439 11.0572 28.4408 10.9433C28.6816 10.904 29.0054 10.9268 29.203 10.991C29.4006 11.0553 29.4649 11.1837 29.4337 11.3142C29.3631 11.61 28.5314 12.0909 26.1612 12.9159C24.448 13.5122 21.5103 13.8372 20.1334 14.0854C18.7566 14.3336 18.9814 14.3336 20.8961 13.9C22.8107 13.4664 26.4084 12.5991 28.4063 12.1362C30.6859 11.6081 31.0875 11.5118 31.2496 11.3015C31.4091 11.0945 31.3805 10.7662 31.3002 10.4425C31.203 10.0509 30.7653 9.88913 30.3458 9.77573C30.0608 9.69871 29.605 9.69445 27.8476 9.8867C26.0901 10.0789 23.0385 10.4965 21.3862 10.7116C19.1829 10.991 18.2124 11.3463 17.3213 11.7191C16.9441 11.8671 16.7192 11.9313 16.3902 12.0948" stroke="#E3E3E3" stroke-width="4" stroke-linecap="round"/>
<path d="M15.5967 11.8486V12.0004" stroke="#0D0D0D" stroke-width="2" stroke-linecap="round"/>
<path d="M22.0459 11.0137V11.1654" stroke="#0D0D0D" stroke-width="2" stroke-linecap="round"/>
<path d="M8.51172 8.39266C8.61418 7.93198 8.86917 7.21554 9.07601 6.67396C9.18617 6.38555 9.35835 6.15936 9.52475 6.03109C9.60716 5.96756 9.71657 5.95367 9.8198 5.966C10.2478 6.0171 10.6657 6.61773 10.9249 7.08149C10.9811 7.18208 11.0524 7.28641 11.0917 7.40235C11.131 7.51829 11.131 7.6454 10.9912 7.76172C10.1565 8.08451 9.695 8.13535 9.21969 8.2382C9.10336 8.26401 9.00167 8.28943 8.8969 8.31562" stroke="#B9B9B9" stroke-width="2" stroke-linecap="round"/>
<path d="M28.7729 3C28.4147 3.28118 27.9024 3.74263 27.3112 4.34583C27.1875 4.47199 27.1814 4.59004 27.2318 4.66785C27.3511 4.85182 28.2013 4.84888 29.2028 4.74719C29.5564 4.71129 29.5433 4.44213 29.5179 4.28651C29.4416 4.02921 29.3638 3.79733 29.3126 3.54118C29.2868 3.41214 29.2614 3.28503 29.1581 3" stroke="#B9B9B9" stroke-width="2" stroke-linecap="round"/>
<path d="M0.5 13.2458C1.31351 13.2203 2.12702 13.1949 3.65196 13.1564C5.17691 13.1179 7.38864 13.067 9.66739 13.0146" stroke="#B9B9B9" stroke-linecap="round"/>
<path d="M9.74465 15.249C9.69381 15.249 9.64296 15.249 8.14228 15.7066C6.6416 16.1642 3.69263 17.0794 0.654297 18.0994" stroke="#B9B9B9" stroke-linecap="round"/>
<path d="M28.7725 10.8579C30.5012 10.5528 32.2299 10.2478 33.8831 9.97621C35.5363 9.70465 37.0616 9.47585 37.9618 9.35799C38.862 9.24012 39.0908 9.24012 39.5576 9.16309" stroke="#B9B9B9" stroke-linecap="round"/>
<path d="M29.3115 13.0918C30.6081 13.2189 31.9046 13.346 33.6784 13.5259C35.4521 13.7058 37.6639 13.9346 39.9426 14.1703" stroke="#B9B9B9" stroke-linecap="round"/>
</svg>
