<svg width="41" height="46" viewBox="0 0 41 46" fill="none" xmlns="http://www.w3.org/2000/svg">
<path d="M3.78062 36.8289C3.36454 30.2484 3.63916 27.3421 4.88222 23.6368C7.12758 16.944 9.04829 16.3074 9.98241 15.3005C11.5358 13.6261 13.6169 13.116 17.8714 12.3858C24.1439 11.3092 25.7542 12.7624 27.0773 13.3865C28.366 13.9943 29.7029 16.4947 32.4126 20.7939C33.7429 22.9045 34.2216 24.5459 34.7084 26.9717C34.7791 28.1493 34.8478 28.9898 34.9518 30.5387C34.9872 31.8129 34.9872 34.0785 34.9872 36.4128" stroke="#E0D0FF" stroke-width="7.2" stroke-linecap="round"/>
<path d="M3.78027 38.0772C4.47098 39.3213 5.44046 40.5696 6.85828 41.1271C9.67117 42.2333 11.2615 40.3698 12.4796 39.7093C13.5164 39.1471 13.9037 38.2187 14.2147 37.9056C14.8699 37.246 15.8385 39.6667 17.2636 40.6746C18.3574 41.4483 20.8939 41.1979 22.8454 40.5769C24.2619 40.1261 24.7219 38.5682 25.2753 37.6975C25.8839 36.7401 27.2143 39.1133 28.3596 39.9122C30.294 41.2615 34.009 39.8164 35.1564 39.0852C35.4093 38.924 35.6068 38.7055 35.7815 38.4621C37.9466 35.4465 36.0978 28.2367 35.9584 26.8481C35.8201 25.4709 35.2656 24.4212 34.9192 23.2416C34.4721 21.7192 33.88 20.6764 33.1519 19.5655C32.4549 18.5021 31.5915 17.5558 30.8291 16.6518C30.0667 15.7481 28.9577 15.1966 27.7448 14.3977C26.6678 13.6883 25.0798 13.5281 23.482 13.3554C22.1123 13.2074 20.844 13.526 19.9453 14.1127C17.8662 15.4699 17.17 16.9192 15.9207 17.9282C14.4152 19.1441 12.5264 21.2881 10.7217 22.8495C8.84704 24.4712 7.52922 27.3172 6.45364 30.7832C5.96921 32.3443 5.86071 34.1826 6.13533 35.9156C6.31202 37.0307 8.76084 36.829 10.7705 36.726C12.5606 36.6342 13.3461 34.4115 14.2823 32.9177C15.977 30.2137 16.3253 27.3463 16.9203 24.9777C17.3784 23.1542 18.1311 20.8949 18.7553 18.2964C18.9984 17.284 18.9675 16.8651 18.5212 17.5797C16.9871 20.0364 15.2331 23.5682 13.5698 26.0627C12.1666 28.167 11.6901 29.6806 11.2022 30.8258C10.9117 31.5078 10.5084 32.3165 10.3004 32.6327C9.06428 34.5115 11.5361 27.3505 12.93 25.4594C13.1372 25.1784 13.4834 25.1119 13.6936 25.1785C14.9041 25.562 15.0105 29.9365 15.7376 33.8903C15.9754 35.1833 16.2587 34.9607 16.8454 33.9278C18.463 31.0797 19.6582 28.7194 20.1429 28.4729C21.02 28.0268 20.6318 31.6133 20.9407 32.665C21.081 33.1424 21.8676 30.0093 22.1859 30.7301C22.5042 31.451 22.5042 35.227 22.4699 34.9409C21.904 30.2251 22.3648 25.114 22.5375 24.5232C22.6194 24.2429 23.1263 26.4122 23.4726 28.425C23.5251 28.7298 23.9584 25.0724 24.3391 20.6296C24.3775 20.1818 24.8613 23.9032 24.9997 28.0974C25.0589 29.893 25.2088 25.5717 25.2431 19.0485C25.2532 17.1249 25.3461 18.0176 25.2098 21.4296C25.0735 24.8415 24.7303 30.7458 24.8624 32.8605C25.0248 35.4598 27.4223 28.5218 28.3918 26.8179C28.8793 25.9612 29.7816 31.8026 30.4057 35.9718C30.9165 39.3842 31.034 29.5578 31.034 28.1348C31.034 26.3699 31.8662 33.702 31.8662 33.6084C31.8662 27.6152 31.4501 24.7 31.2774 23.3113C31.2342 22.9637 31.242 22.6196 31.1391 22.5457C30.3529 21.9819 28.0007 25.2992 25.5978 27.8394C23.4307 30.1303 22.4459 32.5141 21.2247 34.7069C20.734 35.5881 20.2865 36.4087 20.0784 36.5179C19.8032 36.6624 20.0077 35.1854 19.8017 34.8952C19.4275 34.3679 18.6221 35.924 18.4141 36.2724C17.8787 37.1691 17.998 34.2659 17.6526 33.7811C17.4811 33.5403 17.17 33.4337 16.9255 33.4659C16.6811 33.4982 16.4751 33.7041 16.6093 33.7759C16.7435 33.8477 17.2241 33.779 17.5746 33.6064C17.9252 33.4337 18.1311 33.1591 18.9675 32.8761" stroke="#E0D0FF" stroke-width="7.2" stroke-linecap="round"/>
<path d="M12.5681 22.3892C12.1506 23.0745 11.8531 23.7294 11.5835 24.3431C11.3677 24.8341 11.1955 25.3134 11.0455 25.7918C10.8911 26.2841 10.8372 26.8365 10.6723 27.3149C10.5041 27.8031 10.2996 28.2699 10.1496 28.7483C10.0039 29.2128 10.0004 29.7034 9.89556 30.1818C9.78641 30.6799 9.79074 31.2855 9.64202 32.4153C9.16951 36.0047 9.70115 36.5123 9.80507 36.9907C9.99948 37.4691 10.1778 37.8275 10.3865 38.0658C10.477 38.1858 10.5361 38.3041 10.7762 38.4259" stroke="#E0D0FF" stroke-width="7.2" stroke-linecap="round"/>
<path d="M15.2998 29.5776C16.2609 30.161 17.1856 30.2513 17.9905 30.095C18.1874 30.0276 18.3993 29.9387 18.5791 29.8706C18.7589 29.8026 18.9002 29.7581 19.2598 29.4429" stroke="#0D0D0D" stroke-width="1.8" stroke-linecap="round"/>
<path d="M24.5771 29.2348C25.5383 29.8182 26.463 29.9085 27.2678 29.7522C27.4647 29.6848 27.6766 29.5959 27.8565 29.5279C28.0363 29.4598 28.1775 29.4154 28.5371 29.1001" stroke="#0D0D0D" stroke-width="1.8" stroke-linecap="round"/>
<path d="M18.9854 35.6712C19.277 35.5622 19.9361 35.2684 20.6151 35.0483C21.1961 34.86 21.8068 34.8282 24.4952 34.8271C25.2182 34.9361 25.5494 35.0472 25.8971 35.1204C26.0633 35.1573 26.2085 35.1936 26.6883 35.341" stroke="#0D0D0D" stroke-width="1.8" stroke-linecap="round"/>
<path d="M7.55176 10.2238C7.55176 9.67691 8.22323 6.97833 9.07528 4.40183C9.20211 4.0183 9.41356 3.95164 9.58397 3.97135C10.4473 4.07122 10.9829 5.21827 11.9144 6.34056C12.6261 7.19798 13.2287 8.01605 14.1596 8.61121C15.0839 9.20218 16.3228 8.61376 17.0629 8.46561C20.1066 7.85635 24.5063 8.31617 24.8026 8.21126C25.54 7.95018 26.1544 6.12374 26.88 5.03324C27.0873 4.72153 27.3893 4.46033 27.664 4.185C27.7936 4.05507 27.9806 4.03558 28.151 4.05593C29.0269 4.16051 30.0128 5.59725 30.8216 6.49063C31.1599 6.78757 31.4588 7.08515 31.7125 7.40245C31.8403 7.55188 31.9662 7.67778 32.0959 7.93466" stroke="#FFC871" stroke-width="4" stroke-linecap="round"/>
<path d="M7.67937 11.7496C6.49413 12.0879 5.48184 12.7619 4.75633 13.5484C4.15079 14.2049 4.1618 15.0942 4.13954 15.8585C4.10917 16.9016 4.87904 17.7241 5.53589 18.4445C6.29275 19.2747 8.34575 19.6317 9.56214 19.8034C10.2207 19.8963 12.6607 20.0157 15.9443 19.9948C17.5084 19.9848 18.1049 19.8886 19.2628 19.8256C21.7253 19.6918 23.4894 19.4651 23.8696 19.4015C25.5046 19.1281 28.566 18.7033 30.3102 18.3428C31.8939 18.0154 32.9408 17.2205 33.7674 16.6482C34.8042 15.9304 35.1459 15.0586 35.4867 14.2962C35.8349 13.5173 35.6571 12.3498 35.2146 11.3503C34.772 10.8645 34.3867 10.4791 34.091 10.2464C33.9212 10.1396 33.7114 10.0557 33.1137 9.71484" stroke="#FFC871" stroke-width="4" stroke-linecap="round"/>
<path d="M24.959 6.83848C25.1517 6.3547 25.6715 5.51077 26.0122 4.99098C26.3436 4.48541 26.7091 4.01759 27.0182 3.54695C27.3727 3.00709 27.8772 2.39591 28.2671 2.06934C28.7434 1.67031 29.2731 3.10454 29.6138 3.54354C29.9658 3.99715 30.2134 4.56463 30.5871 5.01969C31.0431 5.57484 31.2841 6.31674 31.5771 6.83653C31.9012 7.48481 32.2263 8.13504 32.3397 8.39396C32.3889 8.5244 32.421 8.65288 32.6488 9.07728" stroke="#FFC871" stroke-width="4" stroke-linecap="round"/>
<path d="M32.8435 8.88281C33.7478 8.88281 34.9811 9.07555 35.5831 9.43327C35.8602 9.5979 36.1521 9.66055 36.3463 9.87081C36.7714 10.3311 36.8656 10.9892 37.0126 11.6536C37.2903 12.9091 36.6729 13.5843 36.3813 14.0564C36.1034 14.5065 35.9603 15.0132 35.6513 15.5647C35.3755 16.0568 34.7611 16.5045 34.0466 16.9445C33.5203 17.2686 32.9759 17.4798 32.2945 17.8205C31.7539 18.0908 31.2238 18.2585 30.704 18.4376C30.1453 18.6302 29.569 18.7783 29.0332 18.8435C28.4151 18.9188 27.7858 19.1346 27.0869 19.2816C26.3984 19.4264 25.8701 19.4928 25.0612 19.5736C22.9908 19.7804 22.2043 19.7848 21.6033 19.8656C20.8449 19.9675 20.2576 19.9795 19.527 20.0603C18.863 20.1337 17.2498 20.1742 15.2689 20.255C12.2179 20.3794 10.0029 20.2394 9.67921 20.1747C8.84755 20.0083 7.86237 19.9483 7.31046 19.6724C6.95517 19.4947 6.62811 19.2991 6.38525 19.1049C6.27087 19.0071 6.17451 18.9107 5.7832 18.6167" stroke="#FFC871" stroke-width="4" stroke-linecap="round"/>
<path d="M8.50803 12.6789C8.50803 12.7431 7.83347 14.0611 6.97201 15.7188C6.3895 16.8397 8.18292 13.882 8.49051 13.4109C8.963 12.6872 9.34904 11.2597 9.62646 10.3938C9.89507 9.55548 10.3244 9.11236 10.5351 8.59257C10.5875 8.4634 10.6164 8.33365 10.6329 8.44413C10.7841 9.45359 9.90972 11.7834 9.19184 13.5335C8.32962 15.6356 7.92594 16.4712 7.76144 16.9448C7.46525 17.7974 9.60796 15.7645 11.0812 14.6145C12.5321 13.4819 12.8864 12.455 13.2762 11.8213C13.4528 11.5343 13.666 11.285 13.7639 11.2027C14.9558 10.2006 11.5937 14.7191 11.1216 15.4988C10.6917 16.2088 10.1336 16.8917 9.83914 17.56C9.77456 17.7065 9.67805 17.8671 9.69265 17.9819C9.70725 18.0968 9.83574 18.161 9.98224 18.1299C10.3208 18.0579 10.7439 17.6772 11.5192 17.193C12.7175 16.4445 14.3387 14.9595 15.9272 13.4357C17.2469 12.1698 17.948 11.7074 18.6931 11.0752C18.8802 10.9164 19.0499 10.8314 19.0684 10.7496C19.2222 10.0697 17.3348 10.991 17.0598 11.1526C16.9081 11.2417 16.7527 11.3784 16.8948 11.4125C18.1803 11.7207 20.5275 10.3505 22.0985 9.85701C23.9556 9.27364 24.8883 9.3051 25.702 9.15909C26.2966 9.05241 26.9655 8.65682 27.7462 8.39692C28.0492 8.29602 28.2991 8.16915 28.5901 8.13654C29.3804 8.04799 30.2108 8.75026 30.7968 9.18926C31.4485 9.67752 32.0291 10.405 32.3552 10.9248C32.7022 11.478 32.9071 12.2214 32.892 13.0166C32.8788 13.715 31.8403 14.1039 31.2392 14.4621C30.4036 14.9601 29.2802 15.3051 25.5083 16.1315C24.4589 16.3614 23.1518 16.4089 21.3052 16.6036C19.066 16.8397 17.0242 16.7671 15.2507 16.462C14.8532 16.3936 16.0148 15.5465 17.1707 14.9751C18.3266 14.4037 19.5794 13.8898 21.1402 13.3038C22.7011 12.7178 24.532 12.0754 25.5877 11.7284C27.24 11.1852 27.8435 11.0572 28.5405 10.9433C28.7812 10.904 29.105 10.9268 29.3026 10.991C29.5002 11.0553 29.5645 11.1837 29.5333 11.3142C29.4627 11.61 28.631 12.0909 26.2608 12.9159C24.5476 13.5122 21.6099 13.8372 20.233 14.0854C18.8562 14.3336 19.081 14.3336 20.9957 13.9C22.9104 13.4664 26.508 12.5991 28.5059 12.1362C30.7855 11.6081 31.1871 11.5118 31.3492 11.3015C31.5088 11.0945 31.4801 10.7662 31.3998 10.4425C31.3026 10.0509 30.8649 9.88913 30.4454 9.77573C30.1604 9.69871 29.7046 9.69445 27.9472 9.8867C26.1897 10.0789 23.1381 10.4965 21.4858 10.7116C19.2825 10.991 18.312 11.3463 17.4209 11.7191C17.0437 11.8671 16.8189 11.9313 16.4899 12.0948" stroke="#FFC871" stroke-width="4" stroke-linecap="round"/>
<path d="M15.6963 11.8486V12.0004" stroke="#0D0D0D" stroke-width="2" stroke-linecap="round"/>
<path d="M22.1455 11.0137V11.1654" stroke="#0D0D0D" stroke-width="2" stroke-linecap="round"/>
<path d="M8.61133 8.39266C8.71379 7.93198 8.96878 7.21554 9.17562 6.67396C9.28578 6.38555 9.45796 6.15936 9.62436 6.03109C9.70677 5.96756 9.81618 5.95367 9.91941 5.966C10.3474 6.0171 10.7653 6.61773 11.0245 7.08149C11.0807 7.18208 11.152 7.28641 11.1913 7.40235C11.2306 7.51829 11.2306 7.6454 11.0908 7.76172C10.2561 8.08451 9.79461 8.13535 9.3193 8.2382C9.20297 8.26401 9.10128 8.28943 8.99651 8.31562" stroke="#EDA666" stroke-width="2" stroke-linecap="round"/>
<path d="M28.8726 3C28.5143 3.28118 28.002 3.74263 27.4108 4.34583C27.2871 4.47199 27.281 4.59004 27.3314 4.66785C27.4507 4.85182 28.3009 4.84888 29.3024 4.74719C29.656 4.71129 29.6429 4.44213 29.6175 4.28651C29.5412 4.02921 29.4634 3.79733 29.4122 3.54118C29.3864 3.41214 29.361 3.28503 29.2577 3" stroke="#EDA666" stroke-width="2" stroke-linecap="round"/>
<path d="M0.599609 13.2458C1.41312 13.2203 2.22663 13.1949 3.75157 13.1564C5.27652 13.1179 7.48824 13.067 9.767 13.0146" stroke="#EDA666" stroke-linecap="round"/>
<path d="M9.84426 15.249C9.79341 15.249 9.74257 15.249 8.24189 15.7066C6.74121 16.1642 3.79224 17.0794 0.753906 18.0994" stroke="#EDA666" stroke-linecap="round"/>
<path d="M28.8721 10.8579C30.6008 10.5528 32.3295 10.2478 33.9827 9.97621C35.6359 9.70465 37.1612 9.47585 38.0614 9.35799C38.9616 9.24012 39.1904 9.24012 39.6572 9.16309" stroke="#EDA666" stroke-linecap="round"/>
<path d="M29.4111 13.0918C30.7077 13.2189 32.0042 13.346 33.778 13.5259C35.5517 13.7058 37.7635 13.9346 40.0422 14.1703" stroke="#EDA666" stroke-linecap="round"/>
</svg>
