<svg width="43" height="49" viewBox="0 0 43 49" fill="none" xmlns="http://www.w3.org/2000/svg">
<path d="M22.0454 5.74902C21.5197 7.69654 19.4233 11.8924 18.1155 14.1899C17.5363 15.2073 17.0863 16.0883 16.2432 17.408C15.5157 18.5467 14.9235 20.148 14.2893 21.6039C13.6719 23.0215 13.4446 24.5307 12.9166 25.8006C12.5504 26.6812 12.1779 28.1693 11.676 29.8896C11.3552 30.9891 11.4369 33.6477 11.6206 35.5382C11.7466 36.835 12.5421 37.834 13.4391 39.468C14.0405 40.5636 15.4396 41.3174 16.6319 42.0054C17.6559 42.5963 18.8217 42.7994 21.53 43.0623C25.4549 43.4432 26.5262 42.9578 27.5831 42.8002C28.5985 42.6488 29.4301 42.3782 30.4854 41.9832C31.8481 41.4731 32.4923 40.4276 33.2579 39.6098C34.1064 38.7033 34.2878 37.473 34.6583 36.6275C35.0036 35.8396 35.1333 34.7307 35.2133 33.7775C35.2985 32.762 35.6083 31.6146 35.6361 25.5916C35.646 23.424 35.1365 22.5895 34.6085 21.3498C34.1793 20.3423 33.607 19.0555 32.9729 17.8134C32.4019 16.695 31.8115 15.7811 31.2312 14.8042C30.7017 13.9129 29.8608 12.9343 29.1206 11.9011C28.3674 10.85 27.6441 10.0811 26.9039 9.34085C25.9531 8.39005 25.1107 7.75671 24.4228 7.045C24.0988 6.70984 23.7886 6.38395 23.4205 6.14645C23.2304 6.02378 22.9479 6.06569 22.7872 6.19632C21.9914 6.84311 22.362 10.5244 22.2306 12.7641C22.1099 14.8215 21.7287 17.6685 21.545 19.0705C21.3511 20.5507 21.0953 21.6839 20.4383 25.5781C20.1276 27.4195 19.8318 29.6449 19.3814 32.2876C19.2907 32.8194 19.2492 33.1346 20.0583 32.0683C20.8673 31.0019 22.5394 28.5461 23.871 26.3666C25.2026 24.1871 26.1431 22.3584 26.7582 21.5992C27.3733 20.8399 27.6346 21.2057 27.8214 21.6815C28.2199 22.6963 28.2727 24.7872 28.2996 27.5003C28.3434 31.912 26.7432 34.3522 26.664 34.513C25.9621 35.9377 28.0019 30.7248 29.4032 29.8698C29.6574 29.7147 29.9051 29.8159 30.1434 29.9727C30.7166 30.3497 31.0166 30.975 31.175 31.6051C31.2784 32.0169 31.2288 32.6533 31.1504 33.0547C31.0343 33.6491 28.5593 33.7743 26.3782 34.247C25.1453 34.5141 24.3729 35.8802 23.9454 36.7273C23.9961 36.8872 24.205 36.9917 24.4172 37.1239C24.6294 37.2561 24.8384 37.4129 25.0537 37.5744" stroke="#C8E1FF" stroke-width="11.495" stroke-linecap="round"/>
<path d="M33.0605 20.436C33.2799 21.5359 33.6316 22.3264 34.0724 22.9675C34.4973 23.5854 34.8213 24.3542 35.2622 25.082C35.7069 25.816 35.8788 26.6015 36.0785 27.3729C36.2159 27.9038 36.1446 28.4099 36.2107 29.7431C36.4916 35.4102 35.7493 36.1194 35.551 36.8253C35.3402 37.5757 34.8689 38.2345 34.5159 38.9404C34.1707 39.6308 33.6792 40.2174 33.1729 40.7699C32.4894 41.1454 31.9607 41.3661 31.5218 41.4322C31.2574 41.4547 30.9084 41.4547 30.5488 41.4547" stroke="#C8E1FF" stroke-width="11.495" stroke-linecap="round"/>
<path d="M30.417 15.6772C30.9008 16.1161 31.4269 17.0811 32.0013 18.0534C32.4836 18.8698 32.7066 19.5954 33.1692 20.1916C33.635 20.7918 33.7641 21.5783 33.9855 22.2842C34.2111 23.0033 34.6895 23.6934 35.1521 24.2896C35.6302 24.9056 35.792 25.6763 36.0563 26.3822C36.3211 27.089 36.3207 27.9236 36.3439 31.8332C36.3526 33.3144 35.7946 34.0917 35.3537 34.8426C34.9838 35.4727 34.3431 36.2068 33.702 36.8704C33.3728 36.9603 32.9313 37.0475 32.4039 37.2015C32.1381 37.2683 31.8764 37.3119 31.6067 37.3569" stroke="#C8E1FF" stroke-width="11.495" stroke-linecap="round"/>
<path d="M26.7695 16.7637L27.3396 16.9509" stroke="#0D0D0D" stroke-width="2.5" stroke-linecap="round"/>
<path d="M19.8047 17.9507L20.3747 17.7635" stroke="#0D0D0D" stroke-width="2.5" stroke-linecap="round"/>
<path d="M20.4404 24.8748C20.8988 24.7498 21.7599 24.4145 22.9048 23.9729C23.8205 23.7397 24.7492 23.5294 25.8821 23.2772C26.4942 23.1708 27.1817 23.1083 27.89 23.0439" stroke="#0D0D0D" stroke-width="2" stroke-linecap="round"/>
<path d="M4.41235 8.00416C4.1417 7.65504 3.49627 6.94204 3.0307 6.43297C2.86435 6.25108 2.64135 6.17167 2.4247 6.11774C2.18315 6.05761 1.8954 6.23386 1.64391 6.452C1.27612 6.771 0.918729 7.24467 1.01593 8.79398C1.07678 9.76398 1.51631 10.2465 1.80151 10.5994C2.12201 10.996 2.45173 11.3933 2.92652 11.7046C3.46077 12.0548 3.82914 12.3857 4.25246 12.5848C4.77359 12.83 5.69835 12.9926 6.6621 12.8128C7.26388 12.7005 7.72044 11.8547 8.05321 11.2102C8.74207 9.87594 8.66042 7.7794 8.60912 7.35047C8.55699 6.91458 8.32607 6.47134 8.00063 6.02075C7.73807 5.65721 7.23854 5.48878 6.538 5.3985C5.98516 5.32726 5.7703 6.03859 5.52862 6.48224C5.22885 6.97233 5.06625 7.4256 4.90967 7.82821C4.87038 7.92925 4.83167 8.02877 4.78194 8.20916" stroke="#FFA3A3" stroke-width="2" stroke-linecap="round"/>
</svg>
