<svg width="38" height="49" viewBox="0 0 38 49" fill="none" xmlns="http://www.w3.org/2000/svg">
<path d="M16.3334 5.74902C15.8078 7.69654 13.7114 11.8924 12.4036 14.1899C11.8244 15.2073 11.3744 16.0883 10.5313 17.408C9.80379 18.5467 9.21154 20.148 8.57741 21.6039C7.95995 23.0215 7.73269 24.5307 7.20464 25.8006C6.83845 26.6812 6.46601 28.1693 5.96408 29.8896C5.64328 30.9891 5.725 33.6477 5.90867 35.5382C6.03466 36.835 6.83018 37.834 7.72715 39.468C8.32856 40.5636 9.72771 41.3174 10.92 42.0054C11.944 42.5963 13.1098 42.7994 15.8181 43.0623C19.743 43.4432 20.8143 42.9578 21.8712 42.8002C22.8866 42.6488 23.7182 42.3782 24.7735 41.9832C26.1361 41.4731 26.7804 40.4276 27.5459 39.6098C28.3945 38.7033 28.5759 37.473 28.9464 36.6275C29.2917 35.8396 29.4214 34.7307 29.5014 33.7775C29.5866 32.762 29.8964 31.6146 29.9241 25.5916C29.9341 23.424 29.4246 22.5895 28.8965 21.3498C28.4674 20.3423 27.8951 19.0555 27.2609 17.8134C26.69 16.695 26.0996 15.7811 25.5193 14.8042C24.9898 13.9129 24.1489 12.9343 23.4086 11.9011C22.6555 10.85 21.9322 10.0811 21.192 9.34085C20.2412 8.39005 19.3988 7.75671 18.7108 7.045C18.3869 6.70984 18.0767 6.38395 17.7086 6.14645C17.5184 6.02378 17.236 6.06569 17.0752 6.19632C16.2795 6.84311 16.6501 10.5244 16.5187 12.7641C16.398 14.8215 16.0168 17.6685 15.8331 19.0705C15.6392 20.5507 15.3834 21.6839 14.7263 25.5781C14.4156 27.4195 14.1199 29.6449 13.6695 32.2876C13.5788 32.8194 13.5373 33.1346 14.3463 32.0683C15.1554 31.0019 16.8275 28.5461 18.159 26.3666C19.4906 24.1871 20.4312 22.3584 21.0463 21.5992C21.6614 20.8399 21.9227 21.2057 22.1095 21.6815C22.508 22.6963 22.5608 24.7872 22.5877 27.5003C22.6314 31.912 21.0312 34.3522 20.9521 34.513C20.2502 35.9377 22.29 30.7248 23.6913 29.8698C23.9455 29.7147 24.1932 29.8159 24.4315 29.9727C25.0047 30.3497 25.3047 30.975 25.463 31.6051C25.5665 32.0169 25.5169 32.6533 25.4385 33.0547C25.3224 33.6491 22.8473 33.7743 20.6663 34.247C19.4334 34.5141 18.661 35.8802 18.2335 36.7273C18.2841 36.8872 18.4931 36.9917 18.7053 37.1239C18.9175 37.2561 19.1265 37.4129 19.3418 37.5744" stroke="#C8E1FF" stroke-width="11.495" stroke-linecap="round"/>
<path d="M27.3486 20.436C27.568 21.5359 27.9197 22.3264 28.3605 22.9675C28.7854 23.5854 29.1094 24.3542 29.5503 25.082C29.995 25.816 30.1669 26.6015 30.3665 27.3729C30.5039 27.9038 30.4326 28.4099 30.4987 29.7431C30.7797 35.4102 30.0374 36.1194 29.8391 36.8253C29.6283 37.5757 29.157 38.2345 28.804 38.9404C28.4588 39.6308 27.9672 40.2174 27.4609 40.7699C26.7775 41.1454 26.2487 41.3661 25.8099 41.4322C25.5455 41.4547 25.1965 41.4547 24.8369 41.4547" stroke="#C8E1FF" stroke-width="11.495" stroke-linecap="round"/>
<path d="M24.7051 15.6772C25.1889 16.1161 25.715 17.0811 26.2894 18.0534C26.7717 18.8698 26.9947 19.5954 27.4573 20.1916C27.9231 20.7918 28.0522 21.5783 28.2736 22.2842C28.4992 23.0033 28.9776 23.6934 29.4402 24.2896C29.9183 24.9056 30.08 25.6763 30.3444 26.3822C30.6092 27.089 30.6088 27.9236 30.6319 31.8332C30.6407 33.3144 30.0827 34.0917 29.6418 34.8426C29.2719 35.4727 28.6312 36.2068 27.9901 36.8704C27.6609 36.9603 27.2194 37.0475 26.6919 37.2015C26.4262 37.2683 26.1645 37.3119 25.8948 37.3569" stroke="#C8E1FF" stroke-width="11.495" stroke-linecap="round"/>
<path d="M21.0576 16.7637L21.6277 16.9509" stroke="#0D0D0D" stroke-width="2.5" stroke-linecap="round"/>
<path d="M14.0928 17.9507L14.6628 17.7635" stroke="#0D0D0D" stroke-width="2.5" stroke-linecap="round"/>
<path d="M14.7285 24.8748C15.1869 24.7498 16.048 24.4145 17.1929 23.9729C18.1086 23.7397 19.0373 23.5294 20.1702 23.2772C20.7823 23.1708 21.4698 23.1083 22.1781 23.0439" stroke="#0D0D0D" stroke-width="2" stroke-linecap="round"/>
<path d="M29.7445 10.0917C29.6712 10.0917 29.4137 10.0917 28.989 10.0367C28.571 9.98264 28.1559 9.50219 27.7307 9.04036C27.1406 8.39942 27.3021 7.39286 27.4487 6.85775C27.6392 6.16215 28.3368 5.91077 28.6871 5.79975C29.1272 5.66025 29.558 5.83528 29.835 6.00125C30.4636 6.37793 30.8525 7.34956 31.0579 8.07173C31.0767 8.64181 31.0401 9.12806 30.9296 9.42337C30.8558 9.57214 30.7459 9.71868 30.4106 9.98068" stroke="#FCA8A8" stroke-width="2" stroke-linecap="round"/>
<path d="M30.1883 10.0919C28.9427 10.3117 28.0079 10.425 27.4906 10.5166C27.0361 10.597 26.8955 11.1632 26.7845 11.6606C26.7155 11.9694 26.7467 12.4144 26.8383 12.7142C26.9299 13.0139 27.1131 13.1604 27.3174 13.2543C27.7206 13.4394 28.261 13.4224 28.76 13.3675C29.4805 13.2881 29.964 12.4633 30.5563 11.2992C31.0634 10.3025 31.5183 9.13272 32.11 8.55821C32.7468 7.9399 34.871 7.98258 36.1627 8.25846C36.5483 8.34081 36.5163 9.12606 36.443 9.75442C36.276 11.1869 33.1525 11.0533 31.803 11.1827C30.9398 11.2654 31.0031 12.4943 30.9099 13.1421C30.7797 14.0466 31.7758 14.677 32.498 15.05C33.0056 15.3122 33.5543 15.0511 33.8863 14.9406C34.3084 14.8001 34.7378 14.4238 35.0892 14.0175C35.3332 13.7353 35.2951 13.3137 35.2218 12.9073C35.1486 12.7208 35.002 12.5743 34.8532 12.4438C34.7045 12.3134 34.5579 12.2035 34.1849 11.9792" stroke="#FCA8A8" stroke-width="2" stroke-linecap="round"/>
</svg>
