<svg width="42" height="49" viewBox="0 0 42 49" fill="none" xmlns="http://www.w3.org/2000/svg">
<path d="M21.3461 5.74902C20.8205 7.69654 18.7241 11.8924 17.4163 14.1899C16.8371 15.2073 16.3871 16.0883 15.544 17.408C14.8165 18.5467 14.2242 20.148 13.5901 21.6039C12.9726 23.0215 12.7454 24.5307 12.2173 25.8006C11.8511 26.6812 11.4787 28.1693 10.9768 29.8896C10.656 30.9891 10.7377 33.6477 10.9214 35.5382C11.0474 36.835 11.8429 37.834 12.7398 39.468C13.3413 40.5636 14.7404 41.3174 15.9327 42.0054C16.9567 42.5963 18.1224 42.7994 20.8308 43.0623C24.7557 43.4432 25.827 42.9578 26.8839 42.8002C27.8993 42.6488 28.7309 42.3782 29.7862 41.9832C31.1488 41.4731 31.7931 40.4276 32.5586 39.6098C33.4072 38.7033 33.5886 37.473 33.9591 36.6275C34.3044 35.8396 34.4341 34.7307 34.5141 33.7775C34.5993 32.762 34.9091 31.6146 34.9368 25.5916C34.9468 23.424 34.4373 22.5895 33.9092 21.3498C33.4801 20.3423 32.9078 19.0555 32.2736 17.8134C31.7027 16.695 31.1123 15.7811 30.532 14.8042C30.0025 13.9129 29.1616 12.9343 28.4213 11.9011C27.6682 10.85 26.9449 10.0811 26.2047 9.34085C25.2539 8.39005 24.4115 7.75671 23.7235 7.045C23.3996 6.70984 23.0894 6.38395 22.7213 6.14645C22.5311 6.02378 22.2487 6.06569 22.0879 6.19632C21.2922 6.84311 21.6628 10.5244 21.5314 12.7641C21.4107 14.8215 21.0295 17.6685 20.8458 19.0705C20.6519 20.5507 20.3961 21.6839 19.739 25.5781C19.4283 27.4195 19.1326 29.6449 18.6822 32.2876C18.5915 32.8194 18.5499 33.1346 19.359 32.0683C20.1681 31.0019 21.8401 28.5461 23.1717 26.3666C24.5033 24.1871 25.4439 22.3584 26.059 21.5992C26.6741 20.8399 26.9354 21.2057 27.1222 21.6815C27.5207 22.6963 27.5735 24.7872 27.6004 27.5003C27.6441 31.912 26.0439 34.3522 25.9648 34.513C25.2629 35.9377 27.3027 30.7248 28.704 29.8698C28.9582 29.7147 29.2059 29.8159 29.4442 29.9727C30.0174 30.3497 30.3174 30.975 30.4757 31.6051C30.5792 32.0169 30.5296 32.6533 30.4512 33.0547C30.3351 33.6491 27.86 33.7743 25.679 34.247C24.4461 34.5141 23.6737 35.8802 23.2462 36.7273C23.2968 36.8872 23.5058 36.9917 23.718 37.1239C23.9302 37.2561 24.1392 37.4129 24.3545 37.5744" stroke="#C8E1FF" stroke-width="11.495" stroke-linecap="round"/>
<path d="M32.3613 20.436C32.5807 21.5359 32.9323 22.3264 33.3732 22.9675C33.7981 23.5854 34.1221 24.3542 34.563 25.082C35.0077 25.816 35.1796 26.6015 35.3792 27.3729C35.5166 27.9038 35.4453 28.4099 35.5114 29.7431C35.7924 35.4102 35.0501 36.1194 34.8518 36.8253C34.641 37.5757 34.1697 38.2345 33.8167 38.9404C33.4715 39.6308 32.9799 40.2174 32.4736 40.7699C31.7902 41.1454 31.2614 41.3661 30.8226 41.4322C30.5582 41.4547 30.2092 41.4547 29.8496 41.4547" stroke="#C8E1FF" stroke-width="11.495" stroke-linecap="round"/>
<path d="M29.7178 15.6772C30.2016 16.1161 30.7277 17.0811 31.3021 18.0534C31.7844 18.8698 32.0074 19.5954 32.47 20.1916C32.9358 20.7918 33.0649 21.5783 33.2863 22.2842C33.5119 23.0033 33.9902 23.6934 34.4529 24.2896C34.931 24.9056 35.0927 25.6763 35.3571 26.3822C35.6218 27.089 35.6215 27.9236 35.6446 31.8332C35.6534 33.3144 35.0954 34.0917 34.6545 34.8426C34.2846 35.4727 33.6439 36.2068 33.0028 36.8704C32.6736 36.9603 32.2321 37.0475 31.7046 37.2015C31.4389 37.2683 31.1772 37.3119 30.9075 37.3569" stroke="#C8E1FF" stroke-width="11.495" stroke-linecap="round"/>
<path d="M26.0703 16.7637L26.6404 16.9509" stroke="#0D0D0D" stroke-width="2.5" stroke-linecap="round"/>
<path d="M19.1055 17.9507L19.6755 17.7635" stroke="#0D0D0D" stroke-width="2.5" stroke-linecap="round"/>
<path d="M19.7412 24.8748C20.1995 24.7498 21.0607 24.4145 22.2056 23.9729C23.1213 23.7397 24.05 23.5294 25.1829 23.2772C25.7949 23.1708 26.4825 23.1083 27.1908 23.0439" stroke="#0D0D0D" stroke-width="2" stroke-linecap="round"/>
<path d="M8.36118 10.7546C5.11673 9.66664 2.96935 9.32866 2.10996 9.94377C0.398316 11.1689 0.869357 12.8372 0.959347 13.6335C1.0008 14.0003 1.24029 14.253 1.4855 14.4008C3.24844 15.4639 7.57709 12.8827 9.37826 11.1509C11.1472 9.45006 11.9107 7.16875 13.6958 5.62002C14.0731 5.29272 14.5706 5.32915 14.9563 5.41352C16.5711 5.76679 16.8275 7.84245 17.085 8.75805C17.224 9.25201 17.2942 9.82761 16.5573 10.247C12.7469 12.4157 10.7875 11.1055 8.89063 11.4805C8.14603 12.632 7.78078 14.0152 7.37341 17.4706C7.35483 18.2942 7.4348 18.7931 7.41333 18.6592" stroke="#FF0000" stroke-width="1.6" stroke-linecap="round"/>
<path d="M10.6592 11.272C11.7456 12.1212 12.8319 12.9703 13.5213 13.5332C14.2107 14.096 14.4702 14.3468 14.7279 14.5658C14.9856 14.7847 15.2337 14.9643 15.7399 15.3305" stroke="#FF0000" stroke-width="1.6" stroke-linecap="round"/>
</svg>
