<svg width="37" height="70" viewBox="0 0 37 70" fill="none" xmlns="http://www.w3.org/2000/svg">
<path d="M20.5332 6.29329C22.2468 5.64175 20.4578 6.25499 18.7468 6.14175C17.0358 6.02852 13.3075 5.94217 11.5658 5.85166C9.82415 5.76114 9.8377 5.8252 9.8804 5.90687C9.92311 5.98853 9.99456 6.08586 11.3557 7.34706C12.7168 8.60826 15.3654 11.0304 16.7607 12.2529C18.1559 13.4754 19.8254 14.1952 19.7469 13.1418C19.6684 12.0883 17.8401 9.26302 17.6138 7.83606C17.3875 6.40911 17.1621 5.67239 16.8477 4.82349C16.5332 3.97458 16.1365 3.03582 15.91 2.498C15.6835 1.96019 15.6392 1.85177 15.5911 1.83473C15.543 1.81769 15.4924 1.8953 14.8165 3.81153C14.1406 5.72776 12.8407 9.48027 12.1606 11.4651C11.4805 13.45 11.4596 13.5535 11.5085 13.5981C11.6346 13.7132 12.1907 13.4797 13.5357 12.8224C14.5163 12.3432 15.997 11.3668 17.128 10.504C18.259 9.6412 18.9686 8.87002 19.4063 8.3705C20.4229 7.21009 21.7071 6.01242 21.7468 5.90684C21.7717 5.85794 20.7731 6.18606 20.8081 6.21564C20.8431 6.24523 20.8776 6.34502 20.9131 6.44783" stroke="#FFEC6F" stroke-width="2" stroke-linecap="round"/>
<path d="M15.9492 12.7627V20.0836" stroke="#FFEC6F" stroke-width="2" stroke-linecap="round"/>
<path d="M16.3334 26C15.8078 27.9475 13.7114 32.1434 12.4036 34.4408C11.8244 35.4583 11.3744 36.3393 10.5313 37.659C9.80379 38.7977 9.21154 40.399 8.57741 41.8549C7.95995 43.2725 7.73269 44.7817 7.20464 46.0515C6.83845 46.9322 6.46601 48.4202 5.96408 50.1406C5.64328 51.2401 5.725 53.8986 5.90867 55.7892C6.03466 57.086 6.83018 58.085 7.72715 59.719C8.32856 60.8146 9.72771 61.5684 10.92 62.2563C11.944 62.8472 13.1098 63.0504 15.8181 63.3132C19.743 63.6941 20.8143 63.2087 21.8712 63.0512C22.8866 62.8998 23.7182 62.6292 24.7735 62.2342C26.1361 61.7241 26.7804 60.6785 27.5459 59.8607C28.3945 58.9542 28.5759 57.724 28.9464 56.8785C29.2917 56.0906 29.4214 54.9816 29.5014 54.0285C29.5866 53.0129 29.8964 51.8656 29.9241 45.8425C29.9341 43.675 29.4246 42.8405 28.8965 41.6007C28.4674 40.5933 27.8951 39.3065 27.2609 38.0643C26.69 36.946 26.0996 36.0321 25.5193 35.0552C24.9898 34.1638 24.1489 33.1852 23.4086 32.1521C22.6555 31.1009 21.9322 30.332 21.192 29.5918C20.2412 28.641 19.3988 28.0077 18.7108 27.296C18.3869 26.9608 18.0767 26.6349 17.7086 26.3974C17.5184 26.2748 17.236 26.3167 17.0752 26.4473C16.2795 27.0941 16.6501 30.7754 16.5187 33.015C16.398 35.0725 16.0168 37.9195 15.8331 39.3215C15.6392 40.8017 15.3834 41.9348 14.7263 45.8291C14.4156 47.6705 14.1199 49.8959 13.6695 52.5385C13.5788 53.0704 13.5373 53.3856 14.3463 52.3192C15.1554 51.2529 16.8275 48.7971 18.159 46.6176C19.4906 44.4381 20.4312 42.6093 21.0463 41.8501C21.6614 41.0909 21.9227 41.4567 22.1095 41.9325C22.508 42.9472 22.5608 45.0382 22.5877 47.7513C22.6314 52.163 21.0312 54.6032 20.9521 54.7639C20.2502 56.1887 22.29 50.9758 23.6913 50.1208C23.9455 49.9656 24.1932 50.0669 24.4315 50.2237C25.0047 50.6007 25.3047 51.2259 25.463 51.8561C25.5665 52.2679 25.5169 52.9043 25.4385 53.3057C25.3224 53.9001 22.8473 54.0253 20.6663 54.4979C19.4334 54.7651 18.661 56.1312 18.2335 56.9782C18.2841 57.1382 18.4931 57.2427 18.7053 57.3749C18.9175 57.5071 19.1265 57.6638 19.3418 57.8253" stroke="#C8E1FF" stroke-width="11.495" stroke-linecap="round"/>
<path d="M27.3486 40.687C27.568 41.7869 27.9197 42.5774 28.3605 43.2185C28.7854 43.8364 29.1094 44.6052 29.5503 45.3329C29.995 46.067 30.1669 46.8525 30.3665 47.6238C30.5039 48.1547 30.4326 48.6609 30.4987 49.9941C30.7797 55.6612 30.0374 56.3704 29.8391 57.0763C29.6283 57.8267 29.157 58.4855 28.804 59.1914C28.4588 59.8818 27.9672 60.4684 27.4609 61.0209C26.7775 61.3963 26.2487 61.6171 25.8099 61.6832C25.5455 61.7057 25.1965 61.7057 24.8369 61.7057" stroke="#C8E1FF" stroke-width="11.495" stroke-linecap="round"/>
<path d="M24.7051 35.9282C25.1889 36.3671 25.715 37.3321 26.2894 38.3044C26.7717 39.1208 26.9947 39.8464 27.4573 40.4426C27.9231 41.0428 28.0522 41.8293 28.2736 42.5352C28.4992 43.2542 28.9776 43.9444 29.4402 44.5406C29.9183 45.1566 30.08 45.9273 30.3444 46.6332C30.6092 47.34 30.6088 48.1746 30.6319 52.0842C30.6407 53.5654 30.0827 54.3427 29.6418 55.0935C29.2719 55.7236 28.6312 56.4578 27.9901 57.1214C27.6609 57.2113 27.2194 57.2985 26.6919 57.4525C26.4262 57.5193 26.1645 57.5629 25.8948 57.6079" stroke="#C8E1FF" stroke-width="11.495" stroke-linecap="round"/>
<path d="M21.0576 37.0146L21.6277 37.2019" stroke="#0D0D0D" stroke-width="2.5" stroke-linecap="round"/>
<path d="M14.0928 38.2017L14.6628 38.0144" stroke="#0D0D0D" stroke-width="2.5" stroke-linecap="round"/>
<path d="M14.7285 45.1258C15.1869 45.0008 16.048 44.6655 17.1929 44.2239C18.1086 43.9906 19.0373 43.7804 20.1702 43.5282C20.7823 43.4218 21.4698 43.3593 22.1781 43.2949" stroke="#0D0D0D" stroke-width="2" stroke-linecap="round"/>
</svg>
