<svg width="37" height="50" viewBox="0 0 37 50" fill="none" xmlns="http://www.w3.org/2000/svg">
<path d="M16.3334 6.2002C15.8078 8.14771 13.7114 12.3436 12.4036 14.641C11.8244 15.6585 11.3744 16.5395 10.5313 17.8592C9.80379 18.9979 9.21154 20.5992 8.57741 22.0551C7.95995 23.4727 7.73269 24.9819 7.20464 26.2517C6.83845 27.1324 6.46601 28.6204 5.96408 30.3408C5.64328 31.4403 5.725 34.0988 5.90867 35.9894C6.03466 37.2862 6.83018 38.2852 7.72715 39.9192C8.32856 41.0148 9.72771 41.7686 10.92 42.4565C11.944 43.0474 13.1098 43.2506 15.8181 43.5134C19.743 43.8943 20.8143 43.4089 21.8712 43.2514C22.8866 43.1 23.7182 42.8294 24.7735 42.4344C26.1361 41.9243 26.7804 40.8787 27.5459 40.0609C28.3945 39.1544 28.5759 37.9242 28.9464 37.0787C29.2917 36.2908 29.4214 35.1818 29.5014 34.2287C29.5866 33.2131 29.8964 32.0658 29.9241 26.0427C29.9341 23.8752 29.4246 23.0407 28.8965 21.8009C28.4674 20.7935 27.8951 19.5067 27.2609 18.2645C26.69 17.1462 26.0996 16.2323 25.5193 15.2554C24.9898 14.364 24.1489 13.3854 23.4086 12.3523C22.6555 11.3011 21.9322 10.5322 21.192 9.79202C20.2412 8.84122 19.3988 8.20788 18.7108 7.49617C18.3869 7.16101 18.0767 6.83512 17.7086 6.59762C17.5184 6.47495 17.236 6.51687 17.0752 6.64749C16.2795 7.29428 16.6501 10.9756 16.5187 13.2152C16.398 15.2727 16.0168 18.1197 15.8331 19.5217C15.6392 21.0019 15.3834 22.135 14.7263 26.0293C14.4156 27.8707 14.1199 30.0961 13.6695 32.7387C13.5788 33.2706 13.5373 33.5858 14.3463 32.5194C15.1554 31.4531 16.8275 28.9973 18.159 26.8178C19.4906 24.6383 20.4312 22.8095 21.0463 22.0503C21.6614 21.2911 21.9227 21.6569 22.1095 22.1327C22.508 23.1474 22.5608 25.2384 22.5877 27.9515C22.6314 32.3631 21.0312 34.8034 20.9521 34.9641C20.2502 36.3889 22.29 31.176 23.6913 30.321C23.9455 30.1658 24.1932 30.2671 24.4315 30.4239C25.0047 30.8009 25.3047 31.4261 25.463 32.0563C25.5665 32.4681 25.5169 33.1045 25.4385 33.5059C25.3224 34.1003 22.8473 34.2255 20.6663 34.6981C19.4334 34.9653 18.661 36.3314 18.2335 37.1784C18.2841 37.3384 18.4931 37.4429 18.7053 37.5751C18.9175 37.7073 19.1265 37.864 19.3418 38.0255" stroke="#C8E1FF" stroke-width="11.495" stroke-linecap="round"/>
<path d="M27.3486 20.8872C27.568 21.9871 27.9197 22.7776 28.3605 23.4187C28.7854 24.0366 29.1094 24.8054 29.5503 25.5331C29.995 26.2672 30.1669 27.0527 30.3665 27.824C30.5039 28.3549 30.4326 28.8611 30.4987 30.1942C30.7797 35.8614 30.0374 36.5706 29.8391 37.2765C29.6283 38.0269 29.157 38.6857 28.804 39.3916C28.4588 40.082 27.9672 40.6685 27.4609 41.2211C26.7775 41.5965 26.2487 41.8173 25.8099 41.8834C25.5455 41.9059 25.1965 41.9059 24.8369 41.9059" stroke="#C8E1FF" stroke-width="11.495" stroke-linecap="round"/>
<path d="M24.7051 16.1284C25.1889 16.5673 25.715 17.5323 26.2894 18.5046C26.7717 19.321 26.9947 20.0466 27.4573 20.6428C27.9231 21.243 28.0522 22.0295 28.2736 22.7354C28.4992 23.4544 28.9776 24.1446 29.4402 24.7408C29.9183 25.3568 30.08 26.1275 30.3444 26.8334C30.6092 27.5402 30.6088 28.3748 30.6319 32.2844C30.6407 33.7656 30.0827 34.5429 29.6418 35.2937C29.2719 35.9238 28.6312 36.658 27.9901 37.3216C27.6609 37.4115 27.2194 37.4987 26.6919 37.6527C26.4262 37.7195 26.1645 37.7631 25.8948 37.808" stroke="#C8E1FF" stroke-width="11.495" stroke-linecap="round"/>
<path d="M21.0576 17.2148L21.6277 17.4021" stroke="#0D0D0D" stroke-width="2.5" stroke-linecap="round"/>
<path d="M14.0928 18.4019L14.6628 18.2146" stroke="#0D0D0D" stroke-width="2.5" stroke-linecap="round"/>
<path d="M14.7285 25.326C15.1869 25.2009 16.048 24.8657 17.1929 24.4241C18.1086 24.1908 19.0373 23.9806 20.1702 23.7284C20.7823 23.622 21.4698 23.5595 22.1781 23.4951" stroke="#0D0D0D" stroke-width="2" stroke-linecap="round"/>
<path d="M7.56701 1.36463C7.34995 1.9089 6.80074 3.11421 6.69057 4.01942C6.56163 5.07891 6.03448 6.01812 5.78619 7.08777C5.70544 7.43562 5.75823 7.93214 5.86676 8.23799C5.97529 8.54383 6.19234 8.65236 6.60261 8.70827C8.64278 8.98629 10.1914 7.9453 11.4814 7.58683C12.6359 7.266 13.7004 6.73835 14.7429 6.29931C16.2773 5.65314 17.5383 5.36696 18.58 5.01096C19.7068 4.62589 21.1526 4.48888 22.3308 4.62454C23.9621 4.81238 22.7509 8.37611 22.5314 9.28132C22.2799 10.3183 21.7643 10.9544 21.4913 11.3104C21.2311 11.6498 20.3436 11.5596 19.3586 11.4782C17.4894 11.3237 15.3612 8.82995 14.1748 7.61642C13.3346 6.75696 12.7237 5.42616 12.0092 4.46504C11.2872 3.49376 10.6946 2.57486 10.036 1.72392C9.87074 1.53071 9.70795 1.36792 9.51556 1.33832C9.32318 1.30872 9.10612 1.41725 8.38918 1.2002" stroke="#CDA8EE" stroke-width="2.4" stroke-linecap="round"/>
</svg>
