<svg width="37" height="58" viewBox="0 0 37 58" fill="none" xmlns="http://www.w3.org/2000/svg">
<path d="M16.1621 3.96094V15.8818" stroke="#62A565" stroke-width="1.6" stroke-linecap="round"/>
<path d="M16.6374 3.31553C16.3841 3.12527 15.4327 2.42827 14.1243 1.70832C13.1791 1.18821 12.2757 0.894674 11.1757 0.813883C10.4225 0.758562 9.40928 0.860252 8.38624 1.22644C8.01123 1.36067 7.87377 1.78385 7.77816 2.22844C7.65795 2.78738 7.90341 3.34517 8.22131 3.72713C8.70372 4.30675 9.33661 4.43035 10.4949 4.62157C13.6595 5.144 14.6583 4.39975 16.232 3.73335C17.8538 3.04664 18.1328 2.29823 18.6591 1.86703C19.2986 1.34312 20.4236 1.08589 22.4463 1.13131C22.8954 1.14139 23.7821 1.43678 23.959 1.70832C24.7185 2.87419 24.329 4.02114 24.1387 4.32327C23.6105 5.16199 21.4543 5.16273 19.6559 5.19619C18.8699 5.00497 18.3603 4.87781 17.9946 4.76642C17.8182 4.71814 17.6605 4.68659 17.5935 4.65408" stroke="#62A565" stroke-width="1.6" stroke-linecap="round"/>
<path d="M16.3334 14.7998C15.8078 16.7473 13.7114 20.9432 12.4036 23.2406C11.8244 24.2581 11.3744 25.1391 10.5313 26.4588C9.80379 27.5975 9.21154 29.1988 8.57741 30.6547C7.95995 32.0723 7.73269 33.5815 7.20464 34.8514C6.83845 35.732 6.46601 37.22 5.96408 38.9404C5.64328 40.0399 5.725 42.6984 5.90867 44.589C6.03466 45.8858 6.83018 46.8848 7.72715 48.5188C8.32856 49.6144 9.72771 50.3682 10.92 51.0561C11.944 51.647 13.1098 51.8502 15.8181 52.113C19.743 52.4939 20.8143 52.0085 21.8712 51.851C22.8866 51.6996 23.7182 51.429 24.7735 51.034C26.1361 50.5239 26.7804 49.4783 27.5459 48.6605C28.3945 47.754 28.5759 46.5238 28.9464 45.6783C29.2917 44.8904 29.4214 43.7814 29.5014 42.8283C29.5866 41.8127 29.8964 40.6654 29.9241 34.6423C29.9341 32.4748 29.4246 31.6403 28.8965 30.4006C28.4674 29.3931 27.8951 28.1063 27.2609 26.8641C26.69 25.7458 26.0996 24.8319 25.5193 23.855C24.9898 22.9636 24.1489 21.985 23.4086 20.9519C22.6555 19.9007 21.9322 19.1318 21.192 18.3916C20.2412 17.4408 19.3988 16.8075 18.7108 16.0958C18.3869 15.7606 18.0767 15.4347 17.7086 15.1972C17.5184 15.0746 17.236 15.1165 17.0752 15.2471C16.2795 15.8939 16.6501 19.5752 16.5187 21.8148C16.398 23.8723 16.0168 26.7193 15.8331 28.1213C15.6392 29.6015 15.3834 30.7346 14.7263 34.6289C14.4156 36.4703 14.1199 38.6957 13.6695 41.3383C13.5788 41.8702 13.5373 42.1854 14.3463 41.119C15.1554 40.0527 16.8275 37.5969 18.159 35.4174C19.4906 33.2379 20.4312 31.4092 21.0463 30.6499C21.6614 29.8907 21.9227 30.2565 22.1095 30.7323C22.508 31.747 22.5608 33.838 22.5877 36.5511C22.6314 40.9628 21.0312 43.403 20.9521 43.5637C20.2502 44.9885 22.29 39.7756 23.6913 38.9206C23.9455 38.7654 24.1932 38.8667 24.4315 39.0235C25.0047 39.4005 25.3047 40.0257 25.463 40.6559C25.5665 41.0677 25.5169 41.7041 25.4385 42.1055C25.3224 42.6999 22.8473 42.8251 20.6663 43.2977C19.4334 43.5649 18.661 44.931 18.2335 45.7781C18.2841 45.938 18.4931 46.0425 18.7053 46.1747C18.9175 46.3069 19.1265 46.4636 19.3418 46.6251" stroke="#C8E1FF" stroke-width="11.495" stroke-linecap="round"/>
<path d="M27.3486 29.4868C27.568 30.5867 27.9197 31.3772 28.3605 32.0183C28.7854 32.6362 29.1094 33.405 29.5503 34.1327C29.995 34.8668 30.1669 35.6523 30.3665 36.4236C30.5039 36.9546 30.4326 37.4607 30.4987 38.7939C30.7797 44.461 30.0374 45.1702 29.8391 45.8761C29.6283 46.6265 29.157 47.2853 28.804 47.9912C28.4588 48.6816 27.9672 49.2682 27.4609 49.8207C26.7775 50.1962 26.2487 50.4169 25.8099 50.483C25.5455 50.5055 25.1965 50.5055 24.8369 50.5055" stroke="#C8E1FF" stroke-width="11.495" stroke-linecap="round"/>
<path d="M24.7051 24.728C25.1889 25.1669 25.715 26.1319 26.2894 27.1042C26.7717 27.9206 26.9947 28.6462 27.4573 29.2424C27.9231 29.8426 28.0522 30.6291 28.2736 31.335C28.4992 32.054 28.9776 32.7442 29.4402 33.3404C29.9183 33.9564 30.08 34.7271 30.3444 35.433C30.6092 36.1398 30.6088 36.9744 30.6319 40.884C30.6407 42.3652 30.0827 43.1425 29.6418 43.8934C29.2719 44.5235 28.6312 45.2576 27.9901 45.9212C27.6609 46.0111 27.2194 46.0983 26.6919 46.2523C26.4262 46.3191 26.1645 46.3627 25.8948 46.4077" stroke="#C8E1FF" stroke-width="11.495" stroke-linecap="round"/>
<path d="M21.0576 25.8145L21.6277 26.0017" stroke="#0D0D0D" stroke-width="2.5" stroke-linecap="round"/>
<path d="M14.0928 27.0015L14.6628 26.8142" stroke="#0D0D0D" stroke-width="2.5" stroke-linecap="round"/>
<path d="M14.7285 33.9256C15.1869 33.8006 16.048 33.4653 17.1929 33.0237C18.1086 32.7904 19.0373 32.5802 20.1702 32.328C20.7823 32.2216 21.4698 32.1591 22.1781 32.0947" stroke="#0D0D0D" stroke-width="2" stroke-linecap="round"/>
</svg>
