<svg width="37" height="60" viewBox="0 0 37 60" fill="none" xmlns="http://www.w3.org/2000/svg">
<path d="M16.3334 16.2402C15.8078 18.1878 13.7114 22.3836 12.4036 24.6811C11.8244 25.6985 11.3744 26.5795 10.5313 27.8992C9.80379 29.0379 9.21154 30.6392 8.57741 32.0951C7.95995 33.5127 7.73269 35.0219 7.20464 36.2918C6.83845 37.1724 6.46601 38.6605 5.96408 40.3808C5.64328 41.4803 5.725 44.1389 5.90867 46.0294C6.03466 47.3262 6.83018 48.3252 7.72715 49.9593C8.32856 51.0548 9.72771 51.8086 10.92 52.4966C11.944 53.0875 13.1098 53.2906 15.8181 53.5535C19.743 53.9344 20.8143 53.449 21.8712 53.2914C22.8866 53.1401 23.7182 52.8695 24.7735 52.4744C26.1361 51.9643 26.7804 50.9188 27.5459 50.101C28.3945 49.1945 28.5759 47.9642 28.9464 47.1187C29.2917 46.3308 29.4214 45.2219 29.5014 44.2687C29.5866 43.2532 29.8964 42.1058 29.9241 36.0828C29.9341 33.9153 29.4246 33.0807 28.8965 31.841C28.4674 30.8335 27.8951 29.5467 27.2609 28.3046C26.69 27.1862 26.0996 26.2723 25.5193 25.2954C24.9898 24.4041 24.1489 23.4255 23.4086 22.3923C22.6555 21.3412 21.9322 20.5723 21.192 19.8321C20.2412 18.8813 19.3988 18.2479 18.7108 17.5362C18.3869 17.2011 18.0767 16.8752 17.7086 16.6377C17.5184 16.515 17.236 16.5569 17.0752 16.6875C16.2795 17.3343 16.6501 21.0156 16.5187 23.2553C16.398 25.3127 16.0168 28.1597 15.8331 29.5617C15.6392 31.0419 15.3834 32.1751 14.7263 36.0693C14.4156 37.9107 14.1199 40.1362 13.6695 42.7788C13.5788 43.3106 13.5373 43.6259 14.3463 42.5595C15.1554 41.4931 16.8275 39.0373 18.159 36.8578C19.4906 34.6784 20.4312 32.8496 21.0463 32.0904C21.6614 31.3311 21.9227 31.6969 22.1095 32.1727C22.508 33.1875 22.5608 35.2784 22.5877 37.9915C22.6314 42.4032 21.0312 44.8435 20.9521 45.0042C20.2502 46.429 22.29 41.216 23.6913 40.361C23.9455 40.2059 24.1932 40.3072 24.4315 40.4639C25.0047 40.841 25.3047 41.4662 25.463 42.0963C25.5665 42.5081 25.5169 43.1445 25.4385 43.5459C25.3224 44.1403 22.8473 44.2655 20.6663 44.7382C19.4334 45.0053 18.661 46.3714 18.2335 47.2185C18.2841 47.3784 18.4931 47.4829 18.7053 47.6151C18.9175 47.7473 19.1265 47.9041 19.3418 48.0656" stroke="#C8E1FF" stroke-width="11.495" stroke-linecap="round"/>
<path d="M27.3486 30.9272C27.568 32.0271 27.9197 32.8176 28.3605 33.4587C28.7854 34.0767 29.1094 34.8454 29.5503 35.5732C29.995 36.3072 30.1669 37.0927 30.3665 37.8641C30.5039 38.395 30.4326 38.9011 30.4987 40.2343C30.7797 45.9014 30.0374 46.6106 29.8391 47.3165C29.6283 48.0669 29.157 48.7257 28.804 49.4316C28.4588 50.1221 27.9672 50.7086 27.4609 51.2612C26.7775 51.6366 26.2487 51.8573 25.8099 51.9234C25.5455 51.9459 25.1965 51.9459 24.8369 51.9459" stroke="#C8E1FF" stroke-width="11.495" stroke-linecap="round"/>
<path d="M24.7051 26.1685C25.1889 26.6073 25.715 27.5723 26.2894 28.5446C26.7717 29.361 26.9947 30.0867 27.4573 30.6828C27.9231 31.283 28.0522 32.0695 28.2736 32.7755C28.4992 33.4945 28.9776 34.1846 29.4402 34.7808C29.9183 35.3968 30.08 36.1675 30.3444 36.8734C30.6092 37.5802 30.6088 38.4148 30.6319 42.3244C30.6407 43.8056 30.0827 44.5829 29.6418 45.3338C29.2719 45.9639 28.6312 46.698 27.9901 47.3616C27.6609 47.4515 27.2194 47.5388 26.6919 47.6928C26.4262 47.7595 26.1645 47.8031 25.8948 47.8481" stroke="#C8E1FF" stroke-width="11.495" stroke-linecap="round"/>
<path d="M21.0576 27.2549L21.6277 27.4421" stroke="#0D0D0D" stroke-width="2.5" stroke-linecap="round"/>
<path d="M14.0928 28.4419L14.6628 28.2547" stroke="#0D0D0D" stroke-width="2.5" stroke-linecap="round"/>
<path d="M14.7285 35.366C15.1869 35.241 16.048 34.9058 17.1929 34.4641C18.1086 34.2309 19.0373 34.0206 20.1702 33.7684C20.7823 33.6621 21.4698 33.5996 22.1781 33.5352" stroke="#0D0D0D" stroke-width="2" stroke-linecap="round"/>
<path d="M15.9629 6.32471V13.1985" stroke="#FF6868" stroke-width="2.4" stroke-linecap="round"/>
<path d="M14.9297 6.05127C14.9749 6.11938 15.1272 6.2716 15.2794 6.40485C15.5618 6.65208 15.6757 6.73649 15.8167 6.82426C15.9346 6.8976 16.1017 7.00299 16.3308 7.12127C16.4815 7.19913 16.6128 7.26995 16.8145 7.34995C16.8644 7.36915 16.9022 7.38423 16.9367 7.39577C16.9712 7.40731 17.0014 7.41486 17.0553 7.42263" stroke="#FFF06C" stroke-width="0.48" stroke-linecap="round"/>
<path d="M14.9297 7.61328C14.9749 7.68139 15.1272 7.83361 15.2794 7.96686C15.5618 8.21409 15.6757 8.2985 15.8167 8.38627C15.9346 8.45961 16.1017 8.565 16.3308 8.68328C16.4815 8.76114 16.6128 8.83196 16.8145 8.91196C16.8644 8.93116 16.9022 8.94624 16.9367 8.95778C16.9712 8.96933 17.0014 8.97687 17.0553 8.98464" stroke="#FFF06C" stroke-width="0.48" stroke-linecap="round"/>
<path d="M14.9297 9.5332C14.9749 9.60131 15.1272 9.75353 15.2794 9.88679C15.5618 10.134 15.6757 10.2184 15.8167 10.3062C15.9346 10.3795 16.1017 10.4849 16.3308 10.6032C16.4815 10.6811 16.6128 10.7519 16.8145 10.8319C16.8644 10.8511 16.9022 10.8662 16.9367 10.8777C16.9712 10.8892 17.0014 10.8968 17.0553 10.9046" stroke="#FFF06C" stroke-width="0.48" stroke-linecap="round"/>
<path d="M14.9297 11.4531C14.9749 11.5212 15.1272 11.6735 15.2794 11.8067C15.5618 12.0539 15.6757 12.1383 15.8167 12.2261C15.9346 12.2995 16.1017 12.4048 16.3308 12.5231C16.4815 12.601 16.6128 12.6718 16.8145 12.7518C16.8644 12.771 16.9022 12.7861 16.9367 12.7976C16.9712 12.8092 17.0014 12.8167 17.0553 12.8245" stroke="#FFF06C" stroke-width="0.48" stroke-linecap="round"/>
<path d="M15.956 0.394677C15.7849 0.625568 15.6477 0.848736 15.2112 1.61001C15.0246 1.93563 14.859 2.50178 14.7935 2.805C14.687 3.29783 14.789 4.0148 14.8489 4.18636C14.9376 4.43992 15.0628 4.80297 15.1877 4.98457C15.2444 5.06702 15.3123 5.13064 15.3806 5.18199C15.5758 5.32869 15.835 5.27659 16.0793 5.30671C16.4085 5.34729 16.5815 5.18289 16.7021 5.0798C16.8133 4.98475 16.8822 4.84827 16.9853 4.65972C17.071 4.50285 17.1571 4.32523 17.1616 3.42702C17.1632 3.09657 17.0634 2.75661 16.9474 2.4548C16.864 2.23762 16.7632 1.95814 16.677 1.69534C16.6195 1.52003 16.4291 1.10151 16.3124 0.77306C16.2654 0.644873 16.2307 0.540882 16.2093 0.463918C16.1964 0.420932 16.1795 0.369966 16.1362 0.240234" stroke="#FF0004" stroke-width="0.48" stroke-linecap="round"/>
<path d="M15.9427 2.17457C15.914 2.19834 15.866 2.29418 15.7917 2.41191C15.7348 2.50203 15.6741 2.65877 15.6115 2.80807C15.4897 3.09843 15.4815 3.45195 15.4696 3.57192C15.4571 3.69703 15.4288 3.79291 15.4215 3.87477C15.3999 4.11751 15.4285 4.55179 15.4646 4.66247C15.4909 4.74297 15.5245 4.81148 15.587 4.89787C15.6628 5.00271 15.7885 5.01352 15.9085 5.02548C16.1287 5.04743 16.2352 4.98498 16.3171 4.94881C16.412 4.90687 16.4897 4.61232 16.5215 4.43737C16.5549 4.25365 16.5145 3.92376 16.4856 3.79147C16.4502 3.62908 16.3324 3.37672 16.26 3.21028C16.1995 3.07135 16.1782 2.95333 16.1446 2.8307C16.1171 2.73021 16.0822 2.59796 16.0604 2.48008C16.0532 2.32848 16.0388 2.27083 16.0316 2.23012C16.0292 2.20843 16.0292 2.18465 16.0292 2.16016" stroke="#FF7700" stroke-width="0.48" stroke-linecap="round"/>
<path d="M15.9015 2.83691C15.9015 2.9686 15.9015 3.10028 15.8986 3.40455C15.8956 3.70882 15.8896 4.18168 15.8865 4.41181C15.8834 4.64193 15.8834 4.615 15.8954 4.54875C15.9074 4.4825 15.9313 4.37775 15.9511 4.26992C16.0162 3.91583 16.0193 3.81075 16.0345 3.73643C16.0495 3.66338 16.131 3.99649 16.1494 4.14091C16.1654 4.26655 16.1705 4.33894 16.1811 4.4041C16.196 4.49528 16.1918 4.56875 16.1797 4.62185C16.1737 4.6325 16.1647 4.64148 16.1571 4.65209C16.1495 4.6627 16.1435 4.67467 16.1192 4.70514" stroke="#FF7700" stroke-width="0.48" stroke-linecap="round"/>
</svg>
