<svg width="32" height="38" viewBox="0 0 32 38" fill="none" xmlns="http://www.w3.org/2000/svg">
<path d="M24.8153 11.3279C27.8998 10.1552 24.6795 11.259 21.5998 11.0552C18.52 10.8513 11.8089 10.6959 8.67394 10.533C5.53893 10.3701 5.56332 10.4854 5.64019 10.6324C5.71706 10.7794 5.84567 10.9545 8.29569 13.2247C10.7457 15.4949 15.5132 19.8547 18.0247 22.0552C20.5361 24.2557 23.5411 25.5514 23.3999 23.6552C23.2586 21.7589 19.9676 16.6734 19.5603 14.1049C19.153 11.5364 18.7473 10.2103 18.1812 8.68228C17.6152 7.15425 16.9012 5.46447 16.4935 4.4964C16.0858 3.52834 16.006 3.33319 15.9194 3.30251C15.8328 3.27184 15.7419 3.41154 14.5252 6.86076C13.3085 10.31 10.9688 17.0645 9.74459 20.6372C8.52042 24.2099 8.48272 24.3962 8.57085 24.4766C8.79776 24.6838 9.79866 24.2635 12.2198 23.0803C13.9849 22.2178 16.6501 20.4603 18.6859 18.9072C20.7217 17.3542 21.999 15.966 22.7868 15.0669C24.6168 12.9782 26.9283 10.8224 26.9997 10.6323C27.0444 10.5443 25.247 11.1349 25.31 11.1882C25.3731 11.2414 25.4351 11.421 25.4991 11.6061" stroke="#FFEC6F" stroke-width="3.6" stroke-linecap="round"/>
<path d="M16.5635 22.9727V36.1503" stroke="#FFEC6F" stroke-width="3.6" stroke-linecap="round"/>
</svg>
