<svg width="6" height="26" viewBox="0 0 6 26" fill="none" xmlns="http://www.w3.org/2000/svg">
<path d="M2.62109 11.3838V23.7566" stroke="#FF6868" stroke-width="4.32" stroke-linecap="round"/>
<path d="M0.760742 10.8921C0.842202 11.0147 1.1162 11.2887 1.3902 11.5285C1.89857 11.9736 2.10358 12.1255 2.35741 12.2835C2.56954 12.4155 2.87044 12.6052 3.28267 12.8181C3.55402 12.9582 3.79035 13.0857 4.15341 13.2297C4.24331 13.2643 4.31119 13.2914 4.37331 13.3122C4.43543 13.333 4.48974 13.3465 4.58683 13.3605" stroke="#FFF06C" stroke-width="0.864" stroke-linecap="round"/>
<path d="M0.760742 13.7036C0.842202 13.8262 1.1162 14.1002 1.3902 14.3401C1.89857 14.7851 2.10358 14.937 2.35741 15.095C2.56954 15.227 2.87044 15.4167 3.28267 15.6296C3.55402 15.7698 3.79035 15.8972 4.15341 16.0412C4.24331 16.0758 4.31119 16.1029 4.37331 16.1237C4.43543 16.1445 4.48974 16.1581 4.58683 16.1721" stroke="#FFF06C" stroke-width="0.864" stroke-linecap="round"/>
<path d="M0.760742 17.1597C0.842202 17.2823 1.1162 17.5563 1.3902 17.7961C1.89857 18.2411 2.10358 18.3931 2.35741 18.551C2.56954 18.6831 2.87044 18.8728 3.28267 19.0857C3.55402 19.2258 3.79035 19.3533 4.15341 19.4973C4.24331 19.5318 4.31119 19.559 4.37331 19.5798C4.43543 19.6005 4.48974 19.6141 4.58683 19.6281" stroke="#FFF06C" stroke-width="0.864" stroke-linecap="round"/>
<path d="M0.760742 20.6152C0.842202 20.7378 1.1162 21.0118 1.3902 21.2517C1.89857 21.6967 2.10358 21.8486 2.35741 22.0066C2.56954 22.1386 2.87044 22.3283 3.28267 22.5412C3.55402 22.6814 3.79035 22.8089 4.15341 22.9529C4.24331 22.9874 4.31119 23.0146 4.37331 23.0353C4.43543 23.0561 4.48974 23.0697 4.58683 23.0837" stroke="#FFF06C" stroke-width="0.864" stroke-linecap="round"/>
<path d="M2.60777 0.710126C2.29965 1.12573 2.0527 1.52743 1.26713 2.89772C0.931114 3.48384 0.63307 4.50291 0.515154 5.04871C0.323505 5.9358 0.507046 7.22634 0.614999 7.53515C0.774557 7.99157 1.00002 8.64505 1.22474 8.97192C1.32677 9.12034 1.44899 9.23486 1.572 9.32729C1.9234 9.59134 2.39 9.49757 2.8297 9.55178C3.42226 9.62483 3.73365 9.32892 3.95072 9.14335C4.15086 8.97226 4.27481 8.72659 4.46037 8.38721C4.61476 8.10484 4.76964 7.78511 4.77775 6.16834C4.78074 5.57353 4.60099 4.9616 4.39226 4.41836C4.24206 4.02742 4.06076 3.52437 3.90554 3.05131C3.802 2.73575 3.45936 1.98242 3.24924 1.39121C3.16468 1.16048 3.10213 0.973294 3.06368 0.834759C3.04051 0.757384 3.00993 0.665645 2.93209 0.432129" stroke="#FF0004" stroke-width="0.864" stroke-linecap="round"/>
<path d="M2.58337 3.91363C2.53175 3.95643 2.44538 4.12893 2.31153 4.34086C2.20908 4.50307 2.09986 4.78521 1.98715 5.05394C1.76795 5.57658 1.7533 6.21292 1.73177 6.42887C1.70932 6.65407 1.65837 6.82666 1.64527 6.97399C1.60642 7.41093 1.65785 8.19264 1.72283 8.39185C1.77009 8.53676 1.83061 8.66007 1.94305 8.81558C2.07951 9.00429 2.30582 9.02374 2.52177 9.04527C2.91813 9.08479 3.10995 8.97238 3.25729 8.90727C3.42812 8.83178 3.56804 8.30158 3.62524 7.98668C3.6853 7.65599 3.61266 7.06219 3.56065 6.82406C3.49681 6.53177 3.28478 6.07752 3.15443 5.77792C3.04564 5.52785 3.00723 5.31541 2.94679 5.09467C2.89727 4.9138 2.83447 4.67574 2.7953 4.46356C2.78233 4.19067 2.75639 4.08691 2.74342 4.01363C2.73901 3.97459 2.73901 3.93179 2.73901 3.8877" stroke="#FF7700" stroke-width="0.864" stroke-linecap="round"/>
<path d="M2.5097 5.10596C2.5097 5.34299 2.5097 5.58002 2.50431 6.1277C2.49892 6.67538 2.48815 7.52653 2.4826 7.94076C2.47705 8.35499 2.47705 8.30651 2.4986 8.18726C2.52015 8.06801 2.56324 7.87946 2.59891 7.68537C2.71604 7.048 2.72159 6.85887 2.74901 6.72509C2.77597 6.59359 2.9227 7.19319 2.95584 7.45315C2.98467 7.6793 2.99388 7.8096 3.01298 7.92689C3.03971 8.09102 3.03208 8.22325 3.01045 8.31883C2.99959 8.33801 2.98343 8.35418 2.96972 8.37328C2.95601 8.39237 2.94523 8.41392 2.90148 8.46877" stroke="#FF7700" stroke-width="0.864" stroke-linecap="round"/>
</svg>
