<svg width="33" height="31" viewBox="0 0 33 31" fill="none" xmlns="http://www.w3.org/2000/svg">
<path d="M16.5879 7.12988V28.5875" stroke="#62A565" stroke-width="2.88" stroke-linecap="round"/>
<path d="M17.4441 5.96825C16.988 5.62578 15.2756 4.37117 12.9204 3.07526C11.219 2.13907 9.5929 1.61071 7.6129 1.46528C6.2571 1.36571 4.43337 1.54875 2.59191 2.20788C1.91689 2.4495 1.66947 3.21122 1.49736 4.01148C1.28099 5.01758 1.72281 6.0216 2.29504 6.70914C3.16337 7.75244 4.30258 7.97492 6.38756 8.31912C12.0838 9.25949 13.8816 7.91985 16.7144 6.72032C19.6334 5.48424 20.1357 4.13711 21.0831 3.36095C22.2342 2.41792 24.2592 1.9549 27.8999 2.03665C28.7085 2.0548 30.3045 2.5865 30.6229 3.07526C31.9899 5.17384 31.2889 7.23834 30.9464 7.78217C29.9956 9.29188 26.1144 9.2932 22.8772 9.35344C21.4626 9.00924 20.5453 8.78035 19.887 8.57985C19.5695 8.49294 19.2855 8.43615 19.1651 8.37764" stroke="#62A565" stroke-width="2.88" stroke-linecap="round"/>
</svg>
