<svg width="50" height="22" viewBox="0 0 50 22" fill="none" xmlns="http://www.w3.org/2000/svg">
<path d="M3.9875 15.6657C3.60645 13.988 3.28551 11.6838 2.43094 8.444C2.86436 7.44388 1.62398 7.34513 4.36876 7.00295C12.2764 6.37792 19.0317 5.40735 19.9696 5.79185C20.8171 6.2772 22.1015 6.46783 22.2555 7.81554C22.624 11.0398 23.9597 15.1086 21.699 16.3531C20.2392 17.1567 18.6981 17.4749 15.4355 18.001C10.9045 18.7316 6.41752 19.4499 5.33685 18.2565C4.66876 17.5186 4.19472 16.578 3.9875 15.6657Z" stroke="#FF0004" stroke-width="4.608" stroke-linecap="round"/>
<path d="M24.1084 11.6152L29.3234 11.3295" stroke="#FF0004" stroke-width="4.608" stroke-linecap="round"/>
<path d="M30.9857 4.55451C30.9804 9.76221 31.66 15.1649 32.6565 16.5661C34.4043 19.0239 39.8623 16.4707 42.584 15.7868C43.9805 15.436 45.0089 14.8316 45.6261 13.7386C48.3511 8.91277 45.2573 3.29312 44.249 2.52599C39.8849 2.0328 33.3975 2.48414 32.1046 2.70028C31.4757 2.78414 31.5057 3.22417 30.9146 3.25655" stroke="#FF0004" stroke-width="4.608" stroke-linecap="round"/>
</svg>
