<svg width="51" height="26" viewBox="0 0 51 26" fill="none" xmlns="http://www.w3.org/2000/svg">
<path d="M3.14216 8.98043C5.83559 6.9025 11.2901 4.58272 13.4126 4.36938C16.9945 4.00934 16.3728 4.46251 17.0491 4.55208C18.0586 4.91399 19.4433 5.24128 21.0512 6.8853C22.0444 8.59108 24.5476 10.4329 23.4665 15.6089C22.9075 18.2847 22.0397 20.7438 20.1716 21.7987C18.5111 22.7364 16.7218 24.5357 11.2644 23.9251C8.07919 23.5687 3.17994 22.7805 2.48953 20.5286C1.49909 17.298 0.473256 11.0394 3.14216 8.98043Z" stroke="#863F00" stroke-width="2.88" stroke-linecap="round"/>
<path d="M25.6523 11.7197L28.7106 11.4123" stroke="#863F00" stroke-width="2.88" stroke-linecap="round"/>
<path d="M32.4486 17.4122C31.0517 15.2851 29.8319 13.3534 29.6582 11.6255C29.585 10.8976 29.9286 9.7363 30.0334 9.21142C30.4105 8.35333 31.6731 4.60724 35.0918 3.09378C39.8468 0.98872 43.8518 1.01351 45.8416 2.48898C47.0633 3.39489 48.4541 4.33369 48.7182 6.07524C49.1716 9.0648 49.302 11.9848 48.4287 13.506C47.3325 15.4157 46.4834 17.4089 44.565 18.1096C42.4181 18.8938 38.1233 20.6697 35.2154 19.3522C34.1942 18.8895 33.1065 18.4138 32.4486 17.4122Z" stroke="#863F00" stroke-width="2.88" stroke-linecap="round"/>
</svg>
