<svg width="33" height="25" viewBox="0 0 33 25" fill="none" xmlns="http://www.w3.org/2000/svg">
<path d="M15.4179 9.33035C9.96149 6.47224 6.24124 5.25971 4.53858 6.10809C1.1474 7.79781 1.50924 10.8972 1.44231 12.338C1.41148 13.0017 1.76513 13.5191 2.15881 13.8517C4.98922 16.2434 13.418 12.8892 17.1126 10.3244C20.7411 7.80551 22.7482 3.96845 26.3621 1.72449C27.1259 1.25027 27.9998 1.4568 28.6612 1.71662C31.4305 2.80458 31.2949 6.56672 31.4917 8.26741C31.5979 9.18492 31.5587 10.2279 30.1296 10.7633C22.7394 13.5321 19.6302 10.6452 16.1521 10.7712C14.5006 12.6057 13.4573 14.9599 11.7488 20.9852C11.4811 22.4438 11.4811 23.3531 11.4811 23.1091" stroke="#FF0000" stroke-width="2.88" stroke-linecap="round"/>
<path d="M19.3545 10.9048C21.0434 12.7236 22.7322 14.5424 23.7971 15.7392C24.862 16.9359 25.2518 17.4556 25.6474 17.9182C26.0431 18.3807 26.4328 18.7705 27.228 19.5657" stroke="#FF0000" stroke-width="2.88" stroke-linecap="round"/>
</svg>
