<svg width="22" height="21" viewBox="0 0 22 21" fill="none" xmlns="http://www.w3.org/2000/svg">
<path d="M7.19482 9.61808C7.06293 9.61808 6.59933 9.61808 5.83497 9.51916C5.0824 9.42177 4.33523 8.55697 3.56987 7.72567C2.50769 6.57198 2.79853 4.76017 3.0623 3.79698C3.4052 2.54489 4.66095 2.09242 5.29142 1.89258C6.08366 1.64147 6.8591 1.95653 7.35768 2.25528C8.48922 2.93331 9.18914 4.68223 9.55883 5.98214C9.5928 7.00828 9.52685 7.88354 9.32802 8.4151C9.19514 8.68287 8.99731 8.94665 8.39381 9.41825" stroke="#FCA8A8" stroke-width="3.6" stroke-linecap="round"/>
<path d="M7.99399 9.61799C5.75187 10.0137 4.06928 10.2175 3.13807 10.3823C2.32007 10.5272 2.06697 11.5464 1.86714 12.4416C1.74306 12.9975 1.7992 13.7985 1.96406 14.338C2.12892 14.8776 2.45865 15.1413 2.82634 15.3102C3.55211 15.6435 4.5249 15.6129 5.42314 15.514C6.72004 15.3712 7.59033 13.8864 8.65643 11.7912C9.56928 9.99712 10.388 7.89144 11.4531 6.85731C12.5994 5.74436 16.4229 5.82119 18.7479 6.31777C19.4419 6.46599 19.3844 7.87946 19.2525 9.0105C18.9518 11.5889 13.3295 11.3485 10.9005 11.5813C9.34663 11.7303 9.46074 13.9424 9.29289 15.1084C9.05853 16.7363 10.8516 17.871 12.1515 18.5425C13.0652 19.0144 14.0529 18.5445 14.6504 18.3456C15.4103 18.0928 16.1831 17.4154 16.8156 16.684C17.2549 16.176 17.1862 15.4171 17.0544 14.6857C16.9225 14.35 16.6587 14.0862 16.3909 13.8514C16.1231 13.6166 15.8594 13.4188 15.1879 13.0151" stroke="#FCA8A8" stroke-width="3.6" stroke-linecap="round"/>
</svg>
