<svg width="36" height="23" viewBox="0 0 36 23" fill="none" xmlns="http://www.w3.org/2000/svg">
<path d="M5.43605 2.45662C5.04535 3.43632 4.05677 5.60587 3.85846 7.23525C3.62636 9.14234 2.6775 10.8329 2.23056 12.7583C2.08522 13.3844 2.18025 14.2781 2.3756 14.8287C2.57095 15.3792 2.96164 15.5745 3.70012 15.6752C7.37243 16.1756 10.1599 14.3018 12.4819 13.6566C14.5601 13.0791 16.4762 12.1293 18.3527 11.339C21.1145 10.1759 23.3844 9.66083 25.2595 9.02002C27.2876 8.3269 29.8901 8.08028 32.0108 8.32447C34.9473 8.66258 32.767 15.0773 32.3719 16.7067C31.9192 18.5733 30.9911 19.7183 30.4998 20.3591C30.0314 20.9699 28.4338 20.8075 26.6609 20.661C23.2964 20.383 19.4656 15.8942 17.3301 13.7099C15.8176 12.1628 14.718 9.76737 13.432 8.03737C12.1324 6.28905 11.0656 4.63505 9.88022 3.10334C9.58276 2.75557 9.28974 2.46255 8.94344 2.40927C8.59715 2.35599 8.20645 2.55133 6.91596 2.16064" stroke="#CDA8EE" stroke-width="4.32" stroke-linecap="round"/>
</svg>
