<svg width="18" height="18" viewBox="0 0 18 18" fill="none" xmlns="http://www.w3.org/2000/svg">
<path d="M7.94262 6.50035C7.45546 5.87194 6.29368 4.58855 5.45566 3.67222C5.15622 3.34481 4.75482 3.20187 4.36485 3.1048C3.93006 2.99657 3.41211 3.31382 2.95942 3.70647C2.29741 4.28068 1.6541 5.13327 1.82906 7.92204C1.9386 9.66803 2.72975 10.5365 3.24311 11.1718C3.82001 11.8857 4.4135 12.6008 5.26813 13.1611C6.22978 13.7916 6.89284 14.3871 7.65483 14.7456C8.59285 15.1869 10.2574 15.4795 11.9922 15.1559C13.0754 14.9538 13.8972 13.4313 14.4962 12.2712C15.7361 9.86956 15.5892 6.09579 15.4968 5.32371C15.403 4.53912 14.9873 3.74128 14.4015 2.93023C13.9289 2.27586 13.0298 1.97267 11.7688 1.81017C10.7737 1.68194 10.3869 2.96233 9.95191 3.76091C9.41233 4.64307 9.11965 5.45896 8.8378 6.18366C8.76707 6.36551 8.6974 6.54465 8.60788 6.86937" stroke="#FFA3A3" stroke-width="3.6" stroke-linecap="round"/>
</svg>
