<svg width="70" height="57" viewBox="0 0 70 57" fill="none" xmlns="http://www.w3.org/2000/svg">
<path d="M15.181 38.8293C14.7649 32.2489 15.0395 29.3425 16.2826 25.6373C18.528 18.9445 20.4487 18.3079 21.3828 17.301C22.9362 15.6265 25.0173 15.1165 29.2718 14.3863C35.5443 13.3097 37.1546 14.7629 38.4777 15.387C39.7664 15.9948 41.1032 18.4952 43.813 22.7944C45.1433 24.905 45.622 26.5464 46.1088 28.9722C46.1795 30.1498 46.2482 30.9903 46.3522 32.5391C46.3875 33.8134 46.3875 36.079 46.3875 38.4132" stroke="#E0D0FF" stroke-width="7.2" stroke-linecap="round"/>
<path d="M15.1807 40.0777C15.8714 41.3218 16.8409 42.5701 18.2587 43.1276C21.0716 44.2338 22.6619 42.3703 23.88 41.7098C24.9168 41.1476 25.3041 40.2192 25.6151 39.9061C26.2703 39.2464 27.2389 41.6672 28.664 42.6751C29.7578 43.4488 32.2943 43.1983 34.2458 42.5773C35.6623 42.1266 36.1223 40.5687 36.6757 39.698C37.2843 38.7406 38.6147 41.1138 39.76 41.9126C41.6944 43.262 45.4094 41.8169 46.5568 41.0857C46.8096 40.9245 47.0072 40.706 47.1819 40.4626C49.3469 37.447 47.4982 30.2372 47.3588 28.8485C47.2205 27.4714 46.666 26.4217 46.3196 25.2421C45.8725 23.7197 45.2804 22.6769 44.5523 21.566C43.8553 20.5026 42.9919 19.5563 42.2295 18.6523C41.4671 17.7486 40.3581 17.1971 39.1452 16.3982C38.0682 15.6888 36.4802 15.5286 34.8824 15.3559C33.5127 15.2078 32.2444 15.5265 31.3457 16.1132C29.2666 17.4703 28.5704 18.9197 27.3211 19.9287C25.8156 21.1446 23.9268 23.2886 22.122 24.8499C20.2474 26.4717 18.9296 29.3177 17.854 32.7837C17.3696 34.3447 17.2611 36.1831 17.5357 37.9161C17.7124 39.0311 20.1612 38.8294 22.1709 38.7265C23.961 38.6347 24.7465 36.412 25.6827 34.9182C27.3774 32.2142 27.7257 29.3468 28.3207 26.9782C28.7788 25.1547 29.5315 22.8954 30.1556 20.2969C30.3988 19.2844 30.3679 18.8656 29.9216 19.5802C28.3875 22.0368 26.6335 25.5687 24.9702 28.0632C23.567 30.1675 23.0905 31.6811 22.6026 32.8263C22.3121 33.5082 21.9088 34.317 21.7007 34.6332C20.4647 36.512 22.9365 29.351 24.3304 27.4599C24.5376 27.1788 24.8838 27.1124 25.0939 27.179C26.3045 27.5625 26.4109 31.937 27.138 35.8908C27.3758 37.1838 27.6591 36.9612 28.2458 35.9283C29.8634 33.0802 31.0586 30.7199 31.5433 30.4734C32.4204 30.0273 32.0322 33.6138 32.3411 34.6654C32.4814 35.1429 33.268 32.0098 33.5863 32.7306C33.9046 33.4515 33.9046 37.2275 33.8703 36.9414C33.3044 32.2256 33.7652 27.1145 33.9379 26.5237C34.0198 26.2434 34.5266 28.4127 34.873 30.4255C34.9255 30.7302 35.3588 27.0729 35.7395 22.6301C35.7779 22.1823 36.2617 25.9037 36.4001 30.0978C36.4593 31.8935 36.6092 27.5722 36.6435 21.049C36.6536 19.1253 36.7465 20.0181 36.6102 23.4301C36.4739 26.842 36.1307 32.7462 36.2628 34.861C36.4251 37.4603 38.8227 30.5223 39.7922 28.8184C40.2797 27.9617 41.182 33.8031 41.8061 37.9723C42.3169 41.3847 42.4344 31.5583 42.4344 30.1353C42.4344 28.3704 43.2665 35.7025 43.2665 35.6089C43.2665 29.6157 42.8505 26.7005 42.6778 25.3118C42.6346 24.9642 42.6424 24.6201 42.5394 24.5462C41.7532 23.9824 39.4011 27.2997 36.9982 29.8399C34.8311 32.1308 33.8463 34.5146 32.6251 36.7074C32.1344 37.5886 31.6868 38.4092 31.4788 38.5184C31.2036 38.6629 31.4081 37.1859 31.2021 36.8957C30.8279 36.3684 30.0225 37.9244 29.8145 38.2729C29.2791 39.1696 29.3984 36.2663 29.053 35.7816C28.8814 35.5408 28.5704 35.4342 28.3259 35.4664C28.0815 35.4987 27.8755 35.7046 28.0097 35.7764C28.1439 35.8482 28.6244 35.7795 28.975 35.6068C29.3256 35.4342 29.5315 35.1595 30.3679 34.8766" stroke="#E0D0FF" stroke-width="7.2" stroke-linecap="round"/>
<path d="M23.9684 24.3896C23.551 25.075 23.2535 25.7299 22.9838 26.3436C22.7681 26.8346 22.5959 27.3139 22.4459 27.7923C22.2914 28.2846 22.2375 28.8369 22.0727 29.3154C21.9045 29.8036 21.7 30.2704 21.5499 30.7488C21.4042 31.2133 21.4008 31.7039 21.2959 32.1823C21.1868 32.6804 21.1911 33.286 21.0424 34.4158C20.5699 38.0052 21.1015 38.5128 21.2055 38.9912C21.3999 39.4696 21.5782 39.828 21.7869 40.0663C21.8774 40.1863 21.9365 40.3046 22.1766 40.4264" stroke="#E0D0FF" stroke-width="7.2" stroke-linecap="round"/>
<path d="M26.7002 31.5781C27.6613 32.1615 28.586 32.2518 29.3909 32.0955C29.5878 32.0281 29.7997 31.9392 29.9795 31.8711C30.1593 31.8031 30.3006 31.7586 30.6602 31.4434" stroke="#0D0D0D" stroke-width="1.8" stroke-linecap="round"/>
<path d="M35.9775 31.2353C36.9386 31.8187 37.8634 31.909 38.6682 31.7527C38.8651 31.6853 39.077 31.5964 39.2568 31.5284C39.4366 31.4603 39.5779 31.4159 39.9375 31.1006" stroke="#0D0D0D" stroke-width="1.8" stroke-linecap="round"/>
<path d="M30.3857 37.6717C30.6774 37.5627 31.3365 37.2689 32.0155 37.0488C32.5965 36.8605 33.2072 36.8287 35.8956 36.8276C36.6185 36.9366 36.9498 37.0477 37.2975 37.1209C37.4637 37.1578 37.6089 37.1941 38.0887 37.3415" stroke="#0D0D0D" stroke-width="1.8" stroke-linecap="round"/>
<path d="M13.4853 1.91406C9.73369 2.82457 7.51071 4.44155 5.42173 6.6767C4.35288 8.40634 3.43934 9.7249 2.83183 10.7374C2.52579 11.2475 2.22432 11.7499 1.30469 13.1812" stroke="#1A1A1A" stroke-width="2" stroke-linecap="round"/>
<path d="M1 5.87256C1 6.07354 1 6.27452 1.5527 7.03124C2.10539 7.78797 3.21078 9.09434 4.95869 10.7448" stroke="#1A1A1A" stroke-width="2" stroke-linecap="round"/>
<path d="M8.30859 1.00049C8.50958 1.50294 8.71056 2.00539 9.01508 2.71644C9.3196 3.42748 9.72156 4.3319 10.0794 4.99879C10.4372 5.66568 10.7386 6.06764 11.6583 6.48177" stroke="#1A1A1A" stroke-width="2" stroke-linecap="round"/>
<path d="M63.9587 37.0005C63.9587 37.2015 63.9587 40.7217 63.6572 46.7024C63.3558 49.2664 62.7528 50.8742 62.191 52.1045C61.6292 53.3347 61.1267 54.1387 60 55.576" stroke="#1A1A1A" stroke-width="2" stroke-linecap="round"/>
<path d="M61.5225 42.4818C61.9244 42.4818 63.1364 42.4818 64.9102 42.4315C65.6791 42.3813 66.1815 42.2808 66.7419 42.229C67.3022 42.1772 67.9051 42.1772 68.5263 42.1772" stroke="#1A1A1A" stroke-width="2" stroke-linecap="round"/>
<path d="M60.6094 48.8765C61.5138 49.1779 62.4182 49.4794 63.0851 49.7352C63.752 49.991 64.1539 50.192 64.562 50.3458C64.97 50.4995 65.372 50.6 66.0907 50.7036" stroke="#1A1A1A" stroke-width="2" stroke-linecap="round"/>
</svg>
