<svg width="48" height="56" viewBox="0 0 48 56" fill="none" xmlns="http://www.w3.org/2000/svg">
<path d="M7.18101 28.429C6.76493 21.8485 7.03955 18.9422 8.28261 15.2369C10.528 8.54408 12.4487 7.90752 13.3828 6.90059C14.9362 5.22616 17.0173 4.71613 21.2718 3.9859C27.5443 2.90931 29.1546 4.36246 30.4777 4.98659C31.7664 5.59443 33.1032 8.09476 35.813 12.394C37.1433 14.5046 37.622 16.146 38.1088 18.5718C38.1795 19.7494 38.2482 20.5899 38.3522 22.1388C38.3875 23.413 38.3875 25.6786 38.3875 28.0129" stroke="#E0D0FF" stroke-width="7.2" stroke-linecap="round"/>
<path d="M7.18066 29.6773C7.87137 30.9214 8.84085 32.1697 10.2587 32.7272C13.0716 33.8334 14.6619 31.9699 15.88 31.3094C16.9168 30.7472 17.3041 29.8188 17.6151 29.5057C18.2703 28.8461 19.2389 31.2668 20.664 32.2747C21.7578 33.0484 24.2943 32.798 26.2458 32.1769C27.6623 31.7262 28.1223 30.1683 28.6757 29.2976C29.2843 28.3402 30.6147 30.7134 31.76 31.5123C33.6944 32.8616 37.4094 31.4165 38.5568 30.6853C38.8096 30.5241 39.0072 30.3056 39.1819 30.0622C41.3469 27.0466 39.4982 19.8368 39.3588 18.4482C39.2205 17.071 38.666 16.0213 38.3196 14.8417C37.8725 13.3193 37.2804 12.2765 36.5523 11.1656C35.8553 10.1022 34.9919 9.15588 34.2295 8.25193C33.4671 7.34818 32.3581 6.79667 31.1452 5.99778C30.0682 5.28841 28.4802 5.12816 26.8824 4.95549C25.5127 4.80746 24.2444 5.12608 23.3457 5.71276C21.2666 7.06995 20.5704 8.51927 19.3211 9.52828C17.8156 10.7442 15.9268 12.8882 14.122 14.4496C12.2474 16.0713 10.9296 18.9173 9.85403 22.3833C9.3696 23.9443 9.2611 25.7827 9.53572 27.5157C9.71241 28.6308 12.1612 28.4291 14.1709 28.3261C15.961 28.2343 16.7465 26.0116 17.6827 24.5178C19.3774 21.8138 19.7257 18.9464 20.3207 16.5778C20.7788 14.7543 21.5315 12.495 22.1556 9.89652C22.3988 8.88405 22.3679 8.46518 21.9216 9.17981C20.3875 11.6365 18.6335 15.1683 16.9702 17.6628C15.567 19.7671 15.0905 21.2807 14.6026 22.4259C14.3121 23.1079 13.9088 23.9166 13.7007 24.2328C12.4647 26.1116 14.9365 18.9506 16.3304 17.0595C16.5376 16.7785 16.8838 16.712 17.0939 16.7786C18.3045 17.1621 18.4109 21.5366 19.138 25.4904C19.3758 26.7834 19.6591 26.5608 20.2458 25.5279C21.8634 22.6798 23.0586 20.3195 23.5433 20.073C24.4204 19.6269 24.0322 23.2134 24.3411 24.2651C24.4814 24.7425 25.268 21.6094 25.5863 22.3302C25.9046 23.0511 25.9046 26.8271 25.8703 26.541C25.3044 21.8252 25.7652 16.7141 25.9379 16.1233C26.0198 15.843 26.5266 18.0123 26.873 20.0251C26.9255 20.3299 27.3588 16.6725 27.7395 12.2297C27.7779 11.7819 28.2617 15.5033 28.4001 19.6975C28.4593 21.4931 28.6092 17.1718 28.6435 10.6486C28.6536 8.72495 28.7465 9.61774 28.6102 13.0297C28.4739 16.4416 28.1307 22.3459 28.2628 24.4606C28.4251 27.0599 30.8227 20.1219 31.7922 18.418C32.2797 17.5613 33.182 23.4027 33.8061 27.5719C34.3169 30.9843 34.4344 21.1579 34.4344 19.7349C34.4344 17.97 35.2665 25.3021 35.2665 25.2085C35.2665 19.2153 34.8505 16.3001 34.6778 14.9114C34.6346 14.5638 34.6424 14.2197 34.5394 14.1458C33.7532 13.582 31.4011 16.8993 28.9982 19.4395C26.8311 21.7304 25.8463 24.1142 24.6251 26.307C24.1344 27.1882 23.6868 28.0088 23.4788 28.118C23.2036 28.2625 23.4081 26.7855 23.2021 26.4953C22.8279 25.968 22.0225 27.5241 21.8145 27.8725C21.2791 28.7692 21.3984 25.866 21.053 25.3812C20.8814 25.1404 20.5704 25.0338 20.3259 25.066C20.0815 25.0983 19.8755 25.3042 20.0097 25.376C20.1439 25.4478 20.6244 25.3791 20.975 25.2065C21.3256 25.0338 21.5315 24.7592 22.3679 24.4762" stroke="#E0D0FF" stroke-width="7.2" stroke-linecap="round"/>
<path d="M15.9684 13.9893C15.551 14.6746 15.2535 15.3295 14.9838 15.9432C14.7681 16.4342 14.5959 16.9135 14.4459 17.3919C14.2914 17.8842 14.2375 18.4366 14.0727 18.915C13.9045 19.4032 13.7 19.87 13.5499 20.3484C13.4042 20.8129 13.4008 21.3035 13.2959 21.7819C13.1868 22.28 13.1911 22.8856 13.0424 24.0154C12.5699 27.6048 13.1015 28.1124 13.2055 28.5908C13.3999 29.0692 13.5782 29.4276 13.7869 29.6659C13.8774 29.7859 13.9365 29.9042 14.1766 30.026" stroke="#E0D0FF" stroke-width="7.2" stroke-linecap="round"/>
<path d="M18.7002 21.1777C19.6613 21.7611 20.586 21.8514 21.3909 21.6951C21.5878 21.6277 21.7997 21.5388 21.9795 21.4707C22.1593 21.4027 22.3006 21.3582 22.6602 21.043" stroke="#0D0D0D" stroke-width="1.8" stroke-linecap="round"/>
<path d="M27.9775 20.8349C28.9386 21.4183 29.8634 21.5086 30.6682 21.3523C30.8651 21.2849 31.077 21.196 31.2568 21.128C31.4366 21.0599 31.5779 21.0155 31.9375 20.7002" stroke="#0D0D0D" stroke-width="1.8" stroke-linecap="round"/>
<path d="M22.3857 27.2713C22.6774 27.1623 23.3365 26.8685 24.0155 26.6484C24.5965 26.4601 25.2072 26.4283 27.8956 26.4272C28.6185 26.5362 28.9498 26.6473 29.2975 26.7205C29.4637 26.7574 29.6089 26.7937 30.0887 26.9411" stroke="#0D0D0D" stroke-width="1.8" stroke-linecap="round"/>
<path d="M3.42701 52.4113C3.11063 52.1521 2.64863 51.6919 1.97123 50.8268C1.41086 49.8803 1.05807 49.1765 1.01474 48.903C1 48.7439 1 48.5437 1 48.3374" stroke="#E0D0FF" stroke-width="2" stroke-linecap="round"/>
<path d="M11.427 52.4113C11.1106 52.1521 10.6486 51.6919 9.97123 50.8268C9.41086 49.8803 9.05807 49.1765 9.01474 48.903C9 48.7439 9 48.5437 9 48.3374" stroke="#FCA8A8" stroke-width="2" stroke-linecap="round"/>
<path d="M19.427 52.4113C19.1106 52.1521 18.6486 51.6919 17.9712 50.8268C17.4109 49.8803 17.0581 49.1765 17.0147 48.903C17 48.7439 17 48.5437 17 48.3374" stroke="#FFF06C" stroke-width="2" stroke-linecap="round"/>
<path d="M1 48.3374C1.34498 48.8557 2.09389 49.7763 2.55892 50.4879C2.64603 50.6188 2.73184 50.7332 2.81896 50.8637C2.90607 50.9941 2.99188 51.1371 3.08029 51.2845" stroke="#E0D0FF" stroke-width="2" stroke-linecap="round"/>
<path d="M9 48.3374C9.34498 48.8557 10.0939 49.7763 10.5589 50.4879C10.646 50.6188 10.7318 50.7332 10.819 50.8637C10.9061 50.9941 10.9919 51.1371 11.0803 51.2845" stroke="#FCA8A8" stroke-width="2" stroke-linecap="round"/>
<path d="M17 48.3374C17.345 48.8557 18.0939 49.7763 18.5589 50.4879C18.646 50.6188 18.7318 50.7332 18.819 50.8637C18.9061 50.9941 18.9919 51.1371 19.0803 51.2845" stroke="#FFF06C" stroke-width="2" stroke-linecap="round"/>
<path d="M2.64724 50.2443C2.53196 49.1764 2.47389 48.3148 2.58873 47.4012C2.63714 47.0162 2.87781 46.7494 3.0503 46.619C3.14313 46.5488 3.33721 46.6887 3.45422 46.8045C3.80181 47.611 4.03411 49.7971 3.94786 50.9356C3.91882 51.0808 3.89022 51.2238 3.86075 51.6312" stroke="#E0D0FF" stroke-width="2" stroke-linecap="round"/>
<path d="M10.6472 50.2443C10.532 49.1764 10.4739 48.3148 10.5887 47.4012C10.6371 47.0162 10.8778 46.7494 11.0503 46.619C11.1431 46.5488 11.3372 46.6887 11.4542 46.8045C11.8018 47.611 12.0341 49.7971 11.9479 50.9356C11.9188 51.0808 11.8902 51.2238 11.8607 51.6312" stroke="#FCA8A8" stroke-width="2" stroke-linecap="round"/>
<path d="M18.6472 50.2443C18.532 49.1764 18.4739 48.3148 18.5887 47.4012C18.6371 47.0162 18.8778 46.7494 19.0503 46.619C19.1431 46.5488 19.3372 46.6887 19.4542 46.8045C19.8018 47.611 20.0341 49.7971 19.9479 50.9356C19.9188 51.0808 19.8902 51.2238 19.8607 51.6312" stroke="#FFF06C" stroke-width="2" stroke-linecap="round"/>
<path d="M4.46761 48.8575C4.55342 48.3392 4.84206 47.8763 5.11553 47.7029C5.2588 47.6121 5.47482 47.644 5.59227 47.7012C6.23232 48.013 5.65338 49.433 5.40764 49.9965C5.13077 50.6313 4.81606 51.0799 4.54085 51.5285C4.38266 51.7162 4.23704 51.919 4.10746 52.1353C4.03508 52.2371 3.94927 52.3229 3.6875 52.498" stroke="#E0D0FF" stroke-width="2" stroke-linecap="round"/>
<path d="M12.4676 48.8575C12.5534 48.3392 12.8421 47.8763 13.1155 47.7029C13.2588 47.6121 13.4748 47.644 13.5923 47.7012C14.2323 48.013 13.6534 49.433 13.4076 49.9965C13.1308 50.6313 12.8161 51.0799 12.5409 51.5285C12.3827 51.7162 12.237 51.919 12.1075 52.1353C12.0351 52.2371 11.9493 52.3229 11.6875 52.498" stroke="#FCA8A8" stroke-width="2" stroke-linecap="round"/>
<path d="M20.4676 48.8575C20.5534 48.3392 20.8421 47.8763 21.1155 47.7029C21.2588 47.6121 21.4748 47.644 21.5923 47.7012C22.2323 48.013 21.6534 49.433 21.4076 49.9965C21.1308 50.6313 20.8161 51.0799 20.5409 51.5285C20.3827 51.7162 20.237 51.919 20.1075 52.1353C20.0351 52.2371 19.9493 52.3229 19.6875 52.498" stroke="#FFF06C" stroke-width="2" stroke-linecap="round"/>
<path d="M3.68683 53.1048C2.3303 52.4408 1.8111 52.153 1.37683 51.9923C1.28576 51.9585 1.23208 52.1773 1.21691 52.3225C1.20174 52.4677 1.23035 52.6107 1.28799 52.7273C1.66288 53.0467 2.12488 53.1334 2.64235 53.1767C2.9882 53.1915 3.50307 53.1915 4.03355 53.1915" stroke="#AFECB2" stroke-width="2" stroke-linecap="round"/>
<path d="M11.6868 53.1048C10.3303 52.4408 9.8111 52.153 9.37683 51.9923C9.28576 51.9585 9.23208 52.1773 9.21691 52.3225C9.20174 52.4677 9.23035 52.6107 9.28799 52.7273C9.66288 53.0467 10.1249 53.1334 10.6423 53.1767C10.9882 53.1915 11.5031 53.1915 12.0335 53.1915" stroke="#AFECB2" stroke-width="2" stroke-linecap="round"/>
<path d="M19.6868 53.1048C18.3303 52.4408 17.8111 52.153 17.3768 51.9923C17.2858 51.9585 17.2321 52.1773 17.2169 52.3225C17.2017 52.4677 17.2303 52.6107 17.288 52.7273C17.6629 53.0467 18.1249 53.1334 18.6423 53.1767C18.9882 53.1915 19.5031 53.1915 20.0335 53.1915" stroke="#AFECB2" stroke-width="2" stroke-linecap="round"/>
<path d="M4.4668 53.1045C4.4954 52.6147 4.7251 52.1527 5.01461 51.7336C5.17094 51.5073 5.448 51.4004 5.64996 51.3709C5.85072 51.3416 5.85366 51.8312 5.82505 52.1917C5.56588 52.6702 5.24777 52.9302 5.06055 53.0889C4.95913 53.1617 4.84471 53.2189 4.64015 53.3645" stroke="#AFECB2" stroke-width="2" stroke-linecap="round"/>
<path d="M12.4668 53.1045C12.4954 52.6147 12.7251 52.1527 13.0146 51.7336C13.1709 51.5073 13.448 51.4004 13.65 51.3709C13.8507 51.3416 13.8537 51.8312 13.8251 52.1917C13.5659 52.6702 13.2478 52.9302 13.0605 53.0889C12.9591 53.1617 12.8447 53.2189 12.6402 53.3645" stroke="#AFECB2" stroke-width="2" stroke-linecap="round"/>
<path d="M20.4668 53.1045C20.4954 52.6147 20.7251 52.1527 21.0146 51.7336C21.1709 51.5073 21.448 51.4004 21.65 51.3709C21.8507 51.3416 21.8537 51.8312 21.8251 52.1917C21.5659 52.6702 21.2478 52.9302 21.0605 53.0889C20.9591 53.1617 20.8447 53.2189 20.6402 53.3645" stroke="#AFECB2" stroke-width="2" stroke-linecap="round"/>
<path d="M3.86035 53.625C3.94616 53.6822 4.03198 53.7394 4.09049 53.8261C4.14899 53.9128 4.1776 54.0272 4.19233 54.2864C4.20707 54.5455 4.20707 54.946 4.38042 55.3586" stroke="#AFECB2" stroke-linecap="round"/>
<path d="M11.8604 53.625C11.9462 53.6822 12.032 53.7394 12.0905 53.8261C12.149 53.9128 12.1776 54.0272 12.1923 54.2864C12.2071 54.5455 12.2071 54.946 12.3804 55.3586" stroke="#AFECB2" stroke-linecap="round"/>
<path d="M19.8604 53.625C19.9462 53.6822 20.032 53.7394 20.0905 53.8261C20.149 53.9128 20.1776 54.0272 20.1923 54.2864C20.2071 54.5455 20.2071 54.946 20.3804 55.3586" stroke="#AFECB2" stroke-linecap="round"/>
<path d="M28.427 52.4113C28.1106 52.1521 27.6486 51.6919 26.9712 50.8268C26.4109 49.8803 26.0581 49.1765 26.0147 48.903C26 48.7439 26 48.5437 26 48.3374" stroke="#E0D0FF" stroke-width="2" stroke-linecap="round"/>
<path d="M36.427 52.4113C36.1106 52.1521 35.6486 51.6919 34.9712 50.8268C34.4109 49.8803 34.0581 49.1765 34.0147 48.903C34 48.7439 34 48.5437 34 48.3374" stroke="#FCA8A8" stroke-width="2" stroke-linecap="round"/>
<path d="M44.427 52.4113C44.1106 52.1521 43.6486 51.6919 42.9712 50.8268C42.4109 49.8803 42.0581 49.1765 42.0147 48.903C42 48.7439 42 48.5437 42 48.3374" stroke="#FFF06C" stroke-width="2" stroke-linecap="round"/>
<path d="M26 48.3374C26.345 48.8557 27.0939 49.7763 27.5589 50.4879C27.646 50.6188 27.7318 50.7332 27.819 50.8637C27.9061 50.9941 27.9919 51.1371 28.0803 51.2845" stroke="#E0D0FF" stroke-width="2" stroke-linecap="round"/>
<path d="M34 48.3374C34.345 48.8557 35.0939 49.7763 35.5589 50.4879C35.646 50.6188 35.7318 50.7332 35.819 50.8637C35.9061 50.9941 35.9919 51.1371 36.0803 51.2845" stroke="#FCA8A8" stroke-width="2" stroke-linecap="round"/>
<path d="M42 48.3374C42.345 48.8557 43.0939 49.7763 43.5589 50.4879C43.646 50.6188 43.7318 50.7332 43.819 50.8637C43.9061 50.9941 43.9919 51.1371 44.0803 51.2845" stroke="#FFF06C" stroke-width="2" stroke-linecap="round"/>
<path d="M27.6472 50.2443C27.532 49.1764 27.4739 48.3148 27.5887 47.4012C27.6371 47.0162 27.8778 46.7494 28.0503 46.619C28.1431 46.5488 28.3372 46.6887 28.4542 46.8045C28.8018 47.611 29.0341 49.7971 28.9479 50.9356C28.9188 51.0808 28.8902 51.2238 28.8607 51.6312" stroke="#E0D0FF" stroke-width="2" stroke-linecap="round"/>
<path d="M35.6472 50.2443C35.532 49.1764 35.4739 48.3148 35.5887 47.4012C35.6371 47.0162 35.8778 46.7494 36.0503 46.619C36.1431 46.5488 36.3372 46.6887 36.4542 46.8045C36.8018 47.611 37.0341 49.7971 36.9479 50.9356C36.9188 51.0808 36.8902 51.2238 36.8607 51.6312" stroke="#FCA8A8" stroke-width="2" stroke-linecap="round"/>
<path d="M43.6472 50.2443C43.532 49.1764 43.4739 48.3148 43.5887 47.4012C43.6371 47.0162 43.8778 46.7494 44.0503 46.619C44.1431 46.5488 44.3372 46.6887 44.4542 46.8045C44.8018 47.611 45.0341 49.7971 44.9479 50.9356C44.9188 51.0808 44.8902 51.2238 44.8607 51.6312" stroke="#FFF06C" stroke-width="2" stroke-linecap="round"/>
<path d="M29.4676 48.8575C29.5534 48.3392 29.8421 47.8763 30.1155 47.7029C30.2588 47.6121 30.4748 47.644 30.5923 47.7012C31.2323 48.013 30.6534 49.433 30.4076 49.9965C30.1308 50.6313 29.8161 51.0799 29.5409 51.5285C29.3827 51.7162 29.237 51.919 29.1075 52.1353C29.0351 52.2371 28.9493 52.3229 28.6875 52.498" stroke="#E0D0FF" stroke-width="2" stroke-linecap="round"/>
<path d="M37.4676 48.8575C37.5534 48.3392 37.8421 47.8763 38.1155 47.7029C38.2588 47.6121 38.4748 47.644 38.5923 47.7012C39.2323 48.013 38.6534 49.433 38.4076 49.9965C38.1308 50.6313 37.8161 51.0799 37.5409 51.5285C37.3827 51.7162 37.237 51.919 37.1075 52.1353C37.0351 52.2371 36.9493 52.3229 36.6875 52.498" stroke="#FCA8A8" stroke-width="2" stroke-linecap="round"/>
<path d="M45.4676 48.8575C45.5534 48.3392 45.8421 47.8763 46.1155 47.7029C46.2588 47.6121 46.4748 47.644 46.5923 47.7012C47.2323 48.013 46.6534 49.433 46.4076 49.9965C46.1308 50.6313 45.8161 51.0799 45.5409 51.5285C45.3827 51.7162 45.237 51.919 45.1075 52.1353C45.0351 52.2371 44.9493 52.3229 44.6875 52.498" stroke="#FFF06C" stroke-width="2" stroke-linecap="round"/>
<path d="M28.6868 53.1048C27.3303 52.4408 26.8111 52.153 26.3768 51.9923C26.2858 51.9585 26.2321 52.1773 26.2169 52.3225C26.2017 52.4677 26.2303 52.6107 26.288 52.7273C26.6629 53.0467 27.1249 53.1334 27.6423 53.1767C27.9882 53.1915 28.5031 53.1915 29.0335 53.1915" stroke="#AFECB2" stroke-width="2" stroke-linecap="round"/>
<path d="M36.6868 53.1048C35.3303 52.4408 34.8111 52.153 34.3768 51.9923C34.2858 51.9585 34.2321 52.1773 34.2169 52.3225C34.2017 52.4677 34.2303 52.6107 34.288 52.7273C34.6629 53.0467 35.1249 53.1334 35.6423 53.1767C35.9882 53.1915 36.5031 53.1915 37.0335 53.1915" stroke="#AFECB2" stroke-width="2" stroke-linecap="round"/>
<path d="M44.6868 53.1048C43.3303 52.4408 42.8111 52.153 42.3768 51.9923C42.2858 51.9585 42.2321 52.1773 42.2169 52.3225C42.2017 52.4677 42.2303 52.6107 42.288 52.7273C42.6629 53.0467 43.1249 53.1334 43.6423 53.1767C43.9882 53.1915 44.5031 53.1915 45.0335 53.1915" stroke="#AFECB2" stroke-width="2" stroke-linecap="round"/>
<path d="M29.4668 53.1045C29.4954 52.6147 29.7251 52.1527 30.0146 51.7336C30.1709 51.5073 30.448 51.4004 30.65 51.3709C30.8507 51.3416 30.8537 51.8312 30.8251 52.1917C30.5659 52.6702 30.2478 52.9302 30.0605 53.0889C29.9591 53.1617 29.8447 53.2189 29.6402 53.3645" stroke="#AFECB2" stroke-width="2" stroke-linecap="round"/>
<path d="M37.4668 53.1045C37.4954 52.6147 37.7251 52.1527 38.0146 51.7336C38.1709 51.5073 38.448 51.4004 38.65 51.3709C38.8507 51.3416 38.8537 51.8312 38.8251 52.1917C38.5659 52.6702 38.2478 52.9302 38.0605 53.0889C37.9591 53.1617 37.8447 53.2189 37.6402 53.3645" stroke="#AFECB2" stroke-width="2" stroke-linecap="round"/>
<path d="M45.4668 53.1045C45.4954 52.6147 45.7251 52.1527 46.0146 51.7336C46.1709 51.5073 46.448 51.4004 46.65 51.3709C46.8507 51.3416 46.8537 51.8312 46.8251 52.1917C46.5659 52.6702 46.2478 52.9302 46.0605 53.0889C45.9591 53.1617 45.8447 53.2189 45.6402 53.3645" stroke="#AFECB2" stroke-width="2" stroke-linecap="round"/>
<path d="M28.8604 53.625C28.9462 53.6822 29.032 53.7394 29.0905 53.8261C29.149 53.9128 29.1776 54.0272 29.1923 54.2864C29.2071 54.5455 29.2071 54.946 29.3804 55.3586" stroke="#AFECB2" stroke-linecap="round"/>
<path d="M36.8604 53.625C36.9462 53.6822 37.032 53.7394 37.0905 53.8261C37.149 53.9128 37.1776 54.0272 37.1923 54.2864C37.2071 54.5455 37.2071 54.946 37.3804 55.3586" stroke="#AFECB2" stroke-linecap="round"/>
<path d="M44.8604 53.625C44.9462 53.6822 45.032 53.7394 45.0905 53.8261C45.149 53.9128 45.1776 54.0272 45.1923 54.2864C45.2071 54.5455 45.2071 54.946 45.3804 55.3586" stroke="#AFECB2" stroke-linecap="round"/>
</svg>
