<svg width="54" height="55" viewBox="0 0 54 55" fill="none" xmlns="http://www.w3.org/2000/svg">
<path d="M3.78062 46.6287C3.36454 40.0482 3.63916 37.1419 4.88222 33.4366C7.12758 26.7438 9.04829 26.1072 9.98241 25.1003C11.5358 23.4259 13.6169 22.9158 17.8714 22.1856C24.1439 21.109 25.7542 22.5622 27.0773 23.1863C28.366 23.7941 29.7029 26.2945 32.4126 30.5937C33.7429 32.7043 34.2216 34.3458 34.7084 36.7715C34.7791 37.9491 34.8478 38.7896 34.9518 40.3385C34.9872 41.6127 34.9872 43.8783 34.9872 46.2126" stroke="#E0D0FF" stroke-width="7.2" stroke-linecap="round"/>
<path d="M3.78027 47.877C4.47098 49.1211 5.44046 50.3694 6.85828 50.9269C9.67117 52.0331 11.2615 50.1696 12.4796 49.5091C13.5164 48.9469 13.9037 48.0185 14.2147 47.7054C14.8699 47.0458 15.8385 49.4665 17.2636 50.4744C18.3574 51.2481 20.8939 50.9977 22.8454 50.3767C24.2619 49.9259 24.7219 48.368 25.2753 47.4973C25.8839 46.5399 27.2143 48.9131 28.3596 49.712C30.294 51.0613 34.009 49.6163 35.1564 48.885C35.4093 48.7238 35.6068 48.5053 35.7815 48.2619C37.9466 45.2463 36.0978 38.0366 35.9584 36.6479C35.8201 35.2707 35.2656 34.221 34.9192 33.0414C34.4721 31.519 33.88 30.4762 33.1519 29.3653C32.4549 28.3019 31.5915 27.3556 30.8291 26.4516C30.0667 25.5479 28.9577 24.9964 27.7448 24.1975C26.6678 23.4881 25.0798 23.3279 23.482 23.1552C22.1123 23.0072 20.844 23.3258 19.9453 23.9125C17.8662 25.2697 17.17 26.719 15.9207 27.728C14.4152 28.9439 12.5264 31.0879 10.7217 32.6493C8.84704 34.271 7.52922 37.117 6.45364 40.583C5.96921 42.1441 5.86071 43.9824 6.13533 45.7154C6.31202 46.8305 8.76084 46.6288 10.7705 46.5258C12.5606 46.434 13.3461 44.2113 14.2823 42.7175C15.977 40.0135 16.3253 37.1461 16.9203 34.7775C17.3784 32.954 18.1311 30.6947 18.7553 28.0962C18.9984 27.0838 18.9675 26.6649 18.5212 27.3795C16.9871 29.8362 15.2331 33.3681 13.5698 35.8625C12.1666 37.9668 11.6901 39.4804 11.2022 40.6256C10.9117 41.3076 10.5084 42.1163 10.3004 42.4325C9.06428 44.3113 11.5361 37.1503 12.93 35.2592C13.1372 34.9782 13.4834 34.9117 13.6936 34.9783C14.9041 35.3618 15.0105 39.7363 15.7376 43.6901C15.9754 44.9831 16.2587 44.7605 16.8454 43.7276C18.463 40.8795 19.6582 38.5192 20.1429 38.2727C21.02 37.8266 20.6318 41.4131 20.9407 42.4648C21.081 42.9422 21.8676 39.8091 22.1859 40.5299C22.5042 41.2508 22.5042 45.0268 22.4699 44.7408C21.904 40.0249 22.3648 34.9138 22.5375 34.323C22.6194 34.0427 23.1263 36.212 23.4726 38.2248C23.5251 38.5296 23.9584 34.8722 24.3391 30.4294C24.3775 29.9816 24.8613 33.703 24.9997 37.8972C25.0589 39.6928 25.2088 35.3715 25.2431 28.8483C25.2532 26.9247 25.3461 27.8174 25.2098 31.2294C25.0735 34.6413 24.7303 40.5456 24.8624 42.6603C25.0248 45.2596 27.4223 38.3216 28.3918 36.6177C28.8793 35.761 29.7816 41.6024 30.4057 45.7716C30.9165 49.184 31.034 39.3576 31.034 37.9346C31.034 36.1697 31.8662 43.5019 31.8662 43.4082C31.8662 37.415 31.4501 34.4998 31.2774 33.1111C31.2342 32.7635 31.242 32.4194 31.1391 32.3455C30.3529 31.7817 28.0007 35.099 25.5978 37.6392C23.4307 39.9301 22.4459 42.3139 21.2247 44.5067C20.734 45.3879 20.2865 46.2085 20.0784 46.3177C19.8032 46.4622 20.0077 44.9852 19.8017 44.695C19.4275 44.1677 18.6221 45.7238 18.4141 46.0722C17.8787 46.9689 17.998 44.0657 17.6526 43.5809C17.4811 43.3401 17.17 43.2335 16.9255 43.2657C16.6811 43.298 16.4751 43.5039 16.6093 43.5757C16.7435 43.6475 17.2241 43.5788 17.5746 43.4062C17.9252 43.2335 18.1311 42.9589 18.9675 42.6759" stroke="#E0D0FF" stroke-width="7.2" stroke-linecap="round"/>
<path d="M12.5681 32.189C12.1506 32.8743 11.8531 33.5292 11.5835 34.1429C11.3677 34.6339 11.1955 35.1132 11.0455 35.5916C10.8911 36.0839 10.8372 36.6363 10.6723 37.1147C10.5041 37.6029 10.2996 38.0697 10.1496 38.5481C10.0039 39.0126 10.0004 39.5032 9.89556 39.9816C9.78641 40.4797 9.79074 41.0853 9.64202 42.2151C9.16951 45.8045 9.70115 46.3121 9.80507 46.7905C9.99948 47.2689 10.1778 47.6273 10.3865 47.8656C10.477 47.9856 10.5361 48.1039 10.7762 48.2257" stroke="#E0D0FF" stroke-width="7.2" stroke-linecap="round"/>
<path d="M15.2998 39.3774C16.2609 39.9608 17.1856 40.0511 17.9905 39.8948C18.1874 39.8274 18.3993 39.7385 18.5791 39.6705C18.7589 39.6024 18.9002 39.5579 19.2598 39.2427" stroke="#0D0D0D" stroke-width="1.8" stroke-linecap="round"/>
<path d="M24.5771 39.0346C25.5383 39.618 26.463 39.7083 27.2678 39.552C27.4647 39.4846 27.6766 39.3957 27.8565 39.3277C28.0363 39.2596 28.1775 39.2152 28.5371 38.8999" stroke="#0D0D0D" stroke-width="1.8" stroke-linecap="round"/>
<path d="M18.9854 45.471C19.277 45.362 19.9361 45.0682 20.6151 44.8481C21.1961 44.6598 21.8068 44.6281 24.4952 44.627C25.2182 44.7359 25.5494 44.847 25.8971 44.9202C26.0633 44.9571 26.2085 44.9934 26.6883 45.1409" stroke="#0D0D0D" stroke-width="1.8" stroke-linecap="round"/>
<path d="M46.2407 5.21472C45.9481 5.13146 45.0272 4.96243 44.225 5.23427C43.3844 5.51907 42.8374 6.43074 42.4369 7.14598C42.1854 7.59513 42.078 8.65466 42.1404 9.93629C42.1943 11.041 43.294 11.5194 43.9676 11.7736C45.1491 12.2194 47.1616 11.6506 47.8573 11.2293C48.5167 10.8299 48.4684 9.92746 48.4489 8.75116C48.4361 7.97915 47.4214 7.69723 46.4766 7.40205C46.1334 7.29483 45.6201 7.35916 45.3003 7.44242C44.9806 7.52567 44.8557 7.69218 44.7913 7.86122C44.5488 8.49851 44.6425 9.0394 44.7888 9.33332C44.8935 9.46072 45.06 9.54398 45.2499 9.58687C45.4397 9.62976 45.6479 9.62976 45.8623 9.62976" stroke="#FF6868" stroke-width="1.6" stroke-linecap="round"/>
<path d="M45.2314 0.799805V2.06124" stroke="#FF6868" stroke-width="1.6" stroke-linecap="round"/>
<path d="M39.8066 3.82715C39.8483 3.82715 39.8899 3.82715 39.9946 3.86878C40.0993 3.9104 40.2658 3.99366 40.414 4.09899C40.5622 4.20432 40.6871 4.3292 41.1942 4.45787" stroke="#FF6868" stroke-width="1.6" stroke-linecap="round"/>
<path d="M51.0342 5.97186C51.1174 5.97186 51.2007 5.97186 51.3268 5.95105C51.453 5.93024 51.6195 5.88861 51.7885 5.80472C51.9576 5.72084 52.1241 5.59595 52.4218 5.46729" stroke="#FF6868" stroke-width="1.6" stroke-linecap="round"/>
<path d="M48.7637 13.2881C48.8053 13.2881 48.8469 13.2881 48.9308 13.3505C49.0147 13.413 49.1396 13.5379 49.2455 13.6854C49.3515 13.833 49.4348 13.9995 49.6467 14.2972" stroke="#FF6868" stroke-width="1.6" stroke-linecap="round"/>
<path d="M37.5996 10.1974C37.6829 10.1974 37.7661 10.1974 37.9339 10.1974C38.1017 10.1974 38.3514 10.1974 38.5633 10.1766C38.7753 10.1558 38.9418 10.1142 39.2395 10.0713" stroke="#FF6868" stroke-width="1.6" stroke-linecap="round"/>
<path d="M43.7808 14.2339C43.7391 14.3588 43.6975 14.4837 43.6553 14.6312C43.613 14.7788 43.5714 14.9453 43.4023 15.3692" stroke="#FF6868" stroke-width="1.6" stroke-linecap="round"/>
<path d="M51.3496 9.69287C51.4329 9.69287 51.5161 9.69287 51.6839 9.7345C51.8517 9.77613 52.1014 9.85938 52.355 9.96471C52.6085 10.07 52.8583 10.1949 53.1156 10.3236" stroke="#FF6868" stroke-width="1.6" stroke-linecap="round"/>
</svg>
