<svg width="70" height="68" viewBox="0 0 70 68" fill="none" xmlns="http://www.w3.org/2000/svg">
<path d="M15.181 42.9285C14.7649 36.348 15.0395 33.4417 16.2826 29.7364C18.528 23.0436 20.4487 22.407 21.3828 21.4001C22.9362 19.7257 25.0173 19.2156 29.2718 18.4854C35.5443 17.4088 37.1546 18.862 38.4777 19.4861C39.7664 20.0939 41.1032 22.5943 43.813 26.8935C45.1433 29.0041 45.622 30.6456 46.1088 33.0713C46.1795 34.2489 46.2482 35.0894 46.3522 36.6383C46.3875 37.9125 46.3875 40.1781 46.3875 42.5124" stroke="#E0D0FF" stroke-width="7.2" stroke-linecap="round"/>
<path d="M15.1807 44.1768C15.8714 45.4209 16.8409 46.6692 18.2587 47.2267C21.0716 48.3329 22.6619 46.4695 23.88 45.8089C24.9168 45.2467 25.3041 44.3183 25.6151 44.0052C26.2703 43.3456 27.2389 45.7663 28.664 46.7742C29.7578 47.5479 32.2943 47.2975 34.2458 46.6765C35.6623 46.2257 36.1223 44.6678 36.6757 43.7971C37.2843 42.8397 38.6147 45.2129 39.76 46.0118C41.6944 47.3611 45.4094 45.9161 46.5568 45.1848C46.8096 45.0236 47.0072 44.8051 47.1819 44.5617C49.3469 41.5461 47.4982 34.3364 47.3588 32.9477C47.2205 31.5705 46.666 30.5208 46.3196 29.3412C45.8725 27.8188 45.2804 26.7761 44.5523 25.6651C43.8553 24.6017 42.9919 23.6554 42.2295 22.7514C41.4671 21.8477 40.3581 21.2962 39.1452 20.4973C38.0682 19.7879 36.4802 19.6277 34.8824 19.455C33.5127 19.307 32.2444 19.6256 31.3457 20.2123C29.2666 21.5695 28.5704 23.0188 27.3211 24.0278C25.8156 25.2437 23.9268 27.3877 22.122 28.9491C20.2474 30.5709 18.9296 33.4168 17.854 36.8828C17.3696 38.4439 17.2611 40.2822 17.5357 42.0152C17.7124 43.1303 20.1612 42.9286 22.1709 42.8256C23.961 42.7339 24.7465 40.5111 25.6827 39.0173C27.3774 36.3133 27.7257 33.4459 28.3207 31.0774C28.7788 29.2538 29.5315 26.9945 30.1556 24.396C30.3988 23.3836 30.3679 22.9647 29.9216 23.6793C28.3875 26.136 26.6335 29.6679 24.9702 32.1623C23.567 34.2666 23.0905 35.7802 22.6026 36.9255C22.3121 37.6074 21.9088 38.4161 21.7007 38.7323C20.4647 40.6111 22.9365 33.4501 24.3304 31.559C24.5376 31.278 24.8838 31.2115 25.0939 31.2781C26.3045 31.6616 26.4109 36.0361 27.138 39.9899C27.3758 41.2829 27.6591 41.0603 28.2458 40.0274C29.8634 37.1793 31.0586 34.819 31.5433 34.5725C32.4204 34.1264 32.0322 37.7129 32.3411 38.7646C32.4814 39.242 33.268 36.1089 33.5863 36.8298C33.9046 37.5506 33.9046 41.3266 33.8703 41.0406C33.3044 36.3247 33.7652 31.2136 33.9379 30.6228C34.0198 30.3425 34.5266 32.5118 34.873 34.5246C34.9255 34.8294 35.3588 31.172 35.7395 26.7292C35.7779 26.2814 36.2617 30.0028 36.4001 34.197C36.4593 35.9926 36.6092 31.6713 36.6435 25.1481C36.6536 23.2245 36.7465 24.1173 36.6102 27.5292C36.4739 30.9411 36.1307 36.8454 36.2628 38.9601C36.4251 41.5594 38.8227 34.6214 39.7922 32.9175C40.2797 32.0608 41.182 37.9022 41.8061 42.0714C42.3169 45.4839 42.4344 35.6574 42.4344 34.2344C42.4344 32.4695 43.2665 39.8017 43.2665 39.708C43.2665 33.7148 42.8505 30.7996 42.6778 29.4109C42.6346 29.0634 42.6424 28.7192 42.5394 28.6453C41.7532 28.0815 39.4011 31.3988 36.9982 33.939C34.8311 36.2299 33.8463 38.6137 32.6251 40.8065C32.1344 41.6877 31.6868 42.5083 31.4788 42.6175C31.2036 42.762 31.4081 41.285 31.2021 40.9948C30.8279 40.4675 30.0225 42.0236 29.8145 42.372C29.2791 43.2687 29.3984 40.3655 29.053 39.8807C28.8814 39.6399 28.5704 39.5333 28.3259 39.5655C28.0815 39.5978 27.8755 39.8037 28.0097 39.8755C28.1439 39.9473 28.6244 39.8786 28.975 39.706C29.3256 39.5333 29.5315 39.2587 30.3679 38.9757" stroke="#E0D0FF" stroke-width="7.2" stroke-linecap="round"/>
<path d="M23.9684 28.4888C23.551 29.1741 23.2535 29.8291 22.9838 30.4427C22.7681 30.9338 22.5959 31.413 22.4459 31.8914C22.2914 32.3837 22.2375 32.9361 22.0727 33.4145C21.9045 33.9027 21.7 34.3695 21.5499 34.8479C21.4042 35.3124 21.4008 35.803 21.2959 36.2814C21.1868 36.7795 21.1911 37.3852 21.0424 38.5149C20.5699 42.1043 21.1015 42.6119 21.2055 43.0903C21.3999 43.5687 21.5782 43.9271 21.7869 44.1654C21.8774 44.2854 21.9365 44.4037 22.1766 44.5256" stroke="#E0D0FF" stroke-width="7.2" stroke-linecap="round"/>
<path d="M26.7002 35.6772C27.6613 36.2606 28.586 36.3509 29.3909 36.1946C29.5878 36.1272 29.7997 36.0383 29.9795 35.9703C30.1593 35.9022 30.3006 35.8578 30.6602 35.5425" stroke="#0D0D0D" stroke-width="1.8" stroke-linecap="round"/>
<path d="M35.9775 35.3344C36.9386 35.9178 37.8634 36.0081 38.6682 35.8518C38.8651 35.7845 39.077 35.6955 39.2568 35.6275C39.4366 35.5594 39.5779 35.515 39.9375 35.1997" stroke="#0D0D0D" stroke-width="1.8" stroke-linecap="round"/>
<path d="M30.3857 41.7708C30.6774 41.6618 31.3365 41.368 32.0155 41.1479C32.5965 40.9596 33.2072 40.9279 35.8956 40.9268C36.6185 41.0357 36.9498 41.1468 37.2975 41.22C37.4637 41.2569 37.6089 41.2932 38.0887 41.4407" stroke="#0D0D0D" stroke-width="1.8" stroke-linecap="round"/>
<path d="M3.71671 0.788387C4.44082 1.02457 5.4572 2.13392 6.43977 4.2787C6.87817 5.23564 6.77019 6.58569 6.66223 7.93601C6.52979 9.59245 3.15836 10.9563 0.667603 11.9989C-0.305282 12.4061 4.99917 12.9556 7.34707 12.4414C8.69555 12.1462 9.74515 10.1022 10.2228 7.99565C11.0393 4.39456 9.46161 3.02142 8.51939 1.7868C7.93924 1.27029 7.35472 0.869493 6.34271 0.63092C5.6186 0.549805 4.467 0.549805 3.28051 0.549805" stroke="#FFF200" stroke-width="1.1" stroke-linecap="round"/>
<path d="M5.63939 1.09961C6.64004 1.71267 7.39805 2.28674 8.26339 3.11859C8.8153 3.64914 8.81868 4.63283 8.83682 6.40052C8.84549 7.24506 8.5781 7.88443 7.26947 9.37971C6.56303 10.1869 6.09149 10.5576 5.53777 10.9367C4.97439 11.3224 4.19181 11.5693 3.37831 11.8038C3.18711 11.8589 3.0159 11.8942 3.01331 11.9126C2.91676 12.5984 4.63354 11.2119 5.60102 10.7412C6.43084 10.3376 7.01853 9.33801 7.48723 8.48558C7.79992 7.91688 7.81698 6.66914 7.73092 5.72356C7.64195 4.74614 7.26532 3.73815 7.07453 3.05198C6.97267 2.68568 6.74685 2.36472 6.71055 2.34468C6.12398 2.02082 7.67699 3.37313 7.98756 3.75007C8.45156 4.31322 8.33546 5.14082 8.28413 5.62716C8.19328 6.48786 7.50797 7.05258 6.66234 8.06423C6.15221 8.67452 5.81359 9.18421 5.08929 10.0323C4.80296 10.3676 4.56925 10.6302 4.44741 10.7927C3.8397 11.603 6.81322 10.3063 6.72974 10.4493C6.59468 10.6807 5.92766 10.8782 5.69642 11.0077C5.58166 11.0719 6.11949 10.9216 6.58716 10.8122C6.68157 10.7901 6.47309 11.0602 6.43576 11.1528C6.39843 11.2454 6.53531 11.2097 6.55449 11.2449C6.78982 11.6767 5.57302 11.9289 5.24119 12.022C3.86089 12.4095 6.88269 10.7775 7.02112 10.614C7.39817 10.1685 6.91898 11.6408 6.88373 11.6966C6.64859 12.0686 7.33169 10.7418 7.55619 10.5062C7.693 10.3626 7.71329 11.0624 7.76462 11.2622C7.97437 12.0789 8.50759 9.91099 8.64551 9.71169C8.75152 9.55849 8.85393 10.1244 8.85393 10.2695C8.85393 10.7772 9.47195 8.47366 9.78667 7.60065C10.0806 6.78536 9.75401 5.50801 9.37396 4.89278C8.98368 4.26099 8.54492 3.70133 8.19858 3.12401C7.73479 2.35091 7.40324 1.93146 7.40168 1.78632C7.39099 0.786918 8.8166 2.72216 9.26716 3.15596C9.71996 3.59192 9.88984 4.13133 9.82296 4.18657C8.72651 5.09213 7.95801 2.94313 7.62722 2.5624C7.13422 1.99498 8.71291 4.09126 9.12924 5.06771C9.5681 6.09697 9.06339 7.70246 8.26961 9.19883C8.05099 9.61094 7.88957 10.0096 7.81854 10.0691C7.18068 10.6041 8.3002 8.14438 8.50759 6.88252C8.82988 4.92147 8.23384 4.09993 7.73247 3.41267C7.62022 3.2588 7.50797 3.15975 7.4893 3.03302C7.47064 2.9063 7.53908 2.76332 7.64277 2.68967C7.85008 2.54242 8.435 3.15217 9.1085 4.08963C9.54243 4.69362 9.57979 5.35637 9.47714 6.13028C9.262 7.75214 8.44123 8.20937 7.92275 8.7699C7.41541 9.31839 6.57679 9.72578 5.93543 10.0345C5.21585 10.3808 4.60658 10.9541 3.8102 11.2622C3.187 11.461 2.70274 11.6061 2.42692 11.624C2.28797 11.6419 2.15109 11.6776 2.21745 11.8227" stroke="#FFF200" stroke-width="1.1" stroke-linecap="round"/>
<path d="M60.9023 18.1187C61.0145 19.2398 61.1266 20.3609 61.2404 21.443C61.3542 22.5251 61.4663 23.5341 61.5801 24.3342C61.6939 25.1343 61.8061 25.6948 61.9216 26.2724" stroke="#FFF200" stroke-width="1.6" stroke-linecap="round"/>
<path d="M56.4863 23.2147C58.3923 22.8784 60.2982 22.542 61.6724 22.3127C63.0467 22.0834 63.8314 21.9712 64.516 21.8574C65.2006 21.7436 65.7612 21.6315 66.6785 21.1763" stroke="#FFF200" stroke-width="1.6" stroke-linecap="round"/>
<path d="M62.9411 19.1382C61.9321 20.7078 60.9231 22.2774 60.2351 23.3102C59.5471 24.343 59.2108 24.7914 58.8643 25.5932" stroke="#FFF200" stroke-width="1.6" stroke-linecap="round"/>
<path d="M58.1846 20.4971C60.8753 21.9545 63.566 23.412 65.2885 24.275C67.011 25.1379 67.6836 25.3621 68.3767 25.9329" stroke="#FFF200" stroke-width="1.6" stroke-linecap="round"/>
<path d="M10.3975 60.0996V66.5546" stroke="#FFF200" stroke-width="1.6" stroke-linecap="round"/>
<path d="M7 62.8174C8.56959 62.9295 10.1392 63.0416 11.2841 63.0994C12.429 63.1571 13.1017 63.1571 13.7948 62.8174" stroke="#FFF200" stroke-width="1.6" stroke-linecap="round"/>
</svg>
