<svg width="84" height="42" viewBox="0 0 84 42" fill="none" xmlns="http://www.w3.org/2000/svg">
<path d="M28.665 13.1825C23.294 10.6384 18.2657 8.33835 14.3445 6.73326C10.1656 5.02266 6.69704 5.75564 3.97406 7.14443C2.95999 7.66164 2.39895 8.89301 1.86357 10.2454C1.30968 11.6445 1.75221 12.8934 2.03597 13.7468C3.03005 16.7365 8.22611 18.9519 10.4565 19.6425C10.8009 19.7491 11.1686 19.7485 11.0326 19.7849C10.286 19.9848 9.18124 20.0333 8.39743 20.5666C6.89515 21.5886 6.89407 23.1707 6.85659 25.203C6.84259 25.962 7.5301 26.67 8.49166 27.4185C9.31229 28.0572 12.7876 28.244 16.8608 28.5631C18.5727 28.6972 15.1048 31.3086 14.4259 33.3741C13.8488 35.1299 14.458 36.7353 14.8135 37.5544C15.1712 38.3785 16.167 38.9496 17.1649 39.3779C17.8802 39.5236 18.5955 39.5942 20.3687 39.7013C21.7179 39.7377 23.9793 39.7377 26.9518 39.5236" stroke="#C8E1FF" stroke-width="3.2" stroke-linecap="round"/>
<path d="M53.4809 11.337C58.5126 8.17439 63.233 5.29479 66.9364 3.23642C70.8832 1.04274 74.4142 1.35959 77.2825 2.41598C78.3507 2.80939 79.0537 3.96561 79.7456 5.24504C80.4613 6.56869 80.1699 7.86121 79.9892 8.74223C79.3564 11.8287 74.4594 14.644 72.3265 15.5941C71.9973 15.7407 71.632 15.7837 71.7714 15.8037C72.5364 15.9138 73.6391 15.8311 74.4806 16.2677C76.0934 17.1045 76.2819 18.6753 76.5599 20.6889C76.6638 21.4409 76.065 22.2253 75.1989 23.0825C74.4597 23.814 71.031 24.4112 67.0243 25.2107C65.3404 25.5466 69.0933 27.7287 70.0121 29.6993C70.7931 31.3743 70.3784 33.0406 70.1225 33.8961C69.865 34.7567 68.9439 35.4418 68.0037 35.9853C67.3107 36.2147 66.6088 36.3696 64.8608 36.686C63.5255 36.882 61.2799 37.15 58.303 37.2895" stroke="#C8E1FF" stroke-width="3.2" stroke-linecap="round"/>
<path d="M24.7796 33.5671C24.3636 26.9867 24.6382 24.0803 25.8812 20.3751C28.1266 13.6823 30.0473 13.0457 30.9814 12.0388C32.5348 10.3643 34.616 9.85432 38.8704 9.12409C45.1429 8.0475 46.7532 9.50064 48.0764 10.1248C49.365 10.7326 50.7019 13.2329 53.4116 17.5322C54.7419 19.6428 55.2206 21.2842 55.7074 23.71C55.7781 24.8875 55.8468 25.728 55.9508 27.2769C55.9862 28.5512 55.9862 30.8168 55.9862 33.151" stroke="#E0D0FF" stroke-width="7.2" stroke-linecap="round"/>
<path d="M24.7793 34.8155C25.47 36.0596 26.4395 37.3079 27.8573 37.8654C30.6702 38.9716 32.2606 37.1081 33.4786 36.4476C34.5154 35.8854 34.9027 34.957 35.2137 34.6439C35.869 33.9842 36.8375 36.4049 38.2626 37.4129C39.3564 38.1866 41.893 37.9361 43.8444 37.3151C45.2609 36.8644 45.721 35.3065 46.2744 34.4358C46.8829 33.4784 48.2133 35.8515 49.3586 36.6504C51.293 37.9998 55.008 36.5547 56.1554 35.8235C56.4083 35.6623 56.6058 35.4438 56.7806 35.2004C58.9456 32.1848 57.0968 24.975 56.9574 23.5863C56.8192 22.2092 56.2646 21.1595 55.9182 19.9799C55.4711 18.4575 54.879 17.4147 54.1509 16.3038C53.4539 15.2404 52.5906 14.2941 51.8281 13.3901C51.0658 12.4864 49.9567 11.9349 48.7438 11.136C47.6668 10.4266 46.0788 10.2663 44.481 10.0937C43.1113 9.94564 41.843 10.2643 40.9443 10.8509C38.8652 12.2081 38.169 13.6575 36.9197 14.6665C35.4143 15.8823 33.5254 18.0264 31.7207 19.5877C29.8461 21.2095 28.5282 24.0555 27.4527 27.5215C26.9682 29.0825 26.8597 30.9209 27.1344 32.6539C27.311 33.7689 29.7599 33.5672 31.7696 33.4643C33.5596 33.3725 34.3451 31.1498 35.2813 29.656C36.9761 26.9519 37.3243 24.0846 37.9193 21.716C38.3774 19.8925 39.1302 17.6332 39.7543 15.0347C39.9975 14.0222 39.9665 13.6034 39.5202 14.318C37.9862 16.7746 36.2321 20.3065 34.5688 22.801C33.1656 24.9053 32.6891 26.4188 32.2013 27.5641C31.9108 28.246 31.5074 29.0548 31.2994 29.371C30.0633 31.2498 32.5352 24.0888 33.9291 22.1977C34.1362 21.9166 34.4825 21.8502 34.6926 21.9168C35.9031 22.3003 36.0095 26.6747 36.7366 30.6286C36.9744 31.9216 37.2578 31.699 37.8444 30.6661C39.4621 27.818 40.6572 25.4577 41.1419 25.2112C42.019 24.7651 41.6308 28.3516 41.9398 29.4032C42.08 29.8807 42.8666 26.7476 43.1849 27.4684C43.5032 28.1893 43.5032 31.9653 43.4689 31.6792C42.903 26.9633 43.3638 21.8523 43.5365 21.2614C43.6184 20.9812 44.1253 23.1505 44.4717 25.1633C44.5241 25.468 44.9574 21.8107 45.3382 17.3679C45.3765 16.9201 45.8604 20.6415 45.9987 24.8356C46.0579 26.6312 46.2078 22.31 46.2421 15.7868C46.2522 13.8631 46.3451 14.7559 46.2088 18.1678C46.0726 21.5798 45.7293 27.484 45.8614 29.5988C46.0238 32.1981 48.4214 25.26 49.3909 23.5562C49.8783 22.6995 50.7806 28.5409 51.4047 32.7101C51.9156 36.1225 52.033 26.2961 52.033 24.8731C52.033 23.1082 52.8652 30.4403 52.8652 30.3467C52.8652 24.3535 52.4491 21.4383 52.2764 20.0496C52.2332 19.702 52.2411 19.3579 52.1381 19.284C51.3519 18.7202 48.9997 22.0375 46.5968 24.5777C44.4297 26.8686 43.445 29.2524 42.2238 31.4452C41.733 32.3264 41.2855 33.147 41.0774 33.2562C40.8022 33.4007 41.0067 31.9237 40.8007 31.6335C40.4266 31.1062 39.6211 32.6622 39.4131 33.0107C38.8777 33.9074 38.997 31.0041 38.6517 30.5194C38.4801 30.2786 38.169 30.172 37.9245 30.2042C37.6801 30.2364 37.4741 30.4424 37.6083 30.5142C37.7425 30.586 38.2231 30.5173 38.5736 30.3446C38.9242 30.172 39.1301 29.8973 39.9665 29.6144" stroke="#E0D0FF" stroke-width="7.2" stroke-linecap="round"/>
<path d="M33.5671 19.1274C33.1496 19.8128 32.8521 20.4677 32.5825 21.0814C32.3667 21.5724 32.1945 22.0517 32.0445 22.5301C31.8901 23.0224 31.8362 23.5747 31.6713 24.0532C31.5031 24.5414 31.2986 25.0082 31.1486 25.4866C31.0029 25.9511 30.9994 26.4416 30.8946 26.9201C30.7854 27.4182 30.7898 28.0238 30.641 29.1536C30.1685 32.743 30.7002 33.2506 30.8041 33.729C30.9985 34.2074 31.1768 34.5658 31.3855 34.8041C31.476 34.9241 31.5352 35.0424 31.7753 35.1642" stroke="#E0D0FF" stroke-width="7.2" stroke-linecap="round"/>
<path d="M36.2988 26.3159C37.2599 26.8993 38.1846 26.9896 38.9895 26.8333C39.1864 26.7659 39.3983 26.677 39.5781 26.6089C39.7579 26.5409 39.8992 26.4964 40.2588 26.1812" stroke="#0D0D0D" stroke-width="1.8" stroke-linecap="round"/>
<path d="M45.5762 25.9731C46.5373 26.5565 47.462 26.6468 48.2668 26.4905C48.4638 26.4231 48.6757 26.3342 48.8555 26.2662C49.0353 26.1981 49.1766 26.1537 49.5362 25.8384" stroke="#0D0D0D" stroke-width="1.8" stroke-linecap="round"/>
<path d="M39.9844 32.4095C40.276 32.3005 40.9351 32.0067 41.6141 31.7866C42.1951 31.5983 42.8059 31.5665 45.4942 31.5654C46.2172 31.6744 46.5484 31.7855 46.8961 31.8587C47.0623 31.8956 47.2076 31.9319 47.6873 32.0793" stroke="#0D0D0D" stroke-width="1.8" stroke-linecap="round"/>
</svg>
