<svg width="41" height="45" viewBox="0 0 41 45" fill="none" xmlns="http://www.w3.org/2000/svg">
<path d="M8.42007 13.9983C7.73569 13.3385 7.00145 12.1804 6.31839 10.2245C6.01701 9.08675 5.80747 7.65424 5.69618 6.73297C5.58489 5.8117 5.57819 5.4451 5.57129 5.06738" stroke="#1A1A1A" stroke-width="2" stroke-linecap="round"/>
<path d="M5.84863 5.0625C6.70287 6.24987 7.14233 6.73359 8.00313 7.44345C8.47371 7.83152 8.83674 8.18621 9.39569 8.54458C10.4479 9.13842 11.8552 9.82672 13.0673 10.3292C13.5401 10.509 13.724 10.5362 14.1003 10.6534" stroke="#1A1A1A" stroke-width="2" stroke-linecap="round"/>
<path d="M30.607 11.9932C31.248 11.2911 31.9069 10.0886 32.4639 8.09316C32.6922 6.93853 32.81 5.49557 32.8624 4.56908C32.9147 3.6426 32.898 3.27631 32.8809 2.89893" stroke="#1A1A1A" stroke-width="2" stroke-linecap="round"/>
<path d="M32.6035 2.91211C31.8267 4.15151 31.4189 4.66225 30.6051 5.42552C30.1602 5.84279 29.8206 6.21991 29.2856 6.61317C28.2733 7.27286 26.9128 8.04944 25.7352 8.62815C25.2748 8.83774 25.093 8.8766 24.725 9.01756" stroke="#1A1A1A" stroke-width="2" stroke-linecap="round"/>
<path d="M3.78062 35.8289C3.36454 29.2484 3.63916 26.3421 4.88222 22.6368C7.12758 15.944 9.04829 15.3074 9.98241 14.3005C11.5358 12.6261 13.6169 12.116 17.8714 11.3858C24.1439 10.3092 25.7542 11.7624 27.0773 12.3865C28.366 12.9943 29.7029 15.4947 32.4126 19.7939C33.7429 21.9045 34.2216 23.5459 34.7084 25.9717C34.7791 27.1493 34.8478 27.9898 34.9518 29.5387C34.9872 30.8129 34.9872 33.0785 34.9872 35.4128" stroke="#E0D0FF" stroke-width="7.2" stroke-linecap="round"/>
<path d="M3.78027 37.0772C4.47098 38.3213 5.44046 39.5696 6.85828 40.1271C9.67117 41.2333 11.2615 39.3698 12.4796 38.7093C13.5164 38.1471 13.9037 37.2187 14.2147 36.9056C14.8699 36.246 15.8385 38.6667 17.2636 39.6746C18.3574 40.4483 20.8939 40.1979 22.8454 39.5769C24.2619 39.1261 24.7219 37.5682 25.2753 36.6975C25.8839 35.7401 27.2143 38.1133 28.3596 38.9122C30.294 40.2615 34.009 38.8164 35.1564 38.0852C35.4093 37.924 35.6068 37.7055 35.7815 37.4621C37.9466 34.4465 36.0978 27.2367 35.9584 25.8481C35.8201 24.4709 35.2656 23.4212 34.9192 22.2416C34.4721 20.7192 33.88 19.6764 33.1519 18.5655C32.4549 17.5021 31.5915 16.5558 30.8291 15.6518C30.0667 14.7481 28.9577 14.1966 27.7448 13.3977C26.6678 12.6883 25.0798 12.5281 23.482 12.3554C22.1123 12.2074 20.844 12.526 19.9453 13.1127C17.8662 14.4699 17.17 15.9192 15.9207 16.9282C14.4152 18.1441 12.5264 20.2881 10.7217 21.8495C8.84704 23.4712 7.52922 26.3172 6.45364 29.7832C5.96921 31.3443 5.86071 33.1826 6.13533 34.9156C6.31202 36.0307 8.76084 35.829 10.7705 35.726C12.5606 35.6342 13.3461 33.4115 14.2823 31.9177C15.977 29.2137 16.3253 26.3463 16.9203 23.9777C17.3784 22.1542 18.1311 19.8949 18.7553 17.2964C18.9984 16.284 18.9675 15.8651 18.5212 16.5797C16.9871 19.0364 15.2331 22.5682 13.5698 25.0627C12.1666 27.167 11.6901 28.6806 11.2022 29.8258C10.9117 30.5078 10.5084 31.3165 10.3004 31.6327C9.06428 33.5115 11.5361 26.3505 12.93 24.4594C13.1372 24.1784 13.4834 24.1119 13.6936 24.1785C14.9041 24.562 15.0105 28.9365 15.7376 32.8903C15.9754 34.1833 16.2587 33.9607 16.8454 32.9278C18.463 30.0797 19.6582 27.7194 20.1429 27.4729C21.02 27.0268 20.6318 30.6133 20.9407 31.665C21.081 32.1424 21.8676 29.0093 22.1859 29.7301C22.5042 30.451 22.5042 34.227 22.4699 33.9409C21.904 29.2251 22.3648 24.114 22.5375 23.5232C22.6194 23.2429 23.1263 25.4122 23.4726 27.425C23.5251 27.7298 23.9584 24.0724 24.3391 19.6296C24.3775 19.1818 24.8613 22.9032 24.9997 27.0974C25.0589 28.893 25.2088 24.5717 25.2431 18.0485C25.2532 16.1249 25.3461 17.0176 25.2098 20.4296C25.0735 23.8415 24.7303 29.7458 24.8624 31.8605C25.0248 34.4598 27.4223 27.5218 28.3918 25.8179C28.8793 24.9612 29.7816 30.8026 30.4057 34.9718C30.9165 38.3842 31.034 28.5578 31.034 27.1348C31.034 25.3699 31.8662 32.702 31.8662 32.6084C31.8662 26.6152 31.4501 23.7 31.2774 22.3113C31.2342 21.9637 31.242 21.6196 31.1391 21.5457C30.3529 20.9819 28.0007 24.2992 25.5978 26.8394C23.4307 29.1303 22.4459 31.5141 21.2247 33.7069C20.734 34.5881 20.2865 35.4087 20.0784 35.5179C19.8032 35.6624 20.0077 34.1854 19.8017 33.8952C19.4275 33.3679 18.6221 34.924 18.4141 35.2724C17.8787 36.1691 17.998 33.2659 17.6526 32.7811C17.4811 32.5403 17.17 32.4337 16.9255 32.4659C16.6811 32.4982 16.4751 32.7041 16.6093 32.7759C16.7435 32.8477 17.2241 32.779 17.5746 32.6064C17.9252 32.4337 18.1311 32.1591 18.9675 31.8761" stroke="#E0D0FF" stroke-width="7.2" stroke-linecap="round"/>
<path d="M12.5681 21.3892C12.1506 22.0745 11.8531 22.7294 11.5835 23.3431C11.3677 23.8341 11.1955 24.3134 11.0455 24.7918C10.8911 25.2841 10.8372 25.8365 10.6723 26.3149C10.5041 26.8031 10.2996 27.2699 10.1496 27.7483C10.0039 28.2128 10.0004 28.7034 9.89556 29.1818C9.78641 29.6799 9.79074 30.2855 9.64202 31.4153C9.16951 35.0047 9.70115 35.5123 9.80507 35.9907C9.99948 36.4691 10.1778 36.8275 10.3865 37.0658C10.477 37.1858 10.5361 37.3041 10.7762 37.4259" stroke="#E0D0FF" stroke-width="7.2" stroke-linecap="round"/>
<path d="M15.2998 28.5776C16.2609 29.161 17.1856 29.2513 17.9905 29.095C18.1874 29.0276 18.3993 28.9387 18.5791 28.8706C18.7589 28.8026 18.9002 28.7581 19.2598 28.4429" stroke="#0D0D0D" stroke-width="1.8" stroke-linecap="round"/>
<path d="M24.5771 28.2348C25.5383 28.8182 26.463 28.9085 27.2678 28.7522C27.4647 28.6848 27.6766 28.5959 27.8565 28.5279C28.0363 28.4598 28.1775 28.4154 28.5371 28.1001" stroke="#0D0D0D" stroke-width="1.8" stroke-linecap="round"/>
<path d="M18.9854 34.6712C19.277 34.5622 19.9361 34.2684 20.6151 34.0483C21.1961 33.86 21.8068 33.8282 24.4952 33.8271C25.2182 33.9361 25.5494 34.0472 25.8971 34.1204C26.0633 34.1573 26.2085 34.1936 26.6883 34.341" stroke="#0D0D0D" stroke-width="1.8" stroke-linecap="round"/>
</svg>
