<svg width="41" height="53" viewBox="0 0 41 53" fill="none" xmlns="http://www.w3.org/2000/svg">
<path d="M3.78062 44.3987C3.36454 37.8182 3.63916 34.9119 4.88222 31.2066C7.12758 24.5138 9.04829 23.8773 9.98241 22.8703C11.5358 21.1959 13.6169 20.6859 17.8714 19.9556C24.1439 18.879 25.7542 20.3322 27.0773 20.9563C28.366 21.5642 29.7029 24.0645 32.4126 28.3637C33.7429 30.4743 34.2216 32.1158 34.7084 34.5416C34.7791 35.7191 34.8478 36.5596 34.9518 38.1085C34.9872 39.3827 34.9872 41.6483 34.9872 43.9826" stroke="#E0D0FF" stroke-width="7.2" stroke-linecap="round"/>
<path d="M3.78027 45.647C4.47098 46.8911 5.44046 48.1394 6.85828 48.6969C9.67117 49.8031 11.2615 47.9397 12.4796 47.2791C13.5164 46.7169 13.9037 45.7885 14.2147 45.4754C14.8699 44.8158 15.8385 47.2365 17.2636 48.2445C18.3574 49.0181 20.8939 48.7677 22.8454 48.1467C24.2619 47.6959 24.7219 46.138 25.2753 45.2673C25.8839 44.31 27.2143 46.6831 28.3596 47.482C30.294 48.8313 34.009 47.3863 35.1564 46.655C35.4093 46.4938 35.6068 46.2753 35.7815 46.0319C37.9466 43.0164 36.0978 35.8066 35.9584 34.4179C35.8201 33.0407 35.2656 31.9911 34.9192 30.8115C34.4721 29.289 33.88 28.2463 33.1519 27.1353C32.4549 26.0719 31.5915 25.1256 30.8291 24.2217C30.0667 23.3179 28.9577 22.7664 27.7448 21.9675C26.6678 21.2581 25.0798 21.0979 23.482 20.9252C22.1123 20.7772 20.844 21.0958 19.9453 21.6825C17.8662 23.0397 17.17 24.489 15.9207 25.498C14.4152 26.7139 12.5264 28.8579 10.7217 30.4193C8.84704 32.0411 7.52922 34.887 6.45364 38.353C5.96921 39.9141 5.86071 41.7525 6.13533 43.4855C6.31202 44.6005 8.76084 44.3988 10.7705 44.2958C12.5606 44.2041 13.3461 41.9813 14.2823 40.4875C15.977 37.7835 16.3253 34.9162 16.9203 32.5476C17.3784 30.724 18.1311 28.4647 18.7553 25.8662C18.9984 24.8538 18.9675 24.4349 18.5212 25.1495C16.9871 27.6062 15.2331 31.1381 13.5698 33.6325C12.1666 35.7368 11.6901 37.2504 11.2022 38.3957C10.9117 39.0776 10.5084 39.8863 10.3004 40.2025C9.06428 42.0813 11.5361 34.9203 12.93 33.0292C13.1372 32.7482 13.4834 32.6818 13.6936 32.7483C14.9041 33.1319 15.0105 37.5063 15.7376 41.4602C15.9754 42.7532 16.2587 42.5305 16.8454 41.4976C18.463 38.6495 19.6582 36.2892 20.1429 36.0427C21.02 35.5966 20.6318 39.1831 20.9407 40.2348C21.081 40.7122 21.8676 37.5791 22.1859 38.3C22.5042 39.0208 22.5042 42.7968 22.4699 42.5108C21.904 37.7949 22.3648 32.6838 22.5375 32.093C22.6194 31.8127 23.1263 33.982 23.4726 35.9949C23.5251 36.2996 23.9584 32.6422 24.3391 28.1995C24.3775 27.7516 24.8613 31.473 24.9997 35.6672C25.0589 37.4628 25.2088 33.1415 25.2431 26.6183C25.2532 24.6947 25.3461 25.5875 25.2098 28.9994C25.0735 32.4113 24.7303 38.3156 24.8624 40.4303C25.0248 43.0296 27.4223 36.0916 28.3918 34.3877C28.8793 33.531 29.7816 39.3724 30.4057 43.5416C30.9165 46.9541 31.034 37.1277 31.034 35.7046C31.034 33.9398 31.8662 41.2719 31.8662 41.1783C31.8662 35.185 31.4501 32.2698 31.2774 30.8812C31.2342 30.5336 31.242 30.1894 31.1391 30.1155C30.3529 29.5517 28.0007 32.869 25.5978 35.4092C23.4307 37.7001 22.4459 40.0839 21.2247 42.2767C20.734 43.1579 20.2865 43.9785 20.0784 44.0877C19.8032 44.2322 20.0077 42.7552 19.8017 42.465C19.4275 41.9377 18.6221 43.4938 18.4141 43.8423C17.8787 44.739 17.998 41.8357 17.6526 41.3509C17.4811 41.1101 17.17 41.0035 16.9255 41.0357C16.6811 41.068 16.4751 41.274 16.6093 41.3457C16.7435 41.4175 17.2241 41.3489 17.5746 41.1762C17.9252 41.0035 18.1311 40.7289 18.9675 40.4459" stroke="#E0D0FF" stroke-width="7.2" stroke-linecap="round"/>
<path d="M12.5681 29.959C12.1506 30.6444 11.8531 31.2993 11.5835 31.913C11.3677 32.404 11.1955 32.8832 11.0455 33.3617C10.8911 33.8539 10.8372 34.4063 10.6723 34.8847C10.5041 35.3729 10.2996 35.8397 10.1496 36.3182C10.0039 36.7826 10.0004 37.2732 9.89556 37.7516C9.78641 38.2497 9.79074 38.8554 9.64202 39.9851C9.16951 43.5745 9.70115 44.0821 9.80507 44.5605C9.99948 45.0389 10.1778 45.3973 10.3865 45.6356C10.477 45.7557 10.5361 45.8739 10.7762 45.9958" stroke="#E0D0FF" stroke-width="7.2" stroke-linecap="round"/>
<path d="M15.2998 37.1474C16.2609 37.7308 17.1856 37.8211 17.9905 37.6648C18.1874 37.5974 18.3993 37.5085 18.5791 37.4405C18.7589 37.3724 18.9002 37.328 19.2598 37.0127" stroke="#0D0D0D" stroke-width="1.8" stroke-linecap="round"/>
<path d="M24.5771 36.8047C25.5383 37.3881 26.463 37.4783 27.2678 37.322C27.4647 37.2547 27.6766 37.1657 27.8565 37.0977C28.0363 37.0297 28.1775 36.9852 28.5371 36.6699" stroke="#0D0D0D" stroke-width="1.8" stroke-linecap="round"/>
<path d="M18.9854 43.241C19.277 43.1321 19.9361 42.8382 20.6151 42.6182C21.1961 42.4298 21.8068 42.3981 24.4952 42.397C25.2182 42.5059 25.5494 42.6171 25.8971 42.6902C26.0633 42.7271 26.2085 42.7634 26.6883 42.9109" stroke="#0D0D0D" stroke-width="1.8" stroke-linecap="round"/>
<path d="M19.1955 1.91233C17.8874 2.0311 16.3161 2.22014 14.7741 2.46524C13.7454 2.62873 13.2914 2.80734 12.8753 2.97384C11.9639 3.33847 11.2687 3.76926 10.728 4.03541C9.15105 4.81162 9.08313 5.39854 8.86613 5.78573C8.44532 6.5366 8.78714 7.64939 9.0951 8.0012C9.45949 8.41748 11.1192 8.80007 13.276 9.36013C14.2715 9.61863 15.0982 9.74659 16.2205 9.84726C17.3428 9.94794 18.7439 9.99743 19.6353 10.0082C20.8664 10.0231 21.5309 9.89237 22.8819 9.69033C23.9123 9.53624 25.6622 9.35374 26.7677 9.20838C28.2931 9.00779 29.1507 8.70071 29.9269 8.33625C31.0573 7.80548 31.4852 7.09208 31.8656 5.89122C32.0157 5.4177 31.8978 5.06765 31.7943 4.79535C31.6113 4.31394 30.7317 3.8678 29.1511 3.27321C28.3169 2.9594 26.7542 2.71986 25.3946 2.48215C24.035 2.24444 22.8776 2.10801 22.1243 2.03425C21.0569 1.95354 20.637 1.92578 20.2978 1.89029C20.0549 1.8754 19.6683 1.86684 19.198 1.80046" stroke="#FFDE09" stroke-width="3.6" stroke-linecap="round"/>
</svg>
