<svg width="49" height="43" viewBox="0 0 49 43" fill="none" xmlns="http://www.w3.org/2000/svg">
<path d="M16.014 13.6293C12.8576 11.8276 10.4599 10.324 7.22005 10.2404C6.5006 10.2219 6.08891 10.911 5.78412 11.4393C5.17821 12.4895 5.17679 14.8169 5.47481 17.5984C5.86781 21.2664 11.7784 21.9017 15.1764 22.8816C15.8041 23.0626 15.8604 23.8524 15.3412 24.681C12.7386 28.8336 10.1529 31.8177 9.3175 34.8431C9.15516 35.431 9.24073 36.0442 9.53876 36.5003C9.83678 36.9563 10.4328 37.2543 11.3359 37.4079C12.239 37.5614 13.4311 37.5614 14.2687 37.0399C21.3463 32.633 16.312 16.5012 17.6644 13.7151C18.8713 11.2288 21.27 9.12285 24.5054 6.93963C27.2762 5.06985 31.0415 5.04986 34.0669 5.57367C34.7033 5.68385 35.268 6.09747 35.6496 6.54902C36.4075 7.44596 36.3337 8.80676 36.0357 10.0079C35.1592 13.5404 30.4816 15.878 24.765 18.6618C23.0209 19.5111 21.7396 20.0955 20.762 21.4456C19.7466 22.848 20.0779 24.909 20.3014 26.4872C20.6679 29.0745 25.0179 31.9712 28.1968 34.6941C29.2739 35.6167 30.608 35.9042 31.9582 36.0555C36.2675 36.5384 40.6866 32.9014 42.4251 30.3502C43.8625 28.2407 42.3573 25.6766 41.6823 24.4755C40.0815 21.6273 36.9478 19.8065 33.7869 17.7768C32.3812 16.8741 30.9241 16.3386 29.1224 16.6366C27.1381 16.9649 25.9526 18.5918 25.2752 20.0142C24.8444 20.919 25.045 22.4797 25.492 23.6943C27.0034 27.8011 31.2041 28.0699 34.8887 29.6548C35.8174 30.0542 36.7672 29.8851 37.3023 29.587C37.8373 29.289 37.9864 28.693 38.0631 28.0134C38.1399 27.3338 38.1399 26.5888 37.7674 25.9814C36.6498 24.9271 35.2861 24.3175 34.0105 24.0172C33.3309 23.8659 32.5858 23.7169 31.8182 23.5634" stroke="#FFF06C" stroke-width="10.56" stroke-linecap="round"/>
<path d="M17.4941 20.1578C17.4941 20.0429 17.6091 19.6964 17.8981 19.2036C18.3021 18.8832 18.7688 18.7073 19.2319 18.6203C19.4653 18.5907 19.6951 18.5907 20.2802 18.9389" stroke="#0D0D0D" stroke-width="2" stroke-linecap="round"/>
<path d="M25.9941 17.8037C25.9941 17.6887 26.0516 17.3997 26.2536 16.994C26.3981 16.8181 26.628 16.7032 27.0624 16.644C27.4969 16.5848 28.1289 16.5848 28.9543 16.7589" stroke="#0D0D0D" stroke-width="2" stroke-linecap="round"/>
<path d="M23.9941 22.8049C23.9941 23.0348 23.9941 24.4748 24.3389 26.4772C24.4684 27.2293 25.3732 27.1581 25.8146 27.0719C26.4683 26.9442 26.721 26.4058 26.9238 25.9427C27.1186 25.498 27.1284 24.783 27.0422 24.0003C26.3762 23.0974 25.7371 22.4584 25.2748 22.1972C24.9849 22.1084 24.5827 22.1084 24.1683 22.1084" stroke="#0D0D0D" stroke-width="2" stroke-linecap="round"/>
<path d="M37.754 19.6181C36.3375 19.7257 33.4559 20.3682 32.839 20.9382C32.1121 21.6098 32.2368 22.4551 32.362 23.319C32.4213 23.7289 32.8425 23.9293 33.1985 24.1124C34.0262 24.5382 36.541 24.1338 38.3726 23.7275C39.104 23.5653 39.7074 23.1378 40.1048 22.8071C40.4378 22.5299 40.5698 22.1501 40.6129 21.6544C40.6792 20.8937 40.3022 20.2841 39.9518 20.0121C39.4223 19.7247 38.9981 19.7084 38.6229 19.6501C38.3935 19.6431 38.085 19.682 37.7671 19.722" stroke="#FCA7A7" stroke-width="2.4576" stroke-linecap="round"/>
<path d="M33.5852 21.5206C33.5925 21.5788 33.6332 22.3714 33.7273 23.36C33.7435 23.5308 34.1562 22.5256 34.5296 22.06C34.9544 21.5303 34.9369 23.2564 35.1021 23.283C35.346 23.3223 35.6117 22.5284 35.8274 22.3161C36.0431 22.1038 36.1231 22.2708 36.1826 22.5022C36.2422 22.7335 36.2787 23.024 36.3392 23.0356C37.1307 23.1876 37.0069 21.7177 37.2596 21.4766C37.3748 21.3668 37.4962 22.038 37.6208 22.4414C37.7275 22.7868 37.9472 21.5994 38.0782 21.226C38.149 21.0242 38.3254 20.838 38.457 21.1582C38.5885 21.4784 38.6946 22.321 38.7563 22.577C38.8181 22.8331 38.8323 22.4771 38.8741 22.2156C38.9158 21.9541 38.9847 21.7979 39.1437 21.6258" stroke="#FCA7A7" stroke-width="2.4576" stroke-linecap="round"/>
<path d="M13.2257 24.0995C11.8092 24.2072 8.92755 24.8496 8.31067 25.4196C7.58381 26.0912 7.70851 26.9366 7.83363 27.8005C7.89298 28.2103 8.31414 28.4107 8.67018 28.5938C9.49789 29.0196 12.0127 28.6153 13.8443 28.2089C14.5757 28.0467 15.179 27.6193 15.5764 27.2885C15.9095 27.0113 16.0415 26.6316 16.0846 26.1359C16.1508 25.3751 15.7738 24.7655 15.4235 24.4936C14.8939 24.2061 14.4697 24.1899 14.0946 24.1316C13.8652 24.1246 13.5567 24.1634 13.2387 24.2034" stroke="#FCA7A7" stroke-width="2.4576" stroke-linecap="round"/>
<path d="M9.05683 26.0021C9.06415 26.0602 9.10491 26.8529 9.19895 27.8414C9.21521 28.0123 9.62787 27.0071 10.0013 26.5415C10.426 26.0118 10.4086 27.7379 10.5738 27.7645C10.8177 27.8038 11.0834 27.0099 11.2991 26.7976C11.5147 26.5853 11.5948 26.7523 11.6543 26.9836C11.7139 27.2149 11.7504 27.5055 11.8109 27.5171C12.6024 27.669 12.4786 26.1992 12.7313 25.9581C12.8465 25.8482 12.9679 26.5195 13.0925 26.9228C13.1991 27.2682 13.4189 26.0808 13.5499 25.7074C13.6207 25.5056 13.7971 25.3195 13.9286 25.6396C14.0602 25.9598 14.1662 26.8024 14.228 27.0585C14.2898 27.3146 14.304 26.9586 14.3457 26.6971C14.3875 26.4356 14.4564 26.2793 14.6154 26.1073" stroke="#FCA7A7" stroke-width="2.4576" stroke-linecap="round"/>
</svg>
