<svg width="49" height="43" viewBox="0 0 49 43" fill="none" xmlns="http://www.w3.org/2000/svg">
<path d="M16.014 13.6293C12.8576 11.8276 10.4599 10.324 7.22005 10.2404C6.5006 10.2219 6.08891 10.911 5.78412 11.4393C5.17821 12.4895 5.17679 14.8169 5.47481 17.5984C5.86781 21.2664 11.7784 21.9017 15.1764 22.8816C15.8041 23.0626 15.8604 23.8524 15.3412 24.681C12.7386 28.8336 10.1529 31.8177 9.3175 34.8431C9.15516 35.431 9.24073 36.0442 9.53876 36.5003C9.83678 36.9563 10.4328 37.2543 11.3359 37.4079C12.239 37.5614 13.4311 37.5614 14.2687 37.0399C21.3463 32.633 16.312 16.5012 17.6644 13.7151C18.8713 11.2288 21.27 9.12285 24.5054 6.93963C27.2762 5.06985 31.0415 5.04986 34.0669 5.57367C34.7033 5.68385 35.268 6.09747 35.6496 6.54902C36.4075 7.44596 36.3337 8.80676 36.0357 10.0079C35.1592 13.5404 30.4816 15.878 24.765 18.6618C23.0209 19.5111 21.7396 20.0955 20.762 21.4456C19.7466 22.848 20.0779 24.909 20.3014 26.4872C20.6679 29.0745 25.0179 31.9712 28.1968 34.6941C29.2739 35.6167 30.608 35.9042 31.9582 36.0555C36.2675 36.5384 40.6866 32.9014 42.4251 30.3502C43.8625 28.2407 42.3573 25.6766 41.6823 24.4755C40.0815 21.6273 36.9478 19.8065 33.7869 17.7768C32.3812 16.8741 30.9241 16.3386 29.1224 16.6366C27.1381 16.9649 25.9526 18.5918 25.2752 20.0142C24.8444 20.919 25.045 22.4797 25.492 23.6943C27.0034 27.8011 31.2041 28.0699 34.8887 29.6548C35.8174 30.0542 36.7672 29.8851 37.3023 29.587C37.8373 29.289 37.9864 28.693 38.0631 28.0134C38.1399 27.3338 38.1399 26.5888 37.7674 25.9814C36.6498 24.9271 35.2861 24.3175 34.0105 24.0172C33.3309 23.8659 32.5858 23.7169 31.8182 23.5634" stroke="#FFF06C" stroke-width="10.56" stroke-linecap="round"/>
<path d="M17.4941 20.1578C17.4941 20.0429 17.6091 19.6964 17.8981 19.2036C18.3021 18.8832 18.7688 18.7073 19.2319 18.6203C19.4653 18.5907 19.6951 18.5907 20.2802 18.9389" stroke="#0D0D0D" stroke-width="2" stroke-linecap="round"/>
<path d="M25.9941 17.8037C25.9941 17.6887 26.0516 17.3997 26.2536 16.994C26.3981 16.8181 26.628 16.7032 27.0624 16.644C27.4969 16.5848 28.1289 16.5848 28.9543 16.7589" stroke="#0D0D0D" stroke-width="2" stroke-linecap="round"/>
<path d="M23.9941 22.8049C23.9941 23.0348 23.9941 24.4748 24.3389 26.4772C24.4684 27.2293 25.3732 27.1581 25.8146 27.0719C26.4683 26.9442 26.721 26.4058 26.9238 25.9427C27.1186 25.498 27.1284 24.783 27.0422 24.0003C26.3762 23.0974 25.7371 22.4584 25.2748 22.1972C24.9849 22.1084 24.5827 22.1084 24.1683 22.1084" stroke="#0D0D0D" stroke-width="2" stroke-linecap="round"/>
<path d="M38.9481 17.4171C38.1988 17.4353 36.8345 17.8728 36.0283 18.2987C35.6682 18.4889 35.3016 18.6708 35.0706 18.9745C34.9616 19.1178 34.9675 19.3022 35.0628 19.3955C36.0756 20.3881 38.6069 18.9347 39.2386 18.6372C39.5481 18.4915 39.8241 18.3058 39.9322 18.019C39.9346 17.8713 39.8307 17.7193 39.69 17.6114C39.5493 17.5035 39.3749 17.4442 39.1953 17.3832" stroke="#FCA8A8" stroke-width="2.7" stroke-linecap="round"/>
<path d="M12.5358 23.1753C11.3204 23.1743 10.1608 23.2488 9.20758 23.5254C9.01699 23.5807 8.8774 23.7167 8.76949 23.8574C8.66157 23.9981 8.60234 24.1725 8.66458 24.3327C9.24662 25.831 12.8797 24.1785 13.5031 23.8205C13.6581 23.7315 13.8178 23.6722 13.809 23.5897C13.8002 23.5071 13.6203 23.4071 13.4432 23.3464C13.2662 23.2856 13.0974 23.2672 12.8 23.2651" stroke="#FCA8A8" stroke-width="2.7" stroke-linecap="round"/>
</svg>
