<svg width="49" height="43" viewBox="0 0 49 43" fill="none" xmlns="http://www.w3.org/2000/svg">
<path d="M16.014 13.6293C12.8576 11.8276 10.4599 10.324 7.22005 10.2404C6.5006 10.2219 6.08891 10.911 5.78412 11.4393C5.17821 12.4895 5.17679 14.8169 5.47481 17.5984C5.86781 21.2664 11.7784 21.9017 15.1764 22.8816C15.8041 23.0626 15.8604 23.8524 15.3412 24.681C12.7386 28.8336 10.1529 31.8177 9.3175 34.8431C9.15516 35.431 9.24073 36.0442 9.53876 36.5003C9.83678 36.9563 10.4328 37.2543 11.3359 37.4079C12.239 37.5614 13.4311 37.5614 14.2687 37.0399C21.3463 32.633 16.312 16.5012 17.6644 13.7151C18.8713 11.2288 21.27 9.12285 24.5054 6.93963C27.2762 5.06985 31.0415 5.04986 34.0669 5.57367C34.7033 5.68385 35.268 6.09747 35.6496 6.54902C36.4075 7.44596 36.3337 8.80676 36.0357 10.0079C35.1592 13.5404 30.4816 15.878 24.765 18.6618C23.0209 19.5111 21.7396 20.0955 20.762 21.4456C19.7466 22.848 20.0779 24.909 20.3014 26.4872C20.6679 29.0745 25.0179 31.9712 28.1968 34.6941C29.2739 35.6167 30.608 35.9042 31.9582 36.0555C36.2675 36.5384 40.6866 32.9014 42.4251 30.3502C43.8625 28.2407 42.3573 25.6766 41.6823 24.4755C40.0815 21.6273 36.9478 19.8065 33.7869 17.7768C32.3812 16.8741 30.9241 16.3386 29.1224 16.6366C27.1381 16.9649 25.9526 18.5918 25.2752 20.0142C24.8444 20.919 25.045 22.4797 25.492 23.6943C27.0034 27.8011 31.2041 28.0699 34.8887 29.6548C35.8174 30.0542 36.7672 29.8851 37.3023 29.587C37.8373 29.289 37.9864 28.693 38.0631 28.0134C38.1399 27.3338 38.1399 26.5888 37.7674 25.9814C36.6498 24.9271 35.2861 24.3175 34.0105 24.0172C33.3309 23.8659 32.5858 23.7169 31.8182 23.5634" stroke="#FFF06C" stroke-width="10.56" stroke-linecap="round"/>
<path d="M17.4941 20.1578C17.4941 20.0429 17.6091 19.6964 17.8981 19.2036C18.3021 18.8832 18.7688 18.7073 19.2319 18.6203C19.4653 18.5907 19.6951 18.5907 20.2802 18.9389" stroke="#0D0D0D" stroke-width="2" stroke-linecap="round"/>
<path d="M25.9941 17.8037C25.9941 17.6887 26.0516 17.3997 26.2536 16.994C26.3981 16.8181 26.628 16.7032 27.0624 16.644C27.4969 16.5848 28.1289 16.5848 28.9543 16.7589" stroke="#0D0D0D" stroke-width="2" stroke-linecap="round"/>
<path d="M23.9941 22.8049C23.9941 23.0348 23.9941 24.4748 24.3389 26.4772C24.4684 27.2293 25.3732 27.1581 25.8146 27.0719C26.4683 26.9442 26.721 26.4058 26.9238 25.9427C27.1186 25.498 27.1284 24.783 27.0422 24.0003C26.3762 23.0974 25.7371 22.4584 25.2748 22.1972C24.9849 22.1084 24.5827 22.1084 24.1683 22.1084" stroke="#0D0D0D" stroke-width="2" stroke-linecap="round"/>
<path d="M38.4375 18.6168C38.3166 18.9784 38.1819 19.2611 38.0279 19.4996C37.9463 19.6416 37.8577 19.8264 37.7819 20.012C37.7061 20.1977 37.6456 20.3785 37.3518 20.7716" stroke="#FCA8A8" stroke-width="1.4" stroke-linecap="round"/>
<path d="M5.89547 25.626C5.77461 25.9877 5.63993 26.2704 5.48592 26.5088C5.40433 26.6509 5.31576 26.8357 5.23992 27.0213C5.16407 27.2069 5.10364 27.3877 4.80982 27.7809" stroke="#FCA8A8" stroke-width="1.4" stroke-linecap="round"/>
<path d="M41.7265 17.889C41.5118 18.411 41.1308 18.9861 40.839 19.4921C40.7836 19.6165 40.7434 19.737 40.6884 19.8614C40.6334 19.9858 40.565 20.1103 40.4213 20.336" stroke="#FCA8A8" stroke-width="1.4" stroke-linecap="round"/>
<path d="M9.18447 24.8978C8.96982 25.4198 8.58877 25.9949 8.29704 26.5009C8.24165 26.6253 8.20136 26.7458 8.14639 26.8702C8.09143 26.9946 8.023 27.1191 7.87935 27.3448" stroke="#FCA8A8" stroke-width="1.4" stroke-linecap="round"/>
<path d="M45.3438 17.636C45.3518 17.6923 45.2955 17.9021 45.1576 18.2544C44.9876 18.5825 44.852 18.8645 44.7567 19.1094C44.7018 19.2338 44.6333 19.3583 44.5018 19.6693" stroke="#FCA8A8" stroke-width="1.4" stroke-linecap="round"/>
<path d="M12.8028 24.6448C12.8108 24.7011 12.7544 24.9109 12.6166 25.2632C12.4466 25.5913 12.311 25.8733 12.2157 26.1182C12.1607 26.2426 12.0923 26.3671 11.9608 26.6781" stroke="#FCA8A8" stroke-width="1.4" stroke-linecap="round"/>
</svg>
