<svg width="42" height="54" viewBox="0 0 42 54" fill="none" xmlns="http://www.w3.org/2000/svg">
<path d="M21.1508 10.5425C20.6252 12.49 18.5288 16.6859 17.221 18.9833C16.6418 20.0007 16.1918 20.8818 15.3486 22.2015C14.6212 23.3402 14.0289 24.9415 13.3948 26.3974C12.7773 27.815 12.5501 29.3242 12.022 30.594C11.6558 31.4747 11.2834 32.9627 10.7815 34.683C10.4607 35.7826 10.5424 38.4411 10.7261 40.3316C10.852 41.6285 11.6476 42.6275 12.5445 44.2615C13.1459 45.3571 14.5451 46.1109 15.7374 46.7988C16.7614 47.3897 17.9271 47.5929 20.6354 47.8557C24.5603 48.2366 25.6317 47.7512 26.6886 47.5937C27.704 47.4423 28.5356 47.1717 29.5909 46.7767C30.9535 46.2666 31.5978 45.221 32.3633 44.4032C33.2119 43.4967 33.3933 42.2665 33.7638 41.421C34.109 40.6331 34.2388 39.5241 34.3188 38.5709C34.404 37.5554 34.7138 36.4081 34.7415 30.385C34.7515 28.2175 34.242 27.383 33.7139 26.1432C33.2848 25.1357 32.7125 23.849 32.0783 22.6068C31.5074 21.4884 30.9169 20.5746 30.3366 19.5977C29.8072 18.7063 28.9662 17.7277 28.226 16.6946C27.4729 15.6434 26.7496 14.8745 26.0093 14.1343C25.0585 13.1835 24.2162 12.5502 23.5282 11.8385C23.2043 11.5033 22.8941 11.1774 22.526 10.9399C22.3358 10.8172 22.0533 10.8592 21.8926 10.9898C21.0969 11.6366 21.4675 15.3179 21.3361 17.5575C21.2154 19.615 20.8342 22.4619 20.6505 23.864C20.4566 25.3442 20.2008 26.4773 19.5437 30.3716C19.233 32.213 18.9373 34.4384 18.4868 37.081C18.3962 37.6129 18.3546 37.9281 19.1637 36.8617C19.9728 35.7953 21.6448 33.3396 22.9764 31.1601C24.308 28.9806 25.2485 27.1518 25.8637 26.3926C26.4788 25.6334 26.7401 25.9991 26.9269 26.4749C27.3254 27.4897 27.3781 29.5807 27.4051 32.2938C27.4488 36.7054 25.8486 39.1457 25.7695 39.3064C25.0676 40.7312 27.1074 35.5182 28.5087 34.6632C28.7629 34.5081 29.0106 34.6094 29.2489 34.7662C29.8221 35.1432 30.1221 35.7684 30.2804 36.3986C30.3839 36.8104 30.3343 37.4468 30.2559 37.8481C30.1398 38.4426 27.6647 38.5678 25.4837 39.0404C24.2507 39.3076 23.4784 40.6736 23.0509 41.5207C23.1015 41.6806 23.3105 41.7852 23.5227 41.9174C23.7349 42.0496 23.9439 42.2063 24.1592 42.3678" stroke="#C8E1FF" stroke-width="11.495" stroke-linecap="round"/>
<path d="M32.166 25.2295C32.3854 26.3293 32.737 27.1199 33.1779 27.761C33.6028 28.3789 33.9268 29.1477 34.3676 29.8754C34.8123 30.6095 34.9843 31.395 35.1839 32.1663C35.3213 32.6972 35.25 33.2034 35.3161 34.5365C35.5971 40.2037 34.8548 40.9129 34.6565 41.6188C34.4457 42.3692 33.9744 43.0279 33.6214 43.7338C33.2762 44.4243 32.7846 45.0108 32.2783 45.5634C31.5949 45.9388 31.0661 46.1596 30.6272 46.2257C30.3629 46.2482 30.0139 46.2482 29.6543 46.2482" stroke="#C8E1FF" stroke-width="11.495" stroke-linecap="round"/>
<path d="M29.522 20.4707C30.0058 20.9096 30.5319 21.8746 31.1063 22.8469C31.5886 23.6632 31.8116 24.3889 32.2742 24.9851C32.74 25.5853 32.8691 26.3718 33.0905 27.0777C33.3161 27.7967 33.7944 28.4869 34.2571 29.0831C34.7352 29.6991 34.8969 30.4698 35.1613 31.1757C35.426 31.8825 35.4257 32.7171 35.4488 36.6267C35.4576 38.1079 34.8996 38.8852 34.4587 39.636C34.0888 40.2661 33.4481 41.0003 32.807 41.6639C32.4778 41.7537 32.0363 41.841 31.5088 41.995C31.2431 42.0618 30.9814 42.1054 30.7117 42.1503" stroke="#C8E1FF" stroke-width="11.495" stroke-linecap="round"/>
<path d="M25.8755 21.5571L26.4455 21.7444" stroke="#0D0D0D" stroke-width="2.5" stroke-linecap="round"/>
<path d="M18.9097 22.7441L19.4797 22.5569" stroke="#0D0D0D" stroke-width="2.5" stroke-linecap="round"/>
<path d="M19.5464 29.6682C20.0047 29.5432 20.8658 29.208 22.0107 28.7664C22.9265 28.5331 23.8552 28.3229 24.9881 28.0707C25.6001 27.9643 26.2876 27.9018 26.996 27.8374" stroke="#0D0D0D" stroke-width="2" stroke-linecap="round"/>
<path d="M9.83894 16.497C9.92829 13.4925 10.2706 11.388 10.4865 10.2767C10.6242 9.56793 11.2368 8.32363 12.3428 6.67275C14.6032 3.29857 17.3638 2.68048 18.3763 2.48738C20.1016 2.15835 22.8342 1.93949 23.8788 2.01415C25.1626 2.1059 26.0582 2.15217 26.9473 2.17126C28.3157 2.20064 29.5975 2.96538 30.4403 3.43332C31.3758 3.95274 32.2755 4.81502 32.9142 5.65068C33.5036 6.4219 34.0209 7.11915 34.3558 7.86791C34.6851 8.60435 34.9757 10.6344 35.0605 13.2304C35.0922 14.1985 34.5443 14.4359 34.2159 14.5991C33.2303 15.0888 32.3104 15.1432 31.315 15.4568C29.2643 16.1027 26.7835 16.2331 23.7881 16.7566C21.6635 17.1279 17.662 17.4991 15.4371 17.7353C12.0938 18.0903 10.7164 18.0676 9.39772 18.1475C8.50861 18.2014 7.51812 18.0496 6.33493 18.0391C5.17185 18.0288 4.07363 17.6178 3.16017 17.4031C2.74615 17.3058 2.34024 17.1302 2.09567 16.9383C1.49926 16.4701 3.88695 15.7214 4.81374 15.193C5.61261 14.7376 6.60247 14.515 7.48083 14.241C7.69211 14.1425 7.87301 14.0239 8.13433 13.9431C8.39564 13.8623 8.7319 13.823 9.07834 13.7824" stroke="#37A2FF" stroke-width="4" stroke-linecap="round"/>
<path d="M16.3776 5.54966C14.332 8.19154 13.1011 10.3071 12.4976 12.2917C12.1834 13.325 12.1608 14.059 12.2777 14.024C13.245 13.7336 13.4704 11.8472 14.2232 10.7283C15.9251 8.199 18.4473 4.82623 19.4613 3.76309C19.6505 3.5647 19.4178 5.42678 18.6627 7.77437C17.425 11.6226 14.4798 13.637 13.5674 14.2883C13.2126 14.5416 12.6067 14.8922 12.3715 15.0201C12.1878 15.12 13.3178 14.4253 14.8418 13.1939C16.3658 11.9626 18.6187 9.99442 20.0338 8.65853C21.4489 7.32264 21.9578 6.6787 22.2836 6.26648C22.7367 5.69327 21.2561 7.56656 18.3493 11.0515C15.2643 14.7501 14.0442 15.4115 13.4942 16.1894C13.245 16.5417 15.7386 14.2052 19.8125 10.3593C21.7809 8.50097 22.4721 7.64255 23.1401 6.82651C23.3056 6.6244 23.41 6.40239 23.4317 6.15342C23.4535 5.90444 23.3717 5.62185 23.1049 5.42953C22.8382 5.23722 22.389 5.14374 22.2749 5.0575C21.3349 4.34727 25.9605 4.71957 27.5736 4.80365C28.5795 4.85608 29.7838 5.00962 31.0987 5.49532C32.3487 5.95708 32.7559 7.65706 33.1209 8.87153C33.5791 10.396 32.9495 11.3765 32.3869 12.2304C31.9675 12.867 30.6571 13.1723 28.2 13.7057C23.9087 14.6374 20.752 14.7277 20.0411 14.7372C18.8891 14.7526 17.6681 14.8425 17.122 14.6143C16.1482 14.2074 18.7057 12.4633 19.8804 11.3931C22.9659 8.58221 25.9225 6.00781 26.2699 5.6233C26.4348 5.44084 26.6287 5.33486 26.6708 5.66932C26.9965 8.25588 24.7398 10.5127 24.2624 11.3374C23.0383 13.4518 27.7314 8.00939 27.9437 7.93287C29.3697 7.41913 27.29 10.9061 27.139 11.7649C26.852 13.3969 29.151 9.21989 29.6166 8.79793C29.8744 8.56429 30.1133 8.22624 30.3612 8.85017C30.6092 9.47409 30.8429 11.0537 29.6338 11.95C24.0819 16.0661 22.1389 13.1384 21.5793 13.1796C21.3085 13.1995 21.0621 13.1671 21.3608 12.8392C21.6596 12.5113 22.5104 11.876 23.0688 11.5347C23.6272 11.1934 23.8674 11.1652 24.1149 11.1363" stroke="#37A2FF" stroke-width="4" stroke-linecap="round"/>
<path d="M20.2935 3.91748L20.324 4.17808" stroke="white" stroke-width="2" stroke-linecap="round"/>
<path d="M29.375 5.89209L29.5053 5.87683" stroke="white" stroke-width="2" stroke-linecap="round"/>
<path d="M24.0312 8.76318L24.0618 9.02378" stroke="white" stroke-width="2" stroke-linecap="round"/>
<path d="M13.5547 8.40527L13.685 8.39001" stroke="white" stroke-width="2" stroke-linecap="round"/>
<path d="M3.82861 16.4658L4.15989 16.427" stroke="white" stroke-width="2" stroke-linecap="round"/>
<path d="M10.687 17.6772L10.7129 17.8981" stroke="white" stroke-width="2" stroke-linecap="round"/>
<path d="M22.3848 17.2029L22.2873 17.3262" stroke="white" stroke-width="2" stroke-linecap="round"/>
<path d="M16.5073 16.3062L16.5745 16.2983" stroke="white" stroke-width="2" stroke-linecap="round"/>
<path d="M31.7109 14.5088L31.7267 14.6432" stroke="white" stroke-width="2" stroke-linecap="round"/>
<path d="M8.41748 12.2129C8.97647 12.4566 10.6485 13.1458 12.2284 13.4978C13.2861 13.7335 14.5505 13.803 15.5088 13.8034C16.2465 13.8037 16.9556 13.8332 18.0707 13.8805C18.6926 13.9069 19.1897 13.9274 21.0439 13.7769C22.723 13.6406 25.8867 13.2324 27.6242 13.0069C30.0228 12.6956 31.3883 12.3215 32.4313 12.0668C33.3758 11.7782 34.153 11.5979 34.8397 11.3849C35.0108 11.3202 35.1792 11.2565 35.7164 10.8817" stroke="#078BFF" stroke-width="4" stroke-linecap="round"/>
</svg>
