<svg width="41" height="56" viewBox="0 0 41 56" fill="none" xmlns="http://www.w3.org/2000/svg">
<path d="M20.0537 12.3159C19.528 14.2634 17.4316 18.4593 16.1238 20.7568C15.5446 21.7742 15.0946 22.6552 14.2515 23.9749C13.524 25.1136 12.9318 26.7149 12.2976 28.1708C11.6802 29.5884 11.4529 31.0976 10.9249 32.3675C10.5587 33.2481 10.1862 34.7362 9.6843 36.4565C9.36349 37.556 9.44521 40.2146 9.62888 42.1051C9.75487 43.4019 10.5504 44.4009 11.4474 46.0349C12.0488 47.1305 13.4479 47.8843 14.6402 48.5723C15.6642 49.1631 16.83 49.3663 19.5383 49.6291C23.4632 50.0101 24.5345 49.5246 25.5914 49.3671C26.6068 49.2157 27.4384 48.9451 28.4937 48.5501C29.8564 48.04 30.5006 46.9945 31.2662 46.1767C32.1147 45.2702 32.2961 44.0399 32.6666 43.1944C33.0119 42.4065 33.1416 41.2976 33.2216 40.3444C33.3068 39.3289 33.6166 38.1815 33.6444 32.1585C33.6543 29.9909 33.1448 29.1564 32.6168 27.9167C32.1876 26.9092 31.6153 25.6224 30.9812 24.3803C30.4102 23.2619 29.8198 22.348 29.2395 21.3711C28.71 20.4798 27.8691 19.5012 27.1289 18.468C26.3757 17.4169 25.6524 16.648 24.9122 15.9077C23.9614 14.9569 23.119 14.3236 22.4311 13.6119C22.1071 13.2767 21.7969 12.9508 21.4288 12.7133C21.2387 12.5907 20.9562 12.6326 20.7955 12.7632C19.9997 13.41 20.3703 17.0913 20.2389 19.3309C20.1182 21.3884 19.737 24.2354 19.5533 25.6374C19.3594 27.1176 19.1036 28.2508 18.4466 32.145C18.1359 33.9864 17.8401 36.2118 17.3897 38.8544C17.299 39.3863 17.2575 39.7015 18.0666 38.6352C18.8757 37.5688 20.5477 35.113 21.8793 32.9335C23.2109 30.754 24.1514 28.9253 24.7665 28.166C25.3816 27.4068 25.6429 27.7726 25.8297 28.2484C26.2282 29.2631 26.281 31.3541 26.3079 34.0672C26.3517 38.4789 24.7515 40.9191 24.6723 41.0798C23.9704 42.5046 26.0102 37.2917 27.4115 36.4367C27.6657 36.2815 27.9134 36.3828 28.1517 36.5396C28.7249 36.9166 29.0249 37.5419 29.1833 38.172C29.2867 38.5838 29.2371 39.2202 29.1587 39.6216C29.0426 40.216 26.5676 40.3412 24.3865 40.8138C23.1536 41.081 22.3812 42.4471 21.9537 43.2942C22.0044 43.4541 22.2134 43.5586 22.4255 43.6908C22.6377 43.823 22.8467 43.9798 23.062 44.1413" stroke="#C8E1FF" stroke-width="11.495" stroke-linecap="round"/>
<path d="M31.0688 27.0029C31.2882 28.1028 31.6399 28.8933 32.0807 29.5344C32.5056 30.1523 32.8296 30.9211 33.2705 31.6488C33.7152 32.3829 33.8871 33.1684 34.0868 33.9398C34.2242 34.4707 34.1529 34.9768 34.219 36.31C34.4999 41.9771 33.7576 42.6863 33.5593 43.3922C33.3485 44.1426 32.8772 44.8014 32.5242 45.5073C32.179 46.1977 31.6875 46.7843 31.1812 47.3368C30.4977 47.7123 29.969 47.933 29.5301 47.9991C29.2657 48.0216 28.9167 48.0216 28.5571 48.0216" stroke="#C8E1FF" stroke-width="11.495" stroke-linecap="round"/>
<path d="M28.4248 22.2441C28.9086 22.683 29.4348 23.648 30.0091 24.6203C30.4914 25.4367 30.7144 26.1623 31.1771 26.7585C31.6428 27.3587 31.7719 28.1452 31.9934 28.8511C32.2189 29.5702 32.6973 30.2603 33.16 30.8565C33.638 31.4725 33.7998 32.2432 34.0642 32.9491C34.3289 33.6559 34.3285 34.4905 34.3517 38.4001C34.3604 39.8813 33.8024 40.6586 33.3615 41.4095C32.9916 42.0396 32.3509 42.7737 31.7098 43.4373C31.3806 43.5272 30.9391 43.6144 30.4117 43.7684C30.146 43.8352 29.8842 43.8788 29.6145 43.9238" stroke="#C8E1FF" stroke-width="11.495" stroke-linecap="round"/>
<path d="M24.7783 23.3306L25.3484 23.5178" stroke="#0D0D0D" stroke-width="2.5" stroke-linecap="round"/>
<path d="M17.8125 24.5176L18.3825 24.3304" stroke="#0D0D0D" stroke-width="2.5" stroke-linecap="round"/>
<path d="M18.4492 31.4417C18.9076 31.3167 19.7687 30.9814 20.9136 30.5398C21.8293 30.3066 22.758 30.0963 23.8909 29.8441C24.503 29.7377 25.1905 29.6752 25.8988 29.6108" stroke="#0D0D0D" stroke-width="2" stroke-linecap="round"/>
<path d="M9.84335 16.1843C10.002 13.1827 10.3927 11.0866 10.6342 9.98057C10.7882 9.27518 11.4294 8.04534 12.5731 6.42041C14.9107 3.09926 17.6849 2.54502 18.7016 2.37533C20.434 2.08618 23.1709 1.9304 24.2135 2.02913C25.4949 2.15047 26.3892 2.21738 27.2776 2.25698C28.6449 2.31792 29.9088 3.11202 30.7406 3.59927C31.6639 4.14014 32.5434 5.02293 33.1626 5.8731C33.7341 6.65772 34.2352 7.36671 34.5527 8.123C34.865 8.86683 35.1086 10.9031 35.1336 13.5003C35.1429 14.4689 34.5897 14.6936 34.2576 14.8492C33.261 15.316 32.3401 15.3492 31.3377 15.6397C29.2727 16.2382 26.7895 16.3113 23.7828 16.7656C21.6502 17.0877 17.6412 17.3666 15.4115 17.5514C12.0608 17.8292 10.6844 17.7747 9.36418 17.8242C8.47406 17.8575 7.48734 17.683 6.3047 17.6452C5.14217 17.6081 4.05373 17.1718 3.14546 16.9361C2.73379 16.8293 2.33204 16.6444 2.09197 16.4468C1.50651 15.9651 3.91084 15.2716 4.84957 14.7648C5.65873 14.3279 6.65346 14.1282 7.53791 13.8745C7.75141 13.7809 7.93499 13.6665 8.1981 13.5918C8.46121 13.517 8.79828 13.4854 9.14557 13.4529" stroke="#F15659" stroke-width="4" stroke-linecap="round"/>
<path d="M16.6326 5.3904C14.5266 7.9844 13.2473 10.071 12.5981 12.0411C12.2601 13.067 12.2207 13.8003 12.3383 13.7679C13.3121 13.4999 13.5809 11.6192 14.3594 10.518C16.1191 8.02861 18.7184 4.71491 19.7566 3.67544C19.9504 3.48146 19.6748 5.33768 18.8658 7.66723C17.5397 11.4859 14.5487 13.4318 13.6216 14.0619C13.2611 14.3069 12.6472 14.6435 12.4091 14.7659C12.2232 14.8615 13.3689 14.1931 14.9209 12.9972C16.4729 11.8014 18.7706 9.88567 20.2161 8.58278C21.6617 7.27989 22.1853 6.64786 22.5205 6.24326C22.9866 5.68065 21.4633 7.5193 18.4769 10.9363C15.3074 14.5627 14.0724 15.1958 13.5045 15.9608C13.2473 16.3072 15.7941 14.0289 19.9556 10.278C21.9664 8.46556 22.6772 7.62331 23.3639 6.82289C23.534 6.62465 23.6434 6.40512 23.6709 6.15671C23.6984 5.9083 23.6231 5.6239 23.3609 5.42548C23.0987 5.22706 22.6517 5.12325 22.5396 5.0344C21.6163 4.30268 26.2321 4.78157 27.8428 4.90283C28.8473 4.97845 30.0477 5.15973 31.351 5.67563C32.5901 6.1661 32.9579 7.87501 33.2948 9.09758C33.7178 10.6322 33.0657 11.598 32.4836 12.4386C32.0496 13.0654 30.7325 13.3404 28.2637 13.817C23.9521 14.6494 20.7941 14.6669 20.0832 14.66C18.9312 14.6488 17.7084 14.7105 17.1677 14.4698C16.2036 14.0405 18.8006 12.3559 19.9997 11.3131C23.1492 8.57411 26.1643 6.06859 26.5206 5.69219C26.6897 5.51359 26.8859 5.41211 26.9203 5.74745C27.1863 8.34084 24.8781 10.545 24.3818 11.3584C23.1093 13.4441 27.9266 8.11136 28.1407 8.03976C29.5781 7.55904 27.4185 10.9971 27.2477 11.8522C26.9232 13.4772 29.3179 9.35428 29.7931 8.94318C30.0562 8.71554 30.3029 8.3831 30.5364 9.01257C30.7699 9.64205 30.967 11.2266 29.7376 12.0948C24.0922 16.0818 22.2173 13.11 21.6569 13.1383C21.3857 13.152 21.1401 13.1139 21.4464 12.793C21.7526 12.472 22.6179 11.8565 23.184 11.5282C23.7501 11.1998 23.9909 11.1772 24.2389 11.154" stroke="#F15659" stroke-width="4" stroke-linecap="round"/>
<path d="M8.521 11.8687C9.07421 12.1252 10.7299 12.8527 12.3013 13.2412C13.3533 13.5012 14.6157 13.5998 15.5737 13.6223C16.3112 13.6396 17.0195 13.6854 18.1332 13.7585C18.7543 13.7992 19.2508 13.8312 21.108 13.7235C22.7898 13.6259 25.9621 13.2908 27.7043 13.1055C30.1095 12.8496 31.4832 12.5071 32.5318 12.2765C33.4827 12.0098 34.2638 11.8475 34.9553 11.6503C35.1278 11.5896 35.2977 11.5298 35.8434 11.1675" stroke="#D93033" stroke-width="4" stroke-linecap="round"/>
<path d="M8.96191 10.002C9.35692 10.1047 10.2294 10.3764 10.8128 10.5684C11.4269 10.7705 12.0726 10.8388 12.6569 10.8549C13.3646 10.8745 14.0605 10.97 14.6871 11.0526C15.4432 11.1522 16.2247 11.0846 16.8486 11.15C17.7418 11.2436 18.5902 11.1105 19.4406 11.1361C20.3306 11.1629 21.7976 11.1273 22.775 11.1235C23.6036 11.1203 24.1682 11.1168 24.8077 11.1621C25.0209 11.1773 25.3012 11.1862 26.6751 11.0754C28.049 10.9645 30.5079 10.7339 31.8596 10.5897C33.7393 10.3891 34.6946 10.1295 35.5092 9.93031C35.7948 9.78071 36.0661 9.64833 36.3371 9.53504C36.4728 9.46938 36.6048 9.38712 36.731 9.19742" stroke="#FFF06C" stroke-linecap="round"/>
</svg>
