<svg width="41" height="55" viewBox="0 0 41 55" fill="none" xmlns="http://www.w3.org/2000/svg">
<path d="M18.686 11.0005C18.1603 12.948 16.064 17.1439 14.7561 19.4413C14.1769 20.4588 13.7269 21.3398 12.8838 22.6595C12.1563 23.7982 11.5641 25.3995 10.9299 26.8554C10.3125 28.273 10.0852 29.7822 9.55718 31.052C9.19099 31.9327 8.81855 33.4207 8.31662 35.141C7.99582 36.2406 8.07754 38.8991 8.26121 40.7896C8.38719 42.0865 9.18272 43.0855 10.0797 44.7195C10.6811 45.8151 12.0803 46.5689 13.2725 47.2568C14.2965 47.8477 15.4623 48.0509 18.1706 48.3137C22.0955 48.6946 23.1669 48.2092 24.2237 48.0517C25.2392 47.9003 26.0707 47.6297 27.126 47.2347C28.4887 46.7246 29.1329 45.679 29.8985 44.8612C30.7471 43.9547 30.9285 42.7245 31.299 41.879C31.6442 41.0911 31.774 39.9821 31.8539 39.029C31.9391 38.0134 32.249 36.8661 32.2767 30.843C32.2866 28.6755 31.7771 27.841 31.2491 26.6012C30.82 25.5938 30.2476 24.307 29.6135 23.0648C29.0425 21.9464 28.4521 21.0326 27.8718 20.0557C27.3423 19.1643 26.5014 18.1857 25.7612 17.1526C25.008 16.1014 24.2847 15.3325 23.5445 14.5923C22.5937 13.6415 21.7514 13.0082 21.0634 12.2965C20.7394 11.9613 20.4293 11.6354 20.0611 11.3979C19.871 11.2752 19.5885 11.3172 19.4278 11.4478C18.632 12.0946 19.0027 15.7759 18.8712 18.0155C18.7505 20.073 18.3693 22.9199 18.1856 24.322C17.9917 25.8022 17.736 26.9353 17.0789 30.8296C16.7682 32.671 16.4725 34.8964 16.022 37.539C15.9313 38.0709 15.8898 38.3861 16.6989 37.3197C17.508 36.2533 19.18 33.7976 20.5116 31.6181C21.8432 29.4386 22.7837 27.6098 23.3988 26.8506C24.014 26.0914 24.2752 26.4572 24.4621 26.9329C24.8605 27.9477 24.9133 30.0387 24.9402 32.7518C24.984 37.1634 23.3838 39.6037 23.3046 39.7644C22.6028 41.1892 24.6425 35.9763 26.0438 35.1212C26.2981 34.9661 26.5457 35.0674 26.784 35.2242C27.3572 35.6012 27.6573 36.2264 27.8156 36.8566C27.9191 37.2684 27.8694 37.9048 27.791 38.3062C27.675 38.9006 25.1999 39.0258 23.0188 39.4984C21.7859 39.7656 21.0135 41.1316 20.586 41.9787C20.6367 42.1387 20.8457 42.2432 21.0578 42.3754C21.27 42.5076 21.479 42.6643 21.6944 42.8258" stroke="#C8E1FF" stroke-width="11.495" stroke-linecap="round"/>
<path d="M29.7011 25.6875C29.9206 26.7873 30.2722 27.5779 30.7131 28.219C31.138 28.8369 31.4619 29.6057 31.9028 30.3334C32.3475 31.0675 32.5195 31.853 32.7191 32.6243C32.8565 33.1552 32.7852 33.6614 32.8513 34.9945C33.1322 40.6617 32.3899 41.3709 32.1916 42.0768C31.9809 42.8272 31.5095 43.4859 31.1566 44.1919C30.8113 44.8823 30.3198 45.4688 29.8135 46.0214C29.1301 46.3968 28.6013 46.6176 28.1624 46.6837C27.898 46.7062 27.549 46.7062 27.1895 46.7062" stroke="#C8E1FF" stroke-width="11.495" stroke-linecap="round"/>
<path d="M27.0571 20.9287C27.541 21.3676 28.0671 22.3326 28.6415 23.3049C29.1237 24.1212 29.3467 24.8469 29.8094 25.4431C30.2752 26.0433 30.4043 26.8298 30.6257 27.5357C30.8512 28.2547 31.3296 28.9449 31.7923 29.5411C32.2703 30.1571 32.4321 30.9278 32.6965 31.6337C32.9612 32.3405 32.9609 33.1751 32.984 37.0847C32.9928 38.5659 32.4347 39.3432 31.9939 40.094C31.6239 40.7241 30.9833 41.4583 30.3421 42.1219C30.013 42.2118 29.5714 42.299 29.044 42.453C28.7783 42.5198 28.5165 42.5634 28.2469 42.6083" stroke="#C8E1FF" stroke-width="11.495" stroke-linecap="round"/>
<path d="M23.4106 22.0151L23.9807 22.2024" stroke="#0D0D0D" stroke-width="2.5" stroke-linecap="round"/>
<path d="M16.4448 23.2021L17.0149 23.0149" stroke="#0D0D0D" stroke-width="2.5" stroke-linecap="round"/>
<path d="M17.0815 30.1262C17.5399 30.0012 18.401 29.666 19.5459 29.2244C20.4616 28.9911 21.3903 28.7809 22.5232 28.5287C23.1353 28.4223 23.8228 28.3598 24.5311 28.2954" stroke="#0D0D0D" stroke-width="2" stroke-linecap="round"/>
<path d="M7.39659 6.66522C4.86689 6.91563 3.8463 7.66981 2.6875 8.75755C2.14979 9.2623 2.05142 9.92626 2.00879 10.7232C1.92655 12.2604 2.4414 13.4654 2.73401 13.9113C3.31214 14.7922 4.79462 15.2914 6.18569 15.4852C7.45327 15.6617 8.3786 15.5637 10.1751 15.3904C11.6315 15.2499 13.2018 15.5549 14.2161 15.6211C15.268 15.6897 16.4227 16.183 18.304 16.7926C19.9164 17.3151 21.0024 17.3419 22.0201 17.2775C23.7475 17.168 25.5493 16.8111 26.4498 16.4542C27.3506 16.0971 28.0206 15.03 28.9371 14.4128C29.7418 13.871 30.578 13.4895 31.5368 13.1753C32.3865 12.8968 35.194 12.4838 37.0992 12.0134C38.1964 11.7425 38.1795 10.1719 38.3303 9.04636C38.4279 8.31726 38.1449 7.70905 37.9384 7.32818C37.4535 6.43381 36.2201 6.028 35.3023 5.53939C34.4121 5.06547 33.1172 4.76734 31.1439 4.22139C29.4469 3.75186 28.3639 4.19641 27.2155 4.22909C24.7458 4.29936 23.8828 4.82281 22.9168 5.08569C22.0485 5.32198 21.1892 5.7631 20.2887 6.12004C19.1244 6.58153 14.4851 7.52279 11.8382 7.73952C10.6686 7.83528 9.23653 7.64032 7.53872 7.82527C5.8704 8.00701 6.64364 10.8216 6.43386 11.5249C6.07531 12.7268 5.90209 9.18621 5.51163 9.13682C3.57293 8.89156 3.1441 12.597 3.07348 13.0174C2.89029 14.1078 8.03253 11.4131 9.72169 10.6263C11.5762 9.76246 7.85276 13.2235 7.78246 13.4644C7.48472 14.4846 11.6705 11.6747 13.1443 10.5098C14.4699 9.46208 10.3637 13.1806 10.3493 13.2865C9.93192 16.3475 16.4659 9.56106 18.052 8.95119C18.6878 8.70671 16.39 11.7621 15.0779 13.4389C14.3024 14.4299 18.9526 10.5012 21.6396 8.96879C22.511 8.47185 22.5425 8.8549 21.8208 9.69747C21.0991 10.54 19.6639 11.9098 18.764 12.7395C17.5666 13.8436 20.0675 11.59 24.272 8.04784C25.2409 7.23158 20.6409 12.8823 18.4725 15.4143C14.8887 19.599 25.7243 11.0873 26.0758 11.1891C27.2158 11.5192 23.6602 13.8312 22.7726 14.7046C19.3833 18.0398 27.9775 11.0296 28.2267 10.967C29.9946 10.5232 25.9746 13.9251 25.7565 14.0341C23.9393 14.9426 28.9397 11.6652 29.1778 11.528C29.4407 11.3764 28.8911 12.3868 28.6555 12.7285C27.603 14.2551 32.8048 9.58461 33.4961 9.384C33.8022 9.29517 33.1422 10.4555 32.582 11.049C32.3638 11.2803 33.3146 9.92615 34.0599 9.38451C34.3188 9.19634 34.483 9.44705 34.631 9.40403C34.7791 9.361 34.9436 9.08384 34.8719 8.9121C33.7726 6.28121 26.8562 9.54274 25.5404 9.34234C25.2575 9.29925 25.0486 9.12997 25.0563 9.02493C25.0791 8.71192 28.0488 8.39944 31.7192 7.83554C32.9024 7.65376 32.6834 7.54827 31.8441 7.38447C31.0048 7.22068 29.5461 6.9671 29.1007 6.84451C27.6798 6.45337 32.5023 7.05755 33.1589 6.96655C33.4713 6.92325 30.5297 6.72023 26.8827 6.84495C22.1035 7.00838 20.2557 7.12897 18.2071 7.36141C17.721 7.41657 17.3472 7.63411 17.2556 7.75012C17.164 7.86613 17.3774 7.93797 17.6618 7.95058C19.313 8.02382 21.0541 7.06665 23.0943 6.6536C24.094 6.48769 25.6894 6.26467 26.6394 6.15728C27.5895 6.0499 27.8457 6.06491 28.2608 6.05926" stroke="white" stroke-width="4" stroke-linecap="round"/>
<path d="M21.163 2.47816C21.0759 2.44884 20.4295 2.43483 18.6586 2.5981C17.4832 2.70648 15.7708 3.08352 14.6221 3.36985C12.9181 3.79459 12.27 4.22369 11.9885 4.37811C11.3267 4.74115 10.2344 5.36529 9.71971 5.77458C9.54471 5.91375 9.41277 6.13158 9.36888 6.49235C9.30154 7.04591 9.51633 7.47971 9.65755 7.66904C10.096 8.25684 11.3632 8.12387 12.346 8.10124C12.6224 8.09488 12.9792 8.12812 13.9382 8.05694C15.7357 7.92354 17.158 7.58675 17.6526 7.45472C18.3274 7.27462 19.2268 7.08754 19.8669 6.94588C20.6291 6.7772 21.04 6.70832 21.8671 6.41538C22.4454 6.21059 22.9562 6.02168 23.3635 5.78679C23.5277 5.69213 23.7213 5.64247 23.8961 5.47183C24.243 5.13335 24.145 4.62055 24.0378 3.92342C23.9745 3.51214 23.5219 3.30291 23.2056 3.13647C22.8766 2.96334 22.5079 2.94035 22.0616 2.97098C21.8423 2.98603 20.5825 3.18749 18.7489 3.55886C18.0649 3.6974 17.8895 3.77332 17.2192 3.9714C15.395 4.51045 13.9452 4.95347 13.5237 5.1589C13.2712 5.28196 13.1288 5.42412 13.0241 5.57458C12.9759 5.64375 13.0036 5.73401 13.0544 5.80079C13.1053 5.86757 13.1952 5.91725 13.3374 5.96057C13.4796 6.00388 13.6713 6.03934 14.9739 5.83744C16.2766 5.63554 18.6843 5.19523 19.964 4.95253C21.2436 4.70983 21.3222 4.6781 21.4031 4.64541" stroke="#FFE749" stroke-width="4" stroke-linecap="round"/>
</svg>
