<svg width="37" height="59" viewBox="0 0 37 59" fill="none" xmlns="http://www.w3.org/2000/svg">
<path d="M16.3339 15.7534C15.8083 17.7009 13.7119 21.8968 12.4041 24.1943C11.8249 25.2117 11.3749 26.0927 10.5317 27.4124C9.80428 28.5511 9.21202 30.1524 8.5779 31.6083C7.96044 33.0259 7.73317 34.5351 7.20513 35.805C6.83894 36.6856 6.4665 38.1737 5.96457 39.894C5.64377 40.9935 5.72549 43.6521 5.90916 45.5426C6.03514 46.8394 6.83067 47.8384 7.72764 49.4724C8.32904 50.568 9.7282 51.3218 10.9205 52.0098C11.9445 52.6006 13.1102 52.8038 15.8186 53.0666C19.7434 53.4476 20.8148 52.9621 21.8717 52.8046C22.8871 52.6532 23.7187 52.3826 24.774 51.9876C26.1366 51.4775 26.7809 50.432 27.5464 49.6142C28.395 48.7077 28.5764 47.4774 28.9469 46.6319C29.2921 45.844 29.4219 44.7351 29.5019 43.7819C29.5871 42.7664 29.8969 41.619 29.9246 35.596C29.9346 33.4284 29.4251 32.5939 28.897 31.3542C28.4679 30.3467 27.8956 29.0599 27.2614 27.8178C26.6905 26.6994 26.1 25.7855 25.5197 24.8086C24.9903 23.9173 24.1494 22.9387 23.4091 21.9055C22.656 20.8544 21.9327 20.0855 21.1925 19.3452C20.2417 18.3944 19.3993 17.7611 18.7113 17.0494C18.3874 16.7142 18.0772 16.3883 17.7091 16.1508C17.5189 16.0282 17.2364 16.0701 17.0757 16.2007C16.28 16.8475 16.6506 20.5288 16.5192 22.7684C16.3985 24.8259 16.0173 27.6729 15.8336 29.0749C15.6397 30.5551 15.3839 31.6883 14.7268 35.5825C14.4161 37.4239 14.1204 39.6493 13.6699 42.2919C13.5793 42.8238 13.5377 43.139 14.3468 42.0727C15.1559 41.0063 16.8279 38.5505 18.1595 36.371C19.4911 34.1915 20.4316 32.3628 21.0468 31.6035C21.6619 30.8443 21.9232 31.2101 22.11 31.6859C22.5085 32.7006 22.5613 34.7916 22.5882 37.5047C22.6319 41.9164 21.0317 44.3566 20.9526 44.5173C20.2507 45.9421 22.2905 40.7292 23.6918 39.8742C23.946 39.719 24.1937 39.8203 24.432 39.9771C25.0052 40.3541 25.3052 40.9794 25.4635 41.6095C25.567 42.0213 25.5174 42.6577 25.439 43.0591C25.3229 43.6535 22.8478 43.7787 20.6668 44.2513C19.4339 44.5185 18.6615 45.8846 18.234 46.7317C18.2846 46.8916 18.4936 46.9961 18.7058 47.1283C18.918 47.2605 19.127 47.4173 19.3423 47.5788" stroke="#C8E1FF" stroke-width="11.495" stroke-linecap="round"/>
<path d="M27.3491 30.4404C27.5685 31.5403 27.9201 32.3308 28.361 32.9719C28.7859 33.5898 29.1099 34.3586 29.5507 35.0863C29.9954 35.8204 30.1674 36.6059 30.367 37.3773C30.5044 37.9082 30.4331 38.4143 30.4992 39.7475C30.7802 45.4146 30.0379 46.1238 29.8396 46.8297C29.6288 47.5801 29.1575 48.2389 28.8045 48.9448C28.4593 49.6352 27.9677 50.2218 27.4614 50.7743C26.778 51.1498 26.2492 51.3705 25.8103 51.4366C25.546 51.4591 25.197 51.4591 24.8374 51.4591" stroke="#C8E1FF" stroke-width="11.495" stroke-linecap="round"/>
<path d="M24.7051 25.6816C25.1889 26.1205 25.715 27.0855 26.2894 28.0578C26.7717 28.8742 26.9947 29.5998 27.4573 30.196C27.9231 30.7962 28.0522 31.5827 28.2736 32.2886C28.4992 33.0077 28.9776 33.6978 29.4402 34.294C29.9183 34.91 30.08 35.6807 30.3444 36.3866C30.6092 37.0934 30.6088 37.928 30.6319 41.8376C30.6407 43.3188 30.0827 44.0961 29.6418 44.847C29.2719 45.4771 28.6312 46.2112 27.9901 46.8748C27.6609 46.9647 27.2194 47.0519 26.6919 47.2059C26.4262 47.2727 26.1645 47.3163 25.8948 47.3613" stroke="#C8E1FF" stroke-width="11.495" stroke-linecap="round"/>
<path d="M21.0586 26.7681L21.6286 26.9553" stroke="#0D0D0D" stroke-width="2.5" stroke-linecap="round"/>
<path d="M14.0928 27.9551L14.6628 27.7679" stroke="#0D0D0D" stroke-width="2.5" stroke-linecap="round"/>
<path d="M14.7295 34.8792C15.1878 34.7542 16.049 34.4189 17.1939 33.9773C18.1096 33.7441 19.0383 33.5338 20.1712 33.2816C20.7832 33.1752 21.4707 33.1127 22.1791 33.0483" stroke="#0D0D0D" stroke-width="2" stroke-linecap="round"/>
<path d="M11.0504 14.1974C8.63254 14.8379 7.99312 14.9788 7.06921 15.8829C5.85549 17.0707 5.78556 18.036 5.7482 18.7673C5.73187 19.0869 6.03215 19.3555 6.26272 19.6218C6.85319 20.3038 8.37528 20.5297 9.17962 20.6199C10.6097 20.7803 12.5406 20.9908 13.1832 21.2598C13.851 21.5394 15.2392 22.306 18.0323 22.4709C19.526 22.5591 20.1923 21.6719 21.0986 21.1205C22.102 20.5101 22.7543 20.3183 26.5305 20.0178C29.1993 19.8055 29.0887 17.3336 29.2862 16.4081C29.4999 15.4068 29.1282 14.5198 28.7733 14.1114C27.926 13.1368 26.2834 12.9527 25.4998 12.8278C24.8294 12.7209 23.9712 12.7029 22.5685 12.6143C20.0963 12.4581 19.0245 12.8801 17.8006 13.0045C14.9401 13.2951 14.3276 13.6273 13.2606 13.6812C12.281 13.7307 11.2319 14.2315 10.5369 14.4989C9.40346 14.9351 7.85007 15.9032 7.45777 16.3483C7.26825 16.5634 7.27897 16.9002 7.26082 17.2194C7.25066 17.3982 7.34835 17.609 7.4551 17.7708C7.65588 18.075 8.0593 18.1823 8.46761 18.2004C9.25727 18.2355 11.2126 17.2995 13.3396 16.2288C13.6851 16.0549 13.8579 15.9779 14.0191 15.9064C14.1802 15.8349 14.3212 15.7644 14.2 16.0452C13.2856 18.1639 12.1552 18.9285 12.0117 19.0891C11.817 19.3069 13.7426 18.225 15.9272 16.9467C17.7117 15.9025 18.7683 15.0887 19.0554 15.1037C19.9929 15.1525 16.7561 17.4959 14.7823 19.2204C14.0313 19.8766 13.8301 20.1347 13.915 20.1913C13.9998 20.2479 14.3873 20.107 15.6262 19.4003C16.865 18.6936 18.9434 17.4254 20.1021 16.7017C21.2609 15.9779 21.437 15.837 21.4221 15.923C21.3429 16.3783 19.8155 17.9912 18.0365 20.0899C17.4037 20.8364 17.3848 20.9908 18.494 20.0771C19.6031 19.1633 21.8576 17.1906 23.0014 16.3153C24.1452 15.4399 24.11 15.7217 23.9685 16.0783C23.6475 16.8875 23.0094 17.7158 22.5819 18.2682C21.4625 19.7146 26.4563 14.7674 26.6874 14.7311C27.7113 14.5703 25.5361 17.6795 25.3189 18.1823C25.2071 18.4411 26.167 17.0155 27.092 16.0361C27.3848 15.726 27.4533 15.9374 27.4539 16.1338C27.4544 16.3302 27.4192 16.5416 27.3658 16.7209C27.3124 16.9002 27.242 17.0411 27.1694 17.2931" stroke="#FBFFE5" stroke-width="3.5" stroke-linecap="round"/>
<path d="M11.6909 13.7707C11.9023 12.7138 12.3282 11.0422 13.0552 8.64727C14.3545 4.36672 14.714 3.77474 15.0877 2.6731C15.2239 2.27136 15.3556 1.99418 15.4618 1.85114C15.9149 1.24097 16.1018 3.59113 16.865 6.03888C17.3582 7.62056 17.5962 8.39481 17.9522 9.51407C18.1663 10.2821 18.3093 10.9909 18.4865 11.6688C18.5228 11.8471 18.5228 12.0584 18.7363 12.3829" stroke="#C59163" stroke-width="3.5" stroke-linecap="round"/>
<path d="M12.2246 14.4112C12.6142 14.376 13.465 14.1636 14.817 13.8786C15.8167 13.6288 16.4561 13.4868 17.0416 13.38C17.3453 13.3438 17.6624 13.3438 17.989 13.3438" stroke="#C59163" stroke-width="3.5" stroke-linecap="round"/>
<path d="M15.7474 6.51172C15.6065 8.06171 15.5339 9.91699 15.4635 11.5887C15.393 12.2035 15.2521 12.3444 15.0914 12.4523C14.9308 12.5601 14.7547 12.6305 14.2529 12.7031" stroke="#C59163" stroke-width="3.5" stroke-linecap="round"/>
<path d="M8.78027 15.6576C8.92794 15.7685 9.37207 15.9909 9.73567 16.1586C10.107 16.3299 10.4877 16.4556 10.8407 16.5027C11.215 16.5526 11.5464 16.605 12.1937 16.6512C14.0499 16.7838 14.5355 16.4946 15.0938 16.2806C15.4402 16.1479 15.7625 15.9742 16.0974 15.8162C16.4787 15.6363 16.7845 15.5841 17.1283 15.4907C17.4505 15.4033 17.7876 15.3422 18.6401 15.3141C19.1818 15.2962 19.7379 15.2308 20.498 15.1843C20.7542 15.1686 20.8903 15.0079 20.9466 14.9522C21.0383 14.8614 20.6133 14.97 20.4924 14.9889C20.4018 15.0031 20.5933 14.7666 20.7137 14.6738C20.8524 14.6178 21.0017 14.5805 21.1408 14.525C21.2063 14.488 21.2614 14.4328 21.4297 14.376" stroke="#FBFFE5" stroke-width="3.5" stroke-linecap="round"/>
<path d="M18.5273 15.2471C18.6411 15.2297 18.852 15.1943 19.0589 15.168C19.2846 15.1394 19.6334 15.1151 19.8992 15.0932C20.0474 15.081 20.1724 15.08 20.2078 15.0624C20.3032 15.0151 19.9971 15.071 19.9661 15.0842C19.8486 15.1342 20.1988 15.0272 20.2342 15.0009C20.2483 14.9905 20.1999 14.9573 20.1645 14.9438C20.0246 14.8905 19.8567 15.0005 19.7157 15.0577C19.57 15.1168 19.3905 15.1415 19.2885 15.1634C19.1114 15.2015 19.6439 15.0887 19.8158 15.0405C19.9794 14.9947 20.1719 14.9393 20.3744 14.8865C20.4797 14.8775 20.5771 14.8601 20.6692 14.8337C20.7178 14.8247 20.7701 14.8247 20.8503 14.7983" stroke="#FBFFE5" stroke-width="3.5" stroke-linecap="round"/>
</svg>
