<svg width="37" height="64" viewBox="0 0 37 64" fill="none" xmlns="http://www.w3.org/2000/svg">
<path d="M16.3334 20.0498C15.8078 21.9973 13.7114 26.1932 12.4036 28.4906C11.8244 29.5081 11.3744 30.3891 10.5313 31.7088C9.80379 32.8475 9.21154 34.4488 8.57741 35.9047C7.95995 37.3223 7.73269 38.8315 7.20464 40.1014C6.83845 40.982 6.46601 42.47 5.96408 44.1904C5.64328 45.2899 5.725 47.9484 5.90867 49.839C6.03466 51.1358 6.83018 52.1348 7.72715 53.7688C8.32856 54.8644 9.72771 55.6182 10.92 56.3061C11.944 56.897 13.1098 57.1002 15.8181 57.363C19.743 57.7439 20.8143 57.2585 21.8712 57.101C22.8866 56.9496 23.7182 56.679 24.7735 56.284C26.1361 55.7739 26.7804 54.7283 27.5459 53.9105C28.3945 53.004 28.5759 51.7738 28.9464 50.9283C29.2917 50.1404 29.4214 49.0314 29.5014 48.0783C29.5866 47.0627 29.8964 45.9154 29.9241 39.8923C29.9341 37.7248 29.4246 36.8903 28.8965 35.6506C28.4674 34.6431 27.8951 33.3563 27.2609 32.1141C26.69 30.9958 26.0996 30.0819 25.5193 29.105C24.9898 28.2136 24.1489 27.235 23.4086 26.2019C22.6555 25.1507 21.9322 24.3818 21.192 23.6416C20.2412 22.6908 19.3988 22.0575 18.7108 21.3458C18.3869 21.0106 18.0767 20.6847 17.7086 20.4472C17.5184 20.3246 17.236 20.3665 17.0752 20.4971C16.2795 21.1439 16.6501 24.8252 16.5187 27.0648C16.398 29.1223 16.0168 31.9693 15.8331 33.3713C15.6392 34.8515 15.3834 35.9846 14.7263 39.8789C14.4156 41.7203 14.1199 43.9457 13.6695 46.5883C13.5788 47.1202 13.5373 47.4354 14.3463 46.369C15.1554 45.3027 16.8275 42.8469 18.159 40.6674C19.4906 38.4879 20.4312 36.6592 21.0463 35.8999C21.6614 35.1407 21.9227 35.5065 22.1095 35.9823C22.508 36.997 22.5608 39.088 22.5877 41.8011C22.6314 46.2128 21.0312 48.653 20.9521 48.8137C20.2502 50.2385 22.29 45.0256 23.6913 44.1706C23.9455 44.0154 24.1932 44.1167 24.4315 44.2735C25.0047 44.6505 25.3047 45.2757 25.463 45.9059C25.5665 46.3177 25.5169 46.9541 25.4385 47.3555C25.3224 47.9499 22.8473 48.0751 20.6663 48.5477C19.4334 48.8149 18.661 50.181 18.2335 51.0281C18.2841 51.188 18.4931 51.2925 18.7053 51.4247C18.9175 51.5569 19.1265 51.7136 19.3418 51.8751" stroke="#C8E1FF" stroke-width="11.495" stroke-linecap="round"/>
<path d="M27.3486 34.7368C27.568 35.8367 27.9197 36.6272 28.3605 37.2683C28.7854 37.8862 29.1094 38.655 29.5503 39.3827C29.995 40.1168 30.1669 40.9023 30.3665 41.6736C30.5039 42.2046 30.4326 42.7107 30.4987 44.0439C30.7797 49.711 30.0374 50.4202 29.8391 51.1261C29.6283 51.8765 29.157 52.5353 28.804 53.2412C28.4588 53.9316 27.9672 54.5182 27.4609 55.0707C26.7775 55.4462 26.2487 55.6669 25.8099 55.733C25.5455 55.7555 25.1965 55.7555 24.8369 55.7555" stroke="#C8E1FF" stroke-width="11.495" stroke-linecap="round"/>
<path d="M24.7051 29.978C25.1889 30.4169 25.715 31.3819 26.2894 32.3542C26.7717 33.1706 26.9947 33.8962 27.4573 34.4924C27.9231 35.0926 28.0522 35.8791 28.2736 36.585C28.4992 37.304 28.9776 37.9942 29.4402 38.5904C29.9183 39.2064 30.08 39.9771 30.3444 40.683C30.6092 41.3898 30.6088 42.2244 30.6319 46.134C30.6407 47.6152 30.0827 48.3925 29.6418 49.1434C29.2719 49.7735 28.6312 50.5076 27.9901 51.1712C27.6609 51.2611 27.2194 51.3483 26.6919 51.5023C26.4262 51.5691 26.1645 51.6127 25.8948 51.6577" stroke="#C8E1FF" stroke-width="11.495" stroke-linecap="round"/>
<path d="M21.0576 31.0645L21.6277 31.2517" stroke="#0D0D0D" stroke-width="2.5" stroke-linecap="round"/>
<path d="M14.0928 32.2515L14.6628 32.0642" stroke="#0D0D0D" stroke-width="2.5" stroke-linecap="round"/>
<path d="M14.7285 39.1756C15.1869 39.0506 16.048 38.7153 17.1929 38.2737C18.1086 38.0404 19.0373 37.8302 20.1702 37.578C20.7823 37.4716 21.4698 37.4091 22.1781 37.3447" stroke="#0D0D0D" stroke-width="2" stroke-linecap="round"/>
<path d="M11.7963 20.3796C12.1298 18.7071 13.1403 15.6704 13.7732 14.2796C14.5137 12.6522 16.076 8.86929 17.3519 6.48942C17.5307 6.15584 17.6879 5.8174 17.9405 5.6456C18.1932 5.4738 18.5266 5.4738 18.7818 5.64055C20.1343 6.52439 20.9722 8.41454 22.0661 10.9372C23.0334 13.1677 23.4178 14.8973 24.0468 16.8351C24.6495 18.6915 24.5951 20.4554 24.3058 22.3527C21.9903 22.7367 16.3085 22.906 12.6022 22.1102C12.2207 21.8146 11.8872 21.4811 11.291 20.8849" stroke="#FF7B00" stroke-width="3.5" stroke-linecap="round"/>
<path d="M18.5722 8.07471C17.1298 12.093 15.82 15.451 14.7553 17.7888C14.2737 18.8462 13.8452 19.6114 13.5556 20.0867C13.266 20.5621 13.1114 20.7166 13.5728 20.178C16.4221 16.8514 17.2141 15.5743 18.438 13.5979C18.8138 12.991 18.9875 12.5005 19.1951 11.9814C19.2997 11.7199 19.4027 11.4623 19.2755 11.9994C18.1844 16.6049 16.702 19.5708 15.973 20.8446C15.6254 21.452 15.4516 22.0186 15.5007 21.9187C16.7112 19.4592 18.0446 18.1782 18.9851 16.8739C20.2602 15.1058 20.7562 13.6978 21.0162 13.5386C23.2251 12.1854 20.6548 18.9463 20.291 20.2982C20.1452 20.8402 19.9772 21.2895 20.0545 21.4995C20.5319 22.7968 21.8459 19.0072 22.5741 18.4335C22.8388 18.3234 22.8903 18.581 22.9426 18.8167C22.9949 19.0525 23.0464 19.2585 23.0995 19.627" stroke="#FF7B00" stroke-width="3.5" stroke-linecap="round"/>
<path d="M18.2598 19.9395C18.6719 20.0425 19.084 20.1455 19.4251 20.2501C19.7662 20.3547 20.0238 20.4577 20.4453 20.5639" stroke="#FF7B00" stroke-width="3.5" stroke-linecap="round"/>
<path d="M14.9814 8.69922C15.7589 8.75073 16.9016 8.85533 18.355 8.9849C19.1309 9.01144 20.4703 9.01144 21.2634 8.95992C22.0564 8.90841 22.2625 8.80537 22.6309 8.69922" stroke="#FFF200" stroke-width="2.1" stroke-linecap="round"/>
<path d="M12.4844 13.5386C13.3086 13.7446 16.6182 13.8508 21.0924 13.825C22.8877 13.7478 23.3576 13.6432 23.8766 13.5651C24.1381 13.5386 24.3957 13.5386 24.6611 13.5386" stroke="#FFF200" stroke-width="2.1" stroke-linecap="round"/>
<path d="M10.9229 18.8467C11.8517 18.8467 13.9358 18.9497 15.6491 19.1324C17.4577 19.1589 18.8814 19.2104 20.4831 19.2885C21.7757 19.315 24.0425 19.315 26.3779 19.1589" stroke="#FFF200" stroke-width="2.1" stroke-linecap="round"/>
<path d="M10.4546 22.4374C10.4546 22.6434 10.4031 22.9557 10.4023 23.3452C10.402 23.5355 10.6076 23.6831 10.7388 23.6597C10.8699 23.6363 10.9729 23.4302 11.026 23.4271C11.2354 23.4148 11.2336 23.9969 11.5966 24.2826C12.0064 24.6052 12.8432 24.6229 13.6237 24.4941C13.9148 24.4461 13.8891 24.1078 13.7861 23.9235C13.5801 23.5553 13.0071 23.4786 12.5395 23.4778C12.3235 23.4775 12.175 23.6831 12.1726 23.8658C12.1673 24.2832 12.6902 24.5698 13.1312 24.7775C14.6821 25.5076 16.9052 24.9882 17.2947 24.7291C17.4952 24.5957 17.6327 24.3669 17.6092 24.1835C17.5858 24 17.3798 23.8455 17.119 23.7659C16.8583 23.6863 16.5492 23.6863 16.3642 23.7893C16.1793 23.8923 16.1277 24.0984 16.1527 24.3076C16.1777 24.5168 16.2807 24.7228 16.4884 24.9063C17.7497 26.0206 20.0774 25.1974 20.7018 24.7564C20.9605 24.5737 20.9141 24.2639 20.7338 24.1312C20.5535 23.9985 20.1929 23.9985 19.9813 24.1015C19.7698 24.2045 19.7183 24.4106 19.7433 24.6198C19.7683 24.829 19.8713 25.0351 20.0789 25.1927C20.5399 25.5428 21.7899 25.5596 23.1684 25.4566C23.6801 25.4183 23.7741 25.1475 23.8014 24.9383C23.8287 24.7291 23.7772 24.523 23.6476 24.3396C23.5181 24.1562 23.312 24.0016 23.1028 23.922C22.8936 23.8424 22.6875 23.8424 22.5041 23.9196C22.3207 23.9969 22.1661 24.1515 22.1123 24.3341C22.0584 24.5168 22.1099 24.7228 22.291 24.8805C23.5912 26.0125 25.9596 25.1443 26.3234 24.8594C26.7256 24.5444 26.6902 23.897 26.5872 23.4552C26.5393 23.2497 26.2781 23.168 26.0432 23.1149C25.8082 23.0618 25.5506 23.0618 25.4437 23.1648C25.3368 23.2679 25.3883 23.4739 25.5178 23.6316C25.7877 23.96 26.4779 23.9985 27.1797 23.9212C27.4776 23.8884 27.6238 23.6894 27.7292 23.5067C27.8345 23.3241 27.8861 23.118 27.8611 22.9088C27.8361 22.6996 27.7331 22.4936 27.4997 22.3874C27.2663 22.2812 26.9057 22.2812 26.8229 22.2812C26.7402 22.2812 26.9463 22.2812 27.6269 22.4374" stroke="#FFF200" stroke-width="2.1" stroke-linecap="round"/>
<path d="M9.20571 22.2812C9.10268 22.2812 8.94657 22.4873 8.79045 22.9026C8.71451 23.1046 8.73737 23.3178 8.86617 23.4497C8.99496 23.5817 9.25254 23.6332 9.61706 23.6597C9.98158 23.6863 10.4452 23.6863 10.7668 23.2179" stroke="#FFF200" stroke-width="2.1" stroke-linecap="round"/>
<path d="M18.8846 1.0498C18.7815 1.0498 18.3678 1.0498 17.7442 1.15284C17.4655 1.19889 17.3266 1.46194 17.247 1.82568C17.0583 2.68778 17.2704 3.44144 17.5295 3.77942C17.7766 4.10159 18.4131 4.01593 18.9587 3.9129C19.4485 3.8204 19.6636 3.23693 19.9235 2.89973C20.1794 2.56773 20.1335 1.98959 20.0304 1.4955C19.951 1.11449 19.303 1.1544 18.9135 1.17938C18.73 1.25587 18.5755 1.46194 18.4959 1.74841C18.4162 2.03487 18.4162 2.39549 18.5724 3.07925" stroke="#FFF200" stroke-width="2.1" stroke-linecap="round"/>
</svg>
