<svg width="37" height="63" viewBox="0 0 37 63" fill="none" xmlns="http://www.w3.org/2000/svg">
<path d="M16.3339 19C15.8083 20.9475 13.7119 25.1434 12.4041 27.4408C11.8249 28.4583 11.3749 29.3393 10.5317 30.659C9.80428 31.7977 9.21202 33.399 8.5779 34.8549C7.96044 36.2725 7.73317 37.7817 7.20513 39.0515C6.83894 39.9322 6.4665 41.4202 5.96457 43.1406C5.64377 44.2401 5.72549 46.8986 5.90916 48.7892C6.03514 50.086 6.83067 51.085 7.72764 52.719C8.32904 53.8146 9.7282 54.5684 10.9205 55.2563C11.9445 55.8472 13.1102 56.0504 15.8186 56.3132C19.7434 56.6941 20.8148 56.2087 21.8717 56.0512C22.8871 55.8998 23.7187 55.6292 24.774 55.2342C26.1366 54.7241 26.7809 53.6785 27.5464 52.8607C28.395 51.9542 28.5764 50.724 28.9469 49.8785C29.2921 49.0906 29.4219 47.9816 29.5019 47.0285C29.5871 46.0129 29.8969 44.8656 29.9246 38.8425C29.9346 36.675 29.4251 35.8405 28.897 34.6007C28.4679 33.5933 27.8956 32.3065 27.2614 31.0643C26.6905 29.946 26.1 29.0321 25.5197 28.0552C24.9903 27.1638 24.1494 26.1852 23.4091 25.1521C22.656 24.1009 21.9327 23.332 21.1925 22.5918C20.2417 21.641 19.3993 21.0077 18.7113 20.296C18.3874 19.9608 18.0772 19.6349 17.7091 19.3974C17.5189 19.2748 17.2364 19.3167 17.0757 19.4473C16.28 20.0941 16.6506 23.7754 16.5192 26.015C16.3985 28.0725 16.0173 30.9195 15.8336 32.3215C15.6397 33.8017 15.3839 34.9348 14.7268 38.8291C14.4161 40.6705 14.1204 42.8959 13.6699 45.5385C13.5793 46.0704 13.5377 46.3856 14.3468 45.3192C15.1559 44.2529 16.8279 41.7971 18.1595 39.6176C19.4911 37.4381 20.4316 35.6093 21.0468 34.8501C21.6619 34.0909 21.9232 34.4567 22.11 34.9325C22.5085 35.9472 22.5613 38.0382 22.5882 40.7513C22.6319 45.163 21.0317 47.6032 20.9526 47.7639C20.2507 49.1887 22.2905 43.9758 23.6918 43.1208C23.946 42.9656 24.1937 43.0669 24.432 43.2237C25.0052 43.6007 25.3052 44.2259 25.4635 44.8561C25.567 45.2679 25.5174 45.9043 25.439 46.3057C25.3229 46.9001 22.8478 47.0253 20.6668 47.4979C19.4339 47.7651 18.6615 49.1312 18.234 49.9782C18.2846 50.1382 18.4936 50.2427 18.7058 50.3749C18.918 50.5071 19.127 50.6638 19.3423 50.8253" stroke="#C8E1FF" stroke-width="11.495" stroke-linecap="round"/>
<path d="M27.3491 33.687C27.5685 34.7869 27.9201 35.5774 28.361 36.2185C28.7859 36.8364 29.1099 37.6052 29.5507 38.3329C29.9954 39.067 30.1674 39.8525 30.367 40.6238C30.5044 41.1547 30.4331 41.6609 30.4992 42.9941C30.7802 48.6612 30.0379 49.3704 29.8396 50.0763C29.6288 50.8267 29.1575 51.4855 28.8045 52.1914C28.4593 52.8818 27.9677 53.4684 27.4614 54.0209C26.778 54.3963 26.2492 54.6171 25.8103 54.6832C25.546 54.7057 25.197 54.7057 24.8374 54.7057" stroke="#C8E1FF" stroke-width="11.495" stroke-linecap="round"/>
<path d="M24.7051 28.9282C25.1889 29.3671 25.715 30.3321 26.2894 31.3044C26.7717 32.1208 26.9947 32.8464 27.4573 33.4426C27.9231 34.0428 28.0522 34.8293 28.2736 35.5352C28.4992 36.2542 28.9776 36.9444 29.4402 37.5406C29.9183 38.1566 30.08 38.9273 30.3444 39.6332C30.6092 40.34 30.6088 41.1746 30.6319 45.0842C30.6407 46.5654 30.0827 47.3427 29.6418 48.0935C29.2719 48.7236 28.6312 49.4578 27.9901 50.1214C27.6609 50.2113 27.2194 50.2985 26.6919 50.4525C26.4262 50.5193 26.1645 50.5629 25.8948 50.6079" stroke="#C8E1FF" stroke-width="11.495" stroke-linecap="round"/>
<path d="M21.0586 30.0146L21.6286 30.2019" stroke="#0D0D0D" stroke-width="2.5" stroke-linecap="round"/>
<path d="M14.0928 31.2017L14.6628 31.0144" stroke="#0D0D0D" stroke-width="2.5" stroke-linecap="round"/>
<path d="M14.7295 38.1258C15.1878 38.0008 16.049 37.6655 17.1939 37.2239C18.1096 36.9906 19.0383 36.7804 20.1712 36.5282C20.7832 36.4218 21.4707 36.3593 22.1791 36.2949" stroke="#0D0D0D" stroke-width="2" stroke-linecap="round"/>
<path d="M9.71504 10.6453C9.28149 11.6451 9.02638 12.3898 8.82844 13.0964C8.64028 13.7682 8.43334 15.4236 8.30193 16.7164C8.13609 18.348 8.00078 19.0547 8.03378 19.7996C8.06291 20.4573 8.01302 21.1616 8.07029 21.7748C8.13992 22.5204 8.20623 23.5843 8.56408 24.2785C8.96249 25.0514 10.4753 24.9246 12.011 24.7409C12.3275 24.7031 12.517 24.7012 14.0433 24.4544C15.5696 24.2077 18.4268 23.7153 20.0089 23.4585C22.9524 22.9806 24.9436 22.6248 25.144 22.3995C25.3923 22.1203 25.3536 21.6607 25.369 21.1964C25.3899 20.5663 25.216 18.8209 24.7925 16.5472C24.4389 14.6485 23.8738 13.9916 23.6162 13.4287C23.3013 12.7406 22.7336 11.826 22.3543 11.2016C21.8242 10.3293 21.1321 9.57501 20.5989 9.1708C20.0794 8.77692 18.7982 8.7933 16.8735 8.9812C14.1159 9.25042 12.3418 9.74493 11.9323 9.86344C11.4253 9.96711 10.9614 10.0787 10.6313 10.1993C10.4803 10.2575 10.3627 10.3094 10.1485 10.3789" stroke="#FFE749" stroke-width="3.2" stroke-linecap="round"/>
<path d="M12.8519 10.4883C11.431 13.5411 10.9243 15.4124 10.5085 16.6239C9.98793 18.1408 10.0196 18.7069 9.76455 21.2989C9.70095 21.9454 9.80962 22.3169 9.96472 22.3909C10.3528 22.5758 10.978 21.5203 11.9158 20.0395C12.5368 19.0591 13.2733 17.5058 13.8626 16.2443C15.3945 12.9649 15.6595 12.1499 15.9936 11.4826C16.1342 11.2018 16.3115 10.9159 16.5244 10.6717C16.6228 10.5589 16.7532 10.5196 16.8403 10.6465C17.4188 11.4897 16.7016 12.6011 15.9834 13.7928C14.2109 16.7335 13.7157 17.5254 13.3945 18.0783C12.9299 18.878 12.2494 20.1421 11.904 20.9221C11.3774 22.1112 11.3765 22.6921 11.4548 22.9657C11.4937 23.1016 11.7068 23.1461 11.8709 23.1667C12.1863 23.2063 12.6436 23.0192 13.4374 22.5492C14.7441 21.7756 15.944 20.3145 17.1674 18.8138C17.817 18.017 18.3739 17.0313 18.9053 16.0094C20.5885 12.7721 20.5374 12.0743 20.7204 11.3726C20.7927 11.0954 20.6458 10.656 20.5133 10.5297C19.7241 9.77767 18.8753 12.4201 18.3605 13.3213C17.3705 15.0544 16.5708 15.9137 16.0335 16.6956C15.0491 18.1282 14.7119 19.7791 14.6115 20.6956C14.5799 20.9842 14.6398 21.2353 14.8032 21.4463C15.2217 21.9868 16.5093 21.5534 17.5093 21.0312C17.8979 20.8282 18.9037 19.5216 20.3071 17.4766C21.7134 15.4271 22.0648 14.2728 22.4134 13.8734C23.4771 12.6547 23.142 18.2649 22.5876 19.0339C22.1741 19.6075 21.5769 19.7521 20.8847 20.4615C20.7267 20.6234 20.6601 20.7403 20.6928 20.8468C20.7255 20.9534 20.8696 21.0551 21.0079 21.1122C21.2618 21.2172 22.1131 21.067 22.6742 20.9545C25.0788 20.4723 19.5166 21.5145 18.6153 21.8448C18.2524 21.9777 17.9494 22.0722 17.8115 22.1118C17.6138 22.1685 18.3912 22.0603 19.6377 21.7501C22.6393 21.0031 24.613 20.5096 24.4777 20.278C24.3285 20.0224 23.4471 19.0895 22.0464 17.5287C20.8462 16.1913 19.5938 15.4656 18.6631 14.8768C17.3146 13.9382 16.7956 13.7084 16.4588 13.5115C16.2967 13.411 16.1526 13.3092 15.9111 13.2205" stroke="#FFE749" stroke-width="3.2" stroke-linecap="round"/>
<path d="M14.4413 10.792C13.5188 12.0988 12.7896 13.2157 12.3856 13.9783C11.8316 15.024 11.5722 16.2548 11.4927 16.6119C11.4684 16.7213 11.6673 16.2074 12.0896 15.4719C12.4388 14.8639 13.0985 13.8006 13.4977 13.1174C14.0251 12.1686 14.2072 11.782 14.3364 11.5669C14.4155 11.4647 14.5221 11.3768 14.7254 11.2173" stroke="#FFE749" stroke-width="3.2" stroke-linecap="round"/>
<path d="M10.4954 8.99519C10.0766 9.20702 9.71416 9.55036 9.44103 9.85222C9.21039 10.1071 9.11539 10.4609 9.0272 10.8191C8.99058 10.9679 9.03895 11.2466 9.13147 11.5816C9.25064 12.0132 9.80242 12.1173 10.5787 12.2997C11.0826 12.4181 11.3776 12.2859 12.2027 12.1701C12.9255 12.0686 14.2577 11.8249 14.9773 11.6921C15.9536 11.5121 16.583 11.3187 17.0716 11.1821C17.4417 11.0786 17.9096 10.9499 18.2043 10.8725C18.5362 10.7854 18.9964 10.6393 19.3564 10.5248C19.6983 10.4161 20.0941 10.2752 20.3947 10.1788C20.665 10.0922 20.9404 9.88376 21.1946 9.67263C21.3078 9.57869 21.2947 9.27939 21.2147 8.91587C21.1302 8.53205 20.815 8.32444 20.5267 8.18046C20.252 8.04328 19.8697 8.13533 19.5248 8.12443C19.2305 8.11512 18.947 8.08356 18.5418 8.12677C18.2171 8.16141 17.8632 8.11224 17.3981 8.16578C17.0846 8.20187 16.7708 8.1951 15.5752 8.37454C15.2289 8.42651 15.0016 8.4294 14.7447 8.46497C14.5205 8.49601 13.5163 8.63268 12.1277 8.88067C11.4095 9.00894 11.0929 9.19049 10.7656 9.28219C10.6883 9.30385 10.6295 9.35782 10.6004 9.34599C10.5712 9.33415 10.5764 9.26369 10.6085 9.19623C10.7464 8.90675 11.0706 8.7738 11.3826 8.59671C11.7083 8.41186 12.0385 8.37829 14.3241 7.97517C15.0746 7.84281 15.5361 7.87987 16.2689 7.8068C16.7053 7.76328 17.2216 7.78332 17.608 7.76915C17.9576 7.75633 18.373 7.72506 18.658 7.74629C18.9431 7.76751 19.2271 7.78865 19.5063 7.77584C19.8086 7.76198 20.0901 7.90343 20.3769 7.98547C20.66 8.06643 20.8358 8.35352 21.0621 8.59594C21.1181 8.65599 21.1623 8.71885 21.1915 8.78443C21.2207 8.85 21.2324 8.91756 21.1822 8.97944C20.9148 9.30893 20.3323 9.28452 18.8894 9.55979C18.5955 9.61587 18.5315 9.64757 17.6342 9.84594C16.737 10.0443 15.0091 10.4117 14.0782 10.6166C13.0657 10.853 12.796 10.9174 12.4822 10.9802C12.3541 11.011 12.2895 11.0395 12.2229 11.0689" stroke="#BA5801" stroke-width="3.2" stroke-linecap="round"/>
<path d="M14.0339 6.59395C14.1096 6.63307 14.4349 6.68293 14.53 6.62306C14.577 6.59348 14.543 6.4904 14.5003 6.44428C14.4158 6.35309 14.244 6.38225 14.1064 6.39702C14.0367 6.40449 13.9775 6.46244 13.9544 6.53651C13.9313 6.61057 13.9488 6.7119 13.9875 6.78507C14.0262 6.85824 14.0856 6.90017 14.2006 6.90722C14.3157 6.91427 14.4846 6.88517 14.5995 6.83058C14.7145 6.77598 14.7704 6.69679 14.8018 6.62075C14.8332 6.54472 14.8385 6.47426 14.8269 6.40564C14.8154 6.33701 14.7868 6.27237 14.7369 6.23644C14.687 6.20052 14.6165 6.19527 14.5126 6.20421C14.4088 6.21315 14.2737 6.23644 14.0409 6.32924" stroke="#FF0000" stroke-width="3.2" stroke-linecap="round"/>
<path d="M14.2117 5.17983C14.1989 4.90379 14.1999 4.60377 14.2804 4.10929C14.4914 3.26191 14.7228 2.54645 14.9528 2.10421C15.0936 1.85122 15.2835 1.54026 15.615 1.09105" stroke="#FF0000" stroke-width="0.8" stroke-linecap="round"/>
</svg>
