<svg width="37" height="60" viewBox="0 0 37 60" fill="none" xmlns="http://www.w3.org/2000/svg">
<path d="M16.3339 16C15.8083 17.9475 13.7119 22.1434 12.4041 24.4408C11.8249 25.4583 11.3749 26.3393 10.5317 27.659C9.80428 28.7977 9.21202 30.399 8.5779 31.8549C7.96044 33.2725 7.73317 34.7817 7.20513 36.0515C6.83894 36.9322 6.4665 38.4202 5.96457 40.1406C5.64377 41.2401 5.72549 43.8986 5.90916 45.7892C6.03514 47.086 6.83067 48.085 7.72764 49.719C8.32904 50.8146 9.7282 51.5684 10.9205 52.2563C11.9445 52.8472 13.1102 53.0504 15.8186 53.3132C19.7434 53.6941 20.8148 53.2087 21.8717 53.0512C22.8871 52.8998 23.7187 52.6292 24.774 52.2342C26.1366 51.7241 26.7809 50.6785 27.5464 49.8607C28.395 48.9542 28.5764 47.724 28.9469 46.8785C29.2921 46.0906 29.4219 44.9816 29.5019 44.0285C29.5871 43.0129 29.8969 41.8656 29.9246 35.8425C29.9346 33.675 29.4251 32.8405 28.897 31.6007C28.4679 30.5933 27.8956 29.3065 27.2614 28.0643C26.6905 26.946 26.1 26.0321 25.5197 25.0552C24.9903 24.1638 24.1494 23.1852 23.4091 22.1521C22.656 21.1009 21.9327 20.332 21.1925 19.5918C20.2417 18.641 19.3993 18.0077 18.7113 17.296C18.3874 16.9608 18.0772 16.6349 17.7091 16.3974C17.5189 16.2748 17.2364 16.3167 17.0757 16.4473C16.28 17.0941 16.6506 20.7754 16.5192 23.015C16.3985 25.0725 16.0173 27.9195 15.8336 29.3215C15.6397 30.8017 15.3839 31.9348 14.7268 35.8291C14.4161 37.6705 14.1204 39.8959 13.6699 42.5385C13.5793 43.0704 13.5377 43.3856 14.3468 42.3192C15.1559 41.2529 16.8279 38.7971 18.1595 36.6176C19.4911 34.4381 20.4316 32.6093 21.0468 31.8501C21.6619 31.0909 21.9232 31.4567 22.11 31.9325C22.5085 32.9472 22.5613 35.0382 22.5882 37.7513C22.6319 42.163 21.0317 44.6032 20.9526 44.7639C20.2507 46.1887 22.2905 40.9758 23.6918 40.1208C23.946 39.9656 24.1937 40.0669 24.432 40.2237C25.0052 40.6007 25.3052 41.2259 25.4635 41.8561C25.567 42.2679 25.5174 42.9043 25.439 43.3057C25.3229 43.9001 22.8478 44.0253 20.6668 44.4979C19.4339 44.7651 18.6615 46.1312 18.234 46.9782C18.2846 47.1382 18.4936 47.2427 18.7058 47.3749C18.918 47.5071 19.127 47.6638 19.3423 47.8253" stroke="#C8E1FF" stroke-width="11.495" stroke-linecap="round"/>
<path d="M27.3491 30.687C27.5685 31.7869 27.9201 32.5774 28.361 33.2185C28.7859 33.8364 29.1099 34.6052 29.5507 35.3329C29.9954 36.067 30.1674 36.8525 30.367 37.6238C30.5044 38.1547 30.4331 38.6609 30.4992 39.9941C30.7802 45.6612 30.0379 46.3704 29.8396 47.0763C29.6288 47.8267 29.1575 48.4855 28.8045 49.1914C28.4593 49.8818 27.9677 50.4684 27.4614 51.0209C26.778 51.3963 26.2492 51.6171 25.8103 51.6832C25.546 51.7057 25.197 51.7057 24.8374 51.7057" stroke="#C8E1FF" stroke-width="11.495" stroke-linecap="round"/>
<path d="M24.7051 25.9282C25.1889 26.3671 25.715 27.3321 26.2894 28.3044C26.7717 29.1208 26.9947 29.8464 27.4573 30.4426C27.9231 31.0428 28.0522 31.8293 28.2736 32.5352C28.4992 33.2542 28.9776 33.9444 29.4402 34.5406C29.9183 35.1566 30.08 35.9273 30.3444 36.6332C30.6092 37.34 30.6088 38.1746 30.6319 42.0842C30.6407 43.5654 30.0827 44.3427 29.6418 45.0935C29.2719 45.7236 28.6312 46.4578 27.9901 47.1214C27.6609 47.2113 27.2194 47.2985 26.6919 47.4525C26.4262 47.5193 26.1645 47.5629 25.8948 47.6079" stroke="#C8E1FF" stroke-width="11.495" stroke-linecap="round"/>
<path d="M21.0586 27.0146L21.6286 27.2019" stroke="#0D0D0D" stroke-width="2.5" stroke-linecap="round"/>
<path d="M14.0928 28.2017L14.6628 28.0144" stroke="#0D0D0D" stroke-width="2.5" stroke-linecap="round"/>
<path d="M14.7295 35.1258C15.1878 35.0008 16.049 34.6655 17.1939 34.2239C18.1096 33.9906 19.0383 33.7804 20.1712 33.5282C20.7832 33.4218 21.4707 33.3593 22.1791 33.2949" stroke="#0D0D0D" stroke-width="2" stroke-linecap="round"/>
<path d="M10.3481 7.98715C9.96526 8.89013 9.74113 9.56223 9.56817 10.1996C9.40376 10.8055 9.22966 12.2968 9.12087 13.4613C8.98358 14.931 8.86699 15.5679 8.90215 16.2381C8.93319 16.8298 8.89345 17.464 8.94949 18.0154C9.01762 18.6859 9.0851 19.6429 9.41225 20.2651C9.77647 20.9577 11.137 20.8325 12.5178 20.656C12.8023 20.6196 12.9729 20.6165 14.3447 20.3832C15.7165 20.15 18.2843 19.6859 19.7062 19.4431C22.3518 18.9915 24.1412 18.6567 24.3199 18.4524C24.5413 18.1993 24.5031 17.786 24.5136 17.3681C24.5277 16.8008 24.3585 15.2313 23.9607 13.1881C23.6285 11.4819 23.1151 10.8949 22.8791 10.3902C22.5907 9.77322 22.0731 8.95426 21.7271 8.39514C21.2437 7.61397 20.6152 6.9402 20.1324 6.58033C19.662 6.22966 18.5091 6.2538 16.7783 6.43701C14.2985 6.69952 12.7056 7.15757 12.3379 7.26723C11.8824 7.36425 11.4657 7.46807 11.1695 7.57906C11.034 7.63249 10.9285 7.68007 10.7362 7.7442" stroke="#FEAFB0" stroke-width="2.88" stroke-linecap="round"/>
<path d="M13.1696 7.8227C11.9132 10.5805 11.4709 12.2684 11.1056 13.3617C10.6482 14.7307 10.6809 15.24 10.4704 17.5746C10.4179 18.1568 10.5184 18.4904 10.6585 18.5558C11.0092 18.7194 11.5641 17.7648 12.3972 16.4254C12.9489 15.5384 13.6003 14.1351 14.1214 12.9955C15.476 10.0329 15.7085 9.29749 16.0044 8.69451C16.1289 8.4407 16.2863 8.18216 16.4761 7.9608C16.5638 7.85855 16.6809 7.82226 16.7602 7.93581C17.287 8.69043 16.6498 9.6959 16.0121 10.7737C14.4385 13.4332 13.9986 14.1495 13.7136 14.6495C13.3013 15.3725 12.6982 16.5153 12.393 17.2197C11.9278 18.2938 11.9313 18.8165 12.0037 19.0622C12.0397 19.1842 12.2319 19.2227 12.3798 19.24C12.6638 19.2734 13.074 19.1016 13.785 18.6729C14.9554 17.967 16.0245 16.6433 17.1145 15.2838C17.6933 14.5619 18.1872 13.6707 18.658 12.7471C20.1491 9.82133 20.098 9.19363 20.2575 8.56085C20.3206 8.31078 20.1851 7.91642 20.065 7.80378C19.3492 7.13274 18.6047 9.5171 18.148 10.3319C17.2697 11.8989 16.5563 12.6781 16.0785 13.3857C15.203 14.6822 14.9117 16.1705 14.828 16.9961C14.8017 17.256 14.8575 17.4815 15.006 17.6702C15.3867 18.1536 16.5423 17.7541 17.4384 17.2768C17.7867 17.0913 18.6823 15.908 19.9303 14.0573C21.181 12.2024 21.4887 11.1611 21.7995 10.799C22.7479 9.69449 22.4874 14.746 21.9942 15.4421C21.6262 15.9613 21.0898 16.0959 20.4721 16.7393C20.331 16.8862 20.2719 16.9919 20.3022 17.0876C20.3324 17.1832 20.4628 17.2737 20.5877 17.3241C20.817 17.4167 21.582 17.2753 22.0861 17.1699C24.2466 16.7183 19.2485 17.697 18.4398 18.0009C18.1142 18.1232 17.8422 18.2104 17.7183 18.2471C17.5409 18.2996 18.2397 18.1965 19.3592 17.9082C22.0551 17.2139 23.8278 16.7553 23.7043 16.5478C23.5681 16.3189 22.768 15.4858 21.496 14.0914C20.4061 12.8965 19.2736 12.2526 18.4317 11.7296C17.2112 10.8948 16.7425 10.6918 16.4379 10.517C16.2913 10.4277 16.1609 10.3372 15.9428 10.2591" stroke="#FEAFB0" stroke-width="2.88" stroke-linecap="round"/>
<path d="M14.6025 8.08448C13.7818 9.26728 13.1337 10.2778 12.7757 10.9671C12.2848 11.9123 12.0604 13.0219 11.9915 13.3438C11.9704 13.4425 12.1456 12.9785 12.5204 12.3135C12.8301 11.7637 13.4161 10.802 13.7703 10.1841C14.238 9.32637 14.399 8.97713 14.5137 8.78257C14.5842 8.69005 14.6794 8.61013 14.8613 8.46517" stroke="#FEAFB0" stroke-width="2.88" stroke-linecap="round"/>
<path d="M11.0381 6.49643C10.6628 6.69014 10.3391 7.00179 10.0955 7.27546C9.88985 7.50657 9.80694 7.82562 9.7302 8.1487C9.69833 8.28287 9.74391 8.53331 9.82963 8.83415C9.94005 9.22166 10.4374 9.31136 11.1374 9.46982C11.5917 9.57267 11.8563 9.4515 12.5979 9.3412C13.2478 9.24456 14.4448 9.01547 15.0915 8.89075C15.9688 8.72156 16.5338 8.54292 16.9726 8.41635C17.3049 8.32052 17.725 8.20128 17.9897 8.12946C18.2878 8.04857 18.7009 7.91376 19.024 7.8081C19.3309 7.70775 19.6861 7.57801 19.9559 7.4891C20.1986 7.40917 20.4449 7.21954 20.6721 7.02766C20.7733 6.94228 20.7593 6.67302 20.6846 6.34644C20.6057 6.00164 20.3206 5.81711 20.0601 5.68965C19.8118 5.5682 19.4684 5.65385 19.1579 5.64656C18.893 5.64035 18.6377 5.61402 18.2733 5.65588C17.9813 5.68943 17.6625 5.64778 17.2443 5.69937C16.9624 5.73415 16.68 5.73036 15.6053 5.90062C15.294 5.94993 15.0894 5.9542 14.8585 5.98809C14.657 6.01767 13.7542 6.14803 12.5064 6.3814C11.8609 6.5021 11.5773 6.66781 11.2835 6.75274C11.2141 6.7728 11.1615 6.8218 11.1352 6.81137C11.1088 6.80093 11.1131 6.73748 11.1415 6.67653C11.2634 6.415 11.5542 6.29297 11.8337 6.13131C12.1255 5.96256 12.4224 5.92992 14.4764 5.55037C15.1508 5.42575 15.5664 5.45571 16.2254 5.38458C16.6179 5.34222 17.0826 5.35646 17.4303 5.34088C17.7448 5.32678 18.1184 5.29559 18.3751 5.3126C18.6318 5.32961 18.8876 5.34656 19.1388 5.33299C19.4107 5.31829 19.6651 5.44352 19.9238 5.51526C20.1792 5.58605 20.3395 5.84313 20.5449 6.05964C20.5958 6.11327 20.636 6.16952 20.6628 6.22832C20.6896 6.28713 20.7005 6.34784 20.6558 6.40389C20.4176 6.70239 19.8932 6.6847 18.5967 6.94301C18.3325 6.99564 18.2752 7.02463 17.4691 7.20974C16.6631 7.39484 15.1107 7.73811 14.2744 7.92939C13.365 8.14957 13.1227 8.20951 12.8407 8.26831C12.7258 8.29693 12.6678 8.32308 12.6081 8.35002" stroke="#FFFAF5" stroke-width="2.88" stroke-linecap="round"/>
<path d="M8.11768 21.9141L8.1448 22.0641" stroke="#FFFAF5" stroke-width="4.32" stroke-linecap="round"/>
<path d="M11.7603 21.4881L11.5758 21.7539" stroke="#FFFAF5" stroke-width="4.32" stroke-linecap="round"/>
<path d="M15.5531 21.0353L15.4916 21.1239" stroke="#FFFAF5" stroke-width="4.32" stroke-linecap="round"/>
<path d="M19.4684 20.405L19.3319 20.5072" stroke="#FFFAF5" stroke-width="4.32" stroke-linecap="round"/>
<path d="M22.9751 19.2285L23.0158 19.4536" stroke="#FFFAF5" stroke-width="4.32" stroke-linecap="round"/>
<path d="M26.2021 18.6455L26.2157 18.7205" stroke="#FFFAF5" stroke-width="4.32" stroke-linecap="round"/>
<path d="M13.8575 1.62198C13.5029 2.22774 13.2755 2.68031 12.9102 3.44375C12.7727 3.73093 12.7025 3.94777 12.7302 4.31511C12.7822 5.00681 13.0654 5.53505 13.4241 5.74066C14.2316 6.20347 14.7553 6.03164 15.1913 5.87612C15.5888 5.73434 15.6293 5.28088 15.6341 5.02235C15.646 4.38303 15.4204 3.69211 15.2354 3.31175C15.1123 3.12788 14.9709 2.92018 14.8406 2.69886C14.7823 2.5924 14.7396 2.49782 14.5049 2.20239" stroke="#FC5B44" stroke-width="2.88" stroke-linecap="round"/>
<path d="M14.52 2.41162C14.7129 2.71978 14.8635 2.97217 14.957 3.15408C14.9992 3.24234 15.0308 3.32238 15.0591 3.43005C15.0874 3.53772 15.1114 3.67059 15.1361 3.80748" stroke="#FFFAF5" stroke-width="0.72" stroke-linecap="round"/>
<path d="M15.5186 5.34979L15.4683 5.35889" stroke="#FFFAF5" stroke-width="0.72" stroke-linecap="round"/>
<path d="M9.70996 13.4707L9.72069 13.5301" stroke="#FC5B44" stroke-width="0.72" stroke-linecap="round"/>
<path d="M14.7772 14.7017L14.7178 14.7124" stroke="#FC5B44" stroke-width="0.72" stroke-linecap="round"/>
<path d="M18.6133 11.4937L18.624 11.553" stroke="#FC5B44" stroke-width="0.72" stroke-linecap="round"/>
<path d="M23.3611 13.334L23.3018 13.3447" stroke="#FC5B44" stroke-width="0.72" stroke-linecap="round"/>
<path d="M9.28418 17.9023L9.29491 17.9617" stroke="#FC5B44" stroke-width="0.72" stroke-linecap="round"/>
<path d="M18.7319 16.5625L18.7427 16.6219" stroke="#FC5B44" stroke-width="0.72" stroke-linecap="round"/>
</svg>
