<svg width="37" height="58" viewBox="0 0 37 58" fill="none" xmlns="http://www.w3.org/2000/svg">
<path d="M16.3339 14C15.8083 15.9475 13.7119 20.1434 12.4041 22.4408C11.8249 23.4583 11.3749 24.3393 10.5317 25.659C9.80428 26.7977 9.21202 28.399 8.5779 29.8549C7.96044 31.2725 7.73317 32.7817 7.20513 34.0515C6.83894 34.9322 6.4665 36.4202 5.96457 38.1406C5.64377 39.2401 5.72549 41.8986 5.90916 43.7892C6.03514 45.086 6.83067 46.085 7.72764 47.719C8.32904 48.8146 9.7282 49.5684 10.9205 50.2563C11.9445 50.8472 13.1102 51.0504 15.8186 51.3132C19.7434 51.6941 20.8148 51.2087 21.8717 51.0512C22.8871 50.8998 23.7187 50.6292 24.774 50.2342C26.1366 49.7241 26.7809 48.6785 27.5464 47.8607C28.395 46.9542 28.5764 45.724 28.9469 44.8785C29.2921 44.0906 29.4219 42.9816 29.5019 42.0285C29.5871 41.0129 29.8969 39.8656 29.9246 33.8425C29.9346 31.675 29.4251 30.8405 28.897 29.6007C28.4679 28.5933 27.8956 27.3065 27.2614 26.0643C26.6905 24.946 26.1 24.0321 25.5197 23.0552C24.9903 22.1638 24.1494 21.1852 23.4091 20.1521C22.656 19.1009 21.9327 18.332 21.1925 17.5918C20.2417 16.641 19.3993 16.0077 18.7113 15.296C18.3874 14.9608 18.0772 14.6349 17.7091 14.3974C17.5189 14.2748 17.2364 14.3167 17.0757 14.4473C16.28 15.0941 16.6506 18.7754 16.5192 21.015C16.3985 23.0725 16.0173 25.9195 15.8336 27.3215C15.6397 28.8017 15.3839 29.9348 14.7268 33.8291C14.4161 35.6705 14.1204 37.8959 13.6699 40.5385C13.5793 41.0704 13.5377 41.3856 14.3468 40.3192C15.1559 39.2529 16.8279 36.7971 18.1595 34.6176C19.4911 32.4381 20.4316 30.6093 21.0468 29.8501C21.6619 29.0909 21.9232 29.4567 22.11 29.9325C22.5085 30.9472 22.5613 33.0382 22.5882 35.7513C22.6319 40.163 21.0317 42.6032 20.9526 42.7639C20.2507 44.1887 22.2905 38.9758 23.6918 38.1208C23.946 37.9656 24.1937 38.0669 24.432 38.2237C25.0052 38.6007 25.3052 39.2259 25.4635 39.8561C25.567 40.2679 25.5174 40.9043 25.439 41.3057C25.3229 41.9001 22.8478 42.0253 20.6668 42.4979C19.4339 42.7651 18.6615 44.1312 18.234 44.9782C18.2846 45.1382 18.4936 45.2427 18.7058 45.3749C18.918 45.5071 19.127 45.6638 19.3423 45.8253" stroke="#C8E1FF" stroke-width="11.495" stroke-linecap="round"/>
<path d="M27.3491 28.687C27.5685 29.7869 27.9201 30.5774 28.361 31.2185C28.7859 31.8364 29.1099 32.6052 29.5507 33.3329C29.9954 34.067 30.1674 34.8525 30.367 35.6238C30.5044 36.1547 30.4331 36.6609 30.4992 37.9941C30.7802 43.6612 30.0379 44.3704 29.8396 45.0763C29.6288 45.8267 29.1575 46.4855 28.8045 47.1914C28.4593 47.8818 27.9677 48.4684 27.4614 49.0209C26.778 49.3963 26.2492 49.6171 25.8103 49.6832C25.546 49.7057 25.197 49.7057 24.8374 49.7057" stroke="#C8E1FF" stroke-width="11.495" stroke-linecap="round"/>
<path d="M24.7051 23.9282C25.1889 24.3671 25.715 25.3321 26.2894 26.3044C26.7717 27.1208 26.9947 27.8464 27.4573 28.4426C27.9231 29.0428 28.0522 29.8293 28.2736 30.5352C28.4992 31.2542 28.9776 31.9444 29.4402 32.5406C29.9183 33.1566 30.08 33.9273 30.3444 34.6332C30.6092 35.34 30.6088 36.1746 30.6319 40.0842C30.6407 41.5654 30.0827 42.3427 29.6418 43.0935C29.2719 43.7236 28.6312 44.4578 27.9901 45.1214C27.6609 45.2113 27.2194 45.2985 26.6919 45.4525C26.4262 45.5193 26.1645 45.5629 25.8948 45.6079" stroke="#C8E1FF" stroke-width="11.495" stroke-linecap="round"/>
<path d="M21.0586 25.0146L21.6286 25.2019" stroke="#0D0D0D" stroke-width="2.5" stroke-linecap="round"/>
<path d="M14.0928 26.2017L14.6628 26.0144" stroke="#0D0D0D" stroke-width="2.5" stroke-linecap="round"/>
<path d="M14.7295 33.1258C15.1878 33.0008 16.049 32.6655 17.1939 32.2239C18.1096 31.9906 19.0383 31.7804 20.1712 31.5282C20.7832 31.4218 21.4707 31.3593 22.1791 31.2949" stroke="#0D0D0D" stroke-width="2" stroke-linecap="round"/>
<path d="M10.7707 17.6407C10.2495 16.4622 9.15183 14.2204 8.10019 12.1274C7.65231 11.236 7.26696 10.3835 7.13653 9.61638C7.11682 9.50047 7.30921 9.48737 7.45294 9.56045C8.24558 9.96344 8.89597 10.56 9.41364 10.8182C9.94808 11.0848 10.5719 11.3921 11.2406 11.6731C11.9756 11.9819 12.5416 12.2083 12.7852 12.2009C13.4138 12.1817 13.3784 10.9593 14.0095 9.07613C14.5168 7.56185 14.7708 6.76977 15.2614 5.41346C15.7193 4.14744 15.861 3.70624 15.9901 3.50456C16.0488 3.41288 16.2086 3.44981 16.3577 3.55486C17.1715 4.12831 17.6988 5.51598 18.3912 6.51569C18.8699 7.20687 19.4305 8.04016 19.9263 8.64793C20.2828 9.08499 20.5533 9.4594 20.749 9.65525C20.8462 9.75256 20.9971 9.77756 21.1514 9.72032C21.8833 9.4488 22.2218 8.88755 23.2141 8.18314C23.8952 7.69968 24.5011 7.26356 25.0473 6.91009C25.5491 6.58536 26.0078 6.48724 26.1801 6.4412C26.6738 6.30932 25.8785 7.64908 25.6746 8.68117C25.5493 9.31533 25.3878 10.7653 25.1629 12.0707C25.0275 12.8567 24.9863 13.6526 24.9256 14.3683C24.8601 14.657 24.8065 14.9289 24.7698 15.1961C24.7435 15.332 24.7016 15.4685 24.6905 15.8001" stroke="#FFDE09" stroke-width="2.8" stroke-linecap="round"/>
<path d="M10.4487 13.3771C10.9281 14.6931 11.9714 16.8154 12.2713 17.0444C12.8344 17.4744 12.0746 15.2694 11.8292 14.4897C11.7707 14.3039 11.744 14.0805 11.8038 14.0509C12.5813 13.6655 13.1415 15.6049 13.6215 15.9341C13.7734 16.0383 13.8334 15.8226 13.8574 15.5733C13.9125 15.0001 13.7967 14.0331 13.8156 13.3725C13.8366 12.6362 14.7183 14.6559 14.8347 14.6707C16.5215 14.8863 15.2467 10.9731 15.2328 10.6967C15.1543 9.13727 16.2986 15.1095 16.4946 15.3073C17.2142 16.0333 16.7006 11.2761 16.5659 9.37937C16.5499 9.15292 16.5336 8.89613 16.4621 8.36988C16.3907 7.84364 16.2588 7.0562 16.5386 8.24374C16.8185 9.43128 17.514 12.6177 17.9486 14.4244C18.3832 16.2312 18.5357 16.5619 18.4769 15.6219C18.2784 12.4499 18.0492 10.1416 18.4249 10.2406C20.283 10.7301 20.5389 14.6544 20.8588 15.1003C22.0995 16.829 20.4109 11.3475 20.657 11.6482C20.9947 12.0608 21.4547 13.4845 22.0862 14.8212C22.6729 16.0627 22.766 12.7252 23.0209 11.8946C23.3306 10.8852 23.0102 15.3199 22.9529 16.0762C22.8578 17.3306 23.6447 12.9097 24.2001 11.3458C24.4779 10.5638 24.405 9.99661 24.2305 9.53472C24.128 9.26359 22.6345 10.8681 20.8548 12.7357C19.7013 13.9461 19.0069 14.8521 17.8298 15.6223C16.8337 16.2741 15.9708 16.2457 15.3851 16.4748C14.7085 16.7394 13.8535 17.0909 13.352 17.3221C12.7494 17.5999 12.0158 17.8246 11.4475 17.9521C11.3386 17.9766 13.9615 17.695 17.4313 17.13C19.1128 16.8563 20.5899 16.7811 21.7728 16.6644C22.5491 16.5511 23.1672 16.4799 23.5236 16.4693C23.7487 16.4483 24.0637 16.3956 24.5951 16.4047" stroke="#FFDE09" stroke-width="2.8" stroke-linecap="round"/>
<path d="M6.51465 8.05029L6.54662 8.24119" stroke="#C8E1FF" stroke-width="2.8" stroke-linecap="round"/>
<path d="M16.1514 1.72656L16.1993 2.0129" stroke="#C8E1FF" stroke-width="2.8" stroke-linecap="round"/>
<path d="M27.355 5.34473L27.371 5.44017" stroke="#C8E1FF" stroke-width="2.8" stroke-linecap="round"/>
<path d="M16.6118 8.13506C16.3761 8.90404 16.1772 9.32085 15.9286 10.073C15.8733 10.2402 15.8258 10.322 15.8191 10.4004C15.7876 10.7646 16.4039 11.0326 16.733 11.2759C17.0748 11.4784 17.3152 11.6498 17.4783 11.7661C17.5765 11.8361 17.7062 11.9286 17.8959 12.0145" stroke="#C8E1FF" stroke-width="1.4" stroke-linecap="round"/>
<path d="M16.7803 8.10693C17.0099 8.2213 17.8529 8.69199 18.4736 9.04274C18.5735 9.09922 18.6342 9.19779 18.6554 9.31937C18.7442 9.82767 18.5904 10.2997 18.3776 10.98C18.2889 11.2544 18.2448 11.4556 18.2325 11.611C18.2263 11.6893 18.2201 11.7665 18.1578 11.8554" stroke="#C8E1FF" stroke-width="1.4" stroke-linecap="round"/>
</svg>
