<svg width="37" height="52" viewBox="0 0 37 52" fill="none" xmlns="http://www.w3.org/2000/svg">
<path d="M16.3339 8.68701C15.8083 10.6345 13.7119 14.8304 12.4041 17.1278C11.8249 18.1453 11.3749 19.0263 10.5317 20.346C9.80428 21.4847 9.21202 23.086 8.5779 24.5419C7.96044 25.9595 7.73317 27.4687 7.20513 28.7386C6.83894 29.6192 6.4665 31.1073 5.96457 32.8276C5.64377 33.9271 5.72549 36.5857 5.90916 38.4762C6.03514 39.773 6.83067 40.772 7.72764 42.406C8.32904 43.5016 9.7282 44.2554 10.9205 44.9434C11.9445 45.5342 13.1102 45.7374 15.8186 46.0002C19.7434 46.3811 20.8148 45.8957 21.8717 45.7382C22.8871 45.5868 23.7187 45.3162 24.774 44.9212C26.1366 44.4111 26.7809 43.3656 27.5464 42.5477C28.395 41.6412 28.5764 40.411 28.9469 39.5655C29.2921 38.7776 29.4219 37.6687 29.5019 36.7155C29.5871 35.7 29.8969 34.5526 29.9246 28.5296C29.9346 26.362 29.4251 25.5275 28.897 24.2878C28.4679 23.2803 27.8956 21.9935 27.2614 20.7513C26.6905 19.633 26.1 18.7191 25.5197 17.7422C24.9903 16.8509 24.1494 15.8723 23.4091 14.8391C22.656 13.788 21.9327 13.0191 21.1925 12.2788C20.2417 11.328 19.3993 10.6947 18.7113 9.98298C18.3874 9.64783 18.0772 9.32194 17.7091 9.08443C17.5189 8.96176 17.2364 9.00368 17.0757 9.13431C16.28 9.7811 16.6506 13.4624 16.5192 15.702C16.3985 17.7595 16.0173 20.6065 15.8336 22.0085C15.6397 23.4887 15.3839 24.6218 14.7268 28.5161C14.4161 30.3575 14.1204 32.5829 13.6699 35.2255C13.5793 35.7574 13.5377 36.0726 14.3468 35.0063C15.1559 33.9399 16.8279 31.4841 18.1595 29.3046C19.4911 27.1251 20.4316 25.2964 21.0468 24.5371C21.6619 23.7779 21.9232 24.1437 22.11 24.6195C22.5085 25.6342 22.5613 27.7252 22.5882 30.4383C22.6319 34.85 21.0317 37.2902 20.9526 37.4509C20.2507 38.8757 22.2905 33.6628 23.6918 32.8078C23.946 32.6526 24.1937 32.7539 24.432 32.9107C25.0052 33.2877 25.3052 33.913 25.4635 34.5431C25.567 34.9549 25.5174 35.5913 25.439 35.9927C25.3229 36.5871 22.8478 36.7123 20.6668 37.1849C19.4339 37.4521 18.6615 38.8182 18.234 39.6653C18.2846 39.8252 18.4936 39.9297 18.7058 40.0619C18.918 40.1941 19.127 40.3509 19.3423 40.5123" stroke="#C8E1FF" stroke-width="11.495" stroke-linecap="round"/>
<path d="M27.3491 23.374C27.5685 24.4739 27.9201 25.2644 28.361 25.9055C28.7859 26.5234 29.1099 27.2922 29.5507 28.0199C29.9954 28.754 30.1674 29.5395 30.367 30.3108C30.5044 30.8418 30.4331 31.3479 30.4992 32.6811C30.7802 38.3482 30.0379 39.0574 29.8396 39.7633C29.6288 40.5137 29.1575 41.1725 28.8045 41.8784C28.4593 42.5688 27.9677 43.1554 27.4614 43.7079C26.778 44.0834 26.2492 44.3041 25.8103 44.3702C25.546 44.3927 25.197 44.3927 24.8374 44.3927" stroke="#C8E1FF" stroke-width="11.495" stroke-linecap="round"/>
<path d="M24.7051 18.6152C25.1889 19.0541 25.715 20.0191 26.2894 20.9914C26.7717 21.8078 26.9947 22.5334 27.4573 23.1296C27.9231 23.7298 28.0522 24.5163 28.2736 25.2222C28.4992 25.9413 28.9776 26.6314 29.4402 27.2276C29.9183 27.8436 30.08 28.6143 30.3444 29.3202C30.6092 30.027 30.6088 30.8616 30.6319 34.7712C30.6407 36.2524 30.0827 37.0297 29.6418 37.7806C29.2719 38.4107 28.6312 39.1448 27.9901 39.8084C27.6609 39.8983 27.2194 39.9855 26.6919 40.1395C26.4262 40.2063 26.1645 40.2499 25.8948 40.2949" stroke="#C8E1FF" stroke-width="11.495" stroke-linecap="round"/>
<path d="M21.0586 19.7017L21.6286 19.8889" stroke="#0D0D0D" stroke-width="2.5" stroke-linecap="round"/>
<path d="M14.0928 20.8887L14.6628 20.7014" stroke="#0D0D0D" stroke-width="2.5" stroke-linecap="round"/>
<path d="M14.7295 27.8128C15.1878 27.6878 16.049 27.3525 17.1939 26.9109C18.1096 26.6777 19.0383 26.4674 20.1712 26.2152C20.7832 26.1088 21.4707 26.0463 22.1791 25.9819" stroke="#0D0D0D" stroke-width="2" stroke-linecap="round"/>
<path d="M4.82768 13.3471C4.98774 12.3285 5.74883 10.0096 6.35348 8.72658C6.91364 7.53799 7.78152 6.46256 8.72267 5.42167C9.60632 4.44436 10.8095 3.96677 11.6504 3.59554C12.754 3.13351 13.8164 2.85016 15.5824 2.66645C16.7293 2.62581 18.797 2.5934 20.9275 2.56" stroke="#AE6163" stroke-width="5.12" stroke-linecap="round"/>
<path d="M4.96741 13.7448C6.24536 13.8581 9.18493 13.636 9.91674 13.4899C10.8066 13.3122 11.8368 12.8397 12.898 12.311C13.6559 11.9334 14.4382 11.3774 16.0651 10.3518C16.9558 9.79022 17.7371 9.14673 18.3736 8.492C18.9676 7.88091 19.5323 7.29701 19.9221 6.5568C20.3589 5.72723 20.5186 4.88123 20.6634 4.16687C20.6992 3.99036 20.6805 3.81188 20.3955 3.87969C18.6061 4.30547 17.7743 5.22829 16.7578 5.71295C15.8997 6.12204 15.1743 6.78124 14.403 7.21672C13.3892 7.78916 11.9658 8.65045 10.8568 9.27257C9.88623 9.79919 9.22522 10.1656 8.82905 10.3712C8.65148 10.4853 8.52157 10.6194 8.2544 10.7596" stroke="#AE6163" stroke-width="5.12" stroke-linecap="round"/>
<path d="M11.4463 4.25324C11.4453 4.1869 11.4442 4.12056 11.4587 3.98662C11.4732 3.85268 11.5033 3.65315 11.5326 3.34706" stroke="#EAAB74" stroke-width="0.32" stroke-linecap="round"/>
<path d="M15.1578 3.6925C15.1909 3.69198 15.2241 3.69146 15.2902 3.64066C15.3562 3.58986 15.4542 3.48879 15.6525 3.18206" stroke="#EAAB74" stroke-width="0.32" stroke-linecap="round"/>
<path d="M18.6191 6.45312L19.8253 6.43422" stroke="#EAAB74" stroke-width="0.32" stroke-linecap="round"/>
<path d="M14.4258 8.32861L15.1357 8.71963" stroke="#EAAB74" stroke-width="0.32" stroke-linecap="round"/>
<path d="M10.9961 7.57784C10.9308 7.64522 10.8655 7.71259 10.7829 7.79784C10.7002 7.88308 10.6023 7.98415 10.3004 8.09142" stroke="#EAAB74" stroke-width="0.32" stroke-linecap="round"/>
<path d="M8.86654 12.8391C8.93288 12.8381 8.99922 12.8371 9.14896 12.8015C9.29871 12.766 9.52985 12.696 9.86693 12.5218" stroke="#EAAB74" stroke-width="0.32" stroke-linecap="round"/>
<path d="M6.49823 9.25688L6.10249 9.66523" stroke="#EAAB74" stroke-width="0.32" stroke-linecap="round"/>
</svg>
