<svg width="37" height="61" viewBox="0 0 37 61" fill="none" xmlns="http://www.w3.org/2000/svg">
<path d="M16.3334 16.8999C15.8078 18.8474 13.7114 23.0433 12.4036 25.3407C11.8244 26.3582 11.3744 27.2392 10.5313 28.5589C9.80379 29.6976 9.21154 31.2989 8.57741 32.7548C7.95995 34.1724 7.73269 35.6816 7.20464 36.9514C6.83845 37.8321 6.46601 39.3201 5.96408 41.0405C5.64328 42.14 5.725 44.7985 5.90867 46.6891C6.03466 47.9859 6.83018 48.9849 7.72715 50.6189C8.32856 51.7145 9.72771 52.4683 10.92 53.1562C11.944 53.7471 13.1098 53.9503 15.8181 54.2131C19.743 54.594 20.8143 54.1086 21.8712 53.9511C22.8866 53.7997 23.7182 53.5291 24.7735 53.1341C26.1361 52.624 26.7804 51.5784 27.5459 50.7606C28.3945 49.8541 28.5759 48.6239 28.9464 47.7784C29.2917 46.9905 29.4214 45.8815 29.5014 44.9284C29.5866 43.9128 29.8964 42.7655 29.9241 36.7424C29.9341 34.5749 29.4246 33.7404 28.8965 32.5007C28.4674 31.4932 27.8951 30.2064 27.2609 28.9642C26.69 27.8459 26.0996 26.932 25.5193 25.9551C24.9898 25.0637 24.1489 24.0851 23.4086 23.052C22.6555 22.0008 21.9322 21.2319 21.192 20.4917C20.2412 19.5409 19.3988 18.9076 18.7108 18.1959C18.3869 17.8607 18.0767 17.5348 17.7086 17.2973C17.5184 17.1747 17.236 17.2166 17.0752 17.3472C16.2795 17.994 16.6501 21.6753 16.5187 23.9149C16.398 25.9724 16.0168 28.8194 15.8331 30.2214C15.6392 31.7016 15.3834 32.8347 14.7263 36.729C14.4156 38.5704 14.1199 40.7958 13.6695 43.4384C13.5788 43.9703 13.5373 44.2855 14.3463 43.2191C15.1554 42.1528 16.8275 39.697 18.159 37.5175C19.4906 35.338 20.4312 33.5092 21.0463 32.75C21.6614 31.9908 21.9227 32.3566 22.1095 32.8324C22.508 33.8471 22.5608 35.9381 22.5877 38.6512C22.6314 43.0629 21.0312 45.5031 20.9521 45.6638C20.2502 47.0886 22.29 41.8757 23.6913 41.0207C23.9455 40.8655 24.1932 40.9668 24.4315 41.1236C25.0047 41.5006 25.3047 42.1258 25.463 42.756C25.5665 43.1678 25.5169 43.8042 25.4385 44.2056C25.3224 44.8 22.8473 44.9252 20.6663 45.3978C19.4334 45.665 18.661 47.0311 18.2335 47.8781C18.2841 48.0381 18.4931 48.1426 18.7053 48.2748C18.9175 48.407 19.1265 48.5637 19.3418 48.7252" stroke="#C8E1FF" stroke-width="11.495" stroke-linecap="round"/>
<path d="M27.3486 31.5869C27.568 32.6868 27.9197 33.4773 28.3605 34.1184C28.7854 34.7363 29.1094 35.5051 29.5503 36.2328C29.995 36.9669 30.1669 37.7524 30.3665 38.5237C30.5039 39.0547 30.4326 39.5608 30.4987 40.894C30.7797 46.5611 30.0374 47.2703 29.8391 47.9762C29.6283 48.7266 29.157 49.3854 28.804 50.0913C28.4588 50.7817 27.9672 51.3683 27.4609 51.9208C26.7775 52.2962 26.2487 52.517 25.8099 52.5831C25.5455 52.6056 25.1965 52.6056 24.8369 52.6056" stroke="#C8E1FF" stroke-width="11.495" stroke-linecap="round"/>
<path d="M24.7051 26.8281C25.1889 27.267 25.715 28.232 26.2894 29.2043C26.7717 30.0207 26.9947 30.7463 27.4573 31.3425C27.9231 31.9427 28.0522 32.7292 28.2736 33.4351C28.4992 34.1541 28.9776 34.8443 29.4402 35.4405C29.9183 36.0565 30.08 36.8272 30.3444 37.5331C30.6092 38.2399 30.6088 39.0745 30.6319 42.9841C30.6407 44.4653 30.0827 45.2426 29.6418 45.9935C29.2719 46.6236 28.6312 47.3577 27.9901 48.0213C27.6609 48.1112 27.2194 48.1984 26.6919 48.3524C26.4262 48.4192 26.1645 48.4628 25.8948 48.5078" stroke="#C8E1FF" stroke-width="11.495" stroke-linecap="round"/>
<path d="M21.0576 27.9146L21.6277 28.1018" stroke="#0D0D0D" stroke-width="2.5" stroke-linecap="round"/>
<path d="M14.0928 29.1016L14.6628 28.9143" stroke="#0D0D0D" stroke-width="2.5" stroke-linecap="round"/>
<path d="M14.7285 36.0257C15.1869 35.9007 16.048 35.5654 17.1929 35.1238C18.1086 34.8905 19.0373 34.6803 20.1702 34.4281C20.7823 34.3217 21.4698 34.2592 22.1781 34.1948" stroke="#0D0D0D" stroke-width="2" stroke-linecap="round"/>
<path d="M18.6007 10.0532C16.8221 10.2147 16.0147 10.5364 15.0429 11.4658C14.3472 12.131 14.434 13.1248 14.3915 14.5197C14.3647 15.3989 15.0775 15.9997 15.6845 16.5867C16.2424 17.1262 16.9787 17.255 18.5339 17.3175C19.4187 17.3531 20.2154 16.9345 20.9049 16.5096C21.2206 16.3151 21.7135 15.9244 22.2793 15.2785C22.7818 14.7049 22.8499 13.6614 22.8098 12.61C22.773 11.644 21.881 11.1483 21.274 10.9036C20.5156 10.598 19.4141 10.7015 16.7098 10.7404C15.6662 10.7553 15.1224 11.3462 14.7788 11.7298C14.2402 12.3312 14.0698 13.166 13.8664 13.8144C13.5504 14.822 13.9047 16.4027 14.4298 17.1524C15.1465 18.1757 16.0074 18.1461 16.7565 18.2074C17.9068 18.3016 19.5282 18.2287 20.2773 18.0265C21.0129 17.828 21.5921 17.5002 22.2604 17.1973C23.0335 16.847 23.5346 16.2473 23.8005 15.6002C24.1399 14.7741 23.9425 13.7415 23.8017 12.9694C23.6763 12.2821 23.0538 11.7966 22.5888 11.2891C22.1143 10.7712 21.4367 10.6602 20.7283 10.4587C19.7759 10.3373 19.2902 10.1746 19.1476 10.1746C19.1652 10.1746 19.0072 10.3139 19.4564 9.94971" stroke="#FF0000" stroke-width="9" stroke-linecap="round"/>
<path d="M18.4746 7.53907C18.4746 7.01325 18.5915 5.98285 18.9292 4.51072C19.2556 3.08797 19.9777 2.34724 20.4916 1.96527C21.3268 1.40802 22.1014 1.01852 22.8649 0.93C23.3655 0.899902 24.0958 0.899902 24.8482 0.899902" stroke="#62A565" stroke-width="1.8" stroke-linecap="round"/>
<path d="M24.8484 0.899902C24.8484 1.547 24.79 2.31272 24.5983 2.87483C24.373 3.53561 24.0836 4.20178 23.7724 4.68998C23.4474 5.19988 21.4704 6.11563 20.3355 6.63836C20.2169 6.68306 20.1001 6.71227 19.9522 6.75653C19.8044 6.8008 19.6291 6.85922 19.2715 7.09646" stroke="#62A565" stroke-width="1.8" stroke-linecap="round"/>
<path d="M21.3076 2.58194C21.1908 2.69879 20.6048 3.83984 20.1878 4.93708C19.6999 6.22126 21.8972 2.64214 21.9711 2.58194C22.6437 2.03415 21.544 4.20367 21.5435 4.29307C21.5424 4.52683 22.2469 3.23789 22.9847 2.42437C23.6451 1.69625 22.7833 4.11514 22.8413 4.0731C23.3792 3.68298 23.5481 2.76164 23.8287 2.49475C24.39 1.96097 23.4331 3.908 23.2711 4.02751C23.1657 2.99888 23.4313 2.111 23.5933 1.87553C23.6676 1.75691 23.7261 1.64006 24.0518 1.43115" stroke="#62A565" stroke-width="1.8" stroke-linecap="round"/>
</svg>
