<svg width="37" height="55" viewBox="0 0 37 55" fill="none" xmlns="http://www.w3.org/2000/svg">
<path d="M16.3339 11C15.8083 12.9475 13.7119 17.1434 12.4041 19.4408C11.8249 20.4583 11.3749 21.3393 10.5317 22.659C9.80428 23.7977 9.21202 25.399 8.5779 26.8549C7.96044 28.2725 7.73317 29.7817 7.20513 31.0515C6.83894 31.9322 6.4665 33.4202 5.96457 35.1406C5.64377 36.2401 5.72549 38.8986 5.90916 40.7892C6.03514 42.086 6.83067 43.085 7.72764 44.719C8.32904 45.8146 9.7282 46.5684 10.9205 47.2563C11.9445 47.8472 13.1102 48.0504 15.8186 48.3132C19.7434 48.6941 20.8148 48.2087 21.8717 48.0512C22.8871 47.8998 23.7187 47.6292 24.774 47.2342C26.1366 46.7241 26.7809 45.6785 27.5464 44.8607C28.395 43.9542 28.5764 42.724 28.9469 41.8785C29.2921 41.0906 29.4219 39.9816 29.5019 39.0285C29.5871 38.0129 29.8969 36.8656 29.9246 30.8425C29.9346 28.675 29.4251 27.8405 28.897 26.6007C28.4679 25.5933 27.8956 24.3065 27.2614 23.0643C26.6905 21.946 26.1 21.0321 25.5197 20.0552C24.9903 19.1638 24.1494 18.1852 23.4091 17.1521C22.656 16.1009 21.9327 15.332 21.1925 14.5918C20.2417 13.641 19.3993 13.0077 18.7113 12.296C18.3874 11.9608 18.0772 11.6349 17.7091 11.3974C17.5189 11.2748 17.2364 11.3167 17.0757 11.4473C16.28 12.0941 16.6506 15.7754 16.5192 18.015C16.3985 20.0725 16.0173 22.9195 15.8336 24.3215C15.6397 25.8017 15.3839 26.9348 14.7268 30.8291C14.4161 32.6705 14.1204 34.8959 13.6699 37.5385C13.5793 38.0704 13.5377 38.3856 14.3468 37.3192C15.1559 36.2529 16.8279 33.7971 18.1595 31.6176C19.4911 29.4381 20.4316 27.6093 21.0468 26.8501C21.6619 26.0909 21.9232 26.4567 22.11 26.9325C22.5085 27.9472 22.5613 30.0382 22.5882 32.7513C22.6319 37.163 21.0317 39.6032 20.9526 39.7639C20.2507 41.1887 22.2905 35.9758 23.6918 35.1208C23.946 34.9656 24.1937 35.0669 24.432 35.2237C25.0052 35.6007 25.3052 36.2259 25.4635 36.8561C25.567 37.2679 25.5174 37.9043 25.439 38.3057C25.3229 38.9001 22.8478 39.0253 20.6668 39.4979C19.4339 39.7651 18.6615 41.1312 18.234 41.9782C18.2846 42.1382 18.4936 42.2427 18.7058 42.3749C18.918 42.5071 19.127 42.6638 19.3423 42.8253" stroke="#C8E1FF" stroke-width="11.495" stroke-linecap="round"/>
<path d="M27.3491 25.687C27.5685 26.7869 27.9201 27.5774 28.361 28.2185C28.7859 28.8364 29.1099 29.6052 29.5507 30.3329C29.9954 31.067 30.1674 31.8525 30.367 32.6238C30.5044 33.1547 30.4331 33.6609 30.4992 34.9941C30.7802 40.6612 30.0379 41.3704 29.8396 42.0763C29.6288 42.8267 29.1575 43.4855 28.8045 44.1914C28.4593 44.8818 27.9677 45.4684 27.4614 46.0209C26.778 46.3963 26.2492 46.6171 25.8103 46.6832C25.546 46.7057 25.197 46.7057 24.8374 46.7057" stroke="#C8E1FF" stroke-width="11.495" stroke-linecap="round"/>
<path d="M24.7051 20.9282C25.1889 21.3671 25.715 22.3321 26.2894 23.3044C26.7717 24.1208 26.9947 24.8464 27.4573 25.4426C27.9231 26.0428 28.0522 26.8293 28.2736 27.5352C28.4992 28.2542 28.9776 28.9444 29.4402 29.5406C29.9183 30.1566 30.08 30.9273 30.3444 31.6332C30.6092 32.34 30.6088 33.1746 30.6319 37.0842C30.6407 38.5654 30.0827 39.3427 29.6418 40.0935C29.2719 40.7236 28.6312 41.4578 27.9901 42.1214C27.6609 42.2113 27.2194 42.2985 26.6919 42.4525C26.4262 42.5193 26.1645 42.5629 25.8948 42.6079" stroke="#C8E1FF" stroke-width="11.495" stroke-linecap="round"/>
<path d="M21.0586 22.0146L21.6286 22.2019" stroke="#0D0D0D" stroke-width="2.5" stroke-linecap="round"/>
<path d="M14.0928 23.2017L14.6628 23.0144" stroke="#0D0D0D" stroke-width="2.5" stroke-linecap="round"/>
<path d="M14.7295 30.1258C15.1878 30.0008 16.049 29.6655 17.1939 29.2239C18.1096 28.9906 19.0383 28.7804 20.1712 28.5282C20.7832 28.4218 21.4707 28.3593 22.1791 28.2949" stroke="#0D0D0D" stroke-width="2" stroke-linecap="round"/>
<path d="M16.5976 3.50482C15.4871 3.62381 13.0365 3.91512 11.8148 4.60634C10.4992 5.35072 10.1226 7.33003 10.0971 8.4377C10.0676 9.71559 10.9029 11.3001 11.6456 11.853C12.4483 12.4506 14.017 13.0281 16.5609 13.1273C20.7612 13.291 21.8609 11.3209 23.0312 10.531C23.7567 10.0413 24.3043 9.27778 24.6751 8.58216C25.4014 7.21982 24.0249 5.13129 23.4034 4.41128C22.7955 3.70705 21.9714 3.29534 20.8633 2.9182C19.6687 2.51163 18.75 2.68596 17.2673 2.86979C15.3327 3.10965 13.9858 3.78278 13.6271 4.09236C13.2685 4.40194 12.971 4.75187 12.805 5.17612C12.4245 6.14823 13.0291 7.57885 13.7991 8.89395C14.2968 9.74413 14.8414 10.1942 15.2337 10.3412C15.4241 10.4126 15.6382 10.3224 15.7873 10.149C16.447 9.38181 16.0076 8.09866 15.9264 6.69347C15.9077 6.36859 15.8855 6.10147 15.9804 5.9377C16.0753 5.77393 16.2791 5.72223 16.4609 5.78458C17.4256 6.11541 18.2039 8.1266 18.7992 9.27153C19.1441 9.93485 19.579 6.43334 19.8802 5.2204C20.5838 5.83328 21.0494 6.37261 21.3335 6.73773C21.4639 6.92486 21.5666 7.11577 21.7115 7.46688" stroke="#FF7B00" stroke-width="5" stroke-linecap="round"/>
<path d="M18.3011 2.00924C18.2461 2.05671 18.1911 2.10417 17.8013 2.42139C17.4116 2.73861 16.6888 3.32415 16.2614 3.67326C15.8341 4.02237 15.7241 4.11729 15.3487 4.38314" stroke="#0B7F28" stroke-width="0.5" stroke-linecap="round"/>
<path d="M15.1753 2.49756C15.9125 2.61319 16.869 2.91286 17.6217 3.07738C17.9442 3.14789 18.2089 3.25036 18.4593 3.37269C18.5913 3.42452 18.7332 3.45554 19.1899 3.51031" stroke="#0B7F28" stroke-width="0.5" stroke-linecap="round"/>
<path d="M16.8672 1.56055C16.9147 1.61553 16.9621 1.67052 17.0824 2.07671C17.2027 2.48289 17.3944 3.2386 17.592 4.01721" stroke="#0B7F28" stroke-width="0.5" stroke-linecap="round"/>
<path d="M17.1519 9.36084L17.549 9.44765" stroke="#0D0D0D" stroke-width="0.3" stroke-linecap="round"/>
<path d="M11.1055 7.70605L11.1949 8.05851" stroke="#0D0D0D" stroke-width="0.3" stroke-linecap="round"/>
<path d="M21.6084 5.51611L21.874 5.82386" stroke="#0D0D0D" stroke-width="0.3" stroke-linecap="round"/>
<path d="M22.3574 9.91602L22.4468 10.2685" stroke="#0D0D0D" stroke-width="0.3" stroke-linecap="round"/>
<path d="M13.9009 12.8114L14.164 12.3696" stroke="#0D0D0D" stroke-width="0.3" stroke-linecap="round"/>
</svg>
