<svg width="37" height="59" viewBox="0 0 37 59" fill="none" xmlns="http://www.w3.org/2000/svg">
<path d="M16.3339 15C15.8083 16.9475 13.7119 21.1434 12.4041 23.4408C11.8249 24.4583 11.3749 25.3393 10.5317 26.659C9.80428 27.7977 9.21202 29.399 8.5779 30.8549C7.96044 32.2725 7.73317 33.7817 7.20513 35.0515C6.83894 35.9322 6.4665 37.4202 5.96457 39.1406C5.64377 40.2401 5.72549 42.8986 5.90916 44.7892C6.03514 46.086 6.83067 47.085 7.72764 48.719C8.32904 49.8146 9.7282 50.5684 10.9205 51.2563C11.9445 51.8472 13.1102 52.0504 15.8186 52.3132C19.7434 52.6941 20.8148 52.2087 21.8717 52.0512C22.8871 51.8998 23.7187 51.6292 24.774 51.2342C26.1366 50.7241 26.7809 49.6785 27.5464 48.8607C28.395 47.9542 28.5764 46.724 28.9469 45.8785C29.2921 45.0906 29.4219 43.9816 29.5019 43.0285C29.5871 42.0129 29.8969 40.8656 29.9246 34.8425C29.9346 32.675 29.4251 31.8405 28.897 30.6007C28.4679 29.5933 27.8956 28.3065 27.2614 27.0643C26.6905 25.946 26.1 25.0321 25.5197 24.0552C24.9903 23.1638 24.1494 22.1852 23.4091 21.1521C22.656 20.1009 21.9327 19.332 21.1925 18.5918C20.2417 17.641 19.3993 17.0077 18.7113 16.296C18.3874 15.9608 18.0772 15.6349 17.7091 15.3974C17.5189 15.2748 17.2364 15.3167 17.0757 15.4473C16.28 16.0941 16.6506 19.7754 16.5192 22.015C16.3985 24.0725 16.0173 26.9195 15.8336 28.3215C15.6397 29.8017 15.3839 30.9348 14.7268 34.8291C14.4161 36.6705 14.1204 38.8959 13.6699 41.5385C13.5793 42.0704 13.5377 42.3856 14.3468 41.3192C15.1559 40.2529 16.8279 37.7971 18.1595 35.6176C19.4911 33.4381 20.4316 31.6093 21.0468 30.8501C21.6619 30.0909 21.9232 30.4567 22.11 30.9325C22.5085 31.9472 22.5613 34.0382 22.5882 36.7513C22.6319 41.163 21.0317 43.6032 20.9526 43.7639C20.2507 45.1887 22.2905 39.9758 23.6918 39.1208C23.946 38.9656 24.1937 39.0669 24.432 39.2237C25.0052 39.6007 25.3052 40.2259 25.4635 40.8561C25.567 41.2679 25.5174 41.9043 25.439 42.3057C25.3229 42.9001 22.8478 43.0253 20.6668 43.4979C19.4339 43.7651 18.6615 45.1312 18.234 45.9782C18.2846 46.1382 18.4936 46.2427 18.7058 46.3749C18.918 46.5071 19.127 46.6638 19.3423 46.8253" stroke="#C8E1FF" stroke-width="11.495" stroke-linecap="round"/>
<path d="M27.3491 29.687C27.5685 30.7869 27.9201 31.5774 28.361 32.2185C28.7859 32.8364 29.1099 33.6052 29.5507 34.3329C29.9954 35.067 30.1674 35.8525 30.367 36.6238C30.5044 37.1547 30.4331 37.6609 30.4992 38.9941C30.7802 44.6612 30.0379 45.3704 29.8396 46.0763C29.6288 46.8267 29.1575 47.4855 28.8045 48.1914C28.4593 48.8818 27.9677 49.4684 27.4614 50.0209C26.778 50.3963 26.2492 50.6171 25.8103 50.6832C25.546 50.7057 25.197 50.7057 24.8374 50.7057" stroke="#C8E1FF" stroke-width="11.495" stroke-linecap="round"/>
<path d="M24.7051 24.9282C25.1889 25.3671 25.715 26.3321 26.2894 27.3044C26.7717 28.1208 26.9947 28.8464 27.4573 29.4426C27.9231 30.0428 28.0522 30.8293 28.2736 31.5352C28.4992 32.2542 28.9776 32.9444 29.4402 33.5406C29.9183 34.1566 30.08 34.9273 30.3444 35.6332C30.6092 36.34 30.6088 37.1746 30.6319 41.0842C30.6407 42.5654 30.0827 43.3427 29.6418 44.0935C29.2719 44.7236 28.6312 45.4578 27.9901 46.1214C27.6609 46.2113 27.2194 46.2985 26.6919 46.4525C26.4262 46.5193 26.1645 46.5629 25.8948 46.6079" stroke="#C8E1FF" stroke-width="11.495" stroke-linecap="round"/>
<path d="M21.0586 26.0146L21.6286 26.2019" stroke="#0D0D0D" stroke-width="2.5" stroke-linecap="round"/>
<path d="M14.0928 27.2017L14.6628 27.0144" stroke="#0D0D0D" stroke-width="2.5" stroke-linecap="round"/>
<path d="M14.7295 34.1258C15.1878 34.0008 16.049 33.6655 17.1939 33.2239C18.1096 32.9906 19.0383 32.7804 20.1712 32.5282C20.7832 32.4218 21.4707 32.3593 22.1791 32.2949" stroke="#0D0D0D" stroke-width="2" stroke-linecap="round"/>
<path d="M18.1501 6.88734C17.1927 7.06173 16.2957 7.34045 14.4831 8.42067C13.051 9.2741 10.6728 10.9001 9.3504 11.7991C7.42864 13.1055 6.81467 13.7619 6.02874 14.5296C5.07758 15.4588 4.89344 16.1518 4.57582 17.1273C4.5159 17.3113 4.71187 17.3686 4.90836 17.3467C5.80664 17.2466 6.65517 16.9849 7.46652 16.6763C8.18114 16.4044 9.72769 15.2495 10.8734 14.3379C11.8276 13.5787 12.2984 13.1606 12.8228 12.8043C13.4585 12.3724 13.8991 11.8601 14.5063 11.3267C15.1727 10.7413 15.8824 10.021 16.4471 9.45242C16.9227 8.9735 17.2885 8.53483 17.6314 8.05629C17.7298 7.94068 17.8434 7.83285 17.9556 7.62913C18.0679 7.42541 18.1754 7.12907 18.0866 6.75137" stroke="#FFA24F" stroke-width="4.5" stroke-linecap="round"/>
<path d="M21.9241 10.716C21.8369 11.0592 21.1142 13.2606 20.2224 14.8932C19.6143 16.0064 17.8067 17.3066 16.9068 18.0195C16.2551 18.5358 15.804 18.8812 14.6896 19.6225C13.8701 20.1675 13.2539 20.5148 12.6861 20.8367C11.8158 21.3301 10.8983 21.6182 10.2205 21.8246C9.56669 21.9651 8.93997 22.0371 8.32827 22.0613C8.17647 22.0627 8.02088 22.0808 7.86058 22.0995" stroke="#FFA24F" stroke-width="4.5" stroke-linecap="round"/>
<path d="M4.59831 19.6439C4.84463 19.5842 5.50111 19.2216 7.33919 18.3482C8.28347 17.8995 9.03038 17.3787 9.68831 17.0697C10.3713 16.7489 11.0185 16.2549 11.6054 15.8834C12.2102 15.5007 13.0206 14.987 13.6537 14.594C14.1972 14.2565 14.741 13.8791 15.5076 13.4232C16.2991 12.9525 16.8516 12.3119 17.5014 11.8696C18.5757 11.1384 18.8912 10.5294 19.3569 10.0767C19.8568 9.59062 20.3262 9.16883 20.9236 8.55677C21.4629 8.11106 21.7613 7.80494 22.0056 7.64967C22.1153 7.55735 22.196 7.43758 22.2791 7.31418" stroke="#EC0808" stroke-width="6.3" stroke-linecap="round"/>
<path d="M24.6194 6.3932C23.7761 6.08736 22.1973 5.64187 21.9893 5.83309C21.5484 6.23851 21.3251 6.62956 21.1204 7.0472C20.9531 7.38832 20.8959 7.69448 20.9513 7.98056C21.1569 9.04254 21.6783 9.36818 21.7668 9.7744C21.8053 9.95142 21.711 10.1078 21.5999 10.2382C21.3208 10.5656 20.6492 10.684 20.0918 10.8037C19.1152 11.0134 18.4984 10.6549 17.5208 10.6725C16.5479 10.6901 16.1706 11.4112 15.6349 12.147C14.9643 13.0681 15.2964 13.5776 15.2344 14.1628C15.1533 14.9268 14.5996 15.5061 14.2086 15.7596C13.6878 16.0974 12.9189 16.0742 12.0429 15.9285C11.2639 15.7989 10.6172 15.518 10.22 15.5234C9.60378 15.5319 8.55256 16.2619 7.92104 16.785C7.39134 17.2237 7.65781 18.9946 7.82285 19.8826C7.90522 20.3258 7.52424 20.6211 7.35978 20.7215C6.95999 20.8233 6.47193 20.7535 5.78561 20.5367C5.25581 20.3554 4.35746 20.0297 3.33903 19.5961" stroke="#FF0004" stroke-width="0.54" stroke-linecap="round"/>
<path d="M23.0874 5.13131C23.2817 5.71387 23.3444 6.24871 23.2006 6.91241C23.0884 7.43047 22.8601 7.76467 22.673 7.89928C21.9458 8.42246 20.9683 8.38389 20.5818 8.44649C19.9919 8.54202 19.1667 8.75471 18.6708 9.02571C18.2067 9.27941 17.7855 9.90179 17.5393 10.5498C17.3971 10.9239 17.5086 11.4262 17.5543 12.0107C17.5829 12.3767 17.3083 13.1042 16.9661 13.6372C16.6926 14.0631 16.2643 14.1002 15.8553 14.283C15.4813 14.4502 14.7042 14.2826 14.0913 14.2535C13.4521 14.2232 13.0378 14.1494 12.4271 14.1842C11.7678 14.2219 11.1135 14.6246 10.49 15.1275C9.90696 15.5977 9.79189 16.3721 9.23334 17.8229C8.99219 18.4493 8.47179 18.717 8.08847 18.8892C7.67823 19.0735 7.22172 19.0992 6.59416 19.1494C5.95519 19.1109 5.37134 19.0698 4.8394 19.0909C4.72059 19.0912 4.63895 19.0827 4.34355 19.1258" stroke="#FFF200" stroke-width="0.54" stroke-linecap="round"/>
<path d="M6.3342 12.9782C6.23088 13.1721 6.12755 13.3659 6.03325 13.5334C5.93894 13.701 5.85679 13.8364 5.77215 13.9759" stroke="#ED7003" stroke-width="0.54" stroke-linecap="round"/>
<path d="M8.80176 11.9707L8.51295 12.7671" stroke="#ED7003" stroke-width="0.54" stroke-linecap="round"/>
<path d="M11.0688 10.6904L10.9084 11.1329" stroke="#ED7003" stroke-width="0.54" stroke-linecap="round"/>
<path d="M13.6562 8.5249L13.2391 9.67523" stroke="#ED7003" stroke-width="0.54" stroke-linecap="round"/>
<path d="M16.4214 7.52539L16.2609 7.96782" stroke="#ED7003" stroke-width="0.54" stroke-linecap="round"/>
<path d="M9.52295 22.2412L9.33362 22.7633" stroke="#ED7003" stroke-width="0.54" stroke-linecap="round"/>
<path d="M13.1177 20.4731L12.8526 21.204" stroke="#ED7003" stroke-width="0.54" stroke-linecap="round"/>
<path d="M15.8208 19.2085L15.5557 19.9394" stroke="#ED7003" stroke-width="0.54" stroke-linecap="round"/>
<path d="M18.3335 17.166L18.2107 17.8304" stroke="#ED7003" stroke-width="0.54" stroke-linecap="round"/>
</svg>
