<svg width="37" height="57" viewBox="0 0 37 57" fill="none" xmlns="http://www.w3.org/2000/svg">
<path d="M16.3339 13.3047C15.8083 15.2522 13.7119 19.4481 12.4041 21.7455C11.8249 22.763 11.3749 23.644 10.5317 24.9637C9.80428 26.1024 9.21202 27.7037 8.5779 29.1596C7.96044 30.5772 7.73317 32.0864 7.20513 33.3562C6.83894 34.2369 6.4665 35.7249 5.96457 37.4452C5.64377 38.5448 5.72549 41.2033 5.90916 43.0938C6.03514 44.3907 6.83067 45.3897 7.72764 47.0237C8.32904 48.1193 9.7282 48.8731 10.9205 49.561C11.9445 50.1519 13.1102 50.3551 15.8186 50.6179C19.7434 50.9988 20.8148 50.5134 21.8717 50.3559C22.8871 50.2045 23.7187 49.9339 24.774 49.5389C26.1366 49.0288 26.7809 47.9832 27.5464 47.1654C28.395 46.2589 28.5764 45.0287 28.9469 44.1832C29.2921 43.3953 29.4219 42.2863 29.5019 41.3332C29.5871 40.3176 29.8969 39.1703 29.9246 33.1472C29.9346 30.9797 29.4251 30.1452 28.897 28.9054C28.4679 27.898 27.8956 26.6112 27.2614 25.369C26.6905 24.2506 26.1 23.3368 25.5197 22.3599C24.9903 21.4685 24.1494 20.4899 23.4091 19.4568C22.656 18.4056 21.9327 17.6367 21.1925 16.8965C20.2417 15.9457 19.3993 15.3124 18.7113 14.6007C18.3874 14.2655 18.0772 13.9396 17.7091 13.7021C17.5189 13.5794 17.2364 13.6214 17.0757 13.752C16.28 14.3988 16.6506 18.0801 16.5192 20.3197C16.3985 22.3772 16.0173 25.2241 15.8336 26.6262C15.6397 28.1064 15.3839 29.2395 14.7268 33.1338C14.4161 34.9752 14.1204 37.2006 13.6699 39.8432C13.5793 40.3751 13.5377 40.6903 14.3468 39.6239C15.1559 38.5575 16.8279 36.1018 18.1595 33.9223C19.4911 31.7428 20.4316 29.914 21.0468 29.1548C21.6619 28.3956 21.9232 28.7614 22.11 29.2371C22.5085 30.2519 22.5613 32.3429 22.5882 35.056C22.6319 39.4676 21.0317 41.9079 20.9526 42.0686C20.2507 43.4934 22.2905 38.2805 23.6918 37.4254C23.946 37.2703 24.1937 37.3716 24.432 37.5284C25.0052 37.9054 25.3052 38.5306 25.4635 39.1608C25.567 39.5726 25.5174 40.209 25.439 40.6104C25.3229 41.2048 22.8478 41.33 20.6668 41.8026C19.4339 42.0698 18.6615 43.4358 18.234 44.2829C18.2846 44.4429 18.4936 44.5474 18.7058 44.6796C18.918 44.8118 19.127 44.9685 19.3423 45.13" stroke="#C8E1FF" stroke-width="11.495" stroke-linecap="round"/>
<path d="M27.3491 27.9917C27.5685 29.0915 27.9201 29.8821 28.361 30.5232C28.7859 31.1411 29.1099 31.9099 29.5507 32.6376C29.9954 33.3717 30.1674 34.1572 30.367 34.9285C30.5044 35.4594 30.4331 35.9656 30.4992 37.2987C30.7802 42.9659 30.0379 43.6751 29.8396 44.381C29.6288 45.1314 29.1575 45.7901 28.8045 46.4961C28.4593 47.1865 27.9677 47.773 27.4614 48.3256C26.778 48.701 26.2492 48.9218 25.8103 48.9879C25.546 49.0104 25.197 49.0104 24.8374 49.0104" stroke="#C8E1FF" stroke-width="11.495" stroke-linecap="round"/>
<path d="M24.7051 23.2329C25.1889 23.6718 25.715 24.6368 26.2894 25.6091C26.7717 26.4254 26.9947 27.1511 27.4573 27.7473C27.9231 28.3475 28.0522 29.134 28.2736 29.8399C28.4992 30.5589 28.9776 31.2491 29.4402 31.8453C29.9183 32.4613 30.08 33.232 30.3444 33.9379C30.6092 34.6447 30.6088 35.4793 30.6319 39.3889C30.6407 40.8701 30.0827 41.6474 29.6418 42.3982C29.2719 43.0283 28.6312 43.7625 27.9901 44.4261C27.6609 44.516 27.2194 44.6032 26.6919 44.7572C26.4262 44.824 26.1645 44.8676 25.8948 44.9125" stroke="#C8E1FF" stroke-width="11.495" stroke-linecap="round"/>
<path d="M21.0586 24.3193L21.6286 24.5066" stroke="#0D0D0D" stroke-width="2.5" stroke-linecap="round"/>
<path d="M14.0928 25.5063L14.6628 25.3191" stroke="#0D0D0D" stroke-width="2.5" stroke-linecap="round"/>
<path d="M14.7295 32.4304C15.1878 32.3054 16.049 31.9702 17.1939 31.5286C18.1096 31.2953 19.0383 31.0851 20.1712 30.8329C20.7832 30.7265 21.4707 30.664 22.1791 30.5996" stroke="#0D0D0D" stroke-width="2" stroke-linecap="round"/>
<path d="M7.76803 14.324C7.40658 12.4996 7.15206 9.81539 7.31132 9.0778C7.48328 8.28136 7.71021 7.71278 7.96974 7.09588C8.34253 6.2098 8.87131 5.65864 9.55615 4.8977C10.116 4.27564 11.0927 3.84949 11.7086 3.51069C12.4851 3.08352 15.1401 2.63625 17.2581 2.85941C18.2682 2.96584 19.1487 3.44901 19.7691 3.84015C20.3094 4.18078 20.7035 4.81297 20.9191 5.37998C21.1183 5.90405 21.4657 6.4259 21.7337 7.13289C21.9654 7.74434 22.2788 9.54137 22.1813 10.9262C22.1333 11.6078 21.5478 12.0443 20.9743 12.4257C20.6046 12.6715 20.1994 12.8022 18.6373 13.126C17.2365 13.4163 14.5607 13.7454 13.0865 13.9245C11.4166 14.1272 11.0693 14.0156 10.7942 13.9399C10.4699 13.8507 10.2711 13.5353 10.116 13.2606C9.62997 12.4003 10.1249 10.4849 10.5696 9.6353C10.8888 9.02524 11.3486 8.38205 11.8237 7.99741C12.2876 7.62194 13.5791 7.13383 15.5009 6.77278C16.235 6.63489 16.8386 6.7291 17.8534 6.99603C18.2456 7.09918 18.4867 7.35254 18.6906 7.62025C18.9161 7.91641 18.9656 8.60486 19.0223 9.34122C19.0443 9.62722 18.9318 9.73815 18.7677 9.86155C18.3831 10.1509 17.9863 10.3061 17.6725 10.4172C17.238 10.5711 15.2313 10.835 12.4818 11.164C11.4723 11.2847 11.2419 11.276 11.064 11.2028C10.8861 11.1295 10.7666 10.9828 10.6959 10.8429C10.6251 10.7031 10.6067 10.5746 10.6361 10.4373C10.8234 9.56376 12.0746 8.60951 12.7044 8.1361C13.4593 7.56864 14.5982 6.35962 15.5745 5.77038C16.3902 5.278 16.9495 5.19139 17.4667 5.0997C18.0654 4.99357 18.7662 5.39129 19.4244 5.71044C20.6764 6.31748 21.165 7.09886 21.4835 7.58355C21.7831 8.03944 21.9727 8.57215 22.1457 9.07774C22.519 10.1689 22.6402 11.8218 22.5547 11.918C22.1307 12.3952 22.6797 10.7274 22.7841 10.182C22.8907 9.62535 22.9665 9.03134 22.964 8.20524C22.9585 6.36597 22.3216 5.91156 22.0518 5.41989C21.7454 4.86161 21.0935 4.49868 20.5246 4.23125C19.9562 3.96406 19.4009 3.7803 18.8578 3.69195C18.3236 3.60506 17.6959 3.65972 17.186 3.91326C16.9566 4.02734 17.0802 4.46934 17.1477 4.71095C17.3297 5.36279 18.2274 5.56803 18.9126 5.71891C19.9081 5.93812 20.5977 6.38571 21.2707 6.91829C21.8933 7.41092 22.1207 8.21913 22.5595 8.96763C22.8779 9.51074 22.9579 10.1193 23.1294 10.6251C23.5804 11.9553 23.593 14.0699 23.3434 14.1718C22.5218 14.5073 21.1944 14.6459 20.5037 14.7953C20.2945 14.8406 20.0425 14.9108 18.4351 15.1586C16.8277 15.4064 13.873 15.8309 12.2797 16.0106C10.277 16.2366 9.728 15.9635 9.10868 15.8047C8.96611 15.7422 8.85591 15.6597 8.71886 15.6287C8.5818 15.5978 8.42121 15.6208 8.25576 15.6446" stroke="#8B4A2A" stroke-width="5.6" stroke-linecap="round"/>
<path d="M14.5743 5.00246C13.7856 5.01644 12.7281 5.49617 12.0865 5.98767C11.3281 6.56862 10.7913 6.76975 10.4009 7.28823C10.2763 7.45378 10.4042 7.78095 10.5242 7.93207C10.9636 8.4852 13.601 7.82429 15.031 7.50361C15.583 7.37982 15.8023 6.64978 16.0969 6.15947C16.3721 5.70144 16.1969 5.23422 16.1024 5.03274C15.7641 4.31144 14.1551 5.29313 13.6751 5.64371C13.4417 5.85852 13.209 6.09162 12.9757 6.30691C12.857 6.4074 12.7378 6.49009 12.6149 6.57529" stroke="#A99124" stroke-width="5.6" stroke-linecap="round"/>
<path d="M6.29479 18.7004C6.23026 18.7097 6.06795 18.733 5.884 18.8418C5.7931 18.8955 5.85228 19.0933 5.93339 19.1994C6.26106 19.6281 7.03239 19.4587 8.74243 19.2304C10.164 19.0407 11.967 18.618 13.8791 18.2929C15.2789 18.0549 16.892 17.7108 18.0743 17.4906C18.384 17.4329 18.6691 17.3557 19.9456 17.1554C21.222 16.955 23.4806 16.6305 24.7063 16.438C26.0564 16.1946 26.3136 16.1237 26.5714 16.0702C26.7001 16.0353 26.8245 15.9845 27.0364 15.8203" stroke="#4B3429" stroke-width="2.24" stroke-linecap="round"/>
<path d="M5.34527 15.5326C5.60637 15.525 6.13666 15.5453 6.63327 15.5586C7.07034 15.5702 7.58674 15.5424 8.08847 15.4707C8.69506 15.384 8.92021 15.1824 9.34594 15.0396C9.44232 15.0073 9.58433 14.9841 9.71548 14.9741C10.3339 14.9271 10.613 15.0228 11.0123 15.0442C11.203 15.0544 11.4419 15.049 11.7023 15.0297C11.9481 15.0115 12.2798 14.9171 12.7564 14.7911C13.3014 14.647 13.769 14.4977 14.2689 14.4135C14.9131 14.3049 15.1803 14.4453 15.516 14.4816C15.6831 14.4997 16.0404 14.4608 16.332 14.4281C16.8476 14.3702 17.1858 14.176 18.0205 13.9083C18.3522 13.802 18.7072 13.7397 19.0303 13.6992C19.6665 13.6196 20.0189 13.6896 20.5142 13.6942C20.7464 13.6963 21.0392 13.6702 21.2983 13.6421C21.865 13.5807 22.1526 13.39 22.5302 13.2602C22.7386 13.1885 22.9389 13.1197 23.2431 13.0639C23.9847 12.9278 24.5024 12.9973 25.0595 12.9628C25.1807 12.9553 25.317 12.923 25.4287 12.8919C25.8843 12.733 26.2931 12.5897 26.4797 12.5147C26.5737 12.4769 26.6664 12.4397 26.9505 12.338" stroke="#FCFCFC" stroke-width="5.6" stroke-linecap="round"/>
<path d="M10.9415 5.92179L10.5894 7.14532" stroke="#A66B38" stroke-width="0.28" stroke-linecap="round"/>
<path d="M13.306 6.05131C13.3116 6.2247 13.3171 6.39808 13.3268 6.53481C13.3365 6.67153 13.3501 6.76634 13.3641 6.86403" stroke="#A66B38" stroke-width="0.28" stroke-linecap="round"/>
<path d="M16.5234 5.17871C16.5262 5.19767 16.5289 5.21664 16.6361 5.35636C16.7432 5.49609 16.9547 5.756 17.1809 6.08125" stroke="#A66B38" stroke-width="0.28" stroke-linecap="round"/>
<path d="M16.0736 7.35454L16.1152 8.05233" stroke="#A66B38" stroke-width="0.28" stroke-linecap="round"/>
<path d="M11.8301 8.84375L12.5771 8.73643" stroke="#A66B38" stroke-width="0.28" stroke-linecap="round"/>
<path d="M11.7125 5.16623C11.9969 4.98991 12.2812 4.81358 12.4642 4.70782C12.6472 4.60206 12.7204 4.5722 12.8054 4.55001C12.8905 4.52781 12.9853 4.51419 13.083 4.50016" stroke="#A66B38" stroke-width="0.28" stroke-linecap="round"/>
<path d="M15.0296 5.80376C15.0406 6.01506 15.0516 6.22637 15.0641 6.38263C15.0766 6.5389 15.0902 6.63371 15.1043 6.73139" stroke="#A66B38" stroke-width="0.28" stroke-linecap="round"/>
<path d="M9.66762 8.4965C9.84833 8.43611 10.029 8.37571 10.1944 8.30838C10.3598 8.24106 10.5043 8.16864 10.6198 8.11684C10.7352 8.06504 10.8171 8.03605 10.8942 7.95507" stroke="#A66B38" stroke-width="0.28" stroke-linecap="round"/>
<path d="M14.802 8.2806C14.7468 8.49515 14.6915 8.7097 14.651 8.85639C14.6105 9.00307 14.5865 9.0754 14.5705 9.14761C14.5545 9.21981 14.5473 9.28971 14.54 9.36173" stroke="#A66B38" stroke-width="0.28" stroke-linecap="round"/>
</svg>
