<svg width="41" height="59" viewBox="0 0 41 59" fill="none" xmlns="http://www.w3.org/2000/svg">
<path d="M19.0864 15C18.5607 16.9475 16.4643 21.1434 15.1565 23.4408C14.5773 24.4583 14.1273 25.3393 13.2842 26.659C12.5567 27.7977 11.9645 29.399 11.3303 30.8549C10.7129 32.2725 10.4856 33.7817 9.95757 35.0515C9.59138 35.9322 9.21894 37.4202 8.71701 39.1406C8.39621 40.2401 8.47793 42.8986 8.6616 44.7892C8.78759 46.086 9.58311 47.085 10.4801 48.719C11.0815 49.8146 12.4806 50.5684 13.6729 51.2563C14.6969 51.8472 15.8627 52.0504 18.571 52.3132C22.4959 52.6941 23.5673 52.2087 24.6241 52.0512C25.6396 51.8998 26.4711 51.6292 27.5264 51.2342C28.8891 50.7241 29.5333 49.6785 30.2989 48.8607C31.1475 47.9542 31.3288 46.724 31.6993 45.8785C32.0446 45.0906 32.1744 43.9816 32.2543 43.0285C32.3395 42.0129 32.6494 40.8656 32.6771 34.8425C32.687 32.675 32.1775 31.8405 31.6495 30.6007C31.2204 29.5933 30.648 28.3065 30.0139 27.0643C29.4429 25.946 28.8525 25.0321 28.2722 24.0552C27.7427 23.1638 26.9018 22.1852 26.1616 21.1521C25.4084 20.1009 24.6851 19.332 23.9449 18.5918C22.9941 17.641 22.1517 17.0077 21.4638 16.296C21.1398 15.9608 20.8296 15.6349 20.4615 15.3974C20.2714 15.2748 19.9889 15.3167 19.8282 15.4473C19.0324 16.0941 19.403 19.7754 19.2716 22.015C19.1509 24.0725 18.7697 26.9195 18.586 28.3215C18.3921 29.8017 18.1364 30.9348 17.4793 34.8291C17.1686 36.6705 16.8729 38.8959 16.4224 41.5385C16.3317 42.0704 16.2902 42.3856 17.0993 41.3192C17.9084 40.2529 19.5804 37.7971 20.912 35.6176C22.2436 33.4381 23.1841 31.6093 23.7992 30.8501C24.4144 30.0909 24.6756 30.4567 24.8624 30.9325C25.2609 31.9472 25.3137 34.0382 25.3406 36.7513C25.3844 41.163 23.7842 43.6032 23.705 43.7639C23.0032 45.1887 25.0429 39.9758 26.4442 39.1208C26.6984 38.9656 26.9461 39.0669 27.1844 39.2237C27.7576 39.6007 28.0576 40.2259 28.216 40.8561C28.3194 41.2679 28.2698 41.9043 28.1914 42.3057C28.0754 42.9001 25.6003 43.0253 23.4192 43.4979C22.1863 43.7651 21.4139 45.1312 20.9864 45.9782C21.0371 46.1382 21.2461 46.2427 21.4582 46.3749C21.6704 46.5071 21.8794 46.6638 22.0947 46.8253" stroke="#C8E1FF" stroke-width="11.495" stroke-linecap="round"/>
<path d="M30.1015 29.687C30.3209 30.7869 30.6726 31.5774 31.1134 32.2185C31.5383 32.8364 31.8623 33.6052 32.3032 34.3329C32.7479 35.067 32.9199 35.8525 33.1195 36.6238C33.2569 37.1547 33.1856 37.6609 33.2517 38.9941C33.5326 44.6612 32.7903 45.3704 32.592 46.0763C32.3812 46.8267 31.9099 47.4855 31.557 48.1914C31.2117 48.8818 30.7202 49.4684 30.2139 50.0209C29.5304 50.3963 29.0017 50.6171 28.5628 50.6832C28.2984 50.7057 27.9494 50.7057 27.5898 50.7057" stroke="#C8E1FF" stroke-width="11.495" stroke-linecap="round"/>
<path d="M27.4575 24.9282C27.9413 25.3671 28.4675 26.3321 29.0419 27.3044C29.5241 28.1208 29.7471 28.8464 30.2098 29.4426C30.6756 30.0428 30.8046 30.8293 31.0261 31.5352C31.2516 32.2542 31.73 32.9444 32.1927 33.5406C32.6707 34.1566 32.8325 34.9273 33.0969 35.6332C33.3616 36.34 33.3613 37.1746 33.3844 41.0842C33.3931 42.5654 32.8351 43.3427 32.3943 44.0935C32.0243 44.7236 31.3837 45.4578 30.7425 46.1214C30.4133 46.2113 29.9718 46.2985 29.4444 46.4525C29.1787 46.5193 28.9169 46.5629 28.6473 46.6079" stroke="#C8E1FF" stroke-width="11.495" stroke-linecap="round"/>
<path d="M23.811 26.0146L24.3811 26.2019" stroke="#0D0D0D" stroke-width="2.5" stroke-linecap="round"/>
<path d="M16.8452 27.2017L17.4153 27.0144" stroke="#0D0D0D" stroke-width="2.5" stroke-linecap="round"/>
<path d="M17.4819 34.1258C17.9403 34.0008 18.8014 33.6655 19.9463 33.2239C20.862 32.9906 21.7907 32.7804 22.9236 32.5282C23.5357 32.4218 24.2232 32.3593 24.9315 32.2949" stroke="#0D0D0D" stroke-width="2" stroke-linecap="round"/>
<path d="M7.45264 10.2238C7.45264 9.67691 8.12411 6.97833 8.97616 4.40183C9.10299 4.0183 9.31444 3.95164 9.48485 3.97135C10.3482 4.07122 10.8837 5.21827 11.8153 6.34056C12.5269 7.19798 13.1296 8.01605 14.0605 8.61121C14.9848 9.20218 16.2237 8.61376 16.9638 8.46561C20.0075 7.85635 24.4072 8.31617 24.7035 8.21126C25.4408 7.95018 26.0553 6.12374 26.7808 5.03324C26.9882 4.72153 27.2902 4.46033 27.5648 4.185C27.6945 4.05507 27.8815 4.03558 28.0519 4.05593C28.9278 4.16051 29.9137 5.59725 30.7225 6.49063C31.0608 6.78757 31.3596 7.08515 31.6134 7.40245C31.7412 7.55188 31.8671 7.67778 31.9968 7.93466" stroke="#FFC871" stroke-width="4" stroke-linecap="round"/>
<path d="M7.57976 11.7496C6.39452 12.0879 5.38223 12.7619 4.65672 13.5484C4.05119 14.2049 4.06219 15.0942 4.03993 15.8585C4.00956 16.9016 4.77944 17.7241 5.43628 18.4445C6.19314 19.2747 8.24614 19.6317 9.46253 19.8034C10.1211 19.8963 12.5611 20.0157 15.8446 19.9948C17.4088 19.9848 18.0053 19.8886 19.1632 19.8256C21.6257 19.6918 23.3897 19.4651 23.77 19.4015C25.405 19.1281 28.4664 18.7033 30.2106 18.3428C31.7943 18.0154 32.8411 17.2205 33.6678 16.6482C34.7046 15.9304 35.0463 15.0586 35.3871 14.2962C35.7353 13.5173 35.5575 12.3498 35.115 11.3503C34.6724 10.8645 34.2871 10.4791 33.9914 10.2464C33.8216 10.1396 33.6118 10.0557 33.0141 9.71484" stroke="#FFC871" stroke-width="4" stroke-linecap="round"/>
<path d="M24.8589 6.83848C25.0516 6.3547 25.5714 5.51077 25.9121 4.99098C26.2435 4.48541 26.6091 4.01759 26.9181 3.54695C27.2726 3.00709 27.7771 2.39591 28.167 2.06934C28.6433 1.67031 29.173 3.10454 29.5137 3.54354C29.8657 3.99715 30.1133 4.56463 30.487 5.01969C30.943 5.57484 31.184 6.31674 31.477 6.83653C31.8011 7.48481 32.1262 8.13504 32.2396 8.39396C32.2888 8.5244 32.3209 8.65288 32.5487 9.07728" stroke="#FFC871" stroke-width="4" stroke-linecap="round"/>
<path d="M32.7434 8.88281C33.6477 8.88281 34.881 9.07555 35.483 9.43327C35.7601 9.5979 36.052 9.66055 36.2462 9.87081C36.6713 10.3311 36.7655 10.9892 36.9125 11.6536C37.1902 12.9091 36.5728 13.5843 36.2812 14.0564C36.0033 14.5065 35.8602 15.0132 35.5512 15.5647C35.2754 16.0568 34.661 16.5045 33.9465 16.9445C33.4202 17.2686 32.8758 17.4798 32.1944 17.8205C31.6538 18.0908 31.1237 18.2585 30.6039 18.4376C30.0452 18.6302 29.4689 18.7783 28.9331 18.8435C28.315 18.9188 27.6857 19.1346 26.9868 19.2816C26.2983 19.4264 25.77 19.4928 24.9611 19.5736C22.8907 19.7804 22.1042 19.7848 21.5032 19.8656C20.7448 19.9675 20.1575 19.9795 19.4269 20.0603C18.7629 20.1337 17.1497 20.1742 15.1688 20.255C12.1178 20.3794 9.90276 20.2394 9.57911 20.1747C8.74745 20.0083 7.76227 19.9483 7.21036 19.6724C6.85507 19.4947 6.52801 19.2991 6.28515 19.1049C6.17078 19.0071 6.07441 18.9107 5.68311 18.6167" stroke="#FFC871" stroke-width="4" stroke-linecap="round"/>
<path d="M8.40842 12.6789C8.40842 12.7431 7.73386 14.0611 6.87241 15.7188C6.28989 16.8397 8.08331 13.882 8.3909 13.4109C8.86339 12.6872 9.24943 11.2597 9.52685 10.3938C9.79546 9.55548 10.2248 9.11236 10.4355 8.59257C10.4879 8.4634 10.5168 8.33365 10.5333 8.44413C10.6845 9.45359 9.81011 11.7834 9.09223 13.5335C8.23001 15.6356 7.82633 16.4712 7.66183 16.9448C7.36564 17.7974 9.50835 15.7645 10.9816 14.6145C12.4325 13.4819 12.7867 12.455 13.1766 11.8213C13.3532 11.5343 13.5664 11.285 13.6643 11.2027C14.8562 10.2006 11.4941 14.7191 11.022 15.4988C10.5921 16.2088 10.034 16.8917 9.73953 17.56C9.67495 17.7065 9.57844 17.8671 9.59304 17.9819C9.60764 18.0968 9.73613 18.161 9.88263 18.1299C10.2212 18.0579 10.6443 17.6772 11.4196 17.193C12.6179 16.4445 14.239 14.9595 15.8276 13.4357C17.1472 12.1698 17.8484 11.7074 18.5935 11.0752C18.7806 10.9164 18.9503 10.8314 18.9688 10.7496C19.1226 10.0697 17.2351 10.991 16.9602 11.1526C16.8085 11.2417 16.6531 11.3784 16.7952 11.4125C18.0807 11.7207 20.4279 10.3505 21.9989 9.85701C23.856 9.27364 24.7887 9.3051 25.6024 9.15909C26.197 9.05241 26.8659 8.65682 27.6466 8.39692C27.9496 8.29602 28.1994 8.16915 28.4905 8.13654C29.2807 8.04799 30.1112 8.75026 30.6972 9.18926C31.3489 9.67752 31.9295 10.405 32.2556 10.9248C32.6026 11.478 32.8075 12.2214 32.7924 13.0166C32.7791 13.715 31.7406 14.1039 31.1396 14.4621C30.304 14.9601 29.1806 15.3051 25.4087 16.1315C24.3593 16.3614 23.0521 16.4089 21.2056 16.6036C18.9664 16.8397 16.9246 16.7671 15.1511 16.462C14.7536 16.3936 15.9152 15.5465 17.0711 14.9751C18.227 14.4037 19.4798 13.8898 21.0406 13.3038C22.6015 12.7178 24.4324 12.0754 25.4881 11.7284C27.1404 11.1852 27.7439 11.0572 28.4408 10.9433C28.6816 10.904 29.0054 10.9268 29.203 10.991C29.4006 11.0553 29.4649 11.1837 29.4337 11.3142C29.3631 11.61 28.5314 12.0909 26.1612 12.9159C24.448 13.5122 21.5103 13.8372 20.1334 14.0854C18.7566 14.3336 18.9814 14.3336 20.8961 13.9C22.8107 13.4664 26.4084 12.5991 28.4063 12.1362C30.6859 11.6081 31.0875 11.5118 31.2496 11.3015C31.4091 11.0945 31.3805 10.7662 31.3002 10.4425C31.203 10.0509 30.7653 9.88913 30.3458 9.77573C30.0608 9.69871 29.605 9.69445 27.8476 9.8867C26.0901 10.0789 23.0385 10.4965 21.3862 10.7116C19.1829 10.991 18.2124 11.3463 17.3213 11.7191C16.9441 11.8671 16.7192 11.9313 16.3902 12.0948" stroke="#FFC871" stroke-width="4" stroke-linecap="round"/>
<path d="M15.5967 11.8486V12.0004" stroke="#0D0D0D" stroke-width="2" stroke-linecap="round"/>
<path d="M22.0459 11.0137V11.1654" stroke="#0D0D0D" stroke-width="2" stroke-linecap="round"/>
<path d="M8.51172 8.39266C8.61418 7.93198 8.86917 7.21554 9.07601 6.67396C9.18617 6.38555 9.35835 6.15936 9.52475 6.03109C9.60716 5.96756 9.71657 5.95367 9.8198 5.966C10.2478 6.0171 10.6657 6.61773 10.9249 7.08149C10.9811 7.18208 11.0524 7.28641 11.0917 7.40235C11.131 7.51829 11.131 7.6454 10.9912 7.76172C10.1565 8.08451 9.695 8.13535 9.21969 8.2382C9.10336 8.26401 9.00167 8.28943 8.8969 8.31562" stroke="#EDA666" stroke-width="2" stroke-linecap="round"/>
<path d="M28.7725 3C28.4142 3.28118 27.9019 3.74263 27.3107 4.34583C27.187 4.47199 27.1809 4.59004 27.2313 4.66785C27.3506 4.85182 28.2008 4.84888 29.2023 4.74719C29.5559 4.71129 29.5428 4.44213 29.5174 4.28651C29.4411 4.02921 29.3633 3.79733 29.3121 3.54118C29.2863 3.41214 29.2609 3.28503 29.1576 3" stroke="#EDA666" stroke-width="2" stroke-linecap="round"/>
<path d="M0.5 13.2458C1.31351 13.2203 2.12702 13.1949 3.65196 13.1564C5.17691 13.1179 7.38864 13.067 9.66739 13.0146" stroke="#EDA666" stroke-linecap="round"/>
<path d="M9.74465 15.249C9.69381 15.249 9.64296 15.249 8.14228 15.7066C6.6416 16.1642 3.69263 17.0794 0.654297 18.0994" stroke="#EDA666" stroke-linecap="round"/>
<path d="M28.7725 10.8579C30.5012 10.5528 32.2299 10.2478 33.8831 9.97621C35.5363 9.70465 37.0616 9.47585 37.9618 9.35799C38.862 9.24012 39.0908 9.24012 39.5576 9.16309" stroke="#EDA666" stroke-linecap="round"/>
<path d="M29.312 13.0918C30.6085 13.2189 31.9051 13.346 33.6788 13.5259C35.4526 13.7058 37.6643 13.9346 39.9431 14.1703" stroke="#EDA666" stroke-linecap="round"/>
</svg>
