<svg width="47" height="36" viewBox="0 0 47 36" fill="none" xmlns="http://www.w3.org/2000/svg">
<path d="M6.91003 10.3498C5.6653 11.0611 4.84626 11.7831 4.53238 12.5887C3.83714 14.373 4.03798 15.9107 3.99083 20.569C3.96414 23.2064 4.84087 24.8017 5.64913 26.5085C6.52723 28.3627 8.16017 29.204 9.86696 30.2386C11.4127 31.1756 13.0098 31.3594 24.7351 31.5898C28.2871 31.6596 30.0697 31.187 32.675 30.6037C34.7352 30.1424 36.1802 29.8399 38.3342 28.8551C40.4186 27.9022 40.6742 25.2705 41.5727 22.618C42.2104 20.7354 42.2045 14.445 41.9364 10.6246C41.8208 8.97758 40.0545 7.66094 38.1712 6.40274C36.1974 5.08403 34.041 4.6919 31.6162 4.24465C30.0113 3.94864 21.2703 3.88363 15.5841 4.19616C13.7629 4.29626 12.3955 5.04754 10.0623 6.21414C8.43064 7.02997 7.45427 8.63627 6.64331 10.075C5.87198 11.4433 5.65452 12.947 5.69628 20.0207C5.7136 22.956 7.62131 24.085 8.92532 25.164C9.75796 25.853 10.7682 26.1542 13.8854 26.5569C21.7536 27.5736 28.1837 27.0567 30.0225 26.6081C31.239 26.3374 32.1415 26.0679 33.1263 25.7096C33.6665 25.5291 34.2888 25.3513 35.1995 25.1681" stroke="#D9D9D9" stroke-width="7.98" stroke-linecap="round"/>
<path d="M17.1166 4.11133C15.8806 4.35902 14.974 4.5225 13.9622 4.64758C13.2023 4.74152 12.5788 5.14174 11.7119 5.47241C11.001 5.74355 10.1861 6.00867 9.44052 6.23655C8.74218 6.45 7.79334 7.36603 7.0868 8.09302C6.46429 8.73353 5.93068 9.51603 5.51765 10.095C5.06926 10.7236 5.14549 11.4976 4.87736 12.1589C4.0742 14.1399 4.89532 17.9376 5.14363 18.5786C5.41872 19.2886 6.13132 20.1248 7.57351 21.4035C8.52372 22.246 10.4177 22.4395 12.1714 22.2779C13.439 22.1611 13.1943 20.2152 13.1949 18.2274C13.1955 16.607 13.0321 13.7466 12.8872 12.845C12.5682 10.8601 12.3695 16.2447 12.3076 17.3128C12.267 18.0123 12.2865 19.0349 13.0222 17.9674C13.7578 16.8998 15.2291 13.712 16.1914 11.8245C17.1537 9.9371 17.5624 9.44667 17.9773 10.8288C18.3922 12.2109 18.8009 15.4805 19.0114 17.4509C19.222 19.4213 19.222 19.9935 19.222 20.0226C19.222 20.0517 19.222 19.5204 19.5081 17.4893C19.7941 15.4582 20.3663 11.9434 21.3559 12.258C22.3454 12.5726 23.735 16.823 24.4917 19.0944C25.2484 21.3657 25.3301 21.5292 25.4131 21.4908C25.4961 21.4524 25.5778 21.2072 26.0695 19.017C26.5612 16.8267 27.4603 12.6989 28.7409 12.3911C30.0215 12.0834 31.6562 15.7208 32.8049 16.8794C33.9536 18.038 34.5667 16.6075 34.9438 15.7889C35.4048 14.788 35.7742 14.1888 36.1655 13.6098C36.2929 13.4214 36.516 13.6847 36.682 14.0148C37.9058 16.4488 37.7991 19.9997 37.7173 20.8047C37.6802 21.1703 35.1785 21.6915 30.8958 22.7838C28.7544 23.33 26.6132 23.59 24.8645 23.7585C21.8174 24.052 19.8883 23.8043 18.96 23.5572C18.5955 23.4602 18.4814 23.3101 18.3569 23.0426C18.0532 22.3899 17.9018 21.2914 17.7779 19.2994C17.4274 13.6609 17.9414 12.58 18.3736 11.9156C19.2688 10.5395 21.0784 9.06646 21.3664 8.86025C21.6835 8.63314 23.4997 8.69368 26.098 8.73455C28.5968 8.77385 29.8283 9.02311 32.9566 9.39404C34.1502 9.53556 34.7004 10.3409 35.319 11.105C35.5661 11.4134 35.9339 11.9038 36.2052 12.1769C36.4764 12.45 36.6399 12.4908 36.8083 12.5329" stroke="#D9D9D9" stroke-width="7.98" stroke-linecap="round"/>
<path d="M15.5479 19.4561V19.8161" stroke="#0D0D0D" stroke-width="2.5" stroke-linecap="round"/>
<path d="M21.0479 19.4561V19.6961" stroke="#0D0D0D" stroke-width="2.5" stroke-linecap="round"/>
<path d="M15.4424 24.9587C16.4793 25.0787 17.9147 24.9203 19.2583 24.8189C19.8374 24.7594 20.6775 24.7186 21.8938 24.6988C22.5557 24.679 23.3082 24.6394 24.0835 24.5986" stroke="#0D0D0D" stroke-width="2" stroke-linecap="round"/>
<path d="M32.7799 19.4312C31.3622 19.3412 28.4193 19.5774 27.7292 20.0562C26.9162 20.6205 26.9223 21.4749 26.9263 22.3479C26.9282 22.7619 27.3175 23.0189 27.6447 23.2496C28.4053 23.7862 30.9518 23.7348 32.8221 23.5867C33.5689 23.5275 34.2258 23.188 34.6653 22.9156C35.0336 22.6873 35.217 22.3296 35.3285 21.8447C35.4997 21.1004 35.211 20.4444 34.9018 20.1265C34.4172 19.7683 33.9994 19.6933 33.636 19.5835C33.4098 19.5448 33.0988 19.5404 32.7784 19.5359" stroke="#FCA7A7" stroke-width="2.4576" stroke-linecap="round"/>
<path d="M28.3866 20.7366C28.3858 20.7952 28.3161 21.5858 28.2721 22.5779C28.2644 22.7493 28.8126 21.8111 29.247 21.4019C29.7412 20.9363 29.4843 22.6432 29.6443 22.6925C29.8803 22.7652 30.2537 22.0159 30.4967 21.8356C30.7398 21.6553 30.7959 21.8318 30.8227 22.0692C30.8496 22.3065 30.8455 22.5993 30.9038 22.6192C31.6665 22.8795 31.7479 21.4067 32.0316 21.2031C32.1609 21.1102 32.188 21.7919 32.2554 22.2086C32.3131 22.5654 32.6955 21.42 32.8771 21.0685C32.9752 20.8784 33.1757 20.7186 33.2616 21.0539C33.3474 21.3892 33.3355 22.2384 33.3611 22.5006C33.3867 22.7627 33.4502 22.4122 33.5279 22.159C33.6055 21.9058 33.6954 21.7607 33.8768 21.6123" stroke="#FCA7A7" stroke-width="2.4576" stroke-linecap="round"/>
<path d="M7.8668 20.4644C6.44907 20.3744 3.50619 20.6106 2.81615 21.0895C2.00311 21.6537 2.00926 22.5081 2.01325 23.3811C2.01514 23.7951 2.40441 24.0521 2.73157 24.2828C3.49217 24.8194 6.03873 24.768 7.90906 24.6199C8.65585 24.5607 9.31271 24.2212 9.75217 23.9488C10.1205 23.7205 10.3039 23.3628 10.4154 22.8779C10.5866 22.1336 10.2979 21.4777 9.98869 21.1597C9.50414 20.8015 9.08629 20.7266 8.72287 20.6167C8.49669 20.578 8.18573 20.5736 7.86534 20.5691" stroke="#FCA7A7" stroke-width="2.4576" stroke-linecap="round"/>
<path d="M3.47353 21.7698C3.47271 21.8284 3.40305 22.619 3.35896 23.6111C3.35134 23.7825 3.89955 22.8443 4.33394 22.4351C4.82814 21.9695 4.57124 23.6764 4.73119 23.7257C4.96724 23.7984 5.34061 23.0491 5.58365 22.8688C5.82669 22.6885 5.88279 22.865 5.90963 23.1024C5.93648 23.3397 5.93238 23.6325 5.99067 23.6524C6.75337 23.9127 6.83481 22.44 7.11856 22.2363C7.24785 22.1434 7.27493 22.8251 7.3423 23.2418C7.39999 23.5986 7.78246 22.4532 7.964 22.1017C8.06213 21.9116 8.26266 21.7518 8.34848 22.0871C8.4343 22.4224 8.4224 23.2716 8.44801 23.5338C8.47362 23.7959 8.53711 23.4454 8.61476 23.1922C8.69242 22.939 8.78232 22.7939 8.96367 22.6455" stroke="#FCA7A7" stroke-width="2.4576" stroke-linecap="round"/>
</svg>
