<svg width="48" height="36" viewBox="0 0 48 36" fill="none" xmlns="http://www.w3.org/2000/svg">
<path d="M8.62096 10.3498C7.37623 11.0611 6.55719 11.7831 6.24332 12.5887C5.54808 14.373 5.74891 15.9107 5.70177 20.569C5.67507 23.2064 6.5518 24.8017 7.36007 26.5085C8.23817 28.3627 9.8711 29.204 11.5779 30.2386C13.1237 31.1756 14.7207 31.3594 26.446 31.5898C29.9981 31.6596 31.7806 31.187 34.3859 30.6037C36.4461 30.1424 37.8911 29.8399 40.0452 28.8551C42.1295 27.9022 42.3851 25.2705 43.2836 22.618C43.9214 20.7354 43.9154 14.445 43.6473 10.6246C43.5318 8.97758 41.7654 7.66094 39.8822 6.40274C37.9083 5.08403 35.7519 4.6919 33.3271 4.24465C31.7222 3.94864 22.9812 3.88363 17.2951 4.19616C15.4739 4.29626 14.1064 5.04754 11.7732 6.21414C10.1416 7.02997 9.16521 8.63627 8.35424 10.075C7.58292 11.4433 7.36546 12.947 7.40721 20.0207C7.42454 22.956 9.33224 24.085 10.6363 25.164C11.4689 25.853 12.4791 26.1542 15.5963 26.5569C23.4645 27.5736 29.8946 27.0567 31.7334 26.6081C32.9499 26.3374 33.8525 26.0679 34.8372 25.7096C35.3774 25.5291 35.9998 25.3513 36.9104 25.1681" stroke="#D9D9D9" stroke-width="7.98" stroke-linecap="round"/>
<path d="M18.8275 4.11133C17.5915 4.35902 16.685 4.5225 15.6731 4.64758C14.9132 4.74152 14.2897 5.14174 13.4228 5.47241C12.712 5.74355 11.897 6.00867 11.1515 6.23655C10.4531 6.45 9.50428 7.36603 8.79773 8.09302C8.17523 8.73353 7.64162 9.51603 7.22859 10.095C6.7802 10.7236 6.85643 11.4976 6.5883 12.1589C5.78513 14.1399 6.60625 17.9376 6.85457 18.5786C7.12966 19.2886 7.84226 20.1248 9.28445 21.4035C10.2347 22.246 12.1286 22.4395 13.8823 22.2779C15.1499 22.1611 14.9053 20.2152 14.9059 18.2274C14.9064 16.607 14.743 13.7466 14.5981 12.845C14.2791 10.8601 14.0804 16.2447 14.0185 17.3128C13.978 18.0123 13.9975 19.0349 14.7331 17.9674C15.4688 16.8998 16.9401 13.712 17.9024 11.8245C18.8647 9.9371 19.2734 9.44667 19.6882 10.8288C20.1031 12.2109 20.5118 15.4805 20.7224 17.4509C20.9329 19.4213 20.9329 19.9935 20.9329 20.0226C20.9329 20.0517 20.9329 19.5204 21.219 17.4893C21.5051 15.4582 22.0773 11.9434 23.0668 12.258C24.0563 12.5726 25.4459 16.823 26.2026 19.0944C26.9593 21.3657 27.0411 21.5292 27.124 21.4908C27.207 21.4524 27.2888 21.2072 27.7804 19.017C28.2721 16.8267 29.1712 12.6989 30.4518 12.3911C31.7324 12.0834 33.3672 15.7208 34.5159 16.8794C35.6646 18.038 36.2776 16.6075 36.6547 15.7889C37.1158 14.788 37.4851 14.1888 37.8765 13.6098C38.0038 13.4214 38.227 13.6847 38.3929 14.0148C39.6168 16.4488 39.51 19.9997 39.4283 20.8047C39.3912 21.1703 36.8894 21.6915 32.6068 22.7838C30.4653 23.33 28.3241 23.59 26.5754 23.7585C23.5283 24.052 21.5992 23.8043 20.671 23.5572C20.3065 23.4602 20.1923 23.3101 20.0678 23.0426C19.7641 22.3899 19.6127 21.2914 19.4889 19.2994C19.1383 13.6609 19.6523 12.58 20.0846 11.9156C20.9797 10.5395 22.7894 9.06646 23.0773 8.86025C23.3945 8.63314 25.2106 8.69368 27.8089 8.73455C30.3078 8.77385 31.5392 9.02311 34.6676 9.39404C35.8612 9.53556 36.4114 10.3409 37.03 11.105C37.277 11.4134 37.6449 11.9038 37.9161 12.1769C38.1873 12.45 38.3508 12.4908 38.5192 12.5329" stroke="#D9D9D9" stroke-width="7.98" stroke-linecap="round"/>
<path d="M17.2588 19.4561V19.8161" stroke="#0D0D0D" stroke-width="2.5" stroke-linecap="round"/>
<path d="M22.7588 19.4561V19.6961" stroke="#0D0D0D" stroke-width="2.5" stroke-linecap="round"/>
<path d="M17.1533 24.9587C18.1903 25.0787 19.6257 24.9203 20.9692 24.8189C21.5483 24.7594 22.3884 24.7186 23.6048 24.6988C24.2667 24.679 25.0192 24.6394 25.7945 24.5986" stroke="#0D0D0D" stroke-width="2" stroke-linecap="round"/>
<path d="M35.3017 20.3975C35.1297 20.7378 34.9555 20.998 34.7686 21.2117C34.6673 21.3404 34.5529 21.5104 34.4509 21.6831C34.349 21.8558 34.263 22.0259 33.9153 22.3723" stroke="#FCA8A8" stroke-width="1.4" stroke-linecap="round"/>
<path d="M2.08689 22.6173C1.9149 22.9576 1.74068 23.2177 1.55374 23.4314C1.45243 23.5601 1.33802 23.7302 1.23608 23.9028C1.13415 24.0755 1.04816 24.2456 0.700463 24.5921" stroke="#FCA8A8" stroke-width="1.4" stroke-linecap="round"/>
<path d="M38.6607 20.1535C38.3727 20.6389 37.9123 21.1527 37.5503 21.6111C37.4775 21.7262 37.4202 21.8396 37.3478 21.9547C37.2754 22.0698 37.1896 22.1831 37.0148 22.3856" stroke="#FCA8A8" stroke-width="1.4" stroke-linecap="round"/>
<path d="M5.44681 22.3733C5.1588 22.8586 4.69843 23.3725 4.33647 23.8308C4.26364 23.9459 4.20631 24.0593 4.1339 24.1744C4.0615 24.2895 3.97575 24.4028 3.80091 24.6053" stroke="#FCA8A8" stroke-width="1.4" stroke-linecap="round"/>
<path d="M42.2768 20.4277C42.2765 20.4845 42.1904 20.6839 42.003 21.0125C41.7872 21.3126 41.6122 21.5719 41.4824 21.8005C41.41 21.9155 41.3243 22.0289 41.1491 22.3175" stroke="#FCA8A8" stroke-width="1.4" stroke-linecap="round"/>
<path d="M9.0629 22.6474C9.06266 22.7042 8.97654 22.9037 8.78911 23.2323C8.57338 23.5323 8.3983 23.7917 8.26856 24.0202C8.19616 24.1353 8.11041 24.2486 7.93521 24.5372" stroke="#FCA8A8" stroke-width="1.4" stroke-linecap="round"/>
</svg>
