<svg width="41" height="39" viewBox="0 0 41 39" fill="none" xmlns="http://www.w3.org/2000/svg">
<path d="M3.78062 29.8293C3.36454 23.2489 3.63916 20.3425 4.88222 16.6373C7.12758 9.94448 9.04829 9.30791 9.98241 8.30098C11.5358 6.62655 13.6169 6.11652 17.8714 5.38629C24.1439 4.30971 25.7542 5.76285 27.0773 6.38698C28.366 6.99482 29.7029 9.49515 32.4126 13.7944C33.7429 15.905 34.2216 17.5464 34.7084 19.9722C34.7791 21.1498 34.8478 21.9903 34.9518 23.5391C34.9872 24.8134 34.9872 27.079 34.9872 29.4132" stroke="#E0D0FF" stroke-width="7.2" stroke-linecap="round"/>
<path d="M3.78027 31.0777C4.47098 32.3218 5.44046 33.5701 6.85828 34.1276C9.67117 35.2338 11.2615 33.3703 12.4796 32.7098C13.5164 32.1476 13.9037 31.2192 14.2147 30.9061C14.8699 30.2464 15.8385 32.6672 17.2636 33.6751C18.3574 34.4488 20.8939 34.1983 22.8454 33.5773C24.2619 33.1266 24.7219 31.5687 25.2753 30.698C25.8839 29.7406 27.2143 32.1138 28.3596 32.9126C30.294 34.262 34.009 32.8169 35.1564 32.0857C35.4093 31.9245 35.6068 31.706 35.7815 31.4626C37.9466 28.447 36.0978 21.2372 35.9584 19.8485C35.8201 18.4714 35.2656 17.4217 34.9192 16.2421C34.4721 14.7197 33.88 13.6769 33.1519 12.566C32.4549 11.5026 31.5915 10.5563 30.8291 9.65232C30.0667 8.74857 28.9577 8.19706 27.7448 7.39818C26.6678 6.6888 25.0798 6.52855 23.482 6.35588C22.1123 6.20785 20.844 6.52647 19.9453 7.11315C17.8662 8.47034 17.17 9.91966 15.9207 10.9287C14.4152 12.1446 12.5264 14.2886 10.7217 15.8499C8.84704 17.4717 7.52922 20.3177 6.45364 23.7837C5.96921 25.3447 5.86071 27.1831 6.13533 28.9161C6.31202 30.0311 8.76084 29.8294 10.7705 29.7265C12.5606 29.6347 13.3461 27.412 14.2823 25.9182C15.977 23.2142 16.3253 20.3468 16.9203 17.9782C17.3784 16.1547 18.1311 13.8954 18.7553 11.2969C18.9984 10.2844 18.9675 9.86557 18.5212 10.5802C16.9871 13.0368 15.2331 16.5687 13.5698 19.0632C12.1666 21.1675 11.6901 22.6811 11.2022 23.8263C10.9117 24.5082 10.5084 25.317 10.3004 25.6332C9.06428 27.512 11.5361 20.351 12.93 18.4599C13.1372 18.1788 13.4834 18.1124 13.6936 18.179C14.9041 18.5625 15.0105 22.937 15.7376 26.8908C15.9754 28.1838 16.2587 27.9612 16.8454 26.9283C18.463 24.0802 19.6582 21.7199 20.1429 21.4734C21.02 21.0273 20.6318 24.6138 20.9407 25.6654C21.081 26.1429 21.8676 23.0098 22.1859 23.7306C22.5042 24.4515 22.5042 28.2275 22.4699 27.9414C21.904 23.2256 22.3648 18.1145 22.5375 17.5237C22.6194 17.2434 23.1263 19.4127 23.4726 21.4255C23.5251 21.7302 23.9584 18.0729 24.3391 13.6301C24.3775 13.1823 24.8613 16.9037 24.9997 21.0978C25.0589 22.8935 25.2088 18.5722 25.2431 12.049C25.2532 10.1253 25.3461 11.0181 25.2098 14.4301C25.0735 17.842 24.7303 23.7462 24.8624 25.861C25.0248 28.4603 27.4223 21.5223 28.3918 19.8184C28.8793 18.9617 29.7816 24.8031 30.4057 28.9723C30.9165 32.3847 31.034 22.5583 31.034 21.1353C31.034 19.3704 31.8662 26.7025 31.8662 26.6089C31.8662 20.6157 31.4501 17.7005 31.2774 16.3118C31.2342 15.9642 31.242 15.6201 31.1391 15.5462C30.3529 14.9824 28.0007 18.2997 25.5978 20.8399C23.4307 23.1308 22.4459 25.5146 21.2247 27.7074C20.734 28.5886 20.2865 29.4092 20.0784 29.5184C19.8032 29.6629 20.0077 28.1859 19.8017 27.8957C19.4275 27.3684 18.6221 28.9244 18.4141 29.2729C17.8787 30.1696 17.998 27.2663 17.6526 26.7816C17.4811 26.5408 17.17 26.4342 16.9255 26.4664C16.6811 26.4987 16.4751 26.7046 16.6093 26.7764C16.7435 26.8482 17.2241 26.7795 17.5746 26.6068C17.9252 26.4342 18.1311 26.1595 18.9675 25.8766" stroke="#E0D0FF" stroke-width="7.2" stroke-linecap="round"/>
<path d="M12.5681 15.3896C12.1506 16.075 11.8531 16.7299 11.5835 17.3436C11.3677 17.8346 11.1955 18.3139 11.0455 18.7923C10.8911 19.2846 10.8372 19.8369 10.6723 20.3154C10.5041 20.8036 10.2996 21.2704 10.1496 21.7488C10.0039 22.2133 10.0004 22.7039 9.89556 23.1823C9.78641 23.6804 9.79074 24.286 9.64202 25.4158C9.16951 29.0052 9.70115 29.5128 9.80507 29.9912C9.99948 30.4696 10.1778 30.828 10.3865 31.0663C10.477 31.1863 10.5361 31.3046 10.7762 31.4264" stroke="#E0D0FF" stroke-width="7.2" stroke-linecap="round"/>
<path d="M15.2998 22.5781C16.2609 23.1615 17.1856 23.2518 17.9905 23.0955C18.1874 23.0281 18.3993 22.9392 18.5791 22.8711C18.7589 22.8031 18.9002 22.7586 19.2598 22.4434" stroke="#0D0D0D" stroke-width="1.8" stroke-linecap="round"/>
<path d="M24.5771 22.2353C25.5383 22.8187 26.463 22.909 27.2678 22.7527C27.4647 22.6853 27.6766 22.5964 27.8565 22.5284C28.0363 22.4603 28.1775 22.4159 28.5371 22.1006" stroke="#0D0D0D" stroke-width="1.8" stroke-linecap="round"/>
<path d="M18.9854 28.6717C19.277 28.5627 19.9361 28.2689 20.6151 28.0488C21.1961 27.8605 21.8068 27.8287 24.4952 27.8276C25.2182 27.9366 25.5494 28.0477 25.8971 28.1209C26.0633 28.1578 26.2085 28.1941 26.6883 28.3415" stroke="#0D0D0D" stroke-width="1.8" stroke-linecap="round"/>
<path d="M30.5971 5.34316C30.5238 5.34316 30.2662 5.34316 29.8416 5.28821C29.4235 5.2341 29.0084 4.75366 28.5832 4.29182C27.9931 3.65088 28.1547 2.64432 28.3012 2.10922C28.4917 1.41361 29.1894 1.16224 29.5396 1.05122C29.9797 0.911711 30.4105 1.08674 30.6875 1.25272C31.3162 1.6294 31.705 2.60102 31.9104 3.3232C31.9293 3.89327 31.8926 4.37953 31.7822 4.67484C31.7083 4.8236 31.5984 4.97014 31.2632 5.23214" stroke="#FCA8A8" stroke-width="2" stroke-linecap="round"/>
<path d="M31.0408 5.34338C29.7952 5.5632 28.8604 5.67644 28.3431 5.76803C27.8886 5.84848 27.748 6.4147 27.637 6.91206C27.5681 7.2209 27.5993 7.66587 27.6909 7.96562C27.7825 8.26537 27.9656 8.41191 28.1699 8.50572C28.5731 8.69089 29.1136 8.67391 29.6126 8.61896C30.3331 8.53961 30.8166 7.71472 31.4088 6.5507C31.916 5.55401 32.3708 4.38419 32.9625 3.80967C33.5994 3.19136 35.7235 3.23405 37.0152 3.50993C37.4008 3.59227 37.3688 4.37753 37.2956 5.00589C37.1285 6.43832 34.005 6.3048 32.6556 6.43413C31.7923 6.51687 31.8557 7.74581 31.7624 8.39359C31.6322 9.29802 32.6284 9.92842 33.3505 10.3014C33.8582 10.5636 34.4069 10.3025 34.7388 10.1921C35.161 10.0516 35.5903 9.67529 35.9417 9.26897C36.1857 8.98674 36.1476 8.56512 36.0744 8.15879C36.0011 7.97228 35.8545 7.82574 35.7058 7.69529C35.557 7.56485 35.4105 7.45494 35.0375 7.23068" stroke="#FCA8A8" stroke-width="2" stroke-linecap="round"/>
</svg>
