<svg width="43" height="39" viewBox="0 0 43 39" fill="none" xmlns="http://www.w3.org/2000/svg">
<path d="M5.94078 30.0222C5.5247 23.4418 5.79931 20.5354 7.04237 16.8302C9.28773 10.1373 11.2084 9.50079 12.1426 8.49385C13.6959 6.81942 15.7771 6.3094 20.0316 5.57916C26.304 4.50258 27.9143 5.95572 29.2375 6.57985C30.5261 7.18769 31.863 9.68802 34.5728 13.9873C35.9031 16.0979 36.3817 17.7393 36.8685 20.1651C36.9393 21.3426 37.0079 22.1831 37.1119 23.732C37.1473 25.0063 37.1473 27.2719 37.1473 29.6061" stroke="#E0D0FF" stroke-width="7.2" stroke-linecap="round"/>
<path d="M5.94043 31.2706C6.63114 32.5147 7.60062 33.7629 9.01844 34.3205C11.8313 35.4266 13.4217 33.5632 14.6398 32.9027C15.6766 32.3405 16.0638 31.412 16.3749 31.0989C17.0301 30.4393 17.9986 32.86 19.4237 33.868C20.5176 34.6417 23.0541 34.3912 25.0055 33.7702C26.4221 33.3194 26.8821 31.7615 27.4355 30.8909C28.044 29.9335 29.3745 32.3066 30.5197 33.1055C32.4541 34.4549 36.1692 33.0098 37.3165 32.2785C37.5694 32.1174 37.7669 31.8989 37.9417 31.6554C40.1067 28.6399 38.2579 21.4301 38.1185 20.0414C37.9803 18.6643 37.4257 17.6146 37.0794 16.435C36.6323 14.9125 36.0402 13.8698 35.312 12.7588C34.615 11.6955 33.7517 10.7491 32.9892 9.8452C32.2269 8.94144 31.1179 8.38993 29.905 7.59105C28.828 6.88167 27.2399 6.72142 25.6422 6.54875C24.2724 6.40072 23.0042 6.71934 22.1054 7.30603C20.0263 8.66321 19.3301 10.1125 18.0808 11.1215C16.5754 12.3374 14.6866 14.4814 12.8818 16.0428C11.0072 17.6646 9.68938 20.5106 8.6138 23.9766C8.12937 25.5376 8.02087 27.376 8.29548 29.109C8.47217 30.224 10.921 30.0223 12.9307 29.9193C14.7208 29.8276 15.5063 27.6048 16.4425 26.1111C18.1372 23.407 18.4855 20.5397 19.0805 18.1711C19.5386 16.3475 20.2913 14.0882 20.9154 11.4898C21.1586 10.4773 21.1276 10.0584 20.6814 10.7731C19.1473 13.2297 17.3932 16.7616 15.7299 19.256C14.3268 21.3603 13.8503 22.8739 13.3624 24.0192C13.0719 24.7011 12.6686 25.5098 12.4605 25.8261C11.2244 27.7049 13.6963 20.5438 15.0902 18.6527C15.2973 18.3717 15.6436 18.3053 15.8537 18.3719C17.0643 18.7554 17.1706 23.1298 17.8977 27.0837C18.1355 28.3767 18.4189 28.1541 19.0056 27.1211C20.6232 24.2731 21.8183 21.9128 22.3031 21.6662C23.1801 21.2202 22.792 24.8067 23.1009 25.8583C23.2412 26.3357 24.0277 23.2026 24.346 23.9235C24.6644 24.6444 24.6644 28.4204 24.63 28.1343C24.0641 23.4184 24.525 18.3074 24.6976 17.7165C24.7795 17.4363 25.2864 19.6056 25.6328 21.6184C25.6852 21.9231 26.1186 18.2658 26.4993 13.823C26.5377 13.3752 27.0215 17.0966 27.1598 21.2907C27.2191 23.0863 27.3689 18.7651 27.4033 12.2419C27.4134 10.3182 27.5062 11.211 27.37 14.6229C27.2337 18.0348 26.8904 23.9391 27.0225 26.0539C27.1849 28.6532 29.5825 21.7151 30.552 20.0112C31.0394 19.1546 31.9417 24.996 32.5658 29.1652C33.0767 32.5776 33.1941 22.7512 33.1941 21.3282C33.1941 19.5633 34.0263 26.8954 34.0263 26.8018C34.0263 20.8086 33.6102 17.8934 33.4376 16.5047C33.3943 16.1571 33.4022 15.8129 33.2992 15.7391C32.513 15.1752 30.1609 18.4925 27.758 21.0327C25.5909 23.3237 24.6061 25.7075 23.3849 27.9003C22.8941 28.7815 22.4466 29.6021 22.2386 29.7113C21.9633 29.8558 22.1678 28.3788 21.9619 28.0885C21.5877 27.5613 20.7823 29.1173 20.5742 29.4658C20.0389 30.3625 20.1581 27.4592 19.8128 26.9745C19.6412 26.7337 19.3301 26.627 19.0857 26.6593C18.8412 26.6915 18.6353 26.8975 18.7694 26.9693C18.9036 27.041 19.3842 26.9724 19.7348 26.7997C20.0853 26.627 20.2913 26.3524 21.1276 26.0695" stroke="#E0D0FF" stroke-width="7.2" stroke-linecap="round"/>
<path d="M14.7282 15.5825C14.3107 16.2679 14.0133 16.9228 13.7436 17.5365C13.5279 18.0275 13.3557 18.5068 13.2056 18.9852C13.0512 19.4774 12.9973 20.0298 12.8325 20.5082C12.6642 20.9965 12.4598 21.4633 12.3097 21.9417C12.164 22.4062 12.1605 22.8967 12.0557 23.3751C11.9466 23.8733 11.9509 24.4789 11.8022 25.6086C11.3297 29.198 11.8613 29.7056 11.9652 30.1841C12.1596 30.6625 12.3379 31.0208 12.5467 31.2591C12.6372 31.3792 12.6963 31.4975 12.9364 31.6193" stroke="#E0D0FF" stroke-width="7.2" stroke-linecap="round"/>
<path d="M17.46 22.771C18.4211 23.3544 19.3458 23.4446 20.1506 23.2883C20.3475 23.221 20.5595 23.1321 20.7393 23.064C20.9191 22.996 21.0603 22.9515 21.42 22.6362" stroke="#0D0D0D" stroke-width="1.8" stroke-linecap="round"/>
<path d="M26.7373 22.4282C27.6984 23.0116 28.6231 23.1019 29.428 22.9456C29.6249 22.8782 29.8368 22.7893 30.0166 22.7212C30.1964 22.6532 30.3377 22.6087 30.6973 22.2935" stroke="#0D0D0D" stroke-width="1.8" stroke-linecap="round"/>
<path d="M21.1455 28.8645C21.4371 28.7556 22.0963 28.4618 22.7752 28.2417C23.3563 28.0533 23.967 28.0216 26.6553 28.0205C27.3783 28.1294 27.7095 28.2406 28.0573 28.3138C28.2234 28.3506 28.3687 28.387 28.8485 28.5344" stroke="#0D0D0D" stroke-width="1.8" stroke-linecap="round"/>
<path d="M8.36118 6.19897C5.11673 5.11098 2.96935 4.773 2.10996 5.3881C0.398316 6.61322 0.869357 8.28156 0.959347 9.07784C1.0008 9.4446 1.24029 9.6973 1.4855 9.84516C3.24844 10.9082 7.57709 8.32705 9.37826 6.59522C11.1472 4.8944 11.9107 2.61308 13.6958 1.06435C14.0731 0.737054 14.5706 0.773489 14.9563 0.857856C16.5711 1.21112 16.8275 3.28678 17.085 4.20239C17.224 4.69635 17.2942 5.27195 16.5573 5.69131C12.7469 7.86002 10.7875 6.54983 8.89063 6.92479C8.14603 8.07636 7.78078 9.4595 7.37341 12.9149C7.35483 13.7385 7.4348 14.2374 7.41333 14.1035" stroke="#FF0000" stroke-width="1.6" stroke-linecap="round"/>
<path d="M10.6592 6.71631C11.7456 7.56549 12.8319 8.41468 13.5213 8.97753C14.2107 9.54038 14.4702 9.79116 14.7279 10.0101C14.9856 10.2291 15.2337 10.4086 15.7399 10.7749" stroke="#FF0000" stroke-width="1.6" stroke-linecap="round"/>
</svg>
