<svg width="41" height="56" viewBox="0 0 41 56" fill="none" xmlns="http://www.w3.org/2000/svg">
<path d="M23.3858 6.29329C25.0994 5.64175 23.3103 6.25499 21.5994 6.14175C19.8884 6.02852 16.16 5.94217 14.4184 5.85166C12.6767 5.76114 12.6902 5.8252 12.7329 5.90687C12.7756 5.98853 12.8471 6.08586 14.2082 7.34706C15.5693 8.60826 18.218 11.0304 19.6132 12.2529C21.0085 13.4754 22.6779 14.1952 22.5994 13.1418C22.5209 12.0883 20.6926 9.26302 20.4663 7.83606C20.2401 6.40911 20.0146 5.67239 19.7002 4.82349C19.3857 3.97458 18.9891 3.03582 18.7626 2.498C18.5361 1.96019 18.4917 1.85177 18.4436 1.83473C18.3955 1.81769 18.345 1.8953 17.669 3.81153C16.9931 5.72776 15.6933 9.48027 15.0132 11.4651C14.3331 13.45 14.3121 13.5535 14.3611 13.5981C14.4871 13.7132 15.0432 13.4797 16.3883 12.8224C17.3689 12.3432 18.8495 11.3668 19.9805 10.504C21.1116 9.6412 21.8212 8.87002 22.2588 8.3705C23.2755 7.21009 24.5597 6.01242 24.5993 5.90684C24.6242 5.85794 23.6256 6.18606 23.6606 6.21564C23.6956 6.24523 23.7301 6.34502 23.7657 6.44783" stroke="#FFEC6F" stroke-width="2" stroke-linecap="round"/>
<path d="M18.8018 12.7627V20.0836" stroke="#FFEC6F" stroke-width="2" stroke-linecap="round"/>
<path d="M3.78062 46.8289C3.36454 40.2484 3.63916 37.3421 4.88222 33.6368C7.12758 26.944 9.04829 26.3074 9.98241 25.3005C11.5358 23.6261 13.6169 23.116 17.8714 22.3858C24.1439 21.3092 25.7542 22.7624 27.0773 23.3865C28.366 23.9943 29.7029 26.4947 32.4126 30.7939C33.7429 32.9045 34.2216 34.5459 34.7084 36.9717C34.7791 38.1493 34.8478 38.9898 34.9518 40.5387C34.9872 41.8129 34.9872 44.0785 34.9872 46.4128" stroke="#E0D0FF" stroke-width="7.2" stroke-linecap="round"/>
<path d="M3.78027 48.0772C4.47098 49.3213 5.44046 50.5696 6.85828 51.1271C9.67117 52.2333 11.2615 50.3698 12.4796 49.7093C13.5164 49.1471 13.9037 48.2187 14.2147 47.9056C14.8699 47.246 15.8385 49.6667 17.2636 50.6746C18.3574 51.4483 20.8939 51.1979 22.8454 50.5769C24.2619 50.1261 24.7219 48.5682 25.2753 47.6975C25.8839 46.7401 27.2143 49.1133 28.3596 49.9122C30.294 51.2615 34.009 49.8164 35.1564 49.0852C35.4093 48.924 35.6068 48.7055 35.7815 48.4621C37.9466 45.4465 36.0978 38.2367 35.9584 36.8481C35.8201 35.4709 35.2656 34.4212 34.9192 33.2416C34.4721 31.7192 33.88 30.6764 33.1519 29.5655C32.4549 28.5021 31.5915 27.5558 30.8291 26.6518C30.0667 25.7481 28.9577 25.1966 27.7448 24.3977C26.6678 23.6883 25.0798 23.5281 23.482 23.3554C22.1123 23.2074 20.844 23.526 19.9453 24.1127C17.8662 25.4699 17.17 26.9192 15.9207 27.9282C14.4152 29.1441 12.5264 31.2881 10.7217 32.8495C8.84704 34.4712 7.52922 37.3172 6.45364 40.7832C5.96921 42.3443 5.86071 44.1826 6.13533 45.9156C6.31202 47.0307 8.76084 46.829 10.7705 46.726C12.5606 46.6342 13.3461 44.4115 14.2823 42.9177C15.977 40.2137 16.3253 37.3463 16.9203 34.9777C17.3784 33.1542 18.1311 30.8949 18.7553 28.2964C18.9984 27.284 18.9675 26.8651 18.5212 27.5797C16.9871 30.0364 15.2331 33.5682 13.5698 36.0627C12.1666 38.167 11.6901 39.6806 11.2022 40.8258C10.9117 41.5078 10.5084 42.3165 10.3004 42.6327C9.06428 44.5115 11.5361 37.3505 12.93 35.4594C13.1372 35.1784 13.4834 35.1119 13.6936 35.1785C14.9041 35.562 15.0105 39.9365 15.7376 43.8903C15.9754 45.1833 16.2587 44.9607 16.8454 43.9278C18.463 41.0797 19.6582 38.7194 20.1429 38.4729C21.02 38.0268 20.6318 41.6133 20.9407 42.665C21.081 43.1424 21.8676 40.0093 22.1859 40.7301C22.5042 41.451 22.5042 45.227 22.4699 44.9409C21.904 40.2251 22.3648 35.114 22.5375 34.5232C22.6194 34.2429 23.1263 36.4122 23.4726 38.425C23.5251 38.7298 23.9584 35.0724 24.3391 30.6296C24.3775 30.1818 24.8613 33.9032 24.9997 38.0974C25.0589 39.893 25.2088 35.5717 25.2431 29.0485C25.2532 27.1249 25.3461 28.0176 25.2098 31.4296C25.0735 34.8415 24.7303 40.7458 24.8624 42.8605C25.0248 45.4598 27.4223 38.5218 28.3918 36.8179C28.8793 35.9612 29.7816 41.8026 30.4057 45.9718C30.9165 49.3842 31.034 39.5578 31.034 38.1348C31.034 36.3699 31.8662 43.702 31.8662 43.6084C31.8662 37.6152 31.4501 34.7 31.2774 33.3113C31.2342 32.9637 31.242 32.6196 31.1391 32.5457C30.3529 31.9819 28.0007 35.2992 25.5978 37.8394C23.4307 40.1303 22.4459 42.5141 21.2247 44.7069C20.734 45.5881 20.2865 46.4087 20.0784 46.5179C19.8032 46.6624 20.0077 45.1854 19.8017 44.8952C19.4275 44.3679 18.6221 45.924 18.4141 46.2724C17.8787 47.1691 17.998 44.2659 17.6526 43.7811C17.4811 43.5403 17.17 43.4337 16.9255 43.4659C16.6811 43.4982 16.4751 43.7041 16.6093 43.7759C16.7435 43.8477 17.2241 43.779 17.5746 43.6064C17.9252 43.4337 18.1311 43.1591 18.9675 42.8761" stroke="#E0D0FF" stroke-width="7.2" stroke-linecap="round"/>
<path d="M12.5681 32.3892C12.1506 33.0745 11.8531 33.7294 11.5835 34.3431C11.3677 34.8341 11.1955 35.3134 11.0455 35.7918C10.8911 36.2841 10.8372 36.8365 10.6723 37.3149C10.5041 37.8031 10.2996 38.2699 10.1496 38.7483C10.0039 39.2128 10.0004 39.7034 9.89556 40.1818C9.78641 40.6799 9.79074 41.2855 9.64202 42.4153C9.16951 46.0047 9.70115 46.5123 9.80507 46.9907C9.99948 47.4691 10.1778 47.8275 10.3865 48.0658C10.477 48.1858 10.5361 48.3041 10.7762 48.4259" stroke="#E0D0FF" stroke-width="7.2" stroke-linecap="round"/>
<path d="M15.2998 39.5776C16.2609 40.161 17.1856 40.2513 17.9905 40.095C18.1874 40.0276 18.3993 39.9387 18.5791 39.8706C18.7589 39.8026 18.9002 39.7581 19.2598 39.4429" stroke="#0D0D0D" stroke-width="1.8" stroke-linecap="round"/>
<path d="M24.5771 39.2348C25.5383 39.8182 26.463 39.9085 27.2678 39.7522C27.4647 39.6848 27.6766 39.5959 27.8565 39.5279C28.0363 39.4598 28.1775 39.4154 28.5371 39.1001" stroke="#0D0D0D" stroke-width="1.8" stroke-linecap="round"/>
<path d="M18.9854 45.6712C19.277 45.5622 19.9361 45.2684 20.6151 45.0483C21.1961 44.86 21.8068 44.8282 24.4952 44.8271C25.2182 44.9361 25.5494 45.0472 25.8971 45.1204C26.0633 45.1573 26.2085 45.1936 26.6883 45.341" stroke="#0D0D0D" stroke-width="1.8" stroke-linecap="round"/>
</svg>
