<svg width="41" height="42" viewBox="0 0 41 42" fill="none" xmlns="http://www.w3.org/2000/svg">
<path d="M3.78062 33.3611C3.36454 26.7807 3.63916 23.8743 4.88222 20.169C7.12758 13.4762 9.04829 12.8397 9.98241 11.8327C11.5358 10.1583 13.6169 9.64826 17.8714 8.91803C24.1439 7.84144 25.7542 9.29459 27.0773 9.91872C28.366 10.5266 29.7029 13.0269 32.4126 17.3261C33.7429 19.4367 34.2216 21.0782 34.7084 23.504C34.7791 24.6815 34.8478 25.522 34.9518 27.0709C34.9872 28.3451 34.9872 30.6107 34.9872 32.945" stroke="#E0D0FF" stroke-width="7.2" stroke-linecap="round"/>
<path d="M3.78027 34.6094C4.47098 35.8535 5.44046 37.1018 6.85828 37.6593C9.67117 38.7655 11.2615 36.9021 12.4796 36.2415C13.5164 35.6793 13.9037 34.7509 14.2147 34.4378C14.8699 33.7782 15.8385 36.1989 17.2636 37.2069C18.3574 37.9805 20.8939 37.7301 22.8454 37.1091C24.2619 36.6583 24.7219 35.1004 25.2753 34.2298C25.8839 33.2724 27.2143 35.6455 28.3596 36.4444C30.294 37.7937 34.009 36.3487 35.1564 35.6174C35.4093 35.4562 35.6068 35.2377 35.7815 34.9943C37.9466 31.9788 36.0978 24.769 35.9584 23.3803C35.8201 22.0031 35.2656 20.9535 34.9192 19.7739C34.4721 18.2514 33.88 17.2087 33.1519 16.0977C32.4549 15.0343 31.5915 14.088 30.8291 13.1841C30.0667 12.2803 28.9577 11.7288 27.7448 10.9299C26.6678 10.2205 25.0798 10.0603 23.482 9.88762C22.1123 9.73959 20.844 10.0582 19.9453 10.6449C17.8662 12.0021 17.17 13.4514 15.9207 14.4604C14.4152 15.6763 12.5264 17.8203 10.7217 19.3817C8.84704 21.0035 7.52922 23.8494 6.45364 27.3154C5.96921 28.8765 5.86071 30.7149 6.13533 32.4479C6.31202 33.5629 8.76084 33.3612 10.7705 33.2582C12.5606 33.1665 13.3461 30.9437 14.2823 29.45C15.977 26.7459 16.3253 23.8786 16.9203 21.51C17.3784 19.6864 18.1311 17.4271 18.7553 14.8286C18.9984 13.8162 18.9675 13.3973 18.5212 14.1119C16.9871 16.5686 15.2331 20.1005 13.5698 22.5949C12.1666 24.6992 11.6901 26.2128 11.2022 27.3581C10.9117 28.04 10.5084 28.8487 10.3004 29.1649C9.06428 31.0437 11.5361 23.8827 12.93 21.9916C13.1372 21.7106 13.4834 21.6442 13.6936 21.7107C14.9041 22.0943 15.0105 26.4687 15.7376 30.4226C15.9754 31.7156 16.2587 31.4929 16.8454 30.46C18.463 27.6119 19.6582 25.2516 20.1429 25.0051C21.02 24.559 20.6318 28.1455 20.9407 29.1972C21.081 29.6746 21.8676 26.5415 22.1859 27.2624C22.5042 27.9832 22.5042 31.7592 22.4699 31.4732C21.904 26.7573 22.3648 21.6462 22.5375 21.0554C22.6194 20.7751 23.1263 22.9444 23.4726 24.9573C23.5251 25.262 23.9584 21.6046 24.3391 17.1619C24.3775 16.714 24.8613 20.4354 24.9997 24.6296C25.0589 26.4252 25.2088 22.1039 25.2431 15.5807C25.2532 13.6571 25.3461 14.5499 25.2098 17.9618C25.0735 21.3737 24.7303 27.278 24.8624 29.3928C25.0248 31.992 27.4223 25.054 28.3918 23.3501C28.8793 22.4934 29.7816 28.3348 30.4057 32.504C30.9165 35.9165 31.034 26.0901 31.034 24.667C31.034 22.9022 31.8662 30.2343 31.8662 30.1407C31.8662 24.1474 31.4501 21.2322 31.2774 19.8436C31.2342 19.496 31.242 19.1518 31.1391 19.078C30.3529 18.5141 28.0007 21.8314 25.5978 24.3716C23.4307 26.6625 22.4459 29.0463 21.2247 31.2391C20.734 32.1203 20.2865 32.9409 20.0784 33.0501C19.8032 33.1946 20.0077 31.7176 19.8017 31.4274C19.4275 30.9001 18.6221 32.4562 18.4141 32.8047C17.8787 33.7014 17.998 30.7981 17.6526 30.3133C17.4811 30.0725 17.17 29.9659 16.9255 29.9981C16.6811 30.0304 16.4751 30.2364 16.6093 30.3081C16.7435 30.3799 17.2241 30.3113 17.5746 30.1386C17.9252 29.9659 18.1311 29.6913 18.9675 29.4083" stroke="#E0D0FF" stroke-width="7.2" stroke-linecap="round"/>
<path d="M12.5681 18.9214C12.1506 19.6068 11.8531 20.2617 11.5835 20.8754C11.3677 21.3664 11.1955 21.8456 11.0455 22.3241C10.8911 22.8163 10.8372 23.3687 10.6723 23.8471C10.5041 24.3353 10.2996 24.8021 10.1496 25.2806C10.0039 25.7451 10.0004 26.2356 9.89556 26.714C9.78641 27.2121 9.79074 27.8178 9.64202 28.9475C9.16951 32.5369 9.70115 33.0445 9.80507 33.5229C9.99948 34.0013 10.1778 34.3597 10.3865 34.598C10.477 34.7181 10.5361 34.8363 10.7762 34.9582" stroke="#E0D0FF" stroke-width="7.2" stroke-linecap="round"/>
<path d="M15.2998 26.1098C16.2609 26.6932 17.1856 26.7835 17.9905 26.6272C18.1874 26.5598 18.3993 26.4709 18.5791 26.4029C18.7589 26.3348 18.9002 26.2904 19.2598 25.9751" stroke="#0D0D0D" stroke-width="1.8" stroke-linecap="round"/>
<path d="M24.5771 25.7671C25.5383 26.3505 26.463 26.4407 27.2678 26.2844C27.4647 26.2171 27.6766 26.1281 27.8565 26.0601C28.0363 25.9921 28.1775 25.9476 28.5371 25.6323" stroke="#0D0D0D" stroke-width="1.8" stroke-linecap="round"/>
<path d="M18.9854 32.2034C19.277 32.0945 19.9361 31.8006 20.6151 31.5806C21.1961 31.3922 21.8068 31.3605 24.4952 31.3594C25.2182 31.4683 25.5494 31.5795 25.8971 31.6526C26.0633 31.6895 26.2085 31.7258 26.6883 31.8733" stroke="#0D0D0D" stroke-width="1.8" stroke-linecap="round"/>
<path d="M9.17126 5.1865C9.1413 5.77169 9.01007 7.08971 9.19766 7.98209C9.41723 9.02658 9.22108 10.0856 9.33095 11.1782C9.36667 11.5335 9.57675 11.9865 9.7781 12.241C9.97945 12.4955 10.2199 12.5282 10.6263 12.4489C12.6471 12.0542 13.7774 10.5695 14.8829 9.8142C15.8723 9.13823 16.7098 8.29552 17.5551 7.54377C18.7991 6.43739 19.9005 5.75987 20.7718 5.087C21.7142 4.35919 23.0386 3.7633 24.1976 3.51181C25.8024 3.1636 25.805 6.92754 25.889 7.85519C25.9854 8.91789 25.7024 9.68629 25.5588 10.1113C25.4219 10.5164 24.5527 10.7172 23.5941 10.9577C21.7749 11.4142 18.9563 9.7399 17.442 8.97373C16.3695 8.43111 15.3621 7.36836 14.3759 6.68895C13.3793 6.00236 12.522 5.32363 11.6242 4.73049C11.4055 4.60088 11.1989 4.49928 11.0073 4.53329C10.8156 4.56731 10.6451 4.74003 9.8965 4.76574" stroke="#CDA8EE" stroke-width="2.4" stroke-linecap="round"/>
</svg>
