<svg width="41" height="47" viewBox="0 0 41 47" fill="none" xmlns="http://www.w3.org/2000/svg">
<path d="M20.0146 3.96094V15.8818" stroke="#62A565" stroke-width="1.6" stroke-linecap="round"/>
<path d="M20.49 3.31553C20.2366 3.12527 19.2853 2.42827 17.9768 1.70832C17.0316 1.18821 16.1282 0.894674 15.0282 0.813883C14.275 0.758562 13.2618 0.860252 12.2388 1.22644C11.8638 1.36067 11.7263 1.78385 11.6307 2.22844C11.5105 2.78738 11.7559 3.34517 12.0739 3.72713C12.5563 4.30675 13.1892 4.43035 14.3475 4.62157C17.512 5.144 18.5108 4.39975 20.0846 3.73335C21.7063 3.04664 21.9853 2.29823 22.5117 1.86703C23.1512 1.34312 24.2761 1.08589 26.2988 1.13131C26.748 1.14139 27.6346 1.43678 27.8115 1.70832C28.571 2.87419 28.1815 4.02114 27.9913 4.32327C27.4631 5.16199 25.3068 5.16273 23.5084 5.19619C22.7225 5.00497 22.2129 4.87781 21.8472 4.76642C21.6708 4.71814 21.513 4.68659 21.4461 4.65408" stroke="#62A565" stroke-width="1.6" stroke-linecap="round"/>
<path d="M3.78062 38.6287C3.36454 32.0482 3.63916 29.1419 4.88222 25.4366C7.12758 18.7438 9.04829 18.1072 9.98241 17.1003C11.5358 15.4259 13.6169 14.9158 17.8714 14.1856C24.1439 13.109 25.7542 14.5622 27.0773 15.1863C28.366 15.7941 29.7029 18.2945 32.4126 22.5937C33.7429 24.7043 34.2216 26.3458 34.7084 28.7715C34.7791 29.9491 34.8478 30.7896 34.9518 32.3385C34.9872 33.6127 34.9872 35.8783 34.9872 38.2126" stroke="#E0D0FF" stroke-width="7.2" stroke-linecap="round"/>
<path d="M3.78027 39.877C4.47098 41.1211 5.44046 42.3694 6.85828 42.9269C9.67117 44.0331 11.2615 42.1696 12.4796 41.5091C13.5164 40.9469 13.9037 40.0185 14.2147 39.7054C14.8699 39.0458 15.8385 41.4665 17.2636 42.4744C18.3574 43.2481 20.8939 42.9977 22.8454 42.3767C24.2619 41.9259 24.7219 40.368 25.2753 39.4973C25.8839 38.5399 27.2143 40.9131 28.3596 41.712C30.294 43.0613 34.009 41.6163 35.1564 40.885C35.4093 40.7238 35.6068 40.5053 35.7815 40.2619C37.9466 37.2463 36.0978 30.0366 35.9584 28.6479C35.8201 27.2707 35.2656 26.221 34.9192 25.0414C34.4721 23.519 33.88 22.4762 33.1519 21.3653C32.4549 20.3019 31.5915 19.3556 30.8291 18.4516C30.0667 17.5479 28.9577 16.9964 27.7448 16.1975C26.6678 15.4881 25.0798 15.3279 23.482 15.1552C22.1123 15.0072 20.844 15.3258 19.9453 15.9125C17.8662 17.2697 17.17 18.719 15.9207 19.728C14.4152 20.9439 12.5264 23.0879 10.7217 24.6493C8.84704 26.271 7.52922 29.117 6.45364 32.583C5.96921 34.1441 5.86071 35.9824 6.13533 37.7154C6.31202 38.8305 8.76084 38.6288 10.7705 38.5258C12.5606 38.434 13.3461 36.2113 14.2823 34.7175C15.977 32.0135 16.3253 29.1461 16.9203 26.7775C17.3784 24.954 18.1311 22.6947 18.7553 20.0962C18.9984 19.0838 18.9675 18.6649 18.5212 19.3795C16.9871 21.8362 15.2331 25.3681 13.5698 27.8625C12.1666 29.9668 11.6901 31.4804 11.2022 32.6256C10.9117 33.3076 10.5084 34.1163 10.3004 34.4325C9.06428 36.3113 11.5361 29.1503 12.93 27.2592C13.1372 26.9782 13.4834 26.9117 13.6936 26.9783C14.9041 27.3618 15.0105 31.7363 15.7376 35.6901C15.9754 36.9831 16.2587 36.7605 16.8454 35.7276C18.463 32.8795 19.6582 30.5192 20.1429 30.2727C21.02 29.8266 20.6318 33.4131 20.9407 34.4648C21.081 34.9422 21.8676 31.8091 22.1859 32.5299C22.5042 33.2508 22.5042 37.0268 22.4699 36.7408C21.904 32.0249 22.3648 26.9138 22.5375 26.323C22.6194 26.0427 23.1263 28.212 23.4726 30.2248C23.5251 30.5296 23.9584 26.8722 24.3391 22.4294C24.3775 21.9816 24.8613 25.703 24.9997 29.8972C25.0589 31.6928 25.2088 27.3715 25.2431 20.8483C25.2532 18.9247 25.3461 19.8174 25.2098 23.2294C25.0735 26.6413 24.7303 32.5456 24.8624 34.6603C25.0248 37.2596 27.4223 30.3216 28.3918 28.6177C28.8793 27.761 29.7816 33.6024 30.4057 37.7716C30.9165 41.184 31.034 31.3576 31.034 29.9346C31.034 28.1697 31.8662 35.5019 31.8662 35.4082C31.8662 29.415 31.4501 26.4998 31.2774 25.1111C31.2342 24.7635 31.242 24.4194 31.1391 24.3455C30.3529 23.7817 28.0007 27.099 25.5978 29.6392C23.4307 31.9301 22.4459 34.3139 21.2247 36.5067C20.734 37.3879 20.2865 38.2085 20.0784 38.3177C19.8032 38.4622 20.0077 36.9852 19.8017 36.695C19.4275 36.1677 18.6221 37.7238 18.4141 38.0722C17.8787 38.9689 17.998 36.0657 17.6526 35.5809C17.4811 35.3401 17.17 35.2335 16.9255 35.2657C16.6811 35.298 16.4751 35.5039 16.6093 35.5757C16.7435 35.6475 17.2241 35.5788 17.5746 35.4062C17.9252 35.2335 18.1311 34.9589 18.9675 34.6759" stroke="#E0D0FF" stroke-width="7.2" stroke-linecap="round"/>
<path d="M12.5681 24.189C12.1506 24.8743 11.8531 25.5292 11.5835 26.1429C11.3677 26.6339 11.1955 27.1132 11.0455 27.5916C10.8911 28.0839 10.8372 28.6363 10.6723 29.1147C10.5041 29.6029 10.2996 30.0697 10.1496 30.5481C10.0039 31.0126 10.0004 31.5032 9.89556 31.9816C9.78641 32.4797 9.79074 33.0853 9.64202 34.2151C9.16951 37.8045 9.70115 38.3121 9.80507 38.7905C9.99948 39.2689 10.1778 39.6273 10.3865 39.8656C10.477 39.9856 10.5361 40.1039 10.7762 40.2257" stroke="#E0D0FF" stroke-width="7.2" stroke-linecap="round"/>
<path d="M15.2998 31.3774C16.2609 31.9608 17.1856 32.0511 17.9905 31.8948C18.1874 31.8274 18.3993 31.7385 18.5791 31.6705C18.7589 31.6024 18.9002 31.5579 19.2598 31.2427" stroke="#0D0D0D" stroke-width="1.8" stroke-linecap="round"/>
<path d="M24.5771 31.0346C25.5383 31.618 26.463 31.7083 27.2678 31.552C27.4647 31.4846 27.6766 31.3957 27.8565 31.3277C28.0363 31.2596 28.1775 31.2152 28.5371 30.8999" stroke="#0D0D0D" stroke-width="1.8" stroke-linecap="round"/>
<path d="M18.9854 37.471C19.277 37.362 19.9361 37.0682 20.6151 36.8481C21.1961 36.6598 21.8068 36.6281 24.4952 36.627C25.2182 36.7359 25.5494 36.847 25.8971 36.9202C26.0633 36.9571 26.2085 36.9934 26.6883 37.1409" stroke="#0D0D0D" stroke-width="1.8" stroke-linecap="round"/>
</svg>
