<svg width="41" height="51" viewBox="0 0 41 51" fill="none" xmlns="http://www.w3.org/2000/svg">
<path d="M3.78062 42.0691C3.36454 35.4887 3.63916 32.5823 4.88222 28.877C7.12758 22.1842 9.04829 21.5477 9.98241 20.5407C11.5358 18.8663 13.6169 18.3563 17.8714 17.626C24.1439 16.5495 25.7542 18.0026 27.0773 18.6267C28.366 19.2346 29.7029 21.7349 32.4126 26.0341C33.7429 28.1447 34.2216 29.7862 34.7084 32.212C34.7791 33.3895 34.8478 34.23 34.9518 35.7789C34.9872 37.0532 34.9872 39.3187 34.9872 41.653" stroke="#E0D0FF" stroke-width="7.2" stroke-linecap="round"/>
<path d="M3.78027 43.3174C4.47098 44.5616 5.44046 45.8098 6.85828 46.3674C9.67117 47.4735 11.2615 45.6101 12.4796 44.9495C13.5164 44.3873 13.9037 43.4589 14.2147 43.1458C14.8699 42.4862 15.8385 44.9069 17.2636 45.9149C18.3574 46.6885 20.8939 46.4381 22.8454 45.8171C24.2619 45.3663 24.7219 43.8084 25.2753 42.9378C25.8839 41.9804 27.2143 44.3535 28.3596 45.1524C30.294 46.5017 34.009 45.0567 35.1564 44.3254C35.4093 44.1642 35.6068 43.9457 35.7815 43.7023C37.9466 40.6868 36.0978 33.477 35.9584 32.0883C35.8201 30.7111 35.2656 29.6615 34.9192 28.4819C34.4721 26.9594 33.88 25.9167 33.1519 24.8057C32.4549 23.7423 31.5915 22.796 30.8291 21.8921C30.0667 20.9883 28.9577 20.4368 27.7448 19.6379C26.6678 18.9285 25.0798 18.7683 23.482 18.5956C22.1123 18.4476 20.844 18.7662 19.9453 19.3529C17.8662 20.7101 17.17 22.1594 15.9207 23.1684C14.4152 24.3843 12.5264 26.5283 10.7217 28.0897C8.84704 29.7115 7.52922 32.5574 6.45364 36.0234C5.96921 37.5845 5.86071 39.4229 6.13533 41.1559C6.31202 42.2709 8.76084 42.0692 10.7705 41.9662C12.5606 41.8745 13.3461 39.6517 14.2823 38.158C15.977 35.4539 16.3253 32.5866 16.9203 30.218C17.3784 28.3944 18.1311 26.1351 18.7553 23.5367C18.9984 22.5242 18.9675 22.1053 18.5212 22.8199C16.9871 25.2766 15.2331 28.8085 13.5698 31.3029C12.1666 33.4072 11.6901 34.9208 11.2022 36.0661C10.9117 36.748 10.5084 37.5567 10.3004 37.8729C9.06428 39.7517 11.5361 32.5907 12.93 30.6996C13.1372 30.4186 13.4834 30.3522 13.6936 30.4187C14.9041 30.8023 15.0105 35.1767 15.7376 39.1306C15.9754 40.4236 16.2587 40.201 16.8454 39.168C18.463 36.3199 19.6582 33.9596 20.1429 33.7131C21.02 33.2671 20.6318 36.8535 20.9407 37.9052C21.081 38.3826 21.8676 35.2495 22.1859 35.9704C22.5042 36.6912 22.5042 40.4672 22.4699 40.1812C21.904 35.4653 22.3648 30.3542 22.5375 29.7634C22.6194 29.4831 23.1263 31.6524 23.4726 33.6653C23.5251 33.97 23.9584 30.3126 24.3391 25.8699C24.3775 25.422 24.8613 29.1434 24.9997 33.3376C25.0589 35.1332 25.2088 30.8119 25.2431 24.2887C25.2532 22.3651 25.3461 23.2579 25.2098 26.6698C25.0735 30.0817 24.7303 35.986 24.8624 38.1008C25.0248 40.7001 27.4223 33.762 28.3918 32.0581C28.8793 31.2014 29.7816 37.0429 30.4057 41.212C30.9165 44.6245 31.034 34.7981 31.034 33.3751C31.034 31.6102 31.8662 38.9423 31.8662 38.8487C31.8662 32.8554 31.4501 29.9403 31.2774 28.5516C31.2342 28.204 31.242 27.8598 31.1391 27.786C30.3529 27.2221 28.0007 30.5394 25.5978 33.0796C23.4307 35.3705 22.4459 37.7544 21.2247 39.9471C20.734 40.8283 20.2865 41.6489 20.0784 41.7582C19.8032 41.9027 20.0077 40.4256 19.8017 40.1354C19.4275 39.6082 18.6221 41.1642 18.4141 41.5127C17.8787 42.4094 17.998 39.5061 17.6526 39.0214C17.4811 38.7805 17.17 38.6739 16.9255 38.7062C16.6811 38.7384 16.4751 38.9444 16.6093 39.0161C16.7435 39.0879 17.2241 39.0193 17.5746 38.8466C17.9252 38.6739 18.1311 38.3993 18.9675 38.1163" stroke="#E0D0FF" stroke-width="7.2" stroke-linecap="round"/>
<path d="M12.5681 27.6294C12.1506 28.3148 11.8531 28.9697 11.5835 29.5834C11.3677 30.0744 11.1955 30.5536 11.0455 31.0321C10.8911 31.5243 10.8372 32.0767 10.6723 32.5551C10.5041 33.0433 10.2996 33.5101 10.1496 33.9886C10.0039 34.4531 10.0004 34.9436 9.89556 35.422C9.78641 35.9202 9.79074 36.5258 9.64202 37.6555C9.16951 41.2449 9.70115 41.7525 9.80507 42.2309C9.99948 42.7093 10.1778 43.0677 10.3865 43.306C10.477 43.4261 10.5361 43.5443 10.7762 43.6662" stroke="#E0D0FF" stroke-width="7.2" stroke-linecap="round"/>
<path d="M15.2998 34.8178C16.2609 35.4012 17.1856 35.4915 17.9905 35.3352C18.1874 35.2679 18.3993 35.1789 18.5791 35.1109C18.7589 35.0428 18.9002 34.9984 19.2598 34.6831" stroke="#0D0D0D" stroke-width="1.8" stroke-linecap="round"/>
<path d="M24.5771 34.4751C25.5383 35.0585 26.463 35.1487 27.2678 34.9924C27.4647 34.9251 27.6766 34.8362 27.8565 34.7681C28.0363 34.7001 28.1775 34.6556 28.5371 34.3403" stroke="#0D0D0D" stroke-width="1.8" stroke-linecap="round"/>
<path d="M18.9854 40.9114C19.277 40.8025 19.9361 40.5087 20.6151 40.2886C21.1961 40.1002 21.8068 40.0685 24.4952 40.0674C25.2182 40.1763 25.5494 40.2875 25.8971 40.3606C26.0633 40.3975 26.2085 40.4338 26.6883 40.5813" stroke="#0D0D0D" stroke-width="1.8" stroke-linecap="round"/>
<path d="M19.8154 6.32471V13.1985" stroke="#FF6868" stroke-width="2.4" stroke-linecap="round"/>
<path d="M18.7822 6.05127C18.8275 6.11938 18.9797 6.2716 19.1319 6.40485C19.4144 6.65208 19.5282 6.73649 19.6693 6.82426C19.7871 6.8976 19.9543 7.00299 20.1833 7.12127C20.334 7.19913 20.4653 7.26995 20.667 7.34995C20.717 7.36915 20.7547 7.38423 20.7892 7.39577C20.8237 7.40731 20.8539 7.41486 20.9078 7.42263" stroke="#FFF06C" stroke-width="0.48" stroke-linecap="round"/>
<path d="M18.7822 7.61328C18.8275 7.68139 18.9797 7.83361 19.1319 7.96686C19.4144 8.21409 19.5282 8.2985 19.6693 8.38627C19.7871 8.45961 19.9543 8.565 20.1833 8.68328C20.334 8.76114 20.4653 8.83196 20.667 8.91196C20.717 8.93116 20.7547 8.94624 20.7892 8.95778C20.8237 8.96933 20.8539 8.97687 20.9078 8.98464" stroke="#FFF06C" stroke-width="0.48" stroke-linecap="round"/>
<path d="M18.7822 9.5332C18.8275 9.60131 18.9797 9.75353 19.1319 9.88679C19.4144 10.134 19.5282 10.2184 19.6693 10.3062C19.7871 10.3795 19.9543 10.4849 20.1833 10.6032C20.334 10.6811 20.4653 10.7519 20.667 10.8319C20.717 10.8511 20.7547 10.8662 20.7892 10.8777C20.8237 10.8892 20.8539 10.8968 20.9078 10.9046" stroke="#FFF06C" stroke-width="0.48" stroke-linecap="round"/>
<path d="M18.7822 11.4531C18.8275 11.5212 18.9797 11.6735 19.1319 11.8067C19.4144 12.0539 19.5282 12.1383 19.6693 12.2261C19.7871 12.2995 19.9543 12.4048 20.1833 12.5231C20.334 12.601 20.4653 12.6718 20.667 12.7518C20.717 12.771 20.7547 12.7861 20.7892 12.7976C20.8237 12.8092 20.8539 12.8167 20.9078 12.8245" stroke="#FFF06C" stroke-width="0.48" stroke-linecap="round"/>
<path d="M19.8086 0.394677C19.6374 0.625568 19.5002 0.848736 19.0638 1.61001C18.8771 1.93563 18.7115 2.50178 18.646 2.805C18.5395 3.29783 18.6415 4.0148 18.7015 4.18636C18.7901 4.43992 18.9154 4.80297 19.0402 4.98457C19.0969 5.06702 19.1648 5.13064 19.2331 5.18199C19.4284 5.32869 19.6876 5.27659 19.9319 5.30671C20.2611 5.34729 20.4341 5.18289 20.5547 5.0798C20.6658 4.98475 20.7347 4.84827 20.8378 4.65972C20.9236 4.50285 21.0096 4.32523 21.0141 3.42702C21.0158 3.09657 20.9159 2.75661 20.8 2.4548C20.7165 2.23762 20.6158 1.95814 20.5296 1.69534C20.472 1.52003 20.2817 1.10151 20.1649 0.77306C20.118 0.644873 20.0832 0.540882 20.0619 0.463918C20.049 0.420932 20.032 0.369966 19.9887 0.240234" stroke="#FF0004" stroke-width="0.48" stroke-linecap="round"/>
<path d="M19.7952 2.17457C19.7666 2.19834 19.7186 2.29418 19.6442 2.41191C19.5873 2.50203 19.5266 2.65877 19.464 2.80807C19.3422 3.09843 19.3341 3.45195 19.3221 3.57192C19.3097 3.69703 19.2813 3.79291 19.2741 3.87477C19.2525 4.11751 19.2811 4.55179 19.3172 4.66247C19.3434 4.74297 19.377 4.81148 19.4395 4.89787C19.5153 5.00271 19.641 5.01352 19.761 5.02548C19.9812 5.04743 20.0878 4.98498 20.1696 4.94881C20.2645 4.90687 20.3423 4.61232 20.374 4.43737C20.4074 4.25365 20.3671 3.92376 20.3382 3.79147C20.3027 3.62908 20.1849 3.37672 20.1125 3.21028C20.052 3.07135 20.0307 2.95333 19.9971 2.8307C19.9696 2.73021 19.9347 2.59796 19.913 2.48008C19.9058 2.32848 19.8914 2.27083 19.8841 2.23012C19.8817 2.20843 19.8817 2.18465 19.8817 2.16016" stroke="#FF7700" stroke-width="0.48" stroke-linecap="round"/>
<path d="M19.7541 2.83691C19.7541 2.9686 19.7541 3.10028 19.7511 3.40455C19.7481 3.70882 19.7421 4.18168 19.739 4.41181C19.7359 4.64193 19.7359 4.615 19.7479 4.54875C19.7599 4.4825 19.7838 4.37775 19.8036 4.26992C19.8687 3.91583 19.8718 3.81075 19.887 3.73643C19.902 3.66338 19.9835 3.99649 20.0019 4.14091C20.018 4.26655 20.0231 4.33894 20.0337 4.4041C20.0485 4.49528 20.0443 4.56875 20.0323 4.62185C20.0262 4.6325 20.0173 4.64148 20.0097 4.65209C20.002 4.6627 19.996 4.67467 19.9717 4.70514" stroke="#FF7700" stroke-width="0.48" stroke-linecap="round"/>
</svg>
