<svg width="49" height="52" viewBox="0 0 49 52" fill="none" xmlns="http://www.w3.org/2000/svg">
<path d="M16.014 21.892C12.8576 20.0903 10.4599 18.5867 7.22005 18.5031C6.5006 18.4846 6.08891 19.1737 5.78412 19.702C5.17821 20.7522 5.17679 23.0796 5.47481 25.8611C5.86781 29.5291 11.7784 30.1644 15.1764 31.1443C15.8041 31.3253 15.8604 32.1151 15.3412 32.9437C12.7386 37.0963 10.1529 40.0804 9.3175 43.1058C9.15516 43.6937 9.24073 44.3069 9.53876 44.763C9.83678 45.219 10.4328 45.517 11.3359 45.6706C12.239 45.8241 13.4311 45.8241 14.2687 45.3026C21.3463 40.8957 16.312 24.7639 17.6644 21.9778C18.8713 19.4915 21.27 17.3855 24.5054 15.2023C27.2762 13.3325 31.0415 13.3126 34.0669 13.8364C34.7033 13.9465 35.268 14.3602 35.6496 14.8117C36.4075 15.7087 36.3337 17.0695 36.0357 18.2706C35.1592 21.8031 30.4816 24.1407 24.765 26.9245C23.0209 27.7738 21.7396 28.3582 20.762 29.7083C19.7466 31.1107 20.0779 33.1717 20.3014 34.7499C20.6679 37.3372 25.0179 40.2339 28.1968 42.9568C29.2739 43.8794 30.608 44.1669 31.9582 44.3182C36.2675 44.8011 40.6866 41.1641 42.4251 38.6129C43.8625 36.5034 42.3573 33.9393 41.6823 32.7382C40.0815 29.89 36.9478 28.0692 33.7869 26.0395C32.3812 25.1368 30.9241 24.6013 29.1224 24.8993C27.1381 25.2276 25.9526 26.8545 25.2752 28.2769C24.8444 29.1817 25.045 30.7424 25.492 31.957C27.0034 36.0637 31.2041 36.3325 34.8887 37.9175C35.8174 38.3169 36.7672 38.1478 37.3023 37.8497C37.8373 37.5517 37.9864 36.9557 38.0631 36.2761C38.1399 35.5965 38.1399 34.8515 37.7674 34.2441C36.6498 33.1898 35.2861 32.5802 34.0105 32.2799C33.3309 32.1286 32.5858 31.9796 31.8182 31.8261" stroke="#FFF06C" stroke-width="10.56" stroke-linecap="round"/>
<path d="M17.4937 28.4205C17.4937 28.3056 17.6086 27.9591 17.8976 27.4663C18.3016 27.1459 18.7683 26.97 19.2314 26.8829C19.4648 26.8533 19.6946 26.8533 20.2797 27.2016" stroke="#0D0D0D" stroke-width="2" stroke-linecap="round"/>
<path d="M25.9937 26.0664C25.9937 25.9514 26.0511 25.6624 26.2531 25.2567C26.3976 25.0808 26.6275 24.9659 27.0619 24.9067C27.4964 24.8475 28.1284 24.8475 28.9538 25.0216" stroke="#0D0D0D" stroke-width="2" stroke-linecap="round"/>
<path d="M23.9937 31.0676C23.9937 31.2974 23.9937 32.7375 24.3384 34.7399C24.4679 35.492 25.3727 35.4208 25.8141 35.3346C26.4678 35.2069 26.7205 34.6685 26.9233 34.2054C27.1181 33.7607 27.1279 33.0457 27.0417 32.263C26.3757 31.3601 25.7367 30.7211 25.2743 30.4599C24.9844 30.3711 24.5822 30.3711 24.1678 30.3711" stroke="#0D0D0D" stroke-width="2" stroke-linecap="round"/>
<path d="M11.5548 16.4965C11.6441 13.492 11.9864 11.3875 12.2023 10.2762C12.34 9.56744 12.9526 8.32314 14.0586 6.67226C16.319 3.29808 19.0796 2.67999 20.0921 2.48689C21.8174 2.15787 24.55 1.939 25.5946 2.01366C26.8784 2.10541 27.774 2.15168 28.6631 2.17077C30.0315 2.20016 31.3134 2.96489 32.1561 3.43283C33.0917 3.95225 33.9913 4.81453 34.63 5.65019C35.2194 6.42141 35.7368 7.11866 36.0716 7.86743C36.401 8.60386 36.6915 10.6339 36.7764 13.2299C36.808 14.198 36.2602 14.4354 35.9318 14.5986C34.9461 15.0883 34.0263 15.1427 33.0308 15.4563C30.9802 16.1022 28.4993 16.2327 25.5039 16.7561C23.3793 17.1274 19.3778 17.4986 17.1529 17.7348C13.8096 18.0898 12.4322 18.0671 11.1135 18.147C10.2244 18.2009 9.23394 18.0491 8.05075 18.0387C6.88767 18.0284 5.78945 17.6173 4.87599 17.4026C4.46197 17.3053 4.05606 17.1297 3.81149 16.9378C3.21508 16.4696 5.60277 15.7209 6.52956 15.1925C7.32843 14.7371 8.31829 14.5145 9.19666 14.2405C9.40794 14.142 9.58883 14.0234 9.85015 13.9426C10.1115 13.8618 10.4477 13.8225 10.7942 13.7819" stroke="#37A2FF" stroke-width="4" stroke-linecap="round"/>
<path d="M18.0935 5.54917C16.0478 8.19105 14.817 10.3066 14.2134 12.2912C13.8992 13.3245 13.8767 14.0586 13.9935 14.0235C14.9608 13.7331 15.1862 11.8467 15.9391 10.7278C17.641 8.19852 20.1631 4.82574 21.1771 3.7626C21.3663 3.56421 21.1336 5.42629 20.3785 7.77388C19.1408 11.6221 16.1956 13.6365 15.2832 14.2878C14.9285 14.5411 14.3225 14.8917 14.0873 15.0196C13.9037 15.1195 15.0336 14.4248 16.5576 13.1934C18.0816 11.9621 20.3346 9.99393 21.7496 8.65804C23.1647 7.32216 23.6737 6.67821 23.9995 6.26599C24.4525 5.69278 22.972 7.56608 20.0651 11.051C16.9801 14.7496 15.76 15.411 15.21 16.1889C14.9609 16.5412 17.4544 14.2047 21.5283 10.3588C23.4967 8.50048 24.1879 7.64207 24.856 6.82602C25.0214 6.62391 25.1258 6.40191 25.1475 6.15293C25.1693 5.90396 25.0875 5.62136 24.8208 5.42904C24.554 5.23673 24.1048 5.14325 23.9907 5.05701C23.0507 4.34678 27.6763 4.71908 29.2894 4.80316C30.2954 4.85559 31.4996 5.00913 32.8145 5.49483C34.0645 5.9566 34.4717 7.65657 34.8367 8.87104C35.295 10.3955 34.6653 11.3761 34.1027 12.2299C33.6833 12.8665 32.3729 13.1718 29.9158 13.7052C25.6246 14.6369 22.4678 14.7273 21.7569 14.7367C20.6049 14.7521 19.3839 14.842 18.8378 14.6138C17.864 14.2069 20.4215 12.4628 21.5962 11.3926C24.6817 8.58172 27.6383 6.00732 27.9858 5.62281C28.1507 5.44035 28.3445 5.33437 28.3866 5.66883C28.7124 8.25539 26.4556 10.5122 25.9782 11.3369C24.7541 13.4513 29.4472 8.0089 29.6596 7.93239C31.0855 7.41864 29.0058 10.9056 28.8548 11.7644C28.5678 13.3964 30.8668 9.2194 31.3324 8.79744C31.5902 8.5638 31.8291 8.22576 32.0771 8.84968C32.325 9.4736 32.5587 11.0532 31.3496 11.9496C25.7977 16.0656 23.8547 13.1379 23.2951 13.1791C23.0243 13.199 22.7779 13.1666 23.0767 12.8387C23.3754 12.5108 24.2263 11.8755 24.7846 11.5342C25.343 11.1929 25.5832 11.1647 25.8307 11.1358" stroke="#37A2FF" stroke-width="4" stroke-linecap="round"/>
<path d="M22.0093 3.91699L22.0398 4.17759" stroke="white" stroke-width="2" stroke-linecap="round"/>
<path d="M31.0908 5.8916L31.2211 5.87634" stroke="white" stroke-width="2" stroke-linecap="round"/>
<path d="M25.7471 8.7627L25.7776 9.02329" stroke="white" stroke-width="2" stroke-linecap="round"/>
<path d="M15.2705 8.40479L15.4008 8.38953" stroke="white" stroke-width="2" stroke-linecap="round"/>
<path d="M5.54443 16.4653L5.87571 16.4265" stroke="white" stroke-width="2" stroke-linecap="round"/>
<path d="M12.4028 17.6768L12.4287 17.8976" stroke="white" stroke-width="2" stroke-linecap="round"/>
<path d="M24.1007 17.2024L24.0032 17.3258" stroke="white" stroke-width="2" stroke-linecap="round"/>
<path d="M18.2231 16.3057L18.2904 16.2978" stroke="white" stroke-width="2" stroke-linecap="round"/>
<path d="M33.4268 14.5083L33.4425 14.6427" stroke="white" stroke-width="2" stroke-linecap="round"/>
<path d="M10.1333 12.2124C10.6923 12.4561 12.3643 13.1453 13.9442 13.4974C15.0019 13.7331 16.2663 13.8025 17.2246 13.8029C17.9623 13.8032 18.6715 13.8327 19.7865 13.88C20.4084 13.9064 20.9055 13.9269 22.7598 13.7764C24.4388 13.6401 27.6025 13.2319 29.34 13.0064C31.7386 12.6952 33.1041 12.321 34.1472 12.0663C35.0916 11.7778 35.8688 11.5974 36.5556 11.3844C36.7266 11.3197 36.895 11.256 37.4322 10.8812" stroke="#078BFF" stroke-width="4" stroke-linecap="round"/>
</svg>
