<svg width="49" height="53" viewBox="0 0 49 53" fill="none" xmlns="http://www.w3.org/2000/svg">
<path d="M16.014 23.6655C12.8576 21.8638 10.4599 20.3601 7.22005 20.2766C6.5006 20.258 6.08891 20.9471 5.78412 21.4754C5.17821 22.5257 5.17679 24.853 5.47481 27.6346C5.86781 31.3025 11.7784 31.9378 15.1764 32.9177C15.8041 33.0987 15.8604 33.8885 15.3412 34.7171C12.7386 38.8698 10.1529 41.8538 9.3175 44.8792C9.15516 45.4671 9.24073 46.0803 9.53876 46.5364C9.83678 46.9925 10.4328 47.2905 11.3359 47.444C12.239 47.5975 13.4311 47.5975 14.2687 47.076C21.3463 42.6692 16.312 26.5373 17.6644 23.7513C18.8713 21.2649 21.27 19.159 24.5054 16.9758C27.2762 15.106 31.0415 15.086 34.0669 15.6098C34.7033 15.72 35.268 16.1336 35.6496 16.5851C36.4075 17.4821 36.3337 18.8429 36.0357 20.044C35.1592 23.5765 30.4816 25.9141 24.765 28.6979C23.0209 29.5473 21.7396 30.1316 20.762 31.4818C19.7466 32.8842 20.0779 34.9451 20.3014 36.5233C20.6679 39.1107 25.0179 42.0074 28.1968 44.7302C29.2739 45.6528 30.608 45.9404 31.9582 46.0916C36.2675 46.5745 40.6866 42.9376 42.4251 40.3863C43.8625 38.2768 42.3573 35.7128 41.6823 34.5117C40.0815 31.6635 36.9478 29.8426 33.7869 27.8129C32.3812 26.9103 30.9241 26.3747 29.1224 26.6728C27.1381 27.001 25.9526 28.628 25.2752 30.0503C24.8444 30.9551 25.045 32.5158 25.492 33.7305C27.0034 37.8372 31.2041 38.106 34.8887 39.6909C35.8174 40.0904 36.7672 39.9212 37.3023 39.6232C37.8373 39.3252 37.9864 38.7291 38.0631 38.0495C38.1399 37.37 38.1399 36.6249 37.7674 36.0176C36.6498 34.9632 35.2861 34.3536 34.0105 34.0533C33.3309 33.9021 32.5858 33.753 31.8182 33.5995" stroke="#FFF06C" stroke-width="10.56" stroke-linecap="round"/>
<path d="M17.4937 30.1939C17.4937 30.079 17.6086 29.7325 17.8976 29.2397C18.3016 28.9193 18.7683 28.7434 19.2314 28.6564C19.4648 28.6268 19.6946 28.6268 20.2797 28.975" stroke="#0D0D0D" stroke-width="2" stroke-linecap="round"/>
<path d="M25.9937 27.8398C25.9937 27.7249 26.0511 27.4358 26.2531 27.0301C26.3976 26.8542 26.6275 26.7393 27.0619 26.6801C27.4964 26.6209 28.1284 26.6209 28.9538 26.795" stroke="#0D0D0D" stroke-width="2" stroke-linecap="round"/>
<path d="M23.9937 32.841C23.9937 33.0709 23.9937 34.5109 24.3384 36.5134C24.4679 37.2655 25.3727 37.1942 25.8141 37.108C26.4678 36.9804 26.7205 36.442 26.9233 35.9788C27.1181 35.5341 27.1279 34.8191 27.0417 34.0364C26.3757 33.1336 25.7367 32.4945 25.2743 32.2333C24.9844 32.1445 24.5822 32.1445 24.1678 32.1445" stroke="#0D0D0D" stroke-width="2" stroke-linecap="round"/>
<path d="M10.6563 16.1838C10.815 13.1822 11.2057 11.0861 11.4472 9.98008C11.6012 9.27469 12.2424 8.04485 13.3861 6.41992C15.7237 3.09877 18.4979 2.54453 19.5146 2.37484C21.247 2.08569 23.9839 1.92991 25.0265 2.02865C26.3079 2.14999 27.2022 2.2169 28.0906 2.25649C29.4579 2.31743 30.7218 3.11153 31.5536 3.59878C32.4769 4.13965 33.3564 5.02244 33.9756 5.87261C34.5471 6.65723 35.0482 7.36622 35.3657 8.12251C35.678 8.86634 35.9216 10.9026 35.9466 13.4998C35.9559 14.4684 35.4027 14.6931 35.0706 14.8487C34.074 15.3155 33.1531 15.3487 32.1507 15.6392C30.0857 16.2377 27.6025 16.3109 24.5958 16.7651C22.4632 17.0872 18.4542 17.3661 16.2244 17.5509C12.8738 17.8287 11.4973 17.7742 10.1772 17.8237C9.28705 17.857 8.30033 17.6825 7.11769 17.6447C5.95516 17.6076 4.86671 17.1713 3.95844 16.9356C3.54678 16.8288 3.14503 16.6439 2.90495 16.4463C2.3195 15.9646 4.72383 15.2711 5.66256 14.7643C6.47172 14.3274 7.46645 14.1277 8.3509 13.874C8.5644 13.7804 8.74798 13.666 9.01109 13.5913C9.2742 13.5166 9.61127 13.4849 9.95856 13.4524" stroke="#F15659" stroke-width="4" stroke-linecap="round"/>
<path d="M17.4456 5.38992C15.3395 7.98391 14.0603 10.0705 13.4111 12.0406C13.0731 13.0665 13.0337 13.7998 13.1513 13.7674C14.1251 13.4994 14.3939 11.6187 15.1724 10.5175C16.9321 8.02812 19.5314 4.71442 20.5696 3.67495C20.7634 3.48097 20.4878 5.33719 19.6788 7.66674C18.3526 11.4854 15.3617 13.4313 14.4346 14.0614C14.0741 14.3064 13.4601 14.643 13.2221 14.7654C13.0362 14.8611 14.1819 14.1926 15.7339 12.9967C17.2858 11.8009 19.5836 9.88518 21.0291 8.58229C22.4746 7.2794 22.9983 6.64737 23.3335 6.24277C23.7996 5.68016 22.2763 7.51881 19.2898 10.9358C16.1204 14.5622 14.8853 15.1953 14.3175 15.9603C14.0603 16.3067 16.6071 14.0284 20.7686 10.2775C22.7794 8.46507 23.4902 7.62283 24.1769 6.8224C24.347 6.62416 24.4564 6.40463 24.4839 6.15622C24.5114 5.90781 24.4361 5.62341 24.1739 5.42499C23.9117 5.22657 23.4647 5.12276 23.3526 5.03391C22.4293 4.30219 27.045 4.78108 28.6558 4.90234C29.6603 4.97796 30.8607 5.15924 32.164 5.67514C33.4031 6.16561 33.7709 7.87453 34.1078 9.0971C34.5308 10.6317 33.8786 11.5975 33.2965 12.4382C32.8626 13.0649 31.5455 13.3399 29.0767 13.8165C24.7651 14.6489 21.6071 14.6665 20.8962 14.6595C19.7442 14.6483 18.5214 14.71 17.9807 14.4693C17.0166 14.04 19.6136 12.3554 20.8127 11.3126C23.9621 8.57362 26.9773 6.0681 27.3336 5.69171C27.5026 5.5131 27.6989 5.41162 27.7333 5.74696C27.9993 8.34035 25.6911 10.5445 25.1947 11.358C23.9222 13.4436 28.7396 8.11087 28.9537 8.03927C30.3911 7.55855 28.2315 10.9966 28.0607 11.8517C27.7362 13.4767 30.1309 9.35379 30.6061 8.94269C30.8692 8.71505 31.1159 8.38261 31.3494 9.01209C31.5828 9.64156 31.78 11.2261 30.5506 12.0944C24.9052 16.0813 23.0303 13.1095 22.4699 13.1378C22.1987 13.1515 21.9531 13.1134 22.2594 12.7925C22.5656 12.4716 23.4309 11.8561 23.997 11.5277C24.5631 11.1993 24.8039 11.1768 25.0519 11.1535" stroke="#F15659" stroke-width="4" stroke-linecap="round"/>
<path d="M9.33398 11.8682C9.8872 12.1247 11.5429 12.8523 13.1142 13.2407C14.1662 13.5007 15.4287 13.5993 16.3867 13.6218C17.1242 13.6391 17.8325 13.685 18.9462 13.758C19.5673 13.7987 20.0638 13.8307 21.921 13.723C23.6028 13.6254 26.7751 13.2903 28.5173 13.105C30.9224 12.8491 32.2962 12.5066 33.3448 12.276C34.2957 12.0093 35.0768 11.847 35.7683 11.6498C35.9408 11.5891 36.1107 11.5293 36.6564 11.167" stroke="#D93033" stroke-width="4" stroke-linecap="round"/>
<path d="M9.7749 10.0015C10.1699 10.1042 11.0424 10.376 11.6257 10.5679C12.2399 10.77 12.8856 10.8383 13.4699 10.8545C14.1776 10.874 14.8735 10.9695 15.5 11.0521C16.2562 11.1517 17.0377 11.0842 17.6616 11.1495C18.5548 11.2431 19.4032 11.11 20.2536 11.1356C21.1435 11.1624 22.6106 11.1269 23.588 11.1231C24.4166 11.1198 24.9812 11.1163 25.6207 11.1616C25.8339 11.1768 26.1142 11.1858 27.4881 11.0749C28.862 10.964 31.3209 10.7334 32.6726 10.5892C34.5523 10.3886 35.5076 10.129 36.3222 9.92982C36.6078 9.78022 36.8791 9.64785 37.1501 9.53456C37.2858 9.46889 37.4178 9.38663 37.544 9.19693" stroke="#FFF06C" stroke-linecap="round"/>
</svg>
