<svg width="49" height="49" viewBox="0 0 49 49" fill="none" xmlns="http://www.w3.org/2000/svg">
<path d="M16.014 19.7973C12.8576 17.9956 10.4599 16.4919 7.22005 16.4084C6.5006 16.3899 6.08891 17.079 5.78412 17.6073C5.17821 18.6575 5.17679 20.9849 5.47481 23.7664C5.86781 27.4344 11.7784 28.0697 15.1764 29.0495C15.8041 29.2306 15.8604 30.0204 15.3412 30.8489C12.7386 35.0016 10.1529 37.9857 9.3175 41.011C9.15516 41.599 9.24073 42.2122 9.53876 42.6682C9.83678 43.1243 10.4328 43.4223 11.3359 43.5758C12.239 43.7294 13.4311 43.7294 14.2687 43.2078C21.3463 38.801 16.312 22.6691 17.6644 19.8831C18.8713 17.3967 21.27 15.2908 24.5054 13.1076C27.2762 11.2378 31.0415 11.2178 34.0669 11.7416C34.7033 11.8518 35.268 12.2654 35.6496 12.717C36.4075 13.6139 36.3337 14.9747 36.0357 16.1758C35.1592 19.7084 30.4816 22.046 24.765 24.8298C23.0209 25.6791 21.7396 26.2635 20.762 27.6136C19.7466 29.016 20.0779 31.077 20.3014 32.6551C20.6679 35.2425 25.0179 38.1392 28.1968 40.862C29.2739 41.7846 30.608 42.0722 31.9582 42.2235C36.2675 42.7063 40.6866 39.0694 42.4251 36.5181C43.8625 34.4087 42.3573 31.8446 41.6823 30.6435C40.0815 27.7953 36.9478 25.9745 33.7869 23.9448C32.3812 23.0421 30.9241 22.5066 29.1224 22.8046C27.1381 23.1328 25.9526 24.7598 25.2752 26.1822C24.8444 27.087 25.045 28.6476 25.492 29.8623C27.0034 33.969 31.2041 34.2378 34.8887 35.8227C35.8174 36.2222 36.7672 36.053 37.3023 35.755C37.8373 35.457 37.9864 34.8609 38.0631 34.1814C38.1399 33.5018 38.1399 32.7567 37.7674 32.1494C36.6498 31.095 35.2861 30.4854 34.0105 30.1852C33.3309 30.0339 32.5858 29.8849 31.8182 29.7314" stroke="#FFF06C" stroke-width="10.56" stroke-linecap="round"/>
<path d="M17.4937 26.3258C17.4937 26.2108 17.6086 25.8643 17.8976 25.3715C18.3016 25.0512 18.7683 24.8753 19.2314 24.7882C19.4648 24.7586 19.6946 24.7586 20.2797 25.1069" stroke="#0D0D0D" stroke-width="2" stroke-linecap="round"/>
<path d="M25.9937 23.9716C25.9937 23.8567 26.0511 23.5677 26.2531 23.1619C26.3976 22.9861 26.6275 22.8712 27.0619 22.8119C27.4964 22.7527 28.1284 22.7527 28.9538 22.9269" stroke="#0D0D0D" stroke-width="2" stroke-linecap="round"/>
<path d="M23.9937 28.9729C23.9937 29.2027 23.9937 30.6427 24.3384 32.6452C24.4679 33.3973 25.3727 33.326 25.8141 33.2398C26.4678 33.1122 26.7205 32.5738 26.9233 32.1106C27.1181 31.666 27.1279 30.9509 27.0417 30.1683C26.3757 29.2654 25.7367 28.6264 25.2743 28.3652C24.9844 28.2764 24.5822 28.2764 24.1678 28.2764" stroke="#0D0D0D" stroke-width="2" stroke-linecap="round"/>
<path d="M7.70909 6.66522C5.17939 6.91563 4.1588 7.66981 3 8.75755C2.46229 9.2623 2.36392 9.92626 2.32129 10.7232C2.23905 12.2604 2.7539 13.4654 3.04651 13.9113C3.62464 14.7922 5.10712 15.2914 6.49819 15.4852C7.76577 15.6617 8.6911 15.5637 10.4876 15.3904C11.944 15.2499 13.5143 15.5549 14.5286 15.6211C15.5805 15.6897 16.7352 16.183 18.6165 16.7926C20.2289 17.3151 21.3149 17.3419 22.3326 17.2775C24.06 17.168 25.8618 16.8111 26.7623 16.4542C27.6631 16.0971 28.3331 15.03 29.2496 14.4128C30.0543 13.871 30.8905 13.4895 31.8493 13.1753C32.699 12.8968 35.5065 12.4838 37.4117 12.0134C38.5089 11.7425 38.492 10.1719 38.6428 9.04636C38.7404 8.31726 38.4574 7.70905 38.2509 7.32818C37.766 6.43381 36.5326 6.028 35.6148 5.53939C34.7246 5.06547 33.4297 4.76734 31.4564 4.22139C29.7594 3.75186 28.6764 4.19641 27.528 4.22909C25.0583 4.29936 24.1953 4.82281 23.2293 5.08569C22.361 5.32198 21.5017 5.7631 20.6012 6.12004C19.4369 6.58153 14.7976 7.52279 12.1507 7.73952C10.9811 7.83528 9.54903 7.64032 7.85122 7.82527C6.1829 8.00701 6.95614 10.8216 6.74636 11.5249C6.38781 12.7268 6.21459 9.18621 5.82413 9.13682C3.88543 8.89156 3.4566 12.597 3.38598 13.0174C3.20279 14.1078 8.34503 11.4131 10.0342 10.6263C11.8887 9.76246 8.16526 13.2235 8.09496 13.4644C7.79722 14.4846 11.983 11.6747 13.4568 10.5098C14.7824 9.46208 10.6762 13.1806 10.6618 13.2865C10.2444 16.3475 16.7784 9.56106 18.3645 8.95119C19.0003 8.70671 16.7025 11.7621 15.3904 13.4389C14.6149 14.4299 19.2651 10.5012 21.9521 8.96879C22.8235 8.47185 22.855 8.8549 22.1333 9.69747C21.4116 10.54 19.9764 11.9098 19.0765 12.7395C17.8791 13.8436 20.38 11.59 24.5845 8.04784C25.5534 7.23158 20.9534 12.8823 18.785 15.4143C15.2012 19.599 26.0368 11.0873 26.3883 11.1891C27.5283 11.5192 23.9727 13.8312 23.0851 14.7046C19.6958 18.0398 28.29 11.0296 28.5392 10.967C30.3071 10.5232 26.2871 13.9251 26.069 14.0341C24.2518 14.9426 29.2522 11.6652 29.4903 11.528C29.7532 11.3764 29.2036 12.3868 28.968 12.7285C27.9155 14.2551 33.1173 9.58461 33.8086 9.384C34.1147 9.29517 33.4547 10.4555 32.8945 11.049C32.6763 11.2803 33.6271 9.92615 34.3724 9.38451C34.6313 9.19634 34.7955 9.44705 34.9435 9.40403C35.0916 9.361 35.2561 9.08384 35.1844 8.9121C34.0851 6.28121 27.1687 9.54274 25.8529 9.34234C25.57 9.29925 25.3611 9.12997 25.3688 9.02493C25.3916 8.71192 28.3613 8.39944 32.0317 7.83554C33.2149 7.65376 32.9959 7.54827 32.1566 7.38447C31.3173 7.22068 29.8586 6.9671 29.4132 6.84451C27.9923 6.45337 32.8148 7.05755 33.4714 6.96655C33.7838 6.92325 30.8422 6.72023 27.1952 6.84495C22.416 7.00838 20.5682 7.12897 18.5196 7.36141C18.0335 7.41657 17.6597 7.63411 17.5681 7.75012C17.4765 7.86613 17.6899 7.93797 17.9743 7.95058C19.6255 8.02382 21.3666 7.06665 23.4068 6.6536C24.4065 6.48769 26.0019 6.26467 26.9519 6.15728C27.902 6.0499 28.1582 6.06491 28.5733 6.05926" stroke="white" stroke-width="4" stroke-linecap="round"/>
<path d="M21.4755 2.47816C21.3884 2.44884 20.742 2.43483 18.9711 2.5981C17.7957 2.70648 16.0833 3.08352 14.9346 3.36985C13.2306 3.79459 12.5825 4.22369 12.301 4.37811C11.6392 4.74115 10.5469 5.36529 10.0322 5.77458C9.85721 5.91375 9.72527 6.13158 9.68138 6.49235C9.61404 7.04591 9.82883 7.47971 9.97005 7.66904C10.4085 8.25684 11.6757 8.12387 12.6585 8.10124C12.9349 8.09488 13.2917 8.12812 14.2507 8.05694C16.0482 7.92354 17.4705 7.58675 17.9651 7.45472C18.6399 7.27462 19.5393 7.08754 20.1794 6.94588C20.9416 6.7772 21.3525 6.70832 22.1796 6.41538C22.7579 6.21059 23.2687 6.02168 23.676 5.78679C23.8402 5.69213 24.0338 5.64247 24.2086 5.47183C24.5555 5.13335 24.4575 4.62055 24.3503 3.92342C24.287 3.51214 23.8344 3.30291 23.5181 3.13647C23.1891 2.96334 22.8204 2.94035 22.3741 2.97098C22.1548 2.98603 20.895 3.18749 19.0614 3.55886C18.3774 3.6974 18.202 3.77332 17.5317 3.9714C15.7075 4.51045 14.2577 4.95347 13.8362 5.1589C13.5837 5.28196 13.4413 5.42412 13.3366 5.57458C13.2884 5.64375 13.3161 5.73401 13.3669 5.80079C13.4178 5.86757 13.5077 5.91725 13.6499 5.96057C13.7921 6.00388 13.9838 6.03934 15.2864 5.83744C16.5891 5.63554 18.9968 5.19523 20.2765 4.95253C21.5561 4.70983 21.6347 4.6781 21.7156 4.64541" stroke="#FFE749" stroke-width="4" stroke-linecap="round"/>
</svg>
