<svg width="49" height="56" viewBox="0 0 49 56" fill="none" xmlns="http://www.w3.org/2000/svg">
<path d="M16.014 26.103C12.8576 24.3013 10.4599 22.7976 7.22005 22.7141C6.5006 22.6955 6.08891 23.3846 5.78412 23.9129C5.17821 24.9632 5.17679 27.2905 5.47481 30.0721C5.86781 33.74 11.7784 34.3753 15.1764 35.3552C15.8041 35.5362 15.8604 36.326 15.3412 37.1546C12.7386 41.3073 10.1529 44.2913 9.3175 47.3167C9.15516 47.9046 9.24073 48.5178 9.53876 48.9739C9.83678 49.43 10.4328 49.728 11.3359 49.8815C12.239 50.035 13.4311 50.035 14.2687 49.5135C21.3463 45.1067 16.312 28.9748 17.6644 26.1888C18.8713 23.7024 21.27 21.5965 24.5054 19.4133C27.2762 17.5435 31.0415 17.5235 34.0669 18.0473C34.7033 18.1575 35.268 18.5711 35.6496 19.0226C36.4075 19.9196 36.3337 21.2804 36.0357 22.4815C35.1592 26.014 30.4816 28.3516 24.765 31.1354C23.0209 31.9848 21.7396 32.5691 20.762 33.9193C19.7466 35.3217 20.0779 37.3826 20.3014 38.9608C20.6679 41.5482 25.0179 44.4449 28.1968 47.1677C29.2739 48.0903 30.608 48.3779 31.9582 48.5291C36.2675 49.012 40.6866 45.3751 42.4251 42.8238C43.8625 40.7143 42.3573 38.1503 41.6823 36.9492C40.0815 34.101 36.9478 32.2801 33.7869 30.2504C32.3812 29.3478 30.9241 28.8122 29.1224 29.1103C27.1381 29.4385 25.9526 31.0655 25.2752 32.4878C24.8444 33.3926 25.045 34.9533 25.492 36.168C27.0034 40.2747 31.2041 40.5435 34.8887 42.1284C35.8174 42.5279 36.7672 42.3587 37.3023 42.0607C37.8373 41.7627 37.9864 41.1666 38.0631 40.487C38.1399 39.8075 38.1399 39.0624 37.7674 38.4551C36.6498 37.4007 35.2861 36.7911 34.0105 36.4908C33.3309 36.3396 32.5858 36.1905 31.8182 36.037" stroke="#FFF06C" stroke-width="10.56" stroke-linecap="round"/>
<path d="M17.4937 32.6314C17.4937 32.5165 17.6086 32.17 17.8976 31.6772C18.3016 31.3568 18.7683 31.1809 19.2314 31.0939C19.4648 31.0643 19.6946 31.0643 20.2797 31.4125" stroke="#0D0D0D" stroke-width="2" stroke-linecap="round"/>
<path d="M25.9937 30.2773C25.9937 30.1624 26.0511 29.8733 26.2531 29.4676C26.3976 29.2917 26.6275 29.1768 27.0619 29.1176C27.4964 29.0584 28.1284 29.0584 28.9538 29.2325" stroke="#0D0D0D" stroke-width="2" stroke-linecap="round"/>
<path d="M23.9937 35.2785C23.9937 35.5084 23.9937 36.9484 24.3384 38.9509C24.4679 39.703 25.3727 39.6317 25.8141 39.5455C26.4678 39.4179 26.7205 38.8795 26.9233 38.4163C27.1181 37.9716 27.1279 37.2566 27.0417 36.4739C26.3757 35.5711 25.7367 34.932 25.2743 34.6708C24.9844 34.582 24.5822 34.582 24.1678 34.582" stroke="#0D0D0D" stroke-width="2" stroke-linecap="round"/>
<path d="M10.5831 14.1969C8.16525 14.8374 7.52583 14.9783 6.60193 15.8824C5.3882 17.0702 5.31827 18.0356 5.28091 18.7668C5.26458 19.0864 5.56486 19.355 5.79544 19.6213C6.38591 20.3033 7.90799 20.5292 8.71234 20.6194C10.1424 20.7798 12.0733 20.9903 12.7159 21.2594C13.3837 21.5389 14.7719 22.3055 17.565 22.4704C19.0587 22.5586 19.725 21.6714 20.6313 21.12C21.6347 20.5096 22.287 20.3178 26.0632 20.0173C28.732 19.805 28.6214 17.3331 28.8189 16.4076C29.0326 15.4063 28.6609 14.5193 28.306 14.111C27.4588 13.1363 25.8161 12.9522 25.0326 12.8273C24.3621 12.7204 23.5039 12.7024 22.1012 12.6138C19.6291 12.4576 18.5572 12.8796 17.3333 13.004C14.4729 13.2946 13.8603 13.6268 12.7933 13.6808C11.8138 13.7302 10.7646 14.231 10.0696 14.4984C8.93618 14.9346 7.38279 15.9027 6.99049 16.3479C6.80097 16.5629 6.81168 16.8998 6.79354 17.2189C6.78337 17.3977 6.88107 17.6086 6.98782 17.7703C7.1886 18.0745 7.59201 18.1818 8.00032 18.1999C8.78998 18.235 10.7454 17.299 12.8723 16.2283C13.2178 16.0544 13.3906 15.9774 13.5518 15.9059C13.713 15.8344 13.8539 15.7639 13.7327 16.0447C12.8184 18.1634 11.6879 18.928 11.5444 19.0886C11.3497 19.3064 13.2753 18.2245 15.4599 16.9462C17.2445 15.902 18.301 15.0882 18.5882 15.1032C19.5257 15.152 16.2888 17.4954 14.315 19.2199C13.564 19.8761 13.3628 20.1342 13.4477 20.1908C13.5326 20.2474 13.9201 20.1065 15.1589 19.3998C16.3977 18.6931 18.4761 17.425 19.6348 16.7012C20.7936 15.9774 20.9697 15.8365 20.9548 15.9225C20.8756 16.3778 19.3482 17.9907 17.5692 20.0894C16.9365 20.8359 16.9175 20.9903 18.0267 20.0766C19.1358 19.1628 21.3903 17.1901 22.5341 16.3148C23.6779 15.4394 23.6427 15.7212 23.5012 16.0778C23.1802 16.887 22.5421 17.7153 22.1146 18.2677C20.9952 19.7141 25.989 14.7669 26.2201 14.7306C27.2441 14.5698 25.0689 17.679 24.8516 18.1818C24.7398 18.4406 25.6997 17.015 26.6247 16.0356C26.9176 15.7255 26.9861 15.9369 26.9866 16.1333C26.9871 16.3297 26.9519 16.5411 26.8985 16.7204C26.8451 16.8998 26.7747 17.0407 26.7021 17.2926" stroke="#FBFFE5" stroke-width="3.5" stroke-linecap="round"/>
<path d="M11.2236 13.7702C11.435 12.7134 11.8609 11.0417 12.5879 8.64678C13.8872 4.36623 14.2467 3.77425 14.6204 2.67261C14.7566 2.27087 14.8883 1.99369 14.9945 1.85065C15.4476 1.24048 15.6345 3.59065 16.3977 6.03839C16.8909 7.62007 17.1289 8.39432 17.485 9.51358C17.699 10.2816 17.842 10.9904 18.0192 11.6683C18.0555 11.8466 18.0555 12.0579 18.269 12.3824" stroke="#C59163" stroke-width="3.5" stroke-linecap="round"/>
<path d="M11.7573 14.4107C12.147 14.3755 12.9977 14.1631 14.3497 13.8781C15.3494 13.6283 15.9888 13.4863 16.5743 13.3796C16.878 13.3433 17.1951 13.3433 17.5217 13.3433" stroke="#C59163" stroke-width="3.5" stroke-linecap="round"/>
<path d="M15.2801 6.51123C15.1392 8.06122 15.0666 9.9165 14.9962 11.5882C14.9257 12.2031 14.7848 12.344 14.6242 12.4518C14.4635 12.5596 14.2874 12.63 13.7856 12.7026" stroke="#C59163" stroke-width="3.5" stroke-linecap="round"/>
<path d="M8.31299 15.6571C8.46066 15.768 8.90478 15.9904 9.26839 16.1581C9.63969 16.3294 10.0204 16.4551 10.3734 16.5022C10.7477 16.5521 11.0791 16.6045 11.7264 16.6507C13.5826 16.7834 14.0682 16.4941 14.6266 16.2801C14.9729 16.1474 15.2953 15.9737 15.6302 15.8157C16.0114 15.6358 16.3172 15.5836 16.6611 15.4903C16.9832 15.4028 17.3203 15.3417 18.1729 15.3136C18.7145 15.2957 19.2706 15.2303 20.0307 15.1838C20.2869 15.1681 20.423 15.0074 20.4793 14.9517C20.571 14.8609 20.1461 14.9695 20.0251 14.9885C19.9345 15.0027 20.126 14.7661 20.2464 14.6733C20.3851 14.6173 20.5345 14.58 20.6735 14.5246C20.739 14.4875 20.7941 14.4323 20.9624 14.3755" stroke="#FBFFE5" stroke-width="3.5" stroke-linecap="round"/>
<path d="M18.0601 15.2466C18.1738 15.2292 18.3847 15.1938 18.5916 15.1675C18.8173 15.1389 19.1661 15.1146 19.4319 15.0927C19.5801 15.0805 19.7051 15.0795 19.7405 15.062C19.836 15.0146 19.5299 15.0705 19.4988 15.0837C19.3813 15.1338 19.7315 15.0267 19.7669 15.0005C19.781 14.99 19.7326 14.9568 19.6972 14.9433C19.5573 14.89 19.3894 15.0001 19.2485 15.0572C19.1027 15.1163 18.9232 15.141 18.8212 15.1629C18.6441 15.201 19.1767 15.0882 19.3485 15.04C19.5121 14.9942 19.7046 14.9388 19.9071 14.886C20.0124 14.877 20.1098 14.8596 20.2019 14.8332C20.2505 14.8242 20.3028 14.8242 20.383 14.7979" stroke="#FBFFE5" stroke-width="3.5" stroke-linecap="round"/>
</svg>
