<svg width="49" height="61" viewBox="0 0 49 61" fill="none" xmlns="http://www.w3.org/2000/svg">
<path d="M16.014 31.3998C12.8576 29.5981 10.4599 28.0945 7.22005 28.0109C6.5006 27.9924 6.08891 28.6815 5.78412 29.2098C5.17821 30.2601 5.17679 32.5874 5.47481 35.369C5.86781 39.0369 11.7784 39.6722 15.1764 40.6521C15.8041 40.8331 15.8604 41.6229 15.3412 42.4515C12.7386 46.6042 10.1529 49.5882 9.3175 52.6136C9.15516 53.2015 9.24073 53.8147 9.53876 54.2708C9.83678 54.7268 10.4328 55.0249 11.3359 55.1784C12.239 55.3319 13.4311 55.3319 14.2687 54.8104C21.3463 50.4035 16.312 34.2717 17.6644 31.4856C18.8713 28.9993 21.27 26.8934 24.5054 24.7101C27.2762 22.8404 31.0415 22.8204 34.0669 23.3442C34.7033 23.4544 35.268 23.868 35.6496 24.3195C36.4075 25.2165 36.3337 26.5773 36.0357 27.7784C35.1592 31.3109 30.4816 33.6485 24.765 36.4323C23.0209 37.2816 21.7396 37.866 20.762 39.2161C19.7466 40.6185 20.0779 42.6795 20.3014 44.2577C20.6679 46.845 25.0179 49.7417 28.1968 52.4646C29.2739 53.3872 30.608 53.6747 31.9582 53.826C36.2675 54.3089 40.6866 50.6719 42.4251 48.1207C43.8625 46.0112 42.3573 43.4471 41.6823 42.246C40.0815 39.3979 36.9478 37.577 33.7869 35.5473C32.3812 34.6446 30.9241 34.1091 29.1224 34.4071C27.1381 34.7354 25.9526 36.3624 25.2752 37.7847C24.8444 38.6895 25.045 40.2502 25.492 41.4648C27.0034 45.5716 31.2041 45.8404 34.8887 47.4253C35.8174 47.8247 36.7672 47.6556 37.3023 47.3575C37.8373 47.0595 37.9864 46.4635 38.0631 45.7839C38.1399 45.1043 38.1399 44.3593 37.7674 43.7519C36.6498 42.6976 35.2861 42.088 34.0105 41.7877C33.3309 41.6364 32.5858 41.4874 31.8182 41.3339" stroke="#FFF06C" stroke-width="10.56" stroke-linecap="round"/>
<path d="M17.4941 37.9283C17.4941 37.8134 17.6091 37.4669 17.8981 36.9741C18.3021 36.6537 18.7688 36.4778 19.2319 36.3908C19.4653 36.3612 19.6951 36.3612 20.2802 36.7094" stroke="#0D0D0D" stroke-width="2" stroke-linecap="round"/>
<path d="M25.9941 35.5742C25.9941 35.4592 26.0516 35.1702 26.2536 34.7645C26.3981 34.5886 26.628 34.4737 27.0624 34.4145C27.4969 34.3553 28.1289 34.3553 28.9543 34.5294" stroke="#0D0D0D" stroke-width="2" stroke-linecap="round"/>
<path d="M23.9941 40.5754C23.9941 40.8053 23.9941 42.2453 24.3389 44.2477C24.4684 44.9998 25.3732 44.9286 25.8146 44.8424C26.4683 44.7147 26.721 44.1763 26.9238 43.7132C27.1186 43.2685 27.1284 42.5535 27.0422 41.7708C26.3762 40.8679 25.7371 40.2289 25.2748 39.9677C24.9849 39.8789 24.5827 39.8789 24.1683 39.8789" stroke="#0D0D0D" stroke-width="2" stroke-linecap="round"/>
<path d="M12.3295 20.3796C12.663 18.7071 13.6735 15.6704 14.3064 14.2796C15.0469 12.6522 16.6092 8.86929 17.8851 6.48942C18.0639 6.15584 18.2211 5.8174 18.4737 5.6456C18.7264 5.4738 19.0598 5.4738 19.315 5.64055C20.6676 6.52439 21.5054 8.41454 22.5993 10.9372C23.5666 13.1677 23.951 14.8973 24.58 16.8351C25.1827 18.6915 25.1283 20.4554 24.839 22.3527C22.5235 22.7367 16.8417 22.906 13.1354 22.1102C12.7539 21.8146 12.4204 21.4811 11.8242 20.8849" stroke="#FF7B00" stroke-width="3.5" stroke-linecap="round"/>
<path d="M19.1054 8.07471C17.663 12.093 16.3532 15.451 15.2885 17.7888C14.8069 18.8462 14.3784 19.6114 14.0888 20.0867C13.7992 20.5621 13.6447 20.7166 14.106 20.178C16.9553 16.8514 17.7473 15.5743 18.9712 13.5979C19.347 12.991 19.5207 12.5005 19.7283 11.9814C19.8329 11.7199 19.9359 11.4623 19.8087 11.9994C18.7176 16.6049 17.2352 19.5708 16.5062 20.8446C16.1586 21.452 15.9848 22.0186 16.0339 21.9187C17.2444 19.4592 18.5778 18.1782 19.5183 16.8739C20.7934 15.1058 21.2894 13.6978 21.5494 13.5386C23.7583 12.1854 21.188 18.9463 20.8242 20.2982C20.6784 20.8402 20.5104 21.2895 20.5877 21.4995C21.0651 22.7968 22.3791 19.0072 23.1073 18.4335C23.372 18.3234 23.4235 18.581 23.4758 18.8167C23.5281 19.0525 23.5796 19.2585 23.6327 19.627" stroke="#FF7B00" stroke-width="3.5" stroke-linecap="round"/>
<path d="M18.793 19.9395C19.2051 20.0425 19.6172 20.1455 19.9583 20.2501C20.2995 20.3547 20.557 20.4577 20.9785 20.5639" stroke="#FF7B00" stroke-width="3.5" stroke-linecap="round"/>
<path d="M15.5146 8.69922C16.2921 8.75073 17.4348 8.85533 18.8882 8.9849C19.6641 9.01144 21.0035 9.01144 21.7966 8.95992C22.5896 8.90841 22.7957 8.80537 23.1641 8.69922" stroke="#FFF200" stroke-width="2.1" stroke-linecap="round"/>
<path d="M13.0176 13.5386C13.8419 13.7446 17.1514 13.8508 21.6256 13.825C23.4209 13.7478 23.8908 13.6432 24.4098 13.5651C24.6713 13.5386 24.9289 13.5386 25.1943 13.5386" stroke="#FFF200" stroke-width="2.1" stroke-linecap="round"/>
<path d="M11.4561 18.8467C12.3849 18.8467 14.469 18.9497 16.1823 19.1324C17.9909 19.1589 19.4146 19.2104 21.0163 19.2885C22.3089 19.315 24.5757 19.315 26.9111 19.1589" stroke="#FFF200" stroke-width="2.1" stroke-linecap="round"/>
<path d="M10.9878 22.4374C10.9878 22.6434 10.9363 22.9557 10.9355 23.3452C10.9352 23.5355 11.1408 23.6831 11.272 23.6597C11.4031 23.6363 11.5061 23.4302 11.5592 23.4271C11.7686 23.4148 11.7668 23.9969 12.1298 24.2826C12.5396 24.6052 13.3764 24.6229 14.1569 24.4941C14.448 24.4461 14.4223 24.1078 14.3193 23.9235C14.1133 23.5553 13.5403 23.4786 13.0727 23.4778C12.8567 23.4775 12.7082 23.6831 12.7059 23.8658C12.7005 24.2832 13.2234 24.5698 13.6644 24.7775C15.2153 25.5076 17.4384 24.9882 17.8279 24.7291C18.0284 24.5957 18.1659 24.3669 18.1424 24.1835C18.119 24 17.913 23.8455 17.6522 23.7659C17.3915 23.6863 17.0824 23.6863 16.8975 23.7893C16.7125 23.8923 16.6609 24.0984 16.6859 24.3076C16.7109 24.5168 16.8139 24.7228 17.0216 24.9063C18.2829 26.0206 20.6106 25.1974 21.235 24.7564C21.4937 24.5737 21.4473 24.2639 21.267 24.1312C21.0867 23.9985 20.7261 23.9985 20.5146 24.1015C20.303 24.2045 20.2515 24.4106 20.2765 24.6198C20.3015 24.829 20.4045 25.0351 20.6121 25.1927C21.0731 25.5428 22.3231 25.5596 23.7016 25.4566C24.2133 25.4183 24.3073 25.1475 24.3346 24.9383C24.3619 24.7291 24.3104 24.523 24.1808 24.3396C24.0513 24.1562 23.8452 24.0016 23.636 23.922C23.4268 23.8424 23.2208 23.8424 23.0373 23.9196C22.8539 23.9969 22.6993 24.1515 22.6455 24.3341C22.5916 24.5168 22.6431 24.7228 22.8242 24.8805C24.1244 26.0125 26.4928 25.1443 26.8566 24.8594C27.2588 24.5444 27.2234 23.897 27.1204 23.4552C27.0725 23.2497 26.8113 23.168 26.5764 23.1149C26.3414 23.0618 26.0838 23.0618 25.9769 23.1648C25.87 23.2679 25.9215 23.4739 26.0511 23.6316C26.3209 23.96 27.0111 23.9985 27.7129 23.9212C28.0108 23.8884 28.157 23.6894 28.2624 23.5067C28.3678 23.3241 28.4193 23.118 28.3943 22.9088C28.3693 22.6996 28.2663 22.4936 28.0329 22.3874C27.7995 22.2812 27.4389 22.2812 27.3561 22.2812C27.2734 22.2812 27.4795 22.2812 28.1601 22.4374" stroke="#FFF200" stroke-width="2.1" stroke-linecap="round"/>
<path d="M9.73892 22.2812C9.63588 22.2812 9.47977 22.4873 9.32366 22.9026C9.24771 23.1046 9.27058 23.3178 9.39937 23.4497C9.52816 23.5817 9.78575 23.6332 10.1503 23.6597C10.5148 23.6863 10.9784 23.6863 11.3 23.2179" stroke="#FFF200" stroke-width="2.1" stroke-linecap="round"/>
<path d="M19.4178 1.0498C19.3147 1.0498 18.9011 1.0498 18.2774 1.15284C17.9987 1.19889 17.8598 1.46194 17.7802 1.82568C17.5915 2.68778 17.8036 3.44144 18.0627 3.77942C18.3098 4.10159 18.9463 4.01593 19.4919 3.9129C19.9817 3.8204 20.1968 3.23693 20.4567 2.89973C20.7126 2.56773 20.6667 1.98959 20.5636 1.4955C20.4842 1.11449 19.8362 1.1544 19.4467 1.17938C19.2632 1.25587 19.1087 1.46194 19.0291 1.74841C18.9494 2.03487 18.9494 2.39549 19.1056 3.07925" stroke="#FFF200" stroke-width="2.1" stroke-linecap="round"/>
</svg>
