<svg width="49" height="56" viewBox="0 0 49 56" fill="none" xmlns="http://www.w3.org/2000/svg">
<path d="M16.014 26.35C12.8576 24.5483 10.4599 23.0447 7.22005 22.9611C6.5006 22.9426 6.08891 23.6317 5.78412 24.16C5.17821 25.2102 5.17679 27.5376 5.47481 30.3191C5.86781 33.9871 11.7784 34.6224 15.1764 35.6023C15.8041 35.7833 15.8604 36.5731 15.3412 37.4017C12.7386 41.5543 10.1529 44.5384 9.3175 47.5638C9.15516 48.1517 9.24073 48.7649 9.53876 49.221C9.83678 49.677 10.4328 49.975 11.3359 50.1286C12.239 50.2821 13.4311 50.2821 14.2687 49.7606C21.3463 45.3537 16.312 29.2219 17.6644 26.4358C18.8713 23.9495 21.27 21.8436 24.5054 19.6603C27.2762 17.7905 31.0415 17.7706 34.0669 18.2944C34.7033 18.4045 35.268 18.8182 35.6496 19.2697C36.4075 20.1667 36.3337 21.5275 36.0357 22.7286C35.1592 26.2611 30.4816 28.5987 24.765 31.3825C23.0209 32.2318 21.7396 32.8162 20.762 34.1663C19.7466 35.5687 20.0779 37.6297 20.3014 39.2079C20.6679 41.7952 25.0179 44.6919 28.1968 47.4148C29.2739 48.3374 30.608 48.6249 31.9582 48.7762C36.2675 49.2591 40.6866 45.6221 42.4251 43.0709C43.8625 40.9614 42.3573 38.3973 41.6823 37.1962C40.0815 34.3481 36.9478 32.5272 33.7869 30.4975C32.3812 29.5948 30.9241 29.0593 29.1224 29.3573C27.1381 29.6856 25.9526 31.3126 25.2752 32.7349C24.8444 33.6397 25.045 35.2004 25.492 36.415C27.0034 40.5218 31.2041 40.7906 34.8887 42.3755C35.8174 42.7749 36.7672 42.6058 37.3023 42.3077C37.8373 42.0097 37.9864 41.4137 38.0631 40.7341C38.1399 40.0545 38.1399 39.3095 37.7674 38.7021C36.6498 37.6478 35.2861 37.0382 34.0105 36.7379C33.3309 36.5866 32.5858 36.4376 31.8182 36.2841" stroke="#FFF06C" stroke-width="10.56" stroke-linecap="round"/>
<path d="M17.4937 32.8785C17.4937 32.7636 17.6086 32.4171 17.8976 31.9243C18.3016 31.6039 18.7683 31.428 19.2314 31.341C19.4648 31.3114 19.6946 31.3114 20.2797 31.6596" stroke="#0D0D0D" stroke-width="2" stroke-linecap="round"/>
<path d="M25.9937 30.5244C25.9937 30.4094 26.0511 30.1204 26.2531 29.7147C26.3976 29.5388 26.6275 29.4239 27.0619 29.3647C27.4964 29.3055 28.1284 29.3055 28.9538 29.4796" stroke="#0D0D0D" stroke-width="2" stroke-linecap="round"/>
<path d="M23.9937 35.5256C23.9937 35.7555 23.9937 37.1955 24.3384 39.1979C24.4679 39.95 25.3727 39.8788 25.8141 39.7926C26.4678 39.6649 26.7205 39.1265 26.9233 38.6634C27.1181 38.2187 27.1279 37.5037 27.0417 36.721C26.3757 35.8181 25.7367 35.1791 25.2743 34.9179C24.9844 34.8291 24.5822 34.8291 24.1678 34.8291" stroke="#0D0D0D" stroke-width="2" stroke-linecap="round"/>
<path d="M12.2478 10.6453C11.8142 11.6451 11.5591 12.3898 11.3612 13.0964C11.173 13.7682 10.9661 15.4236 10.8346 16.7164C10.6688 18.348 10.5335 19.0547 10.5665 19.7996C10.5956 20.4573 10.5457 21.1616 10.603 21.7748C10.6726 22.5204 10.7389 23.5843 11.0968 24.2785C11.4952 25.0514 13.008 24.9246 14.5437 24.7409C14.8602 24.7031 15.0497 24.7012 16.576 24.4544C18.1023 24.2077 20.9595 23.7153 22.5416 23.4585C25.4852 22.9806 27.4763 22.6248 27.6767 22.3995C27.925 22.1203 27.8863 21.6607 27.9017 21.1964C27.9226 20.5663 27.7487 18.8209 27.3253 16.5472C26.9716 14.6485 26.4065 13.9916 26.1489 13.4287C25.834 12.7406 25.2663 11.826 24.887 11.2016C24.3569 10.3293 23.6648 9.57501 23.1316 9.1708C22.6121 8.77692 21.3309 8.7933 19.4063 8.9812C16.6486 9.25042 14.8746 9.74493 14.465 9.86344C13.958 9.96711 13.4941 10.0787 13.1641 10.1993C13.013 10.2575 12.8954 10.3094 12.6812 10.3789" stroke="#FFE749" stroke-width="3.2" stroke-linecap="round"/>
<path d="M15.3846 10.4883C13.9637 13.5411 13.457 15.4124 13.0412 16.6239C12.5206 18.1408 12.5523 18.7069 12.2973 21.2989C12.2337 21.9454 12.3423 22.3169 12.4974 22.3909C12.8855 22.5758 13.5107 21.5203 14.4485 20.0395C15.0695 19.0591 15.806 17.5058 16.3953 16.2443C17.9272 12.9649 18.1922 12.1499 18.5263 11.4826C18.667 11.2018 18.8442 10.9159 19.0571 10.6717C19.1555 10.5589 19.2859 10.5196 19.373 10.6465C19.9515 11.4897 19.2343 12.6011 18.5161 13.7928C16.7436 16.7335 16.2484 17.5254 15.9272 18.0783C15.4626 18.878 14.7821 20.1421 14.4367 20.9221C13.9101 22.1112 13.9092 22.6921 13.9875 22.9657C14.0264 23.1016 14.2395 23.1461 14.4037 23.1667C14.719 23.2063 15.1763 23.0192 15.9701 22.5492C17.2769 21.7756 18.4767 20.3145 19.7001 18.8138C20.3497 18.017 20.9066 17.0313 21.438 16.0094C23.1212 12.7721 23.0701 12.0743 23.2531 11.3726C23.3254 11.0954 23.1785 10.656 23.046 10.5297C22.2568 9.77767 21.408 12.4201 20.8932 13.3213C19.9032 15.0544 19.1035 15.9137 18.5662 16.6956C17.5818 18.1282 17.2446 19.7791 17.1442 20.6956C17.1126 20.9842 17.1725 21.2353 17.3359 21.4463C17.7544 21.9868 19.042 21.5534 20.042 21.0312C20.4306 20.8282 21.4365 19.5216 22.8398 17.4766C24.2462 15.4271 24.5975 14.2728 24.9461 13.8734C26.0098 12.6547 25.6747 18.2649 25.1204 19.0339C24.7068 19.6075 24.1096 19.7521 23.4174 20.4615C23.2594 20.6234 23.1928 20.7403 23.2255 20.8468C23.2583 20.9534 23.4023 21.0551 23.5406 21.1122C23.7945 21.2172 24.6458 21.067 25.2069 20.9545C27.6115 20.4723 22.0493 21.5145 21.148 21.8448C20.7851 21.9777 20.4821 22.0722 20.3442 22.1118C20.1465 22.1685 20.9239 22.0603 22.1704 21.7501C25.172 21.0031 27.1458 20.5096 27.0104 20.278C26.8612 20.0224 25.9798 19.0895 24.5791 17.5287C23.3789 16.1913 22.1265 15.4656 21.1958 14.8768C19.8473 13.9382 19.3284 13.7084 18.9915 13.5115C18.8294 13.411 18.6853 13.3092 18.4438 13.2205" stroke="#FFE749" stroke-width="3.2" stroke-linecap="round"/>
<path d="M16.974 10.792C16.0515 12.0988 15.3223 13.2157 14.9183 13.9783C14.3643 15.024 14.1049 16.2548 14.0255 16.6119C14.0011 16.7213 14.2 16.2074 14.6224 15.4719C14.9715 14.8639 15.6312 13.8006 16.0305 13.1174C16.5578 12.1686 16.7399 11.782 16.8691 11.5669C16.9482 11.4647 17.0548 11.3768 17.2581 11.2173" stroke="#FFE749" stroke-width="3.2" stroke-linecap="round"/>
<path d="M13.0281 8.99519C12.6093 9.20702 12.2469 9.55036 11.9737 9.85222C11.7431 10.1071 11.6481 10.4609 11.5599 10.8191C11.5233 10.9679 11.5717 11.2466 11.6642 11.5816C11.7834 12.0132 12.3351 12.1173 13.1114 12.2997C13.6153 12.4181 13.9103 12.2859 14.7354 12.1701C15.4583 12.0686 16.7904 11.8249 17.51 11.6921C18.4863 11.5121 19.1157 11.3187 19.6043 11.1821C19.9744 11.0786 20.4423 10.9499 20.737 10.8725C21.0689 10.7854 21.5291 10.6393 21.8891 10.5248C22.231 10.4161 22.6268 10.2752 22.9274 10.1788C23.1977 10.0922 23.4731 9.88376 23.7274 9.67263C23.8405 9.57869 23.8274 9.27939 23.7474 8.91587C23.6629 8.53205 23.3477 8.32444 23.0594 8.18046C22.7847 8.04328 22.4024 8.13533 22.0575 8.12443C21.7632 8.11512 21.4797 8.08356 21.0745 8.12677C20.7498 8.16141 20.3959 8.11224 19.9309 8.16578C19.6173 8.20187 19.3035 8.1951 18.1079 8.37454C17.7616 8.42651 17.5343 8.4294 17.2774 8.46497C17.0532 8.49601 16.049 8.63268 14.6604 8.88067C13.9422 9.00894 13.6256 9.19049 13.2984 9.28219C13.2211 9.30385 13.1623 9.35782 13.1331 9.34599C13.1039 9.33415 13.1091 9.26369 13.1413 9.19623C13.2791 8.90675 13.6033 8.7738 13.9154 8.59671C14.241 8.41186 14.5712 8.37829 16.8568 7.97517C17.6073 7.84281 18.0688 7.87987 18.8016 7.8068C19.238 7.76328 19.7543 7.78332 20.1407 7.76915C20.4903 7.75633 20.9057 7.72506 21.1908 7.74629C21.4758 7.76751 21.7598 7.78865 22.039 7.77584C22.3413 7.76198 22.6228 7.90343 22.9096 7.98547C23.1927 8.06643 23.3685 8.35352 23.5948 8.59594C23.6508 8.65599 23.695 8.71885 23.7242 8.78443C23.7534 8.85 23.7651 8.91756 23.7149 8.97944C23.4475 9.30893 22.865 9.28452 21.4221 9.55979C21.1282 9.61587 21.0642 9.64757 20.1669 9.84594C19.2697 10.0443 17.5418 10.4117 16.6109 10.6166C15.5985 10.853 15.3287 10.9174 15.0149 10.9802C14.8869 11.011 14.8222 11.0395 14.7556 11.0689" stroke="#BA5801" stroke-width="3.2" stroke-linecap="round"/>
<path d="M16.5666 6.59395C16.6424 6.63307 16.9677 6.68293 17.0627 6.62306C17.1097 6.59348 17.0757 6.4904 17.033 6.44428C16.9485 6.35309 16.7767 6.38225 16.6391 6.39702C16.5694 6.40449 16.5102 6.46244 16.4871 6.53651C16.464 6.61057 16.4815 6.7119 16.5202 6.78507C16.5589 6.85824 16.6183 6.90017 16.7333 6.90722C16.8484 6.91427 17.0173 6.88517 17.1322 6.83058C17.2472 6.77598 17.3031 6.69679 17.3345 6.62075C17.366 6.54472 17.3712 6.47426 17.3596 6.40564C17.3481 6.33701 17.3195 6.27237 17.2696 6.23644C17.2197 6.20052 17.1492 6.19527 17.0454 6.20421C16.9415 6.21315 16.8064 6.23644 16.5737 6.32924" stroke="#FF0000" stroke-width="3.2" stroke-linecap="round"/>
<path d="M16.7444 5.17983C16.7316 4.90379 16.7326 4.60377 16.8132 4.10929C17.0242 3.26191 17.2555 2.54645 17.4855 2.10421C17.6263 1.85122 17.8162 1.54026 18.1477 1.09105" stroke="#FF0000" stroke-width="0.8" stroke-linecap="round"/>
</svg>
