<svg width="49" height="55" viewBox="0 0 49 55" fill="none" xmlns="http://www.w3.org/2000/svg">
<path d="M16.014 25.35C12.8576 23.5483 10.4599 22.0447 7.22005 21.9611C6.5006 21.9426 6.08891 22.6317 5.78412 23.16C5.17821 24.2102 5.17679 26.5376 5.47481 29.3191C5.86781 32.9871 11.7784 33.6224 15.1764 34.6023C15.8041 34.7833 15.8604 35.5731 15.3412 36.4017C12.7386 40.5543 10.1529 43.5384 9.3175 46.5638C9.15516 47.1517 9.24073 47.7649 9.53876 48.221C9.83678 48.677 10.4328 48.975 11.3359 49.1286C12.239 49.2821 13.4311 49.2821 14.2687 48.7606C21.3463 44.3537 16.312 28.2219 17.6644 25.4358C18.8713 22.9495 21.27 20.8436 24.5054 18.6603C27.2762 16.7905 31.0415 16.7706 34.0669 17.2944C34.7033 17.4045 35.268 17.8182 35.6496 18.2697C36.4075 19.1667 36.3337 20.5275 36.0357 21.7286C35.1592 25.2611 30.4816 27.5987 24.765 30.3825C23.0209 31.2318 21.7396 31.8162 20.762 33.1663C19.7466 34.5687 20.0779 36.6297 20.3014 38.2079C20.6679 40.7952 25.0179 43.6919 28.1968 46.4148C29.2739 47.3374 30.608 47.6249 31.9582 47.7762C36.2675 48.2591 40.6866 44.6221 42.4251 42.0709C43.8625 39.9614 42.3573 37.3973 41.6823 36.1962C40.0815 33.3481 36.9478 31.5272 33.7869 29.4975C32.3812 28.5948 30.9241 28.0593 29.1224 28.3573C27.1381 28.6856 25.9526 30.3126 25.2752 31.7349C24.8444 32.6397 25.045 34.2004 25.492 35.415C27.0034 39.5218 31.2041 39.7906 34.8887 41.3755C35.8174 41.7749 36.7672 41.6058 37.3023 41.3077C37.8373 41.0097 37.9864 40.4137 38.0631 39.7341C38.1399 39.0545 38.1399 38.3095 37.7674 37.7021C36.6498 36.6478 35.2861 36.0382 34.0105 35.7379C33.3309 35.5866 32.5858 35.4376 31.8182 35.2841" stroke="#FFF06C" stroke-width="10.56" stroke-linecap="round"/>
<path d="M17.4937 31.8785C17.4937 31.7636 17.6086 31.4171 17.8976 30.9243C18.3016 30.6039 18.7683 30.428 19.2314 30.341C19.4648 30.3114 19.6946 30.3114 20.2797 30.6596" stroke="#0D0D0D" stroke-width="2" stroke-linecap="round"/>
<path d="M25.9937 29.5244C25.9937 29.4094 26.0511 29.1204 26.2531 28.7147C26.3976 28.5388 26.6275 28.4239 27.0619 28.3647C27.4964 28.3055 28.1284 28.3055 28.9538 28.4796" stroke="#0D0D0D" stroke-width="2" stroke-linecap="round"/>
<path d="M23.9937 34.5256C23.9937 34.7555 23.9937 36.1955 24.3384 38.1979C24.4679 38.95 25.3727 38.8788 25.8141 38.7926C26.4678 38.6649 26.7205 38.1265 26.9233 37.6634C27.1181 37.2187 27.1279 36.5037 27.0417 35.721C26.3757 34.8181 25.7367 34.1791 25.2743 33.9179C24.9844 33.8291 24.5822 33.8291 24.1678 33.8291" stroke="#0D0D0D" stroke-width="2" stroke-linecap="round"/>
<path d="M11.8808 7.98715C11.498 8.89013 11.2738 9.56223 11.1009 10.1996C10.9365 10.8055 10.7624 12.2968 10.6536 13.4613C10.5163 14.931 10.3997 15.5679 10.4349 16.2381C10.4659 16.8298 10.4262 17.464 10.4822 18.0154C10.5503 18.6859 10.6178 19.6429 10.945 20.2651C11.3092 20.9577 12.6697 20.8325 14.0505 20.656C14.335 20.6196 14.5056 20.6165 15.8774 20.3832C17.2492 20.15 19.817 19.6859 21.2389 19.4431C23.8845 18.9915 25.6739 18.6567 25.8526 18.4524C26.074 18.1993 26.0358 17.786 26.0463 17.3681C26.0604 16.8008 25.8912 15.2313 25.4934 13.1881C25.1612 11.4819 24.6478 10.8949 24.4118 10.3902C24.1234 9.77322 23.6058 8.95426 23.2598 8.39514C22.7764 7.61397 22.148 6.9402 21.6652 6.58033C21.1947 6.22966 20.0418 6.2538 18.3111 6.43701C15.8312 6.69952 14.2383 7.15757 13.8706 7.26723C13.4151 7.36425 12.9984 7.46807 12.7022 7.57906C12.5667 7.63249 12.4612 7.68007 12.2689 7.7442" stroke="#FEAFB0" stroke-width="2.88" stroke-linecap="round"/>
<path d="M14.7023 7.8227C13.446 10.5805 13.0036 12.2684 12.6383 13.3617C12.181 14.7307 12.2136 15.24 12.0031 17.5746C11.9506 18.1568 12.0511 18.4904 12.1912 18.5558C12.5419 18.7194 13.0968 17.7648 13.9299 16.4254C14.4816 15.5384 15.133 14.1351 15.6541 12.9955C17.0088 10.0329 17.2413 9.29749 17.5371 8.69451C17.6616 8.4407 17.819 8.18216 18.0088 7.9608C18.0965 7.85855 18.2136 7.82226 18.2929 7.93581C18.8198 8.69043 18.1825 9.6959 17.5448 10.7737C15.9712 13.4332 15.5313 14.1495 15.2463 14.6495C14.834 15.3725 14.2309 16.5153 13.9258 17.2197C13.4606 18.2938 13.464 18.8165 13.5365 19.0622C13.5724 19.1842 13.7646 19.2227 13.9125 19.24C14.1965 19.2734 14.6067 19.1016 15.3177 18.6729C16.4881 17.967 17.5572 16.6433 18.6472 15.2838C19.226 14.5619 19.72 13.6707 20.1907 12.7471C21.6818 9.82133 21.6307 9.19363 21.7902 8.56085C21.8533 8.31078 21.7178 7.91642 21.5977 7.80378C20.8819 7.13274 20.1374 9.5171 19.6807 10.3319C18.8024 11.8989 18.089 12.6781 17.6112 13.3857C16.7357 14.6822 16.4444 16.1705 16.3608 16.9961C16.3344 17.256 16.3902 17.4815 16.5388 17.6702C16.9194 18.1536 18.075 17.7541 18.9712 17.2768C19.3194 17.0913 20.2151 15.908 21.463 14.0573C22.7137 12.2024 23.0214 11.1611 23.3322 10.799C24.2806 9.69449 24.0201 14.746 23.5269 15.4421C23.1589 15.9613 22.6225 16.0959 22.0048 16.7393C21.8638 16.8862 21.8046 16.9919 21.8349 17.0876C21.8651 17.1832 21.9955 17.2737 22.1204 17.3241C22.3497 17.4167 23.1147 17.2753 23.6188 17.1699C25.7794 16.7183 20.7812 17.697 19.9725 18.0009C19.6469 18.1232 19.3749 18.2104 19.2511 18.2471C19.0736 18.2996 19.7724 18.1965 20.8919 17.9082C23.5878 17.2139 25.3605 16.7553 25.237 16.5478C25.1008 16.3189 24.3007 15.4858 23.0287 14.0914C21.9388 12.8965 20.8064 12.2526 19.9644 11.7296C18.7439 10.8948 18.2752 10.6918 17.9706 10.517C17.824 10.4277 17.6936 10.3372 17.4755 10.2591" stroke="#FEAFB0" stroke-width="2.88" stroke-linecap="round"/>
<path d="M16.1352 8.08448C15.3145 9.26728 14.6664 10.2778 14.3084 10.9671C13.8176 11.9123 13.5931 13.0219 13.5242 13.3438C13.5031 13.4425 13.6783 12.9785 14.0531 12.3135C14.3629 11.7637 14.9488 10.802 15.303 10.1841C15.7707 9.32637 15.9317 8.97713 16.0464 8.78257C16.1169 8.69005 16.2121 8.61013 16.394 8.46517" stroke="#FEAFB0" stroke-width="2.88" stroke-linecap="round"/>
<path d="M12.5709 6.49643C12.1955 6.69014 11.8719 7.00179 11.6283 7.27546C11.4226 7.50657 11.3397 7.82562 11.2629 8.1487C11.231 8.28287 11.2766 8.53331 11.3623 8.83415C11.4728 9.22166 11.9701 9.31136 12.6701 9.46982C13.1245 9.57267 13.389 9.4515 14.1306 9.3412C14.7805 9.24456 15.9776 9.01547 16.6242 8.89075C17.5015 8.72156 18.0665 8.54292 18.5053 8.41635C18.8376 8.32052 19.2577 8.20128 19.5224 8.12946C19.8205 8.04857 20.2336 7.91376 20.5567 7.8081C20.8636 7.70775 21.2188 7.57801 21.4886 7.4891C21.7313 7.40917 21.9776 7.21954 22.2048 7.02766C22.306 6.94228 22.292 6.67302 22.2173 6.34644C22.1385 6.00164 21.8533 5.81711 21.5928 5.68965C21.3446 5.5682 21.0012 5.65385 20.6906 5.64656C20.4257 5.64035 20.1704 5.61402 19.806 5.65588C19.514 5.68943 19.1952 5.64778 18.7771 5.69937C18.4951 5.73415 18.2127 5.73036 17.138 5.90062C16.8267 5.94993 16.6221 5.9542 16.3912 5.98809C16.1897 6.01767 15.2869 6.14803 14.0391 6.3814C13.3937 6.5021 13.11 6.66781 12.8162 6.75274C12.7468 6.7728 12.6943 6.8218 12.6679 6.81137C12.6416 6.80093 12.6458 6.73748 12.6742 6.67653C12.7961 6.415 13.0869 6.29297 13.3664 6.13131C13.6582 5.96256 13.9551 5.92992 16.0091 5.55037C16.6835 5.42575 17.0991 5.45571 17.7581 5.38458C18.1506 5.34222 18.6153 5.35646 18.963 5.34088C19.2775 5.32678 19.6512 5.29559 19.9079 5.3126C20.1646 5.32961 20.4203 5.34656 20.6715 5.33299C20.9434 5.31829 21.1978 5.44352 21.4565 5.51526C21.7119 5.58605 21.8723 5.84313 22.0776 6.05964C22.1285 6.11327 22.1687 6.16952 22.1955 6.22832C22.2223 6.28713 22.2333 6.34784 22.1885 6.40389C21.9504 6.70239 21.4259 6.6847 20.1294 6.94301C19.8653 6.99564 19.8079 7.02463 19.0018 7.20974C18.1958 7.39484 16.6434 7.73811 15.8072 7.92939C14.8977 8.14957 14.6554 8.20951 14.3735 8.26831C14.2585 8.29693 14.2005 8.32308 14.1408 8.35002" stroke="#FFFAF5" stroke-width="2.88" stroke-linecap="round"/>
<path d="M9.65039 21.9141L9.67752 22.0641" stroke="#FFFAF5" stroke-width="4.32" stroke-linecap="round"/>
<path d="M13.293 21.4881L13.1086 21.7539" stroke="#FFFAF5" stroke-width="4.32" stroke-linecap="round"/>
<path d="M17.0858 21.0353L17.0243 21.1239" stroke="#FFFAF5" stroke-width="4.32" stroke-linecap="round"/>
<path d="M21.0012 20.405L20.8646 20.5072" stroke="#FFFAF5" stroke-width="4.32" stroke-linecap="round"/>
<path d="M24.5078 19.2285L24.5485 19.4536" stroke="#FFFAF5" stroke-width="4.32" stroke-linecap="round"/>
<path d="M27.7349 18.6455L27.7484 18.7205" stroke="#FFFAF5" stroke-width="4.32" stroke-linecap="round"/>
<path d="M15.3903 1.62198C15.0356 2.22774 14.8082 2.68031 14.4429 3.44375C14.3055 3.73093 14.2352 3.94777 14.2629 4.31511C14.315 5.00681 14.5981 5.53505 14.9568 5.74066C15.7644 6.20347 16.288 6.03164 16.7241 5.87612C17.1216 5.73434 17.162 5.28088 17.1668 5.02235C17.1787 4.38303 16.9531 3.69211 16.7681 3.31175C16.645 3.12788 16.5036 2.92018 16.3734 2.69886C16.315 2.5924 16.2723 2.49782 16.0376 2.20239" stroke="#FC5B44" stroke-width="2.88" stroke-linecap="round"/>
<path d="M16.0527 2.41162C16.2456 2.71978 16.3962 2.97217 16.4897 3.15408C16.5319 3.24234 16.5635 3.32238 16.5918 3.43005C16.6201 3.53772 16.6441 3.67059 16.6688 3.80748" stroke="#FFFAF5" stroke-width="0.72" stroke-linecap="round"/>
<path d="M17.0513 5.34979L17.001 5.35889" stroke="#FFFAF5" stroke-width="0.72" stroke-linecap="round"/>
<path d="M11.2427 13.4707L11.2534 13.5301" stroke="#FC5B44" stroke-width="0.72" stroke-linecap="round"/>
<path d="M16.3099 14.7017L16.2505 14.7124" stroke="#FC5B44" stroke-width="0.72" stroke-linecap="round"/>
<path d="M20.146 11.4937L20.1567 11.553" stroke="#FC5B44" stroke-width="0.72" stroke-linecap="round"/>
<path d="M24.8939 13.334L24.8345 13.3447" stroke="#FC5B44" stroke-width="0.72" stroke-linecap="round"/>
<path d="M10.8169 17.9023L10.8276 17.9617" stroke="#FC5B44" stroke-width="0.72" stroke-linecap="round"/>
<path d="M20.2646 16.5625L20.2754 16.6219" stroke="#FC5B44" stroke-width="0.72" stroke-linecap="round"/>
</svg>
