<svg width="49" height="54" viewBox="0 0 49 54" fill="none" xmlns="http://www.w3.org/2000/svg">
<path d="M16.014 24.35C12.8576 22.5483 10.4599 21.0447 7.22005 20.9611C6.5006 20.9426 6.08891 21.6317 5.78412 22.16C5.17821 23.2102 5.17679 25.5376 5.47481 28.3191C5.86781 31.9871 11.7784 32.6224 15.1764 33.6023C15.8041 33.7833 15.8604 34.5731 15.3412 35.4017C12.7386 39.5543 10.1529 42.5384 9.3175 45.5638C9.15516 46.1517 9.24073 46.7649 9.53876 47.221C9.83678 47.677 10.4328 47.975 11.3359 48.1286C12.239 48.2821 13.4311 48.2821 14.2687 47.7606C21.3463 43.3537 16.312 27.2219 17.6644 24.4358C18.8713 21.9495 21.27 19.8436 24.5054 17.6603C27.2762 15.7905 31.0415 15.7706 34.0669 16.2944C34.7033 16.4045 35.268 16.8182 35.6496 17.2697C36.4075 18.1667 36.3337 19.5275 36.0357 20.7286C35.1592 24.2611 30.4816 26.5987 24.765 29.3825C23.0209 30.2318 21.7396 30.8162 20.762 32.1663C19.7466 33.5687 20.0779 35.6297 20.3014 37.2079C20.6679 39.7952 25.0179 42.6919 28.1968 45.4148C29.2739 46.3374 30.608 46.6249 31.9582 46.7762C36.2675 47.2591 40.6866 43.6221 42.4251 41.0709C43.8625 38.9614 42.3573 36.3973 41.6823 35.1962C40.0815 32.3481 36.9478 30.5272 33.7869 28.4975C32.3812 27.5948 30.9241 27.0593 29.1224 27.3573C27.1381 27.6856 25.9526 29.3126 25.2752 30.7349C24.8444 31.6397 25.045 33.2004 25.492 34.415C27.0034 38.5218 31.2041 38.7906 34.8887 40.3755C35.8174 40.7749 36.7672 40.6058 37.3023 40.3077C37.8373 40.0097 37.9864 39.4137 38.0631 38.7341C38.1399 38.0545 38.1399 37.3095 37.7674 36.7021C36.6498 35.6478 35.2861 35.0382 34.0105 34.7379C33.3309 34.5866 32.5858 34.4376 31.8182 34.2841" stroke="#FFF06C" stroke-width="10.56" stroke-linecap="round"/>
<path d="M17.4937 30.8785C17.4937 30.7636 17.6086 30.4171 17.8976 29.9243C18.3016 29.6039 18.7683 29.428 19.2314 29.341C19.4648 29.3114 19.6946 29.3114 20.2797 29.6596" stroke="#0D0D0D" stroke-width="2" stroke-linecap="round"/>
<path d="M25.9937 28.5244C25.9937 28.4094 26.0511 28.1204 26.2531 27.7147C26.3976 27.5388 26.6275 27.4239 27.0619 27.3647C27.4964 27.3055 28.1284 27.3055 28.9538 27.4796" stroke="#0D0D0D" stroke-width="2" stroke-linecap="round"/>
<path d="M23.9937 33.5256C23.9937 33.7555 23.9937 35.1955 24.3384 37.1979C24.4679 37.95 25.3727 37.8788 25.8141 37.7926C26.4678 37.6649 26.7205 37.1265 26.9233 36.6634C27.1181 36.2187 27.1279 35.5037 27.0417 34.721C26.3757 33.8181 25.7367 33.1791 25.2743 32.9179C24.9844 32.8291 24.5822 32.8291 24.1678 32.8291" stroke="#0D0D0D" stroke-width="2" stroke-linecap="round"/>
<path d="M11.3034 17.6407C10.7822 16.4622 9.68455 14.2204 8.63291 12.1274C8.18502 11.236 7.79968 10.3835 7.66924 9.61638C7.64954 9.50047 7.84193 9.48737 7.98565 9.56045C8.7783 9.96344 9.42868 10.56 9.94636 10.8182C10.4808 11.0848 11.1047 11.3921 11.7733 11.6731C12.5083 11.9819 13.0743 12.2083 13.3179 12.2009C13.9465 12.1817 13.9112 10.9593 14.5422 9.07613C15.0496 7.56185 15.3035 6.76977 15.7941 5.41346C16.2521 4.14744 16.3937 3.70624 16.5229 3.50456C16.5815 3.41288 16.7413 3.44981 16.8904 3.55486C17.7042 4.12831 18.2315 5.51598 18.9239 6.51569C19.4026 7.20687 19.9632 8.04016 20.459 8.64793C20.8155 9.08499 21.086 9.4594 21.2817 9.65525C21.3789 9.75256 21.5298 9.77756 21.6841 9.72032C22.416 9.4488 22.7545 8.88755 23.7468 8.18314C24.4279 7.69968 25.0338 7.26356 25.58 6.91009C26.0818 6.58536 26.5405 6.48724 26.7128 6.4412C27.2065 6.30932 26.4112 7.64908 26.2073 8.68117C26.082 9.31533 25.9205 10.7653 25.6956 12.0707C25.5602 12.8567 25.519 13.6526 25.4583 14.3683C25.3928 14.657 25.3393 14.9289 25.3026 15.1961C25.2763 15.332 25.2344 15.4685 25.2232 15.8001" stroke="#FFDE09" stroke-width="2.8" stroke-linecap="round"/>
<path d="M10.9814 13.3771C11.4609 14.6931 12.5042 16.8154 12.804 17.0444C13.3672 17.4744 12.6073 15.2694 12.3619 14.4897C12.3035 14.3039 12.2767 14.0805 12.3365 14.0509C13.114 13.6655 13.6742 15.6049 14.1542 15.9341C14.3061 16.0383 14.3661 15.8226 14.3901 15.5733C14.4452 15.0001 14.3294 14.0331 14.3483 13.3725C14.3693 12.6362 15.2511 14.6559 15.3674 14.6707C17.0542 14.8863 15.7794 10.9731 15.7655 10.6967C15.687 9.13727 16.8313 15.1095 17.0273 15.3073C17.7469 16.0333 17.2333 11.2761 17.0986 9.37937C17.0826 9.15292 17.0663 8.89613 16.9948 8.36988C16.9234 7.84364 16.7915 7.0562 17.0713 8.24374C17.3512 9.43128 18.0467 12.6177 18.4813 14.4244C18.9159 16.2312 19.0684 16.5619 19.0096 15.6219C18.8111 12.4499 18.5819 10.1416 18.9576 10.2406C20.8157 10.7301 21.0716 14.6544 21.3916 15.1003C22.6322 16.829 20.9436 11.3475 21.1897 11.6482C21.5274 12.0608 21.9874 13.4845 22.6189 14.8212C23.2056 16.0627 23.2987 12.7252 23.5536 11.8946C23.8633 10.8852 23.5429 15.3199 23.4856 16.0762C23.3906 17.3306 24.1774 12.9097 24.7329 11.3458C25.0106 10.5638 24.9377 9.99661 24.7632 9.53472C24.6607 9.26359 23.1673 10.8681 21.3875 12.7357C20.234 13.9461 19.5396 14.8521 18.3625 15.6223C17.3664 16.2741 16.5035 16.2457 15.9178 16.4748C15.2412 16.7394 14.3862 17.0909 13.8848 17.3221C13.2821 17.5999 12.5485 17.8246 11.9802 17.9521C11.8714 17.9766 14.4942 17.695 17.964 17.13C19.6455 16.8563 21.1226 16.7811 22.3055 16.6644C23.0819 16.5511 23.6999 16.4799 24.0563 16.4693C24.2814 16.4483 24.5964 16.3956 25.1278 16.4047" stroke="#FFDE09" stroke-width="2.8" stroke-linecap="round"/>
<path d="M7.04736 8.05029L7.07933 8.24119" stroke="#C8E1FF" stroke-width="2.8" stroke-linecap="round"/>
<path d="M16.6841 1.72656L16.732 2.0129" stroke="#C8E1FF" stroke-width="2.8" stroke-linecap="round"/>
<path d="M27.8877 5.34473L27.9037 5.44017" stroke="#C8E1FF" stroke-width="2.8" stroke-linecap="round"/>
<path d="M17.1445 8.13506C16.9088 8.90404 16.7099 9.32085 16.4613 10.073C16.406 10.2402 16.3585 10.322 16.3518 10.4004C16.3204 10.7646 16.9366 11.0326 17.2657 11.2759C17.6076 11.4784 17.8479 11.6498 18.011 11.7661C18.1092 11.8361 18.2389 11.9286 18.4286 12.0145" stroke="#C8E1FF" stroke-width="1.4" stroke-linecap="round"/>
<path d="M17.313 8.10693C17.5426 8.2213 18.3856 8.69199 19.0063 9.04274C19.1062 9.09922 19.1669 9.19779 19.1882 9.31937C19.2769 9.82767 19.1231 10.2997 18.9104 10.98C18.8216 11.2544 18.7775 11.4556 18.7652 11.611C18.759 11.6893 18.7529 11.7665 18.6905 11.8554" stroke="#C8E1FF" stroke-width="1.4" stroke-linecap="round"/>
</svg>
