<svg width="49" height="50" viewBox="0 0 49 50" fill="none" xmlns="http://www.w3.org/2000/svg">
<path d="M16.014 20.0375C12.8576 18.2358 10.4599 16.7322 7.22005 16.6486C6.5006 16.6301 6.08891 17.3192 5.78412 17.8475C5.17821 18.8977 5.17679 21.2251 5.47481 24.0066C5.86781 27.6746 11.7784 28.3099 15.1764 29.2898C15.8041 29.4708 15.8604 30.2606 15.3412 31.0892C12.7386 35.2418 10.1529 38.2259 9.3175 41.2513C9.15516 41.8392 9.24073 42.4524 9.53876 42.9085C9.83678 43.3645 10.4328 43.6625 11.3359 43.8161C12.239 43.9696 13.4311 43.9696 14.2687 43.4481C21.3463 39.0412 16.312 22.9094 17.6644 20.1233C18.8713 17.637 21.27 15.5311 24.5054 13.3478C27.2762 11.478 31.0415 11.4581 34.0669 11.9819C34.7033 12.092 35.268 12.5057 35.6496 12.9572C36.4075 13.8542 36.3337 15.215 36.0357 16.4161C35.1592 19.9486 30.4816 22.2862 24.765 25.07C23.0209 25.9193 21.7396 26.5037 20.762 27.8538C19.7466 29.2562 20.0779 31.3172 20.3014 32.8954C20.6679 35.4827 25.0179 38.3794 28.1968 41.1023C29.2739 42.0249 30.608 42.3124 31.9582 42.4637C36.2675 42.9466 40.6866 39.3096 42.4251 36.7584C43.8625 34.6489 42.3573 32.0848 41.6823 30.8837C40.0815 28.0356 36.9478 26.2147 33.7869 24.185C32.3812 23.2823 30.9241 22.7468 29.1224 23.0448C27.1381 23.3731 25.9526 25.0001 25.2752 26.4224C24.8444 27.3272 25.045 28.8879 25.492 30.1025C27.0034 34.2093 31.2041 34.4781 34.8887 36.063C35.8174 36.4624 36.7672 36.2933 37.3023 35.9952C37.8373 35.6972 37.9864 35.1012 38.0631 34.4216C38.1399 33.742 38.1399 32.997 37.7674 32.3896C36.6498 31.3353 35.2861 30.7257 34.0105 30.4254C33.3309 30.2741 32.5858 30.1251 31.8182 29.9716" stroke="#FFF06C" stroke-width="10.56" stroke-linecap="round"/>
<path d="M17.4937 26.566C17.4937 26.4511 17.6086 26.1046 17.8976 25.6118C18.3016 25.2914 18.7683 25.1155 19.2314 25.0285C19.4648 24.9989 19.6946 24.9989 20.2797 25.3471" stroke="#0D0D0D" stroke-width="2" stroke-linecap="round"/>
<path d="M25.9937 24.2119C25.9937 24.0969 26.0511 23.8079 26.2531 23.4022C26.3976 23.2263 26.6275 23.1114 27.0619 23.0522C27.4964 22.993 28.1284 22.993 28.9538 23.1671" stroke="#0D0D0D" stroke-width="2" stroke-linecap="round"/>
<path d="M23.9937 29.2131C23.9937 29.443 23.9937 30.883 24.3384 32.8854C24.4679 33.6375 25.3727 33.5663 25.8141 33.4801C26.4678 33.3524 26.7205 32.814 26.9233 32.3509C27.1181 31.9062 27.1279 31.1912 27.0417 30.4085C26.3757 29.5056 25.7367 28.8666 25.2743 28.6054C24.9844 28.5166 24.5822 28.5166 24.1678 28.5166" stroke="#0D0D0D" stroke-width="2" stroke-linecap="round"/>
<path d="M11.3604 13.3476C11.5205 12.329 12.2815 10.01 12.8862 8.72706C13.4463 7.53847 14.3142 6.46304 15.2554 5.42215C16.139 4.44485 17.3422 3.96725 18.1832 3.59603C19.2867 3.134 20.3491 2.85065 22.1151 2.66694C23.262 2.6263 25.3298 2.59389 27.4602 2.56049" stroke="#AE6163" stroke-width="5.12" stroke-linecap="round"/>
<path d="M11.5001 13.7453C12.7781 13.8586 15.7176 13.6365 16.4495 13.4904C17.3393 13.3126 18.3695 12.8402 19.4307 12.3115C20.1886 11.9339 20.971 11.3779 22.5978 10.3523C23.4885 9.79071 24.2698 9.14722 24.9063 8.49249C25.5003 7.8814 26.065 7.2975 26.4548 6.55729C26.8917 5.72772 27.0513 4.88172 27.1961 4.16736C27.2319 3.99085 27.2132 3.81237 26.9283 3.88018C25.1388 4.30596 24.307 5.22877 23.2905 5.71344C22.4325 6.12253 21.707 6.78173 20.9358 7.21721C19.9219 7.78965 18.4986 8.65093 17.3895 9.27306C16.4189 9.79968 15.7579 10.1661 15.3618 10.3717C15.1842 10.4858 15.0543 10.6198 14.7871 10.76" stroke="#AE6163" stroke-width="5.12" stroke-linecap="round"/>
<path d="M17.979 4.25372C17.978 4.18739 17.9769 4.12105 17.9914 3.98711C18.0059 3.85317 18.036 3.65363 18.0654 3.34755" stroke="#EAAB74" stroke-width="0.32" stroke-linecap="round"/>
<path d="M21.6905 3.69299C21.7237 3.69247 21.7568 3.69195 21.8229 3.64115C21.889 3.59035 21.9869 3.48928 22.1852 3.18255" stroke="#EAAB74" stroke-width="0.32" stroke-linecap="round"/>
<path d="M25.1519 6.45361L26.358 6.43471" stroke="#EAAB74" stroke-width="0.32" stroke-linecap="round"/>
<path d="M20.9585 8.3291L21.6684 8.72012" stroke="#EAAB74" stroke-width="0.32" stroke-linecap="round"/>
<path d="M17.5288 7.57833C17.4635 7.64571 17.3982 7.71308 17.3156 7.79833C17.233 7.88357 17.135 7.98463 16.8331 8.09191" stroke="#EAAB74" stroke-width="0.32" stroke-linecap="round"/>
<path d="M15.3993 12.8396C15.4656 12.8386 15.5319 12.8375 15.6817 12.802C15.8314 12.7665 16.0626 12.6965 16.3996 12.5223" stroke="#EAAB74" stroke-width="0.32" stroke-linecap="round"/>
<path d="M13.0309 9.25737L12.6352 9.66572" stroke="#EAAB74" stroke-width="0.32" stroke-linecap="round"/>
</svg>
