<svg width="49" height="53" viewBox="0 0 49 53" fill="none" xmlns="http://www.w3.org/2000/svg">
<path d="M16.014 23.2504C12.8576 21.4487 10.4599 19.9451 7.22005 19.8615C6.5006 19.843 6.08891 20.5321 5.78412 21.0604C5.17821 22.1106 5.17679 24.438 5.47481 27.2195C5.86781 30.8875 11.7784 31.5228 15.1764 32.5027C15.8041 32.6837 15.8604 33.4735 15.3412 34.3021C12.7386 38.4547 10.1529 41.4388 9.3175 44.4642C9.15516 45.0521 9.24073 45.6653 9.53876 46.1214C9.83678 46.5774 10.4328 46.8754 11.3359 47.029C12.239 47.1825 13.4311 47.1825 14.2687 46.661C21.3463 42.2541 16.312 26.1223 17.6644 23.3362C18.8713 20.8499 21.27 18.7439 24.5054 16.5607C27.2762 14.6909 31.0415 14.671 34.0669 15.1948C34.7033 15.3049 35.268 15.7186 35.6496 16.1701C36.4075 17.0671 36.3337 18.4279 36.0357 19.629C35.1592 23.1615 30.4816 25.4991 24.765 28.2829C23.0209 29.1322 21.7396 29.7166 20.762 31.0667C19.7466 32.4691 20.0779 34.5301 20.3014 36.1083C20.6679 38.6956 25.0179 41.5923 28.1968 44.3152C29.2739 45.2378 30.608 45.5253 31.9582 45.6766C36.2675 46.1595 40.6866 42.5225 42.4251 39.9713C43.8625 37.8618 42.3573 35.2977 41.6823 34.0966C40.0815 31.2484 36.9478 29.4276 33.7869 27.3979C32.3812 26.4952 30.9241 25.9597 29.1224 26.2577C27.1381 26.586 25.9526 28.2129 25.2752 29.6353C24.8444 30.5401 25.045 32.1008 25.492 33.3154C27.0034 37.4221 31.2041 37.6909 34.8887 39.2759C35.8174 39.6753 36.7672 39.5062 37.3023 39.2081C37.8373 38.9101 37.9864 38.3141 38.0631 37.6345C38.1399 36.9549 38.1399 36.2099 37.7674 35.6025C36.6498 34.5482 35.2861 33.9386 34.0105 33.6383C33.3309 33.487 32.5858 33.338 31.8182 33.1845" stroke="#FFF06C" stroke-width="10.56" stroke-linecap="round"/>
<path d="M17.4941 29.7789C17.4941 29.664 17.6091 29.3174 17.8981 28.8247C18.3021 28.5043 18.7688 28.3284 19.2319 28.2413C19.4653 28.2117 19.6951 28.2117 20.2802 28.56" stroke="#0D0D0D" stroke-width="2" stroke-linecap="round"/>
<path d="M25.9941 27.4248C25.9941 27.3098 26.0516 27.0208 26.2536 26.6151C26.3981 26.4392 26.628 26.3243 27.0624 26.2651C27.4969 26.2059 28.1289 26.2059 28.9543 26.38" stroke="#0D0D0D" stroke-width="2" stroke-linecap="round"/>
<path d="M23.9941 32.426C23.9941 32.6558 23.9941 34.0959 24.3389 36.0983C24.4684 36.8504 25.3732 36.7792 25.8146 36.693C26.4683 36.5653 26.721 36.0269 26.9238 35.5638C27.1186 35.1191 27.1284 34.4041 27.0422 33.6214C26.3762 32.7185 25.7371 32.0795 25.2748 31.8183C24.9849 31.7295 24.5827 31.7295 24.1683 31.7295" stroke="#0D0D0D" stroke-width="2" stroke-linecap="round"/>
<path d="M18.1339 10.0537C16.3553 10.2152 15.5479 10.5369 14.5761 11.4662C13.8804 12.1315 13.9672 13.1253 13.9247 14.5202C13.8979 15.3994 14.6107 16.0002 15.2177 16.5872C15.7756 17.1267 16.5119 17.2555 18.0671 17.318C18.9519 17.3536 19.7486 16.935 20.4381 16.5101C20.7538 16.3156 21.2467 15.9249 21.8125 15.279C22.315 14.7053 22.3831 13.6619 22.343 12.6105C22.3062 11.6445 21.4142 11.1488 20.8072 10.9041C20.0488 10.5985 18.9473 10.702 16.243 10.7408C15.1994 10.7558 14.6556 11.3467 14.312 11.7303C13.7734 12.3317 13.603 13.1665 13.3996 13.8148C13.0836 14.8225 13.4379 16.4032 13.963 17.1529C14.6797 18.1762 15.5406 18.1466 16.2897 18.2079C17.44 18.3021 19.0614 18.2292 19.8105 18.027C20.5461 17.8285 21.1253 17.5007 21.7936 17.1978C22.5667 16.8475 23.0678 16.2478 23.3337 15.6007C23.6731 14.7746 23.4757 13.742 23.3349 12.9699C23.2095 12.2826 22.587 11.7971 22.122 11.2896C21.6475 10.7717 20.9699 10.6607 20.2615 10.4592C19.3091 10.3378 18.8234 10.1751 18.6808 10.1751C18.6984 10.1751 18.5404 10.3144 18.9896 9.9502" stroke="#FF0000" stroke-width="9" stroke-linecap="round"/>
<path d="M18.0078 7.53956C18.0078 7.01374 18.1247 5.98334 18.4624 4.51121C18.7888 3.08846 19.5109 2.34773 20.0248 1.96576C20.86 1.40851 21.6346 1.01901 22.3981 0.930488C22.8987 0.900391 23.629 0.900391 24.3814 0.900391" stroke="#62A565" stroke-width="1.8" stroke-linecap="round"/>
<path d="M24.3816 0.900391C24.3816 1.54749 24.3232 2.31321 24.1315 2.87532C23.9062 3.5361 23.6168 4.20227 23.3056 4.69047C22.9806 5.20037 21.0036 6.11612 19.8687 6.63884C19.7501 6.68355 19.6333 6.71276 19.4854 6.75702C19.3376 6.80128 19.1623 6.85971 18.8047 7.09695" stroke="#62A565" stroke-width="1.8" stroke-linecap="round"/>
<path d="M20.8408 2.58243C20.724 2.69928 20.138 3.84033 19.721 4.93756C19.2331 6.22174 21.4304 2.64262 21.5043 2.58243C22.1769 2.03464 21.0772 4.20416 21.0767 4.29356C21.0756 4.52732 21.7801 3.23838 22.5179 2.42486C23.1783 1.69674 22.3165 4.11563 22.3745 4.07359C22.9124 3.68347 23.0813 2.76213 23.362 2.49523C23.9232 1.96146 22.9663 3.90849 22.8043 4.028C22.6989 2.99937 22.9645 2.11149 23.1265 1.87602C23.2008 1.7574 23.2593 1.64055 23.585 1.43164" stroke="#62A565" stroke-width="1.8" stroke-linecap="round"/>
</svg>
