<svg width="49" height="47" viewBox="0 0 49 47" fill="none" xmlns="http://www.w3.org/2000/svg">
<path d="M16.014 17.35C12.8576 15.5483 10.4599 14.0447 7.22005 13.9611C6.5006 13.9426 6.08891 14.6317 5.78412 15.16C5.17821 16.2102 5.17679 18.5376 5.47481 21.3191C5.86781 24.9871 11.7784 25.6224 15.1764 26.6023C15.8041 26.7833 15.8604 27.5731 15.3412 28.4017C12.7386 32.5543 10.1529 35.5384 9.3175 38.5638C9.15516 39.1517 9.24073 39.7649 9.53876 40.221C9.83678 40.677 10.4328 40.975 11.3359 41.1286C12.239 41.2821 13.4311 41.2821 14.2687 40.7606C21.3463 36.3537 16.312 20.2219 17.6644 17.4358C18.8713 14.9495 21.27 12.8436 24.5054 10.6603C27.2762 8.79055 31.0415 8.77057 34.0669 9.29437C34.7033 9.40455 35.268 9.81817 35.6496 10.2697C36.4075 11.1667 36.3337 12.5275 36.0357 13.7286C35.1592 17.2611 30.4816 19.5987 24.765 22.3825C23.0209 23.2318 21.7396 23.8162 20.762 25.1663C19.7466 26.5687 20.0779 28.6297 20.3014 30.2079C20.6679 32.7952 25.0179 35.6919 28.1968 38.4148C29.2739 39.3374 30.608 39.6249 31.9582 39.7762C36.2675 40.2591 40.6866 36.6221 42.4251 34.0709C43.8625 31.9614 42.3573 29.3973 41.6823 28.1962C40.0815 25.3481 36.9478 23.5272 33.7869 21.4975C32.3812 20.5948 30.9241 20.0593 29.1224 20.3573C27.1381 20.6856 25.9526 22.3126 25.2752 23.7349C24.8444 24.6397 25.045 26.2004 25.492 27.415C27.0034 31.5218 31.2041 31.7906 34.8887 33.3755C35.8174 33.7749 36.7672 33.6058 37.3023 33.3077C37.8373 33.0097 37.9864 32.4137 38.0631 31.7341C38.1399 31.0545 38.1399 30.3095 37.7674 29.7021C36.6498 28.6478 35.2861 28.0382 34.0105 27.7379C33.3309 27.5866 32.5858 27.4376 31.8182 27.2841" stroke="#FFF06C" stroke-width="10.56" stroke-linecap="round"/>
<path d="M17.4937 23.8785C17.4937 23.7636 17.6086 23.4171 17.8976 22.9243C18.3016 22.6039 18.7683 22.428 19.2314 22.341C19.4648 22.3114 19.6946 22.3114 20.2797 22.6596" stroke="#0D0D0D" stroke-width="2" stroke-linecap="round"/>
<path d="M25.9937 21.5244C25.9937 21.4094 26.0511 21.1204 26.2531 20.7147C26.3976 20.5388 26.6275 20.4239 27.0619 20.3647C27.4964 20.3055 28.1284 20.3055 28.9538 20.4796" stroke="#0D0D0D" stroke-width="2" stroke-linecap="round"/>
<path d="M23.9937 26.5256C23.9937 26.7555 23.9937 28.1955 24.3384 30.1979C24.4679 30.95 25.3727 30.8788 25.8141 30.7926C26.4678 30.6649 26.7205 30.1265 26.9233 29.6634C27.1181 29.2187 27.1279 28.5037 27.0417 27.721C26.3757 26.8181 25.7367 26.1791 25.2743 25.9179C24.9844 25.8291 24.5822 25.8291 24.1678 25.8291" stroke="#0D0D0D" stroke-width="2" stroke-linecap="round"/>
<path d="M18.1303 3.50482C17.0198 3.62381 14.5692 3.91512 13.3475 4.60634C12.0319 5.35072 11.6553 7.33003 11.6298 8.4377C11.6003 9.71559 12.4357 11.3001 13.1783 11.853C13.981 12.4506 15.5497 13.0281 18.0936 13.1273C22.2939 13.291 23.3936 11.3209 24.5639 10.531C25.2894 10.0413 25.837 9.27778 26.2078 8.58216C26.9341 7.21982 25.5576 5.13129 24.9361 4.41128C24.3282 3.70705 23.5042 3.29534 22.396 2.9182C21.2015 2.51163 20.2827 2.68596 18.8 2.86979C16.8655 3.10965 15.5185 3.78278 15.1598 4.09236C14.8012 4.40194 14.5037 4.75187 14.3377 5.17612C13.9572 6.14823 14.5618 7.57885 15.3318 8.89395C15.8296 9.74413 16.3741 10.1942 16.7664 10.3412C16.9568 10.4126 17.1709 10.3224 17.32 10.149C17.9797 9.38181 17.5403 8.09866 17.4591 6.69347C17.4404 6.36859 17.4183 6.10147 17.5131 5.9377C17.608 5.77393 17.8118 5.72223 17.9936 5.78458C18.9584 6.11541 19.7366 8.1266 20.3319 9.27153C20.6768 9.93485 21.1117 6.43334 21.4129 5.2204C22.1165 5.83328 22.5821 6.37261 22.8662 6.73773C22.9966 6.92486 23.0993 7.11577 23.2443 7.46688" stroke="#FF7B00" stroke-width="5" stroke-linecap="round"/>
<path d="M19.8338 2.00924C19.7788 2.05671 19.7238 2.10417 19.3341 2.42139C18.9443 2.73861 18.2215 3.32415 17.7941 3.67326C17.3668 4.02237 17.2568 4.11729 16.8814 4.38314" stroke="#0B7F28" stroke-width="0.5" stroke-linecap="round"/>
<path d="M16.708 2.49756C17.4452 2.61319 18.4017 2.91286 19.1544 3.07738C19.4769 3.14789 19.7416 3.25036 19.992 3.37269C20.124 3.42452 20.2659 3.45554 20.7226 3.51031" stroke="#0B7F28" stroke-width="0.5" stroke-linecap="round"/>
<path d="M18.3999 1.56055C18.4474 1.61553 18.4948 1.67052 18.6151 2.07671C18.7354 2.48289 18.9272 3.2386 19.1247 4.01721" stroke="#0B7F28" stroke-width="0.5" stroke-linecap="round"/>
<path d="M18.6846 9.36084L19.0817 9.44765" stroke="#0D0D0D" stroke-width="0.3" stroke-linecap="round"/>
<path d="M12.6382 7.70605L12.7276 8.05851" stroke="#0D0D0D" stroke-width="0.3" stroke-linecap="round"/>
<path d="M23.1411 5.51611L23.4067 5.82386" stroke="#0D0D0D" stroke-width="0.3" stroke-linecap="round"/>
<path d="M23.8901 9.91602L23.9795 10.2685" stroke="#0D0D0D" stroke-width="0.3" stroke-linecap="round"/>
<path d="M15.4336 12.8114L15.6967 12.3696" stroke="#0D0D0D" stroke-width="0.3" stroke-linecap="round"/>
</svg>
