<svg width="49" height="56" viewBox="0 0 49 56" fill="none" xmlns="http://www.w3.org/2000/svg">
<path d="M16.014 26.35C12.8576 24.5483 10.4599 23.0447 7.22005 22.9611C6.5006 22.9426 6.08891 23.6317 5.78412 24.16C5.17821 25.2102 5.17679 27.5376 5.47481 30.3191C5.86781 33.9871 11.7784 34.6224 15.1764 35.6023C15.8041 35.7833 15.8604 36.5731 15.3412 37.4017C12.7386 41.5543 10.1529 44.5384 9.3175 47.5638C9.15516 48.1517 9.24073 48.7649 9.53876 49.221C9.83678 49.677 10.4328 49.975 11.3359 50.1286C12.239 50.2821 13.4311 50.2821 14.2687 49.7606C21.3463 45.3537 16.312 29.2219 17.6644 26.4358C18.8713 23.9495 21.27 21.8436 24.5054 19.6603C27.2762 17.7905 31.0415 17.7706 34.0669 18.2944C34.7033 18.4045 35.268 18.8182 35.6496 19.2697C36.4075 20.1667 36.3337 21.5275 36.0357 22.7286C35.1592 26.2611 30.4816 28.5987 24.765 31.3825C23.0209 32.2318 21.7396 32.8162 20.762 34.1663C19.7466 35.5687 20.0779 37.6297 20.3014 39.2079C20.6679 41.7952 25.0179 44.6919 28.1968 47.4148C29.2739 48.3374 30.608 48.6249 31.9582 48.7762C36.2675 49.2591 40.6866 45.6221 42.4251 43.0709C43.8625 40.9614 42.3573 38.3973 41.6823 37.1962C40.0815 34.3481 36.9478 32.5272 33.7869 30.4975C32.3812 29.5948 30.9241 29.0593 29.1224 29.3573C27.1381 29.6856 25.9526 31.3126 25.2752 32.7349C24.8444 33.6397 25.045 35.2004 25.492 36.415C27.0034 40.5218 31.2041 40.7906 34.8887 42.3755C35.8174 42.7749 36.7672 42.6058 37.3023 42.3077C37.8373 42.0097 37.9864 41.4137 38.0631 40.7341C38.1399 40.0545 38.1399 39.3095 37.7674 38.7021C36.6498 37.6478 35.2861 37.0382 34.0105 36.7379C33.3309 36.5866 32.5858 36.4376 31.8182 36.2841" stroke="#FFF06C" stroke-width="10.56" stroke-linecap="round"/>
<path d="M17.4937 32.8785C17.4937 32.7636 17.6086 32.4171 17.8976 31.9243C18.3016 31.6039 18.7683 31.428 19.2314 31.341C19.4648 31.3114 19.6946 31.3114 20.2797 31.6596" stroke="#0D0D0D" stroke-width="2" stroke-linecap="round"/>
<path d="M25.9937 30.5244C25.9937 30.4094 26.0511 30.1204 26.2531 29.7147C26.3976 29.5388 26.6275 29.4239 27.0619 29.3647C27.4964 29.3055 28.1284 29.3055 28.9538 29.4796" stroke="#0D0D0D" stroke-width="2" stroke-linecap="round"/>
<path d="M23.9937 35.5256C23.9937 35.7555 23.9937 37.1955 24.3384 39.1979C24.4679 39.95 25.3727 39.8788 25.8141 39.7926C26.4678 39.6649 26.7205 39.1265 26.9233 38.6634C27.1181 38.2187 27.1279 37.5037 27.0417 36.721C26.3757 35.8181 25.7367 35.1791 25.2743 34.9179C24.9844 34.8291 24.5822 34.8291 24.1678 34.8291" stroke="#0D0D0D" stroke-width="2" stroke-linecap="round"/>
<path d="M22.6829 6.88734C21.7254 7.06173 20.8284 7.34045 19.0158 8.42067C17.5837 9.2741 15.2055 10.9001 13.8831 11.7991C11.9614 13.1055 11.3474 13.7619 10.5615 14.5296C9.61029 15.4588 9.42616 16.1518 9.10854 17.1273C9.04861 17.3113 9.24459 17.3686 9.44107 17.3467C10.3394 17.2466 11.1879 16.9849 11.9992 16.6763C12.7139 16.4044 14.2604 15.2495 15.4062 14.3379C16.3604 13.5787 16.8312 13.1606 17.3555 12.8043C17.9912 12.3724 18.4318 11.8601 19.039 11.3267C19.7054 10.7413 20.4152 10.021 20.9798 9.45242C21.4554 8.9735 21.8212 8.53483 22.1641 8.05629C22.2625 7.94068 22.3761 7.83285 22.4884 7.62913C22.6006 7.42541 22.7081 7.12907 22.6193 6.75137" stroke="#FFA24F" stroke-width="4.5" stroke-linecap="round"/>
<path d="M26.4568 10.716C26.3696 11.0592 25.6469 13.2606 24.7551 14.8932C24.147 16.0064 22.3394 17.3066 21.4396 18.0195C20.7879 18.5358 20.3367 18.8812 19.2223 19.6225C18.4028 20.1675 17.7866 20.5148 17.2188 20.8367C16.3485 21.3301 15.431 21.6182 14.7533 21.8246C14.0994 21.9651 13.4727 22.0371 12.861 22.0613C12.7092 22.0627 12.5536 22.0808 12.3933 22.0995" stroke="#FFA24F" stroke-width="4.5" stroke-linecap="round"/>
<path d="M9.13103 19.6439C9.37735 19.5842 10.0338 19.2216 11.8719 18.3482C12.8162 17.8995 13.5631 17.3787 14.221 17.0697C14.904 16.7489 15.5513 16.2549 16.1381 15.8834C16.7429 15.5007 17.5533 14.987 18.1864 14.594C18.7299 14.2565 19.2738 13.8791 20.0403 13.4232C20.8318 12.9525 21.3843 12.3119 22.0342 11.8696C23.1084 11.1384 23.424 10.5294 23.8896 10.0767C24.3895 9.59062 24.859 9.16883 25.4563 8.55677C25.9956 8.11106 26.294 7.80494 26.5383 7.64967C26.648 7.55735 26.7287 7.43758 26.8118 7.31418" stroke="#EC0808" stroke-width="6.3" stroke-linecap="round"/>
<path d="M29.1521 6.3932C28.3088 6.08736 26.73 5.64187 26.522 5.83309C26.0811 6.23851 25.8578 6.62956 25.6531 7.0472C25.4859 7.38832 25.4286 7.69448 25.484 7.98056C25.6896 9.04254 26.211 9.36818 26.2995 9.7744C26.3381 9.95142 26.2437 10.1078 26.1326 10.2382C25.8535 10.5656 25.1819 10.684 24.6245 10.8037C23.6479 11.0134 23.0311 10.6549 22.0535 10.6725C21.0807 10.6901 20.7033 11.4112 20.1676 12.147C19.497 13.0681 19.8291 13.5776 19.7671 14.1628C19.686 14.9268 19.1323 15.5061 18.7413 15.7596C18.2205 16.0974 17.4516 16.0742 16.5756 15.9285C15.7966 15.7989 15.15 15.518 14.7527 15.5234C14.1365 15.5319 13.0853 16.2619 12.4538 16.785C11.9241 17.2237 12.1905 18.9946 12.3556 19.8826C12.4379 20.3258 12.057 20.6211 11.8925 20.7215C11.4927 20.8233 11.0046 20.7535 10.3183 20.5367C9.78853 20.3554 8.89018 20.0297 7.87175 19.5961" stroke="#FF0004" stroke-width="0.54" stroke-linecap="round"/>
<path d="M27.6201 5.13131C27.8144 5.71387 27.8771 6.24871 27.7333 6.91241C27.6211 7.43047 27.3928 7.76467 27.2057 7.89928C26.4785 8.42246 25.5011 8.38389 25.1145 8.44649C24.5246 8.54202 23.6994 8.75471 23.2036 9.02571C22.7394 9.27941 22.3182 9.90179 22.072 10.5498C21.9299 10.9239 22.0413 11.4262 22.087 12.0107C22.1156 12.3767 21.841 13.1042 21.4988 13.6372C21.2254 14.0631 20.797 14.1002 20.388 14.283C20.014 14.4502 19.2369 14.2826 18.624 14.2535C17.9849 14.2232 17.5705 14.1494 16.9598 14.1842C16.3005 14.2219 15.6463 14.6246 15.0227 15.1275C14.4397 15.5977 14.3246 16.3721 13.7661 17.8229C13.5249 18.4493 13.0045 18.717 12.6212 18.8892C12.2109 19.0735 11.7544 19.0992 11.1269 19.1494C10.4879 19.1109 9.90406 19.0698 9.37211 19.0909C9.25331 19.0912 9.17166 19.0827 8.87626 19.1258" stroke="#FFF200" stroke-width="0.54" stroke-linecap="round"/>
<path d="M10.8669 12.9782C10.7636 13.1721 10.6603 13.3659 10.566 13.5334C10.4717 13.701 10.3895 13.8364 10.3049 13.9759" stroke="#ED7003" stroke-width="0.54" stroke-linecap="round"/>
<path d="M13.3345 11.9707L13.0457 12.7671" stroke="#ED7003" stroke-width="0.54" stroke-linecap="round"/>
<path d="M15.6016 10.6904L15.4411 11.1329" stroke="#ED7003" stroke-width="0.54" stroke-linecap="round"/>
<path d="M18.189 8.5249L17.7718 9.67523" stroke="#ED7003" stroke-width="0.54" stroke-linecap="round"/>
<path d="M20.9541 7.52539L20.7937 7.96782" stroke="#ED7003" stroke-width="0.54" stroke-linecap="round"/>
<path d="M14.0557 22.2412L13.8663 22.7633" stroke="#ED7003" stroke-width="0.54" stroke-linecap="round"/>
<path d="M17.6504 20.4731L17.3853 21.204" stroke="#ED7003" stroke-width="0.54" stroke-linecap="round"/>
<path d="M20.3535 19.2085L20.0885 19.9394" stroke="#ED7003" stroke-width="0.54" stroke-linecap="round"/>
<path d="M22.8662 17.166L22.7434 17.8304" stroke="#ED7003" stroke-width="0.54" stroke-linecap="round"/>
</svg>
