<svg width="49" height="53" viewBox="0 0 49 53" fill="none" xmlns="http://www.w3.org/2000/svg">
<path d="M16.014 23.0121C12.8576 21.2104 10.4599 19.7068 7.22005 19.6232C6.5006 19.6047 6.08891 20.2938 5.78412 20.8221C5.17821 21.8724 5.17679 24.1997 5.47481 26.9813C5.86781 30.6492 11.7784 31.2845 15.1764 32.2644C15.8041 32.4454 15.8604 33.2352 15.3412 34.0638C12.7386 38.2165 10.1529 41.2005 9.3175 44.2259C9.15516 44.8138 9.24073 45.427 9.53876 45.8831C9.83678 46.3391 10.4328 46.6372 11.3359 46.7907C12.239 46.9442 13.4311 46.9442 14.2687 46.4227C21.3463 42.0158 16.312 25.884 17.6644 23.0979C18.8713 20.6116 21.27 18.5057 24.5054 16.3224C27.2762 14.4527 31.0415 14.4327 34.0669 14.9565C34.7033 15.0667 35.268 15.4803 35.6496 15.9318C36.4075 16.8288 36.3337 18.1896 36.0357 19.3907C35.1592 22.9232 30.4816 25.2608 24.765 28.0446C23.0209 28.8939 21.7396 29.4783 20.762 30.8284C19.7466 32.2308 20.0779 34.2918 20.3014 35.87C20.6679 38.4573 25.0179 41.354 28.1968 44.0769C29.2739 44.9995 30.608 45.287 31.9582 45.4383C36.2675 45.9212 40.6866 42.2842 42.4251 39.733C43.8625 37.6235 42.3573 35.0594 41.6823 33.8583C40.0815 31.0102 36.9478 29.1893 33.7869 27.1596C32.3812 26.2569 30.9241 25.7214 29.1224 26.0194C27.1381 26.3477 25.9526 27.9747 25.2752 29.397C24.8444 30.3018 25.045 31.8625 25.492 33.0771C27.0034 37.1839 31.2041 37.4527 34.8887 39.0376C35.8174 39.4371 36.7672 39.2679 37.3023 38.9699C37.8373 38.6718 37.9864 38.0758 38.0631 37.3962C38.1399 36.7166 38.1399 35.9716 37.7674 35.3642C36.6498 34.3099 35.2861 33.7003 34.0105 33.4C33.3309 33.2487 32.5858 33.0997 31.8182 32.9462" stroke="#FFF06C" stroke-width="10.56" stroke-linecap="round"/>
<path d="M17.4937 29.5406C17.4937 29.4257 17.6086 29.0792 17.8976 28.5864C18.3016 28.266 18.7683 28.0901 19.2314 28.0031C19.4648 27.9735 19.6946 27.9735 20.2797 28.3217" stroke="#0D0D0D" stroke-width="2" stroke-linecap="round"/>
<path d="M25.9937 27.1865C25.9937 27.0716 26.0511 26.7825 26.2531 26.3768C26.3976 26.2009 26.6275 26.086 27.0619 26.0268C27.4964 25.9676 28.1284 25.9676 28.9538 26.1417" stroke="#0D0D0D" stroke-width="2" stroke-linecap="round"/>
<path d="M23.9937 32.1877C23.9937 32.4176 23.9937 33.8576 24.3384 35.86C24.4679 36.6121 25.3727 36.5409 25.8141 36.4547C26.4678 36.327 26.7205 35.7887 26.9233 35.3255C27.1181 34.8808 27.1279 34.1658 27.0417 33.3831C26.3757 32.4802 25.7367 31.8412 25.2743 31.58C24.9844 31.4912 24.5822 31.4912 24.1678 31.4912" stroke="#0D0D0D" stroke-width="2" stroke-linecap="round"/>
<path d="M24.6288 10.0998C24.6614 8.61218 24.9258 6.47149 25.1775 5.92281C25.4493 5.33034 25.7247 4.92535 26.0339 4.48825C26.4781 3.86042 26.9863 3.52114 27.6526 3.04492C28.1973 2.65562 29.0338 2.49131 29.5734 2.33295C30.2537 2.13328 32.4048 2.24213 34.0208 2.78201C34.7915 3.03948 35.3959 3.56888 35.813 3.98151C36.1763 4.34085 36.3751 4.90271 36.4456 5.38284C36.5108 5.82661 36.6921 6.29421 36.7794 6.89274C36.8549 7.41037 36.7896 8.86824 36.4743 9.93316C36.3192 10.4574 35.7865 10.6972 35.2727 10.8962C34.9415 11.0244 34.6024 11.0566 33.3262 11.0399C32.1819 11.0249 30.0349 10.8202 28.8524 10.7056C27.5129 10.5758 27.2608 10.4286 27.059 10.322C26.8211 10.1964 26.7203 9.91566 26.6465 9.67428C26.4153 8.9184 27.1326 7.5076 27.6265 6.92066C27.9812 6.49921 28.4514 6.07612 28.8889 5.85767C29.3161 5.64442 30.4092 5.48603 31.9728 5.5357C32.57 5.55467 33.0253 5.73245 33.7719 6.11612C34.0604 6.26438 34.2051 6.50391 34.3181 6.74823C34.4432 7.01849 34.3631 7.56483 34.2802 8.14983C34.248 8.37703 34.141 8.44427 33.9916 8.51235C33.6412 8.67197 33.3044 8.72473 33.0401 8.75739C32.6741 8.8026 31.061 8.6624 28.8565 8.44483C28.047 8.36495 27.8685 8.31838 27.7422 8.23043C27.6159 8.14249 27.5479 8.00725 27.5168 7.88581C27.4856 7.76437 27.4934 7.66083 27.5401 7.55863C27.8371 6.90858 28.9792 6.37911 29.5529 6.118C30.2406 5.80502 31.3389 5.05715 32.2032 4.76535C32.9254 4.52152 33.3773 4.55039 33.7971 4.56804C34.2831 4.58846 34.7619 5.0201 35.221 5.38301C36.0942 6.07329 36.3411 6.76801 36.5062 7.2016C36.6615 7.60942 36.7177 8.05829 36.7656 8.48309C36.8688 9.39991 36.6783 10.712 36.5949 10.7724C36.1813 11.072 36.898 9.86392 37.0737 9.45587C37.253 9.03944 37.4147 8.5885 37.5554 7.94276C37.8685 6.50505 37.4494 6.04015 37.3235 5.60951C37.1806 5.12052 36.7339 4.7245 36.3357 4.41741C35.9378 4.11059 35.5358 3.87121 35.1267 3.70845C34.7245 3.54838 34.2247 3.48274 33.7826 3.59279C33.5837 3.64231 33.604 4.00891 33.615 4.2093C33.6447 4.74991 34.3105 5.06516 34.8197 5.30129C35.5595 5.64435 36.021 6.11301 36.4548 6.6452C36.8561 7.13747 36.8942 7.80805 37.1078 8.46849C37.2628 8.9477 37.2202 9.43687 37.2669 9.86158C37.3897 10.9785 37.0345 12.6325 36.822 12.6691C36.1223 12.7894 35.0614 12.6686 34.4961 12.666C34.3249 12.6653 34.1159 12.6766 32.8175 12.5928C31.5191 12.5089 29.1377 12.3306 27.8621 12.196C26.2587 12.0268 25.8769 11.7188 25.4205 11.4878C25.32 11.4144 25.2481 11.3309 25.1464 11.2831C25.0447 11.2352 24.9153 11.2255 24.7819 11.2155" stroke="#8B4A2A" stroke-width="4.48" stroke-linecap="round"/>
<path d="M31.5546 3.99293C30.9361 3.86772 30.0272 4.05995 29.4412 4.33315C28.7485 4.65607 28.2944 4.72054 27.9 5.05817C27.774 5.16598 27.8175 5.44363 27.8852 5.5824C28.133 6.09032 30.3072 6.02923 31.4796 6.02555C31.9322 6.02412 32.2295 5.4917 32.5443 5.15953C32.8383 4.84923 32.7821 4.45402 32.743 4.28032C32.6032 3.65848 31.177 4.14764 30.7415 4.33865C30.5221 4.46617 30.3001 4.60809 30.0807 4.736C29.9706 4.79402 29.8632 4.83803 29.7525 4.88338" stroke="#A99124" stroke-width="4.48" stroke-linecap="round"/>
<path d="M22.7228 13.2641C22.6708 13.2602 22.54 13.2504 22.3775 13.3036C22.2972 13.3299 22.3093 13.4946 22.3544 13.5915C22.5363 13.9829 23.1681 13.9837 24.5433 14.1006C25.6865 14.1977 27.1679 14.1787 28.7177 14.2547C29.8522 14.3104 31.1717 14.3201 32.1333 14.3521C32.3852 14.3604 32.6212 14.3494 33.6529 14.4132C34.6846 14.477 36.5049 14.6133 37.4956 14.6744C38.5923 14.7174 38.8054 14.7064 39.016 14.7091C39.1226 14.704 39.2286 14.6858 39.4224 14.5941" stroke="#4B3429" stroke-width="1.792" stroke-linecap="round"/>
<path d="M22.5278 10.6262C22.7331 10.6653 23.1439 10.7727 23.5295 10.8688C23.8689 10.9533 24.2771 11.0207 24.6814 11.0513C25.1702 11.0883 25.3809 10.9696 25.7381 10.9316C25.819 10.923 25.9339 10.9294 26.0381 10.9442C26.5293 11.0142 26.7307 11.1372 27.039 11.2228C27.1862 11.2636 27.3738 11.3007 27.5805 11.3306C27.7756 11.3588 28.0511 11.3422 28.4451 11.3261C28.8957 11.3076 29.2867 11.2717 29.6918 11.2922C30.2137 11.3186 30.3982 11.4743 30.6542 11.5607C30.7816 11.6036 31.0674 11.6349 31.3009 11.6596C31.7136 11.7034 32.0113 11.6101 32.7096 11.5451C32.987 11.5193 33.2751 11.5318 33.5345 11.556C34.0452 11.6036 34.3084 11.7191 34.6945 11.8082C34.8755 11.8499 35.1087 11.8801 35.316 11.9028C35.7693 11.9527 36.0268 11.8533 36.3442 11.8171C36.5194 11.7971 36.6878 11.778 36.935 11.7868C37.5378 11.8085 37.9302 11.9521 38.3713 12.0214C38.4673 12.0364 38.5793 12.0347 38.672 12.0297C39.0553 11.9842 39.3994 11.9428 39.5581 11.9164C39.6381 11.9031 39.7168 11.89 39.9564 11.8597" stroke="#FCFCFC" stroke-width="4.48" stroke-linecap="round"/>
<path d="M28.5579 4.08444L28.0717 4.97945" stroke="#A66B38" stroke-width="0.224" stroke-linecap="round"/>
<path d="M30.3827 4.59331C30.3572 4.72971 30.3316 4.86611 30.3155 4.97458C30.2995 5.08306 30.2938 5.15947 30.2879 5.2382" stroke="#A66B38" stroke-width="0.224" stroke-linecap="round"/>
<path d="M33.0469 4.4668C33.0457 4.48208 33.0446 4.49736 33.1042 4.62501C33.1638 4.75265 33.2842 4.99219 33.4047 5.28531" stroke="#A66B38" stroke-width="0.224" stroke-linecap="round"/>
<path d="M32.3198 6.08941L32.2318 6.64167" stroke="#A66B38" stroke-width="0.224" stroke-linecap="round"/>
<path d="M28.748 6.52002L29.3501 6.56511" stroke="#A66B38" stroke-width="0.224" stroke-linecap="round"/>
<path d="M29.2906 3.62684C29.5431 3.53817 29.7957 3.44951 29.9569 3.39848C30.1181 3.34745 30.1804 3.33675 30.2507 3.3341C30.321 3.33144 30.3974 3.33717 30.4761 3.34306" stroke="#A66B38" stroke-width="0.224" stroke-linecap="round"/>
<path d="M31.7719 4.69732C31.744 4.86428 31.7161 5.03125 31.6989 5.15547C31.6817 5.27969 31.676 5.3561 31.6701 5.43483" stroke="#A66B38" stroke-width="0.224" stroke-linecap="round"/>
<path d="M27.1185 5.8758C27.2701 5.85981 27.4217 5.84382 27.5625 5.81977C27.7033 5.79572 27.8287 5.7641 27.9278 5.74356C28.027 5.72301 28.096 5.71451 28.1701 5.66455" stroke="#A66B38" stroke-width="0.224" stroke-linecap="round"/>
<path d="M31.1665 6.59305C31.0863 6.7511 31.0061 6.90916 30.9492 7.01676C30.8922 7.12436 30.861 7.17671 30.836 7.23035C30.8111 7.284 30.7934 7.33737 30.7752 7.39235" stroke="#A66B38" stroke-width="0.224" stroke-linecap="round"/>
</svg>
