<svg width="49" height="53" viewBox="0 0 49 53" fill="none" xmlns="http://www.w3.org/2000/svg">
<path d="M16.2337 23.35C13.0774 21.5483 10.6796 20.0447 7.43978 19.9611C6.72033 19.9426 6.30864 20.6317 6.00384 21.16C5.39794 22.2102 5.39651 24.5376 5.69454 27.3191C6.08753 30.9871 11.9982 31.6224 15.3961 32.6023C16.0238 32.7833 16.0802 33.5731 15.5609 34.4017C12.9584 38.5543 10.3726 41.5384 9.53722 44.5638C9.37489 45.1517 9.46046 45.7649 9.75848 46.221C10.0565 46.677 10.6526 46.975 11.5557 47.1286C12.4587 47.2821 13.6508 47.2821 14.4885 46.7606C21.5661 42.3537 16.5317 26.2219 17.8841 23.4358C19.091 20.9495 21.4897 18.8436 24.7251 16.6603C27.4959 14.7905 31.2613 14.7706 34.2866 15.2944C34.923 15.4045 35.4878 15.8182 35.8693 16.2697C36.6272 17.1667 36.5534 18.5275 36.2554 19.7286C35.3789 23.2611 30.7013 25.5987 24.9847 28.3825C23.2407 29.2318 21.9593 29.8162 20.9817 31.1663C19.9663 32.5687 20.2976 34.6297 20.5212 36.2079C20.8876 38.7952 25.2376 41.6919 28.4165 44.4148C29.4936 45.3374 30.8278 45.6249 32.1779 45.7762C36.4872 46.2591 40.9063 42.6221 42.6448 40.0709C44.0822 37.9614 42.5771 35.3973 41.902 34.1962C40.3012 31.3481 37.1675 29.5272 34.0067 27.4975C32.601 26.5948 31.1438 26.0593 29.3422 26.3573C27.3578 26.6856 26.1723 28.3126 25.495 29.7349C25.0641 30.6397 25.2647 32.2004 25.7117 33.415C27.2231 37.5218 31.4238 37.7906 35.1084 39.3755C36.0371 39.7749 36.9869 39.6058 37.522 39.3077C38.0571 39.0097 38.2061 38.4137 38.2828 37.7341C38.3596 37.0545 38.3596 36.3095 37.9871 35.7021C36.8695 34.6478 35.5058 34.0382 34.2302 33.7379C33.5506 33.5866 32.8055 33.4376 32.0379 33.2841" stroke="#FFF06C" stroke-width="10.56" stroke-linecap="round"/>
<path d="M17.7134 29.8785C17.7134 29.7636 17.8283 29.4171 18.1174 28.9243C18.5213 28.6039 18.988 28.428 19.4512 28.341C19.6845 28.3114 19.9143 28.3114 20.4994 28.6596" stroke="#0D0D0D" stroke-width="2" stroke-linecap="round"/>
<path d="M26.2134 27.5244C26.2134 27.4094 26.2708 27.1204 26.4728 26.7147C26.6174 26.5388 26.8472 26.4239 27.2816 26.3647C27.7161 26.3055 28.3482 26.3055 29.1735 26.4796" stroke="#0D0D0D" stroke-width="2" stroke-linecap="round"/>
<path d="M24.2134 32.5256C24.2134 32.7555 24.2134 34.1955 24.5581 36.1979C24.6876 36.95 25.5925 36.8788 26.0339 36.7926C26.6876 36.6649 26.9402 36.1265 27.1431 35.6634C27.3378 35.2187 27.3476 34.5037 27.2615 33.721C26.5954 32.8181 25.9564 32.1791 25.4941 31.9179C25.2042 31.8291 24.8019 31.8291 24.3875 31.8291" stroke="#0D0D0D" stroke-width="2" stroke-linecap="round"/>
<path d="M7.45264 10.2238C7.45264 9.67691 8.12411 6.97833 8.97616 4.40183C9.10299 4.0183 9.31444 3.95164 9.48485 3.97135C10.3482 4.07122 10.8837 5.21827 11.8153 6.34056C12.5269 7.19798 13.1296 8.01605 14.0605 8.61121C14.9848 9.20218 16.2237 8.61376 16.9638 8.46561C20.0075 7.85635 24.4072 8.31617 24.7035 8.21126C25.4408 7.95018 26.0553 6.12374 26.7808 5.03324C26.9882 4.72153 27.2902 4.46033 27.5648 4.185C27.6945 4.05507 27.8815 4.03558 28.0519 4.05593C28.9278 4.16051 29.9137 5.59725 30.7225 6.49063C31.0608 6.78757 31.3596 7.08515 31.6134 7.40245C31.7412 7.55188 31.8671 7.67778 31.9968 7.93466" stroke="#CEB6A1" stroke-width="4" stroke-linecap="round"/>
<path d="M7.57976 11.7496C6.39452 12.0879 5.38223 12.7619 4.65672 13.5484C4.05119 14.2049 4.06219 15.0942 4.03993 15.8585C4.00956 16.9016 4.77944 17.7241 5.43628 18.4445C6.19314 19.2747 8.24614 19.6317 9.46253 19.8034C10.1211 19.8963 12.5611 20.0157 15.8446 19.9948C17.4088 19.9848 18.0053 19.8886 19.1632 19.8256C21.6257 19.6918 23.3897 19.4651 23.77 19.4015C25.405 19.1281 28.4664 18.7033 30.2106 18.3428C31.7943 18.0154 32.8411 17.2205 33.6678 16.6482C34.7046 15.9304 35.0463 15.0586 35.3871 14.2962C35.7353 13.5173 35.5575 12.3498 35.115 11.3503C34.6724 10.8645 34.2871 10.4791 33.9914 10.2464C33.8216 10.1396 33.6118 10.0557 33.0141 9.71484" stroke="#CEB6A1" stroke-width="4" stroke-linecap="round"/>
<path d="M24.8594 6.83848C25.0521 6.3547 25.5719 5.51077 25.9126 4.99098C26.244 4.48541 26.6095 4.01759 26.9186 3.54695C27.2731 3.00709 27.7776 2.39591 28.1675 2.06934C28.6438 1.67031 29.1735 3.10454 29.5141 3.54354C29.8662 3.99715 30.1138 4.56463 30.4875 5.01969C30.9435 5.57484 31.1845 6.31674 31.4775 6.83653C31.8016 7.48481 32.1267 8.13504 32.2401 8.39396C32.2893 8.5244 32.3214 8.65288 32.5492 9.07728" stroke="#CEB6A1" stroke-width="4" stroke-linecap="round"/>
<path d="M32.7439 8.88281C33.6482 8.88281 34.8815 9.07555 35.4835 9.43327C35.7606 9.5979 36.0525 9.66055 36.2467 9.87081C36.6718 10.3311 36.766 10.9892 36.913 11.6536C37.1907 12.9091 36.5732 13.5843 36.2817 14.0564C36.0038 14.5065 35.8607 15.0132 35.5517 15.5647C35.2759 16.0568 34.6615 16.5045 33.947 16.9445C33.4207 17.2686 32.8763 17.4798 32.1949 17.8205C31.6543 18.0908 31.1242 18.2585 30.6044 18.4376C30.0457 18.6302 29.4694 18.7783 28.9336 18.8435C28.3155 18.9188 27.6862 19.1346 26.9873 19.2816C26.2988 19.4264 25.7705 19.4928 24.9616 19.5736C22.8912 19.7804 22.1047 19.7848 21.5037 19.8656C20.7453 19.9675 20.1579 19.9795 19.4274 20.0603C18.7634 20.1337 17.1502 20.1742 15.1693 20.255C12.1183 20.3794 9.90325 20.2394 9.5796 20.1747C8.74794 20.0083 7.76276 19.9483 7.21085 19.6724C6.85556 19.4947 6.5285 19.2991 6.28564 19.1049C6.17126 19.0071 6.0749 18.9107 5.68359 18.6167" stroke="#CEB6A1" stroke-width="4" stroke-linecap="round"/>
<path d="M8.40891 12.6789C8.40891 12.7431 7.73435 14.0611 6.87289 15.7188C6.29038 16.8397 8.0838 13.882 8.39139 13.4109C8.86388 12.6872 9.24992 11.2597 9.52734 10.3938C9.79595 9.55548 10.2253 9.11236 10.436 8.59257C10.4884 8.4634 10.5173 8.33365 10.5338 8.44413C10.685 9.45359 9.8106 11.7834 9.09272 13.5335C8.2305 15.6356 7.82682 16.4712 7.66232 16.9448C7.36613 17.7974 9.50884 15.7645 10.9821 14.6145C12.433 13.4819 12.7872 12.455 13.1771 11.8213C13.3537 11.5343 13.5669 11.285 13.6647 11.2027C14.8567 10.2006 11.4946 14.7191 11.0225 15.4988C10.5926 16.2088 10.0345 16.8917 9.74002 17.56C9.67544 17.7065 9.57893 17.8671 9.59353 17.9819C9.60813 18.0968 9.73662 18.161 9.88312 18.1299C10.2217 18.0579 10.6448 17.6772 11.4201 17.193C12.6184 16.4445 14.2395 14.9595 15.8281 13.4357C17.1477 12.1698 17.8489 11.7074 18.594 11.0752C18.7811 10.9164 18.9508 10.8314 18.9693 10.7496C19.123 10.0697 17.2356 10.991 16.9607 11.1526C16.809 11.2417 16.6535 11.3784 16.7957 11.4125C18.0812 11.7207 20.4284 10.3505 21.9994 9.85701C23.8565 9.27364 24.7892 9.3051 25.6029 9.15909C26.1975 9.05241 26.8664 8.65682 27.647 8.39692C27.9501 8.29602 28.1999 8.16915 28.491 8.13654C29.2812 8.04799 30.1117 8.75026 30.6977 9.18926C31.3494 9.67752 31.93 10.405 32.2561 10.9248C32.6031 11.478 32.808 12.2214 32.7929 13.0166C32.7796 13.715 31.7411 14.1039 31.1401 14.4621C30.3045 14.9601 29.1811 15.3051 25.4092 16.1315C24.3598 16.3614 23.0526 16.4089 21.2061 16.6036C18.9669 16.8397 16.9251 16.7671 15.1516 16.462C14.7541 16.3936 15.9157 15.5465 17.0716 14.9751C18.2275 14.4037 19.4803 13.8898 21.0411 13.3038C22.6019 12.7178 24.4329 12.0754 25.4885 11.7284C27.1409 11.1852 27.7444 11.0572 28.4413 10.9433C28.6821 10.904 29.0059 10.9268 29.2035 10.991C29.4011 11.0553 29.4653 11.1837 29.4342 11.3142C29.3635 11.61 28.5319 12.0909 26.1616 12.9159C24.4485 13.5122 21.5108 13.8372 20.1339 14.0854C18.757 14.3336 18.9819 14.3336 20.8966 13.9C22.8112 13.4664 26.4089 12.5991 28.4068 12.1362C30.6863 11.6081 31.088 11.5118 31.2501 11.3015C31.4096 11.0945 31.381 10.7662 31.3007 10.4425C31.2035 10.0509 30.7658 9.88913 30.3463 9.77573C30.0613 9.69871 29.6055 9.69445 27.848 9.8867C26.0906 10.0789 23.039 10.4965 21.3867 10.7116C19.1834 10.991 18.2129 11.3463 17.3218 11.7191C16.9446 11.8671 16.7197 11.9313 16.3907 12.0948" stroke="#CEB6A1" stroke-width="4" stroke-linecap="round"/>
<path d="M15.5967 12.5635V12.7152" stroke="#0D0D0D" stroke-width="2" stroke-linecap="round"/>
<path d="M22.0459 11.7285V11.8803" stroke="#0D0D0D" stroke-width="2" stroke-linecap="round"/>
<path d="M8.51172 9.1075C8.61418 8.64682 8.86917 7.93038 9.07601 7.38881C9.18617 7.10039 9.35835 6.8742 9.52475 6.74594C9.60716 6.68241 9.71657 6.66851 9.8198 6.68084C10.2478 6.73194 10.6657 7.33257 10.9249 7.79633C10.9811 7.89693 11.0524 8.00125 11.0917 8.11719C11.131 8.23313 11.131 8.36024 10.9912 8.47657C10.1565 8.79935 9.695 8.8502 9.21969 8.95304C9.10336 8.97885 9.00167 9.00427 8.8969 9.03046" stroke="#8F6E51" stroke-width="2" stroke-linecap="round"/>
<path d="M28.7725 3.71484C28.4142 3.99603 27.9019 4.45748 27.3107 5.06067C27.187 5.18683 27.1809 5.30488 27.2313 5.38269C27.3506 5.56666 28.2008 5.56373 29.2023 5.46204C29.5559 5.42614 29.5428 5.15697 29.5174 5.00136C29.4411 4.74405 29.3633 4.51217 29.3121 4.25603C29.2863 4.12699 29.2609 3.99988 29.1576 3.71484" stroke="#8F6E51" stroke-width="2" stroke-linecap="round"/>
<path d="M0.5 13.9606C1.31351 13.9352 2.12702 13.9098 3.65196 13.8712C5.17691 13.8327 7.38864 13.7819 9.66739 13.7295" stroke="#8F6E51" stroke-linecap="round"/>
<path d="M9.74465 15.9639C9.69381 15.9639 9.64296 15.9639 8.14228 16.4215C6.6416 16.8791 3.69263 17.7943 0.654297 18.8142" stroke="#8F6E51" stroke-linecap="round"/>
<path d="M28.7725 11.5727C30.5012 11.2677 32.2299 10.9626 33.8831 10.6911C35.5363 10.4195 37.0616 10.1907 37.9618 10.0728C38.862 9.95497 39.0908 9.95497 39.5576 9.87793" stroke="#8F6E51" stroke-linecap="round"/>
<path d="M29.312 13.8066C30.6085 13.9338 31.9051 14.0609 33.6788 14.2407C35.4526 14.4206 37.6643 14.6494 39.9431 14.8852" stroke="#8F6E51" stroke-linecap="round"/>
</svg>
