<svg width="49" height="53" viewBox="0 0 49 53" fill="none" xmlns="http://www.w3.org/2000/svg">
<path d="M16.2337 23.35C13.0774 21.5483 10.6796 20.0447 7.43978 19.9611C6.72033 19.9426 6.30864 20.6317 6.00384 21.16C5.39794 22.2102 5.39651 24.5376 5.69454 27.3191C6.08753 30.9871 11.9982 31.6224 15.3961 32.6023C16.0238 32.7833 16.0802 33.5731 15.5609 34.4017C12.9584 38.5543 10.3726 41.5384 9.53722 44.5638C9.37489 45.1517 9.46046 45.7649 9.75848 46.221C10.0565 46.677 10.6526 46.975 11.5557 47.1286C12.4587 47.2821 13.6508 47.2821 14.4885 46.7606C21.5661 42.3537 16.5317 26.2219 17.8841 23.4358C19.091 20.9495 21.4897 18.8436 24.7251 16.6603C27.4959 14.7905 31.2613 14.7706 34.2866 15.2944C34.923 15.4045 35.4878 15.8182 35.8693 16.2697C36.6272 17.1667 36.5534 18.5275 36.2554 19.7286C35.3789 23.2611 30.7013 25.5987 24.9847 28.3825C23.2407 29.2318 21.9593 29.8162 20.9817 31.1663C19.9663 32.5687 20.2976 34.6297 20.5212 36.2079C20.8876 38.7952 25.2376 41.6919 28.4165 44.4148C29.4936 45.3374 30.8278 45.6249 32.1779 45.7762C36.4872 46.2591 40.9063 42.6221 42.6448 40.0709C44.0822 37.9614 42.5771 35.3973 41.902 34.1962C40.3012 31.3481 37.1675 29.5272 34.0067 27.4975C32.601 26.5948 31.1438 26.0593 29.3422 26.3573C27.3578 26.6856 26.1723 28.3126 25.495 29.7349C25.0641 30.6397 25.2647 32.2004 25.7117 33.415C27.2231 37.5218 31.4238 37.7906 35.1084 39.3755C36.0371 39.7749 36.9869 39.6058 37.522 39.3077C38.0571 39.0097 38.2061 38.4137 38.2828 37.7341C38.3596 37.0545 38.3596 36.3095 37.9871 35.7021C36.8695 34.6478 35.5058 34.0382 34.2302 33.7379C33.5506 33.5866 32.8055 33.4376 32.0379 33.2841" stroke="#FFF06C" stroke-width="10.56" stroke-linecap="round"/>
<path d="M17.7139 29.8785C17.7139 29.7636 17.8288 29.4171 18.1178 28.9243C18.5218 28.6039 18.9885 28.428 19.4517 28.341C19.685 28.3114 19.9148 28.3114 20.4999 28.6596" stroke="#0D0D0D" stroke-width="2" stroke-linecap="round"/>
<path d="M26.2139 27.5244C26.2139 27.4094 26.2713 27.1204 26.4733 26.7147C26.6178 26.5388 26.8477 26.4239 27.2821 26.3647C27.7166 26.3055 28.3487 26.3055 29.174 26.4796" stroke="#0D0D0D" stroke-width="2" stroke-linecap="round"/>
<path d="M24.2139 32.5256C24.2139 32.7555 24.2139 34.1955 24.5586 36.1979C24.6881 36.95 25.5929 36.8788 26.0344 36.7926C26.6881 36.6649 26.9407 36.1265 27.1435 35.6634C27.3383 35.2187 27.3481 34.5037 27.2619 33.721C26.5959 32.8181 25.9569 32.1791 25.4946 31.9179C25.2046 31.8291 24.8024 31.8291 24.388 31.8291" stroke="#0D0D0D" stroke-width="2" stroke-linecap="round"/>
<path d="M7.45215 10.2238C7.45215 9.67691 8.12362 6.97833 8.97567 4.40183C9.10251 4.0183 9.31395 3.95164 9.48436 3.97135C10.3477 4.07122 10.8832 5.21827 11.8148 6.34056C12.5265 7.19798 13.1291 8.01605 14.06 8.61121C14.9843 9.20218 16.2232 8.61376 16.9633 8.46561C20.007 7.85635 24.4067 8.31617 24.703 8.21126C25.4404 7.95018 26.0548 6.12374 26.7803 5.03324C26.9877 4.72153 27.2897 4.46033 27.5644 4.185C27.694 4.05507 27.881 4.03558 28.0514 4.05593C28.9273 4.16051 29.9132 5.59725 30.722 6.49063C31.0603 6.78757 31.3592 7.08515 31.6129 7.40245C31.7407 7.55188 31.8666 7.67778 31.9963 7.93466" stroke="#E3E3E3" stroke-width="4" stroke-linecap="round"/>
<path d="M7.57976 11.7496C6.39452 12.0879 5.38223 12.7619 4.65672 13.5484C4.05119 14.2049 4.06219 15.0942 4.03993 15.8585C4.00956 16.9016 4.77944 17.7241 5.43628 18.4445C6.19314 19.2747 8.24614 19.6317 9.46253 19.8034C10.1211 19.8963 12.5611 20.0157 15.8446 19.9948C17.4088 19.9848 18.0053 19.8886 19.1632 19.8256C21.6257 19.6918 23.3897 19.4651 23.77 19.4015C25.405 19.1281 28.4664 18.7033 30.2106 18.3428C31.7943 18.0154 32.8411 17.2205 33.6678 16.6482C34.7046 15.9304 35.0463 15.0586 35.3871 14.2962C35.7353 13.5173 35.5575 12.3498 35.115 11.3503C34.6724 10.8645 34.2871 10.4791 33.9914 10.2464C33.8216 10.1396 33.6118 10.0557 33.0141 9.71484" stroke="#E3E3E3" stroke-width="4" stroke-linecap="round"/>
<path d="M24.8594 6.83848C25.0521 6.3547 25.5719 5.51077 25.9126 4.99098C26.244 4.48541 26.6095 4.01759 26.9186 3.54695C27.2731 3.00709 27.7776 2.39591 28.1675 2.06934C28.6438 1.67031 29.1735 3.10454 29.5141 3.54354C29.8662 3.99715 30.1138 4.56463 30.4875 5.01969C30.9435 5.57484 31.1845 6.31674 31.4775 6.83653C31.8016 7.48481 32.1267 8.13504 32.2401 8.39396C32.2893 8.5244 32.3214 8.65288 32.5492 9.07728" stroke="#E3E3E3" stroke-width="4" stroke-linecap="round"/>
<path d="M32.7439 8.88281C33.6482 8.88281 34.8815 9.07555 35.4835 9.43327C35.7606 9.5979 36.0525 9.66055 36.2467 9.87081C36.6718 10.3311 36.766 10.9892 36.913 11.6536C37.1907 12.9091 36.5732 13.5843 36.2817 14.0564C36.0038 14.5065 35.8607 15.0132 35.5517 15.5647C35.2759 16.0568 34.6615 16.5045 33.947 16.9445C33.4207 17.2686 32.8763 17.4798 32.1949 17.8205C31.6543 18.0908 31.1242 18.2585 30.6044 18.4376C30.0457 18.6302 29.4694 18.7783 28.9336 18.8435C28.3155 18.9188 27.6862 19.1346 26.9873 19.2816C26.2988 19.4264 25.7705 19.4928 24.9616 19.5736C22.8912 19.7804 22.1047 19.7848 21.5037 19.8656C20.7453 19.9675 20.1579 19.9795 19.4274 20.0603C18.7634 20.1337 17.1502 20.1742 15.1693 20.255C12.1183 20.3794 9.90325 20.2394 9.5796 20.1747C8.74794 20.0083 7.76276 19.9483 7.21085 19.6724C6.85556 19.4947 6.5285 19.2991 6.28564 19.1049C6.17126 19.0071 6.0749 18.9107 5.68359 18.6167" stroke="#E3E3E3" stroke-width="4" stroke-linecap="round"/>
<path d="M8.40842 12.6789C8.40842 12.7431 7.73386 14.0611 6.87241 15.7188C6.28989 16.8397 8.08331 13.882 8.3909 13.4109C8.86339 12.6872 9.24943 11.2597 9.52685 10.3938C9.79546 9.55548 10.2248 9.11236 10.4355 8.59257C10.4879 8.4634 10.5168 8.33365 10.5333 8.44413C10.6845 9.45359 9.81011 11.7834 9.09223 13.5335C8.23001 15.6356 7.82633 16.4712 7.66183 16.9448C7.36564 17.7974 9.50835 15.7645 10.9816 14.6145C12.4325 13.4819 12.7867 12.455 13.1766 11.8213C13.3532 11.5343 13.5664 11.285 13.6643 11.2027C14.8562 10.2006 11.4941 14.7191 11.022 15.4988C10.5921 16.2088 10.034 16.8917 9.73953 17.56C9.67495 17.7065 9.57844 17.8671 9.59304 17.9819C9.60764 18.0968 9.73613 18.161 9.88263 18.1299C10.2212 18.0579 10.6443 17.6772 11.4196 17.193C12.6179 16.4445 14.239 14.9595 15.8276 13.4357C17.1472 12.1698 17.8484 11.7074 18.5935 11.0752C18.7806 10.9164 18.9503 10.8314 18.9688 10.7496C19.1226 10.0697 17.2351 10.991 16.9602 11.1526C16.8085 11.2417 16.6531 11.3784 16.7952 11.4125C18.0807 11.7207 20.4279 10.3505 21.9989 9.85701C23.856 9.27364 24.7887 9.3051 25.6024 9.15909C26.197 9.05241 26.8659 8.65682 27.6466 8.39692C27.9496 8.29602 28.1994 8.16915 28.4905 8.13654C29.2807 8.04799 30.1112 8.75026 30.6972 9.18926C31.3489 9.67752 31.9295 10.405 32.2556 10.9248C32.6026 11.478 32.8075 12.2214 32.7924 13.0166C32.7791 13.715 31.7406 14.1039 31.1396 14.4621C30.304 14.9601 29.1806 15.3051 25.4087 16.1315C24.3593 16.3614 23.0521 16.4089 21.2056 16.6036C18.9664 16.8397 16.9246 16.7671 15.1511 16.462C14.7536 16.3936 15.9152 15.5465 17.0711 14.9751C18.227 14.4037 19.4798 13.8898 21.0406 13.3038C22.6015 12.7178 24.4324 12.0754 25.4881 11.7284C27.1404 11.1852 27.7439 11.0572 28.4408 10.9433C28.6816 10.904 29.0054 10.9268 29.203 10.991C29.4006 11.0553 29.4649 11.1837 29.4337 11.3142C29.3631 11.61 28.5314 12.0909 26.1612 12.9159C24.448 13.5122 21.5103 13.8372 20.1334 14.0854C18.7566 14.3336 18.9814 14.3336 20.8961 13.9C22.8107 13.4664 26.4084 12.5991 28.4063 12.1362C30.6859 11.6081 31.0875 11.5118 31.2496 11.3015C31.4091 11.0945 31.3805 10.7662 31.3002 10.4425C31.203 10.0509 30.7653 9.88913 30.3458 9.77573C30.0608 9.69871 29.605 9.69445 27.8476 9.8867C26.0901 10.0789 23.0385 10.4965 21.3862 10.7116C19.1829 10.991 18.2124 11.3463 17.3213 11.7191C16.9441 11.8671 16.7192 11.9313 16.3902 12.0948" stroke="#E3E3E3" stroke-width="4" stroke-linecap="round"/>
<path d="M15.5967 11.8486V12.0004" stroke="#0D0D0D" stroke-width="2" stroke-linecap="round"/>
<path d="M22.0459 11.0137V11.1654" stroke="#0D0D0D" stroke-width="2" stroke-linecap="round"/>
<path d="M8.51172 8.39266C8.61418 7.93198 8.86917 7.21554 9.07601 6.67396C9.18617 6.38555 9.35835 6.15936 9.52475 6.03109C9.60716 5.96756 9.71657 5.95367 9.8198 5.966C10.2478 6.0171 10.6657 6.61773 10.9249 7.08149C10.9811 7.18208 11.0524 7.28641 11.0917 7.40235C11.131 7.51829 11.131 7.6454 10.9912 7.76172C10.1565 8.08451 9.695 8.13535 9.21969 8.2382C9.10336 8.26401 9.00167 8.28943 8.8969 8.31562" stroke="#B9B9B9" stroke-width="2" stroke-linecap="round"/>
<path d="M28.7729 3C28.4147 3.28118 27.9024 3.74263 27.3112 4.34583C27.1875 4.47199 27.1814 4.59004 27.2318 4.66785C27.3511 4.85182 28.2013 4.84888 29.2028 4.74719C29.5564 4.71129 29.5433 4.44213 29.5179 4.28651C29.4416 4.02921 29.3638 3.79733 29.3126 3.54118C29.2868 3.41214 29.2614 3.28503 29.1581 3" stroke="#B9B9B9" stroke-width="2" stroke-linecap="round"/>
<path d="M0.5 13.2458C1.31351 13.2203 2.12702 13.1949 3.65196 13.1564C5.17691 13.1179 7.38864 13.067 9.66739 13.0146" stroke="#B9B9B9" stroke-linecap="round"/>
<path d="M9.74465 15.249C9.69381 15.249 9.64296 15.249 8.14228 15.7066C6.6416 16.1642 3.69263 17.0794 0.654297 18.0994" stroke="#B9B9B9" stroke-linecap="round"/>
<path d="M28.7725 10.8579C30.5012 10.5528 32.2299 10.2478 33.8831 9.97621C35.5363 9.70465 37.0616 9.47585 37.9618 9.35799C38.862 9.24012 39.0908 9.24012 39.5576 9.16309" stroke="#B9B9B9" stroke-linecap="round"/>
<path d="M29.3115 13.0918C30.6081 13.2189 31.9046 13.346 33.6784 13.5259C35.4521 13.7058 37.6639 13.9346 39.9426 14.1703" stroke="#B9B9B9" stroke-linecap="round"/>
</svg>
