<svg width="50" height="37" viewBox="0 0 50 37" fill="none" xmlns="http://www.w3.org/2000/svg">
<path d="M13.0262 13.9447C11.8426 13.8885 9.11042 14.1119 7.80062 14.9083C6.72121 15.5647 5.19126 17.1203 4.16031 18.2613C3.2878 19.2269 3.42099 20.5892 3.3613 23.6258C3.33208 25.1121 3.98379 25.9921 4.52528 26.9029C5.0752 27.8278 6.19749 28.5503 8.10164 29.5182C10.0652 30.5163 13.1353 29.693 14.3556 29.2394C16.7946 28.3326 17.8526 27.7624 18.6516 27.0512C19.6459 26.1663 19.9606 24.4675 20.4432 22.1728C21.0299 19.3835 20.4739 17.3011 20.3324 16.8474C19.9013 15.466 18.0334 14.4018 16.953 14.2296C15.848 14.0534 14.9636 13.8322 11.3633 13.8586C10.3274 13.8662 9.73292 14.5672 8.96716 15.1624C7.42618 16.3602 7.56868 20.3436 8.24746 23.7981C8.45863 24.8727 9.15817 25.4259 9.72439 25.767C11.092 26.5909 12.6783 24.638 13.9591 23.5857C15.0193 22.7146 15.4121 21.3959 15.6961 20.6302C15.9498 19.9458 15.9255 18.7849 15.5034 18.4071C13.7127 16.8045 13.0296 23.0315 12.321 23.3828C9.91408 24.5761 11.0939 19.0015 11.0086 19.5967C10.9796 19.9105 10.9796 20.2481 11.0359 20.5347C11.0922 20.8212 11.2047 21.0463 11.3207 21.2783" stroke="#AFECB2" stroke-width="6.72" stroke-linecap="round"/>
<path d="M30.7355 12.796C28.6515 12.796 22.9654 13.0211 20.9342 13.5609C19.5293 13.9343 19.4249 16.4798 19.1674 18.4718C18.9285 20.319 19.3072 22.0567 19.6475 22.9938C20.0832 24.1939 21.3521 25.014 22.2048 25.4719C23.1932 26.0026 24.1934 26.2692 25.892 26.4108C28.6999 26.6448 31.2966 25.7644 32.5177 24.4878C34.0095 22.9283 33.7474 21.105 33.8335 19.9061C33.9398 18.4261 33.7508 16.5003 33.3236 15.2161C33.0049 14.2581 32.0487 13.3691 30.9393 12.6843C29.5281 11.8133 28.0716 11.8887 26.5341 11.7446C24.0501 11.5118 20.281 11.9399 19.482 12.6229C18.7169 13.277 18.3436 14.3821 17.6631 15.9733C17.0751 17.3485 16.9792 18.7583 16.9775 21.5399C16.9765 23.2307 17.658 24.3318 18.1415 25.2425C18.6673 26.2328 19.4761 26.948 20.4703 27.5747C21.3012 28.0985 22.5425 28.0872 27.3058 28.0608C29.3142 28.0497 30.2751 27.1253 31.2438 26.4704C32.0814 25.9042 33.2289 25.0242 34.1439 23.8577C35.0411 22.7138 35.1663 20.8219 35.2559 18.9988C35.3277 17.5358 33.3585 16.6674 31.8236 16.01C30.1405 15.289 27.3399 15.5248 24.8125 15.6936C23.2722 15.7965 22.6653 16.8857 22.1835 17.7632C20.9183 20.0674 21.1849 21.8282 21.3819 22.767C22.1626 26.4879 29.54 16.9488 29.6833 16.6913C30.9778 14.3643 27.0978 22.9111 27.2095 23.3955C28.4025 22.6911 29.1409 21.6679 29.6798 21.2688C29.9374 21.2074 30.1625 21.4325 30.565 21.6644" stroke="#AFECB2" stroke-width="6.72" stroke-linecap="round"/>
<path d="M40.6406 10.9342C36.6106 10.7637 34.6783 10.8763 33.5101 11.2455C33.0303 11.3971 32.4578 11.7836 31.8899 12.4359C31.0521 13.3983 31.2606 17.3263 31.4584 19.8828C31.5973 21.6778 32.3964 22.9816 32.9635 24.0058C33.4705 24.9215 34.6101 25.2022 36.1698 25.6848C37.7092 26.1612 39.1586 25.6029 39.8399 25.2627C40.8192 24.7737 41.6025 23.6741 42.3436 22.5357C43.1216 21.3403 43.1409 19.7515 43.1144 16.1785C43.1084 15.3675 42.8612 15.0342 42.4646 14.6914C40.5013 12.994 37.5845 12.7557 36.2098 12.4981C35.3108 12.3297 31.6904 12.2986 29.2183 13.0337C27.5248 13.5372 27.9076 16.552 27.8778 19.5357C27.8606 21.25 28.757 22.1289 29.7777 23.4916C31.0966 25.2523 31.7688 25.9389 32.6778 26.3389C33.8897 26.872 37.1444 27.1362 39.7248 26.5708C41.7652 26.1237 42.8509 24.9804 44.0192 24.1831C45.1672 23.3996 45.7536 22.2517 46.2388 20.9163C47.0054 18.8064 46.2141 15.2593 45.8722 14.2923C45.362 12.8497 43.9424 12.0735 42.7205 11.5328C41.6449 11.057 39.1808 11.2753 36.8383 12.1238C36.0036 12.4261 35.6402 13.5436 35.2991 14.5933C35.0246 15.4383 35.2394 16.2178 35.381 16.842C35.4471 17.1335 35.5788 17.3536 35.8057 17.3852C36.3811 17.4652 36.8869 16.7925 37.199 16.2254C37.7571 15.2115 34.5624 22.6303 34.0473 25.0819C33.9521 25.5353 33.9893 25.8229 34.1582 25.6584C36.6454 23.2339 38.8772 19.9186 39.0759 19.6901C39.8802 18.765 39.6174 22.586 39.7299 22.7864C39.9531 23.1837 40.4684 21.9089 40.7242 21.37C40.8112 21.1124 40.8112 20.8873 40.7268 20.6307C40.6424 20.374 40.4735 20.0926 39.9585 19.291" stroke="#AFECB2" stroke-width="6.72" stroke-linecap="round"/>
<path d="M16.8604 10.9503C17.1041 10.4586 18.3123 9.31958 18.8807 8.94702C19.459 8.56797 20.1219 8.32538 20.7605 8.0598C21.6689 7.68205 22.321 7.58026 23.2945 7.45571C26.2685 7.07522 28.0691 7.89746 28.6737 8.09333C29.734 8.4368 31.0858 9.45796 31.6542 9.88428C32.2062 10.2983 32.7889 10.6991 33.5872 11.5326C33.8193 11.87 33.9971 12.1553 34.1919 12.4384C34.2813 12.5811 34.3515 12.7216 34.5304 12.9728" stroke="#AFECB2" stroke-width="6.72" stroke-linecap="round"/>
<path d="M18.8604 30.708C19.1084 31.0614 19.4607 31.5575 20.0291 31.8603C20.589 32.1586 21.2703 32.2685 21.8387 32.3931C22.3964 32.5152 22.9734 32.5878 23.5418 32.6416C24.1553 32.6996 26.9609 32.8369 28.6512 32.731C29.2455 32.6938 29.7859 32.2706 30.4427 31.8805C31.0292 31.4191 31.5955 30.923 32.058 30.3908C32.165 30.2482 32.2704 30.1077 32.4854 29.8564" stroke="#AFECB2" stroke-width="6.72" stroke-linecap="round"/>
<path d="M20.7607 17.5322V17.8203" stroke="#0D0D0D" stroke-width="2.5" stroke-linecap="round"/>
<path d="M27.9609 17.3564V17.5485" stroke="#0D0D0D" stroke-width="2.5" stroke-linecap="round"/>
<path d="M18.3604 24.8927C18.4429 24.6038 18.6506 24.2692 18.942 23.9671C19.1237 23.7787 19.3185 23.7669 19.4952 23.7876C19.9318 23.8386 20.3593 24.2035 20.7255 24.4021C21.0508 24.5785 21.34 24.8502 21.7259 24.8721C22.2375 24.9011 22.7573 24.206 23.2677 23.852C23.7332 23.5291 24.341 23.3916 24.8304 23.4226C25.3682 23.4566 25.6557 23.8908 26.0935 24.1309C26.2774 24.2318 26.7584 24.2673 27.3938 24.2363C27.9141 24.211 28.1575 23.8094 28.823 23.3832C29.7877 22.7653 30.4079 22.8287 30.8057 22.9013C30.9721 22.9738 31.1397 23.0576 31.2957 23.1512C31.3692 23.2034 31.4311 23.2653 31.6826 23.4542" stroke="#0D0D0D" stroke-width="2" stroke-linecap="round"/>
<path d="M6.31372 3.61158C6.04307 3.26246 5.39764 2.54946 4.93207 2.0404C4.76572 1.8585 4.54272 1.77909 4.32607 1.72516C4.08452 1.66503 3.79677 1.84128 3.54527 2.05942C3.17749 2.37842 2.8201 2.85209 2.91729 4.4014C2.97815 5.3714 3.41768 5.85389 3.70288 6.20683C4.02338 6.60345 4.3531 7.00073 4.82789 7.31201C5.36214 7.66227 5.7305 7.99309 6.15383 8.19225C6.67495 8.43741 7.59972 8.59998 8.56347 8.4202C9.16525 8.30794 9.62181 7.46211 9.95458 6.81758C10.6434 5.48336 10.5618 3.38682 10.5105 2.95789C10.4584 2.52201 10.2274 2.07876 9.902 1.62818C9.63943 1.26464 9.13991 1.0962 8.43937 1.00592C7.88652 0.93468 7.67167 1.64601 7.42999 2.08966C7.13022 2.57976 6.96762 3.03302 6.81104 3.43564C6.77175 3.53667 6.73304 3.63619 6.6833 3.81659" stroke="#FFA3A3" stroke-width="2" stroke-linecap="round"/>
</svg>
