<svg width="50" height="36" viewBox="0 0 50 36" fill="none" xmlns="http://www.w3.org/2000/svg">
<path d="M13.0262 13.5893C11.8426 13.533 9.11042 13.7564 7.80062 14.5529C6.72121 15.2092 5.19126 16.7648 4.16031 17.9058C3.2878 18.8714 3.42099 20.2338 3.3613 23.2703C3.33208 24.7566 3.98379 25.6367 4.52528 26.5474C5.0752 27.4723 6.19749 28.1949 8.10164 29.1627C10.0652 30.1608 13.1353 29.3375 14.3556 28.8839C16.7946 27.9771 17.8526 27.407 18.6516 26.6958C19.6459 25.8108 19.9606 24.112 20.4432 21.8173C21.0299 19.028 20.4739 16.9456 20.3324 16.492C19.9013 15.1106 18.0334 14.0463 16.953 13.8741C15.848 13.6979 14.9636 13.4767 11.3633 13.5031C10.3274 13.5107 9.73292 14.2118 8.96716 14.807C7.42618 16.0048 7.56868 19.9882 8.24746 23.4426C8.45863 24.5173 9.15817 25.0705 9.72439 25.4116C11.092 26.2354 12.6783 24.2825 13.9591 23.2303C15.0193 22.3592 15.4121 21.0404 15.6961 20.2747C15.9498 19.5904 15.9255 18.4294 15.5034 18.0516C13.7127 16.4491 13.0296 22.676 12.321 23.0273C9.91408 24.2206 11.0939 18.646 11.0086 19.2412C10.9796 19.555 10.9796 19.8927 11.0359 20.1792C11.0922 20.4657 11.2047 20.6908 11.3207 20.9228" stroke="#AFECB2" stroke-width="6.72" stroke-linecap="round"/>
<path d="M30.7355 12.4406C28.6515 12.4406 22.9654 12.6657 20.9342 13.2055C19.5293 13.5788 19.4249 16.1244 19.1674 18.1163C18.9285 19.9636 19.3072 21.7012 19.6475 22.6384C20.0832 23.8385 21.3521 24.6585 22.2048 25.1164C23.1932 25.6472 24.1934 25.9137 25.892 26.0553C28.6999 26.2893 31.2966 25.4089 32.5177 24.1324C34.0095 22.5729 33.7474 20.7496 33.8335 19.5506C33.9398 18.0707 33.7508 16.1448 33.3236 14.8606C33.0049 13.9026 32.0487 13.0136 30.9393 12.3288C29.5281 11.4578 28.0716 11.5332 26.5341 11.3891C24.0501 11.1563 20.281 11.5844 19.482 12.2674C18.7169 12.9215 18.3436 14.0266 17.6631 15.6178C17.0751 16.993 16.9792 18.4029 16.9775 21.1845C16.9765 22.8752 17.658 23.9763 18.1415 24.887C18.6673 25.8774 19.4761 26.5925 20.4703 27.2193C21.3012 27.743 22.5425 27.7318 27.3058 27.7053C29.3142 27.6942 30.2751 26.7699 31.2438 26.115C32.0814 25.5487 33.2289 24.6687 34.1439 23.5022C35.0411 22.3584 35.1663 20.4665 35.2559 18.6433C35.3277 17.1803 33.3585 16.312 31.8236 15.6545C30.1405 14.9336 27.3399 15.1693 24.8125 15.3381C23.2722 15.441 22.6653 16.5303 22.1835 17.4077C20.9183 19.7119 21.1849 21.4727 21.3819 22.4116C22.1626 26.1324 29.54 16.5934 29.6833 16.3358C30.9778 14.0088 27.0978 22.5557 27.2095 23.04C28.4025 22.3357 29.1409 21.3124 29.6798 20.9133C29.9374 20.8519 30.1625 21.077 30.565 21.309" stroke="#AFECB2" stroke-width="6.72" stroke-linecap="round"/>
<path d="M40.6406 10.5788C36.6106 10.4082 34.6783 10.5208 33.5101 10.89C33.0303 11.0417 32.4578 11.4281 31.8899 12.0804C31.0521 13.0428 31.2606 16.9708 31.4584 19.5273C31.5973 21.3223 32.3964 22.6262 32.9635 23.6503C33.4705 24.5661 34.6101 24.8467 36.1698 25.3293C37.7092 25.8057 39.1586 25.2475 39.8399 24.9072C40.8192 24.4182 41.6025 23.3186 42.3436 22.1802C43.1216 20.9848 43.1409 19.396 43.1144 15.8231C43.1084 15.012 42.8612 14.6787 42.4646 14.3359C40.5013 12.6386 37.5845 12.4002 36.2098 12.1427C35.3108 11.9742 31.6904 11.9431 29.2183 12.6782C27.5248 13.1817 27.9076 16.1966 27.8778 19.1803C27.8606 20.8945 28.757 21.7734 29.7777 23.1361C31.0966 24.8968 31.7688 25.5834 32.6778 25.9834C33.8897 26.5166 37.1444 26.7807 39.7248 26.2153C41.7652 25.7683 42.8509 24.625 44.0192 23.8277C45.1672 23.0441 45.7536 21.8962 46.2388 20.5609C47.0054 18.451 46.2141 14.9038 45.8722 13.9368C45.362 12.4942 43.9424 11.718 42.7205 11.1774C41.6449 10.7015 39.1808 10.9199 36.8383 11.7683C36.0036 12.0707 35.6402 13.1881 35.2991 14.2378C35.0246 15.0828 35.2394 15.8623 35.381 16.4865C35.4471 16.778 35.5788 16.9981 35.8057 17.0297C36.3811 17.1097 36.8869 16.437 37.199 15.87C37.7571 14.856 34.5624 22.2748 34.0473 24.7264C33.9521 25.1798 33.9893 25.4675 34.1582 25.3029C36.6454 22.8785 38.8772 19.5632 39.0759 19.3346C39.8802 18.4095 39.6174 22.2305 39.7299 22.4309C39.9531 22.8283 40.4684 21.5534 40.7242 21.0145C40.8112 20.757 40.8112 20.5319 40.7268 20.2752C40.6424 20.0185 40.4735 19.7371 39.9585 18.9355" stroke="#AFECB2" stroke-width="6.72" stroke-linecap="round"/>
<path d="M16.8604 10.5949C17.1041 10.1031 18.3123 8.96411 18.8807 8.59155C19.459 8.2125 20.1219 7.96991 20.7605 7.70433C21.6689 7.32658 22.321 7.22479 23.2945 7.10024C26.2685 6.71975 28.0691 7.542 28.6737 7.73786C29.734 8.08133 31.0858 9.10249 31.6542 9.52881C32.2062 9.94282 32.7889 10.3437 33.5872 11.1771C33.8193 11.5146 33.9971 11.7998 34.1919 12.083C34.2813 12.2256 34.3515 12.3661 34.5304 12.6173" stroke="#AFECB2" stroke-width="6.72" stroke-linecap="round"/>
<path d="M18.8604 30.3525C19.1084 30.7059 19.4607 31.202 20.0291 31.5048C20.589 31.8031 21.2703 31.913 21.8387 32.0376C22.3964 32.1598 22.9734 32.2324 23.5418 32.2861C24.1553 32.3441 26.9609 32.4815 28.6512 32.3755C29.2455 32.3383 29.7859 31.9152 30.4427 31.525C31.0292 31.0636 31.5955 30.5676 32.058 30.0353C32.165 29.8927 32.2704 29.7522 32.4854 29.501" stroke="#AFECB2" stroke-width="6.72" stroke-linecap="round"/>
<path d="M20.7607 17.1768V17.4648" stroke="#0D0D0D" stroke-width="2.5" stroke-linecap="round"/>
<path d="M27.9609 17.001V17.193" stroke="#0D0D0D" stroke-width="2.5" stroke-linecap="round"/>
<path d="M18.3604 24.5373C18.4429 24.2483 18.6506 23.9137 18.942 23.6116C19.1237 23.4233 19.3185 23.4114 19.4952 23.4321C19.9318 23.4831 20.3593 23.848 20.7255 24.0466C21.0508 24.223 21.34 24.4947 21.7259 24.5166C22.2375 24.5457 22.7573 23.8505 23.2677 23.4965C23.7332 23.1736 24.341 23.0362 24.8304 23.0671C25.3682 23.1012 25.6557 23.5353 26.0935 23.7755C26.2774 23.8764 26.7584 23.9118 27.3938 23.8809C27.9141 23.8555 28.1575 23.454 28.823 23.0277C29.7877 22.4098 30.4079 22.4733 30.8057 22.5458C30.9721 22.6184 31.1397 22.7022 31.2957 22.7957C31.3692 22.8479 31.4311 22.9098 31.6826 23.0987" stroke="#0D0D0D" stroke-width="2" stroke-linecap="round"/>
<path d="M32.3578 5.34365C32.2845 5.34365 32.027 5.34365 31.6023 5.2887C31.1842 5.23459 30.7691 4.75415 30.3439 4.29231C29.7538 3.65137 29.9154 2.64481 30.062 2.10971C30.2525 1.4141 30.9501 1.16273 31.3004 1.05171C31.7405 0.9122 32.1713 1.08723 32.4483 1.25321C33.0769 1.62989 33.4658 2.60151 33.6711 3.32368C33.69 3.89376 33.6534 4.38002 33.5429 4.67532C33.4691 4.82409 33.3592 4.97063 33.0239 5.23263" stroke="#FCA8A8" stroke-width="2" stroke-linecap="round"/>
<path d="M32.8016 5.34338C31.5559 5.5632 30.6212 5.67644 30.1038 5.76803C29.6494 5.84848 29.5088 6.4147 29.3978 6.91206C29.3288 7.2209 29.36 7.66587 29.4516 7.96562C29.5432 8.26537 29.7264 8.41191 29.9306 8.50572C30.3339 8.69089 30.8743 8.67391 31.3733 8.61896C32.0938 8.53961 32.5773 7.71472 33.1696 6.5507C33.6767 5.55401 34.1316 4.38419 34.7233 3.80967C35.3601 3.19136 37.4843 3.23405 38.776 3.50993C39.1615 3.59227 39.1296 4.37753 39.0563 5.00589C38.8893 6.43832 35.7657 6.3048 34.4163 6.43413C33.553 6.51687 33.6164 7.74581 33.5232 8.39359C33.393 9.29802 34.3891 9.92842 35.1113 10.3014C35.6189 10.5636 36.1676 10.3025 36.4996 10.1921C36.9217 10.0516 37.3511 9.67529 37.7024 9.26897C37.9465 8.98674 37.9084 8.56512 37.8351 8.15879C37.7618 7.97228 37.6153 7.82574 37.4665 7.69529C37.3178 7.56485 37.1712 7.45494 36.7982 7.23068" stroke="#FCA8A8" stroke-width="2" stroke-linecap="round"/>
</svg>
