<svg width="50" height="36" viewBox="0 0 50 36" fill="none" xmlns="http://www.w3.org/2000/svg">
<path d="M13.0262 13.7826C11.8426 13.7263 9.11042 13.9498 7.80062 14.7462C6.72121 15.4026 5.19126 16.9582 4.16031 18.0992C3.2878 19.0648 3.42099 20.4271 3.3613 23.4637C3.33208 24.95 3.98379 25.83 4.52528 26.7408C5.0752 27.6657 6.19749 28.3882 8.10164 29.3561C10.0652 30.3541 13.1353 29.5309 14.3556 29.0772C16.7946 28.1705 17.8526 27.6003 18.6516 26.8891C19.6459 26.0042 19.9606 24.3053 20.4432 22.0106C21.0299 19.2214 20.4739 17.139 20.3324 16.6853C19.9013 15.3039 18.0334 14.2397 16.953 14.0674C15.848 13.8913 14.9636 13.6701 11.3633 13.6965C10.3274 13.7041 9.73292 14.4051 8.96716 15.0003C7.42618 16.1981 7.56868 20.1815 8.24746 23.636C8.45863 24.7106 9.15817 25.2638 9.72439 25.6049C11.092 26.4288 12.6783 24.4759 13.9591 23.4236C15.0193 22.5525 15.4121 21.2338 15.6961 20.4681C15.9498 19.7837 15.9255 18.6227 15.5034 18.245C13.7127 16.6424 13.0296 22.8694 12.321 23.2207C9.91408 24.414 11.0939 18.8393 11.0086 19.4345C10.9796 19.7484 10.9796 20.086 11.0359 20.3725C11.0922 20.6591 11.2047 20.8842 11.3207 21.1161" stroke="#AFECB2" stroke-width="6.72" stroke-linecap="round"/>
<path d="M30.7355 12.6339C28.6515 12.6339 22.9654 12.859 20.9342 13.3988C19.5293 13.7722 19.4249 16.3177 19.1674 18.3097C18.9285 20.1569 19.3072 21.8946 19.6475 22.8317C20.0832 24.0318 21.3521 24.8519 22.2048 25.3098C23.1932 25.8405 24.1934 26.1071 25.892 26.2487C28.6999 26.4827 31.2966 25.6023 32.5177 24.3257C34.0095 22.7662 33.7474 20.9429 33.8335 19.744C33.9398 18.264 33.7508 16.3382 33.3236 15.054C33.0049 14.0959 32.0487 13.2069 30.9393 12.5222C29.5281 11.6512 28.0716 11.7266 26.5341 11.5825C24.0501 11.3497 20.281 11.7778 19.482 12.4608C18.7169 13.1148 18.3436 14.22 17.6631 15.8112C17.0751 17.1863 16.9792 18.5962 16.9775 21.3778C16.9765 23.0686 17.658 24.1697 18.1415 25.0804C18.6673 26.0707 19.4761 26.7859 20.4703 27.4126C21.3012 27.9364 22.5425 27.9251 27.3058 27.8987C29.3142 27.8875 30.2751 26.9632 31.2438 26.3083C32.0814 25.742 33.2289 24.8621 34.1439 23.6956C35.0411 22.5517 35.1663 20.6598 35.2559 18.8367C35.3277 17.3737 33.3585 16.5053 31.8236 15.8479C30.1405 15.1269 27.3399 15.3627 24.8125 15.5315C23.2722 15.6344 22.6653 16.7236 22.1835 17.6011C20.9183 19.9053 21.1849 21.6661 21.3819 22.6049C22.1626 26.3258 29.54 16.7867 29.6833 16.5292C30.9778 14.2022 27.0978 22.749 27.2095 23.2334C28.4025 22.529 29.1409 21.5057 29.6798 21.1067C29.9374 21.0453 30.1625 21.2704 30.565 21.5023" stroke="#AFECB2" stroke-width="6.72" stroke-linecap="round"/>
<path d="M40.6406 10.7721C36.6106 10.6016 34.6783 10.7141 33.5101 11.0834C33.0303 11.235 32.4578 11.6214 31.8899 12.2738C31.0521 13.2361 31.2606 17.1642 31.4584 19.7207C31.5973 21.5157 32.3964 22.8195 32.9635 23.8437C33.4705 24.7594 34.6101 25.04 36.1698 25.5227C37.7092 25.9991 39.1586 25.4408 39.8399 25.1006C40.8192 24.6116 41.6025 23.5119 42.3436 22.3735C43.1216 21.1782 43.1409 19.5894 43.1144 16.0164C43.1084 15.2054 42.8612 14.8721 42.4646 14.5293C40.5013 12.8319 37.5845 12.5936 36.2098 12.336C35.3108 12.1676 31.6904 12.1365 29.2183 12.8715C27.5248 13.3751 27.9076 16.3899 27.8778 19.3736C27.8606 21.0879 28.757 21.9668 29.7777 23.3295C31.0966 25.0902 31.7688 25.7768 32.6778 26.1767C33.8897 26.7099 37.1444 26.9741 39.7248 26.4087C41.7652 25.9616 42.8509 24.8183 44.0192 24.021C45.1672 23.2375 45.7536 22.0896 46.2388 20.7542C47.0054 18.6443 46.2141 15.0972 45.8722 14.1302C45.362 12.6876 43.9424 11.9114 42.7205 11.3707C41.6449 10.8949 39.1808 11.1132 36.8383 11.9617C36.0036 12.264 35.6402 13.3815 35.2991 14.4312C35.0246 15.2762 35.2394 16.0557 35.381 16.6799C35.4471 16.9714 35.5788 17.1915 35.8057 17.223C36.3811 17.3031 36.8869 16.6304 37.199 16.0633C37.7571 15.0494 34.5624 22.4682 34.0473 24.9198C33.9521 25.3732 33.9893 25.6608 34.1582 25.4963C36.6454 23.0718 38.8772 19.7565 39.0759 19.528C39.8802 18.6028 39.6174 22.4239 39.7299 22.6242C39.9531 23.0216 40.4684 21.7468 40.7242 21.2079C40.8112 20.9503 40.8112 20.7252 40.7268 20.4685C40.6424 20.2119 40.4735 19.9305 39.9585 19.1289" stroke="#AFECB2" stroke-width="6.72" stroke-linecap="round"/>
<path d="M16.8604 10.7882C17.1041 10.2964 18.3123 9.15747 18.8807 8.78491C19.459 8.40586 20.1219 8.16327 20.7605 7.89769C21.6689 7.51994 22.321 7.41815 23.2945 7.2936C26.2685 6.91311 28.0691 7.73535 28.6737 7.93122C29.734 8.27469 31.0858 9.29585 31.6542 9.72217C32.2062 10.1362 32.7889 10.537 33.5872 11.3705C33.8193 11.7079 33.9971 11.9932 34.1919 12.2763C34.2813 12.419 34.3515 12.5595 34.5304 12.8107" stroke="#AFECB2" stroke-width="6.72" stroke-linecap="round"/>
<path d="M18.8604 30.5459C19.1084 30.8993 19.4607 31.3953 20.0291 31.6982C20.589 31.9965 21.2703 32.1064 21.8387 32.2309C22.3964 32.3531 22.9734 32.4257 23.5418 32.4795C24.1553 32.5375 26.9609 32.6748 28.6512 32.5689C29.2455 32.5317 29.7859 32.1085 30.4427 31.7184C31.0292 31.257 31.5955 30.7609 32.058 30.2287C32.165 30.0861 32.2704 29.9455 32.4854 29.6943" stroke="#AFECB2" stroke-width="6.72" stroke-linecap="round"/>
<path d="M20.7607 17.3701V17.6582" stroke="#0D0D0D" stroke-width="2.5" stroke-linecap="round"/>
<path d="M27.9609 17.1943V17.3864" stroke="#0D0D0D" stroke-width="2.5" stroke-linecap="round"/>
<path d="M18.3604 24.7306C18.4429 24.4417 18.6506 24.107 18.942 23.805C19.1237 23.6166 19.3185 23.6048 19.4952 23.6254C19.9318 23.6764 20.3593 24.0414 20.7255 24.24C21.0508 24.4164 21.34 24.6881 21.7259 24.71C22.2375 24.739 22.7573 24.0439 23.2677 23.6899C23.7332 23.367 24.341 23.2295 24.8304 23.2605C25.3682 23.2945 25.6557 23.7286 26.0935 23.9688C26.2774 24.0697 26.7584 24.1052 27.3938 24.0742C27.9141 24.0489 28.1575 23.6473 28.823 23.2211C29.7877 22.6032 30.4079 22.6666 30.8057 22.7392C30.9721 22.8117 31.1397 22.8955 31.2957 22.989C31.3692 23.0413 31.4311 23.1032 31.6826 23.2921" stroke="#0D0D0D" stroke-width="2" stroke-linecap="round"/>
<path d="M10.9618 6.19946C7.71732 5.11147 5.56994 4.77349 4.71055 5.38859C2.9989 6.61371 3.46994 8.28205 3.55993 9.07832C3.60138 9.44508 3.84087 9.69779 4.08608 9.84565C5.84903 10.9087 10.1777 8.32754 11.9788 6.5957C13.7478 4.89489 14.5113 2.61357 16.2964 1.06484C16.6736 0.737543 17.1712 0.773977 17.5569 0.858344C19.1717 1.21161 19.4281 3.28727 19.6856 4.20288C19.8246 4.69684 19.8947 5.27244 19.1579 5.6918C15.3475 7.86051 13.3881 6.55031 11.4912 6.92528C10.7466 8.07685 10.3814 9.45999 9.97399 12.9154C9.95541 13.739 10.0354 14.2379 10.0139 14.104" stroke="#FF0000" stroke-width="1.6" stroke-linecap="round"/>
<path d="M13.2598 6.7168C14.3461 7.56598 15.4325 8.41517 16.1219 8.97802C16.8113 9.54087 17.0708 9.79165 17.3285 10.0106C17.5862 10.2296 17.8343 10.4091 18.3404 10.7754" stroke="#FF0000" stroke-width="1.6" stroke-linecap="round"/>
</svg>
