<svg width="50" height="51" viewBox="0 0 50 51" fill="none" xmlns="http://www.w3.org/2000/svg">
<path d="M28.1465 6.29329C29.8601 5.64175 28.0711 6.25499 26.3601 6.14175C24.6491 6.02852 20.9208 5.94217 19.1791 5.85166C17.4374 5.76114 17.451 5.8252 17.4937 5.90687C17.5364 5.98853 17.6078 6.08586 18.969 7.34706C20.3301 8.60826 22.9787 11.0304 24.374 12.2529C25.7692 13.4754 27.4387 14.1952 27.3602 13.1418C27.2817 12.0883 25.4534 9.26302 25.2271 7.83606C25.0008 6.40911 24.7754 5.67239 24.4609 4.82349C24.1465 3.97458 23.7498 3.03582 23.5233 2.498C23.2968 1.96019 23.2524 1.85177 23.2043 1.83473C23.1562 1.81769 23.1057 1.8953 22.4298 3.81153C21.7538 5.72776 20.454 9.48027 19.7739 11.4651C19.0938 13.45 19.0729 13.5535 19.1218 13.5981C19.2479 13.7132 19.8039 13.4797 21.149 12.8224C22.1296 12.3432 23.6103 11.3668 24.7413 10.504C25.8723 9.6412 26.5819 8.87002 27.0196 8.3705C28.0362 7.21009 29.3204 6.01242 29.3601 5.90684C29.3849 5.85794 28.3864 6.18606 28.4214 6.21564C28.4564 6.24523 28.4909 6.34502 28.5264 6.44783" stroke="#FFEC6F" stroke-width="2" stroke-linecap="round"/>
<path d="M23.5625 12.7627V20.0836" stroke="#FFEC6F" stroke-width="2" stroke-linecap="round"/>
<path d="M13.0262 28.5883C11.8426 28.532 9.11042 28.7554 7.80062 29.5519C6.72121 30.2082 5.19126 31.7639 4.16031 32.9048C3.2878 33.8704 3.42099 35.2328 3.3613 38.2694C3.33208 39.7556 3.98379 40.6357 4.52528 41.5464C5.0752 42.4713 6.19749 43.1939 8.10164 44.1618C10.0652 45.1598 13.1353 44.3366 14.3556 43.8829C16.7946 42.9762 17.8526 42.406 18.6516 41.6948C19.6459 40.8098 19.9606 39.111 20.4432 36.8163C21.0299 34.027 20.4739 31.9446 20.3324 31.491C19.9013 30.1096 18.0334 29.0454 16.953 28.8731C15.848 28.6969 14.9636 28.4757 11.3633 28.5022C10.3274 28.5098 9.73292 29.2108 8.96716 29.806C7.42618 31.0038 7.56868 34.9872 8.24746 38.4416C8.45863 39.5163 9.15817 40.0695 9.72439 40.4106C11.092 41.2345 12.6783 39.2816 13.9591 38.2293C15.0193 37.3582 15.4121 36.0395 15.6961 35.2737C15.9498 34.5894 15.9255 33.4284 15.5034 33.0506C13.7127 31.4481 13.0296 37.675 12.321 38.0263C9.91408 39.2196 11.0939 33.645 11.0086 34.2402C10.9796 34.554 10.9796 34.8917 11.0359 35.1782C11.0922 35.4647 11.2047 35.6899 11.3207 35.9218" stroke="#AFECB2" stroke-width="6.72" stroke-linecap="round"/>
<path d="M30.7355 27.4396C28.6515 27.4396 22.9654 27.6647 20.9342 28.2045C19.5293 28.5778 19.4249 31.1234 19.1674 33.1154C18.9285 34.9626 19.3072 36.7002 19.6475 37.6374C20.0832 38.8375 21.3521 39.6575 22.2048 40.1154C23.1932 40.6462 24.1934 40.9128 25.892 41.0543C28.6999 41.2883 31.2966 40.4079 32.5177 39.1314C34.0095 37.5719 33.7474 35.7486 33.8335 34.5497C33.9398 33.0697 33.7508 31.1438 33.3236 29.8596C33.0049 28.9016 32.0487 28.0126 30.9393 27.3279C29.5281 26.4568 28.0716 26.5323 26.5341 26.3882C24.0501 26.1553 20.281 26.5834 19.482 27.2665C18.7169 27.9205 18.3436 29.0257 17.6631 30.6169C17.0751 31.992 16.9792 33.4019 16.9775 36.1835C16.9765 37.8743 17.658 38.9753 18.1415 39.8861C18.6673 40.8764 19.4761 41.5915 20.4703 42.2183C21.3012 42.742 22.5425 42.7308 27.3058 42.7044C29.3142 42.6932 30.2751 41.7689 31.2438 41.114C32.0814 40.5477 33.2289 39.6678 34.1439 38.5012C35.0411 37.3574 35.1663 35.4655 35.2559 33.6424C35.3277 32.1793 33.3585 31.311 31.8236 30.6535C30.1405 29.9326 27.3399 30.1683 24.8125 30.3372C23.2722 30.44 22.6653 31.5293 22.1835 32.4067C20.9183 34.7109 21.1849 36.4717 21.3819 37.4106C22.1626 41.1314 29.54 31.5924 29.6833 31.3349C30.9778 29.0078 27.0978 37.5547 27.2095 38.039C28.4025 37.3347 29.1409 36.3114 29.6798 35.9123C29.9374 35.8509 30.1625 36.0761 30.565 36.308" stroke="#AFECB2" stroke-width="6.72" stroke-linecap="round"/>
<path d="M40.6406 25.5778C36.6106 25.4072 34.6783 25.5198 33.5101 25.889C33.0303 26.0407 32.4578 26.4271 31.8899 27.0794C31.0521 28.0418 31.2606 31.9699 31.4584 34.5264C31.5973 36.3214 32.3964 37.6252 32.9635 38.6493C33.4705 39.5651 34.6101 39.8457 36.1698 40.3284C37.7092 40.8047 39.1586 40.2465 39.8399 39.9063C40.8192 39.4172 41.6025 38.3176 42.3436 37.1792C43.1216 35.9839 43.1409 34.3951 43.1144 30.8221C43.1084 30.011 42.8612 29.6777 42.4646 29.3349C40.5013 27.6376 37.5845 27.3992 36.2098 27.1417C35.3108 26.9733 31.6904 26.9422 29.2183 27.6772C27.5248 28.1808 27.9076 31.1956 27.8778 34.1793C27.8606 35.8936 28.757 36.7725 29.7777 38.1351C31.0966 39.8958 31.7688 40.5825 32.6778 40.9824C33.8897 41.5156 37.1444 41.7797 39.7248 41.2143C41.7652 40.7673 42.8509 39.624 44.0192 38.8267C45.1672 38.0432 45.7536 36.8953 46.2388 35.5599C47.0054 33.45 46.2141 29.9028 45.8722 28.9359C45.362 27.4932 43.9424 26.717 42.7205 26.1764C41.6449 25.7005 39.1808 25.9189 36.8383 26.7673C36.0036 27.0697 35.6402 28.1871 35.2991 29.2369C35.0246 30.0818 35.2394 30.8613 35.381 31.4855C35.4471 31.7771 35.5788 31.9972 35.8057 32.0287C36.3811 32.1087 36.8869 31.4361 37.199 30.869C37.7571 29.8551 34.5624 37.2739 34.0473 39.7255C33.9521 40.1788 33.9893 40.4665 34.1582 40.3019C36.6454 37.8775 38.8772 34.5622 39.0759 34.3337C39.8802 33.4085 39.6174 37.2295 39.7299 37.4299C39.9531 37.8273 40.4684 36.5525 40.7242 36.0135C40.8112 35.756 40.8112 35.5309 40.7268 35.2742C40.6424 35.0175 40.4735 34.7361 39.9585 33.9346" stroke="#AFECB2" stroke-width="6.72" stroke-linecap="round"/>
<path d="M16.8604 25.5939C17.1041 25.1021 18.3123 23.9631 18.8807 23.5906C19.459 23.2115 20.1219 22.9689 20.7605 22.7034C21.6689 22.3256 22.321 22.2238 23.2945 22.0993C26.2685 21.7188 28.0691 22.541 28.6737 22.7369C29.734 23.0804 31.0858 24.1015 31.6542 24.5278C32.2062 24.9418 32.7889 25.3427 33.5872 26.1761C33.8193 26.5136 33.9971 26.7989 34.1919 27.082C34.2813 27.2246 34.3515 27.3651 34.5304 27.6164" stroke="#AFECB2" stroke-width="6.72" stroke-linecap="round"/>
<path d="M18.8604 45.3516C19.1084 45.705 19.4607 46.201 20.0291 46.5038C20.589 46.8021 21.2703 46.9121 21.8387 47.0366C22.3964 47.1588 22.9734 47.2314 23.5418 47.2852C24.1553 47.3432 26.9609 47.4805 28.6512 47.3746C29.2455 47.3373 29.7859 46.9142 30.4427 46.5241C31.0292 46.0626 31.5955 45.5666 32.058 45.0344C32.165 44.8917 32.2704 44.7512 32.4854 44.5" stroke="#AFECB2" stroke-width="6.72" stroke-linecap="round"/>
<path d="M20.7607 32.1758V32.4638" stroke="#0D0D0D" stroke-width="2.5" stroke-linecap="round"/>
<path d="M27.9609 32V32.192" stroke="#0D0D0D" stroke-width="2.5" stroke-linecap="round"/>
<path d="M18.3604 39.5363C18.4429 39.2473 18.6506 38.9127 18.942 38.6106C19.1237 38.4223 19.3185 38.4105 19.4952 38.4311C19.9318 38.4821 20.3593 38.847 20.7255 39.0456C21.0508 39.222 21.34 39.4938 21.7259 39.5157C22.2375 39.5447 22.7573 38.8495 23.2677 38.4955C23.7332 38.1726 24.341 38.0352 24.8304 38.0662C25.3682 38.1002 25.6557 38.5343 26.0935 38.7745C26.2774 38.8754 26.7584 38.9108 27.3938 38.8799C27.9141 38.8545 28.1575 38.453 28.823 38.0268C29.7877 37.4088 30.4079 37.4723 30.8057 37.5448C30.9721 37.6174 31.1397 37.7012 31.2957 37.7947C31.3692 37.8469 31.4311 37.9089 31.6826 38.0977" stroke="#0D0D0D" stroke-width="2" stroke-linecap="round"/>
</svg>
