<svg width="50" height="33" viewBox="0 0 50 33" fill="none" xmlns="http://www.w3.org/2000/svg">
<path d="M13.0262 9.94864C11.8426 9.89236 9.11042 10.1158 7.80062 10.9122C6.72121 11.5686 5.19126 13.1242 4.16031 14.2652C3.2878 15.2308 3.42099 16.5931 3.3613 19.6297C3.33208 21.116 3.98379 21.9961 4.52528 22.9068C5.0752 23.8317 6.19749 24.5543 8.10164 25.5221C10.0652 26.5202 13.1353 25.6969 14.3556 25.2433C16.7946 24.3365 17.8526 23.7663 18.6516 23.0551C19.6459 22.1702 19.9606 20.4714 20.4432 18.1767C21.0299 15.3874 20.4739 13.305 20.3324 12.8513C19.9013 11.4699 18.0334 10.4057 16.953 10.2335C15.848 10.0573 14.9636 9.83608 11.3633 9.86251C10.3274 9.87012 9.73292 10.5711 8.96716 11.1663C7.42618 12.3641 7.56868 16.3476 8.24746 19.802C8.45863 20.8766 9.15817 21.4298 9.72439 21.7709C11.092 22.5948 12.6783 20.6419 13.9591 19.5896C15.0193 18.7186 15.4121 17.3998 15.6961 16.6341C15.9498 15.9497 15.9255 14.7888 15.5034 14.411C13.7127 12.8084 13.0296 19.0354 12.321 19.3867C9.91408 20.58 11.0939 15.0054 11.0086 15.6006C10.9796 15.9144 10.9796 16.252 11.0359 16.5386C11.0922 16.8251 11.2047 17.0502 11.3207 17.2822" stroke="#AFECB2" stroke-width="6.72" stroke-linecap="round"/>
<path d="M30.7355 8.79994C28.6515 8.79994 22.9654 9.02505 20.9342 9.56483C19.5293 9.93818 19.4249 12.4837 19.1674 14.4757C18.9285 16.3229 19.3072 18.0606 19.6475 18.9978C20.0832 20.1979 21.3521 21.0179 22.2048 21.4758C23.1932 22.0066 24.1934 22.2731 25.892 22.4147C28.6999 22.6487 31.2966 21.7683 32.5177 20.4917C34.0095 18.9322 33.7474 17.109 33.8335 15.91C33.9398 14.43 33.7508 12.5042 33.3236 11.22C33.0049 10.262 32.0487 9.37296 30.9393 8.68822C29.5281 7.81719 28.0716 7.89262 26.5341 7.74851C24.0501 7.51568 20.281 7.94378 19.482 8.62682C18.7169 9.28086 18.3436 10.386 17.6631 11.9772C17.0751 13.3524 16.9792 14.7622 16.9775 17.5438C16.9765 19.2346 17.658 20.3357 18.1415 21.2464C18.6673 22.2367 19.4761 22.9519 20.4703 23.5786C21.3012 24.1024 22.5425 24.0911 27.3058 24.0647C29.3142 24.0536 30.2751 23.1292 31.2438 22.4744C32.0814 21.9081 33.2289 21.0281 34.1439 19.8616C35.0411 18.7178 35.1663 16.8258 35.2559 15.0027C35.3277 13.5397 33.3585 12.6713 31.8236 12.0139C30.1405 11.2929 27.3399 11.5287 24.8125 11.6975C23.2722 11.8004 22.6653 12.8896 22.1835 13.7671C20.9183 16.0713 21.1849 17.8321 21.3819 18.7709C22.1626 22.4918 29.54 12.9527 29.6833 12.6952C30.9778 10.3682 27.0978 18.915 27.2095 19.3994C28.4025 18.695 29.1409 17.6718 29.6798 17.2727C29.9374 17.2113 30.1625 17.4364 30.565 17.6683" stroke="#AFECB2" stroke-width="6.72" stroke-linecap="round"/>
<path d="M40.6406 6.93815C36.6106 6.76759 34.6783 6.88016 33.5101 7.24939C33.0303 7.40104 32.4578 7.78746 31.8899 8.4398C31.0521 9.40216 31.2606 13.3302 31.4584 15.8867C31.5973 17.6817 32.3964 18.9855 32.9635 20.0097C33.4705 20.9254 34.6101 21.2061 36.1698 21.6887C37.7092 22.1651 39.1586 21.6068 39.8399 21.2666C40.8192 20.7776 41.6025 19.678 42.3436 18.5396C43.1216 17.3442 43.1409 15.7554 43.1144 12.1824C43.1084 11.3714 42.8612 11.0381 42.4646 10.6953C40.5013 8.99793 37.5845 8.75958 36.2098 8.50205C35.3108 8.33362 31.6904 8.30251 29.2183 9.03756C27.5248 9.54111 27.9076 12.5559 27.8778 15.5397C27.8606 17.2539 28.757 18.1328 29.7777 19.4955C31.0966 21.2562 31.7688 21.9428 32.6778 22.3428C33.8897 22.8759 37.1444 23.1401 39.7248 22.5747C41.7652 22.1276 42.8509 20.9843 44.0192 20.187C45.1672 19.4035 45.7536 18.2556 46.2388 16.9202C47.0054 14.8104 46.2141 11.2632 45.8722 10.2962C45.362 8.85358 43.9424 8.07738 42.7205 7.53675C41.6449 7.06089 39.1808 7.27923 36.8383 8.1277C36.0036 8.43003 35.6402 9.5475 35.2991 10.5972C35.0246 11.4422 35.2394 12.2217 35.381 12.8459C35.4471 13.1374 35.5788 13.3575 35.8057 13.3891C36.3811 13.4691 36.8869 12.7964 37.199 12.2293C37.7571 11.2154 34.5624 18.6342 34.0473 21.0858C33.9521 21.5392 33.9893 21.8268 34.1582 21.6623C36.6454 19.2378 38.8772 15.9225 39.0759 15.694C39.8802 14.7689 39.6174 18.5899 39.7299 18.7903C39.9531 19.1877 40.4684 17.9128 40.7242 17.3739C40.8112 17.1164 40.8112 16.8912 40.7268 16.6346C40.6424 16.3779 40.4735 16.0965 39.9585 15.2949" stroke="#AFECB2" stroke-width="6.72" stroke-linecap="round"/>
<path d="M16.8604 6.95424C17.1041 6.46246 18.3123 5.32349 18.8807 4.95093C19.459 4.57188 20.1219 4.32928 20.7605 4.0637C21.6689 3.68595 22.321 3.58416 23.2945 3.45962C26.2685 3.07912 28.0691 3.90137 28.6737 4.09723C29.734 4.4407 31.0858 5.46187 31.6542 5.88818C32.2062 6.3022 32.7889 6.70303 33.5872 7.5365C33.8193 7.87393 33.9971 8.1592 34.1919 8.44235C34.2813 8.58499 34.3515 8.7255 34.5304 8.97671" stroke="#AFECB2" stroke-width="6.72" stroke-linecap="round"/>
<path d="M18.8604 26.7119C19.1084 27.0653 19.4607 27.5614 20.0291 27.8642C20.589 28.1625 21.2703 28.2724 21.8387 28.397C22.3964 28.5191 22.9734 28.5917 23.5418 28.6455C24.1553 28.7035 26.9609 28.8408 28.6512 28.7349C29.2455 28.6977 29.7859 28.2745 30.4427 27.8844C31.0292 27.423 31.5955 26.9269 32.058 26.3947C32.165 26.2521 32.2704 26.1116 32.4854 25.8604" stroke="#AFECB2" stroke-width="6.72" stroke-linecap="round"/>
<path d="M20.7607 13.5361V13.8242" stroke="#0D0D0D" stroke-width="2.5" stroke-linecap="round"/>
<path d="M27.9609 13.3604V13.5524" stroke="#0D0D0D" stroke-width="2.5" stroke-linecap="round"/>
<path d="M18.3604 20.8966C18.4429 20.6077 18.6506 20.2731 18.942 19.971C19.1237 19.7826 19.3185 19.7708 19.4952 19.7915C19.9318 19.8425 20.3593 20.2074 20.7255 20.406C21.0508 20.5824 21.34 20.8541 21.7259 20.876C22.2375 20.905 22.7573 20.2099 23.2677 19.8559C23.7332 19.533 24.341 19.3956 24.8304 19.4265C25.3682 19.4605 25.6557 19.8947 26.0935 20.1348C26.2774 20.2357 26.7584 20.2712 27.3938 20.2402C27.9141 20.2149 28.1575 19.8134 28.823 19.3871C29.7877 18.7692 30.4079 18.8326 30.8057 18.9052C30.9721 18.9777 31.1397 19.0616 31.2957 19.1551C31.3692 19.2073 31.4311 19.2692 31.6826 19.4581" stroke="#0D0D0D" stroke-width="2" stroke-linecap="round"/>
<path d="M24.8782 14.4952C24.5133 14.3829 24.1475 14.3263 23.9085 14.3821C23.4444 14.4903 23.471 15.2808 23.3722 15.7884C23.3451 15.9276 23.3578 16.0967 23.4832 16.2525C23.7831 16.6251 24.5361 16.6913 25.2253 16.6635C25.4977 16.6525 25.608 16.5799 25.7072 16.4954C26.1003 16.1608 26.0607 15.568 26.0049 15.1038C25.8377 14.8348 25.6113 14.6929 25.303 14.6084C25.1062 14.5797 24.8275 14.5797 24.5403 14.5797" stroke="#FF0004" stroke-width="2" stroke-linecap="round"/>
</svg>
