<svg width="50" height="36" viewBox="0 0 50 36" fill="none" xmlns="http://www.w3.org/2000/svg">
<path d="M13.0262 13.682C11.8426 13.6258 9.11042 13.8492 7.80062 14.6456C6.72121 15.302 5.19126 16.8576 4.16031 17.9986C3.2878 18.9642 3.42099 20.3265 3.3613 23.3631C3.33208 24.8494 3.98379 25.7295 4.52528 26.6402C5.0752 27.5651 6.19749 28.2877 8.10164 29.2555C10.0652 30.2536 13.1353 29.4303 14.3556 28.9767C16.7946 28.0699 17.8526 27.4997 18.6516 26.7885C19.6459 25.9036 19.9606 24.2048 20.4432 21.9101C21.0299 19.1208 20.4739 17.0384 20.3324 16.5847C19.9013 15.2033 18.0334 14.1391 16.953 13.9669C15.848 13.7907 14.9636 13.5695 11.3633 13.5959C10.3274 13.6035 9.73292 14.3045 8.96716 14.8997C7.42618 16.0975 7.56868 20.081 8.24746 23.5354C8.45863 24.61 9.15817 25.1632 9.72439 25.5043C11.092 26.3282 12.6783 24.3753 13.9591 23.323C15.0193 22.452 15.4121 21.1332 15.6961 20.3675C15.9498 19.6831 15.9255 18.5222 15.5034 18.1444C13.7127 16.5418 13.0296 22.7688 12.321 23.1201C9.91408 24.3134 11.0939 18.7388 11.0086 19.334C10.9796 19.6478 10.9796 19.9854 11.0359 20.272C11.0922 20.5585 11.2047 20.7836 11.3207 21.0156" stroke="#AFECB2" stroke-width="6.72" stroke-linecap="round"/>
<path d="M30.7355 12.5333C28.6515 12.5333 22.9654 12.7584 20.9342 13.2982C19.5293 13.6716 19.4249 16.2171 19.1674 18.2091C18.9285 20.0563 19.3072 21.794 19.6475 22.7312C20.0832 23.9313 21.3521 24.7513 22.2048 25.2092C23.1932 25.74 24.1934 26.0065 25.892 26.1481C28.6999 26.3821 31.2966 25.5017 32.5177 24.2251C34.0095 22.6656 33.7474 20.8424 33.8335 19.6434C33.9398 18.1634 33.7508 16.2376 33.3236 14.9534C33.0049 13.9954 32.0487 13.1064 30.9393 12.4216C29.5281 11.5506 28.0716 11.626 26.5341 11.4819C24.0501 11.2491 20.281 11.6772 19.482 12.3602C18.7169 13.0143 18.3436 14.1194 17.6631 15.7106C17.0751 17.0858 16.9792 18.4956 16.9775 21.2772C16.9765 22.968 17.658 24.0691 18.1415 24.9798C18.6673 25.9701 19.4761 26.6853 20.4703 27.312C21.3012 27.8358 22.5425 27.8245 27.3058 27.7981C29.3142 27.787 30.2751 26.8626 31.2438 26.2078C32.0814 25.6415 33.2289 24.7615 34.1439 23.595C35.0411 22.4512 35.1663 20.5592 35.2559 18.7361C35.3277 17.2731 33.3585 16.4047 31.8236 15.7473C30.1405 15.0263 27.3399 15.2621 24.8125 15.4309C23.2722 15.5338 22.6653 16.623 22.1835 17.5005C20.9183 19.8047 21.1849 21.5655 21.3819 22.5043C22.1626 26.2252 29.54 16.6861 29.6833 16.4286C30.9778 14.1016 27.0978 22.6484 27.2095 23.1328C28.4025 22.4284 29.1409 21.4052 29.6798 21.0061C29.9374 20.9447 30.1625 21.1698 30.565 21.4017" stroke="#AFECB2" stroke-width="6.72" stroke-linecap="round"/>
<path d="M40.6406 10.6715C36.6106 10.501 34.6783 10.6136 33.5101 10.9828C33.0303 11.1344 32.4578 11.5209 31.8899 12.1732C31.0521 13.1356 31.2606 17.0636 31.4584 19.6201C31.5973 21.4151 32.3964 22.7189 32.9635 23.7431C33.4705 24.6588 34.6101 24.9395 36.1698 25.4221C37.7092 25.8985 39.1586 25.3402 39.8399 25C40.8192 24.511 41.6025 23.4114 42.3436 22.273C43.1216 21.0776 43.1409 19.4888 43.1144 15.9158C43.1084 15.1048 42.8612 14.7715 42.4646 14.4287C40.5013 12.7313 37.5845 12.493 36.2098 12.2355C35.3108 12.067 31.6904 12.0359 29.2183 12.771C27.5248 13.2745 27.9076 16.2893 27.8778 19.273C27.8606 20.9873 28.757 21.8662 29.7777 23.2289C31.0966 24.9896 31.7688 25.6762 32.6778 26.0762C33.8897 26.6093 37.1444 26.8735 39.7248 26.3081C41.7652 25.861 42.8509 24.7177 44.0192 23.9204C45.1672 23.1369 45.7536 21.989 46.2388 20.6536C47.0054 18.5438 46.2141 14.9966 45.8722 14.0296C45.362 12.587 43.9424 11.8108 42.7205 11.2702C41.6449 10.7943 39.1808 11.0126 36.8383 11.8611C36.0036 12.1634 35.6402 13.2809 35.2991 14.3306C35.0246 15.1756 35.2394 15.9551 35.381 16.5793C35.4471 16.8708 35.5788 17.0909 35.8057 17.1225C36.3811 17.2025 36.8869 16.5298 37.199 15.9627C37.7571 14.9488 34.5624 22.3676 34.0473 24.8192C33.9521 25.2726 33.9893 25.5602 34.1582 25.3957C36.6454 22.9712 38.8772 19.6559 39.0759 19.4274C39.8802 18.5023 39.6174 22.3233 39.7299 22.5237C39.9531 22.9211 40.4684 21.6462 40.7242 21.1073C40.8112 20.8497 40.8112 20.6246 40.7268 20.368C40.6424 20.1113 40.4735 19.8299 39.9585 19.0283" stroke="#AFECB2" stroke-width="6.72" stroke-linecap="round"/>
<path d="M16.8604 10.6876C17.1041 10.1959 18.3123 9.05688 18.8807 8.68432C19.459 8.30528 20.1219 8.06268 20.7605 7.7971C21.6689 7.41935 22.321 7.31756 23.2945 7.19302C26.2685 6.81252 28.0691 7.63477 28.6737 7.83063C29.734 8.1741 31.0858 9.19526 31.6542 9.62158C32.2062 10.0356 32.7889 10.4364 33.5872 11.2699C33.8193 11.6073 33.9971 11.8926 34.1919 12.1757C34.2813 12.3184 34.3515 12.4589 34.5304 12.7101" stroke="#AFECB2" stroke-width="6.72" stroke-linecap="round"/>
<path d="M18.8604 30.4453C19.1084 30.7987 19.4607 31.2948 20.0291 31.5976C20.589 31.8959 21.2703 32.0058 21.8387 32.1304C22.3964 32.2525 22.9734 32.3251 23.5418 32.3789C24.1553 32.4369 26.9609 32.5742 28.6512 32.4683C29.2455 32.4311 29.7859 32.0079 30.4427 31.6178C31.0292 31.1564 31.5955 30.6603 32.058 30.1281C32.165 29.9855 32.2704 29.845 32.4854 29.5938" stroke="#AFECB2" stroke-width="6.72" stroke-linecap="round"/>
<path d="M20.7607 17.2695V17.5576" stroke="#0D0D0D" stroke-width="2.5" stroke-linecap="round"/>
<path d="M27.9609 17.0938V17.2858" stroke="#0D0D0D" stroke-width="2.5" stroke-linecap="round"/>
<path d="M18.3604 24.63C18.4429 24.3411 18.6506 24.0065 18.942 23.7044C19.1237 23.516 19.3185 23.5042 19.4952 23.5249C19.9318 23.5759 20.3593 23.9408 20.7255 24.1394C21.0508 24.3158 21.34 24.5875 21.7259 24.6094C22.2375 24.6384 22.7573 23.9433 23.2677 23.5893C23.7332 23.2664 24.341 23.1289 24.8304 23.1599C25.3682 23.1939 25.6557 23.6281 26.0935 23.8682C26.2774 23.9691 26.7584 24.0046 27.3938 23.9736C27.9141 23.9483 28.1575 23.5468 28.823 23.1205C29.7877 22.5026 30.4079 22.566 30.8057 22.6386C30.9721 22.7111 31.1397 22.795 31.2957 22.8885C31.3692 22.9407 31.4311 23.0026 31.6826 23.1915" stroke="#0D0D0D" stroke-width="2" stroke-linecap="round"/>
<path d="M14.1113 4.22895C14.0438 4.811 13.828 6.11784 13.9577 7.02044C14.1096 8.07689 13.8457 9.12109 13.885 10.2185C13.8978 10.5753 14.0783 11.0409 14.2628 11.3079C14.4474 11.5748 14.6852 11.623 15.0959 11.5699C17.1379 11.3062 18.3614 9.89726 19.5132 9.21471C20.5441 8.60384 21.4341 7.81679 22.326 7.12101C23.6387 6.097 24.7814 5.49179 25.6942 4.8764C26.6815 4.21076 28.0416 3.70136 29.2143 3.52501C30.8382 3.28082 30.5985 7.03712 30.6227 7.96825C30.6504 9.03495 30.3186 9.78354 30.1479 10.1984C29.9852 10.5939 29.1049 10.7383 28.1328 10.9166C26.288 11.2551 23.583 9.40278 22.1211 8.54073C21.0858 7.93019 20.1489 6.8048 19.2085 6.06332C18.2581 5.31399 17.4463 4.58149 16.5886 3.93178C16.3786 3.78837 16.179 3.67368 15.9856 3.69528C15.7921 3.71689 15.6109 3.87828 14.8622 3.85575" stroke="#CDA8EE" stroke-width="2.4" stroke-linecap="round"/>
</svg>
