<svg width="50" height="43" viewBox="0 0 50 43" fill="none" xmlns="http://www.w3.org/2000/svg">
<path d="M23.7754 3.96094V15.8818" stroke="#62A565" stroke-width="1.6" stroke-linecap="round"/>
<path d="M24.2507 3.31553C23.9974 3.12527 23.046 2.42827 21.7376 1.70832C20.7923 1.18821 19.889 0.894674 18.789 0.813883C18.0357 0.758562 17.0226 0.860252 15.9995 1.22644C15.6245 1.36067 15.4871 1.78385 15.3914 2.22844C15.2712 2.78738 15.5167 3.34517 15.8346 3.72713C16.317 4.30675 16.9499 4.43035 18.1082 4.62157C21.2728 5.144 22.2716 4.39975 23.8453 3.73335C25.467 3.04664 25.7461 2.29823 26.2724 1.86703C26.9119 1.34312 28.0369 1.08589 30.0595 1.13131C30.5087 1.14139 31.3954 1.43678 31.5723 1.70832C32.3317 2.87419 31.9423 4.02114 31.752 4.32327C31.2238 5.16199 29.0676 5.16273 27.2691 5.19619C26.4832 5.00497 25.9736 4.87781 25.6079 4.76642C25.4315 4.71814 25.2738 4.68659 25.2068 4.65408" stroke="#62A565" stroke-width="1.6" stroke-linecap="round"/>
<path d="M13.0262 20.3881C11.8426 20.3318 9.11042 20.5552 7.80062 21.3517C6.72121 22.008 5.19126 23.5637 4.16031 24.7046C3.2878 25.6702 3.42099 27.0326 3.3613 30.0692C3.33208 31.5554 3.98379 32.4355 4.52528 33.3462C5.0752 34.2711 6.19749 34.9937 8.10164 35.9616C10.0652 36.9596 13.1353 36.1364 14.3556 35.6827C16.7946 34.776 17.8526 34.2058 18.6516 33.4946C19.6459 32.6096 19.9606 30.9108 20.4432 28.6161C21.0299 25.8268 20.4739 23.7445 20.3324 23.2908C19.9013 21.9094 18.0334 20.8452 16.953 20.6729C15.848 20.4967 14.9636 20.2755 11.3633 20.302C10.3274 20.3096 9.73292 21.0106 8.96716 21.6058C7.42618 22.8036 7.56868 26.787 8.24746 30.2414C8.45863 31.3161 9.15817 31.8693 9.72439 32.2104C11.092 33.0343 12.6783 31.0814 13.9591 30.0291C15.0193 29.158 15.4121 27.8393 15.6961 27.0735C15.9498 26.3892 15.9255 25.2282 15.5034 24.8504C13.7127 23.2479 13.0296 29.4748 12.321 29.8261C9.91408 31.0194 11.0939 25.4448 11.0086 26.04C10.9796 26.3538 10.9796 26.6915 11.0359 26.978C11.0922 27.2645 11.2047 27.4897 11.3207 27.7216" stroke="#AFECB2" stroke-width="6.72" stroke-linecap="round"/>
<path d="M30.7355 19.2394C28.6515 19.2394 22.9654 19.4645 20.9342 20.0043C19.5293 20.3776 19.4249 22.9232 19.1674 24.9152C18.9285 26.7624 19.3072 28.5001 19.6475 29.4372C20.0832 30.6373 21.3521 31.4573 22.2048 31.9153C23.1932 32.446 24.1934 32.7126 25.892 32.8541C28.6999 33.0881 31.2966 32.2077 32.5177 30.9312C34.0095 29.3717 33.7474 27.5484 33.8335 26.3495C33.9398 24.8695 33.7508 22.9437 33.3236 21.6594C33.0049 20.7014 32.0487 19.8124 30.9393 19.1277C29.5281 18.2566 28.0716 18.3321 26.5341 18.188C24.0501 17.9551 20.281 18.3832 19.482 19.0663C18.7169 19.7203 18.3436 20.8255 17.6631 22.4167C17.0751 23.7918 16.9792 25.2017 16.9775 27.9833C16.9765 29.6741 17.658 30.7752 18.1415 31.6859C18.6673 32.6762 19.4761 33.3913 20.4703 34.0181C21.3012 34.5418 22.5425 34.5306 27.3058 34.5042C29.3142 34.493 30.2751 33.5687 31.2438 32.9138C32.0814 32.3475 33.2289 31.4676 34.1439 30.301C35.0411 29.1572 35.1663 27.2653 35.2559 25.4422C35.3277 23.9791 33.3585 23.1108 31.8236 22.4533C30.1405 21.7324 27.3399 21.9681 24.8125 22.137C23.2722 22.2399 22.6653 23.3291 22.1835 24.2065C20.9183 26.5107 21.1849 28.2715 21.3819 29.2104C22.1626 32.9312 29.54 23.3922 29.6833 23.1347C30.9778 20.8076 27.0978 29.3545 27.2095 29.8388C28.4025 29.1345 29.1409 28.1112 29.6798 27.7121C29.9374 27.6507 30.1625 27.8759 30.565 28.1078" stroke="#AFECB2" stroke-width="6.72" stroke-linecap="round"/>
<path d="M40.6406 17.3776C36.6106 17.207 34.6783 17.3196 33.5101 17.6888C33.0303 17.8405 32.4578 18.2269 31.8899 18.8793C31.0521 19.8416 31.2606 23.7697 31.4584 26.3262C31.5973 28.1212 32.3964 29.425 32.9635 30.4491C33.4705 31.3649 34.6101 31.6455 36.1698 32.1282C37.7092 32.6045 39.1586 32.0463 39.8399 31.7061C40.8192 31.217 41.6025 30.1174 42.3436 28.979C43.1216 27.7837 43.1409 26.1949 43.1144 22.6219C43.1084 21.8108 42.8612 21.4775 42.4646 21.1347C40.5013 19.4374 37.5845 19.199 36.2098 18.9415C35.3108 18.7731 31.6904 18.742 29.2183 19.477C27.5248 19.9806 27.9076 22.9954 27.8778 25.9791C27.8606 27.6934 28.757 28.5723 29.7777 29.9349C31.0966 31.6956 31.7688 32.3823 32.6778 32.7822C33.8897 33.3154 37.1444 33.5795 39.7248 33.0142C41.7652 32.5671 42.8509 31.4238 44.0192 30.6265C45.1672 29.843 45.7536 28.6951 46.2388 27.3597C47.0054 25.2498 46.2141 21.7027 45.8722 20.7357C45.362 19.293 43.9424 18.5168 42.7205 17.9762C41.6449 17.5003 39.1808 17.7187 36.8383 18.5672C36.0036 18.8695 35.6402 19.987 35.2991 21.0367C35.0246 21.8817 35.2394 22.6611 35.381 23.2853C35.4471 23.5769 35.5788 23.797 35.8057 23.8285C36.3811 23.9085 36.8869 23.2359 37.199 22.6688C37.7571 21.6549 34.5624 29.0737 34.0473 31.5253C33.9521 31.9786 33.9893 32.2663 34.1582 32.1017C36.6454 29.6773 38.8772 26.362 39.0759 26.1335C39.8802 25.2083 39.6174 29.0293 39.7299 29.2297C39.9531 29.6271 40.4684 28.3523 40.7242 27.8133C40.8112 27.5558 40.8112 27.3307 40.7268 27.074C40.6424 26.8173 40.4735 26.5359 39.9585 25.7344" stroke="#AFECB2" stroke-width="6.72" stroke-linecap="round"/>
<path d="M16.8604 17.3937C17.1041 16.9019 18.3123 15.7629 18.8807 15.3904C19.459 15.0113 20.1219 14.7687 20.7605 14.5032C21.6689 14.1254 22.321 14.0236 23.2945 13.8991C26.2685 13.5186 28.0691 14.3408 28.6737 14.5367C29.734 14.8802 31.0858 15.9013 31.6542 16.3276C32.2062 16.7417 32.7889 17.1425 33.5872 17.976C33.8193 18.3134 33.9971 18.5987 34.1919 18.8818C34.2813 19.0244 34.3515 19.1649 34.5304 19.4162" stroke="#AFECB2" stroke-width="6.72" stroke-linecap="round"/>
<path d="M18.8604 37.1514C19.1084 37.5048 19.4607 38.0008 20.0291 38.3036C20.589 38.6019 21.2703 38.7119 21.8387 38.8364C22.3964 38.9586 22.9734 39.0312 23.5418 39.085C24.1553 39.143 26.9609 39.2803 28.6512 39.1744C29.2455 39.1371 29.7859 38.714 30.4427 38.3239C31.0292 37.8624 31.5955 37.3664 32.058 36.8342C32.165 36.6915 32.2704 36.551 32.4854 36.2998" stroke="#AFECB2" stroke-width="6.72" stroke-linecap="round"/>
<path d="M20.7607 23.9756V24.2636" stroke="#0D0D0D" stroke-width="2.5" stroke-linecap="round"/>
<path d="M27.9609 23.7998V23.9918" stroke="#0D0D0D" stroke-width="2.5" stroke-linecap="round"/>
<path d="M18.3604 31.3361C18.4429 31.0471 18.6506 30.7125 18.942 30.4104C19.1237 30.2221 19.3185 30.2103 19.4952 30.2309C19.9318 30.2819 20.3593 30.6468 20.7255 30.8454C21.0508 31.0218 21.34 31.2936 21.7259 31.3155C22.2375 31.3445 22.7573 30.6493 23.2677 30.2953C23.7332 29.9724 24.341 29.835 24.8304 29.866C25.3682 29.9 25.6557 30.3341 26.0935 30.5743C26.2774 30.6752 26.7584 30.7106 27.3938 30.6797C27.9141 30.6543 28.1575 30.2528 28.823 29.8266C29.7877 29.2086 30.4079 29.2721 30.8057 29.3446C30.9721 29.4172 31.1397 29.501 31.2957 29.5945C31.3692 29.6467 31.4311 29.7087 31.6826 29.8975" stroke="#0D0D0D" stroke-width="2" stroke-linecap="round"/>
</svg>
