<svg width="50" height="45" viewBox="0 0 50 45" fill="none" xmlns="http://www.w3.org/2000/svg">
<path d="M13.0262 21.8285C11.8426 21.7722 9.11042 21.9957 7.80062 22.7921C6.72121 23.4485 5.19126 25.0041 4.16031 26.1451C3.2878 27.1107 3.42099 28.473 3.3613 31.5096C3.33208 32.9959 3.98379 33.8759 4.52528 34.7867C5.0752 35.7116 6.19749 36.4341 8.10164 37.402C10.0652 38.4 13.1353 37.5768 14.3556 37.1231C16.7946 36.2164 17.8526 35.6462 18.6516 34.935C19.6459 34.0501 19.9606 32.3512 20.4432 30.0565C21.0299 27.2673 20.4739 25.1849 20.3324 24.7312C19.9013 23.3498 18.0334 22.2856 16.953 22.1133C15.848 21.9372 14.9636 21.716 11.3633 21.7424C10.3274 21.75 9.73292 22.451 8.96716 23.0462C7.42618 24.244 7.56868 28.2274 8.24746 31.6818C8.45863 32.7565 9.15817 33.3097 9.72439 33.6508C11.092 34.4747 12.6783 32.5218 13.9591 31.4695C15.0193 30.5984 15.4121 29.2797 15.6961 28.5139C15.9498 27.8296 15.9255 26.6686 15.5034 26.2909C13.7127 24.6883 13.0296 30.9153 12.321 31.2666C9.91408 32.4598 11.0939 26.8852 11.0086 27.4804C10.9796 27.7943 10.9796 28.1319 11.0359 28.4184C11.0922 28.705 11.2047 28.9301 11.3207 29.162" stroke="#AFECB2" stroke-width="6.72" stroke-linecap="round"/>
<path d="M30.7355 20.6798C28.6515 20.6798 22.9654 20.9049 20.9342 21.4447C19.5293 21.8181 19.4249 24.3636 19.1674 26.3556C18.9285 28.2028 19.3072 29.9405 19.6475 30.8776C20.0832 32.0777 21.3521 32.8978 22.2048 33.3557C23.1932 33.8864 24.1934 34.153 25.892 34.2945C28.6999 34.5286 31.2966 33.6482 32.5177 32.3716C34.0095 30.8121 33.7474 28.9888 33.8335 27.7899C33.9398 26.3099 33.7508 24.3841 33.3236 23.0999C33.0049 22.1418 32.0487 21.2528 30.9393 20.5681C29.5281 19.6971 28.0716 19.7725 26.5341 19.6284C24.0501 19.3956 20.281 19.8237 19.482 20.5067C18.7169 21.1607 18.3436 22.2659 17.6631 23.8571C17.0751 25.2322 16.9792 26.6421 16.9775 29.4237C16.9765 31.1145 17.658 32.2156 18.1415 33.1263C18.6673 34.1166 19.4761 34.8318 20.4703 35.4585C21.3012 35.9823 22.5425 35.971 27.3058 35.9446C29.3142 35.9334 30.2751 35.0091 31.2438 34.3542C32.0814 33.7879 33.2289 32.908 34.1439 31.7415C35.0411 30.5976 35.1663 28.7057 35.2559 26.8826C35.3277 25.4196 33.3585 24.5512 31.8236 23.8938C30.1405 23.1728 27.3399 23.4085 24.8125 23.5774C23.2722 23.6803 22.6653 24.7695 22.1835 25.647C20.9183 27.9512 21.1849 29.712 21.3819 30.6508C22.1626 34.3717 29.54 24.8326 29.6833 24.5751C30.9778 22.2481 27.0978 30.7949 27.2095 31.2793C28.4025 30.5749 29.1409 29.5516 29.6798 29.1526C29.9374 29.0912 30.1625 29.3163 30.565 29.5482" stroke="#AFECB2" stroke-width="6.72" stroke-linecap="round"/>
<path d="M40.6406 18.818C36.6106 18.6475 34.6783 18.76 33.5101 19.1293C33.0303 19.2809 32.4578 19.6673 31.8899 20.3197C31.0521 21.282 31.2606 25.2101 31.4584 27.7666C31.5973 29.5616 32.3964 30.8654 32.9635 31.8896C33.4705 32.8053 34.6101 33.0859 36.1698 33.5686C37.7092 34.045 39.1586 33.4867 39.8399 33.1465C40.8192 32.6575 41.6025 31.5578 42.3436 30.4194C43.1216 29.2241 43.1409 27.6353 43.1144 24.0623C43.1084 23.2513 42.8612 22.918 42.4646 22.5752C40.5013 20.8778 37.5845 20.6395 36.2098 20.3819C35.3108 20.2135 31.6904 20.1824 29.2183 20.9174C27.5248 21.421 27.9076 24.4358 27.8778 27.4195C27.8606 29.1338 28.757 30.0127 29.7777 31.3754C31.0966 33.1361 31.7688 33.8227 32.6778 34.2226C33.8897 34.7558 37.1444 35.02 39.7248 34.4546C41.7652 34.0075 42.8509 32.8642 44.0192 32.0669C45.1672 31.2834 45.7536 30.1355 46.2388 28.8001C47.0054 26.6902 46.2141 23.1431 45.8722 22.1761C45.362 20.7335 43.9424 19.9573 42.7205 19.4166C41.6449 18.9408 39.1808 19.1591 36.8383 20.0076C36.0036 20.3099 35.6402 21.4274 35.2991 22.4771C35.0246 23.3221 35.2394 24.1016 35.381 24.7258C35.4471 25.0173 35.5788 25.2374 35.8057 25.2689C36.3811 25.349 36.8869 24.6763 37.199 24.1092C37.7571 23.0953 34.5624 30.5141 34.0473 32.9657C33.9521 33.4191 33.9893 33.7067 34.1582 33.5422C36.6454 31.1177 38.8772 27.8024 39.0759 27.5739C39.8802 26.6487 39.6174 30.4698 39.7299 30.6701C39.9531 31.0675 40.4684 29.7927 40.7242 29.2538C40.8112 28.9962 40.8112 28.7711 40.7268 28.5144C40.6424 28.2578 40.4735 27.9764 39.9585 27.1748" stroke="#AFECB2" stroke-width="6.72" stroke-linecap="round"/>
<path d="M16.8604 18.8341C17.1041 18.3423 18.3123 17.2034 18.8807 16.8308C19.459 16.4518 20.1219 16.2092 20.7605 15.9436C21.6689 15.5658 22.321 15.464 23.2945 15.3395C26.2685 14.959 28.0691 15.7813 28.6737 15.9771C29.734 16.3206 31.0858 17.3417 31.6542 17.7681C32.2062 18.1821 32.7889 18.5829 33.5872 19.4164C33.8193 19.7538 33.9971 20.0391 34.1919 20.3222C34.2813 20.4649 34.3515 20.6054 34.5304 20.8566" stroke="#AFECB2" stroke-width="6.72" stroke-linecap="round"/>
<path d="M18.8604 38.5918C19.1084 38.9452 19.4607 39.4412 20.0291 39.7441C20.589 40.0424 21.2703 40.1523 21.8387 40.2768C22.3964 40.399 22.9734 40.4716 23.5418 40.5254C24.1553 40.5834 26.9609 40.7207 28.6512 40.6148C29.2455 40.5776 29.7859 40.1544 30.4427 39.7643C31.0292 39.3029 31.5955 38.8068 32.058 38.2746C32.165 38.132 32.2704 37.9914 32.4854 37.7402" stroke="#AFECB2" stroke-width="6.72" stroke-linecap="round"/>
<path d="M20.7607 25.416V25.7041" stroke="#0D0D0D" stroke-width="2.5" stroke-linecap="round"/>
<path d="M27.9609 25.2402V25.4323" stroke="#0D0D0D" stroke-width="2.5" stroke-linecap="round"/>
<path d="M18.3604 32.7765C18.4429 32.4876 18.6506 32.1529 18.942 31.8509C19.1237 31.6625 19.3185 31.6507 19.4952 31.6713C19.9318 31.7223 20.3593 32.0873 20.7255 32.2859C21.0508 32.4623 21.34 32.734 21.7259 32.7559C22.2375 32.7849 22.7573 32.0898 23.2677 31.7358C23.7332 31.4129 24.341 31.2754 24.8304 31.3064C25.3682 31.3404 25.6557 31.7745 26.0935 32.0147C26.2774 32.1156 26.7584 32.1511 27.3938 32.1201C27.9141 32.0948 28.1575 31.6932 28.823 31.267C29.7877 30.6491 30.4079 30.7125 30.8057 30.7851C30.9721 30.8576 31.1397 30.9414 31.2957 31.0349C31.3692 31.0872 31.4311 31.1491 31.6826 31.338" stroke="#0D0D0D" stroke-width="2" stroke-linecap="round"/>
<path d="M23.5762 6.32422V13.198" stroke="#FF6868" stroke-width="2.4" stroke-linecap="round"/>
<path d="M22.543 6.05078C22.5882 6.11889 22.7404 6.27111 22.8927 6.40436C23.1751 6.65159 23.289 6.736 23.43 6.82377C23.5479 6.89711 23.715 7.0025 23.944 7.12078C24.0948 7.19864 24.2261 7.26946 24.4278 7.34946C24.4777 7.36866 24.5154 7.38374 24.55 7.39528C24.5845 7.40683 24.6146 7.41437 24.6686 7.42214" stroke="#FFF06C" stroke-width="0.48" stroke-linecap="round"/>
<path d="M22.543 7.61328C22.5882 7.68139 22.7404 7.83361 22.8927 7.96686C23.1751 8.21409 23.289 8.2985 23.43 8.38627C23.5479 8.45961 23.715 8.565 23.944 8.68328C24.0948 8.76114 24.2261 8.83196 24.4278 8.91196C24.4777 8.93116 24.5154 8.94624 24.55 8.95778C24.5845 8.96933 24.6146 8.97687 24.6686 8.98464" stroke="#FFF06C" stroke-width="0.48" stroke-linecap="round"/>
<path d="M22.543 9.5332C22.5882 9.60131 22.7404 9.75353 22.8927 9.88679C23.1751 10.134 23.289 10.2184 23.43 10.3062C23.5479 10.3795 23.715 10.4849 23.944 10.6032C24.0948 10.6811 24.2261 10.7519 24.4278 10.8319C24.4777 10.8511 24.5154 10.8662 24.55 10.8777C24.5845 10.8892 24.6146 10.8968 24.6686 10.9046" stroke="#FFF06C" stroke-width="0.48" stroke-linecap="round"/>
<path d="M22.543 11.4531C22.5882 11.5212 22.7404 11.6735 22.8927 11.8067C23.1751 12.0539 23.289 12.1383 23.43 12.2261C23.5479 12.2995 23.715 12.4048 23.944 12.5231C24.0948 12.601 24.2261 12.6718 24.4278 12.7518C24.4777 12.771 24.5154 12.7861 24.55 12.7976C24.5845 12.8092 24.6146 12.8167 24.6686 12.8245" stroke="#FFF06C" stroke-width="0.48" stroke-linecap="round"/>
<path d="M23.5693 0.394677C23.3981 0.625568 23.2609 0.848736 22.8245 1.61001C22.6378 1.93563 22.4723 2.50178 22.4067 2.805C22.3003 3.29783 22.4022 4.0148 22.4622 4.18636C22.5509 4.43992 22.6761 4.80297 22.801 4.98457C22.8576 5.06702 22.9255 5.13064 22.9939 5.18199C23.1891 5.32869 23.4483 5.27659 23.6926 5.30671C24.0218 5.34729 24.1948 5.18289 24.3154 5.0798C24.4266 4.98475 24.4954 4.84827 24.5985 4.65972C24.6843 4.50285 24.7704 4.32523 24.7749 3.42702C24.7765 3.09657 24.6767 2.75661 24.5607 2.4548C24.4772 2.23762 24.3765 1.95814 24.2903 1.69534C24.2328 1.52003 24.0424 1.10151 23.9257 0.77306C23.8787 0.644873 23.844 0.540882 23.8226 0.463918C23.8097 0.420932 23.7927 0.369966 23.7495 0.240234" stroke="#FF0004" stroke-width="0.48" stroke-linecap="round"/>
<path d="M23.556 2.17457C23.5273 2.19834 23.4793 2.29418 23.4049 2.41191C23.348 2.50203 23.2874 2.65877 23.2247 2.80807C23.103 3.09843 23.0948 3.45195 23.0829 3.57192C23.0704 3.69703 23.0421 3.79291 23.0348 3.87477C23.0132 4.11751 23.0418 4.55179 23.0779 4.66247C23.1042 4.74297 23.1378 4.81148 23.2002 4.89787C23.2761 5.00271 23.4018 5.01352 23.5217 5.02548C23.7419 5.04743 23.8485 4.98498 23.9304 4.94881C24.0253 4.90687 24.103 4.61232 24.1348 4.43737C24.1682 4.25365 24.1278 3.92376 24.0989 3.79147C24.0634 3.62908 23.9456 3.37672 23.8732 3.21028C23.8128 3.07135 23.7915 2.95333 23.7579 2.8307C23.7304 2.73021 23.6955 2.59796 23.6737 2.48008C23.6665 2.32848 23.6521 2.27083 23.6449 2.23012C23.6424 2.20843 23.6424 2.18465 23.6424 2.16016" stroke="#FF7700" stroke-width="0.48" stroke-linecap="round"/>
<path d="M23.5148 2.83691C23.5148 2.9686 23.5148 3.10028 23.5118 3.40455C23.5088 3.70882 23.5029 4.18168 23.4998 4.41181C23.4967 4.64193 23.4967 4.615 23.5087 4.54875C23.5206 4.4825 23.5446 4.37775 23.5644 4.26992C23.6295 3.91583 23.6325 3.81075 23.6478 3.73643C23.6628 3.66338 23.7443 3.99649 23.7627 4.14091C23.7787 4.26655 23.7838 4.33894 23.7944 4.4041C23.8093 4.49528 23.805 4.56875 23.793 4.62185C23.787 4.6325 23.778 4.64148 23.7704 4.65209C23.7628 4.6627 23.7568 4.67467 23.7325 4.70514" stroke="#FF7700" stroke-width="0.48" stroke-linecap="round"/>
</svg>
