<svg width="47" height="42" viewBox="0 0 47 42" fill="none" xmlns="http://www.w3.org/2000/svg">
<path d="M11.6359 36.2571C8.89233 31.067 3.92066 19.0878 4.13254 13.6312C4.17252 12.6014 5.21381 12.6657 5.94558 13.1703C9.42425 15.5691 9.30299 19.4985 11.1182 22.9193C12.5158 25.553 13.2349 27.7992 13.4555 31.2199C13.5077 32.0297 13.6718 32.6048 13.746 31.7485C14.2998 25.3641 14.2572 22.4343 14.6198 17.644C15.3469 8.03802 15.7076 5.39614 17.0182 3.35154C17.3033 2.90676 18.0318 3.05445 18.4009 3.41488C23.442 8.33658 18.7745 22.9848 18.4818 27.2837C18.1557 32.0728 17.608 33.7756 17.3896 34.361C16.0361 37.9885 21.2385 24.1818 22.335 20.9074C23.8142 16.4907 26.7693 12.9716 29.1022 11.2153C29.6858 10.776 30.2643 10.2018 30.7056 10.193C31.1468 10.1843 31.4352 10.761 31.5837 11.4906C32.2546 14.7858 29.5566 18.616 27.8069 21.104C26.0613 23.5862 24.0257 25.9031 21.6928 28.7472C19.6294 31.2627 18.3376 32.9019 18.3332 33.3431C18.2813 38.5949 29.0848 25.641 32.1604 23.2316C34.4915 21.4054 36.385 20.2412 37.333 20.1647C37.6427 20.1398 37.2719 21.0975 36.835 21.6851C35.0956 24.0246 31.3129 25.1779 27.1603 28.236C23.9384 30.6088 20.8278 33.6184 19.6417 35.3812C16.943 39.3919 28.3596 32.6223 32.156 31.0932C36.4033 29.3826 41.0421 28.8302 42.7153 29.1185C43.4288 29.2415 43.6677 29.9835 43.6721 30.7131C43.6818 32.3328 42.226 33.7756 40.6991 34.8656C38.5385 36.4081 35.5331 36.8338 32.689 37.4935C30.1377 37.7119 18.8706 38.0046 12.8067 36.5542C12.3699 36.2571 11.7932 36.2571 11.199 36.2571" stroke="#FF6868" stroke-width="6.156" stroke-linecap="round"/>
<path d="M37.6345 32.7827L28.8379 34.5421" stroke="#FF6868" stroke-width="4.617" stroke-linecap="round"/>
<path d="M3.45898 15.061C3.45898 15.339 3.50924 15.8957 3.5477 16.9229C3.56928 17.4995 3.66154 18.0035 3.71256 18.9158C3.74877 19.5632 3.89 20.2119 4.05486 20.6817C4.19888 21.0922 4.27075 21.5567 4.37241 21.9893C4.47537 22.4273 4.65151 22.8772 4.80381 23.3596C4.95243 23.8304 5.05815 24.2479 5.19713 24.6545C5.33376 25.0543 5.41302 25.4663 5.57788 25.873C5.73944 26.2714 5.81966 26.6847 5.89543 27.0914C5.97346 27.5101 6.17453 27.9534 6.28875 28.3859C6.40083 28.8103 6.55528 29.1977 6.72015 29.6044C6.8817 30.0028 7.01219 30.4161 7.12641 30.8228C7.29166 31.2294 7.39294 31.5592 7.49422 31.7998C7.54525 31.9148 7.59551 32.0153 7.64729 32.1189" stroke="#FF6868" stroke-width="4.617" stroke-linecap="round"/>
<path d="M4.03658 13.9541C4.00692 14.7916 3.94671 16.7523 4.05095 18.0705C4.0929 18.601 4.36545 19.0436 4.42566 19.6129C4.49151 20.2356 4.66558 20.8103 4.82957 21.4698C4.96937 22.0321 5.05377 22.6973 5.20428 23.3717C5.33444 23.9549 5.38444 24.4351 5.54843 24.915C5.73995 25.4754 5.89304 26.2017 6.04265 26.7418C6.22265 27.3915 6.46094 28.0869 6.58225 28.8382C6.66851 29.3723 6.88147 29.8266 6.98661 30.3064C7.10413 30.8428 7.33076 31.5626 7.48038 32.193C7.62606 32.8068 7.92921 33.3005 8.15431 33.8109C8.35905 34.2751 8.55822 34.7688 8.81297 35.2486C9.08211 35.7556 9.48555 36.2065 9.87599 36.7461C10.1873 37.1763 10.6537 37.4358 11.1335 37.7503C11.577 38.0409 12.1507 38.1546 12.6908 38.2454C13.3294 38.3527 13.858 38.4547 14.3981 38.6345C14.9985 38.8343 15.7433 38.7549 17.7098 38.8294C19.1344 38.8835 21.8338 38.8447 23.2832 38.8299C25.3306 38.809 26.3483 38.6956 27.6045 38.6502C28.2371 38.5455 28.8337 38.4853 29.717 38.4107C30.0019 38.3954 30.3577 38.3954 30.9939 38.3056" stroke="#FF6868" stroke-width="4.617" stroke-linecap="round"/>
<path d="M4.06853 19.249C3.99238 20.0798 4.0929 21.7087 4.28366 22.2044C4.44248 22.6172 4.5757 23.0292 4.74056 23.4358C4.90212 23.8343 5.0326 24.2476 5.14683 24.6542C5.17628 24.7591 5.23516 24.8568 5.26105 24.7829C5.4875 24.1369 5.16053 23.6932 5.04631 23.2233C4.93423 22.7623 4.77978 22.2722 4.67812 21.7007C4.56841 21.0839 4.50107 20.3684 4.38608 20.1118C4.10573 19.4861 4.52543 21.101 4.52543 21.1654C4.52543 21.6849 4.42415 20.2908 4.36095 20.1887C3.90424 19.4514 4.27109 22.5723 4.36019 22.9915C4.45826 23.4529 4.49954 23.8668 4.60121 24.2735C4.70287 24.6801 4.75389 25.1355 4.8803 25.5932C5.02385 26.1129 5.10875 26.5824 5.27362 27.0149C5.42192 27.404 5.46362 27.8267 5.52796 28.2965C5.58949 28.7458 5.76822 29.2477 5.90834 29.756C6.04404 30.2483 6.17487 30.6443 6.40294 31.0509C6.61542 31.4298 6.75818 31.8627 6.94894 32.3325C7.11853 32.7502 7.36739 33.1572 7.63392 33.6271C7.87277 34.0481 8.17916 34.5021 8.48415 34.884C8.8235 35.3089 9.26964 35.7205 9.77757 36.0517C10.6167 36.599 11.4506 36.9648 12.6058 37.2705C13.066 37.3923 14.1623 37.373 15.6835 37.3478C16.7046 37.331 17.216 37.1704 17.4566 37.044C17.6721 36.8673 17.8511 36.6632 17.9905 36.4607C18.0544 36.3586 18.1047 36.2581 18.1565 36.1545" stroke="#FF6868" stroke-width="4.617" stroke-linecap="round"/>
<path d="M16.0107 26.3091L16.0465 26.6148" stroke="#0D0D0D" stroke-width="2.25" stroke-linecap="round"/>
<path d="M22.167 25.3857L22.2027 25.6915" stroke="#0D0D0D" stroke-width="2.25" stroke-linecap="round"/>
<path d="M12.0088 22.3076L16.0565 23.0773" stroke="#0D0D0D" stroke-width="1.8" stroke-linecap="round"/>
<path d="M21.5519 29.719C19.8237 29.6277 18.1813 29.8084 17.3573 30.0374C16.5036 30.2747 15.8983 31.3869 15.5913 32.0284C15.2342 32.7744 15.4375 33.5796 15.6346 33.929C15.9069 34.4119 17.6758 34.2813 18.7516 34.1298C19.3878 34.0402 19.8766 33.9473 20.8315 33.7648C23.0027 33.3499 23.8294 33.3706 24.2728 32.9901C24.9229 32.4324 24.1706 30.5165 23.7281 29.9329C23.6213 29.8714 23.5009 29.8412 23.2582 29.8257C23.0155 29.8102 22.6541 29.8102 22.0081 29.719" stroke="#0D0D0D" stroke-width="1.8" stroke-linecap="round"/>
<path d="M20.9355 22.4019L23.4343 21.0763" stroke="#0D0D0D" stroke-width="1.8" stroke-linecap="round"/>
<path d="M4.41235 16.3313C4.1417 15.9822 3.49627 15.2692 3.0307 14.7601C2.86435 14.5782 2.64135 14.4988 2.4247 14.4449C2.18315 14.3848 1.8954 14.561 1.64391 14.7791C1.27612 15.0982 0.918729 15.5718 1.01593 17.1211C1.07678 18.0911 1.51631 18.5736 1.80151 18.9266C2.12201 19.3232 2.45173 19.7205 2.92652 20.0317C3.46077 20.382 3.82914 20.7128 4.25246 20.912C4.77359 21.1571 5.69835 21.3197 6.6621 21.1399C7.26388 21.0277 7.72044 20.1818 8.05321 19.5373C8.74207 18.2031 8.66042 16.1065 8.60912 15.6776C8.55699 15.2417 8.32607 14.7985 8.00063 14.3479C7.73807 13.9844 7.23854 13.8159 6.538 13.7256C5.98516 13.6544 5.7703 14.3657 5.52862 14.8094C5.22885 15.2995 5.06625 15.7528 4.90967 16.1554C4.87038 16.2564 4.83167 16.3559 4.78194 16.5363" stroke="#FFA3A3" stroke-width="2" stroke-linecap="round"/>
</svg>
