<svg width="46" height="59" viewBox="0 0 46 59" fill="none" xmlns="http://www.w3.org/2000/svg">
<path d="M21.1973 6.29329C22.9109 5.64175 21.1219 6.25499 19.4109 6.14175C17.6999 6.02852 13.9715 5.94217 12.2299 5.85166C10.4882 5.76114 10.5018 5.8252 10.5445 5.90687C10.5872 5.98853 10.6586 6.08586 12.0197 7.34706C13.3809 8.60826 16.0295 11.0304 17.4247 12.2529C18.82 13.4754 20.4894 14.1952 20.4109 13.1418C20.3325 12.0883 18.5041 9.26302 18.2779 7.83606C18.0516 6.40911 17.8262 5.67239 17.5117 4.82349C17.1973 3.97458 16.8006 3.03582 16.5741 2.498C16.3476 1.96019 16.3032 1.85177 16.2551 1.83473C16.207 1.81769 16.1565 1.8953 15.4806 3.81153C14.8046 5.72776 13.5048 9.48027 12.8247 11.4651C12.1446 13.45 12.1236 13.5535 12.1726 13.5981C12.2987 13.7132 12.8547 13.4797 14.1998 12.8224C15.1804 12.3432 16.6611 11.3668 17.7921 10.504C18.9231 9.6412 19.6327 8.87002 20.0704 8.3705C21.087 7.21009 22.3712 6.01242 22.4108 5.90684C22.4357 5.85794 21.4371 6.18606 21.4722 6.21564C21.5072 6.24523 21.5417 6.34502 21.5772 6.44783" stroke="#FFEC6F" stroke-width="2" stroke-linecap="round"/>
<path d="M16.6133 12.7627V20.0836" stroke="#FFEC6F" stroke-width="2" stroke-linecap="round"/>
<path d="M10.5881 53.1809C7.84448 47.9908 2.87281 36.0117 3.08468 30.5551C3.12467 29.5253 4.16596 29.5896 4.89772 30.0942C8.3764 32.4929 8.25514 36.4223 10.0704 39.8431C11.468 42.4768 12.187 44.723 12.4077 48.1437C12.4599 48.9535 12.6239 49.5286 12.6982 48.6724C13.2519 42.288 13.2093 39.3581 13.5719 34.5678C14.299 24.9619 14.6598 22.32 15.9704 20.2754C16.2555 19.8306 16.9839 19.9783 17.3531 20.3387C22.3941 25.2604 17.7266 39.9086 17.4339 44.2075C17.1078 48.9966 16.5602 50.6995 16.3417 51.2849C14.9882 54.9123 20.1906 41.1056 21.2872 37.8313C22.7663 33.4145 25.7215 29.8954 28.0544 28.1392C28.638 27.6998 29.2165 27.1256 29.6577 27.1169C30.099 27.1081 30.3873 27.6848 30.5358 28.4144C31.2067 31.7096 28.5087 35.5398 26.759 38.0279C25.0135 40.51 22.9779 42.827 20.645 45.671C18.5816 48.1865 17.2897 49.8257 17.2854 50.267C17.2335 55.5187 28.0369 42.5648 31.1125 40.1554C33.4437 38.3292 35.3371 37.165 36.2852 37.0886C36.5948 37.0636 36.224 38.0213 35.7871 38.6089C34.0477 40.9484 30.265 42.1017 26.1125 45.1599C22.8906 47.5326 19.78 50.5422 18.5938 52.305C15.8951 56.3157 27.3117 49.5461 31.1082 48.0171C35.3555 46.3064 39.9942 45.754 41.6675 46.0424C42.3809 46.1653 42.6199 46.9074 42.6242 47.637C42.6339 49.2566 41.1782 50.6995 39.6513 51.7895C37.4906 53.3319 34.4852 53.7576 31.6412 54.4173C29.0898 54.6357 17.8227 54.9284 11.7589 53.478C11.322 53.1809 10.7453 53.1809 10.1512 53.1809" stroke="#FF6868" stroke-width="6.156" stroke-linecap="round"/>
<path d="M36.5867 49.7065L27.79 51.4659" stroke="#FF6868" stroke-width="4.617" stroke-linecap="round"/>
<path d="M2.41113 31.9849C2.41113 32.2628 2.46139 32.8195 2.49985 33.8468C2.52143 34.4233 2.61369 34.9273 2.66471 35.8396C2.70092 36.4871 2.84215 37.1357 3.00701 37.6056C3.15103 38.016 3.2229 38.4805 3.32456 38.9131C3.42752 39.3512 3.60366 39.801 3.75596 40.2834C3.90458 40.7542 4.0103 41.1717 4.14928 41.5784C4.28591 41.9782 4.36517 42.3901 4.53003 42.7968C4.69159 43.1953 4.77181 43.6086 4.84758 44.0152C4.9256 44.4339 5.12668 44.8772 5.2409 45.3098C5.35297 45.7342 5.50743 46.1215 5.6723 46.5282C5.83385 46.9267 5.96434 47.34 6.07856 47.7466C6.24381 48.1532 6.34509 48.483 6.44637 48.7236C6.49739 48.8386 6.54765 48.9391 6.59944 49.0427" stroke="#FF6868" stroke-width="4.617" stroke-linecap="round"/>
<path d="M2.98873 30.8779C2.95907 31.7154 2.89886 33.6761 3.0031 34.9943C3.04505 35.5248 3.3176 35.9675 3.3778 36.5367C3.44366 37.1594 3.61773 37.7341 3.78172 38.3936C3.92152 38.9559 4.00591 39.6211 4.15642 40.2955C4.28659 40.8787 4.33659 41.3589 4.50058 41.8388C4.6921 42.3992 4.84519 43.1256 4.9948 43.6656C5.1748 44.3153 5.41309 45.0108 5.53439 45.762C5.62066 46.2962 5.83362 46.7504 5.93875 47.2303C6.05628 47.7667 6.28291 48.4865 6.43252 49.1168C6.57821 49.7306 6.88136 50.2243 7.10646 50.7347C7.3112 51.199 7.51037 51.6926 7.76512 52.1724C8.03426 52.6794 8.4377 53.1303 8.82814 53.6699C9.13941 54.1001 9.60586 54.3596 10.0857 54.6741C10.5291 54.9647 11.1029 55.0784 11.6429 55.1692C12.2815 55.2765 12.8102 55.3786 13.3502 55.5583C13.9506 55.7581 14.6954 55.6787 16.6619 55.7533C18.0866 55.8073 20.786 55.7686 22.2354 55.7537C24.2827 55.7328 25.3004 55.6194 26.5566 55.574C27.1892 55.4693 27.7859 55.4091 28.6692 55.3345C28.954 55.3193 29.3099 55.3193 29.9461 55.2294" stroke="#FF6868" stroke-width="4.617" stroke-linecap="round"/>
<path d="M3.02068 36.1729C2.94453 37.0037 3.04504 38.6325 3.2358 39.1283C3.39463 39.541 3.52784 39.953 3.69271 40.3596C3.85427 40.7581 3.98475 41.1714 4.09898 41.578C4.12843 41.6829 4.18731 41.7806 4.2132 41.7067C4.43965 41.0607 4.11268 40.617 3.99846 40.1472C3.88638 39.6862 3.73193 39.196 3.63027 38.6245C3.52055 38.0078 3.45322 37.2923 3.33823 37.0356C3.05788 36.41 3.47758 38.0248 3.47758 38.0892C3.47758 38.6088 3.3763 37.2146 3.3131 37.1126C2.85639 36.3752 3.22324 39.4961 3.31234 39.9153C3.41041 40.3768 3.45169 40.7907 3.55336 41.1973C3.65502 41.6039 3.70604 42.0593 3.83245 42.517C3.976 43.0368 4.0609 43.5062 4.22577 43.9387C4.37406 44.3278 4.41576 44.7505 4.48011 45.2204C4.54164 45.6696 4.72037 46.1715 4.86049 46.6798C4.99619 47.1721 5.12702 47.5681 5.35509 47.9747C5.56757 48.3536 5.71033 48.7865 5.90109 49.2564C6.07068 49.6741 6.31954 50.0811 6.58607 50.5509C6.82491 50.972 7.13131 51.4259 7.43629 51.8078C7.77565 52.2327 8.22179 52.6443 8.72972 52.9756C9.56888 53.5229 10.4028 53.8886 11.558 54.1944C12.0182 54.3162 13.1145 54.2968 14.6356 54.2717C15.6568 54.2548 16.1681 54.0942 16.4088 53.9678C16.6243 53.7912 16.8032 53.5871 16.9426 53.3845C17.0066 53.2825 17.0568 53.1819 17.1086 53.0784" stroke="#FF6868" stroke-width="4.617" stroke-linecap="round"/>
<path d="M14.9629 43.2329L14.9986 43.5386" stroke="#0D0D0D" stroke-width="2.25" stroke-linecap="round"/>
<path d="M21.1191 42.3096L21.1549 42.6153" stroke="#0D0D0D" stroke-width="2.25" stroke-linecap="round"/>
<path d="M10.9609 39.2314L15.0086 40.0011" stroke="#0D0D0D" stroke-width="1.8" stroke-linecap="round"/>
<path d="M20.504 46.6428C18.7758 46.5516 17.1334 46.7322 16.3095 46.9612C15.4558 47.1985 14.8505 48.3108 14.5434 48.9522C14.1863 49.6982 14.3897 50.5034 14.5868 50.8529C14.8591 51.3357 16.6279 51.2051 17.7037 51.0536C18.34 50.964 18.8288 50.8711 19.7837 50.6886C21.9549 50.2737 22.7815 50.2945 23.225 49.914C23.875 49.3562 23.1228 47.4403 22.6803 46.8568C22.5735 46.7952 22.4531 46.7651 22.2103 46.7496C21.9676 46.734 21.6063 46.734 20.9603 46.6428" stroke="#0D0D0D" stroke-width="1.8" stroke-linecap="round"/>
<path d="M19.8877 39.3257L22.3865 38.0001" stroke="#0D0D0D" stroke-width="1.8" stroke-linecap="round"/>
</svg>
