<svg width="46" height="51" viewBox="0 0 46 51" fill="none" xmlns="http://www.w3.org/2000/svg">
<path d="M16.8262 3.96094V15.8818" stroke="#62A565" stroke-width="1.6" stroke-linecap="round"/>
<path d="M17.3015 3.31553C17.0481 3.12527 16.0968 2.42827 14.7884 1.70832C13.8431 1.18821 12.9397 0.894674 11.8397 0.813883C11.0865 0.758562 10.0733 0.860252 9.0503 1.22644C8.67529 1.36067 8.53783 1.78385 8.44222 2.22844C8.32202 2.78738 8.56747 3.34517 8.88537 3.72713C9.36778 4.30675 10.0007 4.43035 11.159 4.62157C14.3236 5.144 15.3224 4.39975 16.8961 3.73335C18.5178 3.04664 18.7968 2.29823 19.3232 1.86703C19.9627 1.34312 21.0877 1.08589 23.1103 1.13131C23.5595 1.14139 24.4462 1.43678 24.623 1.70832C25.3825 2.87419 24.9931 4.02114 24.8028 4.32327C24.2746 5.16199 22.1184 5.16273 20.3199 5.19619C19.534 5.00497 19.0244 4.87781 18.6587 4.76642C18.4823 4.71814 18.3245 4.68659 18.2576 4.65408" stroke="#62A565" stroke-width="1.6" stroke-linecap="round"/>
<path d="M10.5881 45.9807C7.84448 40.7906 2.87281 28.8115 3.08468 23.3549C3.12467 22.3251 4.16596 22.3894 4.89772 22.894C8.3764 25.2927 8.25514 29.2222 10.0704 32.6429C11.468 35.2766 12.187 37.5228 12.4077 40.9435C12.4599 41.7533 12.6239 42.3285 12.6982 41.4722C13.2519 35.0878 13.2093 32.158 13.5719 27.3676C14.299 17.7617 14.6598 15.1198 15.9704 13.0752C16.2555 12.6304 16.9839 12.7781 17.3531 13.1385C22.3941 18.0602 17.7266 32.7084 17.4339 37.0073C17.1078 41.7965 16.5602 43.4993 16.3417 44.0847C14.9882 47.7121 20.1906 33.9055 21.2872 30.6311C22.7663 26.2143 25.7215 22.6952 28.0544 20.939C28.638 20.4997 29.2165 19.9254 29.6577 19.9167C30.099 19.9079 30.3873 20.4846 30.5358 21.2142C31.2067 24.5094 28.5087 28.3397 26.759 30.8277C25.0135 33.3098 22.9779 35.6268 20.645 38.4708C18.5816 40.9863 17.2897 42.6255 17.2854 43.0668C17.2335 48.3185 28.0369 35.3646 31.1125 32.9552C33.4437 31.129 35.3371 29.9648 36.2852 29.8884C36.5948 29.8634 36.224 30.8211 35.7871 31.4087C34.0477 33.7482 30.265 34.9015 26.1125 37.9597C22.8906 40.3324 19.78 43.342 18.5938 45.1048C15.8951 49.1155 27.3117 42.3459 31.1082 40.8169C35.3555 39.1062 39.9942 38.5538 41.6675 38.8422C42.3809 38.9651 42.6199 39.7072 42.6242 40.4368C42.6339 42.0564 41.1782 43.4993 39.6513 44.5893C37.4906 46.1317 34.4852 46.5574 31.6412 47.2171C29.0898 47.4355 17.8227 47.7282 11.7589 46.2778C11.322 45.9807 10.7453 45.9807 10.1512 45.9807" stroke="#FF6868" stroke-width="6.156" stroke-linecap="round"/>
<path d="M36.5867 42.5063L27.79 44.2657" stroke="#FF6868" stroke-width="4.617" stroke-linecap="round"/>
<path d="M2.41113 24.7847C2.41113 25.0626 2.46139 25.6193 2.49985 26.6466C2.52143 27.2231 2.61369 27.7271 2.66471 28.6394C2.70092 29.2869 2.84215 29.9355 3.00701 30.4054C3.15103 30.8158 3.2229 31.2803 3.32456 31.7129C3.42752 32.151 3.60366 32.6008 3.75596 33.0832C3.90458 33.554 4.0103 33.9715 4.14928 34.3782C4.28591 34.778 4.36517 35.1899 4.53003 35.5966C4.69159 35.9951 4.77181 36.4084 4.84758 36.815C4.9256 37.2338 5.12668 37.677 5.2409 38.1096C5.35297 38.534 5.50743 38.9213 5.6723 39.328C5.83385 39.7265 5.96434 40.1398 6.07856 40.5464C6.24381 40.953 6.34509 41.2828 6.44637 41.5234C6.49739 41.6384 6.54765 41.7389 6.59944 41.8425" stroke="#FF6868" stroke-width="4.617" stroke-linecap="round"/>
<path d="M2.98873 23.6777C2.95907 24.5152 2.89886 26.4759 3.0031 27.7941C3.04505 28.3246 3.3176 28.7673 3.3778 29.3365C3.44366 29.9592 3.61773 30.5339 3.78172 31.1934C3.92152 31.7557 4.00591 32.4209 4.15642 33.0953C4.28659 33.6785 4.33659 34.1588 4.50058 34.6386C4.6921 35.199 4.84519 35.9254 4.9948 36.4654C5.1748 37.1151 5.41309 37.8106 5.53439 38.5618C5.62066 39.096 5.83362 39.5502 5.93875 40.0301C6.05628 40.5665 6.28291 41.2863 6.43252 41.9166C6.57821 42.5304 6.88136 43.0241 7.10646 43.5345C7.3112 43.9988 7.51037 44.4924 7.76512 44.9722C8.03426 45.4792 8.4377 45.9301 8.82814 46.4697C9.13941 46.8999 9.60586 47.1594 10.0857 47.4739C10.5291 47.7645 11.1029 47.8782 11.6429 47.969C12.2815 48.0763 12.8102 48.1784 13.3502 48.3581C13.9506 48.5579 14.6954 48.4785 16.6619 48.5531C18.0866 48.6071 20.786 48.5684 22.2354 48.5535C24.2827 48.5326 25.3004 48.4192 26.5566 48.3738C27.1892 48.2691 27.7859 48.2089 28.6692 48.1343C28.954 48.1191 29.3099 48.1191 29.9461 48.0292" stroke="#FF6868" stroke-width="4.617" stroke-linecap="round"/>
<path d="M3.02068 28.9727C2.94453 29.8035 3.04504 31.4323 3.2358 31.9281C3.39463 32.3408 3.52784 32.7528 3.69271 33.1594C3.85427 33.5579 3.98475 33.9712 4.09898 34.3779C4.12843 34.4827 4.18731 34.5804 4.2132 34.5066C4.43965 33.8605 4.11268 33.4168 3.99846 32.947C3.88638 32.486 3.73193 31.9959 3.63027 31.4243C3.52055 30.8076 3.45322 30.0921 3.33823 29.8354C3.05788 29.2098 3.47758 30.8246 3.47758 30.889C3.47758 31.4086 3.3763 30.0144 3.3131 29.9124C2.85639 29.175 3.22324 32.2959 3.31234 32.7151C3.41041 33.1766 3.45169 33.5905 3.55336 33.9971C3.65502 34.4037 3.70604 34.8591 3.83245 35.3168C3.976 35.8366 4.0609 36.306 4.22577 36.7385C4.37406 37.1276 4.41576 37.5503 4.48011 38.0202C4.54164 38.4695 4.72037 38.9713 4.86049 39.4796C4.99619 39.9719 5.12702 40.3679 5.35509 40.7745C5.56757 41.1534 5.71033 41.5863 5.90109 42.0562C6.07068 42.4739 6.31954 42.8809 6.58607 43.3507C6.82491 43.7718 7.13131 44.2257 7.43629 44.6076C7.77565 45.0325 8.22179 45.4441 8.72972 45.7754C9.56888 46.3227 10.4028 46.6884 11.558 46.9942C12.0182 47.116 13.1145 47.0966 14.6356 47.0715C15.6568 47.0546 16.1681 46.894 16.4088 46.7676C16.6243 46.591 16.8032 46.3869 16.9426 46.1843C17.0066 46.0823 17.0568 45.9817 17.1086 45.8782" stroke="#FF6868" stroke-width="4.617" stroke-linecap="round"/>
<path d="M14.9629 36.0327L14.9986 36.3384" stroke="#0D0D0D" stroke-width="2.25" stroke-linecap="round"/>
<path d="M21.1191 35.1094L21.1549 35.4151" stroke="#0D0D0D" stroke-width="2.25" stroke-linecap="round"/>
<path d="M10.9609 32.0312L15.0086 32.8009" stroke="#0D0D0D" stroke-width="1.8" stroke-linecap="round"/>
<path d="M20.504 39.4426C18.7758 39.3514 17.1334 39.532 16.3095 39.7611C15.4558 39.9984 14.8505 41.1106 14.5434 41.752C14.1863 42.498 14.3897 43.3032 14.5868 43.6527C14.8591 44.1355 16.6279 44.0049 17.7037 43.8534C18.34 43.7638 18.8288 43.6709 19.7837 43.4884C21.9549 43.0735 22.7815 43.0943 23.225 42.7138C23.875 42.156 23.1228 40.2401 22.6803 39.6566C22.5735 39.595 22.4531 39.5649 22.2103 39.5494C21.9676 39.5339 21.6063 39.5339 20.9603 39.4426" stroke="#0D0D0D" stroke-width="1.8" stroke-linecap="round"/>
<path d="M19.8877 32.1255L22.3865 30.7999" stroke="#0D0D0D" stroke-width="1.8" stroke-linecap="round"/>
</svg>
