<svg width="46" height="52" viewBox="0 0 46 52" fill="none" xmlns="http://www.w3.org/2000/svg">
<path d="M10.5881 46.4212C7.84448 41.2311 2.87281 29.2519 3.08468 23.7953C3.12467 22.7655 4.16596 22.8298 4.89772 23.3344C8.3764 25.7332 8.25514 29.6626 10.0704 33.0833C11.468 35.717 12.187 37.9632 12.4077 41.384C12.4599 42.1937 12.6239 42.7689 12.6982 41.9126C13.2519 35.5282 13.2093 32.5984 13.5719 27.808C14.299 18.2021 14.6598 15.5602 15.9704 13.5156C16.2555 13.0708 16.9839 13.2185 17.3531 13.5789C22.3941 18.5006 17.7266 33.1488 17.4339 37.4477C17.1078 42.2369 16.5602 43.9397 16.3417 44.5251C14.9882 48.1525 20.1906 34.3459 21.2872 31.0715C22.7663 26.6547 25.7215 23.1356 28.0544 21.3794C28.638 20.9401 29.2165 20.3658 29.6577 20.3571C30.099 20.3484 30.3873 20.925 30.5358 21.6546C31.2067 24.9499 28.5087 28.7801 26.759 31.2681C25.0135 33.7503 22.9779 36.0672 20.645 38.9113C18.5816 41.4267 17.2897 43.0659 17.2854 43.5072C17.2335 48.7589 28.0369 35.8051 31.1125 33.3957C33.4437 31.5695 35.3371 30.4053 36.2852 30.3288C36.5948 30.3038 36.224 31.2615 35.7871 31.8491C34.0477 34.1887 30.265 35.342 26.1125 38.4001C22.8906 40.7729 19.78 43.7824 18.5938 45.5452C15.8951 49.556 27.3117 42.7863 31.1082 41.2573C35.3555 39.5466 39.9942 38.9943 41.6675 39.2826C42.3809 39.4055 42.6199 40.1476 42.6242 40.8772C42.6339 42.4969 41.1782 43.9397 39.6513 45.0297C37.4906 46.5721 34.4852 46.9978 31.6412 47.6575C29.0898 47.876 17.8227 48.1687 11.7589 46.7182C11.322 46.4212 10.7453 46.4212 10.1512 46.4212" stroke="#FF6868" stroke-width="6.156" stroke-linecap="round"/>
<path d="M36.5867 42.9468L27.79 44.7061" stroke="#FF6868" stroke-width="4.617" stroke-linecap="round"/>
<path d="M2.41113 25.2251C2.41113 25.503 2.46139 26.0597 2.49985 27.087C2.52143 27.6635 2.61369 28.1676 2.66471 29.0799C2.70092 29.7273 2.84215 30.376 3.00701 30.8458C3.15103 31.2562 3.2229 31.7208 3.32456 32.1533C3.42752 32.5914 3.60366 33.0412 3.75596 33.5237C3.90458 33.9944 4.0103 34.412 4.14928 34.8186C4.28591 35.2184 4.36517 35.6304 4.53003 36.037C4.69159 36.4355 4.77181 36.8488 4.84758 37.2554C4.9256 37.6742 5.12668 38.1175 5.2409 38.55C5.35297 38.9744 5.50743 39.3618 5.6723 39.7684C5.83385 40.1669 5.96434 40.5802 6.07856 40.9868C6.24381 41.3935 6.34509 41.7232 6.44637 41.9638C6.49739 42.0788 6.54765 42.1794 6.59944 42.2829" stroke="#FF6868" stroke-width="4.617" stroke-linecap="round"/>
<path d="M2.98873 24.1182C2.95907 24.9556 2.89886 26.9163 3.0031 28.2346C3.04505 28.765 3.3176 29.2077 3.3778 29.777C3.44366 30.3996 3.61773 30.9743 3.78172 31.6339C3.92152 32.1962 4.00591 32.8613 4.15642 33.5357C4.28659 34.119 4.33659 34.5992 4.50058 35.079C4.6921 35.6394 4.84519 36.3658 4.9948 36.9058C5.1748 37.5556 5.41309 38.251 5.53439 39.0022C5.62066 39.5364 5.83362 39.9907 5.93875 40.4705C6.05628 41.0069 6.28291 41.7267 6.43252 42.3571C6.57821 42.9709 6.88136 43.4646 7.10646 43.9749C7.3112 44.4392 7.51037 44.9328 7.76512 45.4127C8.03426 45.9196 8.4377 46.3706 8.82814 46.9102C9.13941 47.3403 9.60586 47.5998 10.0857 47.9143C10.5291 48.205 11.1029 48.3187 11.6429 48.4094C12.2815 48.5167 12.8102 48.6188 13.3502 48.7985C13.9506 48.9983 14.6954 48.9189 16.6619 48.9935C18.0866 49.0475 20.786 49.0088 22.2354 48.994C24.2827 48.973 25.3004 48.8596 26.5566 48.8142C27.1892 48.7096 27.7859 48.6494 28.6692 48.5748C28.954 48.5595 29.3099 48.5595 29.9461 48.4696" stroke="#FF6868" stroke-width="4.617" stroke-linecap="round"/>
<path d="M3.02068 29.4131C2.94453 30.2439 3.04504 31.8728 3.2358 32.3685C3.39463 32.7813 3.52784 33.1932 3.69271 33.5999C3.85427 33.9984 3.98475 34.4116 4.09898 34.8183C4.12843 34.9231 4.18731 35.0208 4.2132 34.947C4.43965 34.3009 4.11268 33.8573 3.99846 33.3874C3.88638 32.9264 3.73193 32.4363 3.63027 31.8648C3.52055 31.248 3.45322 30.5325 3.33823 30.2759C3.05788 29.6502 3.47758 31.2651 3.47758 31.3294C3.47758 31.849 3.3763 30.4548 3.3131 30.3528C2.85639 29.6154 3.22324 32.7363 3.31234 33.1555C3.41041 33.617 3.45169 34.0309 3.55336 34.4375C3.65502 34.8442 3.70604 35.2996 3.83245 35.7572C3.976 36.277 4.0609 36.7464 4.22577 37.179C4.37406 37.568 4.41576 37.9907 4.48011 38.4606C4.54164 38.9099 4.72037 39.4117 4.86049 39.92C4.99619 40.4123 5.12702 40.8083 5.35509 41.215C5.56757 41.5938 5.71033 42.0267 5.90109 42.4966C6.07068 42.9143 6.31954 43.3213 6.58607 43.7912C6.82491 44.2122 7.13131 44.6661 7.43629 45.048C7.77565 45.473 8.22179 45.8846 8.72972 46.2158C9.56888 46.7631 10.4028 47.1289 11.558 47.4346C12.0182 47.5564 13.1145 47.537 14.6356 47.5119C15.6568 47.495 16.1681 47.3345 16.4088 47.2081C16.6243 47.0314 16.8032 46.8273 16.9426 46.6247C17.0066 46.5227 17.0568 46.4222 17.1086 46.3186" stroke="#FF6868" stroke-width="4.617" stroke-linecap="round"/>
<path d="M14.9629 36.4731L14.9986 36.7789" stroke="#0D0D0D" stroke-width="2.25" stroke-linecap="round"/>
<path d="M21.1191 35.5498L21.1549 35.8555" stroke="#0D0D0D" stroke-width="2.25" stroke-linecap="round"/>
<path d="M10.9609 32.4717L15.0086 33.2413" stroke="#0D0D0D" stroke-width="1.8" stroke-linecap="round"/>
<path d="M20.504 39.883C18.7758 39.7918 17.1334 39.9725 16.3095 40.2015C15.4558 40.4388 14.8505 41.551 14.5434 42.1925C14.1863 42.9384 14.3897 43.7436 14.5868 44.0931C14.8591 44.5759 16.6279 44.4453 17.7037 44.2939C18.34 44.2043 18.8288 44.1114 19.7837 43.9289C21.9549 43.5139 22.7815 43.5347 23.225 43.1542C23.875 42.5965 23.1228 40.6805 22.6803 40.097C22.5735 40.0354 22.4531 40.0053 22.2103 39.9898C21.9676 39.9743 21.6063 39.9743 20.9603 39.883" stroke="#0D0D0D" stroke-width="1.8" stroke-linecap="round"/>
<path d="M19.8877 32.5659L22.3865 31.2403" stroke="#0D0D0D" stroke-width="1.8" stroke-linecap="round"/>
<path d="M16.627 6.32471V13.1985" stroke="#FF6868" stroke-width="2.4" stroke-linecap="round"/>
<path d="M15.5938 6.05127C15.639 6.11938 15.7912 6.2716 15.9434 6.40485C16.2259 6.65208 16.3398 6.73649 16.4808 6.82426C16.5986 6.8976 16.7658 7.00299 16.9948 7.12127C17.1456 7.19913 17.2769 7.26995 17.4786 7.34995C17.5285 7.36915 17.5662 7.38423 17.6007 7.39577C17.6352 7.40731 17.6654 7.41486 17.7194 7.42263" stroke="#FFF06C" stroke-width="0.48" stroke-linecap="round"/>
<path d="M15.5938 7.61328C15.639 7.68139 15.7912 7.83361 15.9434 7.96686C16.2259 8.21409 16.3398 8.2985 16.4808 8.38627C16.5986 8.45961 16.7658 8.565 16.9948 8.68328C17.1456 8.76114 17.2769 8.83196 17.4786 8.91196C17.5285 8.93116 17.5662 8.94624 17.6007 8.95778C17.6352 8.96933 17.6654 8.97687 17.7194 8.98464" stroke="#FFF06C" stroke-width="0.48" stroke-linecap="round"/>
<path d="M15.5938 9.5332C15.639 9.60131 15.7912 9.75353 15.9434 9.88679C16.2259 10.134 16.3398 10.2184 16.4808 10.3062C16.5986 10.3795 16.7658 10.4849 16.9948 10.6032C17.1456 10.6811 17.2769 10.7519 17.4786 10.8319C17.5285 10.8511 17.5662 10.8662 17.6007 10.8777C17.6352 10.8892 17.6654 10.8968 17.7194 10.9046" stroke="#FFF06C" stroke-width="0.48" stroke-linecap="round"/>
<path d="M15.5938 11.4531C15.639 11.5212 15.7912 11.6735 15.9434 11.8067C16.2259 12.0539 16.3398 12.1383 16.4808 12.2261C16.5986 12.2995 16.7658 12.4048 16.9948 12.5231C17.1456 12.601 17.2769 12.6718 17.4786 12.7518C17.5285 12.771 17.5662 12.7861 17.6007 12.7976C17.6352 12.8092 17.6654 12.8167 17.7194 12.8245" stroke="#FFF06C" stroke-width="0.48" stroke-linecap="round"/>
<path d="M16.6201 0.394677C16.4489 0.625568 16.3117 0.848736 15.8753 1.61001C15.6886 1.93563 15.523 2.50178 15.4575 2.805C15.3511 3.29783 15.453 4.0148 15.513 4.18636C15.6016 4.43992 15.7269 4.80297 15.8517 4.98457C15.9084 5.06702 15.9763 5.13064 16.0447 5.18199C16.2399 5.32869 16.4991 5.27659 16.7434 5.30671C17.0726 5.34729 17.2456 5.18289 17.3662 5.0798C17.4774 4.98475 17.5462 4.84827 17.6493 4.65972C17.7351 4.50285 17.8211 4.32523 17.8256 3.42702C17.8273 3.09657 17.7274 2.75661 17.6115 2.4548C17.528 2.23762 17.4273 1.95814 17.3411 1.69534C17.2836 1.52003 17.0932 1.10151 16.9765 0.77306C16.9295 0.644873 16.8947 0.540882 16.8734 0.463918C16.8605 0.420932 16.8435 0.369966 16.8003 0.240234" stroke="#FF0004" stroke-width="0.48" stroke-linecap="round"/>
<path d="M16.6068 2.17457C16.5781 2.19834 16.5301 2.29418 16.4557 2.41191C16.3988 2.50203 16.3381 2.65877 16.2755 2.80807C16.1537 3.09843 16.1456 3.45195 16.1336 3.57192C16.1212 3.69703 16.0929 3.79291 16.0856 3.87477C16.064 4.11751 16.0926 4.55179 16.1287 4.66247C16.1549 4.74297 16.1886 4.81148 16.251 4.89787C16.3268 5.00271 16.4526 5.01352 16.5725 5.02548C16.7927 5.04743 16.8993 4.98498 16.9812 4.94881C17.0761 4.90687 17.1538 4.61232 17.1856 4.43737C17.2189 4.25365 17.1786 3.92376 17.1497 3.79147C17.1142 3.62908 16.9964 3.37672 16.924 3.21028C16.8636 3.07135 16.8422 2.95333 16.8087 2.8307C16.7811 2.73021 16.7463 2.59796 16.7245 2.48008C16.7173 2.32848 16.7029 2.27083 16.6957 2.23012C16.6932 2.20843 16.6932 2.18465 16.6932 2.16016" stroke="#FF7700" stroke-width="0.48" stroke-linecap="round"/>
<path d="M16.5656 2.83691C16.5656 2.9686 16.5656 3.10028 16.5626 3.40455C16.5596 3.70882 16.5536 4.18168 16.5506 4.41181C16.5475 4.64193 16.5475 4.615 16.5594 4.54875C16.5714 4.4825 16.5954 4.37775 16.6152 4.26992C16.6802 3.91583 16.6833 3.81075 16.6986 3.73643C16.7135 3.66338 16.7951 3.99649 16.8135 4.14091C16.8295 4.26655 16.8346 4.33894 16.8452 4.4041C16.8601 4.49528 16.8558 4.56875 16.8438 4.62185C16.8378 4.6325 16.8288 4.64148 16.8212 4.65209C16.8136 4.6627 16.8076 4.67467 16.7833 4.70514" stroke="#FF7700" stroke-width="0.48" stroke-linecap="round"/>
</svg>
