<svg width="52" height="10" viewBox="0 0 52 10" fill="none" xmlns="http://www.w3.org/2000/svg">
<path d="M48.4855 2.05361C47.3693 1.91936 45.2498 2.27499 43.9613 2.73359C43.3859 2.9384 42.8025 3.12959 42.3941 3.5306C42.2014 3.71985 42.1706 3.99484 42.2919 4.15394C43.5817 5.84546 47.6522 4.23295 48.6541 3.92741C49.1449 3.77771 49.5946 3.56149 49.8168 3.15901C49.8522 2.94032 49.7306 2.69231 49.545 2.50181C49.3593 2.31132 49.1133 2.18585 48.8598 2.05657" stroke="#FCA8A8" stroke-width="4.05" stroke-linecap="round"/>
<path d="M8.03774 4.91445C6.2338 4.65125 4.49625 4.51207 3.02173 4.71749C2.7269 4.75856 2.4904 4.93037 2.29991 5.11601C2.10941 5.30165 1.98394 5.54769 2.04184 5.79894C2.58324 8.14842 8.33227 6.47765 9.33482 6.08041C9.58397 5.98169 9.83386 5.92809 9.83859 5.80367C9.84332 5.67925 9.59776 5.49202 9.34799 5.36372C9.09822 5.23541 8.85168 5.17169 8.41054 5.10457" stroke="#FCA8A8" stroke-width="4.05" stroke-linecap="round"/>
</svg>
