<svg width="65" height="10" viewBox="0 0 65 10" fill="none" xmlns="http://www.w3.org/2000/svg">
<path d="M53.1404 2.44986C52.8645 2.95083 52.5895 3.33162 52.2979 3.64193C52.1392 3.82953 51.9586 4.07833 51.7966 4.33174C51.6347 4.58515 51.4967 4.83564 50.9571 5.33646" stroke="#FCA8A8" stroke-width="2.1" stroke-linecap="round"/>
<path d="M3.23321 4.01089C2.95729 4.51187 2.68228 4.89265 2.39069 5.20296C2.23196 5.39057 2.05141 5.63936 1.88942 5.89277C1.72743 6.14618 1.58947 6.39667 1.04983 6.8975" stroke="#FCA8A8" stroke-width="2.1" stroke-linecap="round"/>
<path d="M58.1898 2.26312C57.7322 2.97535 57.0148 3.7212 56.4478 4.38901C56.3325 4.55766 56.2405 4.72465 56.1258 4.89333C56.0112 5.062 55.8766 5.2273 55.6038 5.52155" stroke="#FCA8A8" stroke-width="2.1" stroke-linecap="round"/>
<path d="M8.28256 3.82415C7.82499 4.53639 7.10754 5.28224 6.54056 5.95005C6.42525 6.11869 6.33328 6.28569 6.21862 6.45436C6.10396 6.62304 5.96939 6.78833 5.69653 7.08258" stroke="#FCA8A8" stroke-width="2.1" stroke-linecap="round"/>
<path d="M63.596 2.86609C63.5926 2.95128 63.4529 3.24566 63.1544 3.72828C62.8151 4.16662 62.5388 4.54606 62.3322 4.88173C62.2175 5.0504 62.083 5.2157 61.805 5.63903" stroke="#FCA8A8" stroke-width="2.1" stroke-linecap="round"/>
<path d="M13.6887 4.42712C13.6854 4.51231 13.5457 4.80669 13.2472 5.28932C12.9078 5.72766 12.6316 6.10709 12.425 6.44276C12.3103 6.61144 12.1757 6.77673 11.8977 7.20006" stroke="#FCA8A8" stroke-width="2.1" stroke-linecap="round"/>
</svg>
