<svg width="54" height="13" viewBox="0 0 54 13" fill="none" xmlns="http://www.w3.org/2000/svg">
<path d="M47.822 1.85057C45.6924 1.77751 41.2903 2.26034 40.2766 3.00847C39.0822 3.88998 39.1288 5.17085 39.1729 6.47951C39.1938 7.10027 39.7887 7.46849 40.2893 7.80022C41.4532 8.57146 45.2692 8.38313 48.067 8.07929C49.1841 7.95797 50.1541 7.42017 50.8012 6.99254C51.3434 6.63415 51.6028 6.08974 51.7488 5.35786C51.9729 4.23451 51.5114 3.26355 51.0339 2.8003C50.2917 2.28449 49.6619 2.19033 49.1122 2.04155C48.7714 1.9933 48.305 2.00035 47.8244 2.00761" stroke="#FCA7A7" stroke-width="3.6864" stroke-linecap="round"/>
<path d="M41.2923 3.99994C41.2937 4.08778 41.2238 5.27631 41.201 6.76566C41.1971 7.02306 41.978 5.5924 42.6115 4.9598C43.3321 4.2401 43.0215 6.81069 43.2635 6.87759C43.6206 6.97633 44.1477 5.8365 44.5042 5.55554C44.8607 5.27458 44.9525 5.53678 45.0032 5.89146C45.0538 6.24614 45.0604 6.68535 45.1487 6.71264C46.3036 7.06966 46.3614 4.85785 46.7779 4.54004C46.9677 4.39522 47.0381 5.41606 47.1573 6.03795C47.2594 6.57043 47.7828 4.83636 48.0397 4.3013C48.1785 4.01208 48.4722 3.7636 48.6155 4.26265C48.7588 4.76169 48.7781 6.03541 48.828 6.42738C48.8778 6.81934 48.9577 6.29096 49.0631 5.90796C49.1684 5.52497 49.2969 5.30337 49.5623 5.07304" stroke="#FCA7A7" stroke-width="3.6864" stroke-linecap="round"/>
<path d="M10.5134 4.48826C8.3838 4.41521 3.98167 4.89804 2.96798 5.64617C1.77359 6.52767 1.82016 7.80855 1.86429 9.1172C1.88523 9.73797 2.48011 10.1062 2.98073 10.4379C4.14459 11.2092 7.96056 11.0208 10.7584 10.717C11.8755 10.5957 12.8455 10.0579 13.4926 9.63024C14.0348 9.27185 14.2942 8.72744 14.4402 7.99556C14.6643 6.8722 14.2028 5.90125 13.7253 5.43799C12.9831 4.92219 12.3533 4.82803 11.8036 4.67925C11.4628 4.63099 10.9964 4.63804 10.5158 4.64531" stroke="#FCA7A7" stroke-width="3.6864" stroke-linecap="round"/>
<path d="M3.98373 6.63764C3.98506 6.72548 3.91517 7.91401 3.89242 9.40336C3.88849 9.66076 4.66944 8.23009 5.30287 7.59749C6.0235 6.8778 5.71293 9.44839 5.95489 9.51529C6.31201 9.61402 6.83908 8.4742 7.1956 8.19324C7.55212 7.91228 7.64395 8.17448 7.69457 8.52916C7.7452 8.88383 7.75184 9.32305 7.84011 9.35033C8.99506 9.70735 9.0528 7.49554 9.46934 7.17773C9.65914 7.03292 9.72953 8.05375 9.84876 8.67564C9.95084 9.20813 10.4742 7.47405 10.7311 6.939C10.8699 6.64978 11.1636 6.40129 11.3069 6.90034C11.4503 7.39939 11.4695 8.67311 11.5194 9.06507C11.5692 9.45704 11.6491 8.92865 11.7545 8.54566C11.8598 8.16266 11.9883 7.94106 12.2537 7.71074" stroke="#FCA7A7" stroke-width="3.6864" stroke-linecap="round"/>
</svg>
