<svg width="49" height="43" viewBox="0 0 49 43" fill="none" xmlns="http://www.w3.org/2000/svg">
<path d="M16.014 13.6293C12.8576 11.8276 10.4599 10.324 7.22005 10.2404C6.5006 10.2219 6.08891 10.911 5.78412 11.4393C5.17821 12.4895 5.17679 14.8169 5.47481 17.5984C5.86781 21.2664 11.7784 21.9017 15.1764 22.8816C15.8041 23.0626 15.8604 23.8524 15.3412 24.681C12.7386 28.8336 10.1529 31.8177 9.3175 34.8431C9.15516 35.431 9.24073 36.0442 9.53876 36.5003C9.83678 36.9563 10.4328 37.2543 11.3359 37.4079C12.239 37.5614 13.4311 37.5614 14.2687 37.0399C21.3463 32.633 16.312 16.5012 17.6644 13.7151C18.8713 11.2288 21.27 9.12285 24.5054 6.93963C27.2762 5.06985 31.0415 5.04986 34.0669 5.57367C34.7033 5.68385 35.268 6.09747 35.6496 6.54902C36.4075 7.44596 36.3337 8.80676 36.0357 10.0079C35.1592 13.5404 30.4816 15.878 24.765 18.6618C23.0209 19.5111 21.7396 20.0955 20.762 21.4456C19.7466 22.848 20.0779 24.909 20.3014 26.4872C20.6679 29.0745 25.0179 31.9712 28.1968 34.6941C29.2739 35.6167 30.608 35.9042 31.9582 36.0555C36.2675 36.5384 40.6866 32.9014 42.4251 30.3502C43.8625 28.2407 42.3573 25.6766 41.6823 24.4755C40.0815 21.6273 36.9478 19.8065 33.7869 17.7768C32.3812 16.8741 30.9241 16.3386 29.1224 16.6366C27.1381 16.9649 25.9526 18.5918 25.2752 20.0142C24.8444 20.919 25.045 22.4797 25.492 23.6943C27.0034 27.8011 31.2041 28.0699 34.8887 29.6548C35.8174 30.0542 36.7672 29.8851 37.3023 29.587C37.8373 29.289 37.9864 28.693 38.0631 28.0134C38.1399 27.3338 38.1399 26.5888 37.7674 25.9814C36.6498 24.9271 35.2861 24.3175 34.0105 24.0172C33.3309 23.8659 32.5858 23.7169 31.8182 23.5634" stroke="#FFF06C" stroke-width="10.56" stroke-linecap="round"/>
<path d="M17.4941 20.1578C17.4941 20.0429 17.6091 19.6964 17.8981 19.2036C18.3021 18.8832 18.7688 18.7073 19.2319 18.6203C19.4653 18.5907 19.6951 18.5907 20.2802 18.9389" stroke="#0D0D0D" stroke-width="2" stroke-linecap="round"/>
<path d="M25.9941 17.8037C25.9941 17.6887 26.0516 17.3997 26.2536 16.994C26.3981 16.8181 26.628 16.7032 27.0624 16.644C27.4969 16.5848 28.1289 16.5848 28.9543 16.7589" stroke="#0D0D0D" stroke-width="2" stroke-linecap="round"/>
<path d="M23.9941 22.8049C23.9941 23.0348 23.9941 24.4748 24.3389 26.4772C24.4684 27.2293 25.3732 27.1581 25.8146 27.0719C26.4683 26.9442 26.721 26.4058 26.9238 25.9427C27.1186 25.498 27.1284 24.783 27.0422 24.0003C26.3762 23.0974 25.7371 22.4584 25.2748 22.1972C24.9849 22.1084 24.5827 22.1084 24.1683 22.1084" stroke="#0D0D0D" stroke-width="2" stroke-linecap="round"/>
<path d="M10.7452 15.8519C12.2416 14.6975 15.2719 13.4087 16.451 13.2902C18.441 13.0901 18.0956 13.3419 18.4713 13.3917C19.0321 13.5927 19.8014 13.7746 20.6947 14.6879C21.2464 15.6356 22.6371 16.6588 22.0365 19.5343C21.726 21.0209 21.2438 22.3871 20.206 22.9731C19.2835 23.4941 18.2894 24.4937 15.2576 24.1545C13.488 23.9565 10.7662 23.5186 10.3826 22.2675C9.83239 20.4727 9.26249 16.9958 10.7452 15.8519Z" stroke="#863F00" stroke-width="1.6" stroke-linecap="round"/>
<path d="M23.25 17.3735L24.9491 17.2028" stroke="#863F00" stroke-width="1.6" stroke-linecap="round"/>
<path d="M27.0268 20.536C26.2507 19.3543 25.5731 18.2812 25.4766 17.3212C25.4359 16.9168 25.6268 16.2716 25.685 15.98C25.8945 15.5033 26.5959 13.4222 28.4952 12.5813C31.1369 11.4119 33.3619 11.4256 34.4674 12.2453C35.1461 12.7486 35.9187 13.2702 36.0655 14.2377C36.3174 15.8986 36.3898 17.5208 35.9046 18.3659C35.2956 19.4269 34.8239 20.5342 33.7581 20.9235C32.5654 21.3592 30.1794 22.3458 28.5639 21.6138C27.9966 21.3567 27.3923 21.0925 27.0268 20.536Z" stroke="#863F00" stroke-width="1.6" stroke-linecap="round"/>
</svg>
