<svg width="49" height="43" viewBox="0 0 49 43" fill="none" xmlns="http://www.w3.org/2000/svg">
<path d="M16.014 13.6293C12.8576 11.8276 10.4599 10.324 7.22005 10.2404C6.5006 10.2219 6.08891 10.911 5.78412 11.4393C5.17821 12.4895 5.17679 14.8169 5.47481 17.5984C5.86781 21.2664 11.7784 21.9017 15.1764 22.8816C15.8041 23.0626 15.8604 23.8524 15.3412 24.681C12.7386 28.8336 10.1529 31.8177 9.3175 34.8431C9.15516 35.431 9.24073 36.0442 9.53876 36.5003C9.83678 36.9563 10.4328 37.2543 11.3359 37.4079C12.239 37.5614 13.4311 37.5614 14.2687 37.0399C21.3463 32.633 16.312 16.5012 17.6644 13.7151C18.8713 11.2288 21.27 9.12285 24.5054 6.93963C27.2762 5.06985 31.0415 5.04986 34.0669 5.57367C34.7033 5.68385 35.268 6.09747 35.6496 6.54902C36.4075 7.44596 36.3337 8.80676 36.0357 10.0079C35.1592 13.5404 30.4816 15.878 24.765 18.6618C23.0209 19.5111 21.7396 20.0955 20.762 21.4456C19.7466 22.848 20.0779 24.909 20.3014 26.4872C20.6679 29.0745 25.0179 31.9712 28.1968 34.6941C29.2739 35.6167 30.608 35.9042 31.9582 36.0555C36.2675 36.5384 40.6866 32.9014 42.4251 30.3502C43.8625 28.2407 42.3573 25.6766 41.6823 24.4755C40.0815 21.6273 36.9478 19.8065 33.7869 17.7768C32.3812 16.8741 30.9241 16.3386 29.1224 16.6366C27.1381 16.9649 25.9526 18.5918 25.2752 20.0142C24.8444 20.919 25.045 22.4797 25.492 23.6943C27.0034 27.8011 31.2041 28.0699 34.8887 29.6548C35.8174 30.0542 36.7672 29.8851 37.3023 29.587C37.8373 29.289 37.9864 28.693 38.0631 28.0134C38.1399 27.3338 38.1399 26.5888 37.7674 25.9814C36.6498 24.9271 35.2861 24.3175 34.0105 24.0172C33.3309 23.8659 32.5858 23.7169 31.8182 23.5634" stroke="#FFF06C" stroke-width="10.56" stroke-linecap="round"/>
<path d="M17.4941 20.1578C17.4941 20.0429 17.6091 19.6964 17.8981 19.2036C18.3021 18.8832 18.7688 18.7073 19.2319 18.6203C19.4653 18.5907 19.6951 18.5907 20.2802 18.9389" stroke="#0D0D0D" stroke-width="2" stroke-linecap="round"/>
<path d="M25.9941 17.8037C25.9941 17.6887 26.0516 17.3997 26.2536 16.994C26.3981 16.8181 26.628 16.7032 27.0624 16.644C27.4969 16.5848 28.1289 16.5848 28.9543 16.7589" stroke="#0D0D0D" stroke-width="2" stroke-linecap="round"/>
<path d="M23.9941 22.8049C23.9941 23.0348 23.9941 24.4748 24.3389 26.4772C24.4684 27.2293 25.3732 27.1581 25.8146 27.0719C26.4683 26.9442 26.721 26.4058 26.9238 25.9427C27.1186 25.498 27.1284 24.783 27.0422 24.0003C26.3762 23.0974 25.7371 22.4584 25.2748 22.1972C24.9849 22.1084 24.5827 22.1084 24.1683 22.1084" stroke="#0D0D0D" stroke-width="2" stroke-linecap="round"/>
<path d="M9.13537 9.16991C6.10404 7.58207 4.03723 6.90845 3.09131 7.37977C1.20732 8.3185 1.40835 10.0404 1.37116 10.8409C1.35403 11.2095 1.5505 11.497 1.76922 11.6818C3.34167 13.0105 8.02431 11.147 10.0769 9.72215C12.0927 8.32277 13.2077 6.19108 15.2155 4.94444C15.6398 4.68098 16.1253 4.79571 16.4928 4.94006C18.0313 5.54448 17.9559 7.63456 18.0653 8.57939C18.1243 9.08912 18.1025 9.66857 17.3086 9.96601C13.2029 11.5042 11.4756 9.9004 9.54326 9.97039C8.62577 10.9896 8.04618 12.2975 7.09699 15.6448C6.94827 16.4551 6.94827 16.9604 6.94827 16.8248" stroke="#FF0000" stroke-width="1.6" stroke-linecap="round"/>
<path d="M11.3223 10.0449C12.2605 11.0554 13.1988 12.0658 13.7904 12.7307C14.382 13.3956 14.5985 13.6843 14.8183 13.9412C15.0381 14.1982 15.2547 14.4147 15.6965 14.8565" stroke="#FF0000" stroke-width="1.6" stroke-linecap="round"/>
</svg>
