<svg width="49" height="56" viewBox="0 0 49 56" fill="none" xmlns="http://www.w3.org/2000/svg">
<path d="M16.014 26.35C12.8576 24.5483 10.4599 23.0447 7.22005 22.9611C6.5006 22.9426 6.08891 23.6317 5.78412 24.16C5.17821 25.2102 5.17679 27.5376 5.47481 30.3191C5.86781 33.9871 11.7784 34.6224 15.1764 35.6023C15.8041 35.7833 15.8604 36.5731 15.3412 37.4017C12.7386 41.5543 10.1529 44.5384 9.3175 47.5638C9.15516 48.1517 9.24073 48.7649 9.53876 49.221C9.83678 49.677 10.4328 49.975 11.3359 50.1286C12.239 50.2821 13.4311 50.2821 14.2687 49.7606C21.3463 45.3537 16.312 29.2219 17.6644 26.4358C18.8713 23.9495 21.27 21.8436 24.5054 19.6603C27.2762 17.7905 31.0415 17.7706 34.0669 18.2944C34.7033 18.4045 35.268 18.8182 35.6496 19.2697C36.4075 20.1667 36.3337 21.5275 36.0357 22.7286C35.1592 26.2611 30.4816 28.5987 24.765 31.3825C23.0209 32.2318 21.7396 32.8162 20.762 34.1663C19.7466 35.5687 20.0779 37.6297 20.3014 39.2079C20.6679 41.7952 25.0179 44.6919 28.1968 47.4148C29.2739 48.3374 30.608 48.6249 31.9582 48.7762C36.2675 49.2591 40.6866 45.6221 42.4251 43.0709C43.8625 40.9614 42.3573 38.3973 41.6823 37.1962C40.0815 34.3481 36.9478 32.5272 33.7869 30.4975C32.3812 29.5948 30.9241 29.0593 29.1224 29.3573C27.1381 29.6856 25.9526 31.3126 25.2752 32.7349C24.8444 33.6397 25.045 35.2004 25.492 36.415C27.0034 40.5218 31.2041 40.7906 34.8887 42.3755C35.8174 42.7749 36.7672 42.6058 37.3023 42.3077C37.8373 42.0097 37.9864 41.4137 38.0631 40.7341C38.1399 40.0545 38.1399 39.3095 37.7674 38.7021C36.6498 37.6478 35.2861 37.0382 34.0105 36.7379C33.3309 36.5866 32.5858 36.4376 31.8182 36.2841" stroke="#FFF06C" stroke-width="10.56" stroke-linecap="round"/>
<path d="M17.4941 32.8785C17.4941 32.7636 17.6091 32.4171 17.8981 31.9243C18.3021 31.6039 18.7688 31.428 19.2319 31.341C19.4653 31.3114 19.6951 31.3114 20.2802 31.6596" stroke="#0D0D0D" stroke-width="2" stroke-linecap="round"/>
<path d="M25.9941 30.5244C25.9941 30.4094 26.0516 30.1204 26.2536 29.7147C26.3981 29.5388 26.628 29.4239 27.0624 29.3647C27.4969 29.3055 28.1289 29.3055 28.9543 29.4796" stroke="#0D0D0D" stroke-width="2" stroke-linecap="round"/>
<path d="M23.9941 35.5256C23.9941 35.7555 23.9941 37.1955 24.3389 39.1979C24.4684 39.95 25.3732 39.8788 25.8146 39.7926C26.4683 39.6649 26.721 39.1265 26.9238 38.6634C27.1186 38.2187 27.1284 37.5037 27.0422 36.721C26.3762 35.8181 25.7371 35.1791 25.2748 34.9179C24.9849 34.8291 24.5827 34.8291 24.1683 34.8291" stroke="#0D0D0D" stroke-width="2" stroke-linecap="round"/>
<path d="M20.0664 6.29329C21.78 5.64175 19.991 6.25499 18.28 6.14175C16.569 6.02852 12.8407 5.94217 11.099 5.85166C9.35735 5.76114 9.3709 5.8252 9.4136 5.90687C9.45631 5.98853 9.52776 6.08586 10.8889 7.34706C12.25 8.60826 14.8986 11.0304 16.2939 12.2529C17.6891 13.4754 19.3586 14.1952 19.2801 13.1418C19.2016 12.0883 17.3733 9.26302 17.147 7.83606C16.9207 6.40911 16.6953 5.67239 16.3809 4.82349C16.0664 3.97458 15.6697 3.03582 15.4432 2.498C15.2167 1.96019 15.1724 1.85177 15.1243 1.83473C15.0762 1.81769 15.0257 1.8953 14.3497 3.81153C13.6738 5.72776 12.3739 9.48027 11.6938 11.4651C11.0137 13.45 10.9928 13.5535 11.0417 13.5981C11.1678 13.7132 11.7239 13.4797 13.0689 12.8224C14.0495 12.3432 15.5302 11.3668 16.6612 10.504C17.7922 9.6412 18.5019 8.87002 18.9395 8.3705C19.9561 7.21009 21.2403 6.01242 21.28 5.90684C21.3049 5.85794 20.3063 6.18606 20.3413 6.21564C20.3763 6.24523 20.4108 6.34502 20.4463 6.44783" stroke="#FFEC6F" stroke-width="2" stroke-linecap="round"/>
<path d="M15.4824 12.7627V20.0836" stroke="#FFEC6F" stroke-width="2" stroke-linecap="round"/>
</svg>
