<svg width="49" height="44" viewBox="0 0 49 44" fill="none" xmlns="http://www.w3.org/2000/svg">
<path d="M16.014 14.5502C12.8576 12.7485 10.4599 11.2449 7.22005 11.1613C6.5006 11.1428 6.08891 11.8319 5.78412 12.3602C5.17821 13.4104 5.17679 15.7378 5.47481 18.5193C5.86781 22.1873 11.7784 22.8226 15.1764 23.8025C15.8041 23.9835 15.8604 24.7733 15.3412 25.6019C12.7386 29.7545 10.1529 32.7386 9.3175 35.764C9.15516 36.3519 9.24073 36.9651 9.53876 37.4212C9.83678 37.8772 10.4328 38.1752 11.3359 38.3288C12.239 38.4823 13.4311 38.4823 14.2687 37.9608C21.3463 33.5539 16.312 17.4221 17.6644 14.636C18.8713 12.1497 21.27 10.0437 24.5054 7.86053C27.2762 5.99074 31.0415 5.97076 34.0669 6.49457C34.7033 6.60474 35.268 7.01837 35.6496 7.46992C36.4075 8.36686 36.3337 9.72765 36.0357 10.9288C35.1592 14.4613 30.4816 16.7989 24.765 19.5827C23.0209 20.432 21.7396 21.0164 20.762 22.3665C19.7466 23.7689 20.0779 25.8299 20.3014 27.4081C20.6679 29.9954 25.0179 32.8921 28.1968 35.615C29.2739 36.5376 30.608 36.8251 31.9582 36.9764C36.2675 37.4593 40.6866 33.8223 42.4251 31.2711C43.8625 29.1616 42.3573 26.5975 41.6823 25.3964C40.0815 22.5482 36.9478 20.7274 33.7869 18.6977C32.3812 17.795 30.9241 17.2595 29.1224 17.5575C27.1381 17.8858 25.9526 19.5127 25.2752 20.9351C24.8444 21.8399 25.045 23.4006 25.492 24.6152C27.0034 28.722 31.2041 28.9907 34.8887 30.5757C35.8174 30.9751 36.7672 30.806 37.3023 30.5079C37.8373 30.2099 37.9864 29.6139 38.0631 28.9343C38.1399 28.2547 38.1399 27.5097 37.7674 26.9023C36.6498 25.848 35.2861 25.2384 34.0105 24.9381C33.3309 24.7868 32.5858 24.6378 31.8182 24.4843" stroke="#FFF06C" stroke-width="10.56" stroke-linecap="round"/>
<path d="M17.4941 21.0787C17.4941 20.9638 17.6091 20.6173 17.8981 20.1245C18.3021 19.8041 18.7688 19.6282 19.2319 19.5412C19.4653 19.5116 19.6951 19.5116 20.2802 19.8598" stroke="#0D0D0D" stroke-width="2" stroke-linecap="round"/>
<path d="M25.9941 18.7246C25.9941 18.6096 26.0516 18.3206 26.2536 17.9149C26.3981 17.739 26.628 17.6241 27.0624 17.5649C27.4969 17.5057 28.1289 17.5057 28.9543 17.6798" stroke="#0D0D0D" stroke-width="2" stroke-linecap="round"/>
<path d="M23.9941 23.7258C23.9941 23.9556 23.9941 25.3957 24.3389 27.3981C24.4684 28.1502 25.3732 28.079 25.8146 27.9928C26.4683 27.8651 26.721 27.3267 26.9238 26.8636C27.1186 26.4189 27.1284 25.7039 27.0422 24.9212C26.3762 24.0183 25.7371 23.3793 25.2748 23.1181C24.9849 23.0293 24.5827 23.0293 24.1683 23.0293" stroke="#0D0D0D" stroke-width="2" stroke-linecap="round"/>
<path d="M14.1002 1.36463C13.8832 1.9089 13.3339 3.11421 13.2238 4.01942C13.0948 5.07891 12.5677 6.01812 12.3194 7.08777C12.2386 7.43562 12.2914 7.93214 12.4 8.23799C12.5085 8.54383 12.7255 8.65236 13.1358 8.70827C15.176 8.98629 16.7246 7.9453 18.0146 7.58683C19.1691 7.266 20.2336 6.73835 21.2761 6.29931C22.8105 5.65314 24.0715 5.36696 25.1132 5.01096C26.24 4.62589 27.6858 4.48888 28.864 4.62454C30.4953 4.81238 29.2841 8.37611 29.0646 9.28132C28.8131 10.3183 28.2975 10.9544 28.0245 11.3104C27.7643 11.6498 26.8768 11.5596 25.8918 11.4782C24.0226 11.3237 21.8944 8.82995 20.708 7.61642C19.8678 6.75696 19.2569 5.42616 18.5424 4.46504C17.8204 3.49376 17.2278 2.57486 16.5692 1.72392C16.4039 1.53071 16.2412 1.36792 16.0488 1.33832C15.8564 1.30872 15.6393 1.41725 14.9224 1.2002" stroke="#CDA8EE" stroke-width="2.4" stroke-linecap="round"/>
</svg>
