<svg width="49" height="50" viewBox="0 0 49 50" fill="none" xmlns="http://www.w3.org/2000/svg">
<path d="M15.6953 3.96094V15.8818" stroke="#62A565" stroke-width="1.6" stroke-linecap="round"/>
<path d="M16.1706 3.31553C15.9173 3.12527 14.9659 2.42827 13.6575 1.70832C12.7123 1.18821 11.8089 0.894674 10.7089 0.813883C9.95566 0.758562 8.94248 0.860252 7.91944 1.22644C7.54443 1.36067 7.40697 1.78385 7.31136 2.22844C7.19116 2.78738 7.43661 3.34517 7.75452 3.72713C8.23692 4.30675 8.86982 4.43035 10.0281 4.62157C13.1927 5.144 14.1915 4.39975 15.7652 3.73335C17.387 3.04664 17.666 2.29823 18.1923 1.86703C18.8318 1.34312 19.9568 1.08589 21.9795 1.13131C22.4286 1.14139 23.3153 1.43678 23.4922 1.70832C24.2517 2.87419 23.8622 4.02114 23.6719 4.32327C23.1437 5.16199 20.9875 5.16273 19.1891 5.19619C18.4031 5.00497 17.8935 4.87781 17.5278 4.76642C17.3514 4.71814 17.1937 4.68659 17.1267 4.65408" stroke="#62A565" stroke-width="1.6" stroke-linecap="round"/>
<path d="M16.014 20.1498C12.8576 18.3481 10.4599 16.8445 7.22005 16.7609C6.5006 16.7424 6.08891 17.4315 5.78412 17.9598C5.17821 19.0101 5.17679 21.3374 5.47481 24.119C5.86781 27.7869 11.7784 28.4222 15.1764 29.4021C15.8041 29.5831 15.8604 30.3729 15.3412 31.2015C12.7386 35.3542 10.1529 38.3382 9.3175 41.3636C9.15516 41.9515 9.24073 42.5647 9.53876 43.0208C9.83678 43.4768 10.4328 43.7749 11.3359 43.9284C12.239 44.0819 13.4311 44.0819 14.2687 43.5604C21.3463 39.1535 16.312 23.0217 17.6644 20.2356C18.8713 17.7493 21.27 15.6434 24.5054 13.4601C27.2762 11.5904 31.0415 11.5704 34.0669 12.0942C34.7033 12.2044 35.268 12.618 35.6496 13.0695C36.4075 13.9665 36.3337 15.3273 36.0357 16.5284C35.1592 20.0609 30.4816 22.3985 24.765 25.1823C23.0209 26.0316 21.7396 26.616 20.762 27.9661C19.7466 29.3685 20.0779 31.4295 20.3014 33.0077C20.6679 35.595 25.0179 38.4917 28.1968 41.2146C29.2739 42.1372 30.608 42.4247 31.9582 42.576C36.2675 43.0589 40.6866 39.4219 42.4251 36.8707C43.8625 34.7612 42.3573 32.1971 41.6823 30.996C40.0815 28.1479 36.9478 26.327 33.7869 24.2973C32.3812 23.3946 30.9241 22.8591 29.1224 23.1571C27.1381 23.4854 25.9526 25.1124 25.2752 26.5347C24.8444 27.4395 25.045 29.0002 25.492 30.2148C27.0034 34.3216 31.2041 34.5904 34.8887 36.1753C35.8174 36.5747 36.7672 36.4056 37.3023 36.1075C37.8373 35.8095 37.9864 35.2135 38.0631 34.5339C38.1399 33.8543 38.1399 33.1093 37.7674 32.5019C36.6498 31.4476 35.2861 30.838 34.0105 30.5377C33.3309 30.3864 32.5858 30.2374 31.8182 30.0839" stroke="#FFF06C" stroke-width="10.56" stroke-linecap="round"/>
<path d="M17.4941 26.6783C17.4941 26.5634 17.6091 26.2169 17.8981 25.7241C18.3021 25.4037 18.7688 25.2278 19.2319 25.1408C19.4653 25.1112 19.6951 25.1112 20.2802 25.4594" stroke="#0D0D0D" stroke-width="2" stroke-linecap="round"/>
<path d="M25.9941 24.3242C25.9941 24.2092 26.0516 23.9202 26.2536 23.5145C26.3981 23.3386 26.628 23.2237 27.0624 23.1645C27.4969 23.1053 28.1289 23.1053 28.9543 23.2794" stroke="#0D0D0D" stroke-width="2" stroke-linecap="round"/>
<path d="M23.9941 29.3254C23.9941 29.5553 23.9941 30.9953 24.3389 32.9977C24.4684 33.7498 25.3732 33.6786 25.8146 33.5924C26.4683 33.4647 26.721 32.9263 26.9238 32.4632C27.1186 32.0185 27.1284 31.3035 27.0422 30.5208C26.3762 29.6179 25.7371 28.9789 25.2748 28.7177C24.9849 28.6289 24.5827 28.6289 24.1683 28.6289" stroke="#0D0D0D" stroke-width="2" stroke-linecap="round"/>
</svg>
