<svg width="49" height="48" viewBox="0 0 49 48" fill="none" xmlns="http://www.w3.org/2000/svg">
<path d="M16.014 18.5903C12.8576 16.7886 10.4599 15.2849 7.22005 15.2014C6.5006 15.1828 6.08891 15.8719 5.78412 16.4003C5.17821 17.4505 5.17679 19.7778 5.47481 22.5594C5.86781 26.2274 11.7784 26.8626 15.1764 27.8425C15.8041 28.0235 15.8604 28.8133 15.3412 29.6419C12.7386 33.7946 10.1529 36.7786 9.3175 39.804C9.15516 40.3919 9.24073 41.0051 9.53876 41.4612C9.83678 41.9173 10.4328 42.2153 11.3359 42.3688C12.239 42.5223 13.4311 42.5223 14.2687 42.0008C21.3463 37.594 16.312 21.4621 17.6644 18.6761C18.8713 16.1897 21.27 14.0838 24.5054 11.9006C27.2762 10.0308 31.0415 10.0108 34.0669 10.5346C34.7033 10.6448 35.268 11.0584 35.6496 11.51C36.4075 12.4069 36.3337 13.7677 36.0357 14.9688C35.1592 18.5013 30.4816 20.8389 24.765 23.6228C23.0209 24.4721 21.7396 25.0564 20.762 26.4066C19.7466 27.809 20.0779 29.8699 20.3014 31.4481C20.6679 34.0355 25.0179 36.9322 28.1968 39.655C29.2739 40.5776 30.608 40.8652 31.9582 41.0165C36.2675 41.4993 40.6866 37.8624 42.4251 35.3111C43.8625 33.2017 42.3573 30.6376 41.6823 29.4365C40.0815 26.5883 36.9478 24.7674 33.7869 22.7377C32.3812 21.8351 30.9241 21.2995 29.1224 21.5976C27.1381 21.9258 25.9526 23.5528 25.2752 24.9751C24.8444 25.88 25.045 27.4406 25.492 28.6553C27.0034 32.762 31.2041 33.0308 34.8887 34.6157C35.8174 35.0152 36.7672 34.846 37.3023 34.548C37.8373 34.25 37.9864 33.6539 38.0631 32.9743C38.1399 32.2948 38.1399 31.5497 37.7674 30.9424C36.6498 29.888 35.2861 29.2784 34.0105 28.9781C33.3309 28.8269 32.5858 28.6778 31.8182 28.5243" stroke="#FFF06C" stroke-width="10.56" stroke-linecap="round"/>
<path d="M17.4941 25.1187C17.4941 25.0038 17.6091 24.6573 17.8981 24.1645C18.3021 23.8441 18.7688 23.6683 19.2319 23.5812C19.4653 23.5516 19.6951 23.5516 20.2802 23.8998" stroke="#0D0D0D" stroke-width="2" stroke-linecap="round"/>
<path d="M25.9941 22.7646C25.9941 22.6497 26.0516 22.3606 26.2536 21.9549C26.3981 21.779 26.628 21.6641 27.0624 21.6049C27.4969 21.5457 28.1289 21.5457 28.9543 21.7198" stroke="#0D0D0D" stroke-width="2" stroke-linecap="round"/>
<path d="M23.9941 27.7658C23.9941 27.9957 23.9941 29.4357 24.3389 31.4382C24.4684 32.1903 25.3732 32.119 25.8146 32.0328C26.4683 31.9052 26.721 31.3668 26.9238 30.9036C27.1186 30.4589 27.1284 29.7439 27.0422 28.9612C26.3762 28.0584 25.7371 27.4193 25.2748 27.1581C24.9849 27.0693 24.5827 27.0693 24.1683 27.0693" stroke="#0D0D0D" stroke-width="2" stroke-linecap="round"/>
<path d="M16.4961 6.32471V13.1985" stroke="#FF6868" stroke-width="2.4" stroke-linecap="round"/>
<path d="M15.4629 6.05127C15.5081 6.11938 15.6604 6.2716 15.8126 6.40485C16.095 6.65208 16.2089 6.73649 16.3499 6.82426C16.4678 6.8976 16.6349 7.00299 16.864 7.12127C17.0147 7.19913 17.146 7.26995 17.3477 7.34995C17.3976 7.36915 17.4354 7.38423 17.4699 7.39577C17.5044 7.40731 17.5346 7.41486 17.5885 7.42263" stroke="#FFF06C" stroke-width="0.48" stroke-linecap="round"/>
<path d="M15.4629 7.61328C15.5081 7.68139 15.6604 7.83361 15.8126 7.96686C16.095 8.21409 16.2089 8.2985 16.3499 8.38627C16.4678 8.45961 16.6349 8.565 16.864 8.68328C17.0147 8.76114 17.146 8.83196 17.3477 8.91196C17.3976 8.93116 17.4354 8.94624 17.4699 8.95778C17.5044 8.96933 17.5346 8.97687 17.5885 8.98464" stroke="#FFF06C" stroke-width="0.48" stroke-linecap="round"/>
<path d="M15.4629 9.5332C15.5081 9.60131 15.6604 9.75353 15.8126 9.88679C16.095 10.134 16.2089 10.2184 16.3499 10.3062C16.4678 10.3795 16.6349 10.4849 16.864 10.6032C17.0147 10.6811 17.146 10.7519 17.3477 10.8319C17.3976 10.8511 17.4354 10.8662 17.4699 10.8777C17.5044 10.8892 17.5346 10.8968 17.5885 10.9046" stroke="#FFF06C" stroke-width="0.48" stroke-linecap="round"/>
<path d="M15.4629 11.4531C15.5081 11.5212 15.6604 11.6735 15.8126 11.8067C16.095 12.0539 16.2089 12.1383 16.3499 12.2261C16.4678 12.2995 16.6349 12.4048 16.864 12.5231C17.0147 12.601 17.146 12.6718 17.3477 12.7518C17.3976 12.771 17.4354 12.7861 17.4699 12.7976C17.5044 12.8092 17.5346 12.8167 17.5885 12.8245" stroke="#FFF06C" stroke-width="0.48" stroke-linecap="round"/>
<path d="M16.4892 0.394677C16.3181 0.625568 16.1809 0.848736 15.7444 1.61001C15.5578 1.93563 15.3922 2.50178 15.3267 2.805C15.2202 3.29783 15.3222 4.0148 15.3821 4.18636C15.4708 4.43992 15.596 4.80297 15.7209 4.98457C15.7776 5.06702 15.8455 5.13064 15.9138 5.18199C16.109 5.32869 16.3683 5.27659 16.6125 5.30671C16.9417 5.34729 17.1147 5.18289 17.2353 5.0798C17.3465 4.98475 17.4154 4.84827 17.5185 4.65972C17.6042 4.50285 17.6903 4.32523 17.6948 3.42702C17.6964 3.09657 17.5966 2.75661 17.4806 2.4548C17.3972 2.23762 17.2964 1.95814 17.2102 1.69534C17.1527 1.52003 16.9623 1.10151 16.8456 0.77306C16.7986 0.644873 16.7639 0.540882 16.7425 0.463918C16.7296 0.420932 16.7127 0.369966 16.6694 0.240234" stroke="#FF0004" stroke-width="0.48" stroke-linecap="round"/>
<path d="M16.4759 2.17457C16.4472 2.19834 16.3992 2.29418 16.3249 2.41191C16.268 2.50203 16.2073 2.65877 16.1447 2.80807C16.0229 3.09843 16.0147 3.45195 16.0028 3.57192C15.9903 3.69703 15.962 3.79291 15.9547 3.87477C15.9331 4.11751 15.9617 4.55179 15.9978 4.66247C16.0241 4.74297 16.0577 4.81148 16.1202 4.89787C16.196 5.00271 16.3217 5.01352 16.4417 5.02548C16.6619 5.04743 16.7684 4.98498 16.8503 4.94881C16.9452 4.90687 17.0229 4.61232 17.0547 4.43737C17.0881 4.25365 17.0477 3.92376 17.0188 3.79147C16.9834 3.62908 16.8656 3.37672 16.7932 3.21028C16.7327 3.07135 16.7114 2.95333 16.6778 2.8307C16.6503 2.73021 16.6154 2.59796 16.5936 2.48008C16.5864 2.32848 16.572 2.27083 16.5648 2.23012C16.5624 2.20843 16.5624 2.18465 16.5624 2.16016" stroke="#FF7700" stroke-width="0.48" stroke-linecap="round"/>
<path d="M16.4347 2.83691C16.4347 2.9686 16.4347 3.10028 16.4318 3.40455C16.4288 3.70882 16.4228 4.18168 16.4197 4.41181C16.4166 4.64193 16.4166 4.615 16.4286 4.54875C16.4406 4.4825 16.4645 4.37775 16.4843 4.26992C16.5494 3.91583 16.5525 3.81075 16.5677 3.73643C16.5827 3.66338 16.6642 3.99649 16.6826 4.14091C16.6986 4.26655 16.7037 4.33894 16.7144 4.4041C16.7292 4.49528 16.725 4.56875 16.7129 4.62185C16.7069 4.6325 16.6979 4.64148 16.6903 4.65209C16.6827 4.6627 16.6767 4.67467 16.6524 4.70514" stroke="#FF7700" stroke-width="0.48" stroke-linecap="round"/>
</svg>
