<svg width="70" height="57" viewBox="0 0 70 57" fill="none" xmlns="http://www.w3.org/2000/svg">
<path d="M30.5864 10.0005C30.0607 11.948 27.9643 16.1439 26.6565 18.4413C26.0773 19.4588 25.6273 20.3398 24.7842 21.6595C24.0567 22.7982 23.4645 24.3995 22.8303 25.8554C22.2129 27.273 21.9856 28.7822 21.4576 30.052C21.0914 30.9327 20.7189 32.4207 20.217 34.141C19.8962 35.2406 19.9779 37.8991 20.1616 39.7896C20.2876 41.0865 21.0831 42.0855 21.9801 43.7195C22.5815 44.8151 23.9806 45.5689 25.1729 46.2568C26.1969 46.8477 27.3627 47.0509 30.071 47.3137C33.9959 47.6946 35.0673 47.2092 36.1241 47.0517C37.1396 46.9003 37.9711 46.6297 39.0264 46.2347C40.3891 45.7246 41.0333 44.679 41.7989 43.8612C42.6475 42.9547 42.8288 41.7245 43.1993 40.879C43.5446 40.0911 43.6744 38.9821 43.7543 38.029C43.8395 37.0134 44.1494 35.8661 44.1771 29.843C44.187 27.6755 43.6775 26.841 43.1495 25.6012C42.7204 24.5938 42.148 23.307 41.5139 22.0648C40.9429 20.9464 40.3525 20.0326 39.7722 19.0557C39.2427 18.1643 38.4018 17.1857 37.6616 16.1526C36.9084 15.1014 36.1851 14.3325 35.4449 13.5923C34.4941 12.6415 33.6517 12.0082 32.9638 11.2965C32.6398 10.9613 32.3296 10.6354 31.9615 10.3979C31.7714 10.2752 31.4889 10.3172 31.3282 10.4478C30.5324 11.0946 30.903 14.7759 30.7716 17.0155C30.6509 19.073 30.2697 21.9199 30.086 23.322C29.8921 24.8022 29.6364 25.9353 28.9793 29.8296C28.6686 31.671 28.3729 33.8964 27.9224 36.539C27.8317 37.0709 27.7902 37.3861 28.5993 36.3197C29.4084 35.2533 31.0804 32.7976 32.412 30.6181C33.7436 28.4386 34.6841 26.6098 35.2992 25.8506C35.9144 25.0914 36.1756 25.4572 36.3624 25.9329C36.7609 26.9477 36.8137 29.0387 36.8406 31.7518C36.8844 36.1634 35.2842 38.6037 35.205 38.7644C34.5032 40.1892 36.5429 34.9763 37.9442 34.1212C38.1984 33.9661 38.4461 34.0674 38.6844 34.2242C39.2576 34.6012 39.5576 35.2264 39.716 35.8566C39.8194 36.2684 39.7698 36.9048 39.6914 37.3062C39.5754 37.9006 37.1003 38.0258 34.9192 38.4984C33.6863 38.7656 32.9139 40.1316 32.4864 40.9787C32.5371 41.1387 32.7461 41.2432 32.9582 41.3754C33.1704 41.5076 33.3794 41.6643 33.5947 41.8258" stroke="#C8E1FF" stroke-width="11.495" stroke-linecap="round"/>
<path d="M41.6015 24.6875C41.8209 25.7873 42.1726 26.5779 42.6134 27.219C43.0383 27.8369 43.3623 28.6057 43.8032 29.3334C44.2479 30.0675 44.4199 30.853 44.6195 31.6243C44.7569 32.1552 44.6856 32.6614 44.7517 33.9945C45.0326 39.6617 44.2903 40.3709 44.092 41.0768C43.8812 41.8272 43.4099 42.4859 43.057 43.1919C42.7117 43.8823 42.2202 44.4688 41.7139 45.0214C41.0304 45.3968 40.5017 45.6176 40.0628 45.6837C39.7984 45.7062 39.4494 45.7062 39.0898 45.7062" stroke="#C8E1FF" stroke-width="11.495" stroke-linecap="round"/>
<path d="M38.958 19.9287C39.4418 20.3676 39.968 21.3326 40.5423 22.3049C41.0246 23.1212 41.2476 23.8469 41.7103 24.4431C42.176 25.0433 42.3051 25.8298 42.5266 26.5357C42.7521 27.2547 43.2305 27.9449 43.6932 28.5411C44.1712 29.1571 44.333 29.9278 44.5974 30.6337C44.8621 31.3405 44.8617 32.1751 44.8849 36.0847C44.8936 37.5659 44.3356 38.3432 43.8948 39.094C43.5248 39.7241 42.8841 40.4583 42.243 41.1219C41.9138 41.2118 41.4723 41.299 40.9449 41.453C40.6792 41.5198 40.4174 41.5634 40.1477 41.6083" stroke="#C8E1FF" stroke-width="11.495" stroke-linecap="round"/>
<path d="M35.3105 21.0151L35.8806 21.2024" stroke="#0D0D0D" stroke-width="2.5" stroke-linecap="round"/>
<path d="M28.3457 22.2021L28.9157 22.0149" stroke="#0D0D0D" stroke-width="2.5" stroke-linecap="round"/>
<path d="M28.9814 29.1262C29.4398 29.0012 30.3009 28.666 31.4458 28.2244C32.3615 27.9911 33.2902 27.7809 34.4231 27.5287C35.0352 27.4223 35.7227 27.3598 36.431 27.2954" stroke="#0D0D0D" stroke-width="2" stroke-linecap="round"/>
<path d="M13.4853 1.91406C9.73369 2.82457 7.51071 4.44155 5.42173 6.6767C4.35288 8.40634 3.43934 9.7249 2.83183 10.7374C2.52579 11.2475 2.22432 11.7499 1.30469 13.1812" stroke="#1A1A1A" stroke-width="2" stroke-linecap="round"/>
<path d="M1 5.87256C1 6.07354 1 6.27452 1.5527 7.03124C2.10539 7.78797 3.21078 9.09434 4.95869 10.7448" stroke="#1A1A1A" stroke-width="2" stroke-linecap="round"/>
<path d="M8.30859 1.00049C8.50958 1.50294 8.71056 2.00539 9.01508 2.71644C9.3196 3.42748 9.72156 4.3319 10.0794 4.99879C10.4372 5.66568 10.7386 6.06764 11.6583 6.48177" stroke="#1A1A1A" stroke-width="2" stroke-linecap="round"/>
<path d="M63.9587 37.0005C63.9587 37.2015 63.9587 40.7217 63.6572 46.7024C63.3558 49.2664 62.7528 50.8742 62.191 52.1045C61.6292 53.3347 61.1267 54.1387 60 55.576" stroke="#1A1A1A" stroke-width="2" stroke-linecap="round"/>
<path d="M61.5225 42.4818C61.9244 42.4818 63.1364 42.4818 64.9102 42.4315C65.6791 42.3813 66.1815 42.2808 66.7419 42.229C67.3022 42.1772 67.9051 42.1772 68.5263 42.1772" stroke="#1A1A1A" stroke-width="2" stroke-linecap="round"/>
<path d="M60.6094 48.8765C61.5138 49.1779 62.4182 49.4794 63.0851 49.7352C63.752 49.991 64.1539 50.192 64.562 50.3458C64.97 50.4995 65.372 50.6 66.0907 50.7036" stroke="#1A1A1A" stroke-width="2" stroke-linecap="round"/>
</svg>
