<svg width="48" height="62" viewBox="0 0 48 62" fill="none" xmlns="http://www.w3.org/2000/svg">
<path d="M22.5864 5.74902C22.0607 7.69654 19.9643 11.8924 18.6565 14.1899C18.0773 15.2073 17.6273 16.0883 16.7842 17.408C16.0567 18.5467 15.4645 20.148 14.8303 21.6039C14.2129 23.0215 13.9856 24.5307 13.4576 25.8006C13.0914 26.6812 12.7189 28.1693 12.217 29.8896C11.8962 30.9891 11.9779 33.6477 12.1616 35.5382C12.2876 36.835 13.0831 37.834 13.9801 39.468C14.5815 40.5636 15.9806 41.3174 17.1729 42.0054C18.1969 42.5963 19.3627 42.7994 22.071 43.0623C25.9959 43.4432 27.0673 42.9578 28.1241 42.8002C29.1396 42.6488 29.9711 42.3782 31.0264 41.9832C32.3891 41.4731 33.0333 40.4276 33.7989 39.6098C34.6475 38.7033 34.8288 37.473 35.1993 36.6275C35.5446 35.8396 35.6744 34.7307 35.7543 33.7775C35.8395 32.762 36.1494 31.6146 36.1771 25.5916C36.187 23.424 35.6775 22.5895 35.1495 21.3498C34.7204 20.3423 34.148 19.0555 33.5139 17.8134C32.9429 16.695 32.3525 15.7811 31.7722 14.8042C31.2427 13.9129 30.4018 12.9343 29.6616 11.9011C28.9084 10.85 28.1851 10.0811 27.4449 9.34085C26.4941 8.39005 25.6517 7.75671 24.9638 7.045C24.6398 6.70984 24.3296 6.38395 23.9615 6.14645C23.7714 6.02378 23.4889 6.06569 23.3282 6.19632C22.5324 6.84311 22.903 10.5244 22.7716 12.7641C22.6509 14.8215 22.2697 17.6685 22.086 19.0705C21.8921 20.5507 21.6364 21.6839 20.9793 25.5781C20.6686 27.4195 20.3729 29.6449 19.9224 32.2876C19.8317 32.8194 19.7902 33.1346 20.5993 32.0683C21.4084 31.0019 23.0804 28.5461 24.412 26.3666C25.7436 24.1871 26.6841 22.3584 27.2992 21.5992C27.9144 20.8399 28.1756 21.2057 28.3624 21.6815C28.7609 22.6963 28.8137 24.7872 28.8406 27.5003C28.8844 31.912 27.2842 34.3522 27.205 34.513C26.5032 35.9377 28.5429 30.7248 29.9442 29.8698C30.1984 29.7147 30.4461 29.8159 30.6844 29.9727C31.2576 30.3497 31.5576 30.975 31.716 31.6051C31.8194 32.0169 31.7698 32.6533 31.6914 33.0547C31.5754 33.6491 29.1003 33.7743 26.9192 34.247C25.6863 34.5141 24.9139 35.8802 24.4864 36.7273C24.5371 36.8872 24.7461 36.9917 24.9582 37.1239C25.1704 37.2561 25.3794 37.4129 25.5947 37.5744" stroke="#C8E1FF" stroke-width="11.495" stroke-linecap="round"/>
<path d="M33.6015 20.436C33.8209 21.5359 34.1726 22.3264 34.6134 22.9675C35.0383 23.5854 35.3623 24.3542 35.8032 25.082C36.2479 25.816 36.4199 26.6015 36.6195 27.3729C36.7569 27.9038 36.6856 28.4099 36.7517 29.7431C37.0326 35.4102 36.2903 36.1194 36.092 36.8253C35.8812 37.5757 35.4099 38.2345 35.057 38.9404C34.7117 39.6308 34.2202 40.2174 33.7139 40.7699C33.0304 41.1454 32.5017 41.3661 32.0628 41.4322C31.7984 41.4547 31.4494 41.4547 31.0898 41.4547" stroke="#C8E1FF" stroke-width="11.495" stroke-linecap="round"/>
<path d="M30.958 15.6772C31.4418 16.1161 31.968 17.0811 32.5423 18.0534C33.0246 18.8698 33.2476 19.5954 33.7103 20.1916C34.176 20.7918 34.3051 21.5783 34.5266 22.2842C34.7521 23.0033 35.2305 23.6934 35.6932 24.2896C36.1712 24.9056 36.333 25.6763 36.5974 26.3822C36.8621 27.089 36.8617 27.9236 36.8849 31.8332C36.8936 33.3144 36.3356 34.0917 35.8948 34.8426C35.5248 35.4727 34.8841 36.2068 34.243 36.8704C33.9138 36.9603 33.4723 37.0475 32.9449 37.2015C32.6792 37.2683 32.4174 37.3119 32.1477 37.3569" stroke="#C8E1FF" stroke-width="11.495" stroke-linecap="round"/>
<path d="M27.3105 16.7637L27.8806 16.9509" stroke="#0D0D0D" stroke-width="2.5" stroke-linecap="round"/>
<path d="M20.3457 17.9507L20.9157 17.7635" stroke="#0D0D0D" stroke-width="2.5" stroke-linecap="round"/>
<path d="M20.9814 24.8748C21.4398 24.7498 22.3009 24.4145 23.4458 23.9729C24.3615 23.7397 25.2902 23.5294 26.4231 23.2772C27.0352 23.1708 27.7227 23.1083 28.431 23.0439" stroke="#0D0D0D" stroke-width="2" stroke-linecap="round"/>
<path d="M3.42701 58.5602C3.11063 58.3011 2.64863 57.8408 1.97123 56.9757C1.41086 56.0292 1.05807 55.3254 1.01474 55.0519C1 54.8929 1 54.6926 1 54.4863" stroke="#E0D0FF" stroke-width="2" stroke-linecap="round"/>
<path d="M11.427 58.5602C11.1106 58.3011 10.6486 57.8408 9.97123 56.9757C9.41086 56.0292 9.05807 55.3254 9.01474 55.0519C9 54.8929 9 54.6926 9 54.4863" stroke="#FCA8A8" stroke-width="2" stroke-linecap="round"/>
<path d="M19.427 58.5602C19.1106 58.3011 18.6486 57.8408 17.9712 56.9757C17.4109 56.0292 17.0581 55.3254 17.0147 55.0519C17 54.8929 17 54.6926 17 54.4863" stroke="#FFF06C" stroke-width="2" stroke-linecap="round"/>
<path d="M1 54.4863C1.34498 55.0047 2.09389 55.9252 2.55892 56.6368C2.64603 56.7677 2.73184 56.8821 2.81896 57.0126C2.90607 57.143 2.99188 57.2861 3.08029 57.4334" stroke="#E0D0FF" stroke-width="2" stroke-linecap="round"/>
<path d="M9 54.4863C9.34498 55.0047 10.0939 55.9252 10.5589 56.6368C10.646 56.7677 10.7318 56.8821 10.819 57.0126C10.9061 57.143 10.9919 57.2861 11.0803 57.4334" stroke="#FCA8A8" stroke-width="2" stroke-linecap="round"/>
<path d="M17 54.4863C17.345 55.0047 18.0939 55.9252 18.5589 56.6368C18.646 56.7677 18.7318 56.8821 18.819 57.0126C18.9061 57.143 18.9919 57.2861 19.0803 57.4334" stroke="#FFF06C" stroke-width="2" stroke-linecap="round"/>
<path d="M2.64724 56.3932C2.53196 55.3254 2.47389 54.4638 2.58873 53.5502C2.63714 53.1651 2.87781 52.8983 3.0503 52.7679C3.14313 52.6977 3.33721 52.8377 3.45422 52.9534C3.80181 53.7599 4.03411 55.946 3.94786 57.0845C3.91882 57.2297 3.89022 57.3727 3.86075 57.7801" stroke="#E0D0FF" stroke-width="2" stroke-linecap="round"/>
<path d="M10.6472 56.3932C10.532 55.3254 10.4739 54.4638 10.5887 53.5502C10.6371 53.1651 10.8778 52.8983 11.0503 52.7679C11.1431 52.6977 11.3372 52.8377 11.4542 52.9534C11.8018 53.7599 12.0341 55.946 11.9479 57.0845C11.9188 57.2297 11.8902 57.3727 11.8607 57.7801" stroke="#FCA8A8" stroke-width="2" stroke-linecap="round"/>
<path d="M18.6472 56.3932C18.532 55.3254 18.4739 54.4638 18.5887 53.5502C18.6371 53.1651 18.8778 52.8983 19.0503 52.7679C19.1431 52.6977 19.3372 52.8377 19.4542 52.9534C19.8018 53.7599 20.0341 55.946 19.9479 57.0845C19.9188 57.2297 19.8902 57.3727 19.8607 57.7801" stroke="#FFF06C" stroke-width="2" stroke-linecap="round"/>
<path d="M4.46761 55.0064C4.55342 54.4881 4.84206 54.0252 5.11553 53.8519C5.2588 53.761 5.47482 53.7929 5.59227 53.8501C6.23232 54.1619 5.65338 55.582 5.40764 56.1454C5.13077 56.7802 4.81606 57.2289 4.54085 57.6774C4.38266 57.8651 4.23704 58.0679 4.10746 58.2842C4.03508 58.386 3.94927 58.4718 3.6875 58.6469" stroke="#E0D0FF" stroke-width="2" stroke-linecap="round"/>
<path d="M12.4676 55.0064C12.5534 54.4881 12.8421 54.0252 13.1155 53.8519C13.2588 53.761 13.4748 53.7929 13.5923 53.8501C14.2323 54.1619 13.6534 55.582 13.4076 56.1454C13.1308 56.7802 12.8161 57.2289 12.5409 57.6774C12.3827 57.8651 12.237 58.0679 12.1075 58.2842C12.0351 58.386 11.9493 58.4718 11.6875 58.6469" stroke="#FCA8A8" stroke-width="2" stroke-linecap="round"/>
<path d="M20.4676 55.0064C20.5534 54.4881 20.8421 54.0252 21.1155 53.8519C21.2588 53.761 21.4748 53.7929 21.5923 53.8501C22.2323 54.1619 21.6534 55.582 21.4076 56.1454C21.1308 56.7802 20.8161 57.2289 20.5409 57.6774C20.3827 57.8651 20.237 58.0679 20.1075 58.2842C20.0351 58.386 19.9493 58.4718 19.6875 58.6469" stroke="#FFF06C" stroke-width="2" stroke-linecap="round"/>
<path d="M3.68683 59.2537C2.3303 58.5897 1.8111 58.302 1.37683 58.1412C1.28576 58.1075 1.23208 58.3262 1.21691 58.4714C1.20174 58.6166 1.23035 58.7596 1.28799 58.8762C1.66288 59.1956 2.12488 59.2823 2.64235 59.3256C2.9882 59.3404 3.50307 59.3404 4.03355 59.3404" stroke="#AFECB2" stroke-width="2" stroke-linecap="round"/>
<path d="M11.6868 59.2537C10.3303 58.5897 9.8111 58.302 9.37683 58.1412C9.28576 58.1075 9.23208 58.3262 9.21691 58.4714C9.20174 58.6166 9.23035 58.7596 9.28799 58.8762C9.66288 59.1956 10.1249 59.2823 10.6423 59.3256C10.9882 59.3404 11.5031 59.3404 12.0335 59.3404" stroke="#AFECB2" stroke-width="2" stroke-linecap="round"/>
<path d="M19.6868 59.2537C18.3303 58.5897 17.8111 58.302 17.3768 58.1412C17.2858 58.1075 17.2321 58.3262 17.2169 58.4714C17.2017 58.6166 17.2303 58.7596 17.288 58.8762C17.6629 59.1956 18.1249 59.2823 18.6423 59.3256C18.9882 59.3404 19.5031 59.3404 20.0335 59.3404" stroke="#AFECB2" stroke-width="2" stroke-linecap="round"/>
<path d="M4.4668 59.2534C4.4954 58.7637 4.7251 58.3017 5.01461 57.8826C5.17094 57.6563 5.448 57.5493 5.64996 57.5198C5.85072 57.4905 5.85366 57.9801 5.82505 58.3407C5.56588 58.8191 5.24777 59.0792 5.06055 59.2378C4.95913 59.3106 4.84471 59.3678 4.64015 59.5134" stroke="#AFECB2" stroke-width="2" stroke-linecap="round"/>
<path d="M12.4668 59.2534C12.4954 58.7637 12.7251 58.3017 13.0146 57.8826C13.1709 57.6563 13.448 57.5493 13.65 57.5198C13.8507 57.4905 13.8537 57.9801 13.8251 58.3407C13.5659 58.8191 13.2478 59.0792 13.0605 59.2378C12.9591 59.3106 12.8447 59.3678 12.6402 59.5134" stroke="#AFECB2" stroke-width="2" stroke-linecap="round"/>
<path d="M20.4668 59.2534C20.4954 58.7637 20.7251 58.3017 21.0146 57.8826C21.1709 57.6563 21.448 57.5493 21.65 57.5198C21.8507 57.4905 21.8537 57.9801 21.8251 58.3407C21.5659 58.8191 21.2478 59.0792 21.0605 59.2378C20.9591 59.3106 20.8447 59.3678 20.6402 59.5134" stroke="#AFECB2" stroke-width="2" stroke-linecap="round"/>
<path d="M3.86035 59.7739C3.94616 59.8311 4.03198 59.8883 4.09049 59.975C4.14899 60.0617 4.1776 60.1761 4.19233 60.4353C4.20707 60.6945 4.20707 61.0949 4.38042 61.5075" stroke="#AFECB2" stroke-linecap="round"/>
<path d="M11.8604 59.7739C11.9462 59.8311 12.032 59.8883 12.0905 59.975C12.149 60.0617 12.1776 60.1761 12.1923 60.4353C12.2071 60.6945 12.2071 61.0949 12.3804 61.5075" stroke="#AFECB2" stroke-linecap="round"/>
<path d="M19.8604 59.7739C19.9462 59.8311 20.032 59.8883 20.0905 59.975C20.149 60.0617 20.1776 60.1761 20.1923 60.4353C20.2071 60.6945 20.2071 61.0949 20.3804 61.5075" stroke="#AFECB2" stroke-linecap="round"/>
<path d="M28.427 58.5602C28.1106 58.3011 27.6486 57.8408 26.9712 56.9757C26.4109 56.0292 26.0581 55.3254 26.0147 55.0519C26 54.8929 26 54.6926 26 54.4863" stroke="#E0D0FF" stroke-width="2" stroke-linecap="round"/>
<path d="M36.427 58.5602C36.1106 58.3011 35.6486 57.8408 34.9712 56.9757C34.4109 56.0292 34.0581 55.3254 34.0147 55.0519C34 54.8929 34 54.6926 34 54.4863" stroke="#FCA8A8" stroke-width="2" stroke-linecap="round"/>
<path d="M44.427 58.5602C44.1106 58.3011 43.6486 57.8408 42.9712 56.9757C42.4109 56.0292 42.0581 55.3254 42.0147 55.0519C42 54.8929 42 54.6926 42 54.4863" stroke="#FFF06C" stroke-width="2" stroke-linecap="round"/>
<path d="M26 54.4863C26.345 55.0047 27.0939 55.9252 27.5589 56.6368C27.646 56.7677 27.7318 56.8821 27.819 57.0126C27.9061 57.143 27.9919 57.2861 28.0803 57.4334" stroke="#E0D0FF" stroke-width="2" stroke-linecap="round"/>
<path d="M34 54.4863C34.345 55.0047 35.0939 55.9252 35.5589 56.6368C35.646 56.7677 35.7318 56.8821 35.819 57.0126C35.9061 57.143 35.9919 57.2861 36.0803 57.4334" stroke="#FCA8A8" stroke-width="2" stroke-linecap="round"/>
<path d="M42 54.4863C42.345 55.0047 43.0939 55.9252 43.5589 56.6368C43.646 56.7677 43.7318 56.8821 43.819 57.0126C43.9061 57.143 43.9919 57.2861 44.0803 57.4334" stroke="#FFF06C" stroke-width="2" stroke-linecap="round"/>
<path d="M27.6472 56.3932C27.532 55.3254 27.4739 54.4638 27.5887 53.5502C27.6371 53.1651 27.8778 52.8983 28.0503 52.7679C28.1431 52.6977 28.3372 52.8377 28.4542 52.9534C28.8018 53.7599 29.0341 55.946 28.9479 57.0845C28.9188 57.2297 28.8902 57.3727 28.8607 57.7801" stroke="#E0D0FF" stroke-width="2" stroke-linecap="round"/>
<path d="M35.6472 56.3932C35.532 55.3254 35.4739 54.4638 35.5887 53.5502C35.6371 53.1651 35.8778 52.8983 36.0503 52.7679C36.1431 52.6977 36.3372 52.8377 36.4542 52.9534C36.8018 53.7599 37.0341 55.946 36.9479 57.0845C36.9188 57.2297 36.8902 57.3727 36.8607 57.7801" stroke="#FCA8A8" stroke-width="2" stroke-linecap="round"/>
<path d="M43.6472 56.3932C43.532 55.3254 43.4739 54.4638 43.5887 53.5502C43.6371 53.1651 43.8778 52.8983 44.0503 52.7679C44.1431 52.6977 44.3372 52.8377 44.4542 52.9534C44.8018 53.7599 45.0341 55.946 44.9479 57.0845C44.9188 57.2297 44.8902 57.3727 44.8607 57.7801" stroke="#FFF06C" stroke-width="2" stroke-linecap="round"/>
<path d="M29.4676 55.0064C29.5534 54.4881 29.8421 54.0252 30.1155 53.8519C30.2588 53.761 30.4748 53.7929 30.5923 53.8501C31.2323 54.1619 30.6534 55.582 30.4076 56.1454C30.1308 56.7802 29.8161 57.2289 29.5409 57.6774C29.3827 57.8651 29.237 58.0679 29.1075 58.2842C29.0351 58.386 28.9493 58.4718 28.6875 58.6469" stroke="#E0D0FF" stroke-width="2" stroke-linecap="round"/>
<path d="M37.4676 55.0064C37.5534 54.4881 37.8421 54.0252 38.1155 53.8519C38.2588 53.761 38.4748 53.7929 38.5923 53.8501C39.2323 54.1619 38.6534 55.582 38.4076 56.1454C38.1308 56.7802 37.8161 57.2289 37.5409 57.6774C37.3827 57.8651 37.237 58.0679 37.1075 58.2842C37.0351 58.386 36.9493 58.4718 36.6875 58.6469" stroke="#FCA8A8" stroke-width="2" stroke-linecap="round"/>
<path d="M45.4676 55.0064C45.5534 54.4881 45.8421 54.0252 46.1155 53.8519C46.2588 53.761 46.4748 53.7929 46.5923 53.8501C47.2323 54.1619 46.6534 55.582 46.4076 56.1454C46.1308 56.7802 45.8161 57.2289 45.5409 57.6774C45.3827 57.8651 45.237 58.0679 45.1075 58.2842C45.0351 58.386 44.9493 58.4718 44.6875 58.6469" stroke="#FFF06C" stroke-width="2" stroke-linecap="round"/>
<path d="M28.6868 59.2537C27.3303 58.5897 26.8111 58.302 26.3768 58.1412C26.2858 58.1075 26.2321 58.3262 26.2169 58.4714C26.2017 58.6166 26.2303 58.7596 26.288 58.8762C26.6629 59.1956 27.1249 59.2823 27.6423 59.3256C27.9882 59.3404 28.5031 59.3404 29.0335 59.3404" stroke="#AFECB2" stroke-width="2" stroke-linecap="round"/>
<path d="M36.6868 59.2537C35.3303 58.5897 34.8111 58.302 34.3768 58.1412C34.2858 58.1075 34.2321 58.3262 34.2169 58.4714C34.2017 58.6166 34.2303 58.7596 34.288 58.8762C34.6629 59.1956 35.1249 59.2823 35.6423 59.3256C35.9882 59.3404 36.5031 59.3404 37.0335 59.3404" stroke="#AFECB2" stroke-width="2" stroke-linecap="round"/>
<path d="M44.6868 59.2537C43.3303 58.5897 42.8111 58.302 42.3768 58.1412C42.2858 58.1075 42.2321 58.3262 42.2169 58.4714C42.2017 58.6166 42.2303 58.7596 42.288 58.8762C42.6629 59.1956 43.1249 59.2823 43.6423 59.3256C43.9882 59.3404 44.5031 59.3404 45.0335 59.3404" stroke="#AFECB2" stroke-width="2" stroke-linecap="round"/>
<path d="M29.4668 59.2534C29.4954 58.7637 29.7251 58.3017 30.0146 57.8826C30.1709 57.6563 30.448 57.5493 30.65 57.5198C30.8507 57.4905 30.8537 57.9801 30.8251 58.3407C30.5659 58.8191 30.2478 59.0792 30.0605 59.2378C29.9591 59.3106 29.8447 59.3678 29.6402 59.5134" stroke="#AFECB2" stroke-width="2" stroke-linecap="round"/>
<path d="M37.4668 59.2534C37.4954 58.7637 37.7251 58.3017 38.0146 57.8826C38.1709 57.6563 38.448 57.5493 38.65 57.5198C38.8507 57.4905 38.8537 57.9801 38.8251 58.3407C38.5659 58.8191 38.2478 59.0792 38.0605 59.2378C37.9591 59.3106 37.8447 59.3678 37.6402 59.5134" stroke="#AFECB2" stroke-width="2" stroke-linecap="round"/>
<path d="M45.4668 59.2534C45.4954 58.7637 45.7251 58.3017 46.0146 57.8826C46.1709 57.6563 46.448 57.5493 46.65 57.5198C46.8507 57.4905 46.8537 57.9801 46.8251 58.3407C46.5659 58.8191 46.2478 59.0792 46.0605 59.2378C45.9591 59.3106 45.8447 59.3678 45.6402 59.5134" stroke="#AFECB2" stroke-width="2" stroke-linecap="round"/>
<path d="M28.8604 59.7739C28.9462 59.8311 29.032 59.8883 29.0905 59.975C29.149 60.0617 29.1776 60.1761 29.1923 60.4353C29.2071 60.6945 29.2071 61.0949 29.3804 61.5075" stroke="#AFECB2" stroke-linecap="round"/>
<path d="M36.8604 59.7739C36.9462 59.8311 37.032 59.8883 37.0905 59.975C37.149 60.0617 37.1776 60.1761 37.1923 60.4353C37.2071 60.6945 37.2071 61.0949 37.3804 61.5075" stroke="#AFECB2" stroke-linecap="round"/>
<path d="M44.8604 59.7739C44.9462 59.8311 45.032 59.8883 45.0905 59.975C45.149 60.0617 45.1776 60.1761 45.1923 60.4353C45.2071 60.6945 45.2071 61.0949 45.3804 61.5075" stroke="#AFECB2" stroke-linecap="round"/>
</svg>
