<svg width="70" height="68" viewBox="0 0 70 68" fill="none" xmlns="http://www.w3.org/2000/svg">
<path d="M30.5864 14.0996C30.0607 16.0471 27.9643 20.243 26.6565 22.5404C26.0773 23.5579 25.6273 24.4389 24.7842 25.7586C24.0567 26.8973 23.4645 28.4986 22.8303 29.9545C22.2129 31.3721 21.9856 32.8813 21.4576 34.1512C21.0914 35.0318 20.7189 36.5198 20.217 38.2402C19.8962 39.3397 19.9779 41.9983 20.1616 43.8888C20.2876 45.1856 21.0831 46.1846 21.9801 47.8186C22.5815 48.9142 23.9806 49.668 25.1729 50.356C26.1969 50.9468 27.3627 51.15 30.071 51.4128C33.9959 51.7937 35.0673 51.3083 36.1241 51.1508C37.1396 50.9994 37.9711 50.7288 39.0264 50.3338C40.3891 49.8237 41.0333 48.7782 41.7989 47.9603C42.6475 47.0538 42.8288 45.8236 43.1993 44.9781C43.5446 44.1902 43.6744 43.0812 43.7543 42.1281C43.8395 41.1126 44.1494 39.9652 44.1771 33.9422C44.187 31.7746 43.6775 30.9401 43.1495 29.7004C42.7204 28.6929 42.148 27.4061 41.5139 26.1639C40.9429 25.0456 40.3525 24.1317 39.7722 23.1548C39.2427 22.2635 38.4018 21.2849 37.6616 20.2517C36.9084 19.2006 36.1851 18.4317 35.4449 17.6914C34.4941 16.7406 33.6517 16.1073 32.9638 15.3956C32.6398 15.0604 32.3296 14.7345 31.9615 14.497C31.7714 14.3744 31.4889 14.4163 31.3282 14.5469C30.5324 15.1937 30.903 18.875 30.7716 21.1146C30.6509 23.1721 30.2697 26.0191 30.086 27.4211C29.8921 28.9013 29.6364 30.0344 28.9793 33.9287C28.6686 35.7701 28.3729 37.9955 27.9224 40.6381C27.8317 41.17 27.7902 41.4852 28.5993 40.4188C29.4084 39.3525 31.0804 36.8967 32.412 34.7172C33.7436 32.5377 34.6841 30.709 35.2992 29.9497C35.9144 29.1905 36.1756 29.5563 36.3624 30.0321C36.7609 31.0468 36.8137 33.1378 36.8406 35.8509C36.8844 40.2626 35.2842 42.7028 35.205 42.8635C34.5032 44.2883 36.5429 39.0754 37.9442 38.2204C38.1984 38.0652 38.4461 38.1665 38.6844 38.3233C39.2576 38.7003 39.5576 39.3256 39.716 39.9557C39.8194 40.3675 39.7698 41.0039 39.6914 41.4053C39.5754 41.9997 37.1003 42.1249 34.9192 42.5975C33.6863 42.8647 32.9139 44.2308 32.4864 45.0779C32.5371 45.2378 32.7461 45.3423 32.9582 45.4745C33.1704 45.6067 33.3794 45.7635 33.5947 45.9249" stroke="#C8E1FF" stroke-width="11.495" stroke-linecap="round"/>
<path d="M41.6015 28.7866C41.8209 29.8865 42.1726 30.677 42.6134 31.3181C43.0383 31.936 43.3623 32.7048 43.8032 33.4325C44.2479 34.1666 44.4199 34.9521 44.6195 35.7234C44.7569 36.2544 44.6856 36.7605 44.7517 38.0937C45.0326 43.7608 44.2903 44.47 44.092 45.1759C43.8812 45.9263 43.4099 46.5851 43.057 47.291C42.7117 47.9814 42.2202 48.568 41.7139 49.1205C41.0304 49.496 40.5017 49.7167 40.0628 49.7828C39.7984 49.8053 39.4494 49.8053 39.0898 49.8053" stroke="#C8E1FF" stroke-width="11.495" stroke-linecap="round"/>
<path d="M38.958 24.0278C39.4418 24.4667 39.968 25.4317 40.5423 26.404C41.0246 27.2204 41.2476 27.946 41.7103 28.5422C42.176 29.1424 42.3051 29.9289 42.5266 30.6348C42.7521 31.3539 43.2305 32.044 43.6932 32.6402C44.1712 33.2562 44.333 34.0269 44.5974 34.7328C44.8621 35.4396 44.8617 36.2742 44.8849 40.1838C44.8936 41.665 44.3356 42.4423 43.8948 43.1932C43.5248 43.8233 42.8841 44.5574 42.243 45.221C41.9138 45.3109 41.4723 45.3981 40.9449 45.5521C40.6792 45.6189 40.4174 45.6625 40.1477 45.7075" stroke="#C8E1FF" stroke-width="11.495" stroke-linecap="round"/>
<path d="M35.3105 25.1143L35.8806 25.3015" stroke="#0D0D0D" stroke-width="2.5" stroke-linecap="round"/>
<path d="M28.3457 26.3013L28.9157 26.114" stroke="#0D0D0D" stroke-width="2.5" stroke-linecap="round"/>
<path d="M28.9814 33.2254C29.4398 33.1004 30.3009 32.7651 31.4458 32.3235C32.3615 32.0902 33.2902 31.88 34.4231 31.6278C35.0352 31.5214 35.7227 31.4589 36.431 31.3945" stroke="#0D0D0D" stroke-width="2" stroke-linecap="round"/>
<path d="M3.71671 0.788387C4.44082 1.02457 5.4572 2.13392 6.43977 4.2787C6.87817 5.23564 6.77019 6.58569 6.66223 7.93601C6.52979 9.59245 3.15836 10.9563 0.667603 11.9989C-0.305282 12.4061 4.99917 12.9556 7.34707 12.4414C8.69555 12.1462 9.74515 10.1022 10.2228 7.99565C11.0393 4.39456 9.46161 3.02142 8.51939 1.7868C7.93924 1.27029 7.35472 0.869493 6.34271 0.63092C5.6186 0.549805 4.467 0.549805 3.28051 0.549805" stroke="#FFF200" stroke-width="1.1" stroke-linecap="round"/>
<path d="M5.63939 1.09961C6.64004 1.71267 7.39805 2.28674 8.26339 3.11859C8.8153 3.64914 8.81868 4.63283 8.83682 6.40052C8.84549 7.24506 8.5781 7.88443 7.26947 9.37971C6.56303 10.1869 6.09149 10.5576 5.53777 10.9367C4.97439 11.3224 4.19181 11.5693 3.37831 11.8038C3.18711 11.8589 3.0159 11.8942 3.01331 11.9126C2.91676 12.5984 4.63354 11.2119 5.60102 10.7412C6.43084 10.3376 7.01853 9.33801 7.48723 8.48558C7.79992 7.91688 7.81698 6.66914 7.73092 5.72356C7.64195 4.74614 7.26532 3.73815 7.07453 3.05198C6.97267 2.68568 6.74685 2.36472 6.71055 2.34468C6.12398 2.02082 7.67699 3.37313 7.98756 3.75007C8.45156 4.31322 8.33546 5.14082 8.28413 5.62716C8.19328 6.48786 7.50797 7.05258 6.66234 8.06423C6.15221 8.67452 5.81359 9.18421 5.08929 10.0323C4.80296 10.3676 4.56925 10.6302 4.44741 10.7927C3.8397 11.603 6.81322 10.3063 6.72974 10.4493C6.59468 10.6807 5.92766 10.8782 5.69642 11.0077C5.58166 11.0719 6.11949 10.9216 6.58716 10.8122C6.68157 10.7901 6.47309 11.0602 6.43576 11.1528C6.39843 11.2454 6.53531 11.2097 6.55449 11.2449C6.78982 11.6767 5.57302 11.9289 5.24119 12.022C3.86089 12.4095 6.88269 10.7775 7.02112 10.614C7.39817 10.1685 6.91898 11.6408 6.88373 11.6966C6.64859 12.0686 7.33169 10.7418 7.55619 10.5062C7.693 10.3626 7.71329 11.0624 7.76462 11.2622C7.97437 12.0789 8.50759 9.91099 8.64551 9.71169C8.75152 9.55849 8.85393 10.1244 8.85393 10.2695C8.85393 10.7772 9.47195 8.47366 9.78667 7.60065C10.0806 6.78536 9.75401 5.50801 9.37396 4.89278C8.98368 4.26099 8.54492 3.70133 8.19858 3.12401C7.73479 2.35091 7.40324 1.93146 7.40168 1.78632C7.39099 0.786918 8.8166 2.72216 9.26716 3.15596C9.71996 3.59192 9.88984 4.13133 9.82296 4.18657C8.72651 5.09213 7.95801 2.94313 7.62722 2.5624C7.13422 1.99498 8.71291 4.09126 9.12924 5.06771C9.5681 6.09697 9.06339 7.70246 8.26961 9.19883C8.05099 9.61094 7.88957 10.0096 7.81854 10.0691C7.18068 10.6041 8.3002 8.14438 8.50759 6.88252C8.82988 4.92147 8.23384 4.09993 7.73247 3.41267C7.62022 3.2588 7.50797 3.15975 7.4893 3.03302C7.47064 2.9063 7.53908 2.76332 7.64277 2.68967C7.85008 2.54242 8.435 3.15217 9.1085 4.08963C9.54243 4.69362 9.57979 5.35637 9.47714 6.13028C9.262 7.75214 8.44123 8.20937 7.92275 8.7699C7.41541 9.31839 6.57679 9.72578 5.93543 10.0345C5.21585 10.3808 4.60658 10.9541 3.8102 11.2622C3.187 11.461 2.70274 11.6061 2.42692 11.624C2.28797 11.6419 2.15109 11.6776 2.21745 11.8227" stroke="#FFF200" stroke-width="1.1" stroke-linecap="round"/>
<path d="M60.9023 18.1187C61.0145 19.2398 61.1266 20.3609 61.2404 21.443C61.3542 22.5251 61.4663 23.5341 61.5801 24.3342C61.6939 25.1343 61.8061 25.6948 61.9216 26.2724" stroke="#FFF200" stroke-width="1.6" stroke-linecap="round"/>
<path d="M56.4863 23.2147C58.3923 22.8784 60.2982 22.542 61.6724 22.3127C63.0467 22.0834 63.8314 21.9712 64.516 21.8574C65.2006 21.7436 65.7612 21.6315 66.6785 21.1763" stroke="#FFF200" stroke-width="1.6" stroke-linecap="round"/>
<path d="M62.9411 19.1382C61.9321 20.7078 60.9231 22.2774 60.2351 23.3102C59.5471 24.343 59.2108 24.7914 58.8643 25.5932" stroke="#FFF200" stroke-width="1.6" stroke-linecap="round"/>
<path d="M58.1846 20.4971C60.8753 21.9545 63.566 23.412 65.2885 24.275C67.011 25.1379 67.6836 25.3621 68.3767 25.9329" stroke="#FFF200" stroke-width="1.6" stroke-linecap="round"/>
<path d="M10.3975 60.0996V66.5546" stroke="#FFF200" stroke-width="1.6" stroke-linecap="round"/>
<path d="M7 62.8174C8.56959 62.9295 10.1392 63.0416 11.2841 63.0994C12.429 63.1571 13.1017 63.1571 13.7948 62.8174" stroke="#FFF200" stroke-width="1.6" stroke-linecap="round"/>
</svg>
