<svg width="84" height="49" viewBox="0 0 84 49" fill="none" xmlns="http://www.w3.org/2000/svg">
<path d="M28.665 14.1933C23.294 11.6491 18.2657 9.34909 14.3445 7.744C10.1656 6.0334 6.69704 6.76638 3.97406 8.15517C2.95999 8.67238 2.39895 9.90375 1.86357 11.2561C1.30968 12.6553 1.75221 13.9042 2.03597 14.7576C3.03005 17.7473 8.22611 19.9626 10.4565 20.6532C10.8009 20.7599 11.1686 20.7593 11.0326 20.7957C10.286 20.9955 9.18124 21.0441 8.39743 21.5773C6.89515 22.5994 6.89407 24.1815 6.85659 26.2138C6.84259 26.9728 7.5301 27.6807 8.49166 28.4292C9.31229 29.068 12.7876 29.2548 16.8608 29.5739C18.5727 29.708 15.1048 32.3193 14.4259 34.3849C13.8488 36.1406 14.458 37.746 14.8135 38.5652C15.1712 39.3893 16.167 39.9604 17.1649 40.3887C17.8802 40.5343 18.5955 40.605 20.3687 40.7121C21.7179 40.7485 23.9793 40.7485 26.9518 40.5343" stroke="#C8E1FF" stroke-width="3.2" stroke-linecap="round"/>
<path d="M53.4809 12.3477C58.5126 9.18513 63.233 6.30553 66.9364 4.24716C70.8832 2.05348 74.4142 2.37034 77.2825 3.42672C78.3507 3.82013 79.0537 4.97635 79.7456 6.25578C80.4613 7.57943 80.1699 8.87196 79.9892 9.75297C79.3564 12.8394 74.4594 15.6548 72.3265 16.6048C71.9973 16.7515 71.632 16.7944 71.7714 16.8145C72.5364 16.9245 73.6391 16.8418 74.4806 17.2784C76.0934 18.1153 76.2819 19.6861 76.5599 21.6996C76.6638 22.4516 76.065 23.2361 75.1989 24.0932C74.4597 24.8247 71.031 25.4219 67.0243 26.2214C65.3404 26.5574 69.0933 28.7395 70.0121 30.71C70.7931 32.385 70.3784 34.0513 70.1225 34.9068C69.865 35.7675 68.9439 36.4525 68.0037 36.9961C67.3107 37.2254 66.6088 37.3803 64.8608 37.6968C63.5255 37.8928 61.2799 38.1607 58.303 38.3003" stroke="#C8E1FF" stroke-width="3.2" stroke-linecap="round"/>
<path d="M40.185 5.74902C39.6593 7.69654 37.563 11.8924 36.2551 14.1899C35.6759 15.2073 35.226 16.0883 34.3828 17.408C33.6554 18.5467 33.0631 20.148 32.429 21.6039C31.8115 23.0215 31.5842 24.5307 31.0562 25.8006C30.69 26.6812 30.3176 28.1693 29.8156 29.8896C29.4948 30.9891 29.5766 33.6477 29.7602 35.5382C29.8862 36.835 30.6817 37.834 31.5787 39.468C32.1801 40.5636 33.5793 41.3174 34.7715 42.0054C35.7956 42.5963 36.9613 42.7994 39.6696 43.0623C43.5945 43.4432 44.6659 42.9578 45.7228 42.8002C46.7382 42.6488 47.5698 42.3782 48.6251 41.9832C49.9877 41.4731 50.632 40.4276 51.3975 39.6098C52.2461 38.7033 52.4275 37.473 52.798 36.6275C53.1432 35.8396 53.273 34.7307 53.3529 33.7775C53.4381 32.762 53.748 31.6146 53.7757 25.5916C53.7857 23.424 53.2762 22.5895 52.7481 21.3498C52.319 20.3423 51.7466 19.0555 51.1125 17.8134C50.5416 16.695 49.9511 15.7811 49.3708 14.8042C48.8414 13.9129 48.0004 12.9343 47.2602 11.9011C46.5071 10.85 45.7837 10.0811 45.0435 9.34085C44.0927 8.39005 43.2504 7.75671 42.5624 7.045C42.2384 6.70984 41.9283 6.38395 41.5601 6.14645C41.37 6.02378 41.0875 6.06569 40.9268 6.19632C40.1311 6.84311 40.5017 10.5244 40.3703 12.7641C40.2495 14.8215 39.8683 17.6685 39.6847 19.0705C39.4908 20.5507 39.235 21.6839 38.5779 25.5781C38.2672 27.4195 37.9715 29.6449 37.521 32.2876C37.4304 32.8194 37.3888 33.1346 38.1979 32.0683C39.007 31.0019 40.679 28.5461 42.0106 26.3666C43.3422 24.1871 44.2827 22.3584 44.8979 21.5992C45.513 20.8399 45.7742 21.2057 45.9611 21.6815C46.3595 22.6963 46.4123 24.7872 46.4392 27.5003C46.483 31.912 44.8828 34.3522 44.8036 34.513C44.1018 35.9377 46.1416 30.7248 47.5428 29.8698C47.7971 29.7147 48.0448 29.8159 48.2831 29.9727C48.8562 30.3497 49.1563 30.975 49.3146 31.6051C49.4181 32.0169 49.3684 32.6533 49.2901 33.0547C49.174 33.6491 46.6989 33.7743 44.5179 34.247C43.2849 34.5141 42.5125 35.8802 42.085 36.7273C42.1357 36.8872 42.3447 36.9917 42.5569 37.1239C42.769 37.2561 42.978 37.4129 43.1934 37.5744" stroke="#C8E1FF" stroke-width="11.495" stroke-linecap="round"/>
<path d="M51.2001 20.436C51.4196 21.5359 51.7712 22.3264 52.2121 22.9675C52.637 23.5854 52.961 24.3542 53.4018 25.082C53.8465 25.816 54.0185 26.6015 54.2181 27.3729C54.3555 27.9038 54.2842 28.4099 54.3503 29.7431C54.6313 35.4102 53.8889 36.1194 53.6907 36.8253C53.4799 37.5757 53.0085 38.2345 52.6556 38.9404C52.3104 39.6308 51.8188 40.2174 51.3125 40.7699C50.6291 41.1454 50.1003 41.3661 49.6614 41.4322C49.397 41.4547 49.048 41.4547 48.6885 41.4547" stroke="#C8E1FF" stroke-width="11.495" stroke-linecap="round"/>
<path d="M48.5566 15.6772C49.0405 16.1161 49.5666 17.0811 50.141 18.0534C50.6233 18.8698 50.8462 19.5954 51.3089 20.1916C51.7747 20.7918 51.9038 21.5783 52.1252 22.2842C52.3507 23.0033 52.8291 23.6934 53.2918 24.2896C53.7699 24.9056 53.9316 25.6763 54.196 26.3822C54.4607 27.089 54.4604 27.9236 54.4835 31.8332C54.4923 33.3144 53.9342 34.0917 53.4934 34.8426C53.1234 35.4727 52.4828 36.2068 51.8416 36.8704C51.5125 36.9603 51.0709 37.0475 50.5435 37.2015C50.2778 37.2683 50.0161 37.3119 49.7464 37.3569" stroke="#C8E1FF" stroke-width="11.495" stroke-linecap="round"/>
<path d="M44.9092 16.7637L45.4792 16.9509" stroke="#0D0D0D" stroke-width="2.5" stroke-linecap="round"/>
<path d="M37.9443 17.9507L38.5144 17.7635" stroke="#0D0D0D" stroke-width="2.5" stroke-linecap="round"/>
<path d="M38.5801 24.8748C39.0384 24.7498 39.8995 24.4145 41.0444 23.9729C41.9602 23.7397 42.8888 23.5294 44.0217 23.2772C44.6338 23.1708 45.3213 23.1083 46.0297 23.0439" stroke="#0D0D0D" stroke-width="2" stroke-linecap="round"/>
</svg>
