<svg width="37" height="53" viewBox="0 0 37 53" fill="none" xmlns="http://www.w3.org/2000/svg">
<path d="M7.74234 13.9983C7.05795 13.3385 6.32372 12.1804 5.64066 10.2245C5.33927 9.08675 5.12974 7.65424 5.01844 6.73297C4.90715 5.8117 4.90046 5.4451 4.89355 5.06738" stroke="#1A1A1A" stroke-width="2" stroke-linecap="round"/>
<path d="M5.1709 5.0625C6.02514 6.24987 6.4646 6.73359 7.32539 7.44345C7.79598 7.83152 8.159 8.18621 8.71795 8.54458C9.77018 9.13842 11.1774 9.82672 12.3896 10.3292C12.8624 10.509 13.0462 10.5362 13.4225 10.6534" stroke="#1A1A1A" stroke-width="2" stroke-linecap="round"/>
<path d="M28.7545 12.2628C29.3954 11.5607 30.0544 10.3582 30.6114 8.3627C30.8397 7.20806 30.9575 5.7651 31.0098 4.83862C31.0622 3.91213 31.0455 3.54584 31.0283 3.16846" stroke="#1A1A1A" stroke-width="2" stroke-linecap="round"/>
<path d="M30.751 3.18164C29.9741 4.42104 29.5664 4.93178 28.7526 5.69505C28.3077 6.11233 27.968 6.48944 27.433 6.8827C26.4208 7.54239 25.0603 8.31897 23.8826 8.89768C23.4222 9.10727 23.2405 9.14613 22.8724 9.28709" stroke="#1A1A1A" stroke-width="2" stroke-linecap="round"/>
<path d="M16.3334 9.26953C15.8078 11.217 13.7114 15.4129 12.4036 17.7104C11.8244 18.7278 11.3744 19.6088 10.5313 20.9285C9.80379 22.0672 9.21154 23.6685 8.57741 25.1244C7.95995 26.542 7.73269 28.0512 7.20464 29.3211C6.83845 30.2017 6.46601 31.6898 5.96408 33.4101C5.64328 34.5096 5.725 37.1682 5.90867 39.0587C6.03466 40.3555 6.83018 41.3545 7.72715 42.9886C8.32856 44.0841 9.72771 44.8379 10.92 45.5259C11.944 46.1168 13.1098 46.3199 15.8181 46.5828C19.743 46.9637 20.8143 46.4783 21.8712 46.3207C22.8866 46.1694 23.7182 45.8988 24.7735 45.5037C26.1361 44.9936 26.7804 43.9481 27.5459 43.1303C28.3945 42.2238 28.5759 40.9935 28.9464 40.148C29.2917 39.3601 29.4214 38.2512 29.5014 37.298C29.5866 36.2825 29.8964 35.1351 29.9241 29.1121C29.9341 26.9446 29.4246 26.11 28.8965 24.8703C28.4674 23.8628 27.8951 22.576 27.2609 21.3339C26.69 20.2155 26.0996 19.3016 25.5193 18.3247C24.9898 17.4334 24.1489 16.4548 23.4086 15.4216C22.6555 14.3705 21.9322 13.6016 21.192 12.8614C20.2412 11.9106 19.3988 11.2772 18.7108 10.5655C18.3869 10.2303 18.0767 9.90446 17.7086 9.66695C17.5184 9.54428 17.236 9.5862 17.0752 9.71683C16.2795 10.3636 16.6501 14.0449 16.5187 16.2846C16.398 18.342 16.0168 21.189 15.8331 22.591C15.6392 24.0712 15.3834 25.2044 14.7263 29.0986C14.4156 30.94 14.1199 33.1655 13.6695 35.8081C13.5788 36.3399 13.5373 36.6552 14.3463 35.5888C15.1554 34.5224 16.8275 32.0666 18.159 29.8871C19.4906 27.7077 20.4312 25.8789 21.0463 25.1197C21.6614 24.3604 21.9227 24.7262 22.1095 25.202C22.508 26.2168 22.5608 28.3077 22.5877 31.0208C22.6314 35.4325 21.0312 37.8727 20.9521 38.0335C20.2502 39.4582 22.29 34.2453 23.6913 33.3903C23.9455 33.2352 24.1932 33.3365 24.4315 33.4932C25.0047 33.8703 25.3047 34.4955 25.463 35.1256C25.5665 35.5374 25.5169 36.1738 25.4385 36.5752C25.3224 37.1696 22.8473 37.2948 20.6663 37.7675C19.4334 38.0346 18.661 39.4007 18.2335 40.2478C18.2841 40.4077 18.4931 40.5122 18.7053 40.6444C18.9175 40.7766 19.1265 40.9334 19.3418 41.0949" stroke="#C8E1FF" stroke-width="11.495" stroke-linecap="round"/>
<path d="M27.3486 23.9565C27.568 25.0564 27.9197 25.8469 28.3605 26.488C28.7854 27.106 29.1094 27.8747 29.5503 28.6025C29.995 29.3365 30.1669 30.122 30.3665 30.8934C30.5039 31.4243 30.4326 31.9304 30.4987 33.2636C30.7797 38.9307 30.0374 39.6399 29.8391 40.3458C29.6283 41.0962 29.157 41.755 28.804 42.4609C28.4588 43.1514 27.9672 43.7379 27.4609 44.2905C26.7775 44.6659 26.2487 44.8866 25.8099 44.9527C25.5455 44.9752 25.1965 44.9752 24.8369 44.9752" stroke="#C8E1FF" stroke-width="11.495" stroke-linecap="round"/>
<path d="M24.7051 19.1978C25.1889 19.6366 25.715 20.6016 26.2894 21.5739C26.7717 22.3903 26.9947 23.1159 27.4573 23.7121C27.9231 24.3123 28.0522 25.0988 28.2736 25.8048C28.4992 26.5238 28.9776 27.2139 29.4402 27.8101C29.9183 28.4261 30.08 29.1968 30.3444 29.9027C30.6092 30.6095 30.6088 31.4441 30.6319 35.3537C30.6407 36.8349 30.0827 37.6122 29.6418 38.3631C29.2719 38.9932 28.6312 39.7273 27.9901 40.3909C27.6609 40.4808 27.2194 40.568 26.6919 40.7221C26.4262 40.7888 26.1645 40.8324 25.8948 40.8774" stroke="#C8E1FF" stroke-width="11.495" stroke-linecap="round"/>
<path d="M21.0576 20.2842L21.6277 20.4714" stroke="#0D0D0D" stroke-width="2.5" stroke-linecap="round"/>
<path d="M14.0928 21.4712L14.6628 21.284" stroke="#0D0D0D" stroke-width="2.5" stroke-linecap="round"/>
<path d="M14.7285 28.3953C15.1869 28.2703 16.048 27.9351 17.1929 27.4934C18.1086 27.2602 19.0373 27.0499 20.1702 26.7977C20.7823 26.6913 21.4698 26.6288 22.1781 26.5645" stroke="#0D0D0D" stroke-width="2" stroke-linecap="round"/>
</svg>
