<svg width="37" height="63" viewBox="0 0 37 63" fill="none" xmlns="http://www.w3.org/2000/svg">
<path d="M16.3334 19.5698C15.8078 21.5173 13.7114 25.7132 12.4036 28.0107C11.8244 29.0281 11.3744 29.9091 10.5313 31.2288C9.80379 32.3675 9.21154 33.9688 8.57741 35.4247C7.95995 36.8423 7.73269 38.3515 7.20464 39.6214C6.83845 40.502 6.46601 41.9901 5.96408 43.7104C5.64328 44.8099 5.725 47.4685 5.90867 49.359C6.03466 50.6558 6.83018 51.6548 7.72715 53.2888C8.32856 54.3844 9.72771 55.1382 10.92 55.8262C11.944 56.4171 13.1098 56.6202 15.8181 56.8831C19.743 57.264 20.8143 56.7786 21.8712 56.621C22.8866 56.4696 23.7182 56.199 24.7735 55.804C26.1361 55.2939 26.7804 54.2484 27.5459 53.4306C28.3945 52.5241 28.5759 51.2938 28.9464 50.4483C29.2917 49.6604 29.4214 48.5515 29.5014 47.5983C29.5866 46.5828 29.8964 45.4354 29.9241 39.4124C29.9341 37.2448 29.4246 36.4103 28.8965 35.1706C28.4674 34.1631 27.8951 32.8763 27.2609 31.6342C26.69 30.5158 26.0996 29.6019 25.5193 28.625C24.9898 27.7337 24.1489 26.7551 23.4086 25.7219C22.6555 24.6708 21.9322 23.9019 21.192 23.1617C20.2412 22.2108 19.3988 21.5775 18.7108 20.8658C18.3869 20.5306 18.0767 20.2047 17.7086 19.9672C17.5184 19.8446 17.236 19.8865 17.0752 20.0171C16.2795 20.6639 16.6501 24.3452 16.5187 26.5849C16.398 28.6423 16.0168 31.4893 15.8331 32.8913C15.6392 34.3715 15.3834 35.5047 14.7263 39.3989C14.4156 41.2403 14.1199 43.4657 13.6695 46.1084C13.5788 46.6402 13.5373 46.9554 14.3463 45.8891C15.1554 44.8227 16.8275 42.3669 18.159 40.1874C19.4906 38.0079 20.4312 36.1792 21.0463 35.42C21.6614 34.6607 21.9227 35.0265 22.1095 35.5023C22.508 36.5171 22.5608 38.608 22.5877 41.3211C22.6314 45.7328 21.0312 48.173 20.9521 48.3338C20.2502 49.7585 22.29 44.5456 23.6913 43.6906C23.9455 43.5355 24.1932 43.6367 24.4315 43.7935C25.0047 44.1705 25.3047 44.7958 25.463 45.4259C25.5665 45.8377 25.5169 46.4741 25.4385 46.8755C25.3224 47.4699 22.8473 47.5951 20.6663 48.0678C19.4334 48.3349 18.661 49.701 18.2335 50.5481C18.2841 50.708 18.4931 50.8125 18.7053 50.9447C18.9175 51.0769 19.1265 51.2337 19.3418 51.3952" stroke="#C8E1FF" stroke-width="11.495" stroke-linecap="round"/>
<path d="M27.3486 34.2568C27.568 35.3567 27.9197 36.1472 28.3605 36.7883C28.7854 37.4063 29.1094 38.175 29.5503 38.9028C29.995 39.6368 30.1669 40.4223 30.3665 41.1937C30.5039 41.7246 30.4326 42.2307 30.4987 43.5639C30.7797 49.231 30.0374 49.9402 29.8391 50.6461C29.6283 51.3965 29.157 52.0553 28.804 52.7612C28.4588 53.4516 27.9672 54.0382 27.4609 54.5907C26.7775 54.9662 26.2487 55.1869 25.8099 55.253C25.5455 55.2755 25.1965 55.2755 24.8369 55.2755" stroke="#C8E1FF" stroke-width="11.495" stroke-linecap="round"/>
<path d="M24.7051 29.498C25.1889 29.9369 25.715 30.9019 26.2894 31.8742C26.7717 32.6906 26.9947 33.4162 27.4573 34.0124C27.9231 34.6126 28.0522 35.3991 28.2736 36.105C28.4992 36.8241 28.9776 37.5142 29.4402 38.1104C29.9183 38.7264 30.08 39.4971 30.3444 40.203C30.6092 40.9098 30.6088 41.7444 30.6319 45.654C30.6407 47.1352 30.0827 47.9125 29.6418 48.6634C29.2719 49.2935 28.6312 50.0276 27.9901 50.6912C27.6609 50.7811 27.2194 50.8683 26.6919 51.0223C26.4262 51.0891 26.1645 51.1327 25.8948 51.1777" stroke="#C8E1FF" stroke-width="11.495" stroke-linecap="round"/>
<path d="M21.0576 30.5845L21.6277 30.7717" stroke="#0D0D0D" stroke-width="2.5" stroke-linecap="round"/>
<path d="M14.0928 31.7715L14.6628 31.5843" stroke="#0D0D0D" stroke-width="2.5" stroke-linecap="round"/>
<path d="M14.7285 38.6956C15.1869 38.5706 16.048 38.2353 17.1929 37.7937C18.1086 37.5605 19.0373 37.3502 20.1702 37.098C20.7823 36.9916 21.4698 36.9291 22.1781 36.8647" stroke="#0D0D0D" stroke-width="2" stroke-linecap="round"/>
<path d="M16.343 1.91233C15.0348 2.0311 13.4636 2.22014 11.9215 2.46524C10.8929 2.62873 10.4389 2.80734 10.0227 2.97384C9.11138 3.33847 8.41612 3.76926 7.87542 4.03541C6.29851 4.81162 6.23059 5.39854 6.01359 5.78573C5.59278 6.5366 5.9346 7.64939 6.24256 8.0012C6.60695 8.41748 8.26663 8.80007 10.4235 9.36013C11.419 9.61863 12.2457 9.74659 13.368 9.84726C14.4903 9.94794 15.8914 9.99743 16.7827 10.0082C18.0138 10.0231 18.6784 9.89237 20.0293 9.69033C21.0597 9.53624 22.8097 9.35374 23.9151 9.20838C25.4405 9.00779 26.2982 8.70071 27.0744 8.33625C28.2048 7.80548 28.6327 7.09208 29.0131 5.89122C29.1631 5.4177 29.0453 5.06765 28.9418 4.79535C28.7588 4.31394 27.8792 3.8678 26.2985 3.27321C25.4643 2.9594 23.9016 2.71986 22.5421 2.48215C21.1825 2.24444 20.0251 2.10801 19.2718 2.03425C18.2043 1.95354 17.7844 1.92578 17.4453 1.89029C17.2024 1.8754 16.8158 1.86684 16.3454 1.80046" stroke="#FFDE09" stroke-width="3.6" stroke-linecap="round"/>
</svg>
