<svg width="52" height="61" viewBox="0 0 52 61" fill="none" xmlns="http://www.w3.org/2000/svg">
<path d="M43.3882 5.21472C43.0956 5.13146 42.1747 4.96243 41.3724 5.23427C40.5319 5.51907 39.9848 6.43074 39.5843 7.14598C39.3328 7.59513 39.2254 8.65466 39.2879 9.93629C39.3417 11.041 40.4415 11.5194 41.1151 11.7736C42.2966 12.2194 44.3091 11.6506 45.0047 11.2293C45.6642 10.8299 45.6159 9.92746 45.5964 8.75116C45.5835 7.97915 44.5689 7.69723 43.6241 7.40205C43.2809 7.29483 42.7676 7.35916 42.4478 7.44242C42.128 7.52567 42.0031 7.69218 41.9388 7.86122C41.6963 8.49851 41.79 9.0394 41.9363 9.33332C42.041 9.46072 42.2075 9.54398 42.3973 9.58687C42.5872 9.62976 42.7953 9.62976 43.0098 9.62976" stroke="#FF6868" stroke-width="1.6" stroke-linecap="round"/>
<path d="M42.3789 0.799805V2.06124" stroke="#FF6868" stroke-width="1.6" stroke-linecap="round"/>
<path d="M36.9541 3.82715C36.9957 3.82715 37.0374 3.82715 37.1421 3.86878C37.2468 3.9104 37.4133 3.99366 37.5615 4.09899C37.7097 4.20432 37.8346 4.3292 38.3417 4.45787" stroke="#FF6868" stroke-width="1.6" stroke-linecap="round"/>
<path d="M48.1816 5.97186C48.2649 5.97186 48.3482 5.97186 48.4743 5.95105C48.6004 5.93024 48.767 5.88861 48.936 5.80472C49.105 5.72084 49.2715 5.59595 49.5692 5.46729" stroke="#FF6868" stroke-width="1.6" stroke-linecap="round"/>
<path d="M45.9111 13.2881C45.9528 13.2881 45.9944 13.2881 46.0783 13.3505C46.1622 13.413 46.287 13.5379 46.393 13.6854C46.499 13.833 46.5822 13.9995 46.7941 14.2972" stroke="#FF6868" stroke-width="1.6" stroke-linecap="round"/>
<path d="M34.7471 10.1974C34.8303 10.1974 34.9136 10.1974 35.0813 10.1974C35.2491 10.1974 35.4989 10.1974 35.7108 10.1766C35.9227 10.1558 36.0892 10.1142 36.3869 10.0713" stroke="#FF6868" stroke-width="1.6" stroke-linecap="round"/>
<path d="M40.9282 14.2339C40.8866 14.3588 40.845 14.4837 40.8027 14.6312C40.7605 14.7788 40.7188 14.9453 40.5498 15.3692" stroke="#FF6868" stroke-width="1.6" stroke-linecap="round"/>
<path d="M48.4971 9.69287C48.5803 9.69287 48.6636 9.69287 48.8314 9.7345C48.9991 9.77613 49.2489 9.85938 49.5024 9.96471C49.756 10.07 50.0058 10.1949 50.2631 10.3236" stroke="#FF6868" stroke-width="1.6" stroke-linecap="round"/>
<path d="M16.3334 17.7998C15.8078 19.7473 13.7114 23.9432 12.4036 26.2406C11.8244 27.2581 11.3744 28.1391 10.5313 29.4588C9.80379 30.5975 9.21154 32.1988 8.57741 33.6547C7.95995 35.0723 7.73269 36.5815 7.20464 37.8514C6.83845 38.732 6.46601 40.22 5.96408 41.9404C5.64328 43.0399 5.725 45.6984 5.90867 47.589C6.03466 48.8858 6.83018 49.8848 7.72715 51.5188C8.32856 52.6144 9.72771 53.3682 10.92 54.0561C11.944 54.647 13.1098 54.8502 15.8181 55.113C19.743 55.4939 20.8143 55.0085 21.8712 54.851C22.8866 54.6996 23.7182 54.429 24.7735 54.034C26.1361 53.5239 26.7804 52.4783 27.5459 51.6605C28.3945 50.754 28.5759 49.5238 28.9464 48.6783C29.2917 47.8904 29.4214 46.7814 29.5014 45.8283C29.5866 44.8127 29.8964 43.6654 29.9241 37.6423C29.9341 35.4748 29.4246 34.6403 28.8965 33.4006C28.4674 32.3931 27.8951 31.1063 27.2609 29.8641C26.69 28.7458 26.0996 27.8319 25.5193 26.855C24.9898 25.9636 24.1489 24.985 23.4086 23.9519C22.6555 22.9007 21.9322 22.1318 21.192 21.3916C20.2412 20.4408 19.3988 19.8075 18.7108 19.0958C18.3869 18.7606 18.0767 18.4347 17.7086 18.1972C17.5184 18.0746 17.236 18.1165 17.0752 18.2471C16.2795 18.8939 16.6501 22.5752 16.5187 24.8148C16.398 26.8723 16.0168 29.7193 15.8331 31.1213C15.6392 32.6015 15.3834 33.7346 14.7263 37.6289C14.4156 39.4703 14.1199 41.6957 13.6695 44.3383C13.5788 44.8702 13.5373 45.1854 14.3463 44.119C15.1554 43.0527 16.8275 40.5969 18.159 38.4174C19.4906 36.2379 20.4312 34.4092 21.0463 33.6499C21.6614 32.8907 21.9227 33.2565 22.1095 33.7323C22.508 34.747 22.5608 36.838 22.5877 39.5511C22.6314 43.9628 21.0312 46.403 20.9521 46.5637C20.2502 47.9885 22.29 42.7756 23.6913 41.9206C23.9455 41.7654 24.1932 41.8667 24.4315 42.0235C25.0047 42.4005 25.3047 43.0257 25.463 43.6559C25.5665 44.0677 25.5169 44.7041 25.4385 45.1055C25.3224 45.6999 22.8473 45.8251 20.6663 46.2977C19.4334 46.5649 18.661 47.931 18.2335 48.7781C18.2841 48.938 18.4931 49.0425 18.7053 49.1747C18.9175 49.3069 19.1265 49.4636 19.3418 49.6251" stroke="#C8E1FF" stroke-width="11.495" stroke-linecap="round"/>
<path d="M27.3486 32.4868C27.568 33.5867 27.9197 34.3772 28.3605 35.0183C28.7854 35.6362 29.1094 36.405 29.5503 37.1327C29.995 37.8668 30.1669 38.6523 30.3665 39.4236C30.5039 39.9546 30.4326 40.4607 30.4987 41.7939C30.7797 47.461 30.0374 48.1702 29.8391 48.8761C29.6283 49.6265 29.157 50.2853 28.804 50.9912C28.4588 51.6816 27.9672 52.2682 27.4609 52.8207C26.7775 53.1962 26.2487 53.4169 25.8099 53.483C25.5455 53.5055 25.1965 53.5055 24.8369 53.5055" stroke="#C8E1FF" stroke-width="11.495" stroke-linecap="round"/>
<path d="M24.7051 27.728C25.1889 28.1669 25.715 29.1319 26.2894 30.1042C26.7717 30.9206 26.9947 31.6462 27.4573 32.2424C27.9231 32.8426 28.0522 33.6291 28.2736 34.335C28.4992 35.054 28.9776 35.7442 29.4402 36.3404C29.9183 36.9564 30.08 37.7271 30.3444 38.433C30.6092 39.1398 30.6088 39.9744 30.6319 43.884C30.6407 45.3652 30.0827 46.1425 29.6418 46.8934C29.2719 47.5235 28.6312 48.2576 27.9901 48.9212C27.6609 49.0111 27.2194 49.0983 26.6919 49.2523C26.4262 49.3191 26.1645 49.3627 25.8948 49.4077" stroke="#C8E1FF" stroke-width="11.495" stroke-linecap="round"/>
<path d="M21.0576 28.8145L21.6277 29.0017" stroke="#0D0D0D" stroke-width="2.5" stroke-linecap="round"/>
<path d="M14.0928 30.0015L14.6628 29.8142" stroke="#0D0D0D" stroke-width="2.5" stroke-linecap="round"/>
<path d="M14.7285 36.9256C15.1869 36.8006 16.048 36.4653 17.1929 36.0237C18.1086 35.7904 19.0373 35.5802 20.1702 35.328C20.7823 35.2216 21.4698 35.1591 22.1781 35.0947" stroke="#0D0D0D" stroke-width="2" stroke-linecap="round"/>
</svg>
