<svg width="48" height="42" viewBox="0 0 48 42" fill="none" xmlns="http://www.w3.org/2000/svg">
<path d="M12.2306 36.2571C9.48706 31.067 4.51539 19.0878 4.72726 13.6312C4.76725 12.6014 5.80853 12.6657 6.5403 13.1703C10.019 15.5691 9.89772 19.4985 11.7129 22.9193C13.1105 25.553 13.8296 27.7992 14.0502 31.2199C14.1025 32.0297 14.2665 32.6048 14.3408 31.7485C14.8945 25.3641 14.8519 22.4343 15.2145 17.644C15.9416 8.03802 16.3023 5.39614 17.6129 3.35154C17.8981 2.90676 18.6265 3.05445 18.9957 3.41488C24.0367 8.33658 19.3692 22.9848 19.0765 27.2837C18.7504 32.0728 18.2028 33.7756 17.9843 34.361C16.6308 37.9885 21.8332 24.1818 22.9298 20.9074C24.4089 16.4907 27.364 12.9716 29.697 11.2153C30.2806 10.776 30.8591 10.2018 31.3003 10.193C31.7416 10.1843 32.0299 10.761 32.1784 11.4906C32.8493 14.7858 30.1513 18.616 28.4016 21.104C26.656 23.5862 24.6205 25.9031 22.2875 28.7472C20.2242 31.2627 18.9323 32.9019 18.928 33.3431C18.876 38.5949 29.6795 25.641 32.7551 23.2316C35.0863 21.4054 36.9797 20.2412 37.9277 20.1647C38.2374 20.1398 37.8666 21.0975 37.4297 21.6851C35.6903 24.0246 31.9076 25.1779 27.7551 28.236C24.5331 30.6088 21.4225 33.6184 20.2364 35.3812C17.5377 39.3919 28.9543 32.6223 32.7507 31.0932C36.9981 29.3826 41.6368 28.8302 43.31 29.1185C44.0235 29.2415 44.2624 29.9835 44.2668 30.7131C44.2765 32.3328 42.8207 33.7756 41.2939 34.8656C39.1332 36.4081 36.1278 36.8338 33.2837 37.4935C30.7324 37.7119 19.4653 38.0046 13.4015 36.5542C12.9646 36.2571 12.3879 36.2571 11.7938 36.2571" stroke="#FF6868" stroke-width="6.156" stroke-linecap="round"/>
<path d="M38.2293 32.7827L29.4326 34.5421" stroke="#FF6868" stroke-width="4.617" stroke-linecap="round"/>
<path d="M4.05371 15.061C4.05371 15.339 4.10397 15.8957 4.14243 16.9229C4.16401 17.4995 4.25627 18.0035 4.30729 18.9158C4.3435 19.5632 4.48472 20.2119 4.64959 20.6817C4.7936 21.0922 4.86548 21.5567 4.96714 21.9893C5.0701 22.4273 5.24623 22.8772 5.39853 23.3596C5.54716 23.8304 5.65288 24.2479 5.79185 24.6545C5.92848 25.0543 6.00775 25.4663 6.17261 25.873C6.33416 26.2714 6.41439 26.6847 6.49016 27.0914C6.56818 27.5101 6.76925 27.9534 6.88348 28.3859C6.99555 28.8103 7.15001 29.1977 7.31487 29.6044C7.47643 30.0028 7.60691 30.4161 7.72114 30.8228C7.88639 31.2294 7.98767 31.5592 8.08895 31.7998C8.13997 31.9148 8.19023 32.0153 8.24202 32.1189" stroke="#FF6868" stroke-width="4.617" stroke-linecap="round"/>
<path d="M4.6313 13.9541C4.60165 14.7916 4.54144 16.7523 4.64568 18.0705C4.68763 18.601 4.96018 19.0436 5.02038 19.6129C5.08624 20.2356 5.26031 20.8103 5.42429 21.4698C5.5641 22.0321 5.64849 22.6973 5.799 23.3717C5.92917 23.9549 5.97917 24.4351 6.14316 24.915C6.33467 25.4754 6.48777 26.2017 6.63738 26.7418C6.81738 27.3915 7.05567 28.0869 7.17697 28.8382C7.26323 29.3723 7.4762 29.8266 7.58133 30.3064C7.69886 30.8428 7.92549 31.5626 8.0751 32.193C8.22079 32.8068 8.52394 33.3005 8.74904 33.8109C8.95378 34.2751 9.15295 34.7688 9.40769 35.2486C9.67683 35.7556 10.0803 36.2065 10.4707 36.7461C10.782 37.1763 11.2484 37.4358 11.7283 37.7503C12.1717 38.0409 12.7455 38.1546 13.2855 38.2454C13.9241 38.3527 14.4528 38.4547 14.9928 38.6345C15.5932 38.8343 16.338 38.7549 18.3045 38.8294C19.7292 38.8835 22.4285 38.8447 23.8779 38.8299C25.9253 38.809 26.943 38.6956 28.1992 38.6502C28.8318 38.5455 29.4285 38.4853 30.3118 38.4107C30.5966 38.3954 30.9525 38.3954 31.5887 38.3056" stroke="#FF6868" stroke-width="4.617" stroke-linecap="round"/>
<path d="M4.66325 19.249C4.5871 20.0798 4.68762 21.7087 4.87838 22.2044C5.03721 22.6172 5.17042 23.0292 5.33529 23.4358C5.49684 23.8343 5.62733 24.2476 5.74155 24.6542C5.77101 24.7591 5.82989 24.8568 5.85578 24.7829C6.08223 24.1369 5.75526 23.6932 5.64103 23.2233C5.52896 22.7623 5.37451 22.2722 5.27285 21.7007C5.16313 21.0839 5.09579 20.3684 4.98081 20.1118C4.70046 19.4861 5.12016 21.101 5.12016 21.1654C5.12016 21.6849 5.01888 20.2908 4.95568 20.1887C4.49897 19.4514 4.86582 22.5723 4.95491 22.9915C5.05299 23.4529 5.09427 23.8668 5.19593 24.2735C5.2976 24.6801 5.34861 25.1355 5.47502 25.5932C5.61858 26.1129 5.70348 26.5824 5.86834 27.0149C6.01664 27.404 6.05834 27.8267 6.12269 28.2965C6.18422 28.7458 6.36295 29.2477 6.50306 29.756C6.63877 30.2483 6.76959 30.6443 6.99766 31.0509C7.21014 31.4298 7.35291 31.8627 7.54367 32.3325C7.71326 32.7502 7.96212 33.1572 8.22865 33.6271C8.46749 34.0481 8.77389 34.5021 9.07887 34.884C9.41823 35.3089 9.86437 35.7205 10.3723 36.0517C11.2115 36.599 12.0453 36.9648 13.2005 37.2705C13.6607 37.3923 14.7571 37.373 16.2782 37.3478C17.2994 37.331 17.8107 37.1704 18.0514 37.044C18.2669 36.8673 18.4458 36.6632 18.5852 36.4607C18.6492 36.3586 18.6994 36.2581 18.7512 36.1545" stroke="#FF6868" stroke-width="4.617" stroke-linecap="round"/>
<path d="M16.6055 26.3091L16.6412 26.6148" stroke="#0D0D0D" stroke-width="2.25" stroke-linecap="round"/>
<path d="M22.7617 25.3857L22.7974 25.6915" stroke="#0D0D0D" stroke-width="2.25" stroke-linecap="round"/>
<path d="M12.6035 22.3076L16.6512 23.0773" stroke="#0D0D0D" stroke-width="1.8" stroke-linecap="round"/>
<path d="M22.1466 29.719C20.4184 29.6277 18.776 29.8084 17.9521 30.0374C17.0983 30.2747 16.493 31.3869 16.186 32.0284C15.8289 32.7744 16.0322 33.5796 16.2293 33.929C16.5016 34.4119 18.2705 34.2813 19.3463 34.1298C19.9826 34.0402 20.4713 33.9473 21.4262 33.7648C23.5974 33.3499 24.4241 33.3706 24.8676 32.9901C25.5176 32.4324 24.7654 30.5165 24.3228 29.9329C24.2161 29.8714 24.0956 29.8412 23.8529 29.8257C23.6102 29.8102 23.2489 29.8102 22.6029 29.719" stroke="#0D0D0D" stroke-width="1.8" stroke-linecap="round"/>
<path d="M21.5303 22.4019L24.029 21.0763" stroke="#0D0D0D" stroke-width="1.8" stroke-linecap="round"/>
<path d="M34.3281 24.3131C34.2072 24.6747 34.0725 24.9574 33.9185 25.1958C33.8369 25.3379 33.7484 25.5227 33.6725 25.7083C33.5967 25.8939 33.5363 26.0748 33.2424 26.4679" stroke="#FCA8A8" stroke-width="1.4" stroke-linecap="round"/>
<path d="M1.7861 31.3223C1.66523 31.684 1.53055 31.9666 1.37654 32.2051C1.29495 32.3472 1.20638 32.532 1.13054 32.7176C1.0547 32.9032 0.994268 33.084 0.70044 33.4772" stroke="#FCA8A8" stroke-width="1.4" stroke-linecap="round"/>
<path d="M37.6171 23.5853C37.4024 24.1073 37.0214 24.6824 36.7297 25.1884C36.6743 25.3128 36.634 25.4333 36.579 25.5577C36.524 25.6821 36.4556 25.8066 36.312 26.0323" stroke="#FCA8A8" stroke-width="1.4" stroke-linecap="round"/>
<path d="M5.0751 30.5941C4.86045 31.116 4.47939 31.6912 4.18766 32.1972C4.13227 32.3216 4.09198 32.4421 4.03702 32.5665C3.98205 32.6909 3.91363 32.8154 3.76998 33.0411" stroke="#FCA8A8" stroke-width="1.4" stroke-linecap="round"/>
<path d="M41.2344 23.3323C41.2424 23.3886 41.1861 23.5984 41.0482 23.9507C40.8783 24.2788 40.7426 24.5608 40.6474 24.8057C40.5924 24.9301 40.524 25.0546 40.3924 25.3656" stroke="#FCA8A8" stroke-width="1.4" stroke-linecap="round"/>
<path d="M8.69339 30.3411C8.70138 30.3974 8.64507 30.6072 8.50723 30.9595C8.33725 31.2876 8.20159 31.5696 8.10634 31.8145C8.05137 31.9389 7.98295 32.0634 7.85141 32.3743" stroke="#FCA8A8" stroke-width="1.4" stroke-linecap="round"/>
</svg>
