<svg width="41" height="37" viewBox="0 0 41 37" fill="none" xmlns="http://www.w3.org/2000/svg">
<path d="M3.78062 28.429C3.36454 21.8485 3.63916 18.9422 4.88222 15.2369C7.12758 8.54408 9.04829 7.90752 9.98241 6.90059C11.5358 5.22616 13.6169 4.71613 17.8714 3.9859C24.1439 2.90931 25.7542 4.36246 27.0773 4.98659C28.366 5.59443 29.7029 8.09476 32.4126 12.394C33.7429 14.5046 34.2216 16.146 34.7084 18.5718C34.7791 19.7494 34.8478 20.5899 34.9518 22.1388C34.9872 23.413 34.9872 25.6786 34.9872 28.0129" stroke="#E0D0FF" stroke-width="7.2" stroke-linecap="round"/>
<path d="M3.78027 29.6773C4.47098 30.9214 5.44046 32.1697 6.85828 32.7272C9.67117 33.8334 11.2615 31.9699 12.4796 31.3094C13.5164 30.7472 13.9037 29.8188 14.2147 29.5057C14.8699 28.8461 15.8385 31.2668 17.2636 32.2747C18.3574 33.0484 20.8939 32.798 22.8454 32.1769C24.2619 31.7262 24.7219 30.1683 25.2753 29.2976C25.8839 28.3402 27.2143 30.7134 28.3596 31.5123C30.294 32.8616 34.009 31.4165 35.1564 30.6853C35.4093 30.5241 35.6068 30.3056 35.7815 30.0622C37.9466 27.0466 36.0978 19.8368 35.9584 18.4482C35.8201 17.071 35.2656 16.0213 34.9192 14.8417C34.4721 13.3193 33.88 12.2765 33.1519 11.1656C32.4549 10.1022 31.5915 9.15588 30.8291 8.25193C30.0667 7.34818 28.9577 6.79667 27.7448 5.99778C26.6678 5.28841 25.0798 5.12816 23.482 4.95549C22.1123 4.80746 20.844 5.12608 19.9453 5.71276C17.8662 7.06995 17.17 8.51927 15.9207 9.52828C14.4152 10.7442 12.5264 12.8882 10.7217 14.4496C8.84704 16.0713 7.52922 18.9173 6.45364 22.3833C5.96921 23.9443 5.86071 25.7827 6.13533 27.5157C6.31202 28.6308 8.76084 28.4291 10.7705 28.3261C12.5606 28.2343 13.3461 26.0116 14.2823 24.5178C15.977 21.8138 16.3253 18.9464 16.9203 16.5778C17.3784 14.7543 18.1311 12.495 18.7553 9.89652C18.9984 8.88405 18.9675 8.46518 18.5212 9.17981C16.9871 11.6365 15.2331 15.1683 13.5698 17.6628C12.1666 19.7671 11.6901 21.2807 11.2022 22.4259C10.9117 23.1079 10.5084 23.9166 10.3004 24.2328C9.06428 26.1116 11.5361 18.9506 12.93 17.0595C13.1372 16.7785 13.4834 16.712 13.6936 16.7786C14.9041 17.1621 15.0105 21.5366 15.7376 25.4904C15.9754 26.7834 16.2587 26.5608 16.8454 25.5279C18.463 22.6798 19.6582 20.3195 20.1429 20.073C21.02 19.6269 20.6318 23.2134 20.9407 24.2651C21.081 24.7425 21.8676 21.6094 22.1859 22.3302C22.5042 23.0511 22.5042 26.8271 22.4699 26.541C21.904 21.8252 22.3648 16.7141 22.5375 16.1233C22.6194 15.843 23.1263 18.0123 23.4726 20.0251C23.5251 20.3299 23.9584 16.6725 24.3391 12.2297C24.3775 11.7819 24.8613 15.5033 24.9997 19.6975C25.0589 21.4931 25.2088 17.1718 25.2431 10.6486C25.2532 8.72495 25.3461 9.61774 25.2098 13.0297C25.0735 16.4416 24.7303 22.3459 24.8624 24.4606C25.0248 27.0599 27.4223 20.1219 28.3918 18.418C28.8793 17.5613 29.7816 23.4027 30.4057 27.5719C30.9165 30.9843 31.034 21.1579 31.034 19.7349C31.034 17.97 31.8662 25.3021 31.8662 25.2085C31.8662 19.2153 31.4501 16.3001 31.2774 14.9114C31.2342 14.5638 31.242 14.2197 31.1391 14.1458C30.3529 13.582 28.0007 16.8993 25.5978 19.4395C23.4307 21.7304 22.4459 24.1142 21.2247 26.307C20.734 27.1882 20.2865 28.0088 20.0784 28.118C19.8032 28.2625 20.0077 26.7855 19.8017 26.4953C19.4275 25.968 18.6221 27.5241 18.4141 27.8725C17.8787 28.7692 17.998 25.866 17.6526 25.3812C17.4811 25.1404 17.17 25.0338 16.9255 25.066C16.6811 25.0983 16.4751 25.3042 16.6093 25.376C16.7435 25.4478 17.2241 25.3791 17.5746 25.2065C17.9252 25.0338 18.1311 24.7592 18.9675 24.4762" stroke="#E0D0FF" stroke-width="7.2" stroke-linecap="round"/>
<path d="M12.5681 13.9893C12.1506 14.6746 11.8531 15.3295 11.5835 15.9432C11.3677 16.4342 11.1955 16.9135 11.0455 17.3919C10.8911 17.8842 10.8372 18.4366 10.6723 18.915C10.5041 19.4032 10.2996 19.87 10.1496 20.3484C10.0039 20.8129 10.0004 21.3035 9.89556 21.7819C9.78641 22.28 9.79074 22.8856 9.64202 24.0154C9.16951 27.6048 9.70115 28.1124 9.80507 28.5908C9.99948 29.0692 10.1778 29.4276 10.3865 29.6659C10.477 29.7859 10.5361 29.9042 10.7762 30.026" stroke="#E0D0FF" stroke-width="7.2" stroke-linecap="round"/>
<path d="M15.2998 21.1777C16.2609 21.7611 17.1856 21.8514 17.9905 21.6951C18.1874 21.6277 18.3993 21.5388 18.5791 21.4707C18.7589 21.4027 18.9002 21.3582 19.2598 21.043" stroke="#0D0D0D" stroke-width="1.8" stroke-linecap="round"/>
<path d="M24.5771 20.8349C25.5383 21.4183 26.463 21.5086 27.2678 21.3523C27.4647 21.2849 27.6766 21.196 27.8565 21.128C28.0363 21.0599 28.1775 21.0155 28.5371 20.7002" stroke="#0D0D0D" stroke-width="1.8" stroke-linecap="round"/>
<path d="M18.9854 27.2713C19.277 27.1623 19.9361 26.8685 20.6151 26.6484C21.1961 26.4601 21.8068 26.4283 24.4952 26.4272C25.2182 26.5362 25.5494 26.6473 25.8971 26.7205C26.0633 26.7574 26.2085 26.7937 26.6883 26.9411" stroke="#0D0D0D" stroke-width="1.8" stroke-linecap="round"/>
<path d="M36.2772 20.7381C34.8566 20.7368 31.9343 21.1564 31.2755 21.6774C30.4993 22.2914 30.5588 23.1438 30.6173 24.0147C30.645 24.4279 31.0496 24.66 31.3905 24.8699C32.1832 25.3579 34.7215 25.1475 36.579 24.8829C37.3206 24.7772 37.955 24.3973 38.3766 24.098C38.7299 23.8471 38.8906 23.4786 38.9716 22.9877C39.096 22.2342 38.7668 21.5975 38.4384 21.2995C37.9324 20.9723 37.5107 20.9236 37.1411 20.8367C36.913 20.8121 36.6023 20.8272 36.2823 20.8427" stroke="#FCA7A7" stroke-width="2.4576" stroke-linecap="round"/>
<path d="M31.9744 22.3155C31.9773 22.374 31.9571 23.1675 31.9751 24.1603C31.9782 24.3319 32.4667 23.3613 32.8747 22.9257C33.3388 22.4302 33.1891 24.1499 33.3518 24.1891C33.5919 24.2469 33.9178 23.4757 34.1491 23.2806C34.3804 23.0855 34.4474 23.2581 34.489 23.4933C34.5306 23.7285 34.5448 24.021 34.6042 24.0372C35.3817 24.2494 35.371 22.7744 35.6415 22.5534C35.7647 22.4527 35.8343 23.1313 35.9276 23.543C36.0074 23.8955 36.3176 22.7285 36.4768 22.3663C36.5629 22.1705 36.7531 21.9984 36.8597 22.3277C36.9663 22.657 37.0074 23.5053 37.0494 23.7653C37.0913 24.0254 37.1328 23.6715 37.1945 23.414C37.2561 23.1565 37.3368 23.006 37.5085 22.8466" stroke="#FCA7A7" stroke-width="2.4576" stroke-linecap="round"/>
<path d="M11.4774 23.3255C10.0568 23.3242 7.13445 23.7438 6.47568 24.2649C5.69947 24.8788 5.75898 25.7312 5.81749 26.6021C5.84524 27.0153 6.2498 27.2474 6.59074 27.4573C7.38337 27.9453 9.92174 27.7349 11.7792 27.4703C12.5208 27.3646 13.1552 26.9847 13.5768 26.6854C13.9301 26.4345 14.0908 26.066 14.1718 25.5751C14.2962 24.8216 13.967 24.185 13.6386 23.8869C13.1326 23.5597 12.7109 23.511 12.3413 23.4241C12.1132 23.3995 11.8025 23.4146 11.4825 23.4301" stroke="#FCA7A7" stroke-width="2.4576" stroke-linecap="round"/>
<path d="M7.17461 24.9029C7.17745 24.9614 7.15731 25.7549 7.17528 26.7477C7.17838 26.9193 7.66691 25.9487 8.07489 25.5131C8.53904 25.0176 8.38927 26.7373 8.55198 26.7765C8.79212 26.8343 9.11796 26.0631 9.34926 25.868C9.58056 25.6729 9.64757 25.8455 9.68919 26.0807C9.73081 26.3159 9.745 26.6084 9.80443 26.6246C10.5819 26.8368 10.5712 25.3618 10.8417 25.1408C10.9649 25.0401 11.0345 25.7187 11.1278 26.1304C11.2076 26.4829 11.5178 25.3159 11.677 24.9537C11.7631 24.7579 11.9533 24.5858 12.0599 24.9151C12.1665 25.2444 12.2076 26.0927 12.2496 26.3527C12.2915 26.6128 12.333 26.2589 12.3947 26.0014C12.4563 25.7439 12.537 25.5934 12.7087 25.434" stroke="#FCA7A7" stroke-width="2.4576" stroke-linecap="round"/>
</svg>
