<svg width="43" height="37" viewBox="0 0 43 37" fill="none" xmlns="http://www.w3.org/2000/svg">
<path d="M4.88121 28.429C4.46513 21.8485 4.73974 18.9422 5.9828 15.2369C8.22816 8.54408 10.1489 7.90752 11.083 6.90059C12.6363 5.22616 14.7175 4.71613 18.972 3.9859C25.2444 2.90931 26.8548 4.36246 28.1779 4.98659C29.4666 5.59443 30.8034 8.09476 33.5132 12.394C34.8435 14.5046 35.3222 16.146 35.809 18.5718C35.8797 19.7494 35.9484 20.5899 36.0524 22.1388C36.0877 23.413 36.0877 25.6786 36.0877 28.0129" stroke="#E0D0FF" stroke-width="7.2" stroke-linecap="round"/>
<path d="M4.88086 29.6773C5.57157 30.9214 6.54105 32.1697 7.95887 32.7272C10.7718 33.8334 12.3621 31.9699 13.5802 31.3094C14.617 30.7472 15.0043 29.8188 15.3153 29.5057C15.9705 28.8461 16.9391 31.2668 18.3642 32.2747C19.458 33.0484 21.9945 32.798 23.946 32.1769C25.3625 31.7262 25.8225 30.1683 26.3759 29.2976C26.9845 28.3402 28.3149 30.7134 29.4602 31.5123C31.3946 32.8616 35.1096 31.4165 36.257 30.6853C36.5098 30.5241 36.7074 30.3056 36.8821 30.0622C39.0471 27.0466 37.1983 19.8368 37.059 18.4482C36.9207 17.071 36.3662 16.0213 36.0198 14.8417C35.5727 13.3193 34.9806 12.2765 34.2525 11.1656C33.5555 10.1022 32.6921 9.15588 31.9296 8.25193C31.1673 7.34818 30.0583 6.79667 28.8454 5.99778C27.7684 5.28841 26.1804 5.12816 24.5826 4.95549C23.2129 4.80746 21.9446 5.12608 21.0459 5.71276C18.9668 7.06995 18.2706 8.51927 17.0212 9.52828C15.5158 10.7442 13.627 12.8882 11.8222 14.4496C9.94763 16.0713 8.62981 18.9173 7.55423 22.3833C7.0698 23.9443 6.9613 25.7827 7.23591 27.5157C7.4126 28.6308 9.86143 28.4291 11.8711 28.3261C13.6612 28.2343 14.4467 26.0116 15.3829 24.5178C17.0776 21.8138 17.4259 18.9464 18.0209 16.5778C18.479 14.7543 19.2317 12.495 19.8558 9.89652C20.099 8.88405 20.068 8.46518 19.6218 9.17981C18.0877 11.6365 16.3337 15.1683 14.6704 17.6628C13.2672 19.7671 12.7907 21.2807 12.3028 22.4259C12.0123 23.1079 11.609 23.9166 11.4009 24.2328C10.1649 26.1116 12.6367 18.9506 14.0306 17.0595C14.2377 16.7785 14.584 16.712 14.7941 16.7786C16.0047 17.1621 16.1111 21.5366 16.8382 25.4904C17.076 26.7834 17.3593 26.5608 17.946 25.5279C19.5636 22.6798 20.7587 20.3195 21.2435 20.073C22.1205 19.6269 21.7324 23.2134 22.0413 24.2651C22.1816 24.7425 22.9682 21.6094 23.2865 22.3302C23.6048 23.0511 23.6048 26.8271 23.5705 26.541C23.0046 21.8252 23.4654 16.7141 23.6381 16.1233C23.72 15.843 24.2268 18.0123 24.5732 20.0251C24.6257 20.3299 25.059 16.6725 25.4397 12.2297C25.4781 11.7819 25.9619 15.5033 26.1003 19.6975C26.1595 21.4931 26.3094 17.1718 26.3437 10.6486C26.3538 8.72495 26.4467 9.61774 26.3104 13.0297C26.1741 16.4416 25.8309 22.3459 25.963 24.4606C26.1253 27.0599 28.5229 20.1219 29.4924 18.418C29.9799 17.5613 30.8821 23.4027 31.5063 27.5719C32.0171 30.9843 32.1346 21.1579 32.1346 19.7349C32.1346 17.97 32.9667 25.3021 32.9667 25.2085C32.9667 19.2153 32.5507 16.3001 32.378 14.9114C32.3348 14.5638 32.3426 14.2197 32.2396 14.1458C31.4534 13.582 29.1013 16.8993 26.6984 19.4395C24.5313 21.7304 23.5465 24.1142 22.3253 26.307C21.8346 27.1882 21.387 28.0088 21.179 28.118C20.9038 28.2625 21.1083 26.7855 20.9023 26.4953C20.5281 25.968 19.7227 27.5241 19.5146 27.8725C18.9793 28.7692 19.0986 25.866 18.7532 25.3812C18.5816 25.1404 18.2706 25.0338 18.0261 25.066C17.7816 25.0983 17.5757 25.3042 17.7099 25.376C17.8441 25.4478 18.3246 25.3791 18.6752 25.2065C19.0257 25.0338 19.2317 24.7592 20.068 24.4762" stroke="#E0D0FF" stroke-width="7.2" stroke-linecap="round"/>
<path d="M13.6686 13.9893C13.2511 14.6746 12.9537 15.3295 12.684 15.9432C12.4683 16.4342 12.2961 16.9135 12.146 17.3919C11.9916 17.8842 11.9377 18.4366 11.7729 18.915C11.6047 19.4032 11.4002 19.87 11.2501 20.3484C11.1044 20.8129 11.101 21.3035 10.9961 21.7819C10.887 22.28 10.8913 22.8856 10.7426 24.0154C10.2701 27.6048 10.8017 28.1124 10.9057 28.5908C11.1001 29.0692 11.2784 29.4276 11.4871 29.6659C11.5776 29.7859 11.6367 29.9042 11.8768 30.026" stroke="#E0D0FF" stroke-width="7.2" stroke-linecap="round"/>
<path d="M16.4004 21.1777C17.3615 21.7611 18.2862 21.8514 19.091 21.6951C19.288 21.6277 19.4999 21.5388 19.6797 21.4707C19.8595 21.4027 20.0008 21.3582 20.3604 21.043" stroke="#0D0D0D" stroke-width="1.8" stroke-linecap="round"/>
<path d="M25.6777 20.8349C26.6388 21.4183 27.5635 21.5086 28.3684 21.3523C28.5653 21.2849 28.7772 21.196 28.957 21.128C29.1368 21.0599 29.2781 21.0155 29.6377 20.7002" stroke="#0D0D0D" stroke-width="1.8" stroke-linecap="round"/>
<path d="M20.0859 27.2713C20.3775 27.1623 21.0367 26.8685 21.7157 26.6484C22.2967 26.4601 22.9074 26.4283 25.5958 26.4272C26.3187 26.5362 26.65 26.6473 26.9977 26.7205C27.1639 26.7574 27.3091 26.7937 27.7889 26.9411" stroke="#0D0D0D" stroke-width="1.8" stroke-linecap="round"/>
<path d="M35.3339 21.2922C35.1591 21.631 34.9827 21.8898 34.794 22.1019C34.6917 22.2298 34.5759 22.3989 34.4725 22.5707C34.3691 22.7425 34.2818 22.9119 33.9312 23.2555" stroke="#FCA8A8" stroke-width="1.4" stroke-linecap="round"/>
<path d="M2.10242 23.2385C1.92764 23.5773 1.75128 23.8361 1.56259 24.0482C1.46021 24.1761 1.34441 24.3452 1.24105 24.517C1.1377 24.6888 1.05031 24.8582 0.699772 25.2018" stroke="#FCA8A8" stroke-width="1.4" stroke-linecap="round"/>
<path d="M38.6957 21.0757C38.4037 21.5586 37.9391 22.0687 37.5734 22.5241C37.4996 22.6385 37.4414 22.7515 37.368 22.866C37.2947 22.9805 37.208 23.0931 37.0315 23.2941" stroke="#FCA8A8" stroke-width="1.4" stroke-linecap="round"/>
<path d="M5.46428 23.022C5.17228 23.5049 4.70769 24.015 4.34197 24.4703C4.26819 24.5848 4.20993 24.6978 4.13657 24.8123C4.06322 24.9268 3.97654 25.0394 3.80005 25.2404" stroke="#FCA8A8" stroke-width="1.4" stroke-linecap="round"/>
<path d="M42.3089 21.3798C42.3082 21.4366 42.2205 21.6353 42.0303 21.9624C41.8121 22.2606 41.6349 22.5185 41.5033 22.746C41.4299 22.8605 41.3433 22.9731 41.1657 23.2602" stroke="#FCA8A8" stroke-width="1.4" stroke-linecap="round"/>
<path d="M9.07747 23.3261C9.07676 23.3829 8.98901 23.5816 8.79887 23.9086C8.58068 24.2069 8.40347 24.4648 8.27185 24.6923C8.1985 24.8067 8.11182 24.9193 7.93425 25.2065" stroke="#FCA8A8" stroke-width="1.4" stroke-linecap="round"/>
</svg>
