<svg width="50" height="42" viewBox="0 0 50 42" fill="none" xmlns="http://www.w3.org/2000/svg">
<path d="M13.0257 19.1303C11.8421 19.074 9.10993 19.2974 7.80014 20.0939C6.72072 20.7502 5.19077 22.3059 4.15982 23.4468C3.28731 24.4124 3.4205 25.7748 3.36081 28.8114C3.3316 30.2976 3.98331 31.1777 4.52479 32.0884C5.07471 33.0133 6.197 33.7359 8.10116 34.7037C10.0647 35.7018 13.1348 34.8786 14.3551 34.4249C16.7941 33.5181 17.8521 32.948 18.6512 32.2368C19.6454 31.3518 19.9601 29.653 20.4428 27.3583C21.0294 24.569 20.4735 22.4866 20.3319 22.033C19.9009 20.6516 18.0329 19.5873 16.9525 19.4151C15.8475 19.2389 14.9631 19.0177 11.3629 19.0442C10.3269 19.0518 9.73243 19.7528 8.96667 20.348C7.42569 21.5458 7.5682 25.5292 8.24697 28.9836C8.45814 30.0583 9.15768 30.6115 9.7239 30.9526C11.0916 31.7765 12.6778 29.8235 13.9586 28.7713C15.0189 27.9002 15.4116 26.5815 15.6956 25.8157C15.9494 25.1314 15.925 23.9704 15.5029 23.5926C13.7122 21.9901 13.0291 28.217 12.3205 28.5683C9.91359 29.7616 11.0934 24.187 11.0081 24.7822C10.9791 25.096 10.9791 25.4337 11.0354 25.7202C11.0917 26.0067 11.2042 26.2318 11.3202 26.4638" stroke="#AFECB2" stroke-width="6.72" stroke-linecap="round"/>
<path d="M30.7355 17.9816C28.6515 17.9816 22.9654 18.2067 20.9342 18.7465C19.5293 19.1198 19.4249 21.6654 19.1674 23.6574C18.9285 25.5046 19.3072 27.2422 19.6475 28.1794C20.0832 29.3795 21.3521 30.1995 22.2048 30.6574C23.1932 31.1882 24.1934 31.4547 25.892 31.5963C28.6999 31.8303 31.2966 30.9499 32.5177 29.6734C34.0095 28.1139 33.7474 26.2906 33.8335 25.0917C33.9398 23.6117 33.7508 21.6858 33.3236 20.4016C33.0049 19.4436 32.0487 18.5546 30.9393 17.8699C29.5281 16.9988 28.0716 17.0743 26.5341 16.9301C24.0501 16.6973 20.281 17.1254 19.482 17.8085C18.7169 18.4625 18.3436 19.5676 17.6631 21.1589C17.0751 22.534 16.9792 23.9439 16.9775 26.7255C16.9765 28.4163 17.658 29.5173 18.1415 30.4281C18.6673 31.4184 19.4761 32.1335 20.4703 32.7603C21.3012 33.284 22.5425 33.2728 27.3058 33.2463C29.3142 33.2352 30.2751 32.3109 31.2438 31.656C32.0814 31.0897 33.2289 30.2098 34.1439 29.0432C35.0411 27.8994 35.1663 26.0075 35.2559 24.1843C35.3277 22.7213 33.3585 21.853 31.8236 21.1955C30.1405 20.4746 27.3399 20.7103 24.8125 20.8791C23.2722 20.982 22.6653 22.0713 22.1835 22.9487C20.9183 25.2529 21.1849 27.0137 21.3819 27.9526C22.1626 31.6734 29.54 22.1344 29.6833 21.8768C30.9778 19.5498 27.0978 28.0967 27.2095 28.581C28.4025 27.8767 29.1409 26.8534 29.6798 26.4543C29.9374 26.3929 30.1625 26.618 30.565 26.85" stroke="#AFECB2" stroke-width="6.72" stroke-linecap="round"/>
<path d="M40.6402 16.1198C36.6101 15.9492 34.6779 16.0618 33.5096 16.431C33.0298 16.5827 32.4573 16.9691 31.8894 17.6214C31.0516 18.5838 31.2601 22.5119 31.4579 25.0684C31.5968 26.8634 32.3959 28.1672 32.963 29.1913C33.4701 30.1071 34.6096 30.3877 36.1693 30.8703C37.7087 31.3467 39.1581 30.7885 39.8394 30.4482C40.8187 29.9592 41.602 28.8596 42.3431 27.7212C43.1212 26.5258 43.1404 24.937 43.1139 21.3641C43.1079 20.553 42.8607 20.2197 42.4642 19.8769C40.5008 18.1796 37.584 17.9412 36.2094 17.6837C35.3103 17.5153 31.6899 17.4841 29.2178 18.2192C27.5243 18.7227 27.9072 21.7376 27.8773 24.7213C27.8602 26.4356 28.7565 27.3145 29.7772 28.6771C31.0961 30.4378 31.7683 31.1245 32.6773 31.5244C33.8892 32.0576 37.144 32.3217 39.7243 31.7563C41.7647 31.3093 42.8504 30.166 44.0187 29.3687C45.1667 28.5852 45.7531 27.4373 46.2384 26.1019C47.005 23.992 46.2136 20.4448 45.8717 19.4778C45.3615 18.0352 43.9419 17.259 42.72 16.7184C41.6444 16.2425 39.1803 16.4609 36.8378 17.3093C36.0031 17.6117 35.6397 18.7291 35.2986 19.7789C35.0241 20.6238 35.239 21.4033 35.3805 22.0275C35.4466 22.3191 35.5783 22.5392 35.8052 22.5707C36.3806 22.6507 36.8864 21.978 37.1985 21.411C37.7566 20.3971 34.5619 27.8159 34.0468 30.2675C33.9516 30.7208 33.9889 31.0085 34.1577 30.8439C36.6449 28.4195 38.8767 25.1042 39.0754 24.8756C39.8797 23.9505 39.6169 27.7715 39.7294 27.9719C39.9527 28.3693 40.4679 27.0944 40.7237 26.5555C40.8107 26.298 40.8107 26.0729 40.7263 25.8162C40.6419 25.5595 40.473 25.2781 39.958 24.4766" stroke="#AFECB2" stroke-width="6.72" stroke-linecap="round"/>
<path d="M16.8599 16.1359C17.1036 15.6441 18.3118 14.5051 18.8802 14.1326C19.4585 13.7535 20.1214 13.5109 20.76 13.2453C21.6684 12.8676 22.3205 12.7658 23.294 12.6413C26.268 12.2608 28.0686 13.083 28.6732 13.2789C29.7335 13.6223 31.0853 14.6435 31.6537 15.0698C32.2057 15.4838 32.7884 15.8847 33.5868 16.7181C33.8188 17.0556 33.9966 17.3408 34.1914 17.624C34.2808 17.7666 34.351 17.9071 34.5299 18.1583" stroke="#AFECB2" stroke-width="6.72" stroke-linecap="round"/>
<path d="M18.8599 35.8936C19.1079 36.247 19.4602 36.743 20.0286 37.0458C20.5885 37.3441 21.2698 37.4541 21.8382 37.5786C22.3959 37.7008 22.9729 37.7734 23.5414 37.8271C24.1548 37.8852 26.9604 38.0225 28.6508 37.9166C29.245 37.8793 29.7855 37.4562 30.4422 37.0661C31.0288 36.6046 31.595 36.1086 32.0575 35.5764C32.1645 35.4337 32.2699 35.2932 32.4849 35.042" stroke="#AFECB2" stroke-width="6.72" stroke-linecap="round"/>
<path d="M20.7598 22.7178V23.0058" stroke="#0D0D0D" stroke-width="2.5" stroke-linecap="round"/>
<path d="M27.96 22.542V22.734" stroke="#0D0D0D" stroke-width="2.5" stroke-linecap="round"/>
<path d="M18.3599 30.0783C18.4424 29.7893 18.6501 29.4547 18.9415 29.1526C19.1232 28.9643 19.3181 28.9525 19.4948 28.9731C19.9313 29.0241 20.3588 29.389 20.725 29.5876C21.0503 29.764 21.3395 30.0358 21.7254 30.0576C22.237 30.0867 22.7568 29.3915 23.2672 29.0375C23.7327 28.7146 24.3405 28.5772 24.8299 28.6082C25.3677 28.6422 25.6552 29.0763 26.093 29.3165C26.2769 29.4174 26.7579 29.4528 27.3933 29.4219C27.9136 29.3965 28.157 28.995 28.8225 28.5687C29.7872 27.9508 30.4074 28.0143 30.8052 28.0868C30.9716 28.1594 31.1392 28.2432 31.2952 28.3367C31.3687 28.3889 31.4307 28.4508 31.6821 28.6397" stroke="#0D0D0D" stroke-width="2" stroke-linecap="round"/>
<path d="M13.6344 16.4965C13.7237 13.492 14.066 11.3875 14.2819 10.2762C14.4196 9.56744 15.0322 8.32314 16.1382 6.67226C18.3986 3.29808 21.1592 2.67999 22.1717 2.48689C23.897 2.15787 26.6296 1.939 27.6742 2.01366C28.958 2.10541 29.8536 2.15168 30.7427 2.17077C32.1111 2.20016 33.393 2.96489 34.2357 3.43283C35.1713 3.95225 36.0709 4.81453 36.7096 5.65019C37.299 6.42141 37.8164 7.11866 38.1512 7.86743C38.4805 8.60386 38.7711 10.6339 38.856 13.2299C38.8876 14.198 38.3398 14.4354 38.0113 14.5986C37.0257 15.0883 36.1059 15.1427 35.1104 15.4563C33.0598 16.1022 30.5789 16.2327 27.5835 16.7561C25.4589 17.1274 21.4574 17.4986 19.2325 17.7348C15.8892 18.0898 14.5118 18.0671 13.1931 18.147C12.304 18.2009 11.3135 18.0491 10.1303 18.0387C8.96726 18.0284 7.86904 17.6173 6.95558 17.4026C6.54156 17.3053 6.13565 17.1297 5.89108 16.9378C5.29467 16.4696 7.68236 15.7209 8.60915 15.1925C9.40802 14.7371 10.3979 14.5145 11.2762 14.2405C11.4875 14.142 11.6684 14.0234 11.9297 13.9426C12.1911 13.8618 12.5273 13.8225 12.8737 13.7819" stroke="#37A2FF" stroke-width="4" stroke-linecap="round"/>
<path d="M20.173 5.54868C18.1274 8.19056 16.8966 10.3061 16.293 12.2907C15.9788 13.3241 15.9562 14.0581 16.0731 14.023C17.0404 13.7326 17.2658 11.8462 18.0187 10.7273C19.7205 8.19803 22.2427 4.82525 23.2567 3.76211C23.4459 3.56372 23.2132 5.4258 22.4581 7.77339C21.2204 11.6216 18.2752 13.636 17.3628 14.2873C17.0081 14.5406 16.4021 14.8912 16.1669 15.0191C15.9832 15.119 17.1132 14.4243 18.6372 13.193C20.1612 11.9616 22.4142 9.99344 23.8292 8.65755C25.2443 7.32167 25.7532 6.67772 26.079 6.2655C26.5321 5.69229 25.0515 7.56559 22.1447 11.0506C19.0597 14.7491 17.8396 15.4105 17.2896 16.1884C17.0405 16.5407 19.534 14.2042 23.6079 10.3583C25.5763 8.49999 26.2675 7.64158 26.9356 6.82553C27.101 6.62342 27.2054 6.40142 27.2271 6.15244C27.2489 5.90347 27.1671 5.62087 26.9003 5.42856C26.6336 5.23624 26.1844 5.14276 26.0703 5.05652C25.1303 4.34629 29.7559 4.7186 31.369 4.80267C32.375 4.8551 33.5792 5.00864 34.8941 5.49434C36.1441 5.95611 36.5513 7.65608 36.9163 8.87055C37.3745 10.395 36.7449 11.3756 36.1823 12.2294C35.7629 12.866 34.4525 13.1713 31.9954 13.7047C27.7042 14.6364 24.5474 14.7268 23.8365 14.7362C22.6845 14.7516 21.4635 14.8415 20.9174 14.6133C19.9436 14.2064 22.5011 12.4623 23.6758 11.3921C26.7613 8.58124 29.7179 6.00683 30.0654 5.62232C30.2302 5.43986 30.4241 5.33388 30.4662 5.66834C30.7919 8.25491 28.5352 10.5117 28.0578 11.3364C26.8337 13.4508 31.5268 8.00841 31.7391 7.9319C33.1651 7.41815 31.0854 10.9051 30.9344 11.7639C30.6474 13.3959 32.9464 9.21891 33.412 8.79696C33.6698 8.56331 33.9087 8.22527 34.1566 8.84919C34.4046 9.47312 34.6383 11.0527 33.4292 11.9491C27.8773 16.0651 25.9343 13.1374 25.3747 13.1786C25.1039 13.1985 24.8575 13.1661 25.1563 12.8382C25.455 12.5103 26.3058 11.8751 26.8642 11.5337C27.4226 11.1924 27.6628 11.1643 27.9103 11.1353" stroke="#37A2FF" stroke-width="4" stroke-linecap="round"/>
<path d="M24.0889 3.91699L24.1194 4.17759" stroke="white" stroke-width="2" stroke-linecap="round"/>
<path d="M33.1704 5.8916L33.3007 5.87634" stroke="white" stroke-width="2" stroke-linecap="round"/>
<path d="M27.8267 8.7627L27.8572 9.02329" stroke="white" stroke-width="2" stroke-linecap="round"/>
<path d="M17.3501 8.4043L17.4804 8.38904" stroke="white" stroke-width="2" stroke-linecap="round"/>
<path d="M7.62402 16.4648L7.9553 16.426" stroke="white" stroke-width="2" stroke-linecap="round"/>
<path d="M14.4824 17.6768L14.5083 17.8976" stroke="white" stroke-width="2" stroke-linecap="round"/>
<path d="M26.1802 17.2029L26.0828 17.3262" stroke="white" stroke-width="2" stroke-linecap="round"/>
<path d="M20.3027 16.3057L20.3699 16.2978" stroke="white" stroke-width="2" stroke-linecap="round"/>
<path d="M35.5063 14.5078L35.5221 14.6422" stroke="white" stroke-width="2" stroke-linecap="round"/>
<path d="M12.2129 12.2119C12.7719 12.4557 14.4439 13.1448 16.0238 13.4969C17.0815 13.7326 18.3459 13.802 19.3042 13.8024C20.0419 13.8027 20.751 13.8322 21.8661 13.8795C22.488 13.9059 22.9851 13.9264 24.8394 13.7759C26.5184 13.6396 29.6821 13.2314 31.4196 13.0059C33.8182 12.6947 35.1837 12.3206 36.2267 12.0658C37.1712 11.7773 37.9484 11.5969 38.6352 11.3839C38.8062 11.3192 38.9746 11.2555 39.5118 10.8808" stroke="#078BFF" stroke-width="4" stroke-linecap="round"/>
</svg>
