<svg width="50" height="42" viewBox="0 0 50 42" fill="none" xmlns="http://www.w3.org/2000/svg">
<path d="M13.0257 19.5893C11.8421 19.533 9.10993 19.7564 7.80014 20.5529C6.72072 21.2092 5.19077 22.7648 4.15982 23.9058C3.28731 24.8714 3.4205 26.2338 3.36081 29.2703C3.3316 30.7566 3.98331 31.6367 4.52479 32.5474C5.07471 33.4723 6.197 34.1949 8.10116 35.1627C10.0647 36.1608 13.1348 35.3375 14.3551 34.8839C16.7941 33.9771 17.8521 33.407 18.6512 32.6958C19.6454 31.8108 19.9601 30.112 20.4428 27.8173C21.0294 25.028 20.4735 22.9456 20.3319 22.492C19.9009 21.1106 18.0329 20.0463 16.9525 19.8741C15.8475 19.6979 14.9631 19.4767 11.3629 19.5031C10.3269 19.5107 9.73243 20.2118 8.96667 20.807C7.42569 22.0048 7.5682 25.9882 8.24697 29.4426C8.45814 30.5173 9.15768 31.0705 9.7239 31.4116C11.0916 32.2354 12.6778 30.2825 13.9586 29.2303C15.0189 28.3592 15.4116 27.0404 15.6956 26.2747C15.9494 25.5904 15.925 24.4294 15.5029 24.0516C13.7122 22.4491 13.0291 28.676 12.3205 29.0273C9.91359 30.2206 11.0934 24.646 11.0081 25.2412C10.9791 25.555 10.9791 25.8927 11.0354 26.1792C11.0917 26.4657 11.2042 26.6908 11.3202 26.9228" stroke="#AFECB2" stroke-width="6.72" stroke-linecap="round"/>
<path d="M30.7355 18.4406C28.6515 18.4406 22.9654 18.6657 20.9342 19.2055C19.5293 19.5788 19.4249 22.1244 19.1674 24.1163C18.9285 25.9636 19.3072 27.7012 19.6475 28.6384C20.0832 29.8385 21.3521 30.6585 22.2048 31.1164C23.1932 31.6472 24.1934 31.9137 25.892 32.0553C28.6999 32.2893 31.2966 31.4089 32.5177 30.1324C34.0095 28.5729 33.7474 26.7496 33.8335 25.5506C33.9398 24.0707 33.7508 22.1448 33.3236 20.8606C33.0049 19.9026 32.0487 19.0136 30.9393 18.3288C29.5281 17.4578 28.0716 17.5332 26.5341 17.3891C24.0501 17.1563 20.281 17.5844 19.482 18.2674C18.7169 18.9215 18.3436 20.0266 17.6631 21.6178C17.0751 22.993 16.9792 24.4029 16.9775 27.1845C16.9765 28.8752 17.658 29.9763 18.1415 30.887C18.6673 31.8774 19.4761 32.5925 20.4703 33.2193C21.3012 33.743 22.5425 33.7318 27.3058 33.7053C29.3142 33.6942 30.2751 32.7699 31.2438 32.115C32.0814 31.5487 33.2289 30.6687 34.1439 29.5022C35.0411 28.3584 35.1663 26.4665 35.2559 24.6433C35.3277 23.1803 33.3585 22.312 31.8236 21.6545C30.1405 20.9336 27.3399 21.1693 24.8125 21.3381C23.2722 21.441 22.6653 22.5303 22.1835 23.4077C20.9183 25.7119 21.1849 27.4727 21.3819 28.4116C22.1626 32.1324 29.54 22.5934 29.6833 22.3358C30.9778 20.0088 27.0978 28.5557 27.2095 29.04C28.4025 28.3357 29.1409 27.3124 29.6798 26.9133C29.9374 26.8519 30.1625 27.077 30.565 27.309" stroke="#AFECB2" stroke-width="6.72" stroke-linecap="round"/>
<path d="M40.6402 16.5788C36.6101 16.4082 34.6779 16.5208 33.5096 16.89C33.0298 17.0417 32.4573 17.4281 31.8894 18.0804C31.0516 19.0428 31.2601 22.9708 31.4579 25.5273C31.5968 27.3223 32.3959 28.6262 32.963 29.6503C33.4701 30.5661 34.6096 30.8467 36.1693 31.3293C37.7087 31.8057 39.1581 31.2475 39.8394 30.9072C40.8187 30.4182 41.602 29.3186 42.3431 28.1802C43.1212 26.9848 43.1404 25.396 43.1139 21.8231C43.1079 21.012 42.8607 20.6787 42.4642 20.3359C40.5008 18.6386 37.584 18.4002 36.2094 18.1427C35.3103 17.9742 31.6899 17.9431 29.2178 18.6782C27.5243 19.1817 27.9072 22.1966 27.8773 25.1803C27.8602 26.8945 28.7565 27.7734 29.7772 29.1361C31.0961 30.8968 31.7683 31.5834 32.6773 31.9834C33.8892 32.5166 37.144 32.7807 39.7243 32.2153C41.7647 31.7683 42.8504 30.625 44.0187 29.8277C45.1667 29.0441 45.7531 27.8962 46.2384 26.5609C47.005 24.451 46.2136 20.9038 45.8717 19.9368C45.3615 18.4942 43.9419 17.718 42.72 17.1774C41.6444 16.7015 39.1803 16.9199 36.8378 17.7683C36.0031 18.0707 35.6397 19.1881 35.2986 20.2378C35.0241 21.0828 35.239 21.8623 35.3805 22.4865C35.4466 22.778 35.5783 22.9981 35.8052 23.0297C36.3806 23.1097 36.8864 22.437 37.1985 21.87C37.7566 20.856 34.5619 28.2748 34.0468 30.7264C33.9516 31.1798 33.9889 31.4675 34.1577 31.3029C36.6449 28.8785 38.8767 25.5632 39.0754 25.3346C39.8797 24.4095 39.6169 28.2305 39.7294 28.4309C39.9527 28.8283 40.4679 27.5534 40.7237 27.0145C40.8107 26.757 40.8107 26.5319 40.7263 26.2752C40.6419 26.0185 40.473 25.7371 39.958 24.9355" stroke="#AFECB2" stroke-width="6.72" stroke-linecap="round"/>
<path d="M16.8599 16.5949C17.1036 16.1031 18.3118 14.9641 18.8802 14.5916C19.4585 14.2125 20.1214 13.9699 20.76 13.7043C21.6684 13.3266 22.3205 13.2248 23.294 13.1002C26.268 12.7197 28.0686 13.542 28.6732 13.7379C29.7335 14.0813 31.0853 15.1025 31.6537 15.5288C32.2057 15.9428 32.7884 16.3437 33.5868 17.1771C33.8188 17.5146 33.9966 17.7998 34.1914 18.083C34.2808 18.2256 34.351 18.3661 34.5299 18.6173" stroke="#AFECB2" stroke-width="6.72" stroke-linecap="round"/>
<path d="M18.8599 36.3525C19.1079 36.7059 19.4602 37.202 20.0286 37.5048C20.5885 37.8031 21.2698 37.913 21.8382 38.0376C22.3959 38.1598 22.9729 38.2324 23.5414 38.2861C24.1548 38.3441 26.9604 38.4815 28.6508 38.3755C29.245 38.3383 29.7855 37.9152 30.4422 37.525C31.0288 37.0636 31.595 36.5676 32.0575 36.0353C32.1645 35.8927 32.2699 35.7522 32.4849 35.501" stroke="#AFECB2" stroke-width="6.72" stroke-linecap="round"/>
<path d="M20.7598 23.1768V23.4648" stroke="#0D0D0D" stroke-width="2.5" stroke-linecap="round"/>
<path d="M27.96 23.001V23.193" stroke="#0D0D0D" stroke-width="2.5" stroke-linecap="round"/>
<path d="M18.3599 30.5373C18.4424 30.2483 18.6501 29.9137 18.9415 29.6116C19.1232 29.4233 19.3181 29.4114 19.4948 29.4321C19.9313 29.4831 20.3588 29.848 20.725 30.0466C21.0503 30.223 21.3395 30.4947 21.7254 30.5166C22.237 30.5457 22.7568 29.8505 23.2672 29.4965C23.7327 29.1736 24.3405 29.0362 24.8299 29.0671C25.3677 29.1012 25.6552 29.5353 26.093 29.7755C26.2769 29.8764 26.7579 29.9118 27.3933 29.8809C27.9136 29.8555 28.157 29.454 28.8225 29.0277C29.7872 28.4098 30.4074 28.4733 30.8052 28.5458C30.9716 28.6184 31.1392 28.7022 31.2952 28.7957C31.3687 28.8479 31.4307 28.9098 31.6821 29.0987" stroke="#0D0D0D" stroke-width="2" stroke-linecap="round"/>
<path d="M12.6568 6.66522C10.1271 6.91563 9.10656 7.66981 7.94776 8.75755C7.41004 9.2623 7.31168 9.92626 7.26904 10.7232C7.18681 12.2604 7.70165 13.4654 7.99426 13.9113C8.5724 14.7922 10.0549 15.2914 11.4459 15.4852C12.7135 15.6617 13.6389 15.5637 15.4353 15.3904C16.8917 15.2499 18.462 15.5549 19.4764 15.6211C20.5282 15.6897 21.6829 16.183 23.5642 16.7926C25.1767 17.3151 26.2627 17.3419 27.2803 17.2775C29.0077 17.168 30.8096 16.8111 31.7101 16.4542C32.6109 16.0971 33.2809 15.03 34.1974 14.4128C35.0021 13.871 35.8382 13.4895 36.7971 13.1753C37.6468 12.8968 40.4543 12.4838 42.3594 12.0134C43.4566 11.7425 43.4398 10.1719 43.5905 9.04636C43.6882 8.31726 43.4051 7.70905 43.1986 7.32818C42.7137 6.43381 41.4804 6.028 40.5626 5.53939C39.6724 5.06547 38.3775 4.76734 36.4042 4.22139C34.7071 3.75186 33.6242 4.19641 32.4758 4.22909C30.0061 4.29936 29.143 4.82281 28.177 5.08569C27.3087 5.32198 26.4495 5.7631 25.5489 6.12004C24.3846 6.58153 19.7453 7.52279 17.0985 7.73952C15.9289 7.83528 14.4968 7.64032 12.799 7.82527C11.1307 8.00701 11.9039 10.8216 11.6941 11.5249C11.3356 12.7268 11.1623 9.18621 10.7719 9.13682C8.83318 8.89156 8.40436 12.597 8.33373 13.0174C8.15054 14.1078 13.2928 11.4131 14.9819 10.6263C16.8364 9.76246 13.113 13.2235 13.0427 13.4644C12.745 14.4846 16.9307 11.6747 18.4045 10.5098C19.7301 9.46208 15.624 13.1806 15.6095 13.2865C15.1922 16.3475 21.7262 9.56106 23.3122 8.95119C23.948 8.70671 21.6503 11.7621 20.3382 13.4389C19.5627 14.4299 24.2128 10.5012 26.8999 8.96879C27.7712 8.47185 27.8028 8.8549 27.0811 9.69747C26.3593 10.54 24.9242 11.9098 24.0243 12.7395C22.8269 13.8436 25.3277 11.59 29.5322 8.04784C30.5011 7.23158 25.9012 12.8823 23.7328 15.4143C20.149 19.599 30.9845 11.0873 31.3361 11.1891C32.476 11.5192 28.9204 13.8312 28.0328 14.7046C24.6436 18.0398 33.2377 11.0296 33.487 10.967C35.2548 10.5232 31.2349 13.9251 31.0168 14.0341C29.1995 14.9426 34.2 11.6652 34.438 11.528C34.7009 11.3764 34.1514 12.3868 33.9158 12.7285C32.8632 14.2551 38.065 9.58461 38.7563 9.384C39.0624 9.29517 38.4024 10.4555 37.8423 11.049C37.624 11.2803 38.5749 9.92615 39.3202 9.38451C39.5791 9.19634 39.7433 9.44705 39.8913 9.40403C40.0393 9.361 40.2039 9.08384 40.1321 8.9121C39.0329 6.28121 32.1164 9.54274 30.8007 9.34234C30.5178 9.29925 30.3089 9.12997 30.3165 9.02493C30.3393 8.71192 33.3091 8.39944 36.9795 7.83554C38.1627 7.65376 37.9436 7.54827 37.1044 7.38447C36.2651 7.22068 34.8063 6.9671 34.361 6.84451C32.94 6.45337 37.7626 7.05755 38.4192 6.96655C38.7315 6.92325 35.79 6.72023 32.1429 6.84495C27.3637 7.00838 25.5159 7.12897 23.4674 7.36141C22.9813 7.41657 22.6075 7.63411 22.5159 7.75012C22.4243 7.86613 22.6376 7.93797 22.922 7.95058C24.5733 8.02382 26.3144 7.06665 28.3546 6.6536C29.3542 6.48769 30.9497 6.26467 31.8997 6.15728C32.8497 6.0499 33.106 6.06491 33.5211 6.05926" stroke="white" stroke-width="4" stroke-linecap="round"/>
<path d="M26.4233 2.47865C26.3362 2.44933 25.6897 2.43531 23.9189 2.59859C22.7435 2.70697 21.0311 3.08401 19.8823 3.37034C18.1784 3.79508 17.5302 4.22418 17.2487 4.3786C16.5869 4.74164 15.4946 5.36578 14.98 5.77507C14.805 5.91424 14.673 6.13206 14.6291 6.49284C14.5618 7.0464 14.7766 7.4802 14.9178 7.66953C15.3562 8.25733 16.6235 8.12436 17.6063 8.10173C17.8827 8.09537 18.2395 8.12861 19.1985 8.05743C20.9959 7.92403 22.4183 7.58723 22.9129 7.45521C23.5877 7.27511 24.487 7.08803 25.1271 6.94636C25.8893 6.77769 26.3003 6.7088 27.1274 6.41587C27.7056 6.21108 28.2165 6.02217 28.6238 5.78728C28.788 5.69262 28.9815 5.64296 29.1564 5.47232C29.5032 5.13384 29.4052 4.62104 29.298 3.92391C29.2348 3.51263 28.7821 3.3034 28.4659 3.13696C28.1368 2.96383 27.7681 2.94084 27.3219 2.97147C27.1026 2.98652 25.8427 3.18798 24.0092 3.55935C23.3252 3.69789 23.1497 3.77381 22.4794 3.97189C20.6553 4.51094 19.2055 4.95395 18.784 5.15939C18.5315 5.28245 18.3891 5.42461 18.2843 5.57507C18.2362 5.64423 18.2639 5.7345 18.3147 5.80128C18.3655 5.86806 18.4555 5.91774 18.5977 5.96105C18.7399 6.00437 18.9316 6.03982 20.2342 5.83793C21.5368 5.63603 23.9446 5.19571 25.2242 4.95302C26.5038 4.71032 26.5824 4.67859 26.6634 4.64589" stroke="#FFE749" stroke-width="4" stroke-linecap="round"/>
</svg>
