<svg width="50" height="47" viewBox="0 0 50 47" fill="none" xmlns="http://www.w3.org/2000/svg">
<path d="M13.0257 24.3412C11.8421 24.2849 9.10993 24.5084 7.80014 25.3048C6.72072 25.9612 5.19077 27.5168 4.15982 28.6578C3.28731 29.6234 3.4205 30.9857 3.36081 34.0223C3.3316 35.5086 3.98331 36.3886 4.52479 37.2993C5.07471 38.2242 6.197 38.9468 8.10116 39.9147C10.0647 40.9127 13.1348 40.0895 14.3551 39.6358C16.7941 38.7291 17.8521 38.1589 18.6512 37.4477C19.6454 36.5628 19.9601 34.8639 20.4428 32.5692C21.0294 29.78 20.4735 27.6976 20.3319 27.2439C19.9009 25.8625 18.0329 24.7983 16.9525 24.626C15.8475 24.4499 14.9631 24.2287 11.3629 24.2551C10.3269 24.2627 9.73243 24.9637 8.96667 25.5589C7.42569 26.7567 7.5682 30.7401 8.24697 34.1945C8.45814 35.2692 9.15768 35.8224 9.7239 36.1635C11.0916 36.9874 12.6778 35.0345 13.9586 33.9822C15.0189 33.1111 15.4116 31.7924 15.6956 31.0266C15.9494 30.3423 15.925 29.1813 15.5029 28.8036C13.7122 27.201 13.0291 33.4279 12.3205 33.7793C9.91359 34.9725 11.0934 29.3979 11.0081 29.9931C10.9791 30.3069 10.9791 30.6446 11.0354 30.9311C11.0917 31.2177 11.2042 31.4428 11.3202 31.6747" stroke="#AFECB2" stroke-width="6.72" stroke-linecap="round"/>
<path d="M30.7355 23.1925C28.6515 23.1925 22.9654 23.4176 20.9342 23.9574C19.5293 24.3308 19.4249 26.8763 19.1674 28.8683C18.9285 30.7155 19.3072 32.4532 19.6475 33.3903C20.0832 34.5904 21.3521 35.4105 22.2048 35.8684C23.1932 36.3991 24.1934 36.6657 25.892 36.8072C28.6999 37.0412 31.2966 36.1609 32.5177 34.8843C34.0095 33.3248 33.7474 31.5015 33.8335 30.3026C33.9398 28.8226 33.7508 26.8968 33.3236 25.6126C33.0049 24.6545 32.0487 23.7655 30.9393 23.0808C29.5281 22.2098 28.0716 22.2852 26.5341 22.1411C24.0501 21.9083 20.281 22.3364 19.482 23.0194C18.7169 23.6734 18.3436 24.7786 17.6631 26.3698C17.0751 27.7449 16.9792 29.1548 16.9775 31.9364C16.9765 33.6272 17.658 34.7283 18.1415 35.639C18.6673 36.6293 19.4761 37.3445 20.4703 37.9712C21.3012 38.495 22.5425 38.4837 27.3058 38.4573C29.3142 38.4461 30.2751 37.5218 31.2438 36.8669C32.0814 36.3006 33.2289 35.4207 34.1439 34.2542C35.0411 33.1103 35.1663 31.2184 35.2559 29.3953C35.3277 27.9323 33.3585 27.0639 31.8236 26.4065C30.1405 25.6855 27.3399 25.9212 24.8125 26.0901C23.2722 26.193 22.6653 27.2822 22.1835 28.1597C20.9183 30.4639 21.1849 32.2246 21.3819 33.1635C22.1626 36.8843 29.54 27.3453 29.6833 27.0878C30.9778 24.7608 27.0978 33.3076 27.2095 33.792C28.4025 33.0876 29.1409 32.0643 29.6798 31.6653C29.9374 31.6039 30.1625 31.829 30.565 32.0609" stroke="#AFECB2" stroke-width="6.72" stroke-linecap="round"/>
<path d="M40.6402 21.3307C36.6101 21.1602 34.6779 21.2727 33.5096 21.642C33.0298 21.7936 32.4573 22.18 31.8894 22.8324C31.0516 23.7947 31.2601 27.7228 31.4579 30.2793C31.5968 32.0743 32.3959 33.3781 32.963 34.4023C33.4701 35.318 34.6096 35.5986 36.1693 36.0813C37.7087 36.5577 39.1581 35.9994 39.8394 35.6592C40.8187 35.1702 41.602 34.0705 42.3431 32.9321C43.1212 31.7368 43.1404 30.148 43.1139 26.575C43.1079 25.764 42.8607 25.4307 42.4642 25.0879C40.5008 23.3905 37.584 23.1522 36.2094 22.8946C35.3103 22.7262 31.6899 22.6951 29.2178 23.4301C27.5243 23.9337 27.9072 26.9485 27.8773 29.9322C27.8602 31.6465 28.7565 32.5254 29.7772 33.8881C31.0961 35.6488 31.7683 36.3354 32.6773 36.7353C33.8892 37.2685 37.144 37.5326 39.7243 36.9673C41.7647 36.5202 42.8504 35.3769 44.0187 34.5796C45.1667 33.7961 45.7531 32.6482 46.2384 31.3128C47.005 29.2029 46.2136 25.6558 45.8717 24.6888C45.3615 23.2462 43.9419 22.47 42.72 21.9293C41.6444 21.4535 39.1803 21.6718 36.8378 22.5203C36.0031 22.8226 35.6397 23.9401 35.2986 24.9898C35.0241 25.8348 35.239 26.6143 35.3805 27.2385C35.4466 27.53 35.5783 27.7501 35.8052 27.7816C36.3806 27.8617 36.8864 27.189 37.1985 26.6219C37.7566 25.608 34.5619 33.0268 34.0468 35.4784C33.9516 35.9318 33.9889 36.2194 34.1577 36.0548C36.6449 33.6304 38.8767 30.3151 39.0754 30.0866C39.8797 29.1614 39.6169 32.9825 39.7294 33.1828C39.9527 33.5802 40.4679 32.3054 40.7237 31.7665C40.8107 31.5089 40.8107 31.2838 40.7263 31.0271C40.6419 30.7705 40.473 30.4891 39.958 29.6875" stroke="#AFECB2" stroke-width="6.72" stroke-linecap="round"/>
<path d="M16.8599 21.3468C17.1036 20.855 18.3118 19.7161 18.8802 19.3435C19.4585 18.9645 20.1214 18.7219 20.76 18.4563C21.6684 18.0785 22.3205 17.9767 23.294 17.8522C26.268 17.4717 28.0686 18.2939 28.6732 18.4898C29.7335 18.8333 31.0853 19.8544 31.6537 20.2808C32.2057 20.6948 32.7884 21.0956 33.5868 21.9291C33.8188 22.2665 33.9966 22.5518 34.1914 22.8349C34.2808 22.9776 34.351 23.1181 34.5299 23.3693" stroke="#AFECB2" stroke-width="6.72" stroke-linecap="round"/>
<path d="M18.8599 41.1045C19.1079 41.4579 19.4602 41.9539 20.0286 42.2568C20.5885 42.5551 21.2698 42.665 21.8382 42.7895C22.3959 42.9117 22.9729 42.9843 23.5414 43.0381C24.1548 43.0961 26.9604 43.2334 28.6508 43.1275C29.245 43.0903 29.7855 42.6671 30.4422 42.277C31.0288 41.8156 31.595 41.3195 32.0575 40.7873C32.1645 40.6446 32.2699 40.5041 32.4849 40.2529" stroke="#AFECB2" stroke-width="6.72" stroke-linecap="round"/>
<path d="M20.7598 27.9287V28.2167" stroke="#0D0D0D" stroke-width="2.5" stroke-linecap="round"/>
<path d="M27.96 27.7529V27.945" stroke="#0D0D0D" stroke-width="2.5" stroke-linecap="round"/>
<path d="M18.3599 35.2892C18.4424 35.0003 18.6501 34.6656 18.9415 34.3635C19.1232 34.1752 19.3181 34.1634 19.4948 34.184C19.9313 34.235 20.3588 34.6 20.725 34.7986C21.0503 34.9749 21.3395 35.2467 21.7254 35.2686C22.237 35.2976 22.7568 34.6025 23.2672 34.2485C23.7327 33.9256 24.3405 33.7881 24.8299 33.8191C25.3677 33.8531 25.6552 34.2872 26.093 34.5274C26.2769 34.6283 26.7579 34.6638 27.3933 34.6328C27.9136 34.6075 28.157 34.2059 28.8225 33.7797C29.7872 33.1618 30.4074 33.2252 30.8052 33.2978C30.9716 33.3703 31.1392 33.4541 31.2952 33.5476C31.3687 33.5999 31.4307 33.6618 31.6821 33.8507" stroke="#0D0D0D" stroke-width="2" stroke-linecap="round"/>
<path d="M18.6627 14.1974C16.2448 14.8379 15.6054 14.9788 14.6815 15.8829C13.4678 17.0707 13.3979 18.036 13.3605 18.7673C13.3442 19.0869 13.6445 19.3555 13.875 19.6218C14.4655 20.3038 15.9876 20.5297 16.7919 20.6199C18.222 20.7803 20.1529 20.9908 20.7955 21.2598C21.4633 21.5394 22.8515 22.306 25.6446 22.4709C27.1383 22.5591 27.8046 21.6719 28.7109 21.1205C29.7143 20.5101 30.3666 20.3183 34.1428 20.0178C36.8116 19.8055 36.701 17.3336 36.8985 16.4081C37.1122 15.4068 36.7405 14.5198 36.3856 14.1114C35.5383 13.1368 33.8957 12.9527 33.1121 12.8278C32.4417 12.7209 31.5835 12.7029 30.1808 12.6143C27.7087 12.4581 26.6368 12.8801 25.4129 13.0045C22.5525 13.2951 21.9399 13.6273 20.8729 13.6812C19.8934 13.7307 18.8442 14.2315 18.1492 14.4989C17.0158 14.9351 15.4624 15.9032 15.0701 16.3483C14.8806 16.5634 14.8913 16.9002 14.8731 17.2194C14.863 17.3982 14.9607 17.609 15.0674 17.7708C15.2682 18.075 15.6716 18.1823 16.0799 18.2004C16.8696 18.2355 18.8249 17.2995 20.9519 16.2288C21.2974 16.0549 21.4702 15.9779 21.6314 15.9064C21.7926 15.8349 21.9335 15.7644 21.8123 16.0452C20.8979 18.1639 19.7675 18.9285 19.624 19.0891C19.4293 19.3069 21.3549 18.225 23.5395 16.9467C25.324 15.9025 26.3806 15.0887 26.6678 15.1037C27.6052 15.1525 24.3684 17.4959 22.3946 19.2204C21.6436 19.8766 21.4424 20.1347 21.5273 20.1913C21.6121 20.2479 21.9996 20.107 23.2385 19.4003C24.4773 18.6936 26.5557 17.4254 27.7144 16.7017C28.8732 15.9779 29.0493 15.837 29.0344 15.923C28.9552 16.3783 27.4278 17.9912 25.6488 20.0899C25.016 20.8364 24.9971 20.9908 26.1063 20.0771C27.2154 19.1633 29.4699 17.1906 30.6137 16.3153C31.7575 15.4399 31.7223 15.7217 31.5808 16.0783C31.2598 16.8875 30.6217 17.7158 30.1942 18.2682C29.0748 19.7146 34.0686 14.7674 34.2997 14.7311C35.3237 14.5703 33.1484 17.6795 32.9312 18.1823C32.8194 18.4411 33.7793 17.0155 34.7043 16.0361C34.9971 15.726 35.0656 15.9374 35.0662 16.1338C35.0667 16.3302 35.0315 16.5416 34.9781 16.7209C34.9247 16.9002 34.8543 17.0411 34.7817 17.2931" stroke="#FBFFE5" stroke-width="3.5" stroke-linecap="round"/>
<path d="M19.3032 13.7702C19.5146 12.7134 19.9405 11.0417 20.6675 8.64678C21.9668 4.36623 22.3263 3.77425 22.7 2.67261C22.8362 2.27087 22.9679 1.99369 23.0741 1.85065C23.5272 1.24048 23.7141 3.59065 24.4773 6.03839C24.9705 7.62007 25.2085 8.39432 25.5645 9.51358C25.7786 10.2816 25.9216 10.9904 26.0988 11.6683C26.1351 11.8466 26.1351 12.0579 26.3486 12.3824" stroke="#C59163" stroke-width="3.5" stroke-linecap="round"/>
<path d="M19.8369 14.4103C20.2266 14.375 21.0773 14.1626 22.4293 13.8776C23.429 13.6278 24.0684 13.4858 24.6539 13.3791C24.9576 13.3428 25.2747 13.3428 25.6013 13.3428" stroke="#C59163" stroke-width="3.5" stroke-linecap="round"/>
<path d="M23.3597 6.51074C23.2188 8.06073 23.1462 9.91601 23.0758 11.5877C23.0053 12.2026 22.8644 12.3435 22.7037 12.4513C22.5431 12.5591 22.367 12.6296 21.8652 12.7021" stroke="#C59163" stroke-width="3.5" stroke-linecap="round"/>
<path d="M16.3926 15.6567C16.5402 15.7676 16.9844 15.9899 17.348 16.1576C17.7193 16.3289 18.1 16.4546 18.453 16.5017C18.8273 16.5516 19.1587 16.604 19.806 16.6502C21.6622 16.7829 22.1478 16.4936 22.7062 16.2797C23.0525 16.1469 23.3748 15.9732 23.7097 15.8152C24.091 15.6353 24.3968 15.5831 24.7406 15.4898C25.0628 15.4023 25.3999 15.3413 26.2525 15.3131C26.7941 15.2952 27.3502 15.2298 28.1103 15.1833C28.3665 15.1676 28.5026 15.0069 28.5589 14.9512C28.6506 14.8604 28.2257 14.969 28.1047 14.988C28.0141 15.0022 28.2056 14.7656 28.326 14.6728C28.4647 14.6168 28.6141 14.5795 28.7531 14.5241C28.8186 14.487 28.8737 14.4318 29.042 14.375" stroke="#FBFFE5" stroke-width="3.5" stroke-linecap="round"/>
<path d="M26.1396 15.2466C26.2534 15.2292 26.4643 15.1938 26.6712 15.1675C26.8969 15.1389 27.2457 15.1146 27.5115 15.0927C27.6597 15.0805 27.7847 15.0795 27.8201 15.062C27.9155 15.0146 27.6094 15.0705 27.5784 15.0837C27.4609 15.1338 27.8111 15.0267 27.8465 15.0005C27.8606 14.99 27.8122 14.9568 27.7768 14.9433C27.6369 14.89 27.469 15.0001 27.3281 15.0572C27.1823 15.1163 27.0028 15.141 26.9008 15.1629C26.7237 15.201 27.2563 15.0882 27.4281 15.04C27.5917 14.9942 27.7842 14.9388 27.9867 14.886C28.092 14.877 28.1894 14.8596 28.2815 14.8332C28.3301 14.8242 28.3824 14.8242 28.4626 14.7979" stroke="#FBFFE5" stroke-width="3.5" stroke-linecap="round"/>
</svg>
