<svg width="50" height="49" viewBox="0 0 50 49" fill="none" xmlns="http://www.w3.org/2000/svg">
<path d="M13.0257 26.5883C11.8421 26.532 9.10993 26.7554 7.80014 27.5519C6.72072 28.2082 5.19077 29.7639 4.15982 30.9048C3.28731 31.8704 3.4205 33.2328 3.36081 36.2694C3.3316 37.7556 3.98331 38.6357 4.52479 39.5464C5.07471 40.4713 6.197 41.1939 8.10116 42.1618C10.0647 43.1598 13.1348 42.3366 14.3551 41.8829C16.7941 40.9762 17.8521 40.406 18.6512 39.6948C19.6454 38.8098 19.9601 37.111 20.4428 34.8163C21.0294 32.027 20.4735 29.9446 20.3319 29.491C19.9009 28.1096 18.0329 27.0454 16.9525 26.8731C15.8475 26.6969 14.9631 26.4757 11.3629 26.5022C10.3269 26.5098 9.73243 27.2108 8.96667 27.806C7.42569 29.0038 7.5682 32.9872 8.24697 36.4416C8.45814 37.5163 9.15768 38.0695 9.7239 38.4106C11.0916 39.2345 12.6778 37.2816 13.9586 36.2293C15.0189 35.3582 15.4116 34.0395 15.6956 33.2737C15.9494 32.5894 15.925 31.4284 15.5029 31.0506C13.7122 29.4481 13.0291 35.675 12.3205 36.0263C9.91359 37.2196 11.0934 31.645 11.0081 32.2402C10.9791 32.554 10.9791 32.8917 11.0354 33.1782C11.0917 33.4647 11.2042 33.6899 11.3202 33.9218" stroke="#AFECB2" stroke-width="6.72" stroke-linecap="round"/>
<path d="M30.7355 25.4396C28.6515 25.4396 22.9654 25.6647 20.9342 26.2045C19.5293 26.5778 19.4249 29.1234 19.1674 31.1154C18.9285 32.9626 19.3072 34.7002 19.6475 35.6374C20.0832 36.8375 21.3521 37.6575 22.2048 38.1154C23.1932 38.6462 24.1934 38.9128 25.892 39.0543C28.6999 39.2883 31.2966 38.4079 32.5177 37.1314C34.0095 35.5719 33.7474 33.7486 33.8335 32.5497C33.9398 31.0697 33.7508 29.1438 33.3236 27.8596C33.0049 26.9016 32.0487 26.0126 30.9393 25.3279C29.5281 24.4568 28.0716 24.5323 26.5341 24.3882C24.0501 24.1553 20.281 24.5834 19.482 25.2665C18.7169 25.9205 18.3436 27.0257 17.6631 28.6169C17.0751 29.992 16.9792 31.4019 16.9775 34.1835C16.9765 35.8743 17.658 36.9753 18.1415 37.8861C18.6673 38.8764 19.4761 39.5915 20.4703 40.2183C21.3012 40.742 22.5425 40.7308 27.3058 40.7044C29.3142 40.6932 30.2751 39.7689 31.2438 39.114C32.0814 38.5477 33.2289 37.6678 34.1439 36.5012C35.0411 35.3574 35.1663 33.4655 35.2559 31.6424C35.3277 30.1793 33.3585 29.311 31.8236 28.6535C30.1405 27.9326 27.3399 28.1683 24.8125 28.3372C23.2722 28.44 22.6653 29.5293 22.1835 30.4067C20.9183 32.7109 21.1849 34.4717 21.3819 35.4106C22.1626 39.1314 29.54 29.5924 29.6833 29.3349C30.9778 27.0078 27.0978 35.5547 27.2095 36.039C28.4025 35.3347 29.1409 34.3114 29.6798 33.9123C29.9374 33.8509 30.1625 34.0761 30.565 34.308" stroke="#AFECB2" stroke-width="6.72" stroke-linecap="round"/>
<path d="M40.6402 23.5778C36.6101 23.4072 34.6779 23.5198 33.5096 23.889C33.0298 24.0407 32.4573 24.4271 31.8894 25.0794C31.0516 26.0418 31.2601 29.9699 31.4579 32.5264C31.5968 34.3214 32.3959 35.6252 32.963 36.6493C33.4701 37.5651 34.6096 37.8457 36.1693 38.3284C37.7087 38.8047 39.1581 38.2465 39.8394 37.9063C40.8187 37.4172 41.602 36.3176 42.3431 35.1792C43.1212 33.9839 43.1404 32.3951 43.1139 28.8221C43.1079 28.011 42.8607 27.6777 42.4642 27.3349C40.5008 25.6376 37.584 25.3992 36.2094 25.1417C35.3103 24.9733 31.6899 24.9422 29.2178 25.6772C27.5243 26.1808 27.9072 29.1956 27.8773 32.1793C27.8602 33.8936 28.7565 34.7725 29.7772 36.1351C31.0961 37.8958 31.7683 38.5825 32.6773 38.9824C33.8892 39.5156 37.144 39.7797 39.7243 39.2143C41.7647 38.7673 42.8504 37.624 44.0187 36.8267C45.1667 36.0432 45.7531 34.8953 46.2384 33.5599C47.005 31.45 46.2136 27.9028 45.8717 26.9359C45.3615 25.4932 43.9419 24.717 42.72 24.1764C41.6444 23.7005 39.1803 23.9189 36.8378 24.7673C36.0031 25.0697 35.6397 26.1871 35.2986 27.2369C35.0241 28.0818 35.239 28.8613 35.3805 29.4855C35.4466 29.7771 35.5783 29.9972 35.8052 30.0287C36.3806 30.1087 36.8864 29.4361 37.1985 28.869C37.7566 27.8551 34.5619 35.2739 34.0468 37.7255C33.9516 38.1788 33.9889 38.4665 34.1577 38.3019C36.6449 35.8775 38.8767 32.5622 39.0754 32.3337C39.8797 31.4085 39.6169 35.2295 39.7294 35.4299C39.9527 35.8273 40.4679 34.5525 40.7237 34.0135C40.8107 33.756 40.8107 33.5309 40.7263 33.2742C40.6419 33.0175 40.473 32.7361 39.958 31.9346" stroke="#AFECB2" stroke-width="6.72" stroke-linecap="round"/>
<path d="M16.8599 23.5939C17.1036 23.1021 18.3118 21.9631 18.8802 21.5906C19.4585 21.2115 20.1214 20.9689 20.76 20.7034C21.6684 20.3256 22.3205 20.2238 23.294 20.0993C26.268 19.7188 28.0686 20.541 28.6732 20.7369C29.7335 21.0804 31.0853 22.1015 31.6537 22.5278C32.2057 22.9418 32.7884 23.3427 33.5868 24.1761C33.8188 24.5136 33.9966 24.7989 34.1914 25.082C34.2808 25.2246 34.351 25.3651 34.5299 25.6164" stroke="#AFECB2" stroke-width="6.72" stroke-linecap="round"/>
<path d="M18.8599 43.3516C19.1079 43.705 19.4602 44.201 20.0286 44.5038C20.5885 44.8021 21.2698 44.9121 21.8382 45.0366C22.3959 45.1588 22.9729 45.2314 23.5414 45.2852C24.1548 45.3432 26.9604 45.4805 28.6508 45.3746C29.245 45.3373 29.7855 44.9142 30.4422 44.5241C31.0288 44.0626 31.595 43.5666 32.0575 43.0344C32.1645 42.8917 32.2699 42.7512 32.4849 42.5" stroke="#AFECB2" stroke-width="6.72" stroke-linecap="round"/>
<path d="M20.7598 30.1758V30.4638" stroke="#0D0D0D" stroke-width="2.5" stroke-linecap="round"/>
<path d="M27.96 30V30.192" stroke="#0D0D0D" stroke-width="2.5" stroke-linecap="round"/>
<path d="M18.3599 37.5363C18.4424 37.2473 18.6501 36.9127 18.9415 36.6106C19.1232 36.4223 19.3181 36.4105 19.4948 36.4311C19.9313 36.4821 20.3588 36.847 20.725 37.0456C21.0503 37.222 21.3395 37.4938 21.7254 37.5157C22.237 37.5447 22.7568 36.8495 23.2672 36.4955C23.7327 36.1726 24.3405 36.0352 24.8299 36.0662C25.3677 36.1002 25.6552 36.5343 26.093 36.7745C26.2769 36.8754 26.7579 36.9108 27.3933 36.8799C27.9136 36.8545 28.157 36.453 28.8225 36.0268C29.7872 35.4088 30.4074 35.4723 30.8052 35.5448C30.9716 35.6174 31.1392 35.7012 31.2952 35.7947C31.3687 35.8469 31.4307 35.9089 31.6821 36.0977" stroke="#0D0D0D" stroke-width="2" stroke-linecap="round"/>
<path d="M16.3273 10.6448C15.8938 11.6446 15.6387 12.3894 15.4407 13.096C15.2526 13.7677 15.0456 15.4231 14.9142 16.7159C14.7484 18.3476 14.6131 19.0542 14.6461 19.7991C14.6752 20.4569 14.6253 21.1611 14.6826 21.7743C14.7522 22.5199 14.8185 23.5838 15.1764 24.2781C15.5748 25.0509 17.0876 24.9241 18.6233 24.7404C18.9398 24.7026 19.1293 24.7007 20.6556 24.4539C22.1819 24.2072 25.0391 23.7148 26.6212 23.458C29.5647 22.9801 31.5559 22.6243 31.7563 22.399C32.0046 22.1198 31.9659 21.6602 31.9813 21.196C32.0022 20.5658 31.8283 18.8204 31.4048 16.5467C31.0512 14.648 30.4861 13.9911 30.2285 13.4282C29.9136 12.7401 29.3459 11.8255 28.9666 11.2011C28.4365 10.3288 27.7444 9.57453 27.2112 9.17031C26.6917 8.77644 25.4105 8.79281 23.4858 8.98071C20.7282 9.24993 18.9542 9.74444 18.5446 9.86295C18.0376 9.96662 17.5737 10.0782 17.2436 10.1988C17.0926 10.257 16.975 10.3089 16.7608 10.3784" stroke="#FFE749" stroke-width="3.2" stroke-linecap="round"/>
<path d="M19.4642 10.4883C18.0433 13.5411 17.5366 15.4124 17.1208 16.6239C16.6002 18.1408 16.6319 18.7069 16.3769 21.2989C16.3133 21.9454 16.4219 22.3169 16.577 22.3909C16.9651 22.5758 17.5903 21.5203 18.5281 20.0395C19.1491 19.0591 19.8856 17.5058 20.4749 16.2443C22.0068 12.9649 22.2718 12.1499 22.6059 11.4826C22.7466 11.2018 22.9238 10.9159 23.1367 10.6717C23.2351 10.5589 23.3655 10.5196 23.4526 10.6465C24.0311 11.4897 23.3139 12.6011 22.5957 13.7928C20.8232 16.7335 20.328 17.5254 20.0068 18.0783C19.5422 18.878 18.8617 20.1421 18.5163 20.9221C17.9897 22.1112 17.9888 22.6921 18.0671 22.9657C18.106 23.1016 18.3191 23.1461 18.4833 23.1667C18.7986 23.2063 19.2559 23.0192 20.0497 22.5492C21.3565 21.7756 22.5563 20.3145 23.7797 18.8138C24.4293 18.017 24.9862 17.0313 25.5176 16.0094C27.2008 12.7721 27.1497 12.0743 27.3327 11.3726C27.405 11.0954 27.2581 10.656 27.1256 10.5297C26.3364 9.77767 25.4876 12.4201 24.9728 13.3213C23.9828 15.0544 23.1831 15.9137 22.6458 16.6956C21.6614 18.1282 21.3242 19.7791 21.2238 20.6956C21.1922 20.9842 21.2521 21.2353 21.4155 21.4463C21.834 21.9868 23.1216 21.5534 24.1216 21.0312C24.5102 20.8282 25.5161 19.5216 26.9194 17.4766C28.3257 15.4271 28.6771 14.2728 29.0257 13.8734C30.0894 12.6547 29.7543 18.2649 29.1999 19.0339C28.7864 19.6075 28.1892 19.7521 27.497 20.4615C27.339 20.6234 27.2724 20.7403 27.3051 20.8468C27.3378 20.9534 27.4819 21.0551 27.6202 21.1122C27.8741 21.2172 28.7254 21.067 29.2865 20.9545C31.6911 20.4723 26.1289 21.5145 25.2276 21.8448C24.8647 21.9777 24.5617 22.0722 24.4238 22.1118C24.2261 22.1685 25.0035 22.0603 26.25 21.7501C29.2516 21.0031 31.2253 20.5096 31.09 20.278C30.9408 20.0224 30.0594 19.0895 28.6587 17.5287C27.4585 16.1913 26.2061 15.4656 25.2754 14.8768C23.9269 13.9382 23.4079 13.7084 23.0711 13.5115C22.909 13.411 22.7649 13.3092 22.5234 13.2205" stroke="#FFE749" stroke-width="3.2" stroke-linecap="round"/>
<path d="M21.0536 10.792C20.1311 12.0988 19.4019 13.2157 18.9979 13.9783C18.4439 15.024 18.1845 16.2548 18.105 16.6119C18.0807 16.7213 18.2796 16.2074 18.702 15.4719C19.0511 14.8639 19.7108 13.8006 20.11 13.1174C20.6374 12.1686 20.8195 11.782 20.9487 11.5669C21.0278 11.4647 21.1344 11.3768 21.3377 11.2173" stroke="#FFE749" stroke-width="3.2" stroke-linecap="round"/>
<path d="M17.1077 8.99519C16.6889 9.20702 16.3265 9.55036 16.0533 9.85222C15.8227 10.1071 15.7277 10.4609 15.6395 10.8191C15.6029 10.9679 15.6513 11.2466 15.7438 11.5816C15.8629 12.0132 16.4147 12.1173 17.191 12.2997C17.6949 12.4181 17.9899 12.2859 18.815 12.1701C19.5378 12.0686 20.87 11.8249 21.5896 11.6921C22.5659 11.5121 23.1953 11.3187 23.6839 11.1821C24.054 11.0786 24.5219 10.9499 24.8166 10.8725C25.1485 10.7854 25.6087 10.6393 25.9687 10.5248C26.3106 10.4161 26.7064 10.2752 27.007 10.1788C27.2773 10.0922 27.5527 9.88376 27.807 9.67263C27.9201 9.57869 27.907 9.27939 27.827 8.91587C27.7425 8.53205 27.4273 8.32444 27.139 8.18046C26.8643 8.04328 26.482 8.13533 26.1371 8.12443C25.8428 8.11512 25.5593 8.08356 25.1541 8.12677C24.8294 8.16141 24.4755 8.11224 24.0104 8.16578C23.6969 8.20187 23.3831 8.1951 22.1875 8.37454C21.8412 8.42651 21.6139 8.4294 21.357 8.46497C21.1328 8.49601 20.1286 8.63268 18.74 8.88067C18.0218 9.00894 17.7052 9.19049 17.3779 9.28219C17.3007 9.30385 17.2418 9.35782 17.2127 9.34599C17.1835 9.33415 17.1887 9.26369 17.2208 9.19623C17.3587 8.90675 17.6829 8.7738 17.9949 8.59671C18.3206 8.41186 18.6508 8.37829 20.9364 7.97517C21.6869 7.84281 22.1484 7.87987 22.8812 7.8068C23.3176 7.76328 23.8339 7.78332 24.2203 7.76915C24.5699 7.75633 24.9853 7.72506 25.2704 7.74629C25.5554 7.76751 25.8394 7.78865 26.1186 7.77584C26.4209 7.76198 26.7024 7.90343 26.9892 7.98547C27.2723 8.06643 27.4481 8.35352 27.6744 8.59594C27.7304 8.65599 27.7746 8.71885 27.8038 8.78443C27.833 8.85 27.8447 8.91756 27.7945 8.97944C27.5271 9.30893 26.9446 9.28452 25.5017 9.55979C25.2078 9.61587 25.1438 9.64757 24.2465 9.84594C23.3493 10.0443 21.6214 10.4117 20.6905 10.6166C19.678 10.853 19.4083 10.9174 19.0945 10.9802C18.9664 11.011 18.9018 11.0395 18.8352 11.0689" stroke="#BA5801" stroke-width="3.2" stroke-linecap="round"/>
<path d="M20.6462 6.59395C20.7219 6.63307 21.0473 6.68293 21.1423 6.62306C21.1893 6.59348 21.1553 6.4904 21.1126 6.44428C21.0281 6.35309 20.8563 6.38225 20.7187 6.39702C20.649 6.40449 20.5898 6.46244 20.5667 6.53651C20.5436 6.61057 20.5611 6.7119 20.5998 6.78507C20.6385 6.85824 20.6979 6.90017 20.8129 6.90722C20.928 6.91427 21.0969 6.88517 21.2118 6.83058C21.3268 6.77598 21.3827 6.69679 21.4141 6.62075C21.4455 6.54472 21.4508 6.47426 21.4392 6.40564C21.4277 6.33701 21.3991 6.27237 21.3492 6.23644C21.2993 6.20052 21.2288 6.19527 21.125 6.20421C21.0211 6.21315 20.886 6.23644 20.6533 6.32924" stroke="#FF0000" stroke-width="3.2" stroke-linecap="round"/>
<path d="M20.824 5.17934C20.8112 4.9033 20.8122 4.60328 20.8927 4.1088C21.1037 3.26142 21.3351 2.54596 21.5651 2.10372C21.7059 1.85074 21.8958 1.53977 22.2273 1.09056" stroke="#FF0000" stroke-width="0.8" stroke-linecap="round"/>
</svg>
