<svg width="50" height="47" viewBox="0 0 50 47" fill="none" xmlns="http://www.w3.org/2000/svg">
<path d="M13.0257 24.5883C11.8421 24.532 9.10993 24.7554 7.80014 25.5519C6.72072 26.2082 5.19077 27.7639 4.15982 28.9048C3.28731 29.8704 3.4205 31.2328 3.36081 34.2694C3.3316 35.7556 3.98331 36.6357 4.52479 37.5464C5.07471 38.4713 6.197 39.1939 8.10116 40.1618C10.0647 41.1598 13.1348 40.3366 14.3551 39.8829C16.7941 38.9762 17.8521 38.406 18.6512 37.6948C19.6454 36.8098 19.9601 35.111 20.4428 32.8163C21.0294 30.027 20.4735 27.9446 20.3319 27.491C19.9009 26.1096 18.0329 25.0454 16.9525 24.8731C15.8475 24.6969 14.9631 24.4757 11.3629 24.5022C10.3269 24.5098 9.73243 25.2108 8.96667 25.806C7.42569 27.0038 7.5682 30.9872 8.24697 34.4416C8.45814 35.5163 9.15768 36.0695 9.7239 36.4106C11.0916 37.2345 12.6778 35.2816 13.9586 34.2293C15.0189 33.3582 15.4116 32.0395 15.6956 31.2737C15.9494 30.5894 15.925 29.4284 15.5029 29.0506C13.7122 27.4481 13.0291 33.675 12.3205 34.0263C9.91359 35.2196 11.0934 29.645 11.0081 30.2402C10.9791 30.554 10.9791 30.8917 11.0354 31.1782C11.0917 31.4647 11.2042 31.6899 11.3202 31.9218" stroke="#AFECB2" stroke-width="6.72" stroke-linecap="round"/>
<path d="M30.7355 23.4396C28.6515 23.4396 22.9654 23.6647 20.9342 24.2045C19.5293 24.5778 19.4249 27.1234 19.1674 29.1154C18.9285 30.9626 19.3072 32.7002 19.6475 33.6374C20.0832 34.8375 21.3521 35.6575 22.2048 36.1154C23.1932 36.6462 24.1934 36.9128 25.892 37.0543C28.6999 37.2883 31.2966 36.4079 32.5177 35.1314C34.0095 33.5719 33.7474 31.7486 33.8335 30.5497C33.9398 29.0697 33.7508 27.1438 33.3236 25.8596C33.0049 24.9016 32.0487 24.0126 30.9393 23.3279C29.5281 22.4568 28.0716 22.5323 26.5341 22.3882C24.0501 22.1553 20.281 22.5834 19.482 23.2665C18.7169 23.9205 18.3436 25.0257 17.6631 26.6169C17.0751 27.992 16.9792 29.4019 16.9775 32.1835C16.9765 33.8743 17.658 34.9753 18.1415 35.8861C18.6673 36.8764 19.4761 37.5915 20.4703 38.2183C21.3012 38.742 22.5425 38.7308 27.3058 38.7044C29.3142 38.6932 30.2751 37.7689 31.2438 37.114C32.0814 36.5477 33.2289 35.6678 34.1439 34.5012C35.0411 33.3574 35.1663 31.4655 35.2559 29.6424C35.3277 28.1793 33.3585 27.311 31.8236 26.6535C30.1405 25.9326 27.3399 26.1683 24.8125 26.3372C23.2722 26.44 22.6653 27.5293 22.1835 28.4067C20.9183 30.7109 21.1849 32.4717 21.3819 33.4106C22.1626 37.1314 29.54 27.5924 29.6833 27.3349C30.9778 25.0078 27.0978 33.5547 27.2095 34.039C28.4025 33.3347 29.1409 32.3114 29.6798 31.9123C29.9374 31.8509 30.1625 32.0761 30.565 32.308" stroke="#AFECB2" stroke-width="6.72" stroke-linecap="round"/>
<path d="M40.6402 21.5778C36.6101 21.4072 34.6779 21.5198 33.5096 21.889C33.0298 22.0407 32.4573 22.4271 31.8894 23.0794C31.0516 24.0418 31.2601 27.9699 31.4579 30.5264C31.5968 32.3214 32.3959 33.6252 32.963 34.6493C33.4701 35.5651 34.6096 35.8457 36.1693 36.3284C37.7087 36.8047 39.1581 36.2465 39.8394 35.9063C40.8187 35.4172 41.602 34.3176 42.3431 33.1792C43.1212 31.9839 43.1404 30.3951 43.1139 26.8221C43.1079 26.011 42.8607 25.6777 42.4642 25.3349C40.5008 23.6376 37.584 23.3992 36.2094 23.1417C35.3103 22.9733 31.6899 22.9422 29.2178 23.6772C27.5243 24.1808 27.9072 27.1956 27.8773 30.1793C27.8602 31.8936 28.7565 32.7725 29.7772 34.1351C31.0961 35.8958 31.7683 36.5825 32.6773 36.9824C33.8892 37.5156 37.144 37.7797 39.7243 37.2143C41.7647 36.7673 42.8504 35.624 44.0187 34.8267C45.1667 34.0432 45.7531 32.8953 46.2384 31.5599C47.005 29.45 46.2136 25.9028 45.8717 24.9359C45.3615 23.4932 43.9419 22.717 42.72 22.1764C41.6444 21.7005 39.1803 21.9189 36.8378 22.7673C36.0031 23.0697 35.6397 24.1871 35.2986 25.2369C35.0241 26.0818 35.239 26.8613 35.3805 27.4855C35.4466 27.7771 35.5783 27.9972 35.8052 28.0287C36.3806 28.1087 36.8864 27.4361 37.1985 26.869C37.7566 25.8551 34.5619 33.2739 34.0468 35.7255C33.9516 36.1788 33.9889 36.4665 34.1577 36.3019C36.6449 33.8775 38.8767 30.5622 39.0754 30.3337C39.8797 29.4085 39.6169 33.2295 39.7294 33.4299C39.9527 33.8273 40.4679 32.5525 40.7237 32.0135C40.8107 31.756 40.8107 31.5309 40.7263 31.2742C40.6419 31.0175 40.473 30.7361 39.958 29.9346" stroke="#AFECB2" stroke-width="6.72" stroke-linecap="round"/>
<path d="M16.8599 21.5939C17.1036 21.1021 18.3118 19.9631 18.8802 19.5906C19.4585 19.2115 20.1214 18.9689 20.76 18.7034C21.6684 18.3256 22.3205 18.2238 23.294 18.0993C26.268 17.7188 28.0686 18.541 28.6732 18.7369C29.7335 19.0804 31.0853 20.1015 31.6537 20.5278C32.2057 20.9418 32.7884 21.3427 33.5868 22.1761C33.8188 22.5136 33.9966 22.7989 34.1914 23.082C34.2808 23.2246 34.351 23.3651 34.5299 23.6164" stroke="#AFECB2" stroke-width="6.72" stroke-linecap="round"/>
<path d="M18.8599 41.3516C19.1079 41.705 19.4602 42.201 20.0286 42.5038C20.5885 42.8021 21.2698 42.9121 21.8382 43.0366C22.3959 43.1588 22.9729 43.2314 23.5414 43.2852C24.1548 43.3432 26.9604 43.4805 28.6508 43.3746C29.245 43.3373 29.7855 42.9142 30.4422 42.5241C31.0288 42.0626 31.595 41.5666 32.0575 41.0344C32.1645 40.8917 32.2699 40.7512 32.4849 40.5" stroke="#AFECB2" stroke-width="6.72" stroke-linecap="round"/>
<path d="M20.7598 28.1758V28.4638" stroke="#0D0D0D" stroke-width="2.5" stroke-linecap="round"/>
<path d="M27.96 28V28.192" stroke="#0D0D0D" stroke-width="2.5" stroke-linecap="round"/>
<path d="M18.3599 35.5363C18.4424 35.2473 18.6501 34.9127 18.9415 34.6106C19.1232 34.4223 19.3181 34.4105 19.4948 34.4311C19.9313 34.4821 20.3588 34.847 20.725 35.0456C21.0503 35.222 21.3395 35.4938 21.7254 35.5157C22.237 35.5447 22.7568 34.8495 23.2672 34.4955C23.7327 34.1726 24.3405 34.0352 24.8299 34.0662C25.3677 34.1002 25.6552 34.5343 26.093 34.7745C26.2769 34.8754 26.7579 34.9108 27.3933 34.8799C27.9136 34.8545 28.157 34.453 28.8225 34.0268C29.7872 33.4088 30.4074 33.4723 30.8052 33.5448C30.9716 33.6174 31.1392 33.7012 31.2952 33.7947C31.3687 33.8469 31.4307 33.9089 31.6821 34.0977" stroke="#0D0D0D" stroke-width="2" stroke-linecap="round"/>
<path d="M15.9604 7.98764C15.5776 8.89061 15.3534 9.56272 15.1805 10.2001C15.0161 10.806 14.842 12.2973 14.7332 13.4618C14.5959 14.9314 14.4793 15.5684 14.5145 16.2386C14.5455 16.8303 14.5058 17.4644 14.5618 18.0159C14.6299 18.6864 14.6974 19.6434 15.0246 20.2656C15.3888 20.9582 16.7493 20.833 18.1301 20.6564C18.4146 20.6201 18.5852 20.6169 19.957 20.3837C21.3288 20.1504 23.8966 19.6863 25.3185 19.4436C27.9641 18.992 29.7535 18.6571 29.9322 18.4529C30.1536 18.1998 30.1154 17.7865 30.1259 17.3686C30.14 16.8013 29.9708 15.2318 29.573 13.1886C29.2408 11.4824 28.7274 10.8954 28.4914 10.3907C28.203 9.77371 27.6854 8.95475 27.3394 8.39562C26.856 7.61446 26.2276 6.94069 25.7448 6.58082C25.2743 6.23015 24.1214 6.25428 22.3907 6.4375C19.9108 6.70001 18.3179 7.15806 17.9502 7.26772C17.4947 7.36474 17.078 7.46856 16.7818 7.57955C16.6463 7.63298 16.5408 7.68055 16.3485 7.74469" stroke="#FEAFB0" stroke-width="2.88" stroke-linecap="round"/>
<path d="M18.7819 7.82318C17.5255 10.581 17.0832 12.2689 16.7179 13.3622C16.2606 14.7311 16.2932 15.2404 16.0827 17.5751C16.0302 18.1573 16.1307 18.4909 16.2708 18.5563C16.6215 18.7199 17.1764 17.7653 18.0095 16.4258C18.5612 15.5389 19.2126 14.1356 19.7337 12.996C21.0883 10.0333 21.3208 9.29798 21.6167 8.695C21.7412 8.44119 21.8986 8.18265 22.0884 7.96128C22.1761 7.85903 22.2932 7.82275 22.3725 7.9363C22.8994 8.69091 22.2621 9.69639 21.6244 10.7742C20.0508 13.4337 19.6109 14.15 19.3259 14.65C18.9136 15.373 18.3105 16.5158 18.0054 17.2202C17.5402 18.2943 17.5436 18.817 17.616 19.0627C17.652 19.1847 17.8442 19.2232 17.9921 19.2405C18.2761 19.2738 18.6863 19.1021 19.3973 18.6733C20.5677 17.9675 21.6368 16.6438 22.7268 15.2842C23.3056 14.5624 23.7996 13.6712 24.2703 12.7476C25.7614 9.82182 25.7103 9.19412 25.8698 8.56134C25.9329 8.31127 25.7974 7.91691 25.6773 7.80427C24.9615 7.13323 24.217 9.51759 23.7603 10.3324C22.882 11.8994 22.1686 12.6786 21.6908 13.3862C20.8153 14.6827 20.524 16.171 20.4403 16.9965C20.414 17.2565 20.4698 17.482 20.6183 17.6707C20.999 18.1541 22.1546 17.7546 23.0507 17.2773C23.399 17.0918 24.2946 15.9085 25.5426 14.0578C26.7933 12.2029 27.101 11.1616 27.4118 10.7995C28.3602 9.69498 28.0997 14.7465 27.6065 15.4426C27.2385 15.9618 26.7021 16.0964 26.0844 16.7398C25.9433 16.8867 25.8842 16.9924 25.9145 17.088C25.9447 17.1837 26.0751 17.2742 26.2 17.3246C26.4293 17.4172 27.1943 17.2758 27.6984 17.1704C29.859 16.7188 24.8608 17.6975 24.0521 18.0014C23.7265 18.1237 23.4545 18.2109 23.3307 18.2476C23.1532 18.3001 23.852 18.197 24.9715 17.9086C27.6674 17.2144 29.4401 16.7558 29.3166 16.5483C29.1804 16.3194 28.3803 15.4863 27.1083 14.0919C26.0184 12.897 24.8859 12.2531 24.044 11.7301C22.8235 10.8953 22.3548 10.6923 22.0502 10.5175C21.9036 10.4282 21.7732 10.3377 21.5551 10.2596" stroke="#FEAFB0" stroke-width="2.88" stroke-linecap="round"/>
<path d="M20.2148 8.08497C19.3941 9.26777 18.746 10.2783 18.388 10.9676C17.8971 11.9128 17.6727 13.0224 17.6038 13.3443C17.5827 13.4429 17.7579 12.9789 18.1327 12.314C18.4424 11.7642 19.0284 10.8025 19.3826 10.1846C19.8503 9.32686 20.0113 8.97762 20.126 8.78306C20.1965 8.69053 20.2917 8.61062 20.4736 8.46566" stroke="#FEAFB0" stroke-width="2.88" stroke-linecap="round"/>
<path d="M16.6504 6.49692C16.2751 6.69063 15.9514 7.00228 15.7079 7.27595C15.5022 7.50705 15.4192 7.82611 15.3425 8.14918C15.3106 8.28336 15.3562 8.5338 15.4419 8.83463C15.5524 9.22215 16.0497 9.31184 16.7497 9.4703C17.204 9.57316 17.4686 9.45199 18.2102 9.34169C18.8601 9.24505 20.0572 9.01596 20.7038 8.89124C21.5811 8.72205 22.1461 8.5434 22.5849 8.41684C22.9172 8.321 23.3373 8.20177 23.602 8.12995C23.9001 8.04905 24.3132 7.91425 24.6363 7.80859C24.9432 7.70823 25.2984 7.5785 25.5682 7.48959C25.8109 7.40966 26.0572 7.22002 26.2844 7.02815C26.3856 6.94277 26.3716 6.6735 26.2969 6.34693C26.218 6.00213 25.9329 5.8176 25.6724 5.69013C25.4242 5.56869 25.0807 5.65434 24.7702 5.64705C24.5053 5.64084 24.25 5.61451 23.8856 5.65637C23.5936 5.68992 23.2748 5.64827 22.8566 5.69986C22.5747 5.73464 22.2923 5.73085 21.2176 5.90111C20.9063 5.95042 20.7017 5.95468 20.4708 5.98858C20.2693 6.01816 19.3665 6.14852 18.1187 6.38188C17.4732 6.50259 17.1896 6.6683 16.8958 6.75323C16.8264 6.77329 16.7738 6.82229 16.7475 6.81186C16.7212 6.80142 16.7254 6.73796 16.7538 6.67702C16.8757 6.41549 17.1665 6.29346 17.446 6.1318C17.7378 5.96305 18.0347 5.93041 20.0887 5.55086C20.7631 5.42624 21.1787 5.4562 21.8377 5.38507C22.2302 5.34271 22.6949 5.35695 23.0426 5.34137C23.3571 5.32727 23.7307 5.29608 23.9874 5.31309C24.2442 5.3301 24.4999 5.34705 24.7511 5.33347C25.023 5.31878 25.2774 5.44401 25.5361 5.51575C25.7915 5.58653 25.9518 5.84362 26.1572 6.06013C26.2081 6.11376 26.2483 6.17001 26.2751 6.22881C26.3019 6.28762 26.3128 6.34833 26.2681 6.40438C26.0299 6.70288 25.5055 6.68518 24.209 6.9435C23.9448 6.99612 23.8875 7.02512 23.0814 7.21023C22.2754 7.39533 20.723 7.7386 19.8867 7.92988C18.9773 8.15006 18.735 8.21 18.4531 8.2688C18.3381 8.29742 18.2801 8.32357 18.2204 8.35051" stroke="#FFFAF5" stroke-width="2.88" stroke-linecap="round"/>
<path d="M13.73 21.9141L13.7571 22.0641" stroke="#FFFAF5" stroke-width="4.32" stroke-linecap="round"/>
<path d="M17.3726 21.4876L17.1881 21.7534" stroke="#FFFAF5" stroke-width="4.32" stroke-linecap="round"/>
<path d="M21.1654 21.0353L21.1039 21.1239" stroke="#FFFAF5" stroke-width="4.32" stroke-linecap="round"/>
<path d="M25.0807 20.4045L24.9442 20.5067" stroke="#FFFAF5" stroke-width="4.32" stroke-linecap="round"/>
<path d="M28.5874 19.2285L28.6281 19.4536" stroke="#FFFAF5" stroke-width="4.32" stroke-linecap="round"/>
<path d="M31.8145 18.6455L31.828 18.7205" stroke="#FFFAF5" stroke-width="4.32" stroke-linecap="round"/>
<path d="M19.4699 1.62198C19.1152 2.22774 18.8878 2.68031 18.5225 3.44375C18.385 3.73093 18.3148 3.94777 18.3425 4.31511C18.3945 5.00681 18.6777 5.53505 19.0364 5.74066C19.8439 6.20347 20.3676 6.03164 20.8036 5.87612C21.2011 5.73434 21.2416 5.28088 21.2464 5.02235C21.2583 4.38303 21.0327 3.69211 20.8477 3.31175C20.7246 3.12788 20.5832 2.92018 20.453 2.69886C20.3946 2.5924 20.3519 2.49782 20.1172 2.20239" stroke="#FC5B44" stroke-width="2.88" stroke-linecap="round"/>
<path d="M20.1323 2.41211C20.3252 2.72027 20.4758 2.97266 20.5693 3.15457C20.6115 3.24283 20.6431 3.32287 20.6714 3.43054C20.6997 3.53821 20.7237 3.67108 20.7484 3.80797" stroke="#FFFAF5" stroke-width="0.72" stroke-linecap="round"/>
<path d="M21.1309 5.3493L21.0806 5.3584" stroke="#FFFAF5" stroke-width="0.72" stroke-linecap="round"/>
<path d="M15.3223 13.4707L15.333 13.5301" stroke="#FC5B44" stroke-width="0.72" stroke-linecap="round"/>
<path d="M20.3895 14.7012L20.3301 14.7119" stroke="#FC5B44" stroke-width="0.72" stroke-linecap="round"/>
<path d="M24.2256 11.4941L24.2363 11.5535" stroke="#FC5B44" stroke-width="0.72" stroke-linecap="round"/>
<path d="M28.9734 13.334L28.9141 13.3447" stroke="#FC5B44" stroke-width="0.72" stroke-linecap="round"/>
<path d="M14.8965 17.9023L14.9072 17.9617" stroke="#FC5B44" stroke-width="0.72" stroke-linecap="round"/>
<path d="M24.3442 16.5625L24.355 16.6219" stroke="#FC5B44" stroke-width="0.72" stroke-linecap="round"/>
</svg>
