<svg width="50" height="44" viewBox="0 0 50 44" fill="none" xmlns="http://www.w3.org/2000/svg">
<path d="M13.0257 21.5883C11.8421 21.532 9.10993 21.7554 7.80014 22.5519C6.72072 23.2082 5.19077 24.7639 4.15982 25.9048C3.28731 26.8704 3.4205 28.2328 3.36081 31.2694C3.3316 32.7556 3.98331 33.6357 4.52479 34.5464C5.07471 35.4713 6.197 36.1939 8.10116 37.1618C10.0647 38.1598 13.1348 37.3366 14.3551 36.8829C16.7941 35.9762 17.8521 35.406 18.6512 34.6948C19.6454 33.8098 19.9601 32.111 20.4428 29.8163C21.0294 27.027 20.4735 24.9446 20.3319 24.491C19.9009 23.1096 18.0329 22.0454 16.9525 21.8731C15.8475 21.6969 14.9631 21.4757 11.3629 21.5022C10.3269 21.5098 9.73243 22.2108 8.96667 22.806C7.42569 24.0038 7.5682 27.9872 8.24697 31.4416C8.45814 32.5163 9.15768 33.0695 9.7239 33.4106C11.0916 34.2345 12.6778 32.2816 13.9586 31.2293C15.0189 30.3582 15.4116 29.0395 15.6956 28.2737C15.9494 27.5894 15.925 26.4284 15.5029 26.0506C13.7122 24.4481 13.0291 30.675 12.3205 31.0263C9.91359 32.2196 11.0934 26.645 11.0081 27.2402C10.9791 27.554 10.9791 27.8917 11.0354 28.1782C11.0917 28.4647 11.2042 28.6899 11.3202 28.9218" stroke="#AFECB2" stroke-width="6.72" stroke-linecap="round"/>
<path d="M30.7355 20.4396C28.6515 20.4396 22.9654 20.6647 20.9342 21.2045C19.5293 21.5778 19.4249 24.1234 19.1674 26.1154C18.9285 27.9626 19.3072 29.7002 19.6475 30.6374C20.0832 31.8375 21.3521 32.6575 22.2048 33.1154C23.1932 33.6462 24.1934 33.9128 25.892 34.0543C28.6999 34.2883 31.2966 33.4079 32.5177 32.1314C34.0095 30.5719 33.7474 28.7486 33.8335 27.5497C33.9398 26.0697 33.7508 24.1438 33.3236 22.8596C33.0049 21.9016 32.0487 21.0126 30.9393 20.3279C29.5281 19.4568 28.0716 19.5323 26.5341 19.3882C24.0501 19.1553 20.281 19.5834 19.482 20.2665C18.7169 20.9205 18.3436 22.0257 17.6631 23.6169C17.0751 24.992 16.9792 26.4019 16.9775 29.1835C16.9765 30.8743 17.658 31.9753 18.1415 32.8861C18.6673 33.8764 19.4761 34.5915 20.4703 35.2183C21.3012 35.742 22.5425 35.7308 27.3058 35.7044C29.3142 35.6932 30.2751 34.7689 31.2438 34.114C32.0814 33.5477 33.2289 32.6678 34.1439 31.5012C35.0411 30.3574 35.1663 28.4655 35.2559 26.6424C35.3277 25.1793 33.3585 24.311 31.8236 23.6535C30.1405 22.9326 27.3399 23.1683 24.8125 23.3372C23.2722 23.44 22.6653 24.5293 22.1835 25.4067C20.9183 27.7109 21.1849 29.4717 21.3819 30.4106C22.1626 34.1314 29.54 24.5924 29.6833 24.3349C30.9778 22.0078 27.0978 30.5547 27.2095 31.039C28.4025 30.3347 29.1409 29.3114 29.6798 28.9123C29.9374 28.8509 30.1625 29.0761 30.565 29.308" stroke="#AFECB2" stroke-width="6.72" stroke-linecap="round"/>
<path d="M40.6402 18.5778C36.6101 18.4072 34.6779 18.5198 33.5096 18.889C33.0298 19.0407 32.4573 19.4271 31.8894 20.0794C31.0516 21.0418 31.2601 24.9699 31.4579 27.5264C31.5968 29.3214 32.3959 30.6252 32.963 31.6493C33.4701 32.5651 34.6096 32.8457 36.1693 33.3284C37.7087 33.8047 39.1581 33.2465 39.8394 32.9063C40.8187 32.4172 41.602 31.3176 42.3431 30.1792C43.1212 28.9839 43.1404 27.3951 43.1139 23.8221C43.1079 23.011 42.8607 22.6777 42.4642 22.3349C40.5008 20.6376 37.584 20.3992 36.2094 20.1417C35.3103 19.9733 31.6899 19.9422 29.2178 20.6772C27.5243 21.1808 27.9072 24.1956 27.8773 27.1793C27.8602 28.8936 28.7565 29.7725 29.7772 31.1351C31.0961 32.8958 31.7683 33.5825 32.6773 33.9824C33.8892 34.5156 37.144 34.7797 39.7243 34.2143C41.7647 33.7673 42.8504 32.624 44.0187 31.8267C45.1667 31.0432 45.7531 29.8953 46.2384 28.5599C47.005 26.45 46.2136 22.9028 45.8717 21.9359C45.3615 20.4932 43.9419 19.717 42.72 19.1764C41.6444 18.7005 39.1803 18.9189 36.8378 19.7673C36.0031 20.0697 35.6397 21.1871 35.2986 22.2369C35.0241 23.0818 35.239 23.8613 35.3805 24.4855C35.4466 24.7771 35.5783 24.9972 35.8052 25.0287C36.3806 25.1087 36.8864 24.4361 37.1985 23.869C37.7566 22.8551 34.5619 30.2739 34.0468 32.7255C33.9516 33.1788 33.9889 33.4665 34.1577 33.3019C36.6449 30.8775 38.8767 27.5622 39.0754 27.3337C39.8797 26.4085 39.6169 30.2295 39.7294 30.4299C39.9527 30.8273 40.4679 29.5525 40.7237 29.0135C40.8107 28.756 40.8107 28.5309 40.7263 28.2742C40.6419 28.0175 40.473 27.7361 39.958 26.9346" stroke="#AFECB2" stroke-width="6.72" stroke-linecap="round"/>
<path d="M16.8599 18.5939C17.1036 18.1021 18.3118 16.9631 18.8802 16.5906C19.4585 16.2115 20.1214 15.9689 20.76 15.7034C21.6684 15.3256 22.3205 15.2238 23.294 15.0993C26.268 14.7188 28.0686 15.541 28.6732 15.7369C29.7335 16.0804 31.0853 17.1015 31.6537 17.5278C32.2057 17.9418 32.7884 18.3427 33.5868 19.1761C33.8188 19.5136 33.9966 19.7989 34.1914 20.082C34.2808 20.2246 34.351 20.3651 34.5299 20.6164" stroke="#AFECB2" stroke-width="6.72" stroke-linecap="round"/>
<path d="M18.8599 38.3516C19.1079 38.705 19.4602 39.201 20.0286 39.5038C20.5885 39.8021 21.2698 39.9121 21.8382 40.0366C22.3959 40.1588 22.9729 40.2314 23.5414 40.2852C24.1548 40.3432 26.9604 40.4805 28.6508 40.3746C29.245 40.3373 29.7855 39.9142 30.4422 39.5241C31.0288 39.0626 31.595 38.5666 32.0575 38.0344C32.1645 37.8917 32.2699 37.7512 32.4849 37.5" stroke="#AFECB2" stroke-width="6.72" stroke-linecap="round"/>
<path d="M20.7598 25.1758V25.4638" stroke="#0D0D0D" stroke-width="2.5" stroke-linecap="round"/>
<path d="M27.96 25V25.192" stroke="#0D0D0D" stroke-width="2.5" stroke-linecap="round"/>
<path d="M18.3599 32.5363C18.4424 32.2473 18.6501 31.9127 18.9415 31.6106C19.1232 31.4223 19.3181 31.4105 19.4948 31.4311C19.9313 31.4821 20.3588 31.847 20.725 32.0456C21.0503 32.222 21.3395 32.4938 21.7254 32.5157C22.237 32.5447 22.7568 31.8495 23.2672 31.4955C23.7327 31.1726 24.3405 31.0352 24.8299 31.0662C25.3677 31.1002 25.6552 31.5343 26.093 31.7745C26.2769 31.8754 26.7579 31.9108 27.3933 31.8799C27.9136 31.8545 28.157 31.453 28.8225 31.0268C29.7872 30.4088 30.4074 30.4723 30.8052 30.5448C30.9716 30.6174 31.1392 30.7012 31.2952 30.7947C31.3687 30.8469 31.4307 30.9089 31.6821 31.0977" stroke="#0D0D0D" stroke-width="2" stroke-linecap="round"/>
<path d="M16.383 17.6407C15.8618 16.4622 14.7641 14.2204 13.7125 12.1274C13.2646 11.236 12.8793 10.3835 12.7488 9.61638C12.7291 9.50047 12.9215 9.48737 13.0652 9.56045C13.8579 9.96344 14.5083 10.56 15.0259 10.8182C15.5604 11.0848 16.1843 11.3921 16.8529 11.6731C17.5879 11.9819 18.1539 12.2083 18.3975 12.2009C19.0261 12.1817 18.9907 10.9593 19.6218 9.07613C20.1292 7.56185 20.3831 6.76977 20.8737 5.41346C21.3316 4.14744 21.4733 3.70624 21.6024 3.50456C21.6611 3.41288 21.8209 3.44981 21.97 3.55486C22.7838 4.12831 23.3111 5.51598 24.0035 6.51569C24.4822 7.20687 25.0428 8.04016 25.5386 8.64793C25.8951 9.08499 26.1656 9.4594 26.3613 9.65525C26.4585 9.75256 26.6094 9.77756 26.7637 9.72032C27.4956 9.4488 27.8341 8.88755 28.8264 8.18314C29.5075 7.69968 30.1134 7.26356 30.6596 6.91009C31.1614 6.58536 31.6201 6.48724 31.7924 6.4412C32.2861 6.30932 31.4908 7.64908 31.2869 8.68117C31.1616 9.31533 31.0001 10.7653 30.7752 12.0707C30.6398 12.8567 30.5986 13.6526 30.5379 14.3683C30.4724 14.657 30.4188 14.9289 30.3821 15.1961C30.3558 15.332 30.314 15.4685 30.3028 15.8001" stroke="#FFDE09" stroke-width="2.8" stroke-linecap="round"/>
<path d="M16.061 13.3766C16.5404 14.6926 17.5837 16.8149 17.8836 17.0439C18.4468 17.4739 17.6869 15.2689 17.4415 14.4892C17.383 14.3034 17.3563 14.08 17.4161 14.0504C18.1936 13.665 18.7538 15.6044 19.2338 15.9337C19.3857 16.0378 19.4457 15.8221 19.4697 15.5728C19.5248 14.9996 19.409 14.0326 19.4279 13.372C19.4489 12.6357 20.3307 14.6554 20.447 14.6702C22.1338 14.8858 20.859 10.9726 20.8451 10.6962C20.7666 9.13678 21.9109 15.109 22.1069 15.3068C22.8265 16.0328 22.3129 11.2756 22.1782 9.37888C22.1622 9.15243 22.1459 8.89564 22.0744 8.3694C22.003 7.84315 21.8711 7.05571 22.1509 8.24325C22.4308 9.43079 23.1263 12.6172 23.5609 14.424C23.9955 16.2308 24.148 16.5614 24.0892 15.6214C23.8907 12.4494 23.6615 10.1412 24.0372 10.2401C25.8953 10.7296 26.1512 14.654 26.4711 15.0998C27.7118 16.8285 26.0232 11.347 26.2693 11.6478C26.607 12.0603 27.067 13.484 27.6985 14.8207C28.2852 16.0623 28.3783 12.7247 28.6332 11.8941C28.9429 10.8847 28.6225 15.3194 28.5652 16.0758C28.4701 17.3301 29.257 12.9092 29.8125 11.3453C30.0902 10.5634 30.0173 9.99612 29.8428 9.53423C29.7403 9.2631 28.2469 10.8676 26.4671 12.7352C25.3136 13.9456 24.6192 14.8517 23.4421 15.6218C22.446 16.2736 21.5831 16.2452 20.9974 16.4743C20.3208 16.739 19.4658 17.0904 18.9643 17.3216C18.3617 17.5995 17.6281 17.8241 17.0598 17.9517C16.9509 17.9761 19.5738 17.6945 23.0436 17.1295C24.7251 16.8558 26.2022 16.7806 27.3851 16.6639C28.1615 16.5506 28.7795 16.4795 29.1359 16.4688C29.361 16.4478 29.676 16.3951 30.2074 16.4042" stroke="#FFDE09" stroke-width="2.8" stroke-linecap="round"/>
<path d="M12.127 8.0498L12.1589 8.2407" stroke="#C8E1FF" stroke-width="2.8" stroke-linecap="round"/>
<path d="M21.7637 1.72656L21.8116 2.0129" stroke="#C8E1FF" stroke-width="2.8" stroke-linecap="round"/>
<path d="M32.9673 5.34473L32.9833 5.44017" stroke="#C8E1FF" stroke-width="2.8" stroke-linecap="round"/>
<path d="M22.2241 8.13555C21.9884 8.90453 21.7895 9.32134 21.5409 10.0735C21.4856 10.2406 21.4381 10.3225 21.4314 10.4009C21.3999 10.7651 22.0162 11.033 22.3453 11.2764C22.6871 11.4789 22.9275 11.6503 23.0906 11.7666C23.1888 11.8366 23.3185 11.9291 23.5082 12.015" stroke="#C8E1FF" stroke-width="1.4" stroke-linecap="round"/>
<path d="M22.3926 8.10645C22.6222 8.22081 23.4652 8.6915 24.0859 9.04226C24.1858 9.09873 24.2465 9.1973 24.2677 9.31889C24.3565 9.82718 24.2027 10.2992 23.9899 10.9796C23.9012 11.2539 23.8571 11.4551 23.8448 11.6105C23.8386 11.6889 23.8324 11.766 23.7701 11.8549" stroke="#C8E1FF" stroke-width="1.4" stroke-linecap="round"/>
</svg>
