<svg width="50" height="40" viewBox="0 0 50 40" fill="none" xmlns="http://www.w3.org/2000/svg">
<path d="M13.0257 17.1488C11.8421 17.0926 9.10993 17.316 7.80014 18.1124C6.72072 18.7688 5.19077 20.3244 4.15982 21.4654C3.28731 22.431 3.4205 23.7933 3.36081 26.8299C3.3316 28.3162 3.98331 29.1963 4.52479 30.107C5.07471 31.0319 6.197 31.7544 8.10116 32.7223C10.0647 33.7204 13.1348 32.8971 14.3551 32.4435C16.7941 31.5367 17.8521 30.9665 18.6512 30.2553C19.6454 29.3704 19.9601 27.6716 20.4428 25.3769C21.0294 22.5876 20.4735 20.5052 20.3319 20.0515C19.9009 18.6701 18.0329 17.6059 16.9525 17.4337C15.8475 17.2575 14.9631 17.0363 11.3629 17.0627C10.3269 17.0703 9.73243 17.7713 8.96667 18.3665C7.42569 19.5643 7.5682 23.5477 8.24697 27.0022C8.45814 28.0768 9.15768 28.63 9.7239 28.9711C11.0916 29.795 12.6778 27.8421 13.9586 26.7898C15.0189 25.9187 15.4116 24.6 15.6956 23.8343C15.9494 23.1499 15.925 21.989 15.5029 21.6112C13.7122 20.0086 13.0291 26.2356 12.3205 26.5869C9.91359 27.7802 11.0934 22.2056 11.0081 22.8008C10.9791 23.1146 10.9791 23.4522 11.0354 23.7388C11.0917 24.0253 11.2042 24.2504 11.3202 24.4824" stroke="#AFECB2" stroke-width="6.72" stroke-linecap="round"/>
<path d="M30.7355 16.0001C28.6515 16.0001 22.9654 16.2252 20.9342 16.765C19.5293 17.1384 19.4249 19.6839 19.1674 21.6759C18.9285 23.5231 19.3072 25.2608 19.6475 26.1979C20.0832 27.398 21.3521 28.2181 22.2048 28.676C23.1932 29.2067 24.1934 29.4733 25.892 29.6149C28.6999 29.8489 31.2966 28.9685 32.5177 27.6919C34.0095 26.1324 33.7474 24.3091 33.8335 23.1102C33.9398 21.6302 33.7508 19.7044 33.3236 18.4202C33.0049 17.4622 32.0487 16.5732 30.9393 15.8884C29.5281 15.0174 28.0716 15.0928 26.5341 14.9487C24.0501 14.7159 20.281 15.144 19.482 15.827C18.7169 16.4811 18.3436 17.5862 17.6631 19.1774C17.0751 20.5526 16.9792 21.9624 16.9775 24.744C16.9765 26.4348 17.658 27.5359 18.1415 28.4466C18.6673 29.4369 19.4761 30.1521 20.4703 30.7788C21.3012 31.3026 22.5425 31.2913 27.3058 31.2649C29.3142 31.2538 30.2751 30.3294 31.2438 29.6745C32.0814 29.1083 33.2289 28.2283 34.1439 27.0618C35.0411 25.918 35.1663 24.026 35.2559 22.2029C35.3277 20.7399 33.3585 19.8715 31.8236 19.2141C30.1405 18.4931 27.3399 18.7289 24.8125 18.8977C23.2722 19.0006 22.6653 20.0898 22.1835 20.9673C20.9183 23.2715 21.1849 25.0323 21.3819 25.9711C22.1626 29.692 29.54 20.1529 29.6833 19.8954C30.9778 17.5684 27.0978 26.1152 27.2095 26.5996C28.4025 25.8952 29.1409 24.872 29.6798 24.4729C29.9374 24.4115 30.1625 24.6366 30.565 24.8685" stroke="#AFECB2" stroke-width="6.72" stroke-linecap="round"/>
<path d="M40.6402 14.1383C36.6101 13.9678 34.6779 14.0804 33.5096 14.4496C33.0298 14.6012 32.4573 14.9877 31.8894 15.64C31.0516 16.6024 31.2601 20.5304 31.4579 23.0869C31.5968 24.8819 32.3959 26.1857 32.963 27.2099C33.4701 28.1256 34.6096 28.4063 36.1693 28.8889C37.7087 29.3653 39.1581 28.807 39.8394 28.4668C40.8187 27.9778 41.602 26.8782 42.3431 25.7398C43.1212 24.5444 43.1404 22.9556 43.1139 19.3826C43.1079 18.5716 42.8607 18.2383 42.4642 17.8955C40.5008 16.1981 37.584 15.9598 36.2094 15.7022C35.3103 15.5338 31.6899 15.5027 29.2178 16.2378C27.5243 16.7413 27.9072 19.7561 27.8773 22.7398C27.8602 24.4541 28.7565 25.333 29.7772 26.6957C31.0961 28.4564 31.7683 29.143 32.6773 29.543C33.8892 30.0761 37.144 30.3403 39.7243 29.7749C41.7647 29.3278 42.8504 28.1845 44.0187 27.3872C45.1667 26.6037 45.7531 25.4558 46.2384 24.1204C47.005 22.0105 46.2136 18.4634 45.8717 17.4964C45.3615 16.0538 43.9419 15.2776 42.72 14.7369C41.6444 14.2611 39.1803 14.4794 36.8378 15.3279C36.0031 15.6302 35.6397 16.7477 35.2986 17.7974C35.0241 18.6424 35.239 19.4219 35.3805 20.0461C35.4466 20.3376 35.5783 20.5577 35.8052 20.5893C36.3806 20.6693 36.8864 19.9966 37.1985 19.4295C37.7566 18.4156 34.5619 25.8344 34.0468 28.286C33.9516 28.7394 33.9889 29.027 34.1577 28.8625C36.6449 26.438 38.8767 23.1227 39.0754 22.8942C39.8797 21.9691 39.6169 25.7901 39.7294 25.9905C39.9527 26.3879 40.4679 25.113 40.7237 24.5741C40.8107 24.3165 40.8107 24.0914 40.7263 23.8348C40.6419 23.5781 40.473 23.2967 39.958 22.4951" stroke="#AFECB2" stroke-width="6.72" stroke-linecap="round"/>
<path d="M16.8599 14.1544C17.1036 13.6627 18.3118 12.5237 18.8802 12.1511C19.4585 11.7721 20.1214 11.5295 20.76 11.2639C21.6684 10.8861 22.3205 10.7844 23.294 10.6598C26.268 10.2793 28.0686 11.1016 28.6732 11.2974C29.7335 11.6409 31.0853 12.6621 31.6537 13.0884C32.2057 13.5024 32.7884 13.9032 33.5868 14.7367C33.8188 15.0741 33.9966 15.3594 34.1914 15.6425C34.2808 15.7852 34.351 15.9257 34.5299 16.1769" stroke="#AFECB2" stroke-width="6.72" stroke-linecap="round"/>
<path d="M18.8599 33.9121C19.1079 34.2655 19.4602 34.7616 20.0286 35.0644C20.5885 35.3627 21.2698 35.4726 21.8382 35.5972C22.3959 35.7193 22.9729 35.7919 23.5414 35.8457C24.1548 35.9037 26.9604 36.041 28.6508 35.9351C29.245 35.8979 29.7855 35.4747 30.4422 35.0846C31.0288 34.6232 31.595 34.1271 32.0575 33.5949C32.1645 33.4523 32.2699 33.3118 32.4849 33.0605" stroke="#AFECB2" stroke-width="6.72" stroke-linecap="round"/>
<path d="M20.7598 20.7363V21.0244" stroke="#0D0D0D" stroke-width="2.5" stroke-linecap="round"/>
<path d="M27.96 20.5605V20.7526" stroke="#0D0D0D" stroke-width="2.5" stroke-linecap="round"/>
<path d="M18.3599 28.0968C18.4424 27.8079 18.6501 27.4733 18.9415 27.1712C19.1232 26.9828 19.3181 26.971 19.4948 26.9917C19.9313 27.0427 20.3588 27.4076 20.725 27.6062C21.0503 27.7826 21.3395 28.0543 21.7254 28.0762C22.237 28.1052 22.7568 27.4101 23.2672 27.0561C23.7327 26.7332 24.3405 26.5957 24.8299 26.6267C25.3677 26.6607 25.6552 27.0949 26.093 27.335C26.2769 27.4359 26.7579 27.4714 27.3933 27.4404C27.9136 27.4151 28.157 27.0136 28.8225 26.5873C29.7872 25.9694 30.4074 26.0328 30.8052 26.1054C30.9716 26.1779 31.1392 26.2618 31.2952 26.3553C31.3687 26.4075 31.4307 26.4694 31.6821 26.6583" stroke="#0D0D0D" stroke-width="2" stroke-linecap="round"/>
<path d="M9.52495 13.3476C9.685 12.329 10.4461 10.01 11.0507 8.72706C11.6109 7.53847 12.4788 6.46304 13.4199 5.42215C14.3036 4.44485 15.5067 3.96725 16.3477 3.59603C17.4513 3.134 18.5137 2.85065 20.2797 2.66694C21.4265 2.6263 23.4943 2.59389 25.6247 2.56049" stroke="#AE6163" stroke-width="5.12" stroke-linecap="round"/>
<path d="M9.66468 13.7453C10.9426 13.8586 13.8822 13.6365 14.614 13.4904C15.5039 13.3126 16.5341 12.8402 17.5953 12.3115C18.3532 11.9339 19.1355 11.3779 20.7623 10.3523C21.653 9.79071 22.4343 9.14722 23.0708 8.49249C23.6649 7.8814 24.2296 7.2975 24.6194 6.55729C25.0562 5.72772 25.2159 4.88172 25.3607 4.16736C25.3965 3.99085 25.3778 3.81237 25.0928 3.88018C23.3034 4.30596 22.4716 5.22877 21.4551 5.71344C20.597 6.12253 19.8716 6.78173 19.1003 7.21721C18.0864 7.78965 16.6631 8.65093 15.554 9.27306C14.5835 9.79968 13.9225 10.1661 13.5263 10.3717C13.3488 10.4858 13.2188 10.6198 12.9517 10.76" stroke="#AE6163" stroke-width="5.12" stroke-linecap="round"/>
<path d="M16.1436 4.25324C16.1425 4.1869 16.1415 4.12056 16.156 3.98662C16.1705 3.85268 16.2005 3.65315 16.2299 3.34706" stroke="#EAAB74" stroke-width="0.32" stroke-linecap="round"/>
<path d="M19.855 3.69299C19.8882 3.69247 19.9214 3.69195 19.9874 3.64115C20.0535 3.59035 20.1515 3.48928 20.3497 3.18255" stroke="#EAAB74" stroke-width="0.32" stroke-linecap="round"/>
<path d="M23.3164 6.45312L24.5225 6.43422" stroke="#EAAB74" stroke-width="0.32" stroke-linecap="round"/>
<path d="M19.123 8.3291L19.8329 8.72012" stroke="#EAAB74" stroke-width="0.32" stroke-linecap="round"/>
<path d="M15.6933 7.57882C15.628 7.64619 15.5627 7.71357 15.4801 7.79881C15.3975 7.88406 15.2996 7.98512 14.9976 8.0924" stroke="#EAAB74" stroke-width="0.32" stroke-linecap="round"/>
<path d="M13.5638 12.8396C13.6301 12.8386 13.6965 12.8375 13.8462 12.802C13.996 12.7665 14.2271 12.6965 14.5642 12.5223" stroke="#EAAB74" stroke-width="0.32" stroke-linecap="round"/>
<path d="M11.1955 9.25737L10.7998 9.66572" stroke="#EAAB74" stroke-width="0.32" stroke-linecap="round"/>
</svg>
