<svg width="50" height="47" viewBox="0 0 50 47" fill="none" xmlns="http://www.w3.org/2000/svg">
<path d="M13.0257 24.4887C11.8421 24.4324 9.10993 24.6558 7.80014 25.4523C6.72072 26.1086 5.19077 27.6643 4.15982 28.8052C3.28731 29.7708 3.4205 31.1332 3.36081 34.1698C3.3316 35.656 3.98331 36.5361 4.52479 37.4468C5.07471 38.3717 6.197 39.0943 8.10116 40.0621C10.0647 41.0602 13.1348 40.237 14.3551 39.7833C16.7941 38.8765 17.8521 38.3064 18.6512 37.5952C19.6454 36.7102 19.9601 35.0114 20.4428 32.7167C21.0294 29.9274 20.4735 27.845 20.3319 27.3914C19.9009 26.01 18.0329 24.9457 16.9525 24.7735C15.8475 24.5973 14.9631 24.3761 11.3629 24.4026C10.3269 24.4102 9.73243 25.1112 8.96667 25.7064C7.42569 26.9042 7.5682 30.8876 8.24697 34.342C8.45814 35.4167 9.15768 35.9699 9.7239 36.311C11.0916 37.1349 12.6778 35.1819 13.9586 34.1297C15.0189 33.2586 15.4116 31.9399 15.6956 31.1741C15.9494 30.4898 15.925 29.3288 15.5029 28.951C13.7122 27.3485 13.0291 33.5754 12.3205 33.9267C9.91359 35.12 11.0934 29.5454 11.0081 30.1406C10.9791 30.4544 10.9791 30.7921 11.0354 31.0786C11.0917 31.3651 11.2042 31.5902 11.3202 31.8222" stroke="#AFECB2" stroke-width="6.72" stroke-linecap="round"/>
<path d="M30.735 23.34C28.651 23.34 22.9649 23.5651 20.9337 24.1049C19.5288 24.4782 19.4244 27.0238 19.1669 29.0158C18.9281 30.863 19.3067 32.6006 19.647 33.5378C20.0827 34.7379 21.3516 35.5579 22.2043 36.0158C23.1927 36.5466 24.1929 36.8131 25.8915 36.9547C28.6994 37.1887 31.2961 36.3083 32.5173 35.0318C34.009 33.4723 33.7469 31.649 33.833 30.45C33.9393 28.9701 33.7503 27.0442 33.3231 25.76C33.0044 24.802 32.0483 23.913 30.9388 23.2283C29.5276 22.3572 28.0711 22.4327 26.5336 22.2885C24.0496 22.0557 20.2805 22.4838 19.4815 23.1669C18.7164 23.8209 18.3431 24.926 17.6627 26.5172C17.0746 27.8924 16.9788 29.3023 16.9771 32.0839C16.976 33.7747 17.6575 34.8757 18.141 35.7865C18.6668 36.7768 19.4756 37.4919 20.4699 38.1187C21.3007 38.6424 22.542 38.6312 27.3054 38.6047C29.3137 38.5936 30.2746 37.6693 31.2433 37.0144C32.0809 36.4481 33.2284 35.5682 34.1434 34.4016C35.0406 33.2578 35.1658 31.3659 35.2554 29.5427C35.3272 28.0797 33.358 27.2114 31.8231 26.5539C30.14 25.833 27.3395 26.0687 24.812 26.2375C23.2717 26.3404 22.6648 27.4297 22.183 28.3071C20.9178 30.6113 21.1844 32.3721 21.3814 33.311C22.1621 37.0318 29.5395 27.4928 29.6828 27.2352C30.9773 24.9082 27.0973 33.4551 27.209 33.9394C28.402 33.2351 29.1404 32.2118 29.6794 31.8127C29.9369 31.7513 30.162 31.9764 30.5645 32.2084" stroke="#AFECB2" stroke-width="6.72" stroke-linecap="round"/>
<path d="M40.6402 21.4782C36.6101 21.3076 34.6779 21.4202 33.5096 21.7894C33.0298 21.9411 32.4573 22.3275 31.8894 22.9798C31.0516 23.9422 31.2601 27.8703 31.4579 30.4268C31.5968 32.2218 32.3959 33.5256 32.963 34.5497C33.4701 35.4655 34.6096 35.7461 36.1693 36.2287C37.7087 36.7051 39.1581 36.1469 39.8394 35.8066C40.8187 35.3176 41.602 34.218 42.3431 33.0796C43.1212 31.8842 43.1404 30.2954 43.1139 26.7225C43.1079 25.9114 42.8607 25.5781 42.4642 25.2353C40.5008 23.538 37.584 23.2996 36.2094 23.0421C35.3103 22.8737 31.6899 22.8425 29.2178 23.5776C27.5243 24.0811 27.9072 27.096 27.8773 30.0797C27.8602 31.7939 28.7565 32.6728 29.7772 34.0355C31.0961 35.7962 31.7683 36.4829 32.6773 36.8828C33.8892 37.416 37.144 37.6801 39.7243 37.1147C41.7647 36.6677 42.8504 35.5244 44.0187 34.7271C45.1667 33.9436 45.7531 32.7957 46.2384 31.4603C47.005 29.3504 46.2136 25.8032 45.8717 24.8362C45.3615 23.3936 43.9419 22.6174 42.72 22.0768C41.6444 21.6009 39.1803 21.8193 36.8378 22.6677C36.0031 22.9701 35.6397 24.0875 35.2986 25.1373C35.0241 25.9822 35.239 26.7617 35.3805 27.3859C35.4466 27.6775 35.5783 27.8976 35.8052 27.9291C36.3806 28.0091 36.8864 27.3364 37.1985 26.7694C37.7566 25.7555 34.5619 33.1743 34.0468 35.6259C33.9516 36.0792 33.9889 36.3669 34.1577 36.2023C36.6449 33.7779 38.8767 30.4626 39.0754 30.234C39.8797 29.3089 39.6169 33.1299 39.7294 33.3303C39.9527 33.7277 40.4679 32.4528 40.7237 31.9139C40.8107 31.6564 40.8107 31.4313 40.7263 31.1746C40.6419 30.9179 40.473 30.6365 39.958 29.835" stroke="#AFECB2" stroke-width="6.72" stroke-linecap="round"/>
<path d="M16.8599 21.4943C17.1036 21.0025 18.3118 19.8635 18.8802 19.491C19.4585 19.1119 20.1214 18.8693 20.76 18.6037C21.6684 18.226 22.3205 18.1242 23.294 17.9997C26.268 17.6192 28.0686 18.4414 28.6732 18.6373C29.7335 18.9807 31.0853 20.0019 31.6537 20.4282C32.2057 20.8422 32.7884 21.2431 33.5868 22.0765C33.8188 22.414 33.9966 22.6992 34.1914 22.9824C34.2808 23.125 34.351 23.2655 34.5299 23.5167" stroke="#AFECB2" stroke-width="6.72" stroke-linecap="round"/>
<path d="M18.8599 41.252C19.1079 41.6054 19.4602 42.1014 20.0286 42.4042C20.5885 42.7025 21.2698 42.8125 21.8382 42.937C22.3959 43.0592 22.9729 43.1318 23.5414 43.1855C24.1548 43.2436 26.9604 43.3809 28.6508 43.275C29.245 43.2377 29.7855 42.8146 30.4422 42.4245C31.0288 41.963 31.595 41.467 32.0575 40.9347C32.1645 40.7921 32.2699 40.6516 32.4849 40.4004" stroke="#AFECB2" stroke-width="6.72" stroke-linecap="round"/>
<path d="M20.7603 28.0762V28.3642" stroke="#0D0D0D" stroke-width="2.5" stroke-linecap="round"/>
<path d="M27.9604 27.9004V28.0924" stroke="#0D0D0D" stroke-width="2.5" stroke-linecap="round"/>
<path d="M18.3599 35.4367C18.4424 35.1477 18.6501 34.8131 18.9415 34.511C19.1232 34.3227 19.3181 34.3109 19.4948 34.3315C19.9313 34.3825 20.3588 34.7474 20.725 34.946C21.0503 35.1224 21.3395 35.3942 21.7254 35.416C22.237 35.4451 22.7568 34.7499 23.2672 34.3959C23.7327 34.073 24.3405 33.9356 24.8299 33.9665C25.3677 34.0006 25.6552 34.4347 26.093 34.6749C26.2769 34.7758 26.7579 34.8112 27.3933 34.7803C27.9136 34.7549 28.157 34.3534 28.8225 33.9271C29.7872 33.3092 30.4074 33.3727 30.8052 33.4452C30.9716 33.5178 31.1392 33.6016 31.2952 33.6951C31.3687 33.7473 31.4307 33.8092 31.6821 33.9981" stroke="#0D0D0D" stroke-width="2" stroke-linecap="round"/>
<path d="M18.2135 10.0537C16.4348 10.2152 15.6275 10.5369 14.6556 11.4662C13.96 12.1315 14.0468 13.1253 14.0043 14.5202C13.9775 15.3994 14.6902 16.0002 15.2973 16.5872C15.8552 17.1267 16.5915 17.2555 18.1467 17.318C19.0315 17.3536 19.8282 16.935 20.5177 16.5101C20.8334 16.3156 21.3263 15.9249 21.892 15.279C22.3945 14.7053 22.4627 13.6619 22.4226 12.6105C22.3858 11.6445 21.4938 11.1488 20.8868 10.9041C20.1284 10.5985 19.0269 10.702 16.3225 10.7408C15.279 10.7558 14.7352 11.3467 14.3916 11.7303C13.853 12.3317 13.6826 13.1665 13.4792 13.8148C13.1632 14.8225 13.5175 16.4032 14.0425 17.1529C14.7593 18.1762 15.6202 18.1466 16.3693 18.2079C17.5196 18.3021 19.141 18.2292 19.8901 18.027C20.6257 17.8285 21.2049 17.5007 21.8732 17.1978C22.6463 16.8475 23.1474 16.2478 23.4133 15.6007C23.7527 14.7746 23.5553 13.742 23.4145 12.9699C23.2891 12.2826 22.6666 11.7971 22.2016 11.2896C21.7271 10.7717 21.0495 10.6607 20.3411 10.4592C19.3887 10.3378 18.903 10.1751 18.7604 10.1751C18.778 10.1751 18.62 10.3144 19.0692 9.9502" stroke="#FF0000" stroke-width="9" stroke-linecap="round"/>
<path d="M18.0874 7.53956C18.0874 7.01374 18.2043 5.98334 18.542 4.51121C18.8684 3.08846 19.5905 2.34773 20.1044 1.96576C20.9396 1.40851 21.7142 1.01901 22.4777 0.930488C22.9783 0.900391 23.7086 0.900391 24.461 0.900391" stroke="#62A565" stroke-width="1.8" stroke-linecap="round"/>
<path d="M24.4612 0.900391C24.4612 1.54749 24.4028 2.31321 24.2111 2.87532C23.9858 3.5361 23.6963 4.20227 23.3852 4.69047C23.0602 5.20037 21.0832 6.11612 19.9483 6.63884C19.8297 6.68355 19.7128 6.71276 19.565 6.75702C19.4172 6.80128 19.2419 6.85971 18.8843 7.09695" stroke="#62A565" stroke-width="1.8" stroke-linecap="round"/>
<path d="M20.9204 2.58243C20.8036 2.69928 20.2176 3.84033 19.8006 4.93756C19.3126 6.22174 21.51 2.64262 21.5839 2.58243C22.2565 2.03464 21.1568 4.20416 21.1563 4.29356C21.1552 4.52732 21.8596 3.23838 22.5975 2.42486C23.2579 1.69674 22.3961 4.11563 22.4541 4.07359C22.992 3.68347 23.1609 2.76213 23.4415 2.49523C24.0028 1.96146 23.0458 3.90849 22.8839 4.028C22.7785 2.99937 23.0441 2.11149 23.2061 1.87602C23.2804 1.7574 23.3389 1.64055 23.6646 1.43164" stroke="#62A565" stroke-width="1.8" stroke-linecap="round"/>
</svg>
