<svg width="50" height="38" viewBox="0 0 50 38" fill="none" xmlns="http://www.w3.org/2000/svg">
<path d="M13.0257 15.5883C11.8421 15.532 9.10993 15.7554 7.80014 16.5519C6.72072 17.2082 5.19077 18.7639 4.15982 19.9048C3.28731 20.8704 3.4205 22.2328 3.36081 25.2694C3.3316 26.7556 3.98331 27.6357 4.52479 28.5464C5.07471 29.4713 6.197 30.1939 8.10116 31.1618C10.0647 32.1598 13.1348 31.3366 14.3551 30.8829C16.7941 29.9762 17.8521 29.406 18.6512 28.6948C19.6454 27.8098 19.9601 26.111 20.4428 23.8163C21.0294 21.027 20.4735 18.9446 20.3319 18.491C19.9009 17.1096 18.0329 16.0454 16.9525 15.8731C15.8475 15.6969 14.9631 15.4757 11.3629 15.5022C10.3269 15.5098 9.73243 16.2108 8.96667 16.806C7.42569 18.0038 7.5682 21.9872 8.24697 25.4416C8.45814 26.5163 9.15768 27.0695 9.7239 27.4106C11.0916 28.2345 12.6778 26.2816 13.9586 25.2293C15.0189 24.3582 15.4116 23.0395 15.6956 22.2737C15.9494 21.5894 15.925 20.4284 15.5029 20.0506C13.7122 18.4481 13.0291 24.675 12.3205 25.0263C9.91359 26.2196 11.0934 20.645 11.0081 21.2402C10.9791 21.554 10.9791 21.8917 11.0354 22.1782C11.0917 22.4647 11.2042 22.6899 11.3202 22.9218" stroke="#AFECB2" stroke-width="6.72" stroke-linecap="round"/>
<path d="M30.7355 14.4396C28.6515 14.4396 22.9654 14.6647 20.9342 15.2045C19.5293 15.5778 19.4249 18.1234 19.1674 20.1154C18.9285 21.9626 19.3072 23.7002 19.6475 24.6374C20.0832 25.8375 21.3521 26.6575 22.2048 27.1154C23.1932 27.6462 24.1934 27.9128 25.892 28.0543C28.6999 28.2883 31.2966 27.4079 32.5177 26.1314C34.0095 24.5719 33.7474 22.7486 33.8335 21.5497C33.9398 20.0697 33.7508 18.1438 33.3236 16.8596C33.0049 15.9016 32.0487 15.0126 30.9393 14.3279C29.5281 13.4568 28.0716 13.5323 26.5341 13.3882C24.0501 13.1553 20.281 13.5834 19.482 14.2665C18.7169 14.9205 18.3436 16.0257 17.6631 17.6169C17.0751 18.992 16.9792 20.4019 16.9775 23.1835C16.9765 24.8743 17.658 25.9753 18.1415 26.8861C18.6673 27.8764 19.4761 28.5915 20.4703 29.2183C21.3012 29.742 22.5425 29.7308 27.3058 29.7044C29.3142 29.6932 30.2751 28.7689 31.2438 28.114C32.0814 27.5477 33.2289 26.6678 34.1439 25.5012C35.0411 24.3574 35.1663 22.4655 35.2559 20.6424C35.3277 19.1793 33.3585 18.311 31.8236 17.6535C30.1405 16.9326 27.3399 17.1683 24.8125 17.3372C23.2722 17.44 22.6653 18.5293 22.1835 19.4067C20.9183 21.7109 21.1849 23.4717 21.3819 24.4106C22.1626 28.1314 29.54 18.5924 29.6833 18.3349C30.9778 16.0078 27.0978 24.5547 27.2095 25.039C28.4025 24.3347 29.1409 23.3114 29.6798 22.9123C29.9374 22.8509 30.1625 23.0761 30.565 23.308" stroke="#AFECB2" stroke-width="6.72" stroke-linecap="round"/>
<path d="M40.6402 12.5778C36.6101 12.4072 34.6779 12.5198 33.5096 12.889C33.0298 13.0407 32.4573 13.4271 31.8894 14.0794C31.0516 15.0418 31.2601 18.9699 31.4579 21.5264C31.5968 23.3214 32.3959 24.6252 32.963 25.6493C33.4701 26.5651 34.6096 26.8457 36.1693 27.3284C37.7087 27.8047 39.1581 27.2465 39.8394 26.9063C40.8187 26.4172 41.602 25.3176 42.3431 24.1792C43.1212 22.9839 43.1404 21.3951 43.1139 17.8221C43.1079 17.011 42.8607 16.6777 42.4642 16.3349C40.5008 14.6376 37.584 14.3992 36.2094 14.1417C35.3103 13.9733 31.6899 13.9422 29.2178 14.6772C27.5243 15.1808 27.9072 18.1956 27.8773 21.1793C27.8602 22.8936 28.7565 23.7725 29.7772 25.1351C31.0961 26.8958 31.7683 27.5825 32.6773 27.9824C33.8892 28.5156 37.144 28.7797 39.7243 28.2143C41.7647 27.7673 42.8504 26.624 44.0187 25.8267C45.1667 25.0432 45.7531 23.8953 46.2384 22.5599C47.005 20.45 46.2136 16.9028 45.8717 15.9359C45.3615 14.4932 43.9419 13.717 42.72 13.1764C41.6444 12.7005 39.1803 12.9189 36.8378 13.7673C36.0031 14.0697 35.6397 15.1871 35.2986 16.2369C35.0241 17.0818 35.239 17.8613 35.3805 18.4855C35.4466 18.7771 35.5783 18.9972 35.8052 19.0287C36.3806 19.1087 36.8864 18.4361 37.1985 17.869C37.7566 16.8551 34.5619 24.2739 34.0468 26.7255C33.9516 27.1788 33.9889 27.4665 34.1577 27.3019C36.6449 24.8775 38.8767 21.5622 39.0754 21.3337C39.8797 20.4085 39.6169 24.2295 39.7294 24.4299C39.9527 24.8273 40.4679 23.5525 40.7237 23.0135C40.8107 22.756 40.8107 22.5309 40.7263 22.2742C40.6419 22.0175 40.473 21.7361 39.958 20.9346" stroke="#AFECB2" stroke-width="6.72" stroke-linecap="round"/>
<path d="M16.8599 12.5939C17.1036 12.1021 18.3118 10.9631 18.8802 10.5906C19.4585 10.2115 20.1214 9.96893 20.76 9.70335C21.6684 9.3256 22.3205 9.22381 23.294 9.09927C26.268 8.71877 28.0686 9.54102 28.6732 9.73688C29.7335 10.0804 31.0853 11.1015 31.6537 11.5278C32.2057 11.9418 32.7884 12.3427 33.5868 13.1761C33.8188 13.5136 33.9966 13.7989 34.1914 14.082C34.2808 14.2246 34.351 14.3651 34.5299 14.6164" stroke="#AFECB2" stroke-width="6.72" stroke-linecap="round"/>
<path d="M18.8599 32.3516C19.1079 32.705 19.4602 33.201 20.0286 33.5038C20.5885 33.8021 21.2698 33.9121 21.8382 34.0366C22.3959 34.1588 22.9729 34.2314 23.5414 34.2852C24.1548 34.3432 26.9604 34.4805 28.6508 34.3746C29.245 34.3373 29.7855 33.9142 30.4422 33.5241C31.0288 33.0626 31.595 32.5666 32.0575 32.0344C32.1645 31.8917 32.2699 31.7512 32.4849 31.5" stroke="#AFECB2" stroke-width="6.72" stroke-linecap="round"/>
<path d="M20.7598 19.1758V19.4638" stroke="#0D0D0D" stroke-width="2.5" stroke-linecap="round"/>
<path d="M27.96 19V19.192" stroke="#0D0D0D" stroke-width="2.5" stroke-linecap="round"/>
<path d="M18.3599 26.5363C18.4424 26.2473 18.6501 25.9127 18.9415 25.6106C19.1232 25.4223 19.3181 25.4105 19.4948 25.4311C19.9313 25.4821 20.3588 25.847 20.725 26.0456C21.0503 26.222 21.3395 26.4938 21.7254 26.5157C22.237 26.5447 22.7568 25.8495 23.2672 25.4955C23.7327 25.1726 24.3405 25.0352 24.8299 25.0662C25.3677 25.1002 25.6552 25.5343 26.093 25.7745C26.2769 25.8754 26.7579 25.9108 27.3933 25.8799C27.9136 25.8545 28.157 25.453 28.8225 25.0268C29.7872 24.4088 30.4074 24.4723 30.8052 24.5448C30.9716 24.6174 31.1392 24.7012 31.2952 24.7947C31.3687 24.8469 31.4307 24.9089 31.6821 25.0977" stroke="#0D0D0D" stroke-width="2" stroke-linecap="round"/>
<path d="M17.2099 3.50482C16.0994 3.62381 13.6488 3.91512 12.4271 4.60634C11.1115 5.35072 10.7349 7.33003 10.7094 8.4377C10.6799 9.71559 11.5152 11.3001 12.2579 11.853C13.0606 12.4506 14.6293 13.0281 17.1732 13.1273C21.3735 13.291 22.4732 11.3209 23.6435 10.531C24.369 10.0413 24.9166 9.27778 25.2874 8.58216C26.0137 7.21982 24.6372 5.13129 24.0157 4.41128C23.4078 3.70705 22.5837 3.29534 21.4756 2.9182C20.281 2.51163 19.3623 2.68596 17.8796 2.86979C15.9451 3.10965 14.5981 3.78278 14.2394 4.09236C13.8808 4.40194 13.5833 4.75187 13.4173 5.17612C13.0368 6.14823 13.6414 7.57885 14.4114 8.89395C14.9092 9.74413 15.4537 10.1942 15.846 10.3412C16.0364 10.4126 16.2505 10.3224 16.3996 10.149C17.0593 9.38181 16.6199 8.09866 16.5387 6.69347C16.52 6.36859 16.4978 6.10147 16.5927 5.9377C16.6876 5.77393 16.8914 5.72223 17.0732 5.78458C18.0379 6.11541 18.8162 8.1266 19.4115 9.27153C19.7564 9.93485 20.1913 6.43334 20.4925 5.2204C21.1961 5.83328 21.6617 6.37261 21.9458 6.73773C22.0762 6.92486 22.1789 7.11577 22.3239 7.46688" stroke="#FF7B00" stroke-width="5" stroke-linecap="round"/>
<path d="M18.9134 2.00924C18.8584 2.05671 18.8034 2.10417 18.4136 2.42139C18.0239 2.73861 17.3011 3.32415 16.8737 3.67326C16.4464 4.02237 16.3364 4.11729 15.961 4.38314" stroke="#0B7F28" stroke-width="0.5" stroke-linecap="round"/>
<path d="M15.7876 2.49707C16.5248 2.6127 17.4813 2.91237 18.234 3.07689C18.5565 3.1474 18.8212 3.24987 19.0716 3.3722C19.2036 3.42403 19.3455 3.45505 19.8022 3.50982" stroke="#0B7F28" stroke-width="0.5" stroke-linecap="round"/>
<path d="M17.4795 1.56055C17.527 1.61553 17.5744 1.67052 17.6947 2.07671C17.815 2.48289 18.0067 3.2386 18.2043 4.01721" stroke="#0B7F28" stroke-width="0.5" stroke-linecap="round"/>
<path d="M17.7642 9.36133L18.1613 9.44814" stroke="#0D0D0D" stroke-width="0.3" stroke-linecap="round"/>
<path d="M11.7178 7.70605L11.8072 8.05851" stroke="#0D0D0D" stroke-width="0.3" stroke-linecap="round"/>
<path d="M22.2207 5.51562L22.4863 5.82337" stroke="#0D0D0D" stroke-width="0.3" stroke-linecap="round"/>
<path d="M22.9697 9.91602L23.0591 10.2685" stroke="#0D0D0D" stroke-width="0.3" stroke-linecap="round"/>
<path d="M14.5132 12.8114L14.7763 12.3696" stroke="#0D0D0D" stroke-width="0.3" stroke-linecap="round"/>
</svg>
