<svg width="50" height="45" viewBox="0 0 50 45" fill="none" xmlns="http://www.w3.org/2000/svg">
<path d="M13.0257 22.5883C11.8421 22.532 9.10993 22.7554 7.80014 23.5519C6.72072 24.2082 5.19077 25.7639 4.15982 26.9048C3.28731 27.8704 3.4205 29.2328 3.36081 32.2694C3.3316 33.7556 3.98331 34.6357 4.52479 35.5464C5.07471 36.4713 6.197 37.1939 8.10116 38.1618C10.0647 39.1598 13.1348 38.3366 14.3551 37.8829C16.7941 36.9762 17.8521 36.406 18.6512 35.6948C19.6454 34.8098 19.9601 33.111 20.4428 30.8163C21.0294 28.027 20.4735 25.9446 20.3319 25.491C19.9009 24.1096 18.0329 23.0454 16.9525 22.8731C15.8475 22.6969 14.9631 22.4757 11.3629 22.5022C10.3269 22.5098 9.73243 23.2108 8.96667 23.806C7.42569 25.0038 7.5682 28.9872 8.24697 32.4416C8.45814 33.5163 9.15768 34.0695 9.7239 34.4106C11.0916 35.2345 12.6778 33.2816 13.9586 32.2293C15.0189 31.3582 15.4116 30.0395 15.6956 29.2737C15.9494 28.5894 15.925 27.4284 15.5029 27.0506C13.7122 25.4481 13.0291 31.675 12.3205 32.0263C9.91359 33.2196 11.0934 27.645 11.0081 28.2402C10.9791 28.554 10.9791 28.8917 11.0354 29.1782C11.0917 29.4647 11.2042 29.6899 11.3202 29.9218" stroke="#AFECB2" stroke-width="6.72" stroke-linecap="round"/>
<path d="M30.7355 21.4396C28.6515 21.4396 22.9654 21.6647 20.9342 22.2045C19.5293 22.5778 19.4249 25.1234 19.1674 27.1154C18.9285 28.9626 19.3072 30.7002 19.6475 31.6374C20.0832 32.8375 21.3521 33.6575 22.2048 34.1154C23.1932 34.6462 24.1934 34.9128 25.892 35.0543C28.6999 35.2883 31.2966 34.4079 32.5177 33.1314C34.0095 31.5719 33.7474 29.7486 33.8335 28.5497C33.9398 27.0697 33.7508 25.1438 33.3236 23.8596C33.0049 22.9016 32.0487 22.0126 30.9393 21.3279C29.5281 20.4568 28.0716 20.5323 26.5341 20.3882C24.0501 20.1553 20.281 20.5834 19.482 21.2665C18.7169 21.9205 18.3436 23.0257 17.6631 24.6169C17.0751 25.992 16.9792 27.4019 16.9775 30.1835C16.9765 31.8743 17.658 32.9753 18.1415 33.8861C18.6673 34.8764 19.4761 35.5915 20.4703 36.2183C21.3012 36.742 22.5425 36.7308 27.3058 36.7044C29.3142 36.6932 30.2751 35.7689 31.2438 35.114C32.0814 34.5477 33.2289 33.6678 34.1439 32.5012C35.0411 31.3574 35.1663 29.4655 35.2559 27.6424C35.3277 26.1793 33.3585 25.311 31.8236 24.6535C30.1405 23.9326 27.3399 24.1683 24.8125 24.3372C23.2722 24.44 22.6653 25.5293 22.1835 26.4067C20.9183 28.7109 21.1849 30.4717 21.3819 31.4106C22.1626 35.1314 29.54 25.5924 29.6833 25.3349C30.9778 23.0078 27.0978 31.5547 27.2095 32.039C28.4025 31.3347 29.1409 30.3114 29.6798 29.9123C29.9374 29.8509 30.1625 30.0761 30.565 30.308" stroke="#AFECB2" stroke-width="6.72" stroke-linecap="round"/>
<path d="M40.6402 19.5778C36.6101 19.4072 34.6779 19.5198 33.5096 19.889C33.0298 20.0407 32.4573 20.4271 31.8894 21.0794C31.0516 22.0418 31.2601 25.9699 31.4579 28.5264C31.5968 30.3214 32.3959 31.6252 32.963 32.6493C33.4701 33.5651 34.6096 33.8457 36.1693 34.3284C37.7087 34.8047 39.1581 34.2465 39.8394 33.9063C40.8187 33.4172 41.602 32.3176 42.3431 31.1792C43.1212 29.9839 43.1404 28.3951 43.1139 24.8221C43.1079 24.011 42.8607 23.6777 42.4642 23.3349C40.5008 21.6376 37.584 21.3992 36.2094 21.1417C35.3103 20.9733 31.6899 20.9422 29.2178 21.6772C27.5243 22.1808 27.9072 25.1956 27.8773 28.1793C27.8602 29.8936 28.7565 30.7725 29.7772 32.1351C31.0961 33.8958 31.7683 34.5825 32.6773 34.9824C33.8892 35.5156 37.144 35.7797 39.7243 35.2143C41.7647 34.7673 42.8504 33.624 44.0187 32.8267C45.1667 32.0432 45.7531 30.8953 46.2384 29.5599C47.005 27.45 46.2136 23.9028 45.8717 22.9359C45.3615 21.4932 43.9419 20.717 42.72 20.1764C41.6444 19.7005 39.1803 19.9189 36.8378 20.7673C36.0031 21.0697 35.6397 22.1871 35.2986 23.2369C35.0241 24.0818 35.239 24.8613 35.3805 25.4855C35.4466 25.7771 35.5783 25.9972 35.8052 26.0287C36.3806 26.1087 36.8864 25.4361 37.1985 24.869C37.7566 23.8551 34.5619 31.2739 34.0468 33.7255C33.9516 34.1788 33.9889 34.4665 34.1577 34.3019C36.6449 31.8775 38.8767 28.5622 39.0754 28.3337C39.8797 27.4085 39.6169 31.2295 39.7294 31.4299C39.9527 31.8273 40.4679 30.5525 40.7237 30.0135C40.8107 29.756 40.8107 29.5309 40.7263 29.2742C40.6419 29.0175 40.473 28.7361 39.958 27.9346" stroke="#AFECB2" stroke-width="6.72" stroke-linecap="round"/>
<path d="M16.8599 19.5939C17.1036 19.1021 18.3118 17.9631 18.8802 17.5906C19.4585 17.2115 20.1214 16.9689 20.76 16.7034C21.6684 16.3256 22.3205 16.2238 23.294 16.0993C26.268 15.7188 28.0686 16.541 28.6732 16.7369C29.7335 17.0804 31.0853 18.1015 31.6537 18.5278C32.2057 18.9418 32.7884 19.3427 33.5868 20.1761C33.8188 20.5136 33.9966 20.7989 34.1914 21.082C34.2808 21.2246 34.351 21.3651 34.5299 21.6164" stroke="#AFECB2" stroke-width="6.72" stroke-linecap="round"/>
<path d="M18.8599 39.3516C19.1079 39.705 19.4602 40.201 20.0286 40.5038C20.5885 40.8021 21.2698 40.9121 21.8382 41.0366C22.3959 41.1588 22.9729 41.2314 23.5414 41.2852C24.1548 41.3432 26.9604 41.4805 28.6508 41.3746C29.245 41.3373 29.7855 40.9142 30.4422 40.5241C31.0288 40.0626 31.595 39.5666 32.0575 39.0344C32.1645 38.8917 32.2699 38.7512 32.4849 38.5" stroke="#AFECB2" stroke-width="6.72" stroke-linecap="round"/>
<path d="M20.7598 26.1758V26.4638" stroke="#0D0D0D" stroke-width="2.5" stroke-linecap="round"/>
<path d="M27.96 26V26.192" stroke="#0D0D0D" stroke-width="2.5" stroke-linecap="round"/>
<path d="M18.3599 33.5363C18.4424 33.2473 18.6501 32.9127 18.9415 32.6106C19.1232 32.4223 19.3181 32.4105 19.4948 32.4311C19.9313 32.4821 20.3588 32.847 20.725 33.0456C21.0503 33.222 21.3395 33.4938 21.7254 33.5157C22.237 33.5447 22.7568 32.8495 23.2672 32.4955C23.7327 32.1726 24.3405 32.0352 24.8299 32.0662C25.3677 32.1002 25.6552 32.5343 26.093 32.7745C26.2769 32.8754 26.7579 32.9108 27.3933 32.8799C27.9136 32.8545 28.157 32.453 28.8225 32.0268C29.7872 31.4088 30.4074 31.4723 30.8052 31.5448C30.9716 31.6174 31.1392 31.7012 31.2952 31.7947C31.3687 31.8469 31.4307 31.9089 31.6821 32.0977" stroke="#0D0D0D" stroke-width="2" stroke-linecap="round"/>
<path d="M23.5394 8.15128C22.5679 8.20818 21.6437 8.37597 19.7134 9.2282C18.1883 9.90152 15.6303 11.2268 14.2086 11.9587C12.1425 13.0222 11.4534 13.5992 10.5801 14.2659C9.52315 15.0728 9.25627 15.7383 8.82261 16.668C8.74079 16.8434 8.92837 16.924 9.12606 16.9261C10.0298 16.9358 10.9039 16.7791 11.7467 16.5712C12.489 16.3881 14.1643 15.4294 15.4122 14.6636C16.4515 14.0258 16.9696 13.6679 17.5333 13.3779C18.2167 13.0263 18.7162 12.5713 19.3837 12.1156C20.1162 11.6154 20.9081 10.9866 21.5376 10.4907C22.0679 10.073 22.4842 9.68201 22.8826 9.24862C22.9943 9.14581 23.1202 9.05257 23.2563 8.86398C23.3925 8.67539 23.5351 8.39428 23.4928 8.0086" stroke="#FFA24F" stroke-width="4.5" stroke-linecap="round"/>
<path d="M26.8204 12.41C26.6922 12.7401 25.7076 14.8375 24.6243 16.3498C23.8856 17.381 21.9335 18.4521 20.9538 19.0506C20.2442 19.484 19.7545 19.7721 18.5584 20.3726C17.6788 20.8142 17.025 21.084 16.4223 21.3347C15.4986 21.7188 14.5529 21.8934 13.8551 22.016C13.189 22.0762 12.5582 22.0715 11.9481 22.0214C11.7972 22.0043 11.6406 22.0034 11.4792 22.0025" stroke="#FFA24F" stroke-width="4.5" stroke-linecap="round"/>
<path d="M8.53917 19.1689C8.79092 19.1395 9.48655 18.8593 11.417 18.2155C12.4088 17.8847 13.2134 17.4583 13.904 17.2315C14.6209 16.996 15.3233 16.5841 15.9509 16.2867C16.5976 15.9801 17.4644 15.5687 18.1405 15.2553C18.721 14.9864 19.3066 14.6777 20.1228 14.3182C20.9656 13.947 21.5918 13.3783 22.2905 13.0181C23.4455 12.4227 23.8327 11.8565 24.3498 11.4637C24.9051 11.0419 25.4222 10.6802 26.0894 10.1451C26.6788 9.76815 27.0122 9.50052 27.2735 9.37604C27.3936 9.29772 27.4882 9.18863 27.5857 9.07623" stroke="#EC0808" stroke-width="6.3" stroke-linecap="round"/>
<path d="M30.021 8.4454C29.221 8.03947 27.708 7.40566 27.4783 7.57023C26.9915 7.91913 26.7223 8.28018 26.4684 8.66989C26.2611 8.9882 26.1671 9.28514 26.1873 9.57583C26.2626 10.6549 26.7405 11.0414 26.7791 11.4554C26.7959 11.6358 26.6833 11.7795 26.5571 11.8955C26.2404 12.1866 25.5594 12.2226 24.9915 12.2738C23.9967 12.3634 23.428 11.9327 22.4555 11.8315C21.4877 11.7309 21.0257 12.4008 20.4046 13.0663C19.6271 13.8991 19.895 14.4452 19.7623 15.0185C19.5892 15.767 18.9692 16.2749 18.5504 16.479C17.9924 16.7511 17.232 16.6347 16.3801 16.3838C15.6227 16.1606 15.0149 15.8033 14.6199 15.7605C14.0072 15.6941 12.8752 16.2911 12.1848 16.7337C11.6058 17.1049 11.6554 18.895 11.7114 19.7965C11.7394 20.2464 11.3254 20.4933 11.15 20.573C10.7408 20.6255 10.2648 20.497 9.60986 20.1985C9.10597 19.9543 8.2538 19.5219 7.29551 18.968" stroke="#FF0004" stroke-width="0.54" stroke-linecap="round"/>
<path d="M28.6534 7.00794C28.7756 7.60978 28.7729 8.14828 28.5496 8.78962C28.3753 9.29023 28.1082 9.59425 27.9061 9.70516C27.1208 10.1362 26.1553 9.97929 25.764 9.99452C25.1668 10.0177 24.3219 10.1287 23.7968 10.3375C23.3053 10.533 22.8117 11.0997 22.4887 11.713C22.3022 12.0671 22.3519 12.5792 22.3263 13.165C22.3103 13.5317 21.9493 14.2205 21.545 14.708C21.2219 15.0976 20.7922 15.0824 20.364 15.2142C19.9725 15.3348 19.2215 15.0742 18.6166 14.9709C17.9859 14.8632 17.5836 14.7396 16.9731 14.7001C16.3142 14.6575 15.6159 14.9778 14.9359 15.4013C14.3001 15.7972 14.0919 16.552 13.3614 17.9243C13.046 18.5168 12.497 18.7193 12.0956 18.8437C11.666 18.9769 11.2097 18.9469 10.5807 18.9207C9.95116 18.8048 9.37661 18.6932 8.84604 18.6496C8.72808 18.6354 8.64806 18.6172 8.34962 18.624" stroke="#FFF200" stroke-width="0.54" stroke-linecap="round"/>
<path d="M11.0712 12.7629C10.9451 12.9428 10.819 13.1226 10.7051 13.2775C10.5911 13.4323 10.4932 13.5568 10.3922 13.685" stroke="#ED7003" stroke-width="0.54" stroke-linecap="round"/>
<path d="M13.6431 12.0625L13.2597 12.8179" stroke="#ED7003" stroke-width="0.54" stroke-linecap="round"/>
<path d="M16.0488 11.0674L15.8359 11.4871" stroke="#ED7003" stroke-width="0.54" stroke-linecap="round"/>
<path d="M18.8799 9.23145L18.3262 10.3226" stroke="#ED7003" stroke-width="0.54" stroke-linecap="round"/>
<path d="M21.7461 8.5752L21.5331 8.99488" stroke="#ED7003" stroke-width="0.54" stroke-linecap="round"/>
<path d="M13.1123 22.3447L12.861 22.84" stroke="#ED7003" stroke-width="0.54" stroke-linecap="round"/>
<path d="M16.895 21.0254L16.5432 21.7187" stroke="#ED7003" stroke-width="0.54" stroke-linecap="round"/>
<path d="M19.7319 20.0986L19.3801 20.792" stroke="#ED7003" stroke-width="0.54" stroke-linecap="round"/>
<path d="M22.4741 18.377L22.2716 19.0215" stroke="#ED7003" stroke-width="0.54" stroke-linecap="round"/>
</svg>
