<svg width="50" height="41" viewBox="0 0 50 41" fill="none" xmlns="http://www.w3.org/2000/svg">
<path d="M13.0257 18.7475C11.8421 18.6912 9.10993 18.9146 7.80014 19.7111C6.72072 20.3674 5.19077 21.923 4.15982 23.064C3.28731 24.0296 3.4205 25.392 3.36081 28.4285C3.3316 29.9148 3.98331 30.7949 4.52479 31.7056C5.07471 32.6305 6.197 33.3531 8.10116 34.3209C10.0647 35.319 13.1348 34.4957 14.3551 34.0421C16.7941 33.1353 17.8521 32.5652 18.6512 31.854C19.6454 30.969 19.9601 29.2702 20.4428 26.9755C21.0294 24.1862 20.4735 22.1038 20.3319 21.6502C19.9009 20.2688 18.0329 19.2045 16.9525 19.0323C15.8475 18.8561 14.9631 18.6349 11.3629 18.6613C10.3269 18.6689 9.73243 19.37 8.96667 19.9652C7.42569 21.163 7.5682 25.1464 8.24697 28.6008C8.45814 29.6755 9.15768 30.2287 9.7239 30.5698C11.0916 31.3936 12.6778 29.4407 13.9586 28.3885C15.0189 27.5174 15.4116 26.1986 15.6956 25.4329C15.9494 24.7486 15.925 23.5876 15.5029 23.2098C13.7122 21.6073 13.0291 27.8342 12.3205 28.1855C9.91359 29.3788 11.0934 23.8042 11.0081 24.3994C10.9791 24.7132 10.9791 25.0509 11.0354 25.3374C11.0917 25.6239 11.2042 25.849 11.3202 26.081" stroke="#AFECB2" stroke-width="6.72" stroke-linecap="round"/>
<path d="M30.7355 17.5988C28.6515 17.5988 22.9654 17.8239 20.9342 18.3637C19.5293 18.737 19.4249 21.2826 19.1674 23.2745C18.9285 25.1218 19.3072 26.8594 19.6475 27.7966C20.0832 28.9967 21.3521 29.8167 22.2048 30.2746C23.1932 30.8054 24.1934 31.0719 25.892 31.2135C28.6999 31.4475 31.2966 30.5671 32.5177 29.2906C34.0095 27.7311 33.7474 25.9078 33.8335 24.7088C33.9398 23.2289 33.7508 21.303 33.3236 20.0188C33.0049 19.0608 32.0487 18.1718 30.9393 17.487C29.5281 16.616 28.0716 16.6914 26.5341 16.5473C24.0501 16.3145 20.281 16.7426 19.482 17.4256C18.7169 18.0797 18.3436 19.1848 17.6631 20.776C17.0751 22.1512 16.9792 23.5611 16.9775 26.3427C16.9765 28.0335 17.658 29.1345 18.1415 30.0452C18.6673 31.0356 19.4761 31.7507 20.4703 32.3775C21.3012 32.9012 22.5425 32.89 27.3058 32.8635C29.3142 32.8524 30.2751 31.9281 31.2438 31.2732C32.0814 30.7069 33.2289 29.827 34.1439 28.6604C35.0411 27.5166 35.1663 25.6247 35.2559 23.8015C35.3277 22.3385 33.3585 21.4702 31.8236 20.8127C30.1405 20.0918 27.3399 20.3275 24.8125 20.4963C23.2722 20.5992 22.6653 21.6885 22.1835 22.5659C20.9183 24.8701 21.1849 26.6309 21.3819 27.5698C22.1626 31.2906 29.54 21.7516 29.6833 21.494C30.9778 19.167 27.0978 27.7139 27.2095 28.1982C28.4025 27.4939 29.1409 26.4706 29.6798 26.0715C29.9374 26.0101 30.1625 26.2352 30.565 26.4672" stroke="#AFECB2" stroke-width="6.72" stroke-linecap="round"/>
<path d="M40.6402 15.737C36.6101 15.5664 34.6779 15.679 33.5096 16.0482C33.0298 16.1999 32.4573 16.5863 31.8894 17.2386C31.0516 18.201 31.2601 22.129 31.4579 24.6855C31.5968 26.4805 32.3959 27.7844 32.963 28.8085C33.4701 29.7243 34.6096 30.0049 36.1693 30.4875C37.7087 30.9639 39.1581 30.4057 39.8394 30.0654C40.8187 29.5764 41.602 28.4768 42.3431 27.3384C43.1212 26.143 43.1404 24.5542 43.1139 20.9813C43.1079 20.1702 42.8607 19.8369 42.4642 19.4941C40.5008 17.7968 37.584 17.5584 36.2094 17.3009C35.3103 17.1324 31.6899 17.1013 29.2178 17.8364C27.5243 18.3399 27.9072 21.3548 27.8773 24.3385C27.8602 26.0527 28.7565 26.9316 29.7772 28.2943C31.0961 30.055 31.7683 30.7416 32.6773 31.1416C33.8892 31.6748 37.144 31.9389 39.7243 31.3735C41.7647 30.9265 42.8504 29.7832 44.0187 28.9859C45.1667 28.2023 45.7531 27.0544 46.2384 25.7191C47.005 23.6092 46.2136 20.062 45.8717 19.095C45.3615 17.6524 43.9419 16.8762 42.72 16.3356C41.6444 15.8597 39.1803 16.0781 36.8378 16.9265C36.0031 17.2289 35.6397 18.3463 35.2986 19.396C35.0241 20.241 35.239 21.0205 35.3805 21.6447C35.4466 21.9362 35.5783 22.1563 35.8052 22.1879C36.3806 22.2679 36.8864 21.5952 37.1985 21.0282C37.7566 20.0142 34.5619 27.433 34.0468 29.8847C33.9516 30.338 33.9889 30.6257 34.1577 30.4611C36.6449 28.0367 38.8767 24.7214 39.0754 24.4928C39.8797 23.5677 39.6169 27.3887 39.7294 27.5891C39.9527 27.9865 40.4679 26.7116 40.7237 26.1727C40.8107 25.9152 40.8107 25.6901 40.7263 25.4334C40.6419 25.1767 40.473 24.8953 39.958 24.0937" stroke="#AFECB2" stroke-width="6.72" stroke-linecap="round"/>
<path d="M16.8599 15.7531C17.1036 15.2613 18.3118 14.1223 18.8802 13.7498C19.4585 13.3707 20.1214 13.1281 20.76 12.8625C21.6684 12.4848 22.3205 12.383 23.294 12.2584C26.268 11.878 28.0686 12.7002 28.6732 12.8961C29.7335 13.2395 31.0853 14.2607 31.6537 14.687C32.2057 15.101 32.7884 15.5019 33.5868 16.3353C33.8188 16.6728 33.9966 16.958 34.1914 17.2412C34.2808 17.3838 34.351 17.5243 34.5299 17.7755" stroke="#AFECB2" stroke-width="6.72" stroke-linecap="round"/>
<path d="M18.8599 35.5107C19.1079 35.8641 19.4602 36.3602 20.0286 36.663C20.5885 36.9613 21.2698 37.0712 21.8382 37.1958C22.3959 37.318 22.9729 37.3906 23.5414 37.4443C24.1548 37.5023 26.9604 37.6397 28.6508 37.5338C29.245 37.4965 29.7855 37.0734 30.4422 36.6832C31.0288 36.2218 31.595 35.7258 32.0575 35.1935C32.1645 35.0509 32.2699 34.9104 32.4849 34.6592" stroke="#AFECB2" stroke-width="6.72" stroke-linecap="round"/>
<path d="M20.7598 22.335V22.623" stroke="#0D0D0D" stroke-width="2.5" stroke-linecap="round"/>
<path d="M27.96 22.1592V22.3512" stroke="#0D0D0D" stroke-width="2.5" stroke-linecap="round"/>
<path d="M18.3599 29.6955C18.4424 29.4065 18.6501 29.0719 18.9415 28.7698C19.1232 28.5815 19.3181 28.5697 19.4948 28.5903C19.9313 28.6413 20.3588 29.0062 20.725 29.2048C21.0503 29.3812 21.3395 29.6529 21.7254 29.6748C22.237 29.7039 22.7568 29.0087 23.2672 28.6547C23.7327 28.3318 24.3405 28.1944 24.8299 28.2253C25.3677 28.2594 25.6552 28.6935 26.093 28.9337C26.2769 29.0346 26.7579 29.07 27.3933 29.0391C27.9136 29.0137 28.157 28.6122 28.8225 28.1859C29.7872 27.568 30.4074 27.6315 30.8052 27.704C30.9716 27.7766 31.1392 27.8604 31.2952 27.9539C31.3687 28.0061 31.4307 28.068 31.6821 28.2569" stroke="#0D0D0D" stroke-width="2" stroke-linecap="round"/>
<path d="M16.6689 11.0993C16.4601 9.62612 16.3745 7.47086 16.534 6.88866C16.7063 6.25999 16.9124 5.81576 17.1468 5.33435C17.4834 4.64289 17.9299 4.22579 18.5103 3.64797C18.9848 3.1756 19.7837 2.878 20.2905 2.63436C20.9295 2.32716 23.0699 2.08623 24.752 2.35731C25.5542 2.48659 26.2363 2.91113 26.7148 3.25076C27.1314 3.54654 27.4186 4.06879 27.5659 4.53117C27.7021 4.95853 27.9567 5.3906 28.1398 5.96709C28.2981 6.46567 28.4697 7.91487 28.3311 9.01678C28.2629 9.55918 27.776 9.88217 27.3012 10.1617C26.9952 10.3419 26.6658 10.4285 25.4037 10.6187C24.2721 10.7892 22.1203 10.9348 20.9348 11.0132C19.592 11.1021 19.3194 10.9977 19.103 10.9251C18.8479 10.8397 18.703 10.579 18.591 10.3528C18.2405 9.64428 18.7198 8.13595 19.1122 7.47677C19.394 7.00344 19.7894 6.50981 20.1859 6.22338C20.5728 5.94379 21.6258 5.61048 23.1769 5.4063C23.7692 5.32832 24.2473 5.43003 25.0462 5.68772C25.355 5.78731 25.5365 6.00025 25.6876 6.22304C25.8548 6.46949 25.8642 7.0216 25.8771 7.61228C25.8822 7.8417 25.7875 7.92538 25.651 8.01676C25.3311 8.23101 25.0073 8.33761 24.7518 8.41264C24.398 8.51651 22.7834 8.63938 20.5728 8.78166C19.7611 8.8339 19.5774 8.81686 19.4385 8.75053C19.2996 8.6842 19.2106 8.56175 19.1602 8.44695C19.1098 8.33216 19.1007 8.22873 19.1303 8.12032C19.3181 7.43074 20.3594 6.72333 20.8832 6.37277C21.5111 5.95256 22.4739 5.0367 23.2795 4.6088C23.9527 4.25124 24.4033 4.20657 24.8205 4.15599C25.3033 4.09745 25.8457 4.44586 26.3575 4.72964C27.331 5.26941 27.6871 5.91499 27.9202 6.31611C28.1395 6.69341 28.2677 7.12725 28.3837 7.53869C28.634 8.42669 28.6585 9.7523 28.586 9.82541C28.2263 10.188 28.7379 8.87986 28.8452 8.44874C28.9548 8.00877 29.0413 7.53759 29.0756 6.8776C29.1518 5.40815 28.6629 5.01726 28.4689 4.61269C28.2487 4.1533 27.7438 3.83483 27.3011 3.59628C26.8588 3.35794 26.4233 3.18682 25.9933 3.09244C25.5704 2.99962 25.0666 3.01578 24.6482 3.19596C24.46 3.27704 24.5393 3.63552 24.5826 3.83148C24.6995 4.36014 25.4075 4.56343 25.9483 4.71398C26.7339 4.93271 27.2651 5.32046 27.7794 5.77538C28.2551 6.19617 28.4013 6.85173 28.719 7.46887C28.9496 7.91666 28.9868 8.40626 29.1016 8.8178C29.4036 9.90013 29.321 11.5898 29.1172 11.6603C28.4462 11.8923 27.3798 11.9449 26.8215 12.0339C26.6524 12.0609 26.448 12.1059 25.1532 12.2334C23.8584 12.361 21.4795 12.5706 20.1989 12.6443C18.5893 12.737 18.1627 12.4949 17.6749 12.3408C17.5638 12.2847 17.4794 12.214 17.3713 12.1832C17.2631 12.1525 17.1338 12.1639 17.0006 12.1756" stroke="#8B4A2A" stroke-width="4.48" stroke-linecap="round"/>
<path d="M22.5141 3.95056C21.8835 3.92716 21.0177 4.26403 20.4837 4.62852C19.8524 5.05935 19.4148 5.19648 19.0802 5.59354C18.9734 5.72032 19.0612 5.98727 19.1505 6.11324C19.4773 6.57434 21.6129 6.16198 22.7693 5.96849C23.2157 5.8938 23.4228 5.32026 23.6796 4.9415C23.9195 4.58769 23.8001 4.2068 23.7334 4.04171C23.4948 3.45072 22.1665 4.16438 21.7677 4.42339C21.5719 4.58475 21.3758 4.76075 21.18 4.9225C21.0808 4.99757 20.9819 5.0584 20.88 5.12107" stroke="#A99124" stroke-width="4.48" stroke-linecap="round"/>
<path d="M15.3 14.5301C15.2481 14.5347 15.1174 14.5462 14.9657 14.625C14.8907 14.664 14.9293 14.8245 14.9895 14.9128C15.2324 15.2696 15.856 15.1681 17.232 15.0607C18.3758 14.9715 19.8346 14.7128 21.3762 14.5369C22.5048 14.4081 23.8084 14.204 24.7625 14.0799C25.0124 14.0474 25.2435 13.9982 26.272 13.8941C27.3004 13.79 29.1187 13.6298 30.1062 13.5297C31.1954 13.3944 31.404 13.3491 31.6122 13.3177C31.7165 13.2954 31.8181 13.2602 31.9946 13.1384" stroke="#4B3429" stroke-width="1.792" stroke-linecap="round"/>
<path d="M14.6806 11.9582C14.8895 11.9635 15.3122 12.003 15.7083 12.0354C16.0569 12.0638 16.4707 12.0642 16.8746 12.0289C17.3629 11.9862 17.5516 11.8351 17.8979 11.7397C17.9764 11.7181 18.0908 11.7058 18.196 11.7036C18.692 11.6931 18.9108 11.7818 19.2288 11.8164C19.3807 11.8329 19.5718 11.8391 19.7807 11.8351C19.9778 11.8313 20.2469 11.7704 20.6331 11.6906C21.0747 11.5994 21.4548 11.5006 21.8579 11.4553C22.3772 11.3968 22.5845 11.5206 22.851 11.5644C22.9837 11.5862 23.2708 11.5707 23.5052 11.5573C23.9196 11.5337 24.1982 11.3934 24.8767 11.2162C25.1464 11.1458 25.4326 11.1115 25.6926 11.0934C26.2042 11.0577 26.4826 11.129 26.8781 11.1544C27.0635 11.1663 27.2985 11.1582 27.5067 11.1472C27.9621 11.1229 28.2002 10.9832 28.5075 10.896C28.6771 10.848 28.8401 10.8018 29.0855 10.7705C29.6839 10.6943 30.0944 10.7725 30.5409 10.7694C30.638 10.7687 30.7483 10.7488 30.839 10.7289C31.2099 10.6219 31.5427 10.5254 31.6951 10.4736C31.7718 10.4476 31.8474 10.4219 32.0789 10.3531" stroke="#FCFCFC" stroke-width="4.48" stroke-linecap="round"/>
<path d="M19.5716 4.52679L19.2368 5.48871" stroke="#A66B38" stroke-width="0.224" stroke-linecap="round"/>
<path d="M21.455 4.73323C21.4518 4.87197 21.4486 5.01071 21.4504 5.12035C21.4521 5.22999 21.4588 5.30632 21.4658 5.38497" stroke="#A66B38" stroke-width="0.224" stroke-linecap="round"/>
<path d="M24.0635 4.17676C24.0648 4.19202 24.0662 4.20729 24.1456 4.3236C24.2251 4.43991 24.3827 4.6568 24.5491 4.92652" stroke="#A66B38" stroke-width="0.224" stroke-linecap="round"/>
<path d="M23.6088 5.89534L23.6114 6.45456" stroke="#A66B38" stroke-width="0.224" stroke-linecap="round"/>
<path d="M20.1538 6.89941L20.7552 6.84642" stroke="#A66B38" stroke-width="0.224" stroke-linecap="round"/>
<path d="M20.2211 3.95603C20.4559 3.82764 20.6908 3.69926 20.8416 3.62279C20.9925 3.54633 21.0522 3.52568 21.1211 3.51168C21.19 3.49768 21.2664 3.49096 21.345 3.48403" stroke="#A66B38" stroke-width="0.224" stroke-linecap="round"/>
<path d="M22.8426 4.61116C22.8422 4.78043 22.8417 4.94971 22.8448 5.07508C22.848 5.20045 22.8547 5.27678 22.8616 5.35542" stroke="#A66B38" stroke-width="0.224" stroke-linecap="round"/>
<path d="M18.4419 6.52735C18.5889 6.48702 18.7359 6.44669 18.8709 6.40016C19.006 6.35363 19.1246 6.30212 19.2191 6.2658C19.3136 6.22948 19.3803 6.20991 19.4454 6.1486" stroke="#A66B38" stroke-width="0.224" stroke-linecap="round"/>
<path d="M22.5524 6.57939C22.4988 6.74835 22.4453 6.91731 22.4065 7.03271C22.3678 7.1481 22.3454 7.20482 22.3295 7.2618C22.3135 7.31878 22.3047 7.3743 22.2957 7.43151" stroke="#A66B38" stroke-width="0.224" stroke-linecap="round"/>
</svg>
