<svg width="50" height="45" viewBox="0 0 50 45" fill="none" xmlns="http://www.w3.org/2000/svg">
<path d="M13.0257 22.5883C11.8421 22.532 9.10993 22.7554 7.80014 23.5519C6.72072 24.2082 5.19077 25.7639 4.15982 26.9048C3.28731 27.8704 3.4205 29.2328 3.36081 32.2694C3.3316 33.7556 3.98331 34.6357 4.52479 35.5464C5.07471 36.4713 6.197 37.1939 8.10116 38.1618C10.0647 39.1598 13.1348 38.3366 14.3551 37.8829C16.7941 36.9762 17.8521 36.406 18.6512 35.6948C19.6454 34.8098 19.9601 33.111 20.4428 30.8163C21.0294 28.027 20.4735 25.9446 20.3319 25.491C19.9009 24.1096 18.0329 23.0454 16.9525 22.8731C15.8475 22.6969 14.9631 22.4757 11.3629 22.5022C10.3269 22.5098 9.73243 23.2108 8.96667 23.806C7.42569 25.0038 7.5682 28.9872 8.24697 32.4416C8.45814 33.5163 9.15768 34.0695 9.7239 34.4106C11.0916 35.2345 12.6778 33.2816 13.9586 32.2293C15.0189 31.3582 15.4116 30.0395 15.6956 29.2737C15.9494 28.5894 15.925 27.4284 15.5029 27.0506C13.7122 25.4481 13.0291 31.675 12.3205 32.0263C9.91359 33.2196 11.0934 27.645 11.0081 28.2402C10.9791 28.554 10.9791 28.8917 11.0354 29.1782C11.0917 29.4647 11.2042 29.6899 11.3202 29.9218" stroke="#AFECB2" stroke-width="6.72" stroke-linecap="round"/>
<path d="M30.7355 21.4396C28.6515 21.4396 22.9654 21.6647 20.9342 22.2045C19.5293 22.5778 19.4249 25.1234 19.1674 27.1154C18.9285 28.9626 19.3072 30.7002 19.6475 31.6374C20.0832 32.8375 21.3521 33.6575 22.2048 34.1154C23.1932 34.6462 24.1934 34.9128 25.892 35.0543C28.6999 35.2883 31.2966 34.4079 32.5177 33.1314C34.0095 31.5719 33.7474 29.7486 33.8335 28.5497C33.9398 27.0697 33.7508 25.1438 33.3236 23.8596C33.0049 22.9016 32.0487 22.0126 30.9393 21.3279C29.5281 20.4568 28.0716 20.5323 26.5341 20.3882C24.0501 20.1553 20.281 20.5834 19.482 21.2665C18.7169 21.9205 18.3436 23.0257 17.6631 24.6169C17.0751 25.992 16.9792 27.4019 16.9775 30.1835C16.9765 31.8743 17.658 32.9753 18.1415 33.8861C18.6673 34.8764 19.4761 35.5915 20.4703 36.2183C21.3012 36.742 22.5425 36.7308 27.3058 36.7044C29.3142 36.6932 30.2751 35.7689 31.2438 35.114C32.0814 34.5477 33.2289 33.6678 34.1439 32.5012C35.0411 31.3574 35.1663 29.4655 35.2559 27.6424C35.3277 26.1793 33.3585 25.311 31.8236 24.6535C30.1405 23.9326 27.3399 24.1683 24.8125 24.3372C23.2722 24.44 22.6653 25.5293 22.1835 26.4067C20.9183 28.7109 21.1849 30.4717 21.3819 31.4106C22.1626 35.1314 29.54 25.5924 29.6833 25.3349C30.9778 23.0078 27.0978 31.5547 27.2095 32.039C28.4025 31.3347 29.1409 30.3114 29.6798 29.9123C29.9374 29.8509 30.1625 30.0761 30.565 30.308" stroke="#AFECB2" stroke-width="6.72" stroke-linecap="round"/>
<path d="M40.6402 19.5778C36.6101 19.4072 34.6779 19.5198 33.5096 19.889C33.0298 20.0407 32.4573 20.4271 31.8894 21.0794C31.0516 22.0418 31.2601 25.9699 31.4579 28.5264C31.5968 30.3214 32.3959 31.6252 32.963 32.6493C33.4701 33.5651 34.6096 33.8457 36.1693 34.3284C37.7087 34.8047 39.1581 34.2465 39.8394 33.9063C40.8187 33.4172 41.602 32.3176 42.3431 31.1792C43.1212 29.9839 43.1404 28.3951 43.1139 24.8221C43.1079 24.011 42.8607 23.6777 42.4642 23.3349C40.5008 21.6376 37.584 21.3992 36.2094 21.1417C35.3103 20.9733 31.6899 20.9422 29.2178 21.6772C27.5243 22.1808 27.9072 25.1956 27.8773 28.1793C27.8602 29.8936 28.7565 30.7725 29.7772 32.1351C31.0961 33.8958 31.7683 34.5825 32.6773 34.9824C33.8892 35.5156 37.144 35.7797 39.7243 35.2143C41.7647 34.7673 42.8504 33.624 44.0187 32.8267C45.1667 32.0432 45.7531 30.8953 46.2384 29.5599C47.005 27.45 46.2136 23.9028 45.8717 22.9359C45.3615 21.4932 43.9419 20.717 42.72 20.1764C41.6444 19.7005 39.1803 19.9189 36.8378 20.7673C36.0031 21.0697 35.6397 22.1871 35.2986 23.2369C35.0241 24.0818 35.239 24.8613 35.3805 25.4855C35.4466 25.7771 35.5783 25.9972 35.8052 26.0287C36.3806 26.1087 36.8864 25.4361 37.1985 24.869C37.7566 23.8551 34.5619 31.2739 34.0468 33.7255C33.9516 34.1788 33.9889 34.4665 34.1577 34.3019C36.6449 31.8775 38.8767 28.5622 39.0754 28.3337C39.8797 27.4085 39.6169 31.2295 39.7294 31.4299C39.9527 31.8273 40.4679 30.5525 40.7237 30.0135C40.8107 29.756 40.8107 29.5309 40.7263 29.2742C40.6419 29.0175 40.473 28.7361 39.958 27.9346" stroke="#AFECB2" stroke-width="6.72" stroke-linecap="round"/>
<path d="M16.8599 19.5939C17.1036 19.1021 18.3118 17.9631 18.8802 17.5906C19.4585 17.2115 20.1214 16.9689 20.76 16.7034C21.6684 16.3256 22.3205 16.2238 23.294 16.0993C26.268 15.7188 28.0686 16.541 28.6732 16.7369C29.7335 17.0804 31.0853 18.1015 31.6537 18.5278C32.2057 18.9418 32.7884 19.3427 33.5868 20.1761C33.8188 20.5136 33.9966 20.7989 34.1914 21.082C34.2808 21.2246 34.351 21.3651 34.5299 21.6164" stroke="#AFECB2" stroke-width="6.72" stroke-linecap="round"/>
<path d="M18.8599 39.3516C19.1079 39.705 19.4602 40.201 20.0286 40.5038C20.5885 40.8021 21.2698 40.9121 21.8382 41.0366C22.3959 41.1588 22.9729 41.2314 23.5414 41.2852C24.1548 41.3432 26.9604 41.4805 28.6508 41.3746C29.245 41.3373 29.7855 40.9142 30.4422 40.5241C31.0288 40.0626 31.595 39.5666 32.0575 39.0344C32.1645 38.8917 32.2699 38.7512 32.4849 38.5" stroke="#AFECB2" stroke-width="6.72" stroke-linecap="round"/>
<path d="M20.7598 26.1758V26.4638" stroke="#0D0D0D" stroke-width="2.5" stroke-linecap="round"/>
<path d="M27.96 26V26.192" stroke="#0D0D0D" stroke-width="2.5" stroke-linecap="round"/>
<path d="M18.3599 33.5363C18.4424 33.2473 18.6501 32.9127 18.9415 32.6106C19.1232 32.4223 19.3181 32.4105 19.4948 32.4311C19.9313 32.4821 20.3588 32.847 20.725 33.0456C21.0503 33.222 21.3395 33.4938 21.7254 33.5157C22.237 33.5447 22.7568 32.8495 23.2672 32.4955C23.7327 32.1726 24.3405 32.0352 24.8299 32.0662C25.3677 32.1002 25.6552 32.5343 26.093 32.7745C26.2769 32.8754 26.7579 32.9108 27.3933 32.8799C27.9136 32.8545 28.157 32.453 28.8225 32.0268C29.7872 31.4088 30.4074 31.4723 30.8052 31.5448C30.9716 31.6174 31.1392 31.7012 31.2952 31.7947C31.3687 31.8469 31.4307 31.9089 31.6821 32.0977" stroke="#0D0D0D" stroke-width="2" stroke-linecap="round"/>
<path d="M11.3125 10.2233C11.3125 9.67642 11.984 6.97784 12.836 4.40134C12.9629 4.01781 13.1743 3.95115 13.3447 3.97087C14.208 4.07073 14.7436 5.21778 15.6751 6.34007C16.3868 7.19749 16.9895 8.01556 17.9203 8.61073C18.8447 9.20169 20.0835 8.61327 20.8237 8.46512C23.8673 7.85586 28.267 8.31569 28.5633 8.21077C29.3007 7.94969 29.9152 6.12325 30.6407 5.03275C30.8481 4.72104 31.15 4.45984 31.4247 4.18452C31.5543 4.05458 31.7414 4.03509 31.9118 4.05544C32.7876 4.16002 33.7736 5.59676 34.5824 6.49014C34.9207 6.78708 35.2195 7.08466 35.4732 7.40196C35.601 7.55139 35.7269 7.67729 35.8566 7.93417" stroke="#CEB6A1" stroke-width="4" stroke-linecap="round"/>
<path d="M11.4396 11.7496C10.2544 12.0879 9.2421 12.7619 8.51658 13.5484C7.91105 14.2049 7.92205 15.0942 7.8998 15.8585C7.86942 16.9016 8.6393 17.7241 9.29614 18.4445C10.053 19.2747 12.106 19.6317 13.3224 19.8034C13.9809 19.8963 16.4209 20.0157 19.7045 19.9948C21.2687 19.9848 21.8652 19.8886 23.0231 19.8256C25.4855 19.6918 27.2496 19.4651 27.6299 19.4015C29.2649 19.1281 32.3263 18.7033 34.0705 18.3428C35.6542 18.0154 36.701 17.2205 37.5276 16.6482C38.5645 15.9304 38.9062 15.0586 39.247 14.2962C39.5952 13.5173 39.4174 12.3498 38.9748 11.3503C38.5323 10.8645 38.147 10.4791 37.8513 10.2464C37.6815 10.1396 37.4717 10.0557 36.874 9.71484" stroke="#CEB6A1" stroke-width="4" stroke-linecap="round"/>
<path d="M28.7192 6.83848C28.912 6.3547 29.4318 5.51077 29.7725 4.99098C30.1038 4.48541 30.4694 4.01759 30.7785 3.54695C31.133 3.00709 31.6375 2.39591 32.0273 2.06934C32.5036 1.67031 33.0333 3.10454 33.374 3.54354C33.726 3.99715 33.9736 4.56463 34.3474 5.01969C34.8034 5.57484 35.0443 6.31674 35.3373 6.83653C35.6615 7.48481 35.9866 8.13504 36.1 8.39396C36.1492 8.5244 36.1813 8.65288 36.409 9.07728" stroke="#CEB6A1" stroke-width="4" stroke-linecap="round"/>
<path d="M36.6038 8.88281C37.5081 8.88281 38.7413 9.07555 39.3434 9.43327C39.6205 9.5979 39.9123 9.66055 40.1065 9.87081C40.5317 10.3311 40.6258 10.9892 40.7728 11.6536C41.0506 12.9091 40.4331 13.5843 40.1416 14.0564C39.8636 14.5065 39.7206 15.0132 39.4115 15.5647C39.1357 16.0568 38.5214 16.5045 37.8069 16.9445C37.2805 17.2686 36.7362 17.4798 36.0548 17.8205C35.5141 18.0908 34.9841 18.2585 34.4643 18.4376C33.9055 18.6302 33.3293 18.7783 32.7934 18.8435C32.1753 18.9188 31.546 19.1346 30.8471 19.2816C30.1586 19.4264 29.6304 19.4928 28.8215 19.5736C26.7511 19.7804 25.9646 19.7848 25.3635 19.8656C24.6052 19.9675 24.0178 19.9795 23.2873 20.0603C22.6233 20.1337 21.01 20.1742 19.0292 20.255C15.9781 20.3794 13.7631 20.2394 13.4395 20.1747C12.6078 20.0083 11.6226 19.9483 11.0707 19.6724C10.7154 19.4947 10.3884 19.2991 10.1455 19.1049C10.0311 19.0071 9.93476 18.9107 9.54346 18.6167" stroke="#CEB6A1" stroke-width="4" stroke-linecap="round"/>
<path d="M12.2688 12.6789C12.2688 12.7431 11.5942 14.0611 10.7328 15.7188C10.1502 16.8397 11.9437 13.882 12.2513 13.4109C12.7237 12.6872 13.1098 11.2597 13.3872 10.3938C13.6558 9.55548 14.0851 9.11236 14.2959 8.59257C14.3482 8.4634 14.3771 8.33365 14.3937 8.44413C14.5449 9.45359 13.6705 11.7834 12.9526 13.5335C12.0904 15.6356 11.6867 16.4712 11.5222 16.9448C11.226 17.7974 13.3687 15.7645 14.8419 14.6145C16.2928 13.4819 16.6471 12.455 17.0369 11.8213C17.2135 11.5343 17.4268 11.285 17.5246 11.2027C18.7165 10.2006 15.3544 14.7191 14.8823 15.4988C14.4524 16.2088 13.8943 16.8917 13.5999 17.56C13.5353 17.7065 13.4388 17.8671 13.4534 17.9819C13.468 18.0968 13.5965 18.161 13.743 18.1299C14.0815 18.0579 14.5047 17.6772 15.28 17.193C16.4783 16.4445 18.0994 14.9595 19.688 13.4357C21.0076 12.1698 21.7087 11.7074 22.4539 11.0752C22.641 10.9164 22.8106 10.8314 22.8291 10.7496C22.9829 10.0697 21.0955 10.991 20.8205 11.1526C20.6689 11.2417 20.5134 11.3784 20.6555 11.4125C21.941 11.7207 24.2882 10.3505 25.8593 9.85701C27.7164 9.27364 28.649 9.3051 29.4628 9.15909C30.0574 9.05241 30.7262 8.65682 31.5069 8.39692C31.81 8.29602 32.0598 8.16915 32.3508 8.13654C33.1411 8.04799 33.9715 8.75026 34.5575 9.18926C35.2092 9.67752 35.7898 10.405 36.1159 10.9248C36.4629 11.478 36.6678 12.2214 36.6528 13.0166C36.6395 13.715 35.601 14.1039 34.9999 14.4621C34.1643 14.9601 33.041 15.3051 29.2691 16.1315C28.2197 16.3614 26.9125 16.4089 25.066 16.6036C22.8267 16.8397 20.785 16.7671 19.0115 16.462C18.6139 16.3936 19.7756 15.5465 20.9315 14.9751C22.0874 14.4037 23.3401 13.8898 24.901 13.3038C26.4618 12.7178 28.2928 12.0754 29.3484 11.7284C31.0007 11.1852 31.6042 11.0572 32.3012 10.9433C32.5419 10.904 32.8658 10.9268 33.0634 10.991C33.261 11.0553 33.3252 11.1837 33.2941 11.3142C33.2234 11.61 32.3917 12.0909 30.0215 12.9159C28.3084 13.5122 25.3706 13.8372 23.9938 14.0854C22.6169 14.3336 22.8418 14.3336 24.7564 13.9C26.6711 13.4664 30.2688 12.5991 32.2666 12.1362C34.5462 11.6081 34.9479 11.5118 35.1099 11.3015C35.2695 11.0945 35.2408 10.7662 35.1605 10.4425C35.0634 10.0509 34.6257 9.88913 34.2061 9.77573C33.9212 9.69871 33.4654 9.69445 31.7079 9.8867C29.9505 10.0789 26.8989 10.4965 25.2465 10.7116C23.0433 10.991 22.0728 11.3463 21.1816 11.7191C20.8045 11.8671 20.5796 11.9313 20.2506 12.0948" stroke="#CEB6A1" stroke-width="4" stroke-linecap="round"/>
<path d="M19.4565 12.5635V12.7152" stroke="#0D0D0D" stroke-width="2" stroke-linecap="round"/>
<path d="M25.9058 11.7285V11.8803" stroke="#0D0D0D" stroke-width="2" stroke-linecap="round"/>
<path d="M12.3716 9.1075C12.474 8.64682 12.729 7.93038 12.9359 7.38881C13.046 7.10039 13.2182 6.8742 13.3846 6.74594C13.467 6.68241 13.5764 6.66851 13.6797 6.68084C14.1076 6.73194 14.5255 7.33257 14.7848 7.79633C14.841 7.89693 14.9123 8.00125 14.9515 8.11719C14.9908 8.23313 14.9908 8.36024 14.851 8.47657C14.0163 8.79935 13.5549 8.8502 13.0796 8.95304C12.9632 8.97885 12.8615 9.00427 12.7568 9.03046" stroke="#8F6E51" stroke-width="2" stroke-linecap="round"/>
<path d="M32.6323 3.71484C32.2741 3.99603 31.7618 4.45748 31.1705 5.06067C31.0469 5.18683 31.0407 5.30488 31.0912 5.38269C31.2105 5.56666 32.0607 5.56373 33.0622 5.46204C33.4157 5.42614 33.4027 5.15697 33.3773 5.00136C33.301 4.74405 33.2232 4.51217 33.172 4.25603C33.1462 4.12699 33.1207 3.99988 33.0175 3.71484" stroke="#8F6E51" stroke-width="2" stroke-linecap="round"/>
<path d="M4.35986 13.9606C5.17337 13.9352 5.98688 13.9098 7.51183 13.8712C9.03677 13.8327 11.2485 13.7819 13.5273 13.7295" stroke="#8F6E51" stroke-linecap="round"/>
<path d="M13.6045 15.9639C13.5537 15.9639 13.5028 15.9639 12.0021 16.4215C10.5015 16.8791 7.5525 17.7943 4.51416 18.8142" stroke="#8F6E51" stroke-linecap="round"/>
<path d="M32.6323 11.5727C34.361 11.2677 36.0897 10.9626 37.743 10.6911C39.3962 10.4195 40.9215 10.1907 41.8217 10.0728C42.7218 9.95497 42.9506 9.95497 43.4175 9.87793" stroke="#8F6E51" stroke-linecap="round"/>
<path d="M33.1719 13.8066C34.4684 13.9338 35.7649 14.0609 37.5387 14.2407C39.3125 14.4206 41.5242 14.6494 43.803 14.8852" stroke="#8F6E51" stroke-linecap="round"/>
</svg>
