<svg width="50" height="45" viewBox="0 0 50 45" fill="none" xmlns="http://www.w3.org/2000/svg">
<path d="M13.0257 22.5883C11.8421 22.532 9.10993 22.7554 7.80014 23.5519C6.72072 24.2082 5.19077 25.7639 4.15982 26.9048C3.28731 27.8704 3.4205 29.2328 3.36081 32.2694C3.3316 33.7556 3.98331 34.6357 4.52479 35.5464C5.07471 36.4713 6.197 37.1939 8.10116 38.1618C10.0647 39.1598 13.1348 38.3366 14.3551 37.8829C16.7941 36.9762 17.8521 36.406 18.6512 35.6948C19.6454 34.8098 19.9601 33.111 20.4428 30.8163C21.0294 28.027 20.4735 25.9446 20.3319 25.491C19.9009 24.1096 18.0329 23.0454 16.9525 22.8731C15.8475 22.6969 14.9631 22.4757 11.3629 22.5022C10.3269 22.5098 9.73243 23.2108 8.96667 23.806C7.42569 25.0038 7.5682 28.9872 8.24697 32.4416C8.45814 33.5163 9.15768 34.0695 9.7239 34.4106C11.0916 35.2345 12.6778 33.2816 13.9586 32.2293C15.0189 31.3582 15.4116 30.0395 15.6956 29.2737C15.9494 28.5894 15.925 27.4284 15.5029 27.0506C13.7122 25.4481 13.0291 31.675 12.3205 32.0263C9.91359 33.2196 11.0934 27.645 11.0081 28.2402C10.9791 28.554 10.9791 28.8917 11.0354 29.1782C11.0917 29.4647 11.2042 29.6899 11.3202 29.9218" stroke="#AFECB2" stroke-width="6.72" stroke-linecap="round"/>
<path d="M30.735 21.4396C28.651 21.4396 22.9649 21.6647 20.9337 22.2045C19.5288 22.5778 19.4244 25.1234 19.1669 27.1154C18.9281 28.9626 19.3067 30.7002 19.647 31.6374C20.0827 32.8375 21.3516 33.6575 22.2043 34.1154C23.1927 34.6462 24.1929 34.9128 25.8915 35.0543C28.6994 35.2883 31.2961 34.4079 32.5173 33.1314C34.009 31.5719 33.7469 29.7486 33.833 28.5497C33.9393 27.0697 33.7503 25.1438 33.3231 23.8596C33.0044 22.9016 32.0483 22.0126 30.9388 21.3279C29.5276 20.4568 28.0711 20.5323 26.5336 20.3882C24.0496 20.1553 20.2805 20.5834 19.4815 21.2665C18.7164 21.9205 18.3431 23.0257 17.6627 24.6169C17.0746 25.992 16.9788 27.4019 16.9771 30.1835C16.976 31.8743 17.6575 32.9753 18.141 33.8861C18.6668 34.8764 19.4756 35.5915 20.4699 36.2183C21.3007 36.742 22.542 36.7308 27.3054 36.7044C29.3137 36.6932 30.2746 35.7689 31.2433 35.114C32.0809 34.5477 33.2284 33.6678 34.1434 32.5012C35.0406 31.3574 35.1658 29.4655 35.2554 27.6424C35.3272 26.1793 33.358 25.311 31.8231 24.6535C30.14 23.9326 27.3395 24.1683 24.812 24.3372C23.2717 24.44 22.6648 25.5293 22.183 26.4067C20.9178 28.7109 21.1844 30.4717 21.3814 31.4106C22.1621 35.1314 29.5395 25.5924 29.6828 25.3349C30.9773 23.0078 27.0973 31.5547 27.209 32.039C28.402 31.3347 29.1404 30.3114 29.6794 29.9123C29.9369 29.8509 30.162 30.0761 30.5645 30.308" stroke="#AFECB2" stroke-width="6.72" stroke-linecap="round"/>
<path d="M40.6402 19.5778C36.6101 19.4072 34.6779 19.5198 33.5096 19.889C33.0298 20.0407 32.4573 20.4271 31.8894 21.0794C31.0516 22.0418 31.2601 25.9699 31.4579 28.5264C31.5968 30.3214 32.3959 31.6252 32.963 32.6493C33.4701 33.5651 34.6096 33.8457 36.1693 34.3284C37.7087 34.8047 39.1581 34.2465 39.8394 33.9063C40.8187 33.4172 41.602 32.3176 42.3431 31.1792C43.1212 29.9839 43.1404 28.3951 43.1139 24.8221C43.1079 24.011 42.8607 23.6777 42.4642 23.3349C40.5008 21.6376 37.584 21.3992 36.2094 21.1417C35.3103 20.9733 31.6899 20.9422 29.2178 21.6772C27.5243 22.1808 27.9072 25.1956 27.8773 28.1793C27.8602 29.8936 28.7565 30.7725 29.7772 32.1351C31.0961 33.8958 31.7683 34.5825 32.6773 34.9824C33.8892 35.5156 37.144 35.7797 39.7243 35.2143C41.7647 34.7673 42.8504 33.624 44.0187 32.8267C45.1667 32.0432 45.7531 30.8953 46.2384 29.5599C47.005 27.45 46.2136 23.9028 45.8717 22.9359C45.3615 21.4932 43.9419 20.717 42.72 20.1764C41.6444 19.7005 39.1803 19.9189 36.8378 20.7673C36.0031 21.0697 35.6397 22.1871 35.2986 23.2369C35.0241 24.0818 35.239 24.8613 35.3805 25.4855C35.4466 25.7771 35.5783 25.9972 35.8052 26.0287C36.3806 26.1087 36.8864 25.4361 37.1985 24.869C37.7566 23.8551 34.5619 31.2739 34.0468 33.7255C33.9516 34.1788 33.9889 34.4665 34.1577 34.3019C36.6449 31.8775 38.8767 28.5622 39.0754 28.3337C39.8797 27.4085 39.6169 31.2295 39.7294 31.4299C39.9527 31.8273 40.4679 30.5525 40.7237 30.0135C40.8107 29.756 40.8107 29.5309 40.7263 29.2742C40.6419 29.0175 40.473 28.7361 39.958 27.9346" stroke="#AFECB2" stroke-width="6.72" stroke-linecap="round"/>
<path d="M16.8599 19.5939C17.1036 19.1021 18.3118 17.9631 18.8802 17.5906C19.4585 17.2115 20.1214 16.9689 20.76 16.7034C21.6684 16.3256 22.3205 16.2238 23.294 16.0993C26.268 15.7188 28.0686 16.541 28.6732 16.7369C29.7335 17.0804 31.0853 18.1015 31.6537 18.5278C32.2057 18.9418 32.7884 19.3427 33.5868 20.1761C33.8188 20.5136 33.9966 20.7989 34.1914 21.082C34.2808 21.2246 34.351 21.3651 34.5299 21.6164" stroke="#AFECB2" stroke-width="6.72" stroke-linecap="round"/>
<path d="M18.8599 39.3516C19.1079 39.705 19.4602 40.201 20.0286 40.5038C20.5885 40.8021 21.2698 40.9121 21.8382 41.0366C22.3959 41.1588 22.9729 41.2314 23.5414 41.2852C24.1548 41.3432 26.9604 41.4805 28.6508 41.3746C29.245 41.3373 29.7855 40.9142 30.4422 40.5241C31.0288 40.0626 31.595 39.5666 32.0575 39.0344C32.1645 38.8917 32.2699 38.7512 32.4849 38.5" stroke="#AFECB2" stroke-width="6.72" stroke-linecap="round"/>
<path d="M20.7603 26.1758V26.4638" stroke="#0D0D0D" stroke-width="2.5" stroke-linecap="round"/>
<path d="M27.9604 26V26.192" stroke="#0D0D0D" stroke-width="2.5" stroke-linecap="round"/>
<path d="M18.3599 33.5363C18.4424 33.2473 18.6501 32.9127 18.9415 32.6106C19.1232 32.4223 19.3181 32.4105 19.4948 32.4311C19.9313 32.4821 20.3588 32.847 20.725 33.0456C21.0503 33.222 21.3395 33.4938 21.7254 33.5157C22.237 33.5447 22.7568 32.8495 23.2672 32.4955C23.7327 32.1726 24.3405 32.0352 24.8299 32.0662C25.3677 32.1002 25.6552 32.5343 26.093 32.7745C26.2769 32.8754 26.7579 32.9108 27.3933 32.8799C27.9136 32.8545 28.157 32.453 28.8225 32.0268C29.7872 31.4088 30.4074 31.4723 30.8052 31.5448C30.9716 31.6174 31.1392 31.7012 31.2952 31.7947C31.3687 31.8469 31.4307 31.9089 31.6821 32.0977" stroke="#0D0D0D" stroke-width="2" stroke-linecap="round"/>
<path d="M11.312 10.2233C11.312 9.67642 11.9835 6.97784 12.8355 4.40134C12.9624 4.01781 13.1738 3.95115 13.3442 3.97087C14.2075 4.07073 14.7431 5.21778 15.6746 6.34007C16.3863 7.19749 16.989 8.01556 17.9199 8.61073C18.8442 9.20169 20.083 8.61327 20.8232 8.46512C23.8669 7.85586 28.2666 8.31569 28.5629 8.21077C29.3002 7.94969 29.9147 6.12325 30.6402 5.03275C30.8476 4.72104 31.1495 4.45984 31.4242 4.18452C31.5539 4.05458 31.7409 4.03509 31.9113 4.05544C32.7872 4.16002 33.7731 5.59676 34.5819 6.49014C34.9202 6.78708 35.219 7.08466 35.4727 7.40196C35.6005 7.55139 35.7264 7.67729 35.8562 7.93417" stroke="#E3E3E3" stroke-width="4" stroke-linecap="round"/>
<path d="M11.4396 11.7496C10.2544 12.0879 9.2421 12.7619 8.51658 13.5484C7.91105 14.2049 7.92205 15.0942 7.8998 15.8585C7.86942 16.9016 8.6393 17.7241 9.29614 18.4445C10.053 19.2747 12.106 19.6317 13.3224 19.8034C13.9809 19.8963 16.4209 20.0157 19.7045 19.9948C21.2687 19.9848 21.8652 19.8886 23.0231 19.8256C25.4855 19.6918 27.2496 19.4651 27.6299 19.4015C29.2649 19.1281 32.3263 18.7033 34.0705 18.3428C35.6542 18.0154 36.701 17.2205 37.5276 16.6482C38.5645 15.9304 38.9062 15.0586 39.247 14.2962C39.5952 13.5173 39.4174 12.3498 38.9748 11.3503C38.5323 10.8645 38.147 10.4791 37.8513 10.2464C37.6815 10.1396 37.4717 10.0557 36.874 9.71484" stroke="#E3E3E3" stroke-width="4" stroke-linecap="round"/>
<path d="M28.7192 6.83848C28.912 6.3547 29.4318 5.51077 29.7725 4.99098C30.1038 4.48541 30.4694 4.01759 30.7785 3.54695C31.133 3.00709 31.6375 2.39591 32.0273 2.06934C32.5036 1.67031 33.0333 3.10454 33.374 3.54354C33.726 3.99715 33.9736 4.56463 34.3474 5.01969C34.8034 5.57484 35.0443 6.31674 35.3373 6.83653C35.6615 7.48481 35.9866 8.13504 36.1 8.39396C36.1492 8.5244 36.1813 8.65288 36.409 9.07728" stroke="#E3E3E3" stroke-width="4" stroke-linecap="round"/>
<path d="M36.6038 8.88281C37.5081 8.88281 38.7413 9.07555 39.3434 9.43327C39.6205 9.5979 39.9123 9.66055 40.1065 9.87081C40.5317 10.3311 40.6258 10.9892 40.7728 11.6536C41.0506 12.9091 40.4331 13.5843 40.1416 14.0564C39.8636 14.5065 39.7206 15.0132 39.4115 15.5647C39.1357 16.0568 38.5214 16.5045 37.8069 16.9445C37.2805 17.2686 36.7362 17.4798 36.0548 17.8205C35.5141 18.0908 34.9841 18.2585 34.4643 18.4376C33.9055 18.6302 33.3293 18.7783 32.7934 18.8435C32.1753 18.9188 31.546 19.1346 30.8471 19.2816C30.1586 19.4264 29.6304 19.4928 28.8215 19.5736C26.7511 19.7804 25.9646 19.7848 25.3635 19.8656C24.6052 19.9675 24.0178 19.9795 23.2873 20.0603C22.6233 20.1337 21.01 20.1742 19.0292 20.255C15.9781 20.3794 13.7631 20.2394 13.4395 20.1747C12.6078 20.0083 11.6226 19.9483 11.0707 19.6724C10.7154 19.4947 10.3884 19.2991 10.1455 19.1049C10.0311 19.0071 9.93476 18.9107 9.54346 18.6167" stroke="#E3E3E3" stroke-width="4" stroke-linecap="round"/>
<path d="M12.2683 12.6789C12.2683 12.7431 11.5937 14.0611 10.7323 15.7188C10.1498 16.8397 11.9432 13.882 12.2508 13.4109C12.7233 12.6872 13.1093 11.2597 13.3867 10.3938C13.6553 9.55548 14.0846 9.11236 14.2954 8.59257C14.3477 8.4634 14.3767 8.33365 14.3932 8.44413C14.5444 9.45359 13.67 11.7834 12.9521 13.5335C12.0899 15.6356 11.6862 16.4712 11.5217 16.9448C11.2255 17.7974 13.3682 15.7645 14.8414 14.6145C16.2923 13.4819 16.6466 12.455 17.0364 11.8213C17.213 11.5343 17.4263 11.285 17.5241 11.2027C18.7161 10.2006 15.3539 14.7191 14.8818 15.4988C14.452 16.2088 13.8939 16.8917 13.5994 17.56C13.5348 17.7065 13.4383 17.8671 13.4529 17.9819C13.4675 18.0968 13.596 18.161 13.7425 18.1299C14.081 18.0579 14.5042 17.6772 15.2795 17.193C16.4778 16.4445 18.0989 14.9595 19.6875 13.4357C21.0071 12.1698 21.7082 11.7074 22.4534 11.0752C22.6405 10.9164 22.8101 10.8314 22.8286 10.7496C22.9824 10.0697 21.095 10.991 20.82 11.1526C20.6684 11.2417 20.5129 11.3784 20.655 11.4125C21.9405 11.7207 24.2877 10.3505 25.8588 9.85701C27.7159 9.27364 28.6485 9.3051 29.4623 9.15909C30.0569 9.05241 30.7258 8.65682 31.5064 8.39692C31.8095 8.29602 32.0593 8.16915 32.3504 8.13654C33.1406 8.04799 33.9711 8.75026 34.557 9.18926C35.2088 9.67752 35.7893 10.405 36.1154 10.9248C36.4624 11.478 36.6674 12.2214 36.6523 13.0166C36.639 13.715 35.6005 14.1039 34.9994 14.4621C34.1638 14.9601 33.0405 15.3051 29.2686 16.1315C28.2192 16.3614 26.912 16.4089 25.0655 16.6036C22.8262 16.8397 20.7845 16.7671 19.011 16.462C18.6134 16.3936 19.7751 15.5465 20.931 14.9751C22.0869 14.4037 23.3397 13.8898 24.9005 13.3038C26.4613 12.7178 28.2923 12.0754 29.3479 11.7284C31.0003 11.1852 31.6038 11.0572 32.3007 10.9433C32.5414 10.904 32.8653 10.9268 33.0629 10.991C33.2605 11.0553 33.3247 11.1837 33.2936 11.3142C33.2229 11.61 32.3912 12.0909 30.021 12.9159C28.3079 13.5122 25.3701 13.8372 23.9933 14.0854C22.6164 14.3336 22.8413 14.3336 24.7559 13.9C26.6706 13.4664 30.2683 12.5991 32.2662 12.1362C34.5457 11.6081 34.9474 11.5118 35.1094 11.3015C35.269 11.0945 35.2404 10.7662 35.1601 10.4425C35.0629 10.0509 34.6252 9.88913 34.2056 9.77573C33.9207 9.69871 33.4649 9.69445 31.7074 9.8867C29.95 10.0789 26.8984 10.4965 25.246 10.7116C23.0428 10.991 22.0723 11.3463 21.1812 11.7191C20.804 11.8671 20.5791 11.9313 20.2501 12.0948" stroke="#E3E3E3" stroke-width="4" stroke-linecap="round"/>
<path d="M19.4565 11.8486V12.0004" stroke="#0D0D0D" stroke-width="2" stroke-linecap="round"/>
<path d="M25.9058 11.0137V11.1654" stroke="#0D0D0D" stroke-width="2" stroke-linecap="round"/>
<path d="M12.3716 8.39266C12.474 7.93198 12.729 7.21554 12.9359 6.67396C13.046 6.38555 13.2182 6.15936 13.3846 6.03109C13.467 5.96756 13.5764 5.95367 13.6797 5.966C14.1076 6.0171 14.5255 6.61773 14.7848 7.08149C14.841 7.18208 14.9123 7.28641 14.9515 7.40235C14.9908 7.51829 14.9908 7.6454 14.851 7.76172C14.0163 8.08451 13.5549 8.13535 13.0796 8.2382C12.9632 8.26401 12.8615 8.28943 12.7568 8.31562" stroke="#B9B9B9" stroke-width="2" stroke-linecap="round"/>
<path d="M32.6328 3C32.2746 3.28118 31.7623 3.74263 31.171 4.34583C31.0474 4.47199 31.0412 4.59004 31.0917 4.66785C31.211 4.85182 32.0612 4.84888 33.0627 4.74719C33.4162 4.71129 33.4032 4.44213 33.3778 4.28651C33.3015 4.02921 33.2237 3.79733 33.1725 3.54118C33.1467 3.41214 33.1212 3.28503 33.018 3" stroke="#B9B9B9" stroke-width="2" stroke-linecap="round"/>
<path d="M4.35986 13.2458C5.17337 13.2203 5.98688 13.1949 7.51183 13.1564C9.03677 13.1179 11.2485 13.067 13.5273 13.0146" stroke="#B9B9B9" stroke-linecap="round"/>
<path d="M13.6045 15.249C13.5537 15.249 13.5028 15.249 12.0021 15.7066C10.5015 16.1642 7.5525 17.0794 4.51416 18.0994" stroke="#B9B9B9" stroke-linecap="round"/>
<path d="M32.6323 10.8579C34.361 10.5528 36.0897 10.2478 37.743 9.97621C39.3962 9.70465 40.9215 9.47585 41.8217 9.35799C42.7218 9.24012 42.9506 9.24012 43.4175 9.16309" stroke="#B9B9B9" stroke-linecap="round"/>
<path d="M33.1714 13.0918C34.4679 13.2189 35.7644 13.346 37.5382 13.5259C39.312 13.7058 41.5237 13.9346 43.8025 14.1703" stroke="#B9B9B9" stroke-linecap="round"/>
</svg>
