<svg width="50" height="45" viewBox="0 0 50 45" fill="none" xmlns="http://www.w3.org/2000/svg">
<path d="M13.0257 22.5883C11.8421 22.532 9.10993 22.7554 7.80014 23.5519C6.72072 24.2082 5.19077 25.7639 4.15982 26.9048C3.28731 27.8704 3.4205 29.2328 3.36081 32.2694C3.3316 33.7556 3.98331 34.6357 4.52479 35.5464C5.07471 36.4713 6.197 37.1939 8.10116 38.1618C10.0647 39.1598 13.1348 38.3366 14.3551 37.8829C16.7941 36.9762 17.8521 36.406 18.6512 35.6948C19.6454 34.8098 19.9601 33.111 20.4428 30.8163C21.0294 28.027 20.4735 25.9446 20.3319 25.491C19.9009 24.1096 18.0329 23.0454 16.9525 22.8731C15.8475 22.6969 14.9631 22.4757 11.3629 22.5022C10.3269 22.5098 9.73243 23.2108 8.96667 23.806C7.42569 25.0038 7.5682 28.9872 8.24697 32.4416C8.45814 33.5163 9.15768 34.0695 9.7239 34.4106C11.0916 35.2345 12.6778 33.2816 13.9586 32.2293C15.0189 31.3582 15.4116 30.0395 15.6956 29.2737C15.9494 28.5894 15.925 27.4284 15.5029 27.0506C13.7122 25.4481 13.0291 31.675 12.3205 32.0263C9.91359 33.2196 11.0934 27.645 11.0081 28.2402C10.9791 28.554 10.9791 28.8917 11.0354 29.1782C11.0917 29.4647 11.2042 29.6899 11.3202 29.9218" stroke="#AFECB2" stroke-width="6.72" stroke-linecap="round"/>
<path d="M30.7355 21.4396C28.6515 21.4396 22.9654 21.6647 20.9342 22.2045C19.5293 22.5778 19.4249 25.1234 19.1674 27.1154C18.9285 28.9626 19.3072 30.7002 19.6475 31.6374C20.0832 32.8375 21.3521 33.6575 22.2048 34.1154C23.1932 34.6462 24.1934 34.9128 25.892 35.0543C28.6999 35.2883 31.2966 34.4079 32.5177 33.1314C34.0095 31.5719 33.7474 29.7486 33.8335 28.5497C33.9398 27.0697 33.7508 25.1438 33.3236 23.8596C33.0049 22.9016 32.0487 22.0126 30.9393 21.3279C29.5281 20.4568 28.0716 20.5323 26.5341 20.3882C24.0501 20.1553 20.281 20.5834 19.482 21.2665C18.7169 21.9205 18.3436 23.0257 17.6631 24.6169C17.0751 25.992 16.9792 27.4019 16.9775 30.1835C16.9765 31.8743 17.658 32.9753 18.1415 33.8861C18.6673 34.8764 19.4761 35.5915 20.4703 36.2183C21.3012 36.742 22.5425 36.7308 27.3058 36.7044C29.3142 36.6932 30.2751 35.7689 31.2438 35.114C32.0814 34.5477 33.2289 33.6678 34.1439 32.5012C35.0411 31.3574 35.1663 29.4655 35.2559 27.6424C35.3277 26.1793 33.3585 25.311 31.8236 24.6535C30.1405 23.9326 27.3399 24.1683 24.8125 24.3372C23.2722 24.44 22.6653 25.5293 22.1835 26.4067C20.9183 28.7109 21.1849 30.4717 21.3819 31.4106C22.1626 35.1314 29.54 25.5924 29.6833 25.3349C30.9778 23.0078 27.0978 31.5547 27.2095 32.039C28.4025 31.3347 29.1409 30.3114 29.6798 29.9123C29.9374 29.8509 30.1625 30.0761 30.565 30.308" stroke="#AFECB2" stroke-width="6.72" stroke-linecap="round"/>
<path d="M40.6402 19.5778C36.6101 19.4072 34.6779 19.5198 33.5096 19.889C33.0298 20.0407 32.4573 20.4271 31.8894 21.0794C31.0516 22.0418 31.2601 25.9699 31.4579 28.5264C31.5968 30.3214 32.3959 31.6252 32.963 32.6493C33.4701 33.5651 34.6096 33.8457 36.1693 34.3284C37.7087 34.8047 39.1581 34.2465 39.8394 33.9063C40.8187 33.4172 41.602 32.3176 42.3431 31.1792C43.1212 29.9839 43.1404 28.3951 43.1139 24.8221C43.1079 24.011 42.8607 23.6777 42.4642 23.3349C40.5008 21.6376 37.584 21.3992 36.2094 21.1417C35.3103 20.9733 31.6899 20.9422 29.2178 21.6772C27.5243 22.1808 27.9072 25.1956 27.8773 28.1793C27.8602 29.8936 28.7565 30.7725 29.7772 32.1351C31.0961 33.8958 31.7683 34.5825 32.6773 34.9824C33.8892 35.5156 37.144 35.7797 39.7243 35.2143C41.7647 34.7673 42.8504 33.624 44.0187 32.8267C45.1667 32.0432 45.7531 30.8953 46.2384 29.5599C47.005 27.45 46.2136 23.9028 45.8717 22.9359C45.3615 21.4932 43.9419 20.717 42.72 20.1764C41.6444 19.7005 39.1803 19.9189 36.8378 20.7673C36.0031 21.0697 35.6397 22.1871 35.2986 23.2369C35.0241 24.0818 35.239 24.8613 35.3805 25.4855C35.4466 25.7771 35.5783 25.9972 35.8052 26.0287C36.3806 26.1087 36.8864 25.4361 37.1985 24.869C37.7566 23.8551 34.5619 31.2739 34.0468 33.7255C33.9516 34.1788 33.9889 34.4665 34.1577 34.3019C36.6449 31.8775 38.8767 28.5622 39.0754 28.3337C39.8797 27.4085 39.6169 31.2295 39.7294 31.4299C39.9527 31.8273 40.4679 30.5525 40.7237 30.0135C40.8107 29.756 40.8107 29.5309 40.7263 29.2742C40.6419 29.0175 40.473 28.7361 39.958 27.9346" stroke="#AFECB2" stroke-width="6.72" stroke-linecap="round"/>
<path d="M16.8599 19.5939C17.1036 19.1021 18.3118 17.9631 18.8802 17.5906C19.4585 17.2115 20.1214 16.9689 20.76 16.7034C21.6684 16.3256 22.3205 16.2238 23.294 16.0993C26.268 15.7188 28.0686 16.541 28.6732 16.7369C29.7335 17.0804 31.0853 18.1015 31.6537 18.5278C32.2057 18.9418 32.7884 19.3427 33.5868 20.1761C33.8188 20.5136 33.9966 20.7989 34.1914 21.082C34.2808 21.2246 34.351 21.3651 34.5299 21.6164" stroke="#AFECB2" stroke-width="6.72" stroke-linecap="round"/>
<path d="M18.8599 39.3516C19.1079 39.705 19.4602 40.201 20.0286 40.5038C20.5885 40.8021 21.2698 40.9121 21.8382 41.0366C22.3959 41.1588 22.9729 41.2314 23.5414 41.2852C24.1548 41.3432 26.9604 41.4805 28.6508 41.3746C29.245 41.3373 29.7855 40.9142 30.4422 40.5241C31.0288 40.0626 31.595 39.5666 32.0575 39.0344C32.1645 38.8917 32.2699 38.7512 32.4849 38.5" stroke="#AFECB2" stroke-width="6.72" stroke-linecap="round"/>
<path d="M20.7598 26.1758V26.4638" stroke="#0D0D0D" stroke-width="2.5" stroke-linecap="round"/>
<path d="M27.96 26V26.192" stroke="#0D0D0D" stroke-width="2.5" stroke-linecap="round"/>
<path d="M18.3599 33.5363C18.4424 33.2473 18.6501 32.9127 18.9415 32.6106C19.1232 32.4223 19.3181 32.4105 19.4948 32.4311C19.9313 32.4821 20.3588 32.847 20.725 33.0456C21.0503 33.222 21.3395 33.4938 21.7254 33.5157C22.237 33.5447 22.7568 32.8495 23.2672 32.4955C23.7327 32.1726 24.3405 32.0352 24.8299 32.0662C25.3677 32.1002 25.6552 32.5343 26.093 32.7745C26.2769 32.8754 26.7579 32.9108 27.3933 32.8799C27.9136 32.8545 28.157 32.453 28.8225 32.0268C29.7872 31.4088 30.4074 31.4723 30.8052 31.5448C30.9716 31.6174 31.1392 31.7012 31.2952 31.7947C31.3687 31.8469 31.4307 31.9089 31.6821 32.0977" stroke="#0D0D0D" stroke-width="2" stroke-linecap="round"/>
<path d="M12.3125 10.2233C12.3125 9.67642 12.984 6.97784 13.836 4.40134C13.9629 4.01781 14.1743 3.95115 14.3447 3.97087C15.208 4.07073 15.7436 5.21778 16.6751 6.34007C17.3868 7.19749 17.9895 8.01556 18.9203 8.61073C19.8447 9.20169 21.0835 8.61327 21.8237 8.46512C24.8673 7.85586 29.267 8.31569 29.5633 8.21077C30.3007 7.94969 30.9152 6.12325 31.6407 5.03275C31.8481 4.72104 32.15 4.45984 32.4247 4.18452C32.5543 4.05458 32.7414 4.03509 32.9118 4.05544C33.7876 4.16002 34.7736 5.59676 35.5824 6.49014C35.9207 6.78708 36.2195 7.08466 36.4732 7.40196C36.601 7.55139 36.7269 7.67729 36.8566 7.93417" stroke="#FFC871" stroke-width="4" stroke-linecap="round"/>
<path d="M12.4396 11.7496C11.2544 12.0879 10.2421 12.7619 9.51658 13.5484C8.91105 14.2049 8.92205 15.0942 8.8998 15.8585C8.86942 16.9016 9.6393 17.7241 10.2961 18.4445C11.053 19.2747 13.106 19.6317 14.3224 19.8034C14.9809 19.8963 17.4209 20.0157 20.7045 19.9948C22.2687 19.9848 22.8652 19.8886 24.0231 19.8256C26.4855 19.6918 28.2496 19.4651 28.6299 19.4015C30.2649 19.1281 33.3263 18.7033 35.0705 18.3428C36.6542 18.0154 37.701 17.2205 38.5276 16.6482C39.5645 15.9304 39.9062 15.0586 40.247 14.2962C40.5952 13.5173 40.4174 12.3498 39.9748 11.3503C39.5323 10.8645 39.147 10.4791 38.8513 10.2464C38.6815 10.1396 38.4717 10.0557 37.874 9.71484" stroke="#FFC871" stroke-width="4" stroke-linecap="round"/>
<path d="M29.7188 6.83848C29.9115 6.3547 30.4313 5.51077 30.772 4.99098C31.1033 4.48541 31.4689 4.01759 31.778 3.54695C32.1325 3.00709 32.637 2.39591 33.0268 2.06934C33.5032 1.67031 34.0328 3.10454 34.3735 3.54354C34.7255 3.99715 34.9731 4.56463 35.3469 5.01969C35.8029 5.57484 36.0439 6.31674 36.3369 6.83653C36.661 7.48481 36.9861 8.13504 37.0995 8.39396C37.1487 8.5244 37.1808 8.65288 37.4086 9.07728" stroke="#FFC871" stroke-width="4" stroke-linecap="round"/>
<path d="M37.6033 8.88281C38.5076 8.88281 39.7409 9.07555 40.3429 9.43327C40.62 9.5979 40.9119 9.66055 41.106 9.87081C41.5312 10.3311 41.6253 10.9892 41.7723 11.6536C42.0501 12.9091 41.4326 13.5843 41.1411 14.0564C40.8631 14.5065 40.7201 15.0132 40.411 15.5647C40.1352 16.0568 39.5209 16.5045 38.8064 16.9445C38.2801 17.2686 37.7357 17.4798 37.0543 17.8205C36.5136 18.0908 35.9836 18.2585 35.4638 18.4376C34.9051 18.6302 34.3288 18.7783 33.7929 18.8435C33.1748 18.9188 32.5455 19.1346 31.8466 19.2816C31.1582 19.4264 30.6299 19.4928 29.821 19.5736C27.7506 19.7804 26.9641 19.7848 26.363 19.8656C25.6047 19.9675 25.0173 19.9795 24.2868 20.0603C23.6228 20.1337 22.0095 20.1742 20.0287 20.255C16.9776 20.3794 14.7626 20.2394 14.439 20.1747C13.6073 20.0083 12.6221 19.9483 12.0702 19.6724C11.7149 19.4947 11.3879 19.2991 11.145 19.1049C11.0306 19.0071 10.9343 18.9107 10.543 18.6167" stroke="#FFC871" stroke-width="4" stroke-linecap="round"/>
<path d="M13.2683 12.6789C13.2683 12.7431 12.5937 14.0611 11.7323 15.7188C11.1498 16.8397 12.9432 13.882 13.2508 13.4109C13.7233 12.6872 14.1093 11.2597 14.3867 10.3938C14.6553 9.55548 15.0846 9.11236 15.2954 8.59257C15.3477 8.4634 15.3767 8.33365 15.3932 8.44413C15.5444 9.45359 14.67 11.7834 13.9521 13.5335C13.0899 15.6356 12.6862 16.4712 12.5217 16.9448C12.2255 17.7974 14.3682 15.7645 15.8414 14.6145C17.2923 13.4819 17.6466 12.455 18.0364 11.8213C18.213 11.5343 18.4263 11.285 18.5241 11.2027C19.7161 10.2006 16.3539 14.7191 15.8818 15.4988C15.452 16.2088 14.8939 16.8917 14.5994 17.56C14.5348 17.7065 14.4383 17.8671 14.4529 17.9819C14.4675 18.0968 14.596 18.161 14.7425 18.1299C15.081 18.0579 15.5042 17.6772 16.2795 17.193C17.4778 16.4445 19.0989 14.9595 20.6875 13.4357C22.0071 12.1698 22.7082 11.7074 23.4534 11.0752C23.6405 10.9164 23.8101 10.8314 23.8286 10.7496C23.9824 10.0697 22.095 10.991 21.82 11.1526C21.6684 11.2417 21.5129 11.3784 21.655 11.4125C22.9405 11.7207 25.2877 10.3505 26.8588 9.85701C28.7159 9.27364 29.6485 9.3051 30.4623 9.15909C31.0569 9.05241 31.7258 8.65682 32.5064 8.39692C32.8095 8.29602 33.0593 8.16915 33.3504 8.13654C34.1406 8.04799 34.9711 8.75026 35.557 9.18926C36.2088 9.67752 36.7893 10.405 37.1154 10.9248C37.4624 11.478 37.6674 12.2214 37.6523 13.0166C37.639 13.715 36.6005 14.1039 35.9994 14.4621C35.1638 14.9601 34.0405 15.3051 30.2686 16.1315C29.2192 16.3614 27.912 16.4089 26.0655 16.6036C23.8262 16.8397 21.7845 16.7671 20.011 16.462C19.6134 16.3936 20.7751 15.5465 21.931 14.9751C23.0869 14.4037 24.3397 13.8898 25.9005 13.3038C27.4613 12.7178 29.2923 12.0754 30.3479 11.7284C32.0003 11.1852 32.6038 11.0572 33.3007 10.9433C33.5414 10.904 33.8653 10.9268 34.0629 10.991C34.2605 11.0553 34.3247 11.1837 34.2936 11.3142C34.2229 11.61 33.3912 12.0909 31.021 12.9159C29.3079 13.5122 26.3701 13.8372 24.9933 14.0854C23.6164 14.3336 23.8413 14.3336 25.7559 13.9C27.6706 13.4664 31.2683 12.5991 33.2662 12.1362C35.5457 11.6081 35.9474 11.5118 36.1094 11.3015C36.269 11.0945 36.2404 10.7662 36.1601 10.4425C36.0629 10.0509 35.6252 9.88913 35.2056 9.77573C34.9207 9.69871 34.4649 9.69445 32.7074 9.8867C30.95 10.0789 27.8984 10.4965 26.246 10.7116C24.0428 10.991 23.0723 11.3463 22.1812 11.7191C21.804 11.8671 21.5791 11.9313 21.2501 12.0948" stroke="#FFC871" stroke-width="4" stroke-linecap="round"/>
<path d="M20.4565 11.8486V12.0004" stroke="#0D0D0D" stroke-width="2" stroke-linecap="round"/>
<path d="M26.9058 11.0137V11.1654" stroke="#0D0D0D" stroke-width="2" stroke-linecap="round"/>
<path d="M13.3716 8.39266C13.474 7.93198 13.729 7.21554 13.9359 6.67396C14.046 6.38555 14.2182 6.15936 14.3846 6.03109C14.467 5.96756 14.5764 5.95367 14.6797 5.966C15.1076 6.0171 15.5255 6.61773 15.7848 7.08149C15.841 7.18208 15.9123 7.28641 15.9515 7.40235C15.9908 7.51829 15.9908 7.6454 15.851 7.76172C15.0163 8.08451 14.5549 8.13535 14.0796 8.2382C13.9632 8.26401 13.8615 8.28943 13.7568 8.31562" stroke="#EDA666" stroke-width="2" stroke-linecap="round"/>
<path d="M33.6323 3C33.2741 3.28118 32.7618 3.74263 32.1705 4.34583C32.0469 4.47199 32.0407 4.59004 32.0912 4.66785C32.2105 4.85182 33.0607 4.84888 34.0622 4.74719C34.4157 4.71129 34.4027 4.44213 34.3773 4.28651C34.301 4.02921 34.2232 3.79733 34.172 3.54118C34.1462 3.41214 34.1207 3.28503 34.0175 3" stroke="#EDA666" stroke-width="2" stroke-linecap="round"/>
<path d="M5.35986 13.2458C6.17337 13.2203 6.98688 13.1949 8.51183 13.1564C10.0368 13.1179 12.2485 13.067 14.5273 13.0146" stroke="#EDA666" stroke-linecap="round"/>
<path d="M14.6045 15.249C14.5537 15.249 14.5028 15.249 13.0021 15.7066C11.5015 16.1642 8.5525 17.0794 5.51416 18.0994" stroke="#EDA666" stroke-linecap="round"/>
<path d="M33.6323 10.8579C35.361 10.5528 37.0897 10.2478 38.743 9.97621C40.3962 9.70465 41.9215 9.47585 42.8217 9.35799C43.7218 9.24012 43.9506 9.24012 44.4175 9.16309" stroke="#EDA666" stroke-linecap="round"/>
<path d="M34.1719 13.0918C35.4684 13.2189 36.7649 13.346 38.5387 13.5259C40.3125 13.7058 42.5242 13.9346 44.803 14.1703" stroke="#EDA666" stroke-linecap="round"/>
</svg>
