<svg width="50" height="42" viewBox="0 0 50 42" fill="none" xmlns="http://www.w3.org/2000/svg">
<path d="M13.0257 18.9037C11.8421 18.8474 9.10993 19.0709 7.80014 19.8673C6.72072 20.5237 5.19077 22.0793 4.15982 23.2203C3.28731 24.1859 3.4205 25.5482 3.36081 28.5848C3.3316 30.0711 3.98331 30.9511 4.52479 31.8618C5.07471 32.7867 6.197 33.5093 8.10116 34.4772C10.0647 35.4752 13.1348 34.652 14.3551 34.1983C16.7941 33.2916 17.8521 32.7214 18.6512 32.0102C19.6454 31.1253 19.9601 29.4264 20.4428 27.1317C21.0294 24.3425 20.4735 22.2601 20.3319 21.8064C19.9009 20.425 18.0329 19.3608 16.9525 19.1885C15.8475 19.0124 14.9631 18.7912 11.3629 18.8176C10.3269 18.8252 9.73243 19.5262 8.96667 20.1214C7.42569 21.3192 7.5682 25.3026 8.24697 28.757C8.45814 29.8317 9.15768 30.3849 9.7239 30.726C11.0916 31.5499 12.6778 29.597 13.9586 28.5447C15.0189 27.6736 15.4116 26.3549 15.6956 25.5891C15.9494 24.9048 15.925 23.7438 15.5029 23.3661C13.7122 21.7635 13.0291 27.9904 12.3205 28.3418C9.91359 29.535 11.0934 23.9604 11.0081 24.5556C10.9791 24.8694 10.9791 25.2071 11.0354 25.4936C11.0917 25.7802 11.2042 26.0053 11.3202 26.2372" stroke="#AFECB2" stroke-width="6.72" stroke-linecap="round"/>
<path d="M30.7355 17.755C28.6515 17.755 22.9654 17.9801 20.9342 18.5199C19.5293 18.8933 19.4249 21.4388 19.1674 23.4308C18.9285 25.278 19.3072 27.0157 19.6475 27.9528C20.0832 29.1529 21.3521 29.973 22.2048 30.4309C23.1932 30.9616 24.1934 31.2282 25.892 31.3697C28.6999 31.6037 31.2966 30.7234 32.5177 29.4468C34.0095 27.8873 33.7474 26.064 33.8335 24.8651C33.9398 23.3851 33.7508 21.4593 33.3236 20.1751C33.0049 19.217 32.0487 18.328 30.9393 17.6433C29.5281 16.7723 28.0716 16.8477 26.5341 16.7036C24.0501 16.4708 20.281 16.8989 19.482 17.5819C18.7169 18.2359 18.3436 19.3411 17.6631 20.9323C17.0751 22.3074 16.9792 23.7173 16.9775 26.4989C16.9765 28.1897 17.658 29.2908 18.1415 30.2015C18.6673 31.1918 19.4761 31.907 20.4703 32.5337C21.3012 33.0575 22.5425 33.0462 27.3058 33.0198C29.3142 33.0086 30.2751 32.0843 31.2438 31.4294C32.0814 30.8631 33.2289 29.9832 34.1439 28.8167C35.0411 27.6728 35.1663 25.7809 35.2559 23.9578C35.3277 22.4948 33.3585 21.6264 31.8236 20.969C30.1405 20.248 27.3399 20.4837 24.8125 20.6526C23.2722 20.7555 22.6653 21.8447 22.1835 22.7222C20.9183 25.0264 21.1849 26.7871 21.3819 27.726C22.1626 31.4468 29.54 21.9078 29.6833 21.6503C30.9778 19.3233 27.0978 27.8701 27.2095 28.3545C28.4025 27.6501 29.1409 26.6268 29.6798 26.2278C29.9374 26.1664 30.1625 26.3915 30.565 26.6234" stroke="#AFECB2" stroke-width="6.72" stroke-linecap="round"/>
<path d="M40.6402 15.8932C36.6101 15.7227 34.6779 15.8352 33.5096 16.2045C33.0298 16.3561 32.4573 16.7425 31.8894 17.3949C31.0516 18.3572 31.2601 22.2853 31.4579 24.8418C31.5968 26.6368 32.3959 27.9406 32.963 28.9648C33.4701 29.8805 34.6096 30.1611 36.1693 30.6438C37.7087 31.1202 39.1581 30.5619 39.8394 30.2217C40.8187 29.7327 41.602 28.633 42.3431 27.4946C43.1212 26.2993 43.1404 24.7105 43.1139 21.1375C43.1079 20.3265 42.8607 19.9932 42.4642 19.6504C40.5008 17.953 37.584 17.7147 36.2094 17.4571C35.3103 17.2887 31.6899 17.2576 29.2178 17.9926C27.5243 18.4962 27.9072 21.511 27.8773 24.4947C27.8602 26.209 28.7565 27.0879 29.7772 28.4506C31.0961 30.2113 31.7683 30.8979 32.6773 31.2978C33.8892 31.831 37.144 32.0951 39.7243 31.5298C41.7647 31.0827 42.8504 29.9394 44.0187 29.1421C45.1667 28.3586 45.7531 27.2107 46.2384 25.8753C47.005 23.7654 46.2136 20.2183 45.8717 19.2513C45.3615 17.8087 43.9419 17.0325 42.72 16.4918C41.6444 16.016 39.1803 16.2343 36.8378 17.0828C36.0031 17.3851 35.6397 18.5026 35.2986 19.5523C35.0241 20.3973 35.239 21.1768 35.3805 21.801C35.4466 22.0925 35.5783 22.3126 35.8052 22.3441C36.3806 22.4242 36.8864 21.7515 37.1985 21.1844C37.7566 20.1705 34.5619 27.5893 34.0468 30.0409C33.9516 30.4943 33.9889 30.7819 34.1577 30.6173C36.6449 28.1929 38.8767 24.8776 39.0754 24.6491C39.8797 23.7239 39.6169 27.545 39.7294 27.7453C39.9527 28.1427 40.4679 26.8679 40.7237 26.329C40.8107 26.0714 40.8107 25.8463 40.7263 25.5896C40.6419 25.333 40.473 25.0516 39.958 24.25" stroke="#AFECB2" stroke-width="6.72" stroke-linecap="round"/>
<path d="M16.8599 15.9093C17.1036 15.4175 18.3118 14.2786 18.8802 13.906C19.4585 13.527 20.1214 13.2844 20.76 13.0188C21.6684 12.641 22.3205 12.5392 23.294 12.4147C26.268 12.0342 28.0686 12.8564 28.6732 13.0523C29.7335 13.3958 31.0853 14.4169 31.6537 14.8433C32.2057 15.2573 32.7884 15.6581 33.5868 16.4916C33.8188 16.829 33.9966 17.1143 34.1914 17.3974C34.2808 17.5401 34.351 17.6806 34.5299 17.9318" stroke="#AFECB2" stroke-width="6.72" stroke-linecap="round"/>
<path d="M18.8599 35.667C19.1079 36.0204 19.4602 36.5164 20.0286 36.8193C20.5885 37.1176 21.2698 37.2275 21.8382 37.352C22.3959 37.4742 22.9729 37.5468 23.5414 37.6006C24.1548 37.6586 26.9604 37.7959 28.6508 37.69C29.245 37.6528 29.7855 37.2296 30.4422 36.8395C31.0288 36.3781 31.595 35.882 32.0575 35.3498C32.1645 35.2071 32.2699 35.0666 32.4849 34.8154" stroke="#AFECB2" stroke-width="6.72" stroke-linecap="round"/>
<path d="M20.7598 22.4912V22.7792" stroke="#0D0D0D" stroke-width="2.5" stroke-linecap="round"/>
<path d="M27.96 22.3154V22.5075" stroke="#0D0D0D" stroke-width="2.5" stroke-linecap="round"/>
<path d="M18.3599 29.8517C18.4424 29.5628 18.6501 29.2281 18.9415 28.926C19.1232 28.7377 19.3181 28.7259 19.4948 28.7465C19.9313 28.7975 20.3588 29.1625 20.725 29.3611C21.0503 29.5374 21.3395 29.8092 21.7254 29.8311C22.237 29.8601 22.7568 29.165 23.2672 28.811C23.7327 28.4881 24.3405 28.3506 24.8299 28.3816C25.3677 28.4156 25.6552 28.8497 26.093 29.0899C26.2769 29.1908 26.7579 29.2263 27.3933 29.1953C27.9136 29.17 28.157 28.7684 28.8225 28.3422C29.7872 27.7243 30.4074 27.7877 30.8052 27.8603C30.9716 27.9328 31.1392 28.0166 31.2952 28.1101C31.3687 28.1624 31.4307 28.2243 31.6821 28.4132" stroke="#0D0D0D" stroke-width="2" stroke-linecap="round"/>
<path d="M14.7359 16.1838C14.8946 13.1822 15.2853 11.0861 15.5268 9.98008C15.6808 9.27469 16.322 8.04485 17.4657 6.41992C19.8033 3.09877 22.5774 2.54453 23.5942 2.37484C25.3266 2.08569 28.0635 1.92991 29.1061 2.02865C30.3875 2.14999 31.2818 2.2169 32.1702 2.25649C33.5375 2.31743 34.8014 3.11153 35.6332 3.59878C36.5564 4.13965 37.436 5.02244 38.0552 5.87261C38.6267 6.65723 39.1278 7.36622 39.4453 8.12251C39.7576 8.86634 40.0012 10.9026 40.0262 13.4998C40.0355 14.4684 39.4823 14.6931 39.1502 14.8487C38.1535 15.3155 37.2327 15.3487 36.2302 15.6392C34.1653 16.2377 31.6821 16.3109 28.6754 16.7651C26.5428 17.0872 22.5338 17.3661 20.304 17.5509C16.9534 17.8287 15.5769 17.7742 14.2568 17.8237C13.3666 17.857 12.3799 17.6825 11.1973 17.6447C10.0347 17.6076 8.9463 17.1713 8.03803 16.9356C7.62637 16.8288 7.22462 16.6439 6.98454 16.4463C6.39909 15.9646 8.80342 15.2711 9.74215 14.7643C10.5513 14.3274 11.546 14.1277 12.4305 13.874C12.644 13.7804 12.8276 13.666 13.0907 13.5913C13.3538 13.5166 13.6909 13.4849 14.0381 13.4524" stroke="#F15659" stroke-width="4" stroke-linecap="round"/>
<path d="M21.5252 5.38992C19.4191 7.98391 18.1398 10.0705 17.4907 12.0406C17.1527 13.0665 17.1133 13.7998 17.2309 13.7674C18.2047 13.4994 18.4735 11.6187 19.2519 10.5175C21.0117 8.02812 23.611 4.71442 24.6492 3.67495C24.8429 3.48097 24.5674 5.33719 23.7584 7.66674C22.4322 11.4854 19.4413 13.4313 18.5141 14.0614C18.1537 14.3064 17.5397 14.643 17.3017 14.7654C17.1158 14.8611 18.2615 14.1926 19.8135 12.9967C21.3654 11.8009 23.6632 9.88518 25.1087 8.58229C26.5542 7.2794 27.0779 6.64737 27.4131 6.24277C27.8792 5.68016 26.3559 7.51881 23.3694 10.9358C20.1999 14.5622 18.9649 15.1953 18.3971 15.9603C18.1399 16.3067 20.6867 14.0284 24.8482 10.2775C26.859 8.46507 27.5698 7.62283 28.2565 6.8224C28.4265 6.62416 28.536 6.40463 28.5635 6.15622C28.591 5.90781 28.5157 5.62341 28.2535 5.42499C27.9912 5.22657 27.5443 5.12276 27.4322 5.03391C26.5089 4.30219 31.1246 4.78108 32.7354 4.90234C33.7399 4.97796 34.9403 5.15924 36.2436 5.67514C37.4826 6.16561 37.8505 7.87453 38.1874 9.0971C38.6103 10.6317 37.9582 11.5975 37.3761 12.4382C36.9421 13.0649 35.6251 13.3399 33.1563 13.8165C28.8447 14.6489 25.6867 14.6665 24.9758 14.6595C23.8237 14.6483 22.601 14.71 22.0602 14.4693C21.0962 14.04 23.6932 12.3554 24.8923 11.3126C28.0417 8.57362 31.0569 6.0681 31.4132 5.69171C31.5822 5.5131 31.7785 5.41162 31.8129 5.74696C32.0789 8.34035 29.7707 10.5445 29.2743 11.358C28.0018 13.4436 32.8192 8.11087 33.0333 8.03927C34.4707 7.55855 32.3111 10.9966 32.1403 11.8517C31.8158 13.4767 34.2105 9.35379 34.6857 8.94269C34.9488 8.71505 35.1955 8.38261 35.429 9.01209C35.6624 9.64156 35.8596 11.2261 34.6302 12.0944C28.9848 16.0813 27.1099 13.1095 26.5495 13.1378C26.2783 13.1515 26.0327 13.1134 26.339 12.7925C26.6452 12.4716 27.5105 11.8561 28.0766 11.5277C28.6427 11.1993 28.8834 11.1768 29.1315 11.1535" stroke="#F15659" stroke-width="4" stroke-linecap="round"/>
<path d="M13.4136 11.8682C13.9668 12.1247 15.6225 12.8523 17.1938 13.2407C18.2458 13.5007 19.5083 13.5993 20.4663 13.6218C21.2038 13.6391 21.9121 13.685 23.0258 13.758C23.6469 13.7987 24.1434 13.8307 26.0006 13.723C27.6824 13.6254 30.8547 13.2903 32.5969 13.105C35.002 12.8491 36.3758 12.5066 37.4244 12.276C38.3753 12.0093 39.1564 11.847 39.8479 11.6498C40.0204 11.5891 40.1903 11.5293 40.7359 11.167" stroke="#D93033" stroke-width="4" stroke-linecap="round"/>
<path d="M13.8545 10.001C14.2495 10.1037 15.122 10.3755 15.7053 10.5674C16.3195 10.7696 16.9652 10.8378 17.5495 10.854C18.2572 10.8735 18.9531 10.969 19.5796 11.0516C20.3358 11.1512 21.1173 11.0837 21.7412 11.149C22.6344 11.2426 23.4828 11.1096 24.3332 11.1351C25.2231 11.1619 26.6902 11.1264 27.6676 11.1226C28.4962 11.1194 29.0608 11.1158 29.7002 11.1611C29.9135 11.1763 30.1938 11.1853 31.5677 11.0744C32.9415 10.9636 35.4005 10.7329 36.7522 10.5887C38.6319 10.3881 39.5872 10.1285 40.4018 9.92933C40.6873 9.77974 40.9587 9.64736 41.2297 9.53407C41.3654 9.4684 41.4974 9.38614 41.6236 9.19644" stroke="#FFF06C" stroke-linecap="round"/>
</svg>
