<svg width="50" height="52" viewBox="0 0 50 52" fill="none" xmlns="http://www.w3.org/2000/svg">
<path d="M13.0257 28.9662C11.8421 28.9099 9.10993 29.1334 7.80014 29.9298C6.72072 30.5862 5.19077 32.1418 4.15982 33.2828C3.28731 34.2484 3.4205 35.6107 3.36081 38.6473C3.3316 40.1336 3.98331 41.0136 4.52479 41.9243C5.07471 42.8492 6.197 43.5718 8.10116 44.5397C10.0647 45.5377 13.1348 44.7145 14.3551 44.2608C16.7941 43.3541 17.8521 42.7839 18.6512 42.0727C19.6454 41.1878 19.9601 39.4889 20.4428 37.1942C21.0294 34.405 20.4735 32.3226 20.3319 31.8689C19.9009 30.4875 18.0329 29.4233 16.9525 29.251C15.8475 29.0749 14.9631 28.8537 11.3629 28.8801C10.3269 28.8877 9.73243 29.5887 8.96667 30.1839C7.42569 31.3817 7.5682 35.3651 8.24697 38.8195C8.45814 39.8942 9.15768 40.4474 9.7239 40.7885C11.0916 41.6124 12.6778 39.6595 13.9586 38.6072C15.0189 37.7361 15.4116 36.4174 15.6956 35.6516C15.9494 34.9673 15.925 33.8063 15.5029 33.4286C13.7122 31.826 13.0291 38.0529 12.3205 38.4043C9.91359 39.5975 11.0934 34.0229 11.0081 34.6181C10.9791 34.9319 10.9791 35.2696 11.0354 35.5561C11.0917 35.8427 11.2042 36.0678 11.3202 36.2997" stroke="#AFECB2" stroke-width="6.72" stroke-linecap="round"/>
<path d="M30.735 27.8175C28.651 27.8175 22.9649 28.0426 20.9337 28.5824C19.5288 28.9558 19.4244 31.5013 19.1669 33.4933C18.9281 35.3405 19.3067 37.0782 19.647 38.0153C20.0827 39.2154 21.3516 40.0355 22.2043 40.4934C23.1927 41.0241 24.1929 41.2907 25.8915 41.4322C28.6994 41.6662 31.2961 40.7859 32.5173 39.5093C34.009 37.9498 33.7469 36.1265 33.833 34.9276C33.9393 33.4476 33.7503 31.5218 33.3231 30.2376C33.0044 29.2795 32.0483 28.3905 30.9388 27.7058C29.5276 26.8348 28.0711 26.9102 26.5336 26.7661C24.0496 26.5333 20.2805 26.9614 19.4815 27.6444C18.7164 28.2984 18.3431 29.4036 17.6627 30.9948C17.0746 32.3699 16.9788 33.7798 16.9771 36.5614C16.976 38.2522 17.6575 39.3533 18.141 40.264C18.6668 41.2543 19.4756 41.9695 20.4699 42.5962C21.3007 43.12 22.542 43.1087 27.3054 43.0823C29.3137 43.0711 30.2746 42.1468 31.2433 41.4919C32.0809 40.9256 33.2284 40.0457 34.1434 38.8792C35.0406 37.7353 35.1658 35.8434 35.2554 34.0203C35.3272 32.5573 33.358 31.6889 31.8231 31.0315C30.14 30.3105 27.3395 30.5462 24.812 30.7151C23.2717 30.818 22.6648 31.9072 22.183 32.7847C20.9178 35.0889 21.1844 36.8496 21.3814 37.7885C22.1621 41.5093 29.5395 31.9703 29.6828 31.7128C30.9773 29.3858 27.0973 37.9326 27.209 38.417C28.402 37.7126 29.1404 36.6893 29.6794 36.2903C29.9369 36.2289 30.162 36.454 30.5645 36.6859" stroke="#AFECB2" stroke-width="6.72" stroke-linecap="round"/>
<path d="M40.6402 25.9557C36.6101 25.7852 34.6779 25.8977 33.5096 26.267C33.0298 26.4186 32.4573 26.805 31.8894 27.4574C31.0516 28.4197 31.2601 32.3478 31.4579 34.9043C31.5968 36.6993 32.3959 38.0031 32.963 39.0273C33.4701 39.943 34.6096 40.2236 36.1693 40.7063C37.7087 41.1827 39.1581 40.6244 39.8394 40.2842C40.8187 39.7952 41.602 38.6955 42.3431 37.5571C43.1212 36.3618 43.1404 34.773 43.1139 31.2C43.1079 30.389 42.8607 30.0557 42.4642 29.7129C40.5008 28.0155 37.584 27.7772 36.2094 27.5196C35.3103 27.3512 31.6899 27.3201 29.2178 28.0551C27.5243 28.5587 27.9072 31.5735 27.8773 34.5572C27.8602 36.2715 28.7565 37.1504 29.7772 38.5131C31.0961 40.2738 31.7683 40.9604 32.6773 41.3603C33.8892 41.8935 37.144 42.1576 39.7243 41.5923C41.7647 41.1452 42.8504 40.0019 44.0187 39.2046C45.1667 38.4211 45.7531 37.2732 46.2384 35.9378C47.005 33.8279 46.2136 30.2808 45.8717 29.3138C45.3615 27.8712 43.9419 27.095 42.72 26.5543C41.6444 26.0785 39.1803 26.2968 36.8378 27.1453C36.0031 27.4476 35.6397 28.5651 35.2986 29.6148C35.0241 30.4598 35.239 31.2393 35.3805 31.8635C35.4466 32.155 35.5783 32.3751 35.8052 32.4066C36.3806 32.4867 36.8864 31.814 37.1985 31.2469C37.7566 30.233 34.5619 37.6518 34.0468 40.1034C33.9516 40.5568 33.9889 40.8444 34.1577 40.6798C36.6449 38.2554 38.8767 34.9401 39.0754 34.7116C39.8797 33.7864 39.6169 37.6075 39.7294 37.8078C39.9527 38.2052 40.4679 36.9304 40.7237 36.3915C40.8107 36.1339 40.8107 35.9088 40.7263 35.6521C40.6419 35.3955 40.473 35.1141 39.958 34.3125" stroke="#AFECB2" stroke-width="6.72" stroke-linecap="round"/>
<path d="M16.8599 25.9718C17.1036 25.48 18.3118 24.3411 18.8802 23.9685C19.4585 23.5895 20.1214 23.3469 20.76 23.0813C21.6684 22.7035 22.3205 22.6017 23.294 22.4772C26.268 22.0967 28.0686 22.9189 28.6732 23.1148C29.7335 23.4583 31.0853 24.4794 31.6537 24.9058C32.2057 25.3198 32.7884 25.7206 33.5868 26.5541C33.8188 26.8915 33.9966 27.1768 34.1914 27.4599C34.2808 27.6026 34.351 27.7431 34.5299 27.9943" stroke="#AFECB2" stroke-width="6.72" stroke-linecap="round"/>
<path d="M18.8599 45.7295C19.1079 46.0829 19.4602 46.5789 20.0286 46.8818C20.5885 47.1801 21.2698 47.29 21.8382 47.4145C22.3959 47.5367 22.9729 47.6093 23.5414 47.6631C24.1548 47.7211 26.9604 47.8584 28.6508 47.7525C29.245 47.7153 29.7855 47.2921 30.4422 46.902C31.0288 46.4406 31.595 45.9445 32.0575 45.4123C32.1645 45.2696 32.2699 45.1291 32.4849 44.8779" stroke="#AFECB2" stroke-width="6.72" stroke-linecap="round"/>
<path d="M20.7603 32.5537V32.8417" stroke="#0D0D0D" stroke-width="2.5" stroke-linecap="round"/>
<path d="M27.9604 32.3779V32.57" stroke="#0D0D0D" stroke-width="2.5" stroke-linecap="round"/>
<path d="M18.3599 39.9142C18.4424 39.6253 18.6501 39.2906 18.9415 38.9885C19.1232 38.8002 19.3181 38.7884 19.4948 38.809C19.9313 38.86 20.3588 39.225 20.725 39.4236C21.0503 39.5999 21.3395 39.8717 21.7254 39.8936C22.237 39.9226 22.7568 39.2275 23.2672 38.8735C23.7327 38.5506 24.3405 38.4131 24.8299 38.4441C25.3677 38.4781 25.6552 38.9122 26.093 39.1524C26.2769 39.2533 26.7579 39.2888 27.3933 39.2578C27.9136 39.2325 28.157 38.8309 28.8225 38.4047C29.7872 37.7868 30.4074 37.8502 30.8052 37.9228C30.9716 37.9953 31.1392 38.0791 31.2952 38.1726C31.3687 38.2249 31.4307 38.2868 31.6821 38.4757" stroke="#0D0D0D" stroke-width="2" stroke-linecap="round"/>
<path d="M17.7575 22.4182C18.1243 20.5785 19.2359 17.2381 19.9321 15.7082C20.7467 13.9181 22.4652 9.75686 23.8686 7.139C24.0653 6.77205 24.2382 6.39977 24.5161 6.21079C24.794 6.02182 25.1608 6.02182 25.4415 6.20524C26.9293 7.17746 27.851 9.25663 29.0543 12.0315C30.1183 14.4851 30.5411 16.3877 31.2331 18.5192C31.896 20.5613 31.8361 22.5016 31.5179 24.5886C28.9709 25.011 22.7208 25.1972 18.644 24.3218C18.2243 23.9967 17.8575 23.6299 17.2017 22.974" stroke="#FF7B00" stroke-width="3.85" stroke-linecap="round"/>
<path d="M25.2113 8.88281C23.6246 13.303 22.1838 16.9967 21.0127 19.5683C20.4829 20.7315 20.0115 21.5731 19.693 22.096C19.3744 22.6189 19.2044 22.7889 19.7119 22.1965C22.8461 18.5372 23.7173 17.1324 25.0636 14.9584C25.4771 14.2907 25.6681 13.7512 25.8965 13.1802C26.0115 12.8925 26.1249 12.6092 25.9849 13.1999C24.7846 18.2661 23.154 21.5285 22.3521 22.9297C21.9697 23.5978 21.7785 24.2211 21.8326 24.1112C23.1642 21.4058 24.6309 19.9967 25.6655 18.562C27.068 16.6171 27.6137 15.0683 27.8996 14.8931C30.3294 13.4046 27.5021 20.8416 27.102 22.3287C26.9416 22.9249 26.7568 23.4191 26.8418 23.6501C27.367 25.0771 28.8123 20.9086 29.6134 20.2775C29.9045 20.1564 29.9611 20.4398 30.0187 20.6991C30.0762 20.9584 30.1329 21.185 30.1913 21.5903" stroke="#FF7B00" stroke-width="3.85" stroke-linecap="round"/>
<path d="M24.8687 21.9336C25.322 22.0469 25.7754 22.1603 26.1506 22.2753C26.5258 22.3904 26.8091 22.5037 27.2728 22.6205" stroke="#FF7B00" stroke-width="3.85" stroke-linecap="round"/>
<path d="M21.2622 9.56934C22.1174 9.626 23.3744 9.74106 24.9731 9.88358C25.8266 9.91278 27.3 9.91278 28.1723 9.85611C29.0447 9.79944 29.2714 9.68611 29.6766 9.56934" stroke="#FFF200" stroke-width="2.31" stroke-linecap="round"/>
<path d="M18.5142 14.8936C19.4209 15.1202 23.0614 15.237 27.983 15.2087C29.9578 15.1237 30.4747 15.0086 31.0456 14.9227C31.3333 14.8936 31.6166 14.8936 31.9085 14.8936" stroke="#FFF200" stroke-width="2.31" stroke-linecap="round"/>
<path d="M16.7974 20.7314C17.8191 20.7314 20.1116 20.8448 21.9963 21.0457C23.9857 21.0749 25.5518 21.1316 27.3137 21.2174C28.7355 21.2466 31.2289 21.2466 33.7979 21.0749" stroke="#FFF200" stroke-width="2.31" stroke-linecap="round"/>
<path d="M16.2816 24.6815C16.2816 24.9082 16.225 25.2516 16.2241 25.6801C16.2237 25.8894 16.4499 26.0518 16.5942 26.0261C16.7384 26.0003 16.8518 25.7736 16.9102 25.7702C17.1405 25.7567 17.1385 26.397 17.5378 26.7113C17.9886 27.0661 18.909 27.0856 19.7676 26.9439C20.0878 26.8911 20.0596 26.5189 19.9462 26.3163C19.7196 25.9112 19.0893 25.8269 18.575 25.826C18.3374 25.8256 18.174 26.0518 18.1715 26.2528C18.1656 26.7119 18.7407 27.0272 19.2258 27.2556C20.9318 28.0588 23.3772 27.4874 23.8057 27.2024C24.0263 27.0556 24.1775 26.804 24.1517 26.6022C24.1259 26.4004 23.8993 26.2304 23.6125 26.1429C23.3257 26.0553 22.9857 26.0553 22.7822 26.1686C22.5787 26.2819 22.5221 26.5086 22.5495 26.7387C22.577 26.9688 22.6903 27.1955 22.9187 27.3973C24.3062 28.6231 26.8666 27.7175 27.5535 27.2324C27.8381 27.0315 27.7871 26.6906 27.5887 26.5447C27.3904 26.3987 26.9937 26.3987 26.761 26.5121C26.5283 26.6254 26.4717 26.8521 26.4992 27.0822C26.5266 27.3123 26.64 27.539 26.8684 27.7124C27.3754 28.0974 28.7504 28.1159 30.2667 28.0026C30.8296 27.9605 30.933 27.6626 30.9631 27.4325C30.9931 27.2024 30.9365 26.9757 30.7939 26.7739C30.6514 26.5722 30.4247 26.4022 30.1946 26.3146C29.9645 26.227 29.7378 26.227 29.5361 26.312C29.3343 26.397 29.1643 26.567 29.105 26.7679C29.0458 26.9688 29.1025 27.1955 29.3017 27.369C30.7319 28.6142 33.3372 27.6592 33.7373 27.3458C34.1798 26.9992 34.1408 26.2871 34.0275 25.8011C33.9747 25.575 33.6875 25.4852 33.429 25.4268C33.1706 25.3684 32.8872 25.3684 32.7696 25.4817C32.652 25.5951 32.7086 25.8217 32.8512 25.9952C33.148 26.3564 33.9073 26.3987 34.6792 26.3137C35.0069 26.2776 35.1677 26.0587 35.2836 25.8578C35.3995 25.6569 35.4562 25.4302 35.4287 25.2001C35.4013 24.97 35.2879 24.7433 35.0312 24.6265C34.7745 24.5098 34.3778 24.5098 34.2868 24.5098C34.1958 24.5098 34.4224 24.5098 35.1711 24.6815" stroke="#FFF200" stroke-width="2.31" stroke-linecap="round"/>
<path d="M14.9083 24.5098C14.795 24.5098 14.6233 24.7364 14.4515 25.1932C14.368 25.4154 14.3931 25.65 14.5348 25.7951C14.6765 25.9402 14.9598 25.9969 15.3608 26.0261C15.7618 26.0553 16.2718 26.0553 16.6255 25.5401" stroke="#FFF200" stroke-width="2.31" stroke-linecap="round"/>
<path d="M25.5551 1.15527C25.4417 1.15527 24.9867 1.15527 24.3006 1.26861C23.994 1.31926 23.8413 1.60863 23.7537 2.00874C23.5461 2.95705 23.7795 3.78607 24.0645 4.15785C24.3362 4.51224 25.0365 4.41801 25.6366 4.30467C26.1754 4.20293 26.412 3.56111 26.6979 3.19019C26.9794 2.82499 26.9288 2.18904 26.8155 1.64554C26.7281 1.22643 26.0153 1.27033 25.5868 1.2978C25.3851 1.38195 25.2151 1.60863 25.1275 1.92374C25.0399 2.23885 25.0399 2.63553 25.2116 3.38767" stroke="#FFF200" stroke-width="2.31" stroke-linecap="round"/>
</svg>
