<svg width="47" height="38" viewBox="0 0 47 38" fill="none" xmlns="http://www.w3.org/2000/svg">
<path d="M7.37878 12.716C6.13405 13.4273 5.31501 14.1493 5.00113 14.9549C4.30589 16.7393 4.50673 18.2769 4.45958 22.9352C4.43289 25.5726 5.30962 27.1679 6.11788 28.8747C6.99598 30.7289 8.62892 31.5703 10.3357 32.6048C11.8815 33.5418 13.4785 33.7256 25.2038 33.956C28.7559 34.0258 30.5384 33.5532 33.1437 32.9699C35.2039 32.5086 36.6489 32.2061 38.803 31.2213C40.8873 30.2684 41.1429 27.6367 42.0414 24.9842C42.6792 23.1016 42.6732 16.8112 42.4051 12.9908C42.2896 11.3438 40.5232 10.0272 38.64 8.76895C36.6661 7.45024 34.5097 7.05811 32.0849 6.61087C30.48 6.31485 21.739 6.24984 16.0529 6.56237C14.2317 6.66247 12.8642 7.41375 10.531 8.58036C8.89939 9.39618 7.92302 11.0025 7.11206 12.4412C6.34073 13.8096 6.12327 15.3133 6.16503 22.387C6.18235 25.3222 8.09006 26.4512 9.39407 27.5302C10.2267 28.2192 11.2369 28.5204 14.3542 28.9232C22.2223 29.9398 28.6524 29.4229 30.4913 28.9743C31.7077 28.7036 32.6103 28.4341 33.595 28.0758C34.1352 27.8953 34.7576 27.7175 35.6682 27.5343" stroke="#D9D9D9" stroke-width="7.98" stroke-linecap="round"/>
<path d="M17.5853 6.47754C16.3493 6.72523 15.4428 6.88871 14.4309 7.0138C13.671 7.10774 13.0476 7.50795 12.1806 7.83862C11.4698 8.10976 10.6548 8.37488 9.90927 8.60276C9.21093 8.81621 8.26209 9.73224 7.55555 10.4592C6.93304 11.0997 6.39943 11.8822 5.9864 12.4612C5.53801 13.0898 5.61424 13.8638 5.34611 14.5251C4.54295 16.5061 5.36407 20.3039 5.61238 20.9448C5.88747 21.6548 6.60007 22.491 8.04226 23.7697C8.99247 24.6122 10.8864 24.8057 12.6401 24.6441C13.9077 24.5273 13.6631 22.5814 13.6637 20.5937C13.6642 18.9732 13.5008 16.1129 13.3559 15.2113C13.0369 13.2263 12.8383 18.6109 12.7763 19.679C12.7358 20.3785 12.7553 21.4011 13.4909 20.3336C14.2266 19.266 15.6979 16.0782 16.6602 14.1907C17.6225 12.3033 18.0312 11.8129 18.4461 13.195C18.8609 14.5772 19.2696 17.8467 19.4802 19.8171C19.6907 21.7875 19.6907 22.3597 19.6907 22.3888C19.6907 22.4179 19.6907 21.8866 19.9768 19.8555C20.2629 17.8244 20.8351 14.3096 21.8246 14.6242C22.8142 14.9388 24.2037 19.1892 24.9604 21.4606C25.7171 23.732 25.7989 23.8954 25.8819 23.857C25.9648 23.8186 26.0466 23.5734 26.5382 21.3832C27.0299 19.1929 27.9291 15.0651 29.2096 14.7574C30.4902 14.4496 32.125 18.087 33.2737 19.2456C34.4224 20.4042 35.0354 18.9737 35.4125 18.1551C35.8736 17.1543 36.2429 16.555 36.6343 15.976C36.7616 15.7876 36.9848 16.0509 37.1507 16.381C38.3746 18.815 38.2678 22.3659 38.1861 23.1709C38.149 23.5365 35.6472 24.0577 31.3646 25.15C29.2231 25.6962 27.0819 25.9562 25.3332 26.1247C22.2861 26.4182 20.357 26.1705 19.4288 25.9234C19.0643 25.8264 18.9501 25.6764 18.8257 25.4088C18.5219 24.7561 18.3705 23.6576 18.2467 21.6656C17.8961 16.0271 18.4101 14.9462 18.8424 14.2818C19.7375 12.9057 21.5472 11.4327 21.8351 11.2265C22.1523 10.9994 23.9684 11.0599 26.5667 11.1008C29.0656 11.1401 30.297 11.3893 33.4254 11.7602C34.619 11.9018 35.1692 12.7071 35.7878 13.4712C36.0349 13.7796 36.4027 14.27 36.6739 14.5431C36.9451 14.8162 37.1086 14.857 37.2771 14.8992" stroke="#D9D9D9" stroke-width="7.98" stroke-linecap="round"/>
<path d="M16.0166 21.8223V22.1823" stroke="#0D0D0D" stroke-width="2.5" stroke-linecap="round"/>
<path d="M21.5166 21.8223V22.0623" stroke="#0D0D0D" stroke-width="2.5" stroke-linecap="round"/>
<path d="M15.9111 27.3249C16.9481 27.4449 18.3835 27.2865 19.727 27.1851C20.3061 27.1257 21.1462 27.0848 22.3626 27.065C23.0245 27.0452 23.777 27.0056 24.5523 26.9648" stroke="#0D0D0D" stroke-width="2" stroke-linecap="round"/>
<path d="M4.41235 3.61158C4.1417 3.26246 3.49627 2.54946 3.0307 2.0404C2.86435 1.8585 2.64135 1.77909 2.4247 1.72516C2.18315 1.66503 1.8954 1.84128 1.64391 2.05942C1.27612 2.37842 0.918729 2.85209 1.01593 4.4014C1.07678 5.3714 1.51631 5.85389 1.80151 6.20683C2.12201 6.60345 2.45173 7.00073 2.92652 7.31201C3.46077 7.66227 3.82914 7.99309 4.25246 8.19225C4.77359 8.43741 5.69835 8.59998 6.6621 8.4202C7.26388 8.30794 7.72044 7.46211 8.05321 6.81758C8.74207 5.48336 8.66042 3.38682 8.60912 2.95789C8.55699 2.52201 8.32607 2.07876 8.00063 1.62818C7.73807 1.26464 7.23854 1.0962 6.538 1.00592C5.98516 0.93468 5.7703 1.64601 5.52862 2.08966C5.22885 2.57976 5.06625 3.03302 4.90967 3.43564C4.87038 3.53667 4.83167 3.63619 4.78194 3.81659" stroke="#FFA3A3" stroke-width="2" stroke-linecap="round"/>
</svg>
