<svg width="47" height="38" viewBox="0 0 47 38" fill="none" xmlns="http://www.w3.org/2000/svg">
<path d="M6.91003 12.3605C5.6653 13.0718 4.84626 13.7939 4.53238 14.5994C3.83714 16.3838 4.03798 17.9214 3.99083 22.5798C3.96414 25.2172 4.84087 26.8124 5.64913 28.5192C6.52723 30.3735 8.16017 31.2148 9.86696 32.2494C11.4127 33.1863 13.0098 33.3702 24.7351 33.6005C28.2871 33.6703 30.0697 33.1977 32.675 32.6144C34.7352 32.1532 36.1802 31.8506 38.3342 30.8659C40.4186 29.913 40.6742 27.2812 41.5727 24.6287C42.2104 22.7461 42.2045 16.4558 41.9364 12.6354C41.8208 10.9883 40.0545 9.67168 38.1712 8.41348C36.1974 7.09477 34.041 6.70264 31.6162 6.2554C30.0113 5.95938 21.2703 5.89437 15.5841 6.2069C13.7629 6.307 12.3955 7.05828 10.0623 8.22489C8.43064 9.04072 7.45427 10.647 6.64331 12.0857C5.87198 13.4541 5.65452 14.9578 5.69628 22.0315C5.7136 24.9668 7.62131 26.0957 8.92532 27.1748C9.75796 27.8638 10.7682 28.1649 13.8854 28.5677C21.7536 29.5844 28.1837 29.0675 30.0225 28.6189C31.239 28.3481 32.1415 28.0787 33.1263 27.7203C33.6665 27.5398 34.2888 27.362 35.1995 27.1788" stroke="#D9D9D9" stroke-width="7.98" stroke-linecap="round"/>
<path d="M17.1166 6.12207C15.8806 6.36977 14.974 6.53324 13.9622 6.65833C13.2023 6.75227 12.5788 7.15248 11.7119 7.48315C11.001 7.75429 10.1861 8.01941 9.44052 8.24729C8.74218 8.46074 7.79334 9.37678 7.0868 10.1038C6.46429 10.7443 5.93068 11.5268 5.51765 12.1058C5.06926 12.7343 5.14549 13.5083 4.87736 14.1697C4.0742 16.1507 4.89532 19.9484 5.14363 20.5893C5.41872 21.2993 6.13132 22.1355 7.57351 23.4143C8.52372 24.2568 10.4177 24.4502 12.1714 24.2886C13.439 24.1718 13.1943 22.2259 13.1949 20.2382C13.1955 18.6178 13.0321 15.7574 12.8872 14.8558C12.5682 12.8708 12.3695 18.2554 12.3076 19.3236C12.267 20.0231 12.2865 21.0457 13.0222 19.9781C13.7578 18.9105 15.2291 15.7227 16.1914 13.8353C17.1537 11.9478 17.5624 11.4574 17.9773 12.8395C18.3922 14.2217 18.8009 17.4913 19.0114 19.4617C19.222 21.4321 19.222 22.0043 19.222 22.0334C19.222 22.0625 19.222 21.5312 19.5081 19.5001C19.7941 17.469 20.3663 13.9542 21.3559 14.2687C22.3454 14.5833 23.735 18.8338 24.4917 21.1051C25.2484 23.3765 25.3301 23.54 25.4131 23.5016C25.4961 23.4632 25.5778 23.218 26.0695 21.0277C26.5612 18.8375 27.4603 14.7096 28.7409 14.4019C30.0215 14.0941 31.6562 17.7315 32.8049 18.8901C33.9536 20.0487 34.5667 18.6183 34.9438 17.7996C35.4048 16.7988 35.7742 16.1995 36.1655 15.6205C36.2929 15.4321 36.516 15.6955 36.682 16.0255C37.9058 18.4596 37.7991 22.0104 37.7173 22.8155C37.6802 23.1811 35.1785 23.7022 30.8958 24.7945C28.7544 25.3407 26.6132 25.6008 24.8645 25.7692C21.8174 26.0627 19.8883 25.815 18.96 25.568C18.5955 25.4709 18.4814 25.3209 18.3569 25.0534C18.0532 24.4006 17.9018 23.3022 17.7779 21.3101C17.4274 15.6717 17.9414 14.5908 18.3736 13.9263C19.2688 12.5502 21.0784 11.0772 21.3664 10.871C21.6835 10.6439 23.4997 10.7044 26.098 10.7453C28.5968 10.7846 29.8283 11.0339 32.9566 11.4048C34.1502 11.5463 34.7004 12.3516 35.319 13.1157C35.5661 13.4241 35.9339 13.9145 36.2052 14.1876C36.4764 14.4607 36.6399 14.5016 36.8083 14.5437" stroke="#D9D9D9" stroke-width="7.98" stroke-linecap="round"/>
<path d="M15.5479 21.4668V21.8268" stroke="#0D0D0D" stroke-width="2.5" stroke-linecap="round"/>
<path d="M21.0479 21.4668V21.7068" stroke="#0D0D0D" stroke-width="2.5" stroke-linecap="round"/>
<path d="M15.4424 26.9694C16.4793 27.0894 17.9147 26.931 19.2583 26.8296C19.8374 26.7702 20.6775 26.7294 21.8938 26.7096C22.5557 26.6898 23.3082 26.6502 24.0835 26.6094" stroke="#0D0D0D" stroke-width="2" stroke-linecap="round"/>
<path d="M29.9877 5.34365C29.9144 5.34365 29.6569 5.34365 29.2322 5.2887C28.8141 5.23459 28.399 4.75415 27.9738 4.29231C27.3837 3.65137 27.5453 2.64481 27.6918 2.10971C27.8823 1.4141 28.58 1.16273 28.9302 1.05171C29.3704 0.9122 29.8012 1.08723 30.0782 1.25321C30.7068 1.62989 31.0956 2.60151 31.301 3.32368C31.3199 3.89376 31.2833 4.38002 31.1728 4.67532C31.099 4.82409 30.9891 4.97063 30.6538 5.23263" stroke="#FCA8A8" stroke-width="2" stroke-linecap="round"/>
<path d="M30.4314 5.34338C29.1858 5.5632 28.2511 5.67644 27.7337 5.76803C27.2793 5.84848 27.1387 6.4147 27.0276 6.91206C26.9587 7.2209 26.9899 7.66587 27.0815 7.96562C27.1731 8.26537 27.3563 8.41191 27.5605 8.50572C27.9637 8.69089 28.5042 8.67391 29.0032 8.61896C29.7237 8.53961 30.2072 7.71472 30.7995 6.5507C31.3066 5.55401 31.7614 4.38419 32.3532 3.80967C32.99 3.19136 35.1142 3.23405 36.4059 3.50993C36.7914 3.59227 36.7595 4.37753 36.6862 5.00589C36.5191 6.43832 33.3956 6.3048 32.0462 6.43413C31.1829 6.51687 31.2463 7.74581 31.1531 8.39359C31.0229 9.29802 32.019 9.92842 32.7412 10.3014C33.2488 10.5636 33.7975 10.3025 34.1294 10.1921C34.5516 10.0516 34.981 9.67529 35.3323 9.26897C35.5764 8.98674 35.5383 8.56512 35.465 8.15879C35.3917 7.97228 35.2452 7.82574 35.0964 7.69529C34.9476 7.56485 34.8011 7.45494 34.4281 7.23068" stroke="#FCA8A8" stroke-width="2" stroke-linecap="round"/>
</svg>
