<svg width="47" height="36" viewBox="0 0 47 36" fill="none" xmlns="http://www.w3.org/2000/svg">
<path d="M6.91003 10.3498C5.6653 11.0611 4.84626 11.7831 4.53238 12.5887C3.83714 14.373 4.03798 15.9107 3.99083 20.569C3.96414 23.2064 4.84087 24.8017 5.64913 26.5085C6.52723 28.3627 8.16017 29.204 9.86696 30.2386C11.4127 31.1756 13.0098 31.3594 24.7351 31.5898C28.2871 31.6596 30.0697 31.187 32.675 30.6037C34.7352 30.1424 36.1802 29.8399 38.3342 28.8551C40.4186 27.9022 40.6742 25.2705 41.5727 22.618C42.2104 20.7354 42.2045 14.445 41.9364 10.6246C41.8208 8.97758 40.0545 7.66094 38.1712 6.40274C36.1974 5.08403 34.041 4.6919 31.6162 4.24465C30.0113 3.94864 21.2703 3.88363 15.5841 4.19616C13.7629 4.29626 12.3955 5.04754 10.0623 6.21414C8.43064 7.02997 7.45427 8.63627 6.64331 10.075C5.87198 11.4433 5.65452 12.947 5.69628 20.0207C5.7136 22.956 7.62131 24.085 8.92532 25.164C9.75796 25.853 10.7682 26.1542 13.8854 26.5569C21.7536 27.5736 28.1837 27.0567 30.0225 26.6081C31.239 26.3374 32.1415 26.0679 33.1263 25.7096C33.6665 25.5291 34.2888 25.3513 35.1995 25.1681" stroke="#D9D9D9" stroke-width="7.98" stroke-linecap="round"/>
<path d="M17.1166 4.11133C15.8806 4.35902 14.974 4.5225 13.9622 4.64758C13.2023 4.74152 12.5788 5.14174 11.7119 5.47241C11.001 5.74355 10.1861 6.00867 9.44052 6.23655C8.74218 6.45 7.79334 7.36603 7.0868 8.09302C6.46429 8.73353 5.93068 9.51603 5.51765 10.095C5.06926 10.7236 5.14549 11.4976 4.87736 12.1589C4.0742 14.1399 4.89532 17.9376 5.14363 18.5786C5.41872 19.2886 6.13132 20.1248 7.57351 21.4035C8.52372 22.246 10.4177 22.4395 12.1714 22.2779C13.439 22.1611 13.1943 20.2152 13.1949 18.2274C13.1955 16.607 13.0321 13.7466 12.8872 12.845C12.5682 10.8601 12.3695 16.2447 12.3076 17.3128C12.267 18.0123 12.2865 19.0349 13.0222 17.9674C13.7578 16.8998 15.2291 13.712 16.1914 11.8245C17.1537 9.9371 17.5624 9.44667 17.9773 10.8288C18.3922 12.2109 18.8009 15.4805 19.0114 17.4509C19.222 19.4213 19.222 19.9935 19.222 20.0226C19.222 20.0517 19.222 19.5204 19.5081 17.4893C19.7941 15.4582 20.3663 11.9434 21.3559 12.258C22.3454 12.5726 23.735 16.823 24.4917 19.0944C25.2484 21.3657 25.3301 21.5292 25.4131 21.4908C25.4961 21.4524 25.5778 21.2072 26.0695 19.017C26.5612 16.8267 27.4603 12.6989 28.7409 12.3911C30.0215 12.0834 31.6562 15.7208 32.8049 16.8794C33.9536 18.038 34.5667 16.6075 34.9438 15.7889C35.4048 14.788 35.7742 14.1888 36.1655 13.6098C36.2929 13.4214 36.516 13.6847 36.682 14.0148C37.9058 16.4488 37.7991 19.9997 37.7173 20.8047C37.6802 21.1703 35.1785 21.6915 30.8958 22.7838C28.7544 23.33 26.6132 23.59 24.8645 23.7585C21.8174 24.052 19.8883 23.8043 18.96 23.5572C18.5955 23.4602 18.4814 23.3101 18.3569 23.0426C18.0532 22.3899 17.9018 21.2914 17.7779 19.2994C17.4274 13.6609 17.9414 12.58 18.3736 11.9156C19.2688 10.5395 21.0784 9.06646 21.3664 8.86025C21.6835 8.63314 23.4997 8.69368 26.098 8.73455C28.5968 8.77385 29.8283 9.02311 32.9566 9.39404C34.1502 9.53556 34.7004 10.3409 35.319 11.105C35.5661 11.4134 35.9339 11.9038 36.2052 12.1769C36.4764 12.45 36.6399 12.4908 36.8083 12.5329" stroke="#D9D9D9" stroke-width="7.98" stroke-linecap="round"/>
<path d="M15.5479 19.4561V19.8161" stroke="#0D0D0D" stroke-width="2.5" stroke-linecap="round"/>
<path d="M21.0479 19.4561V19.6961" stroke="#0D0D0D" stroke-width="2.5" stroke-linecap="round"/>
<path d="M15.4424 24.9587C16.4793 25.0787 17.9147 24.9203 19.2583 24.8189C19.8374 24.7594 20.6775 24.7186 21.8938 24.6988C22.5557 24.679 23.3082 24.6394 24.0835 24.5986" stroke="#0D0D0D" stroke-width="2" stroke-linecap="round"/>
<path d="M7.27807 16.7841C8.553 15.9368 11.075 15.0685 12.0345 15.04C13.6538 14.992 13.3604 15.1757 13.6611 15.2374C14.1027 15.4318 14.7139 15.6227 15.3835 16.4116C15.7753 17.2088 16.8405 18.115 16.1911 20.4041C15.8553 21.5875 15.3878 22.6638 14.5157 23.0781C13.7407 23.4463 12.8804 24.1972 10.4501 23.7501C9.03156 23.4891 6.85738 22.9799 6.61888 21.9472C6.27675 20.4656 6.01475 17.6237 7.27807 16.7841Z" stroke="#863F00" stroke-width="1.296" stroke-linecap="round"/>
<path d="M17.2949 18.7275L18.6775 18.6865" stroke="#863F00" stroke-width="1.296" stroke-linecap="round"/>
<path d="M20.1652 21.4983C19.6056 20.4992 19.1193 19.5934 19.0961 18.8123C19.0864 18.4832 19.2774 17.9728 19.3411 17.7405C19.5376 17.3673 20.2231 15.7258 21.8057 15.1548C24.0069 14.3607 25.8039 14.4989 26.6503 15.2243C27.17 15.6697 27.7645 16.1352 27.8278 16.9253C27.9365 18.2817 27.9025 19.5965 27.4622 20.2517C26.9096 21.0741 26.4652 21.9419 25.5819 22.1956C24.5933 22.4795 22.6091 23.1405 21.3456 22.4568C20.9019 22.2168 20.4287 21.9688 20.1652 21.4983Z" stroke="#863F00" stroke-width="1.296" stroke-linecap="round"/>
</svg>
