<svg width="47" height="38" viewBox="0 0 47 38" fill="none" xmlns="http://www.w3.org/2000/svg">
<path d="M6.91003 12.5539C5.6653 13.2652 4.84626 13.9872 4.53238 14.7928C3.83714 16.5771 4.03798 18.1148 3.99083 22.7731C3.96414 25.4105 4.84087 27.0058 5.64913 28.7126C6.52723 30.5668 8.16017 31.4081 9.86696 32.4427C11.4127 33.3797 13.0098 33.5635 24.7351 33.7939C28.2871 33.8637 30.0697 33.3911 32.675 32.8078C34.7352 32.3465 36.1802 32.044 38.3342 31.0592C40.4186 30.1063 40.6742 27.4746 41.5727 24.8221C42.2104 22.9395 42.2045 16.6491 41.9364 12.8287C41.8208 11.1817 40.0545 9.86504 38.1712 8.60684C36.1974 7.28813 34.041 6.896 31.6162 6.44876C30.0113 6.15274 21.2703 6.08773 15.5841 6.40026C13.7629 6.50036 12.3955 7.25164 10.0623 8.41825C8.43064 9.23408 7.45427 10.8404 6.64331 12.2791C5.87198 13.6475 5.65452 15.1511 5.69628 22.2248C5.7136 25.1601 7.62131 26.2891 8.92532 27.3681C9.75796 28.0571 10.7682 28.3583 13.8854 28.761C21.7536 29.7777 28.1837 29.2608 30.0225 28.8122C31.239 28.5415 32.1415 28.272 33.1263 27.9137C33.6665 27.7332 34.2888 27.5554 35.1995 27.3722" stroke="#D9D9D9" stroke-width="7.98" stroke-linecap="round"/>
<path d="M17.1166 6.31543C15.8806 6.56313 14.974 6.7266 13.9622 6.85169C13.2023 6.94563 12.5788 7.34584 11.7119 7.67651C11.001 7.94765 10.1861 8.21277 9.44052 8.44065C8.74218 8.6541 7.79334 9.57014 7.0868 10.2971C6.46429 10.9376 5.93068 11.7201 5.51765 12.2991C5.06926 12.9277 5.14549 13.7017 4.87736 14.363C4.0742 16.344 4.89532 20.1418 5.14363 20.7827C5.41872 21.4927 6.13132 22.3289 7.57351 23.6076C8.52372 24.4501 10.4177 24.6436 12.1714 24.482C13.439 24.3652 13.1943 22.4193 13.1949 20.4315C13.1955 18.8111 13.0321 15.9507 12.8872 15.0491C12.5682 13.0642 12.3695 18.4488 12.3076 19.5169C12.267 20.2164 12.2865 21.239 13.0222 20.1715C13.7578 19.1039 15.2291 15.9161 16.1914 14.0286C17.1537 12.1412 17.5624 11.6508 17.9773 13.0329C18.3922 14.415 18.8009 17.6846 19.0114 19.655C19.222 21.6254 19.222 22.1976 19.222 22.2267C19.222 22.2558 19.222 21.7245 19.5081 19.6934C19.7941 17.6623 20.3663 14.1475 21.3559 14.4621C22.3454 14.7767 23.735 19.0271 24.4917 21.2985C25.2484 23.5698 25.3301 23.7333 25.4131 23.6949C25.4961 23.6565 25.5778 23.4113 26.0695 21.2211C26.5612 19.0308 27.4603 14.903 28.7409 14.5952C30.0215 14.2875 31.6562 17.9249 32.8049 19.0835C33.9536 20.2421 34.5667 18.8116 34.9438 17.993C35.4048 16.9921 35.7742 16.3929 36.1655 15.8139C36.2929 15.6255 36.516 15.8888 36.682 16.2189C37.9058 18.6529 37.7991 22.2038 37.7173 23.0088C37.6802 23.3744 35.1785 23.8956 30.8958 24.9879C28.7544 25.5341 26.6132 25.7941 24.8645 25.9626C21.8174 26.2561 19.8883 26.0084 18.96 25.7613C18.5955 25.6643 18.4814 25.5142 18.3569 25.2467C18.0532 24.594 17.9018 23.4955 17.7779 21.5035C17.4274 15.865 17.9414 14.7841 18.3736 14.1197C19.2688 12.7436 21.0784 11.2706 21.3664 11.0644C21.6835 10.8372 23.4997 10.8978 26.098 10.9387C28.5968 10.978 29.8283 11.2272 32.9566 11.5981C34.1502 11.7397 34.7004 12.545 35.319 13.3091C35.5661 13.6175 35.9339 14.1079 36.2052 14.381C36.4764 14.6541 36.6399 14.6949 36.8083 14.737" stroke="#D9D9D9" stroke-width="7.98" stroke-linecap="round"/>
<path d="M15.5479 21.6602V22.0202" stroke="#0D0D0D" stroke-width="2.5" stroke-linecap="round"/>
<path d="M21.0479 21.6602V21.9002" stroke="#0D0D0D" stroke-width="2.5" stroke-linecap="round"/>
<path d="M15.4424 27.1628C16.4793 27.2828 17.9147 27.1244 19.2583 27.023C19.8374 26.9635 20.6775 26.9227 21.8938 26.9029C22.5557 26.8831 23.3082 26.8435 24.0835 26.8027" stroke="#0D0D0D" stroke-width="2" stroke-linecap="round"/>
<path d="M8.59165 6.19946C5.3472 5.11147 3.19982 4.77349 2.34043 5.38859C0.628785 6.61371 1.09983 8.28205 1.18982 9.07832C1.23127 9.44508 1.47076 9.69779 1.71597 9.84565C3.47891 10.9087 7.80756 8.32754 9.60873 6.5957C11.3776 4.89489 12.1412 2.61357 13.9263 1.06484C14.3035 0.737543 14.8011 0.773977 15.1867 0.858344C16.8016 1.21161 17.058 3.28727 17.3155 4.20288C17.4545 4.69684 17.5246 5.27244 16.7878 5.6918C12.9774 7.86051 11.018 6.55031 9.1211 6.92528C8.3765 8.07685 8.01125 9.45999 7.60387 12.9154C7.58529 13.739 7.66526 14.2379 7.6438 14.104" stroke="#FF0000" stroke-width="1.6" stroke-linecap="round"/>
<path d="M10.8896 6.7168C11.976 7.56598 13.0624 8.41517 13.7518 8.97802C14.4412 9.54087 14.7007 9.79165 14.9584 10.0106C15.2161 10.2296 15.4642 10.4091 15.9703 10.7754" stroke="#FF0000" stroke-width="1.6" stroke-linecap="round"/>
</svg>
