<svg width="47" height="53" viewBox="0 0 47 53" fill="none" xmlns="http://www.w3.org/2000/svg">
<path d="M25.7764 6.29329C27.49 5.64175 25.701 6.25499 23.99 6.14175C22.279 6.02852 18.5506 5.94217 16.809 5.85166C15.0673 5.76114 15.0809 5.8252 15.1236 5.90687C15.1663 5.98853 15.2377 6.08586 16.5988 7.34706C17.96 8.60826 20.6086 11.0304 22.0038 12.2529C23.3991 13.4754 25.0685 14.1952 24.99 13.1418C24.9116 12.0883 23.0832 9.26302 22.857 7.83606C22.6307 6.40911 22.4053 5.67239 22.0908 4.82349C21.7764 3.97458 21.3797 3.03582 21.1532 2.498C20.9267 1.96019 20.8823 1.85177 20.8342 1.83473C20.7861 1.81769 20.7356 1.8953 20.0597 3.81153C19.3837 5.72776 18.0839 9.48027 17.4038 11.4651C16.7237 13.45 16.7027 13.5535 16.7517 13.5981C16.8778 13.7132 17.4338 13.4797 18.7789 12.8224C19.7595 12.3432 21.2402 11.3668 22.3712 10.504C23.5022 9.6412 24.2118 8.87002 24.6495 8.3705C25.6661 7.21009 26.9503 6.01242 26.9899 5.90684C27.0148 5.85794 26.0162 6.18606 26.0513 6.21564C26.0863 6.24523 26.1208 6.34502 26.1563 6.44783" stroke="#FFEC6F" stroke-width="2" stroke-linecap="round"/>
<path d="M21.1924 12.7627V20.0836" stroke="#FFEC6F" stroke-width="2" stroke-linecap="round"/>
<path d="M6.91003 27.3596C5.6653 28.0708 4.84626 28.7929 4.53238 29.5985C3.83714 31.3828 4.03798 32.9204 3.99083 37.5788C3.96414 40.2162 4.84087 41.8114 5.64913 43.5182C6.52723 45.3725 8.16017 46.2138 9.86696 47.2484C11.4127 48.1854 13.0098 48.3692 24.7351 48.5995C28.2871 48.6693 30.0697 48.1967 32.675 47.6134C34.7352 47.1522 36.1802 46.8496 38.3342 45.8649C40.4186 44.912 40.6742 42.2802 41.5727 39.6277C42.2104 37.7451 42.2045 31.4548 41.9364 27.6344C41.8208 25.9873 40.0545 24.6707 38.1712 23.4125C36.1974 22.0938 34.041 21.7017 31.6162 21.2544C30.0113 20.9584 21.2703 20.8934 15.5841 21.2059C13.7629 21.306 12.3955 22.0573 10.0623 23.2239C8.43064 24.0397 7.45427 25.646 6.64331 27.0847C5.87198 28.4531 5.65452 29.9568 5.69628 37.0305C5.7136 39.9658 7.62131 41.0947 8.92532 42.1738C9.75796 42.8628 10.7682 43.1639 13.8854 43.5667C21.7536 44.5834 28.1837 44.0665 30.0225 43.6179C31.239 43.3471 32.1415 43.0777 33.1263 42.7194C33.6665 42.5389 34.2888 42.361 35.1995 42.1778" stroke="#D9D9D9" stroke-width="7.98" stroke-linecap="round"/>
<path d="M17.1166 21.1211C15.8806 21.3688 14.974 21.5323 13.9622 21.6574C13.2023 21.7513 12.5788 22.1515 11.7119 22.4822C11.001 22.7533 10.1861 23.0184 9.44052 23.2463C8.74218 23.4598 7.79334 24.3758 7.0868 25.1028C6.46429 25.7433 5.93068 26.5258 5.51765 27.1048C5.06926 27.7333 5.14549 28.5073 4.87736 29.1687C4.0742 31.1497 4.89532 34.9474 5.14363 35.5883C5.41872 36.2983 6.13132 37.1346 7.57351 38.4133C8.52372 39.2558 10.4177 39.4493 12.1714 39.2876C13.439 39.1708 13.1943 37.225 13.1949 35.2372C13.1955 33.6168 13.0321 30.7564 12.8872 29.8548C12.5682 27.8698 12.3695 33.2544 12.3076 34.3226C12.267 35.0221 12.2865 36.0447 13.0222 34.9771C13.7578 33.9096 15.2291 30.7217 16.1914 28.8343C17.1537 26.9469 17.5624 26.4564 17.9773 27.8386C18.3922 29.2207 18.8009 32.4903 19.0114 34.4607C19.222 36.4311 19.222 37.0033 19.222 37.0324C19.222 37.0615 19.222 36.5302 19.5081 34.4991C19.7941 32.468 20.3663 28.9532 21.3559 29.2678C22.3454 29.5823 23.735 33.8328 24.4917 36.1042C25.2484 38.3755 25.3301 38.539 25.4131 38.5006C25.4961 38.4622 25.5778 38.217 26.0695 36.0267C26.5612 33.8365 27.4603 29.7087 28.7409 29.4009C30.0215 29.0931 31.6562 32.7305 32.8049 33.8891C33.9536 35.0477 34.5667 33.6173 34.9438 32.7987C35.4048 31.7978 35.7742 31.1986 36.1655 30.6196C36.2929 30.4311 36.516 30.6945 36.682 31.0245C37.9058 33.4586 37.7991 37.0095 37.7173 37.8145C37.6802 38.1801 35.1785 38.7012 30.8958 39.7936C28.7544 40.3398 26.6132 40.5998 24.8645 40.7682C21.8174 41.0617 19.8883 40.8141 18.96 40.567C18.5955 40.47 18.4814 40.3199 18.3569 40.0524C18.0532 39.3997 17.9018 38.3012 17.7779 36.3091C17.4274 30.6707 17.9414 29.5898 18.3736 28.9253C19.2688 27.5492 21.0784 26.0762 21.3664 25.87C21.6835 25.6429 23.4997 25.7034 26.098 25.7443C28.5968 25.7836 29.8283 26.0329 32.9566 26.4038C34.1502 26.5453 34.7004 27.3506 35.319 28.1148C35.5661 28.4231 35.9339 28.9136 36.2052 29.1867C36.4764 29.4597 36.6399 29.5006 36.8083 29.5427" stroke="#D9D9D9" stroke-width="7.98" stroke-linecap="round"/>
<path d="M15.5479 36.4658V36.8259" stroke="#0D0D0D" stroke-width="2.5" stroke-linecap="round"/>
<path d="M21.0479 36.4658V36.7059" stroke="#0D0D0D" stroke-width="2.5" stroke-linecap="round"/>
<path d="M15.4424 41.9684C16.4793 42.0885 17.9147 41.93 19.2583 41.8286C19.8374 41.7692 20.6775 41.7284 21.8938 41.7086C22.5557 41.6888 23.3082 41.6492 24.0835 41.6084" stroke="#0D0D0D" stroke-width="2" stroke-linecap="round"/>
</svg>
