<svg width="47" height="38" viewBox="0 0 47 38" fill="none" xmlns="http://www.w3.org/2000/svg">
<path d="M6.91003 12.4533C5.6653 13.1646 4.84626 13.8866 4.53238 14.6922C3.83714 16.4766 4.03798 18.0142 3.99083 22.6725C3.96414 25.3099 4.84087 26.9052 5.64913 28.612C6.52723 30.4662 8.16017 31.3076 9.86696 32.3421C11.4127 33.2791 13.0098 33.4629 24.7351 33.6933C28.2871 33.7631 30.0697 33.2905 32.675 32.7072C34.7352 32.246 36.1802 31.9434 38.3342 30.9586C40.4186 30.0057 40.6742 27.374 41.5727 24.7215C42.2104 22.8389 42.2045 16.5485 41.9364 12.7281C41.8208 11.0811 40.0545 9.76446 38.1712 8.50626C36.1974 7.18754 34.041 6.79541 31.6162 6.34817C30.0113 6.05216 21.2703 5.98715 15.5841 6.29968C13.7629 6.39977 12.3955 7.15105 10.0623 8.31766C8.43064 9.13349 7.45427 10.7398 6.64331 12.1785C5.87198 13.5469 5.65452 15.0506 5.69628 22.1243C5.7136 25.0595 7.62131 26.1885 8.92532 27.2675C9.75796 27.9565 10.7682 28.2577 13.8854 28.6605C21.7536 29.6771 28.1837 29.1602 30.0225 28.7117C31.239 28.4409 32.1415 28.1715 33.1263 27.8131C33.6665 27.6326 34.2888 27.4548 35.1995 27.2716" stroke="#D9D9D9" stroke-width="7.98" stroke-linecap="round"/>
<path d="M17.1166 6.21484C15.8806 6.46254 14.974 6.62602 13.9622 6.7511C13.2023 6.84504 12.5788 7.24525 11.7119 7.57592C11.001 7.84706 10.1861 8.11218 9.44052 8.34006C8.74218 8.55351 7.79334 9.46955 7.0868 10.1965C6.46429 10.837 5.93068 11.6195 5.51765 12.1985C5.06926 12.8271 5.14549 13.6011 4.87736 14.2624C4.0742 16.2434 4.89532 20.0412 5.14363 20.6821C5.41872 21.3921 6.13132 22.2283 7.57351 23.507C8.52372 24.3495 10.4177 24.543 12.1714 24.3814C13.439 24.2646 13.1943 22.3187 13.1949 20.331C13.1955 18.7105 13.0321 15.8502 12.8872 14.9486C12.5682 12.9636 12.3695 18.3482 12.3076 19.4163C12.267 20.1158 12.2865 21.1384 13.0222 20.0709C13.7578 19.0033 15.2291 15.8155 16.1914 13.9281C17.1537 12.0406 17.5624 11.5502 17.9773 12.9323C18.3922 14.3145 18.8009 17.584 19.0114 19.5544C19.222 21.5249 19.222 22.097 19.222 22.1261C19.222 22.1552 19.222 21.6239 19.5081 19.5928C19.7941 17.5617 20.3663 14.0469 21.3559 14.3615C22.3454 14.6761 23.735 18.9265 24.4917 21.1979C25.2484 23.4693 25.3301 23.6327 25.4131 23.5943C25.4961 23.5559 25.5778 23.3107 26.0695 21.1205C26.5612 18.9302 27.4603 14.8024 28.7409 14.4947C30.0215 14.1869 31.6562 17.8243 32.8049 18.9829C33.9536 20.1415 34.5667 18.711 34.9438 17.8924C35.4048 16.8916 35.7742 16.2923 36.1655 15.7133C36.2929 15.5249 36.516 15.7882 36.682 16.1183C37.9058 18.5524 37.7991 22.1032 37.7173 22.9082C37.6802 23.2738 35.1785 23.795 30.8958 24.8873C28.7544 25.4335 26.6132 25.6936 24.8645 25.862C21.8174 26.1555 19.8883 25.9078 18.96 25.6607C18.5955 25.5637 18.4814 25.4137 18.3569 25.1461C18.0532 24.4934 17.9018 23.3949 17.7779 21.4029C17.4274 15.7644 17.9414 14.6835 18.3736 14.0191C19.2688 12.643 21.0784 11.17 21.3664 10.9638C21.6835 10.7367 23.4997 10.7972 26.098 10.8381C28.5968 10.8774 29.8283 11.1266 32.9566 11.4976C34.1502 11.6391 34.7004 12.4444 35.319 13.2085C35.5661 13.5169 35.9339 14.0073 36.2052 14.2804C36.4764 14.5535 36.6399 14.5944 36.8083 14.6365" stroke="#D9D9D9" stroke-width="7.98" stroke-linecap="round"/>
<path d="M15.5479 21.5596V21.9196" stroke="#0D0D0D" stroke-width="2.5" stroke-linecap="round"/>
<path d="M21.0479 21.5596V21.7996" stroke="#0D0D0D" stroke-width="2.5" stroke-linecap="round"/>
<path d="M15.4424 27.0622C16.4793 27.1822 17.9147 27.0238 19.2583 26.9224C19.8374 26.863 20.6775 26.8222 21.8938 26.8024C22.5557 26.7826 23.3082 26.743 24.0835 26.7021" stroke="#0D0D0D" stroke-width="2" stroke-linecap="round"/>
<path d="M11.7412 4.22895C11.6737 4.811 11.4579 6.11784 11.5876 7.02044C11.7395 8.07689 11.4756 9.12109 11.5149 10.2185C11.5277 10.5753 11.7082 11.0409 11.8927 11.3079C12.0772 11.5748 12.3151 11.623 12.7257 11.5699C14.7678 11.3062 15.9913 9.89726 17.1431 9.21471C18.174 8.60384 19.064 7.81679 19.9559 7.12101C21.2686 6.097 22.4113 5.49179 23.3241 4.8764C24.3114 4.21076 25.6714 3.70136 26.8442 3.52501C28.4681 3.28082 28.2284 7.03712 28.2526 7.96825C28.2803 9.03495 27.9484 9.78354 27.7778 10.1984C27.6151 10.5939 26.7347 10.7383 25.7627 10.9166C23.9179 11.2551 21.2129 9.40278 19.751 8.54073C18.7157 7.93019 17.7788 6.8048 16.8384 6.06332C15.888 5.31399 15.0762 4.58149 14.2185 3.93178C14.0085 3.78837 13.8089 3.67368 13.6155 3.69528C13.422 3.71689 13.2408 3.87828 12.4921 3.85575" stroke="#CDA8EE" stroke-width="2.4" stroke-linecap="round"/>
</svg>
