<svg width="47" height="45" viewBox="0 0 47 45" fill="none" xmlns="http://www.w3.org/2000/svg">
<path d="M21.4053 3.96094V15.8818" stroke="#62A565" stroke-width="1.6" stroke-linecap="round"/>
<path d="M21.8806 3.31553C21.6272 3.12527 20.6759 2.42827 19.3675 1.70832C18.4222 1.18821 17.5188 0.894674 16.4188 0.813883C15.6656 0.758562 14.6524 0.860252 13.6294 1.22644C13.2544 1.36067 13.1169 1.78385 13.0213 2.22844C12.9011 2.78738 13.1466 3.34517 13.4645 3.72713C13.9469 4.30675 14.5798 4.43035 15.7381 4.62157C18.9027 5.144 19.9015 4.39975 21.4752 3.73335C23.0969 3.04664 23.3759 2.29823 23.9023 1.86703C24.5418 1.34312 25.6668 1.08589 27.6894 1.13131C28.1386 1.14139 29.0253 1.43678 29.2021 1.70832C29.9616 2.87419 29.5722 4.02114 29.3819 4.32327C28.8537 5.16199 26.6975 5.16273 24.899 5.19619C24.1131 5.00497 23.6035 4.87781 23.2378 4.76642C23.0614 4.71814 22.9036 4.68659 22.8367 4.65408" stroke="#62A565" stroke-width="1.6" stroke-linecap="round"/>
<path d="M6.91003 19.1594C5.6653 19.8706 4.84626 20.5927 4.53238 21.3983C3.83714 23.1826 4.03798 24.7203 3.99083 29.3786C3.96414 32.016 4.84087 33.6112 5.64913 35.318C6.52723 37.1723 8.16017 38.0136 9.86696 39.0482C11.4127 39.9852 13.0098 40.169 24.7351 40.3993C28.2871 40.4691 30.0697 39.9965 32.675 39.4133C34.7352 38.952 36.1802 38.6494 38.3342 37.6647C40.4186 36.7118 40.6742 34.08 41.5727 31.4276C42.2104 29.5449 42.2045 23.2546 41.9364 19.4342C41.8208 17.7871 40.0545 16.4705 38.1712 15.2123C36.1974 13.8936 34.041 13.5015 31.6162 13.0542C30.0113 12.7582 21.2703 12.6932 15.5841 13.0057C13.7629 13.1058 12.3955 13.8571 10.0623 15.0237C8.43064 15.8395 7.45427 17.4458 6.64331 18.8845C5.87198 20.2529 5.65452 21.7566 5.69628 28.8303C5.7136 31.7656 7.62131 32.8946 8.92532 33.9736C9.75796 34.6626 10.7682 34.9637 13.8854 35.3665C21.7536 36.3832 28.1837 35.8663 30.0225 35.4177C31.239 35.1469 32.1415 34.8775 33.1263 34.5192C33.6665 34.3387 34.2888 34.1608 35.1995 33.9776" stroke="#D9D9D9" stroke-width="7.98" stroke-linecap="round"/>
<path d="M17.1166 12.9209C15.8806 13.1686 14.974 13.3321 13.9622 13.4572C13.2023 13.5511 12.5788 13.9513 11.7119 14.282C11.001 14.5531 10.1861 14.8182 9.44052 15.0461C8.74218 15.2596 7.79334 16.1756 7.0868 16.9026C6.46429 17.5431 5.93068 18.3256 5.51765 18.9046C5.06926 19.5331 5.14549 20.3072 4.87736 20.9685C4.0742 22.9495 4.89532 26.7472 5.14363 27.3881C5.41872 28.0981 6.13132 28.9344 7.57351 30.2131C8.52372 31.0556 10.4177 31.2491 12.1714 31.0874C13.439 30.9706 13.1943 29.0248 13.1949 27.037C13.1955 25.4166 13.0321 22.5562 12.8872 21.6546C12.5682 19.6696 12.3695 25.0542 12.3076 26.1224C12.267 26.8219 12.2865 27.8445 13.0222 26.7769C13.7578 25.7094 15.2291 22.5215 16.1914 20.6341C17.1537 18.7467 17.5624 18.2562 17.9773 19.6384C18.3922 21.0205 18.8009 24.2901 19.0114 26.2605C19.222 28.2309 19.222 28.8031 19.222 28.8322C19.222 28.8613 19.222 28.33 19.5081 26.2989C19.7941 24.2678 20.3663 20.753 21.3559 21.0676C22.3454 21.3822 23.735 25.6326 24.4917 27.904C25.2484 30.1753 25.3301 30.3388 25.4131 30.3004C25.4961 30.262 25.5778 30.0168 26.0695 27.8265C26.5612 25.6363 27.4603 21.5085 28.7409 21.2007C30.0215 20.893 31.6562 24.5303 32.8049 25.6889C33.9536 26.8475 34.5667 25.4171 34.9438 24.5985C35.4048 23.5976 35.7742 22.9984 36.1655 22.4194C36.2929 22.2309 36.516 22.4943 36.682 22.8243C37.9058 25.2584 37.7991 28.8093 37.7173 29.6143C37.6802 29.9799 35.1785 30.501 30.8958 31.5934C28.7544 32.1396 26.6132 32.3996 24.8645 32.568C21.8174 32.8615 19.8883 32.6139 18.96 32.3668C18.5955 32.2698 18.4814 32.1197 18.3569 31.8522C18.0532 31.1995 17.9018 30.101 17.7779 28.1089C17.4274 22.4705 17.9414 21.3896 18.3736 20.7251C19.2688 19.349 21.0784 17.876 21.3664 17.6698C21.6835 17.4427 23.4997 17.5033 26.098 17.5441C28.5968 17.5834 29.8283 17.8327 32.9566 18.2036C34.1502 18.3451 34.7004 19.1504 35.319 19.9146C35.5661 20.2229 35.9339 20.7134 36.2052 20.9865C36.4764 21.2595 36.6399 21.3004 36.8083 21.3425" stroke="#D9D9D9" stroke-width="7.98" stroke-linecap="round"/>
<path d="M15.5479 28.2656V28.6257" stroke="#0D0D0D" stroke-width="2.5" stroke-linecap="round"/>
<path d="M21.0479 28.2656V28.5057" stroke="#0D0D0D" stroke-width="2.5" stroke-linecap="round"/>
<path d="M15.4424 33.7682C16.4793 33.8883 17.9147 33.7298 19.2583 33.6284C19.8374 33.569 20.6775 33.5282 21.8938 33.5084C22.5557 33.4886 23.3082 33.449 24.0835 33.4082" stroke="#0D0D0D" stroke-width="2" stroke-linecap="round"/>
</svg>
