<svg width="47" height="46" viewBox="0 0 47 46" fill="none" xmlns="http://www.w3.org/2000/svg">
<path d="M6.91003 20.5998C5.6653 21.3111 4.84626 22.0331 4.53238 22.8387C3.83714 24.623 4.03798 26.1607 3.99083 30.819C3.96414 33.4564 4.84087 35.0517 5.64913 36.7585C6.52723 38.6127 8.16017 39.454 9.86696 40.4886C11.4127 41.4256 13.0098 41.6094 24.7351 41.8398C28.2871 41.9096 30.0697 41.437 32.675 40.8537C34.7352 40.3924 36.1802 40.0899 38.3342 39.1051C40.4186 38.1522 40.6742 35.5205 41.5727 32.868C42.2104 30.9854 42.2045 24.695 41.9364 20.8746C41.8208 19.2276 40.0545 17.9109 38.1712 16.6527C36.1974 15.334 34.041 14.9419 31.6162 14.4947C30.0113 14.1986 21.2703 14.1336 15.5841 14.4462C13.7629 14.5463 12.3955 15.2975 10.0623 16.4641C8.43064 17.28 7.45427 18.8863 6.64331 20.325C5.87198 21.6933 5.65452 23.197 5.69628 30.2707C5.7136 33.206 7.62131 34.335 8.92532 35.414C9.75796 36.103 10.7682 36.4042 13.8854 36.8069C21.7536 37.8236 28.1837 37.3067 30.0225 36.8581C31.239 36.5874 32.1415 36.3179 33.1263 35.9596C33.6665 35.7791 34.2888 35.6013 35.1995 35.4181" stroke="#D9D9D9" stroke-width="7.98" stroke-linecap="round"/>
<path d="M17.1166 14.3613C15.8806 14.609 14.974 14.7725 13.9622 14.8976C13.2023 14.9915 12.5788 15.3917 11.7119 15.7224C11.001 15.9935 10.1861 16.2587 9.44052 16.4865C8.74218 16.7 7.79334 17.616 7.0868 18.343C6.46429 18.9835 5.93068 19.766 5.51765 20.345C5.06926 20.9736 5.14549 21.7476 4.87736 22.4089C4.0742 24.3899 4.89532 28.1876 5.14363 28.8286C5.41872 29.5386 6.13132 30.3748 7.57351 31.6535C8.52372 32.496 10.4177 32.6895 12.1714 32.5279C13.439 32.4111 13.1943 30.4652 13.1949 28.4774C13.1955 26.857 13.0321 23.9966 12.8872 23.095C12.5682 21.1101 12.3695 26.4947 12.3076 27.5628C12.267 28.2623 12.2865 29.2849 13.0222 28.2174C13.7578 27.1498 15.2291 23.962 16.1914 22.0745C17.1537 20.1871 17.5624 19.6967 17.9773 21.0788C18.3922 22.4609 18.8009 25.7305 19.0114 27.7009C19.222 29.6713 19.222 30.2435 19.222 30.2726C19.222 30.3017 19.222 29.7704 19.5081 27.7393C19.7941 25.7082 20.3663 22.1934 21.3559 22.508C22.3454 22.8226 23.735 27.073 24.4917 29.3444C25.2484 31.6157 25.3301 31.7792 25.4131 31.7408C25.4961 31.7024 25.5778 31.4572 26.0695 29.267C26.5612 27.0767 27.4603 22.9489 28.7409 22.6411C30.0215 22.3334 31.6562 25.9708 32.8049 27.1294C33.9536 28.288 34.5667 26.8575 34.9438 26.0389C35.4048 25.038 35.7742 24.4388 36.1655 23.8598C36.2929 23.6714 36.516 23.9347 36.682 24.2648C37.9058 26.6988 37.7991 30.2497 37.7173 31.0547C37.6802 31.4203 35.1785 31.9415 30.8958 33.0338C28.7544 33.58 26.6132 33.84 24.8645 34.0085C21.8174 34.302 19.8883 34.0543 18.96 33.8072C18.5955 33.7102 18.4814 33.5601 18.3569 33.2926C18.0532 32.6399 17.9018 31.5414 17.7779 29.5494C17.4274 23.9109 17.9414 22.83 18.3736 22.1656C19.2688 20.7895 21.0784 19.3165 21.3664 19.1103C21.6835 18.8831 23.4997 18.9437 26.098 18.9845C28.5968 19.0239 29.8283 19.2731 32.9566 19.644C34.1502 19.7856 34.7004 20.5909 35.319 21.355C35.5661 21.6634 35.9339 22.1538 36.2052 22.4269C36.4764 22.7 36.6399 22.7408 36.8083 22.7829" stroke="#D9D9D9" stroke-width="7.98" stroke-linecap="round"/>
<path d="M15.5479 29.7061V30.0661" stroke="#0D0D0D" stroke-width="2.5" stroke-linecap="round"/>
<path d="M21.0479 29.7061V29.9461" stroke="#0D0D0D" stroke-width="2.5" stroke-linecap="round"/>
<path d="M15.4424 35.2087C16.4793 35.3287 17.9147 35.1703 19.2583 35.0689C19.8374 35.0094 20.6775 34.9686 21.8938 34.9488C22.5557 34.929 23.3082 34.8894 24.0835 34.8486" stroke="#0D0D0D" stroke-width="2" stroke-linecap="round"/>
<path d="M21.2061 6.32422V13.198" stroke="#FF6868" stroke-width="2.4" stroke-linecap="round"/>
<path d="M20.1729 6.05078C20.2181 6.11889 20.3703 6.27111 20.5225 6.40436C20.805 6.65159 20.9189 6.736 21.0599 6.82377C21.1777 6.89711 21.3449 7.0025 21.5739 7.12078C21.7247 7.19864 21.856 7.26946 22.0577 7.34946C22.1076 7.36866 22.1453 7.38374 22.1798 7.39528C22.2143 7.40683 22.2445 7.41437 22.2985 7.42214" stroke="#FFF06C" stroke-width="0.48" stroke-linecap="round"/>
<path d="M20.1729 7.61328C20.2181 7.68139 20.3703 7.83361 20.5225 7.96686C20.805 8.21409 20.9189 8.2985 21.0599 8.38627C21.1777 8.45961 21.3449 8.565 21.5739 8.68328C21.7247 8.76114 21.856 8.83196 22.0577 8.91196C22.1076 8.93116 22.1453 8.94624 22.1798 8.95778C22.2143 8.96933 22.2445 8.97687 22.2985 8.98464" stroke="#FFF06C" stroke-width="0.48" stroke-linecap="round"/>
<path d="M20.1729 9.5332C20.2181 9.60131 20.3703 9.75353 20.5225 9.88679C20.805 10.134 20.9189 10.2184 21.0599 10.3062C21.1777 10.3795 21.3449 10.4849 21.5739 10.6032C21.7247 10.6811 21.856 10.7519 22.0577 10.8319C22.1076 10.8511 22.1453 10.8662 22.1798 10.8777C22.2143 10.8892 22.2445 10.8968 22.2985 10.9046" stroke="#FFF06C" stroke-width="0.48" stroke-linecap="round"/>
<path d="M20.1729 11.4531C20.2181 11.5212 20.3703 11.6735 20.5225 11.8067C20.805 12.0539 20.9189 12.1383 21.0599 12.2261C21.1777 12.2995 21.3449 12.4048 21.5739 12.5231C21.7247 12.601 21.856 12.6718 22.0577 12.7518C22.1076 12.771 22.1453 12.7861 22.1798 12.7976C22.2143 12.8092 22.2445 12.8167 22.2985 12.8245" stroke="#FFF06C" stroke-width="0.48" stroke-linecap="round"/>
<path d="M21.1992 0.394677C21.028 0.625568 20.8908 0.848736 20.4544 1.61001C20.2677 1.93563 20.1021 2.50178 20.0366 2.805C19.9302 3.29783 20.0321 4.0148 20.0921 4.18636C20.1807 4.43992 20.306 4.80297 20.4308 4.98457C20.4875 5.06702 20.5554 5.13064 20.6238 5.18199C20.819 5.32869 21.0782 5.27659 21.3225 5.30671C21.6517 5.34729 21.8247 5.18289 21.9453 5.0798C22.0565 4.98475 22.1253 4.84827 22.2284 4.65972C22.3142 4.50285 22.4002 4.32523 22.4047 3.42702C22.4064 3.09657 22.3065 2.75661 22.1906 2.4548C22.1071 2.23762 22.0064 1.95814 21.9202 1.69534C21.8627 1.52003 21.6723 1.10151 21.5556 0.77306C21.5086 0.644873 21.4738 0.540882 21.4525 0.463918C21.4396 0.420932 21.4226 0.369966 21.3794 0.240234" stroke="#FF0004" stroke-width="0.48" stroke-linecap="round"/>
<path d="M21.1859 2.17457C21.1572 2.19834 21.1092 2.29418 21.0348 2.41191C20.9779 2.50203 20.9172 2.65877 20.8546 2.80807C20.7328 3.09843 20.7247 3.45195 20.7127 3.57192C20.7003 3.69703 20.672 3.79291 20.6647 3.87477C20.6431 4.11751 20.6717 4.55179 20.7078 4.66247C20.734 4.74297 20.7677 4.81148 20.8301 4.89787C20.9059 5.00271 21.0317 5.01352 21.1516 5.02548C21.3718 5.04743 21.4784 4.98498 21.5603 4.94881C21.6552 4.90687 21.7329 4.61232 21.7647 4.43737C21.798 4.25365 21.7577 3.92376 21.7288 3.79147C21.6933 3.62908 21.5755 3.37672 21.5031 3.21028C21.4427 3.07135 21.4213 2.95333 21.3878 2.8307C21.3602 2.73021 21.3254 2.59796 21.3036 2.48008C21.2964 2.32848 21.282 2.27083 21.2748 2.23012C21.2723 2.20843 21.2723 2.18465 21.2723 2.16016" stroke="#FF7700" stroke-width="0.48" stroke-linecap="round"/>
<path d="M21.1447 2.83691C21.1447 2.9686 21.1447 3.10028 21.1417 3.40455C21.1387 3.70882 21.1327 4.18168 21.1297 4.41181C21.1266 4.64193 21.1266 4.615 21.1385 4.54875C21.1505 4.4825 21.1745 4.37775 21.1943 4.26992C21.2593 3.91583 21.2624 3.81075 21.2777 3.73643C21.2926 3.66338 21.3742 3.99649 21.3926 4.14091C21.4086 4.26655 21.4137 4.33894 21.4243 4.4041C21.4392 4.49528 21.4349 4.56875 21.4229 4.62185C21.4169 4.6325 21.4079 4.64148 21.4003 4.65209C21.3927 4.6627 21.3867 4.67467 21.3624 4.70514" stroke="#FF7700" stroke-width="0.48" stroke-linecap="round"/>
</svg>
