<svg width="70" height="57" viewBox="0 0 70 57" fill="none" xmlns="http://www.w3.org/2000/svg">
<path d="M15.9198 21.3596C14.6751 22.0708 13.856 22.7929 13.5421 23.5985C12.8469 25.3828 13.0477 26.9204 13.0006 31.5788C12.9739 34.2162 13.8506 35.8114 14.6589 37.5182C15.537 39.3725 17.1699 40.2138 18.8767 41.2484C20.4225 42.1854 22.0195 42.3692 33.7448 42.5995C37.2969 42.6693 39.0794 42.1967 41.6848 41.6134C43.7449 41.1522 45.1899 40.8496 47.344 39.8649C49.4283 38.912 49.6839 36.2802 50.5824 33.6277C51.2202 31.7451 51.2143 25.4548 50.9462 21.6344C50.8306 19.9873 49.0642 18.6707 47.181 17.4125C45.2071 16.0938 43.0507 15.7017 40.6259 15.2544C39.021 14.9584 30.2801 14.8934 24.5939 15.2059C22.7727 15.306 21.4053 16.0573 19.0721 17.2239C17.4404 18.0397 16.464 19.646 15.6531 21.0847C14.8818 22.4531 14.6643 23.9568 14.706 31.0305C14.7234 33.9658 16.6311 35.0947 17.9351 36.1738C18.7677 36.8628 19.7779 37.1639 22.8952 37.5667C30.7634 38.5834 37.1935 38.0665 39.0323 37.6179C40.2487 37.3471 41.1513 37.0777 42.136 36.7194C42.6762 36.5389 43.2986 36.361 44.2092 36.1778" stroke="#D9D9D9" stroke-width="7.98" stroke-linecap="round"/>
<path d="M26.1263 15.1211C24.8903 15.3688 23.9838 15.5323 22.9719 15.6574C22.2121 15.7513 21.5886 16.1515 20.7216 16.4822C20.0108 16.7533 19.1958 17.0184 18.4503 17.2463C17.7519 17.4598 16.8031 18.3758 16.0966 19.1028C15.4741 19.7433 14.9404 20.5258 14.5274 21.1048C14.079 21.7333 14.1553 22.5073 13.8871 23.1687C13.084 25.1497 13.9051 28.9474 14.1534 29.5883C14.4285 30.2983 15.1411 31.1346 16.5833 32.4133C17.5335 33.2558 19.4274 33.4493 21.1811 33.2876C22.4487 33.1708 22.2041 31.225 22.2047 29.2372C22.2052 27.6168 22.0419 24.7564 21.897 23.8548C21.5779 21.8698 21.3793 27.2544 21.3173 28.3226C21.2768 29.0221 21.2963 30.0447 22.0319 28.9771C22.7676 27.9096 24.2389 24.7217 25.2012 22.8343C26.1635 20.9469 26.5722 20.4564 26.9871 21.8386C27.402 23.2207 27.8107 26.4903 28.0212 28.4607C28.2317 30.4311 28.2317 31.0033 28.2317 31.0324C28.2317 31.0615 28.2317 30.5302 28.5178 28.4991C28.8039 26.468 29.3761 22.9532 30.3656 23.2678C31.3552 23.5823 32.7447 27.8328 33.5014 30.1042C34.2582 32.3755 34.3399 32.539 34.4229 32.5006C34.5058 32.4622 34.5876 32.217 35.0793 30.0267C35.5709 27.8365 36.4701 23.7087 37.7506 23.4009C39.0312 23.0931 40.666 26.7305 41.8147 27.8891C42.9634 29.0477 43.5764 27.6173 43.9535 26.7987C44.4146 25.7978 44.7839 25.1986 45.1753 24.6196C45.3027 24.4311 45.5258 24.6945 45.6917 25.0245C46.9156 27.4586 46.8088 31.0095 46.7271 31.8145C46.69 32.1801 44.1882 32.7012 39.9056 33.7936C37.7641 34.3398 35.623 34.5998 33.8742 34.7682C30.8271 35.0617 28.898 34.8141 27.9698 34.567C27.6053 34.47 27.4911 34.3199 27.3667 34.0524C27.063 33.3997 26.9115 32.3012 26.7877 30.3091C26.4371 24.6707 26.9512 23.5898 27.3834 22.9253C28.2786 21.5492 30.0882 20.0762 30.3762 19.87C30.6933 19.6429 32.5094 19.7034 35.1077 19.7443C37.6066 19.7836 38.838 20.0329 41.9664 20.4038C43.16 20.5453 43.7102 21.3506 44.3288 22.1148C44.5759 22.4231 44.9437 22.9136 45.2149 23.1867C45.4862 23.4597 45.6496 23.5006 45.8181 23.5427" stroke="#D9D9D9" stroke-width="7.98" stroke-linecap="round"/>
<path d="M24.5576 30.4658V30.8259" stroke="#0D0D0D" stroke-width="2.5" stroke-linecap="round"/>
<path d="M30.0576 30.4658V30.7059" stroke="#0D0D0D" stroke-width="2.5" stroke-linecap="round"/>
<path d="M24.4521 35.9684C25.4891 36.0885 26.9245 35.93 28.2681 35.8286C28.8471 35.7692 29.6872 35.7284 30.9036 35.7086C31.5655 35.6888 32.318 35.6492 33.0933 35.6084" stroke="#0D0D0D" stroke-width="2" stroke-linecap="round"/>
<path d="M13.4853 1.91406C9.73369 2.82457 7.51071 4.44155 5.42173 6.6767C4.35288 8.40634 3.43934 9.7249 2.83183 10.7374C2.52579 11.2475 2.22432 11.7499 1.30469 13.1812" stroke="#1A1A1A" stroke-width="2" stroke-linecap="round"/>
<path d="M1 5.87207C1 6.07305 1 6.27403 1.5527 7.03076C2.10539 7.78748 3.21078 9.09385 4.95869 10.7443" stroke="#1A1A1A" stroke-width="2" stroke-linecap="round"/>
<path d="M8.30859 1C8.50958 1.50245 8.71056 2.0049 9.01508 2.71595C9.3196 3.427 9.72156 4.33141 10.0794 4.9983C10.4372 5.66519 10.7386 6.06715 11.6583 6.48129" stroke="#1A1A1A" stroke-width="2" stroke-linecap="round"/>
<path d="M63.9587 37C63.9587 37.201 63.9587 40.7212 63.6572 46.7019C63.3558 49.2659 62.7528 50.8738 62.191 52.104C61.6292 53.3342 61.1267 54.1382 60 55.5755" stroke="#1A1A1A" stroke-width="2" stroke-linecap="round"/>
<path d="M61.5225 42.4813C61.9244 42.4813 63.1364 42.4813 64.9102 42.431C65.6791 42.3808 66.1815 42.2803 66.7419 42.2285C67.3022 42.1768 67.9051 42.1768 68.5263 42.1768" stroke="#1A1A1A" stroke-width="2" stroke-linecap="round"/>
<path d="M60.6094 48.876C61.5138 49.1774 62.4182 49.4789 63.0851 49.7347C63.752 49.9905 64.1539 50.1915 64.562 50.3453C64.97 50.499 65.372 50.5995 66.0907 50.7031" stroke="#1A1A1A" stroke-width="2" stroke-linecap="round"/>
</svg>
