<svg width="48" height="56" viewBox="0 0 48 56" fill="none" xmlns="http://www.w3.org/2000/svg">
<path d="M7.91979 10.3498C6.67506 11.0611 5.85602 11.7831 5.54214 12.5887C4.84691 14.373 5.04774 15.9107 5.00059 20.569C4.9739 23.2064 5.85063 24.8017 6.65889 26.5085C7.53699 28.3627 9.16993 29.204 10.8767 30.2386C12.4225 31.1756 14.0195 31.3594 25.7448 31.5898C29.2969 31.6596 31.0794 31.187 33.6848 30.6037C35.7449 30.1424 37.1899 29.8399 39.344 28.8551C41.4283 27.9022 41.6839 25.2705 42.5824 22.618C43.2202 20.7354 43.2143 14.445 42.9462 10.6246C42.8306 8.97758 41.0642 7.66094 39.181 6.40274C37.2071 5.08403 35.0507 4.6919 32.6259 4.24465C31.021 3.94864 22.2801 3.88363 16.5939 4.19616C14.7727 4.29626 13.4053 5.04754 11.0721 6.21414C9.44041 7.02997 8.46404 8.63627 7.65307 10.075C6.88175 11.4433 6.66429 12.947 6.70604 20.0207C6.72337 22.956 8.63107 24.085 9.93509 25.164C10.7677 25.853 11.7779 26.1542 14.8952 26.5569C22.7634 27.5736 29.1935 27.0567 31.0323 26.6081C32.2487 26.3374 33.1513 26.0679 34.136 25.7096C34.6762 25.5291 35.2986 25.3513 36.2092 25.1681" stroke="#D9D9D9" stroke-width="7.98" stroke-linecap="round"/>
<path d="M18.1263 4.11133C16.8903 4.35902 15.9838 4.5225 14.9719 4.64758C14.2121 4.74152 13.5886 5.14174 12.7216 5.47241C12.0108 5.74355 11.1958 6.00867 10.4503 6.23655C9.75194 6.45 8.80311 7.36603 8.09656 8.09302C7.47406 8.73353 6.94045 9.51603 6.52742 10.095C6.07903 10.7236 6.15526 11.4976 5.88712 12.1589C5.08396 14.1399 5.90508 17.9376 6.1534 18.5786C6.42849 19.2886 7.14108 20.1248 8.58328 21.4035C9.53348 22.246 11.4274 22.4395 13.1811 22.2779C14.4487 22.1611 14.2041 20.2152 14.2047 18.2274C14.2052 16.607 14.0419 13.7466 13.897 12.845C13.5779 10.8601 13.3793 16.2447 13.3173 17.3128C13.2768 18.0123 13.2963 19.0349 14.0319 17.9674C14.7676 16.8998 16.2389 13.712 17.2012 11.8245C18.1635 9.9371 18.5722 9.44667 18.9871 10.8288C19.402 12.2109 19.8107 15.4805 20.0212 17.4509C20.2317 19.4213 20.2317 19.9935 20.2317 20.0226C20.2317 20.0517 20.2317 19.5204 20.5178 17.4893C20.8039 15.4582 21.3761 11.9434 22.3656 12.258C23.3552 12.5726 24.7447 16.823 25.5014 19.0944C26.2582 21.3657 26.3399 21.5292 26.4229 21.4908C26.5058 21.4524 26.5876 21.2072 27.0793 19.017C27.5709 16.8267 28.4701 12.6989 29.7506 12.3911C31.0312 12.0834 32.666 15.7208 33.8147 16.8794C34.9634 18.038 35.5764 16.6075 35.9535 15.7889C36.4146 14.788 36.7839 14.1888 37.1753 13.6098C37.3027 13.4214 37.5258 13.6847 37.6917 14.0148C38.9156 16.4488 38.8088 19.9997 38.7271 20.8047C38.69 21.1703 36.1882 21.6915 31.9056 22.7838C29.7641 23.33 27.623 23.59 25.8742 23.7585C22.8271 24.052 20.898 23.8043 19.9698 23.5572C19.6053 23.4602 19.4911 23.3101 19.3667 23.0426C19.063 22.3899 18.9115 21.2914 18.7877 19.2994C18.4371 13.6609 18.9512 12.58 19.3834 11.9156C20.2786 10.5395 22.0882 9.06646 22.3762 8.86025C22.6933 8.63314 24.5094 8.69368 27.1077 8.73455C29.6066 8.77385 30.838 9.02311 33.9664 9.39404C35.16 9.53556 35.7102 10.3409 36.3288 11.105C36.5759 11.4134 36.9437 11.9038 37.2149 12.1769C37.4862 12.45 37.6496 12.4908 37.8181 12.5329" stroke="#D9D9D9" stroke-width="7.98" stroke-linecap="round"/>
<path d="M16.5576 19.4561V19.8161" stroke="#0D0D0D" stroke-width="2.5" stroke-linecap="round"/>
<path d="M22.0576 19.4561V19.6961" stroke="#0D0D0D" stroke-width="2.5" stroke-linecap="round"/>
<path d="M16.4521 24.9587C17.4891 25.0787 18.9245 24.9203 20.2681 24.8189C20.8471 24.7594 21.6872 24.7186 22.9036 24.6988C23.5655 24.679 24.318 24.6394 25.0933 24.5986" stroke="#0D0D0D" stroke-width="2" stroke-linecap="round"/>
<path d="M3.42701 51.8015C3.11063 51.5423 2.64863 51.082 1.97123 50.217C1.41086 49.2704 1.05807 48.5666 1.01474 48.2931C1 48.1341 1 47.9338 1 47.7275" stroke="#E0D0FF" stroke-width="2" stroke-linecap="round"/>
<path d="M11.427 51.8015C11.1106 51.5423 10.6486 51.082 9.97123 50.217C9.41086 49.2704 9.05807 48.5666 9.01474 48.2931C9 48.1341 9 47.9338 9 47.7275" stroke="#FCA8A8" stroke-width="2" stroke-linecap="round"/>
<path d="M19.427 51.8015C19.1106 51.5423 18.6486 51.082 17.9712 50.217C17.4109 49.2704 17.0581 48.5666 17.0147 48.2931C17 48.1341 17 47.9338 17 47.7275" stroke="#FFF06C" stroke-width="2" stroke-linecap="round"/>
<path d="M1 47.7275C1.34498 48.2459 2.09389 49.1664 2.55892 49.878C2.64603 50.0089 2.73184 50.1233 2.81896 50.2538C2.90607 50.3842 2.99188 50.5273 3.08029 50.6746" stroke="#E0D0FF" stroke-width="2" stroke-linecap="round"/>
<path d="M9 47.7275C9.34498 48.2459 10.0939 49.1664 10.5589 49.878C10.646 50.0089 10.7318 50.1233 10.819 50.2538C10.9061 50.3842 10.9919 50.5273 11.0803 50.6746" stroke="#FCA8A8" stroke-width="2" stroke-linecap="round"/>
<path d="M17 47.7275C17.345 48.2459 18.0939 49.1664 18.5589 49.878C18.646 50.0089 18.7318 50.1233 18.819 50.2538C18.9061 50.3842 18.9919 50.5273 19.0803 50.6746" stroke="#FFF06C" stroke-width="2" stroke-linecap="round"/>
<path d="M2.64724 49.6345C2.53196 48.5666 2.47389 47.705 2.58873 46.7914C2.63714 46.4063 2.87781 46.1396 3.0503 46.0091C3.14313 45.9389 3.33721 46.0789 3.45422 46.1946C3.80181 47.0011 4.03411 49.1872 3.94786 50.3257C3.91882 50.4709 3.89022 50.6139 3.86075 51.0213" stroke="#E0D0FF" stroke-width="2" stroke-linecap="round"/>
<path d="M10.6472 49.6345C10.532 48.5666 10.4739 47.705 10.5887 46.7914C10.6371 46.4063 10.8778 46.1396 11.0503 46.0091C11.1431 45.9389 11.3372 46.0789 11.4542 46.1946C11.8018 47.0011 12.0341 49.1872 11.9479 50.3257C11.9188 50.4709 11.8902 50.6139 11.8607 51.0213" stroke="#FCA8A8" stroke-width="2" stroke-linecap="round"/>
<path d="M18.6472 49.6345C18.532 48.5666 18.4739 47.705 18.5887 46.7914C18.6371 46.4063 18.8778 46.1396 19.0503 46.0091C19.1431 45.9389 19.3372 46.0789 19.4542 46.1946C19.8018 47.0011 20.0341 49.1872 19.9479 50.3257C19.9188 50.4709 19.8902 50.6139 19.8607 51.0213" stroke="#FFF06C" stroke-width="2" stroke-linecap="round"/>
<path d="M4.46761 48.2476C4.55342 47.7293 4.84206 47.2664 5.11553 47.0931C5.2588 47.0023 5.47482 47.0341 5.59227 47.0913C6.23232 47.4031 5.65338 48.8232 5.40764 49.3866C5.13077 50.0214 4.81606 50.4701 4.54085 50.9186C4.38266 51.1063 4.23704 51.3091 4.10746 51.5254C4.03508 51.6272 3.94927 51.7131 3.6875 51.8882" stroke="#E0D0FF" stroke-width="2" stroke-linecap="round"/>
<path d="M12.4676 48.2476C12.5534 47.7293 12.8421 47.2664 13.1155 47.0931C13.2588 47.0023 13.4748 47.0341 13.5923 47.0913C14.2323 47.4031 13.6534 48.8232 13.4076 49.3866C13.1308 50.0214 12.8161 50.4701 12.5409 50.9186C12.3827 51.1063 12.237 51.3091 12.1075 51.5254C12.0351 51.6272 11.9493 51.7131 11.6875 51.8882" stroke="#FCA8A8" stroke-width="2" stroke-linecap="round"/>
<path d="M20.4676 48.2476C20.5534 47.7293 20.8421 47.2664 21.1155 47.0931C21.2588 47.0023 21.4748 47.0341 21.5923 47.0913C22.2323 47.4031 21.6534 48.8232 21.4076 49.3866C21.1308 50.0214 20.8161 50.4701 20.5409 50.9186C20.3827 51.1063 20.237 51.3091 20.1075 51.5254C20.0351 51.6272 19.9493 51.7131 19.6875 51.8882" stroke="#FFF06C" stroke-width="2" stroke-linecap="round"/>
<path d="M3.68683 52.4949C2.3303 51.831 1.8111 51.5432 1.37683 51.3824C1.28576 51.3487 1.23208 51.5674 1.21691 51.7126C1.20174 51.8578 1.23035 52.0008 1.28799 52.1174C1.66288 52.4368 2.12488 52.5235 2.64235 52.5669C2.9882 52.5816 3.50307 52.5816 4.03355 52.5816" stroke="#AFECB2" stroke-width="2" stroke-linecap="round"/>
<path d="M11.6868 52.4949C10.3303 51.831 9.8111 51.5432 9.37683 51.3824C9.28576 51.3487 9.23208 51.5674 9.21691 51.7126C9.20174 51.8578 9.23035 52.0008 9.28799 52.1174C9.66288 52.4368 10.1249 52.5235 10.6423 52.5669C10.9882 52.5816 11.5031 52.5816 12.0335 52.5816" stroke="#AFECB2" stroke-width="2" stroke-linecap="round"/>
<path d="M19.6868 52.4949C18.3303 51.831 17.8111 51.5432 17.3768 51.3824C17.2858 51.3487 17.2321 51.5674 17.2169 51.7126C17.2017 51.8578 17.2303 52.0008 17.288 52.1174C17.6629 52.4368 18.1249 52.5235 18.6423 52.5669C18.9882 52.5816 19.5031 52.5816 20.0335 52.5816" stroke="#AFECB2" stroke-width="2" stroke-linecap="round"/>
<path d="M4.4668 52.4946C4.4954 52.0049 4.7251 51.5429 5.01461 51.1238C5.17094 50.8975 5.448 50.7905 5.64996 50.761C5.85072 50.7317 5.85366 51.2213 5.82505 51.5819C5.56588 52.0603 5.24777 52.3204 5.06055 52.479C4.95913 52.5518 4.84471 52.609 4.64015 52.7546" stroke="#AFECB2" stroke-width="2" stroke-linecap="round"/>
<path d="M12.4668 52.4946C12.4954 52.0049 12.7251 51.5429 13.0146 51.1238C13.1709 50.8975 13.448 50.7905 13.65 50.761C13.8507 50.7317 13.8537 51.2213 13.8251 51.5819C13.5659 52.0603 13.2478 52.3204 13.0605 52.479C12.9591 52.5518 12.8447 52.609 12.6402 52.7546" stroke="#AFECB2" stroke-width="2" stroke-linecap="round"/>
<path d="M20.4668 52.4946C20.4954 52.0049 20.7251 51.5429 21.0146 51.1238C21.1709 50.8975 21.448 50.7905 21.65 50.761C21.8507 50.7317 21.8537 51.2213 21.8251 51.5819C21.5659 52.0603 21.2478 52.3204 21.0605 52.479C20.9591 52.5518 20.8447 52.609 20.6402 52.7546" stroke="#AFECB2" stroke-width="2" stroke-linecap="round"/>
<path d="M3.86035 53.0146C3.94616 53.0719 4.03198 53.1291 4.09049 53.2157C4.14899 53.3024 4.1776 53.4168 4.19233 53.676C4.20707 53.9352 4.20707 54.3356 4.38042 54.7482" stroke="#AFECB2" stroke-linecap="round"/>
<path d="M11.8604 53.0146C11.9462 53.0719 12.032 53.1291 12.0905 53.2157C12.149 53.3024 12.1776 53.4168 12.1923 53.676C12.2071 53.9352 12.2071 54.3356 12.3804 54.7482" stroke="#AFECB2" stroke-linecap="round"/>
<path d="M19.8604 53.0146C19.9462 53.0719 20.032 53.1291 20.0905 53.2157C20.149 53.3024 20.1776 53.4168 20.1923 53.676C20.2071 53.9352 20.2071 54.3356 20.3804 54.7482" stroke="#AFECB2" stroke-linecap="round"/>
<path d="M28.427 51.8015C28.1106 51.5423 27.6486 51.082 26.9712 50.217C26.4109 49.2704 26.0581 48.5666 26.0147 48.2931C26 48.1341 26 47.9338 26 47.7275" stroke="#E0D0FF" stroke-width="2" stroke-linecap="round"/>
<path d="M36.427 51.8015C36.1106 51.5423 35.6486 51.082 34.9712 50.217C34.4109 49.2704 34.0581 48.5666 34.0147 48.2931C34 48.1341 34 47.9338 34 47.7275" stroke="#FCA8A8" stroke-width="2" stroke-linecap="round"/>
<path d="M44.427 51.8015C44.1106 51.5423 43.6486 51.082 42.9712 50.217C42.4109 49.2704 42.0581 48.5666 42.0147 48.2931C42 48.1341 42 47.9338 42 47.7275" stroke="#FFF06C" stroke-width="2" stroke-linecap="round"/>
<path d="M26 47.7275C26.345 48.2459 27.0939 49.1664 27.5589 49.878C27.646 50.0089 27.7318 50.1233 27.819 50.2538C27.9061 50.3842 27.9919 50.5273 28.0803 50.6746" stroke="#E0D0FF" stroke-width="2" stroke-linecap="round"/>
<path d="M34 47.7275C34.345 48.2459 35.0939 49.1664 35.5589 49.878C35.646 50.0089 35.7318 50.1233 35.819 50.2538C35.9061 50.3842 35.9919 50.5273 36.0803 50.6746" stroke="#FCA8A8" stroke-width="2" stroke-linecap="round"/>
<path d="M42 47.7275C42.345 48.2459 43.0939 49.1664 43.5589 49.878C43.646 50.0089 43.7318 50.1233 43.819 50.2538C43.9061 50.3842 43.9919 50.5273 44.0803 50.6746" stroke="#FFF06C" stroke-width="2" stroke-linecap="round"/>
<path d="M27.6472 49.6345C27.532 48.5666 27.4739 47.705 27.5887 46.7914C27.6371 46.4063 27.8778 46.1396 28.0503 46.0091C28.1431 45.9389 28.3372 46.0789 28.4542 46.1946C28.8018 47.0011 29.0341 49.1872 28.9479 50.3257C28.9188 50.4709 28.8902 50.6139 28.8607 51.0213" stroke="#E0D0FF" stroke-width="2" stroke-linecap="round"/>
<path d="M35.6472 49.6345C35.532 48.5666 35.4739 47.705 35.5887 46.7914C35.6371 46.4063 35.8778 46.1396 36.0503 46.0091C36.1431 45.9389 36.3372 46.0789 36.4542 46.1946C36.8018 47.0011 37.0341 49.1872 36.9479 50.3257C36.9188 50.4709 36.8902 50.6139 36.8607 51.0213" stroke="#FCA8A8" stroke-width="2" stroke-linecap="round"/>
<path d="M43.6472 49.6345C43.532 48.5666 43.4739 47.705 43.5887 46.7914C43.6371 46.4063 43.8778 46.1396 44.0503 46.0091C44.1431 45.9389 44.3372 46.0789 44.4542 46.1946C44.8018 47.0011 45.0341 49.1872 44.9479 50.3257C44.9188 50.4709 44.8902 50.6139 44.8607 51.0213" stroke="#FFF06C" stroke-width="2" stroke-linecap="round"/>
<path d="M29.4676 48.2476C29.5534 47.7293 29.8421 47.2664 30.1155 47.0931C30.2588 47.0023 30.4748 47.0341 30.5923 47.0913C31.2323 47.4031 30.6534 48.8232 30.4076 49.3866C30.1308 50.0214 29.8161 50.4701 29.5409 50.9186C29.3827 51.1063 29.237 51.3091 29.1075 51.5254C29.0351 51.6272 28.9493 51.7131 28.6875 51.8882" stroke="#E0D0FF" stroke-width="2" stroke-linecap="round"/>
<path d="M37.4676 48.2476C37.5534 47.7293 37.8421 47.2664 38.1155 47.0931C38.2588 47.0023 38.4748 47.0341 38.5923 47.0913C39.2323 47.4031 38.6534 48.8232 38.4076 49.3866C38.1308 50.0214 37.8161 50.4701 37.5409 50.9186C37.3827 51.1063 37.237 51.3091 37.1075 51.5254C37.0351 51.6272 36.9493 51.7131 36.6875 51.8882" stroke="#FCA8A8" stroke-width="2" stroke-linecap="round"/>
<path d="M45.4676 48.2476C45.5534 47.7293 45.8421 47.2664 46.1155 47.0931C46.2588 47.0023 46.4748 47.0341 46.5923 47.0913C47.2323 47.4031 46.6534 48.8232 46.4076 49.3866C46.1308 50.0214 45.8161 50.4701 45.5409 50.9186C45.3827 51.1063 45.237 51.3091 45.1075 51.5254C45.0351 51.6272 44.9493 51.7131 44.6875 51.8882" stroke="#FFF06C" stroke-width="2" stroke-linecap="round"/>
<path d="M28.6868 52.4949C27.3303 51.831 26.8111 51.5432 26.3768 51.3824C26.2858 51.3487 26.2321 51.5674 26.2169 51.7126C26.2017 51.8578 26.2303 52.0008 26.288 52.1174C26.6629 52.4368 27.1249 52.5235 27.6423 52.5669C27.9882 52.5816 28.5031 52.5816 29.0335 52.5816" stroke="#AFECB2" stroke-width="2" stroke-linecap="round"/>
<path d="M36.6868 52.4949C35.3303 51.831 34.8111 51.5432 34.3768 51.3824C34.2858 51.3487 34.2321 51.5674 34.2169 51.7126C34.2017 51.8578 34.2303 52.0008 34.288 52.1174C34.6629 52.4368 35.1249 52.5235 35.6423 52.5669C35.9882 52.5816 36.5031 52.5816 37.0335 52.5816" stroke="#AFECB2" stroke-width="2" stroke-linecap="round"/>
<path d="M44.6868 52.4949C43.3303 51.831 42.8111 51.5432 42.3768 51.3824C42.2858 51.3487 42.2321 51.5674 42.2169 51.7126C42.2017 51.8578 42.2303 52.0008 42.288 52.1174C42.6629 52.4368 43.1249 52.5235 43.6423 52.5669C43.9882 52.5816 44.5031 52.5816 45.0335 52.5816" stroke="#AFECB2" stroke-width="2" stroke-linecap="round"/>
<path d="M29.4668 52.4946C29.4954 52.0049 29.7251 51.5429 30.0146 51.1238C30.1709 50.8975 30.448 50.7905 30.65 50.761C30.8507 50.7317 30.8537 51.2213 30.8251 51.5819C30.5659 52.0603 30.2478 52.3204 30.0605 52.479C29.9591 52.5518 29.8447 52.609 29.6402 52.7546" stroke="#AFECB2" stroke-width="2" stroke-linecap="round"/>
<path d="M37.4668 52.4946C37.4954 52.0049 37.7251 51.5429 38.0146 51.1238C38.1709 50.8975 38.448 50.7905 38.65 50.761C38.8507 50.7317 38.8537 51.2213 38.8251 51.5819C38.5659 52.0603 38.2478 52.3204 38.0605 52.479C37.9591 52.5518 37.8447 52.609 37.6402 52.7546" stroke="#AFECB2" stroke-width="2" stroke-linecap="round"/>
<path d="M45.4668 52.4946C45.4954 52.0049 45.7251 51.5429 46.0146 51.1238C46.1709 50.8975 46.448 50.7905 46.65 50.761C46.8507 50.7317 46.8537 51.2213 46.8251 51.5819C46.5659 52.0603 46.2478 52.3204 46.0605 52.479C45.9591 52.5518 45.8447 52.609 45.6402 52.7546" stroke="#AFECB2" stroke-width="2" stroke-linecap="round"/>
<path d="M28.8604 53.0146C28.9462 53.0719 29.032 53.1291 29.0905 53.2157C29.149 53.3024 29.1776 53.4168 29.1923 53.676C29.2071 53.9352 29.2071 54.3356 29.3804 54.7482" stroke="#AFECB2" stroke-linecap="round"/>
<path d="M36.8604 53.0146C36.9462 53.0719 37.032 53.1291 37.0905 53.2157C37.149 53.3024 37.1776 53.4168 37.1923 53.676C37.2071 53.9352 37.2071 54.3356 37.3804 54.7482" stroke="#AFECB2" stroke-linecap="round"/>
<path d="M44.8604 53.0146C44.9462 53.0719 45.032 53.1291 45.0905 53.2157C45.149 53.3024 45.1776 53.4168 45.1923 53.676C45.2071 53.9352 45.2071 54.3356 45.3804 54.7482" stroke="#AFECB2" stroke-linecap="round"/>
</svg>
