<svg width="57" height="55" viewBox="0 0 57 55" fill="none" xmlns="http://www.w3.org/2000/svg">
<path d="M6.91003 29.1594C5.6653 29.8706 4.84626 30.5927 4.53238 31.3983C3.83714 33.1826 4.03798 34.7203 3.99083 39.3786C3.96414 42.016 4.84087 43.6112 5.64913 45.318C6.52723 47.1723 8.16017 48.0136 9.86696 49.0482C11.4127 49.9852 13.0098 50.169 24.7351 50.3993C28.2871 50.4691 30.0697 49.9965 32.675 49.4133C34.7352 48.952 36.1802 48.6494 38.3342 47.6647C40.4186 46.7118 40.6742 44.08 41.5727 41.4276C42.2104 39.5449 42.2045 33.2546 41.9364 29.4342C41.8208 27.7871 40.0545 26.4705 38.1712 25.2123C36.1974 23.8936 34.041 23.5015 31.6162 23.0542C30.0113 22.7582 21.2703 22.6932 15.5841 23.0057C13.7629 23.1058 12.3955 23.8571 10.0623 25.0237C8.43064 25.8395 7.45427 27.4458 6.64331 28.8845C5.87198 30.2529 5.65452 31.7566 5.69628 38.8303C5.7136 41.7656 7.62131 42.8946 8.92532 43.9736C9.75796 44.6626 10.7682 44.9637 13.8854 45.3665C21.7536 46.3832 28.1837 45.8663 30.0225 45.4177C31.239 45.1469 32.1415 44.8775 33.1263 44.5192C33.6665 44.3387 34.2888 44.1608 35.1995 43.9776" stroke="#D9D9D9" stroke-width="7.98" stroke-linecap="round"/>
<path d="M17.1166 22.9209C15.8806 23.1686 14.974 23.3321 13.9622 23.4572C13.2023 23.5511 12.5788 23.9513 11.7119 24.282C11.001 24.5531 10.1861 24.8182 9.44052 25.0461C8.74218 25.2596 7.79334 26.1756 7.0868 26.9026C6.46429 27.5431 5.93068 28.3256 5.51765 28.9046C5.06926 29.5331 5.14549 30.3072 4.87736 30.9685C4.0742 32.9495 4.89532 36.7472 5.14363 37.3881C5.41872 38.0981 6.13132 38.9344 7.57351 40.2131C8.52372 41.0556 10.4177 41.2491 12.1714 41.0874C13.439 40.9706 13.1943 39.0248 13.1949 37.037C13.1955 35.4166 13.0321 32.5562 12.8872 31.6546C12.5682 29.6696 12.3695 35.0542 12.3076 36.1224C12.267 36.8219 12.2865 37.8445 13.0222 36.7769C13.7578 35.7094 15.2291 32.5215 16.1914 30.6341C17.1537 28.7467 17.5624 28.2562 17.9773 29.6384C18.3922 31.0205 18.8009 34.2901 19.0114 36.2605C19.222 38.2309 19.222 38.8031 19.222 38.8322C19.222 38.8613 19.222 38.33 19.5081 36.2989C19.7941 34.2678 20.3663 30.753 21.3559 31.0676C22.3454 31.3822 23.735 35.6326 24.4917 37.904C25.2484 40.1753 25.3301 40.3388 25.4131 40.3004C25.4961 40.262 25.5778 40.0168 26.0695 37.8265C26.5612 35.6363 27.4603 31.5085 28.7409 31.2007C30.0215 30.893 31.6562 34.5303 32.8049 35.6889C33.9536 36.8475 34.5667 35.4171 34.9438 34.5985C35.4048 33.5976 35.7742 32.9984 36.1655 32.4194C36.2929 32.2309 36.516 32.4943 36.682 32.8243C37.9058 35.2584 37.7991 38.8093 37.7173 39.6143C37.6802 39.9799 35.1785 40.501 30.8958 41.5934C28.7544 42.1396 26.6132 42.3996 24.8645 42.568C21.8174 42.8615 19.8883 42.6139 18.96 42.3668C18.5955 42.2698 18.4814 42.1197 18.3569 41.8522C18.0532 41.1995 17.9018 40.101 17.7779 38.1089C17.4274 32.4705 17.9414 31.3896 18.3736 30.7251C19.2688 29.349 21.0784 27.876 21.3664 27.6698C21.6835 27.4427 23.4997 27.5033 26.098 27.5441C28.5968 27.5834 29.8283 27.8327 32.9566 28.2036C34.1502 28.3451 34.7004 29.1504 35.319 29.9146C35.5661 30.2229 35.9339 30.7134 36.2052 30.9865C36.4764 31.2595 36.6399 31.3004 36.8083 31.3425" stroke="#D9D9D9" stroke-width="7.98" stroke-linecap="round"/>
<path d="M15.5479 38.2656V38.6257" stroke="#0D0D0D" stroke-width="2.5" stroke-linecap="round"/>
<path d="M21.0479 38.2656V38.5057" stroke="#0D0D0D" stroke-width="2.5" stroke-linecap="round"/>
<path d="M15.4424 43.7682C16.4793 43.8883 17.9147 43.7298 19.2583 43.6284C19.8374 43.569 20.6775 43.5282 21.8938 43.5084C22.5557 43.4886 23.3082 43.449 24.0835 43.4082" stroke="#0D0D0D" stroke-width="2" stroke-linecap="round"/>
<path d="M48.6314 5.21472C48.3387 5.13146 47.4179 4.96243 46.6156 5.23427C45.7751 5.51907 45.228 6.43074 44.8275 7.14598C44.576 7.59513 44.4686 8.65466 44.5311 9.93629C44.5849 11.041 45.6846 11.5194 46.3582 11.7736C47.5397 12.2194 49.5522 11.6506 50.2479 11.2293C50.9074 10.8299 50.8591 9.92746 50.8395 8.75116C50.8267 7.97915 49.8121 7.69723 48.8673 7.40205C48.5241 7.29483 48.0107 7.35916 47.691 7.44242C47.3712 7.52567 47.2463 7.69218 47.182 7.86122C46.9394 8.49851 47.0331 9.0394 47.1794 9.33332C47.2841 9.46072 47.4507 9.54398 47.6405 9.58687C47.8304 9.62976 48.0385 9.62976 48.2529 9.62976" stroke="#FF6868" stroke-width="1.6" stroke-linecap="round"/>
<path d="M47.6221 0.799805V2.06124" stroke="#FF6868" stroke-width="1.6" stroke-linecap="round"/>
<path d="M42.1973 3.82715C42.2389 3.82715 42.2805 3.82715 42.3852 3.86878C42.4899 3.9104 42.6564 3.99366 42.8046 4.09899C42.9529 4.20432 43.0777 4.3292 43.5848 4.45787" stroke="#FF6868" stroke-width="1.6" stroke-linecap="round"/>
<path d="M53.4248 5.97137C53.5081 5.97137 53.5913 5.97137 53.7175 5.95056C53.8436 5.92975 54.0101 5.88812 54.1792 5.80423C54.3482 5.72035 54.5147 5.59547 54.8124 5.4668" stroke="#FF6868" stroke-width="1.6" stroke-linecap="round"/>
<path d="M51.1543 13.2881C51.1959 13.2881 51.2376 13.2881 51.3214 13.3505C51.4053 13.413 51.5302 13.5379 51.6362 13.6854C51.7421 13.833 51.8254 13.9995 52.0373 14.2972" stroke="#FF6868" stroke-width="1.6" stroke-linecap="round"/>
<path d="M39.9902 10.1974C40.0735 10.1974 40.1567 10.1974 40.3245 10.1974C40.4923 10.1974 40.742 10.1974 40.954 10.1766C41.1659 10.1558 41.3324 10.1142 41.6301 10.0713" stroke="#FF6868" stroke-width="1.6" stroke-linecap="round"/>
<path d="M46.1714 14.2344C46.1298 14.3593 46.0881 14.4841 46.0459 14.6317C46.0036 14.7793 45.962 14.9458 45.793 15.3697" stroke="#FF6868" stroke-width="1.6" stroke-linecap="round"/>
<path d="M53.7402 9.69336C53.8235 9.69336 53.9067 9.69336 54.0745 9.73499C54.2423 9.77661 54.4921 9.85987 54.7456 9.9652C54.9992 10.0705 55.2489 10.1954 55.5063 10.3241" stroke="#FF6868" stroke-width="1.6" stroke-linecap="round"/>
</svg>
