<svg width="71" height="68" viewBox="0 0 71 68" fill="none" xmlns="http://www.w3.org/2000/svg">
<path d="M15.9198 25.4592C14.6751 26.1704 13.856 26.8925 13.5421 27.6981C12.8469 29.4824 13.0477 31.0201 13.0006 35.6784C12.9739 38.3158 13.8506 39.911 14.6589 41.6178C15.537 43.4721 17.1699 44.3134 18.8767 45.348C20.4225 46.285 22.0195 46.4688 33.7448 46.6991C37.2969 46.7689 39.0794 46.2964 41.6848 45.7131C43.7449 45.2518 45.1899 44.9492 47.344 43.9645C49.4283 43.0116 49.6839 40.3798 50.5824 37.7274C51.2202 35.8447 51.2143 29.5544 50.9462 25.734C50.8306 24.087 49.0642 22.7703 47.181 21.5121C45.2071 20.1934 43.0507 19.8013 40.6259 19.354C39.021 19.058 30.2801 18.993 24.5939 19.3055C22.7727 19.4056 21.4053 20.1569 19.0721 21.3235C17.4404 22.1393 16.464 23.7456 15.6531 25.1844C14.8818 26.5527 14.6643 28.0564 14.706 35.1301C14.7234 38.0654 16.6311 39.1944 17.9351 40.2734C18.7677 40.9624 19.7779 41.2635 22.8952 41.6663C30.7634 42.683 37.1935 42.1661 39.0323 41.7175C40.2487 41.4467 41.1513 41.1773 42.136 40.819C42.6762 40.6385 43.2986 40.4607 44.2092 40.2774" stroke="#D9D9D9" stroke-width="7.98" stroke-linecap="round"/>
<path d="M26.1263 19.2207C24.8903 19.4684 23.9838 19.6319 22.9719 19.757C22.2121 19.8509 21.5886 20.2511 20.7216 20.5818C20.0108 20.8529 19.1958 21.118 18.4503 21.3459C17.7519 21.5594 16.8031 22.4754 16.0966 23.2024C15.4741 23.8429 14.9404 24.6254 14.5274 25.2044C14.079 25.8329 14.1553 26.607 13.8871 27.2683C13.084 29.2493 13.9051 33.047 14.1534 33.6879C14.4285 34.3979 15.1411 35.2342 16.5833 36.5129C17.5335 37.3554 19.4274 37.5489 21.1811 37.3873C22.4487 37.2704 22.2041 35.3246 22.2047 33.3368C22.2052 31.7164 22.0419 28.856 21.897 27.9544C21.5779 25.9695 21.3793 31.354 21.3173 32.4222C21.2768 33.1217 21.2963 34.1443 22.0319 33.0767C22.7676 32.0092 24.2389 28.8213 25.2012 26.9339C26.1635 25.0465 26.5722 24.556 26.9871 25.9382C27.402 27.3203 27.8107 30.5899 28.0212 32.5603C28.2317 34.5307 28.2317 35.1029 28.2317 35.132C28.2317 35.1611 28.2317 34.6298 28.5178 32.5987C28.8039 30.5676 29.3761 27.0528 30.3656 27.3674C31.3552 27.682 32.7447 31.9324 33.5014 34.2038C34.2582 36.4751 34.3399 36.6386 34.4229 36.6002C34.5058 36.5618 34.5876 36.3166 35.0793 34.1263C35.5709 31.9361 36.4701 27.8083 37.7506 27.5005C39.0312 27.1928 40.666 30.8302 41.8147 31.9887C42.9634 33.1473 43.5764 31.7169 43.9535 30.8983C44.4146 29.8974 44.7839 29.2982 45.1753 28.7192C45.3027 28.5308 45.5258 28.7941 45.6917 29.1242C46.9156 31.5582 46.8088 35.1091 46.7271 35.9141C46.69 36.2797 44.1882 36.8008 39.9056 37.8932C37.7641 38.4394 35.623 38.6994 33.8742 38.8678C30.8271 39.1613 28.898 38.9137 27.9698 38.6666C27.6053 38.5696 27.4911 38.4195 27.3667 38.152C27.063 37.4993 26.9115 36.4008 26.7877 34.4087C26.4371 28.7703 26.9512 27.6894 27.3834 27.0249C28.2786 25.6489 30.0882 24.1758 30.3762 23.9696C30.6933 23.7425 32.5094 23.8031 35.1077 23.8439C37.6066 23.8832 38.838 24.1325 41.9664 24.5034C43.16 24.6449 43.7102 25.4502 44.3288 26.2144C44.5759 26.5227 44.9437 27.0132 45.2149 27.2863C45.4862 27.5593 45.6496 27.6002 45.8181 27.6423" stroke="#D9D9D9" stroke-width="7.98" stroke-linecap="round"/>
<path d="M24.5576 34.5654V34.9255" stroke="#0D0D0D" stroke-width="2.5" stroke-linecap="round"/>
<path d="M30.0576 34.5654V34.8055" stroke="#0D0D0D" stroke-width="2.5" stroke-linecap="round"/>
<path d="M24.4521 40.068C25.4891 40.1881 26.9245 40.0296 28.2681 39.9282C28.8471 39.8688 29.6872 39.828 30.9036 39.8082C31.5655 39.7884 32.318 39.7488 33.0933 39.708" stroke="#0D0D0D" stroke-width="2" stroke-linecap="round"/>
<path d="M3.71671 0.788387C4.44082 1.02457 5.4572 2.13392 6.43977 4.2787C6.87817 5.23564 6.77019 6.58569 6.66223 7.93601C6.52979 9.59245 3.15836 10.9563 0.667603 11.9989C-0.305282 12.4061 4.99917 12.9556 7.34707 12.4414C8.69555 12.1462 9.74515 10.1022 10.2228 7.99565C11.0393 4.39456 9.46161 3.02142 8.51939 1.7868C7.93924 1.27029 7.35472 0.869493 6.34271 0.63092C5.6186 0.549805 4.467 0.549805 3.28051 0.549805" stroke="#FFF200" stroke-width="1.1" stroke-linecap="round"/>
<path d="M5.63939 1.09961C6.64004 1.71267 7.39805 2.28674 8.26339 3.11859C8.8153 3.64914 8.81868 4.63283 8.83682 6.40052C8.84549 7.24506 8.5781 7.88443 7.26947 9.37971C6.56303 10.1869 6.09149 10.5576 5.53777 10.9367C4.97439 11.3224 4.19181 11.5693 3.37831 11.8038C3.18711 11.8589 3.0159 11.8942 3.01331 11.9126C2.91676 12.5984 4.63354 11.2119 5.60102 10.7412C6.43084 10.3376 7.01853 9.33801 7.48723 8.48558C7.79992 7.91688 7.81698 6.66914 7.73092 5.72356C7.64195 4.74614 7.26532 3.73815 7.07453 3.05198C6.97267 2.68568 6.74685 2.36472 6.71055 2.34468C6.12398 2.02082 7.67699 3.37313 7.98756 3.75007C8.45156 4.31322 8.33546 5.14082 8.28413 5.62716C8.19328 6.48786 7.50797 7.05258 6.66234 8.06423C6.15221 8.67452 5.81359 9.18421 5.08929 10.0323C4.80296 10.3676 4.56925 10.6302 4.44741 10.7927C3.8397 11.603 6.81322 10.3063 6.72974 10.4493C6.59468 10.6807 5.92766 10.8782 5.69642 11.0077C5.58166 11.0719 6.11949 10.9216 6.58716 10.8122C6.68157 10.7901 6.47309 11.0602 6.43576 11.1528C6.39843 11.2454 6.53531 11.2097 6.55449 11.2449C6.78982 11.6767 5.57302 11.9289 5.24119 12.022C3.86089 12.4095 6.88269 10.7775 7.02112 10.614C7.39817 10.1685 6.91898 11.6408 6.88373 11.6966C6.64859 12.0686 7.33169 10.7418 7.55619 10.5062C7.693 10.3626 7.71329 11.0624 7.76462 11.2622C7.97437 12.0789 8.50759 9.91099 8.64551 9.71169C8.75152 9.55849 8.85393 10.1244 8.85393 10.2695C8.85393 10.7772 9.47195 8.47366 9.78667 7.60065C10.0806 6.78536 9.75401 5.50801 9.37396 4.89278C8.98368 4.26099 8.54492 3.70133 8.19858 3.12401C7.73479 2.35091 7.40324 1.93146 7.40168 1.78632C7.39099 0.786918 8.8166 2.72216 9.26716 3.15596C9.71996 3.59192 9.88984 4.13133 9.82296 4.18657C8.72651 5.09213 7.95801 2.94313 7.62722 2.5624C7.13422 1.99498 8.71291 4.09126 9.12924 5.06771C9.5681 6.09697 9.06339 7.70246 8.26961 9.19883C8.05099 9.61094 7.88957 10.0096 7.81854 10.0691C7.18068 10.6041 8.3002 8.14438 8.50759 6.88252C8.82988 4.92147 8.23384 4.09993 7.73247 3.41267C7.62022 3.2588 7.50797 3.15975 7.4893 3.03302C7.47064 2.9063 7.53908 2.76332 7.64277 2.68967C7.85008 2.54242 8.435 3.15217 9.1085 4.08963C9.54243 4.69362 9.57979 5.35637 9.47714 6.13028C9.262 7.75214 8.44123 8.20937 7.92275 8.7699C7.41541 9.31839 6.57679 9.72578 5.93543 10.0345C5.21585 10.3808 4.60658 10.9541 3.8102 11.2622C3.187 11.461 2.70274 11.6061 2.42692 11.624C2.28797 11.6419 2.15109 11.6776 2.21745 11.8227" stroke="#FFF200" stroke-width="1.1" stroke-linecap="round"/>
<path d="M62.416 11.0996C62.5281 12.2207 62.6402 13.3419 62.7541 14.4239C62.8679 15.506 62.98 16.515 63.0938 17.3151C63.2076 18.1152 63.3197 18.6758 63.4352 19.2533" stroke="#FFF200" stroke-width="1.6" stroke-linecap="round"/>
<path d="M58 16.1957C59.9059 15.8593 61.8119 15.523 63.1861 15.2936C64.5603 15.0643 65.3451 14.9522 66.0297 14.8384C66.7143 14.7246 67.2748 14.6125 68.1921 14.1572" stroke="#FFF200" stroke-width="1.6" stroke-linecap="round"/>
<path d="M64.4548 12.1191C63.4458 13.6887 62.4367 15.2583 61.7488 16.2911C61.0608 17.3239 60.7245 17.7724 60.3779 18.5742" stroke="#FFF200" stroke-width="1.6" stroke-linecap="round"/>
<path d="M59.6982 13.4775C62.389 14.935 65.0797 16.3925 66.8022 17.2554C68.5246 18.1184 69.1973 18.3426 69.8904 18.9133" stroke="#FFF200" stroke-width="1.6" stroke-linecap="round"/>
<path d="M10.3975 60.0996V66.5546" stroke="#FFF200" stroke-width="1.6" stroke-linecap="round"/>
<path d="M7 62.8174C8.56959 62.9295 10.1392 63.0416 11.2841 63.0994C12.429 63.1571 13.1017 63.1571 13.7948 62.8174" stroke="#FFF200" stroke-width="1.6" stroke-linecap="round"/>
</svg>
