<svg width="81" height="41" viewBox="0 0 81 41" fill="none" xmlns="http://www.w3.org/2000/svg">
<path d="M29.9993 12.8303C24.9648 9.67217 20.2418 6.79682 16.5365 4.74177C12.5878 2.55163 9.05709 2.87165 6.18969 3.93061C5.12184 4.32498 4.41989 5.48183 3.72919 6.76188C3.01462 8.08617 3.30722 9.37844 3.48865 10.2593C4.12427 13.3452 9.02378 16.1561 11.1575 17.1043C11.4869 17.2506 11.8522 17.2933 11.7129 17.3134C10.9479 17.4241 9.84511 17.3424 9.00404 17.7798C7.39199 18.6181 7.20488 20.1891 6.92868 22.2029C6.82553 22.955 7.42502 23.7389 8.29189 24.5952C9.03171 25.3261 12.4609 25.9202 16.4684 26.7161C18.1526 27.0506 14.4017 29.236 13.4846 31.2074C12.7051 32.8831 13.1213 34.549 13.378 35.4043C13.6362 36.2647 14.558 36.9489 15.4986 37.4916C16.1918 37.7204 16.8938 37.8746 18.6421 38.1895C19.9777 38.3843 22.2235 38.6502 25.2005 38.7871" stroke="#C8E1FF" stroke-width="3.2" stroke-linecap="round"/>
<path d="M51.6828 9.52582C56.9882 6.8476 61.9572 4.42205 65.8368 2.71901C69.9715 0.904017 73.4573 1.54967 76.2143 2.86965C77.2411 3.36123 77.8329 4.57812 78.402 5.91664C78.9909 7.30142 78.5798 8.56103 78.3176 9.4213C77.3989 12.435 72.2601 14.7801 70.0477 15.5266C69.7062 15.6418 69.3386 15.6504 69.4754 15.6834C70.2268 15.8645 71.3324 15.8852 72.1294 16.3986C73.6569 17.3826 73.6977 18.9642 73.7862 20.9949C73.8192 21.7533 73.1497 22.4784 72.2072 23.2507C71.4029 23.9099 67.9334 24.1839 63.8695 24.6052C62.1615 24.7822 65.6939 27.3057 66.4244 29.3535C67.0454 31.0942 66.4767 32.7144 66.1419 33.5422C65.8051 34.3751 64.8239 34.971 63.837 35.4242C63.1256 35.5878 62.4123 35.6764 60.6424 35.8279C59.2945 35.8982 57.0338 35.955 54.0569 35.8155" stroke="#C8E1FF" stroke-width="3.2" stroke-linecap="round"/>
<path d="M22.9198 15.6144C21.6751 16.3257 20.856 17.0478 20.5421 17.8533C19.8469 19.6377 20.0477 21.1753 20.0006 25.8337C19.9739 28.4711 20.8506 30.0663 21.6589 31.7731C22.537 33.6274 24.1699 34.4687 25.8767 35.5033C27.4225 36.4402 29.0195 36.6241 40.7448 36.8544C44.2969 36.9242 46.0794 36.4516 48.6848 35.8683C50.7449 35.4071 52.1899 35.1045 54.344 34.1198C56.4283 33.1669 56.6839 30.5351 57.5824 27.8826C58.2202 26 58.2143 19.7097 57.9462 15.8893C57.8306 14.2422 56.0642 12.9256 54.181 11.6674C52.2071 10.3487 50.0507 9.95655 47.6259 9.5093C46.021 9.21329 37.2801 9.14828 31.5939 9.46081C29.7727 9.56091 28.4053 10.3122 26.0721 11.4788C24.4404 12.2946 23.464 13.9009 22.6531 15.3396C21.8818 16.708 21.6643 18.2117 21.706 25.2854C21.7234 28.2207 23.6311 29.3496 24.9351 30.4287C25.7677 31.1177 26.7779 31.4188 29.8952 31.8216C37.7634 32.8383 44.1935 32.3214 46.0323 31.8728C47.2487 31.602 48.1513 31.3326 49.136 30.9743C49.6762 30.7937 50.2986 30.6159 51.2092 30.4327" stroke="#D9D9D9" stroke-width="7.98" stroke-linecap="round"/>
<path d="M33.1263 9.37598C31.8903 9.62367 30.9838 9.78715 29.9719 9.91223C29.2121 10.0062 28.5886 10.4064 27.7216 10.7371C27.0108 11.0082 26.1958 11.2733 25.4503 11.5012C24.7519 11.7146 23.8031 12.6307 23.0966 13.3577C22.4741 13.9982 21.9404 14.7807 21.5274 15.3597C21.079 15.9882 21.1553 16.7622 20.8871 17.4236C20.084 19.4046 20.9051 23.2023 21.1534 23.8432C21.4285 24.5532 22.1411 25.3894 23.5833 26.6682C24.5335 27.5107 26.4274 27.7041 28.1811 27.5425C29.4487 27.4257 29.2041 25.4799 29.2047 23.4921C29.2052 21.8717 29.0419 19.0113 28.897 18.1097C28.5779 16.1247 28.3793 21.5093 28.3173 22.5775C28.2768 23.277 28.2963 24.2996 29.0319 23.232C29.7676 22.1645 31.2389 18.9766 32.2012 17.0892C33.1635 15.2018 33.5722 14.7113 33.9871 16.0935C34.402 17.4756 34.8107 20.7452 35.0212 22.7156C35.2317 24.686 35.2317 25.2582 35.2317 25.2873C35.2317 25.3164 35.2317 24.7851 35.5178 22.754C35.8039 20.7229 36.3761 17.2081 37.3656 17.5227C38.3552 17.8372 39.7447 22.0877 40.5014 24.359C41.2582 26.6304 41.3399 26.7939 41.4229 26.7555C41.5058 26.7171 41.5876 26.4719 42.0793 24.2816C42.5709 22.0914 43.4701 17.9636 44.7506 17.6558C46.0312 17.348 47.666 20.9854 48.8147 22.144C49.9634 23.3026 50.5764 21.8722 50.9535 21.0535C51.4146 20.0527 51.7839 19.4534 52.1753 18.8744C52.3027 18.686 52.5258 18.9494 52.6917 19.2794C53.9156 21.7135 53.8088 25.2644 53.7271 26.0694C53.69 26.435 51.1882 26.9561 46.9056 28.0484C44.7641 28.5946 42.623 28.8547 40.8742 29.0231C37.8271 29.3166 35.898 29.0689 34.9698 28.8219C34.6053 28.7248 34.4911 28.5748 34.3667 28.3073C34.063 27.6545 33.9115 26.5561 33.7877 24.564C33.4371 18.9256 33.9512 17.8447 34.3834 17.1802C35.2786 15.8041 37.0882 14.3311 37.3762 14.1249C37.6933 13.8978 39.5094 13.9583 42.1077 13.9992C44.6066 14.0385 45.838 14.2878 48.9664 14.6587C50.16 14.8002 50.7102 15.6055 51.3288 16.3696C51.5759 16.678 51.9437 17.1685 52.2149 17.4415C52.4862 17.7146 52.6496 17.7555 52.8181 17.7976" stroke="#D9D9D9" stroke-width="7.98" stroke-linecap="round"/>
<path d="M31.5576 24.7207V25.0808" stroke="#0D0D0D" stroke-width="2.5" stroke-linecap="round"/>
<path d="M37.0576 24.7207V24.9607" stroke="#0D0D0D" stroke-width="2.5" stroke-linecap="round"/>
<path d="M31.4521 30.2233C32.4891 30.3433 33.9245 30.1849 35.2681 30.0835C35.8471 30.0241 36.6872 29.9833 37.9036 29.9635C38.5655 29.9437 39.318 29.9041 40.0933 29.8633" stroke="#0D0D0D" stroke-width="2" stroke-linecap="round"/>
</svg>
