<svg width="47" height="43" viewBox="0 0 47 43" fill="none" xmlns="http://www.w3.org/2000/svg">
<path d="M8.98648 13.9983C8.30209 13.3385 7.56786 12.1804 6.8848 10.2245C6.58341 9.08675 6.37388 7.65424 6.26258 6.73297C6.15129 5.8117 6.1446 5.4451 6.1377 5.06738" stroke="#1A1A1A" stroke-width="2" stroke-linecap="round"/>
<path d="M6.41504 5.0625C7.26928 6.24987 7.70874 6.73359 8.56953 7.44345C9.04012 7.83152 9.40314 8.18621 9.96209 8.54458C11.0143 9.13842 12.4216 9.82672 13.6337 10.3292C14.1065 10.509 14.2904 10.5362 14.6667 10.6534" stroke="#1A1A1A" stroke-width="2" stroke-linecap="round"/>
<path d="M31.9977 12.2633C32.6386 11.5612 33.2975 10.3586 33.8546 8.36318C34.0828 7.20855 34.2006 5.76559 34.253 4.8391C34.3054 3.91262 34.2887 3.54633 34.2715 3.16895" stroke="#1A1A1A" stroke-width="2" stroke-linecap="round"/>
<path d="M33.9941 3.18164C33.2173 4.42104 32.8096 4.93178 31.9958 5.69505C31.5509 6.11233 31.2112 6.48944 30.6762 6.8827C29.664 7.54239 28.3035 8.31897 27.1258 8.89768C26.6654 9.10727 26.4836 9.14613 26.1156 9.28709" stroke="#1A1A1A" stroke-width="2" stroke-linecap="round"/>
<path d="M6.91003 17.6291C5.6653 18.3404 4.84626 19.0624 4.53238 19.868C3.83714 21.6523 4.03798 23.19 3.99083 27.8483C3.96414 30.4857 4.84087 32.081 5.64913 33.7877C6.52723 35.642 8.16017 36.4833 9.86696 37.5179C11.4127 38.4549 13.0098 38.6387 24.7351 38.8691C28.2871 38.9388 30.0697 38.4663 32.675 37.883C34.7352 37.4217 36.1802 37.1192 38.3342 36.1344C40.4186 35.1815 40.6742 32.5497 41.5727 29.8973C42.2104 28.0146 42.2045 21.7243 41.9364 17.9039C41.8208 16.2569 40.0545 14.9402 38.1712 13.682C36.1974 12.3633 34.041 11.9712 31.6162 11.524C30.0113 11.2279 21.2703 11.1629 15.5841 11.4755C13.7629 11.5756 12.3955 12.3268 10.0623 13.4934C8.43064 14.3093 7.45427 15.9156 6.64331 17.3543C5.87198 18.7226 5.65452 20.2263 5.69628 27.3C5.7136 30.2353 7.62131 31.3643 8.92532 32.4433C9.75796 33.1323 10.7682 33.4335 13.8854 33.8362C21.7536 34.8529 28.1837 34.336 30.0225 33.8874C31.239 33.6167 32.1415 33.3472 33.1263 32.9889C33.6665 32.8084 34.2888 32.6306 35.1995 32.4474" stroke="#D9D9D9" stroke-width="7.98" stroke-linecap="round"/>
<path d="M17.1166 11.3906C15.8806 11.6383 14.974 11.8018 13.9622 11.9269C13.2023 12.0208 12.5788 12.421 11.7119 12.7517C11.001 13.0228 10.1861 13.288 9.44052 13.5158C8.74218 13.7293 7.79334 14.6453 7.0868 15.3723C6.46429 16.0128 5.93068 16.7953 5.51765 17.3743C5.06926 18.0029 5.14549 18.7769 4.87736 19.4382C4.0742 21.4192 4.89532 25.2169 5.14363 25.8579C5.41872 26.5679 6.13132 27.4041 7.57351 28.6828C8.52372 29.5253 10.4177 29.7188 12.1714 29.5572C13.439 29.4403 13.1943 27.4945 13.1949 25.5067C13.1955 23.8863 13.0321 21.0259 12.8872 20.1243C12.5682 18.1394 12.3695 23.5239 12.3076 24.5921C12.267 25.2916 12.2865 26.3142 13.0222 25.2467C13.7578 24.1791 15.2291 20.9913 16.1914 19.1038C17.1537 17.2164 17.5624 16.726 17.9773 18.1081C18.3922 19.4902 18.8009 22.7598 19.0114 24.7302C19.222 26.7006 19.222 27.2728 19.222 27.3019C19.222 27.331 19.222 26.7997 19.5081 24.7686C19.7941 22.7375 20.3663 19.2227 21.3559 19.5373C22.3454 19.8519 23.735 24.1023 24.4917 26.3737C25.2484 28.645 25.3301 28.8085 25.4131 28.7701C25.4961 28.7317 25.5778 28.4865 26.0695 26.2963C26.5612 24.106 27.4603 19.9782 28.7409 19.6704C30.0215 19.3627 31.6562 23.0001 32.8049 24.1587C33.9536 25.3173 34.5667 23.8868 34.9438 23.0682C35.4048 22.0673 35.7742 21.4681 36.1655 20.8891C36.2929 20.7007 36.516 20.964 36.682 21.2941C37.9058 23.7281 37.7991 27.279 37.7173 28.084C37.6802 28.4496 35.1785 28.9708 30.8958 30.0631C28.7544 30.6093 26.6132 30.8693 24.8645 31.0378C21.8174 31.3313 19.8883 31.0836 18.96 30.8365C18.5955 30.7395 18.4814 30.5894 18.3569 30.3219C18.0532 29.6692 17.9018 28.5707 17.7779 26.5786C17.4274 20.9402 17.9414 19.8593 18.3736 19.1949C19.2688 17.8188 21.0784 16.3458 21.3664 16.1396C21.6835 15.9124 23.4997 15.973 26.098 16.0138C28.5968 16.0532 29.8283 16.3024 32.9566 16.6733C34.1502 16.8149 34.7004 17.6201 35.319 18.3843C35.5661 18.6927 35.9339 19.1831 36.2052 19.4562C36.4764 19.7293 36.6399 19.7701 36.8083 19.8122" stroke="#D9D9D9" stroke-width="7.98" stroke-linecap="round"/>
<path d="M15.5479 26.7354V27.0954" stroke="#0D0D0D" stroke-width="2.5" stroke-linecap="round"/>
<path d="M21.0479 26.7354V26.9754" stroke="#0D0D0D" stroke-width="2.5" stroke-linecap="round"/>
<path d="M15.4424 32.238C16.4793 32.358 17.9147 32.1996 19.2583 32.0982C19.8374 32.0387 20.6775 31.9979 21.8938 31.9781C22.5557 31.9583 23.3082 31.9187 24.0835 31.8779" stroke="#0D0D0D" stroke-width="2" stroke-linecap="round"/>
</svg>
