<svg width="47" height="50" viewBox="0 0 47 50" fill="none" xmlns="http://www.w3.org/2000/svg">
<path d="M6.91003 23.9289C5.6653 24.6402 4.84626 25.3622 4.53238 26.1678C3.83714 27.9521 4.03798 29.4898 3.99083 34.1481C3.96414 36.7855 4.84087 38.3808 5.64913 40.0876C6.52723 41.9418 8.16017 42.7831 9.86696 43.8177C11.4127 44.7547 13.0098 44.9385 24.7351 45.1689C28.2871 45.2387 30.0697 44.7661 32.675 44.1828C34.7352 43.7215 36.1802 43.419 38.3342 42.4342C40.4186 41.4813 40.6742 38.8496 41.5727 36.1971C42.2104 34.3145 42.2045 28.0241 41.9364 24.2037C41.8208 22.5567 40.0545 21.24 38.1712 19.9818C36.1974 18.6631 34.041 18.271 31.6162 17.8238C30.0113 17.5277 21.2703 17.4627 15.5841 17.7753C13.7629 17.8754 12.3955 18.6266 10.0623 19.7932C8.43064 20.6091 7.45427 22.2154 6.64331 23.6541C5.87198 25.0225 5.65452 26.5261 5.69628 33.5998C5.7136 36.5351 7.62131 37.6641 8.92532 38.7431C9.75796 39.4321 10.7682 39.7333 13.8854 40.136C21.7536 41.1527 28.1837 40.6358 30.0225 40.1872C31.239 39.9165 32.1415 39.647 33.1263 39.2887C33.6665 39.1082 34.2888 38.9304 35.1995 38.7472" stroke="#D9D9D9" stroke-width="7.98" stroke-linecap="round"/>
<path d="M17.1166 17.6904C15.8806 17.9381 14.974 18.1016 13.9622 18.2267C13.2023 18.3206 12.5788 18.7208 11.7119 19.0515C11.001 19.3226 10.1861 19.5878 9.44052 19.8156C8.74218 20.0291 7.79334 20.9451 7.0868 21.6721C6.46429 22.3126 5.93068 23.0951 5.51765 23.6741C5.06926 24.3027 5.14549 25.0767 4.87736 25.738C4.0742 27.719 4.89532 31.5168 5.14363 32.1577C5.41872 32.8677 6.13132 33.7039 7.57351 34.9826C8.52372 35.8251 10.4177 36.0186 12.1714 35.857C13.439 35.7402 13.1943 33.7943 13.1949 31.8065C13.1955 30.1861 13.0321 27.3257 12.8872 26.4241C12.5682 24.4392 12.3695 29.8238 12.3076 30.8919C12.267 31.5914 12.2865 32.614 13.0222 31.5465C13.7578 30.4789 15.2291 27.2911 16.1914 25.4036C17.1537 23.5162 17.5624 23.0258 17.9773 24.4079C18.3922 25.79 18.8009 29.0596 19.0114 31.03C19.222 33.0004 19.222 33.5726 19.222 33.6017C19.222 33.6308 19.222 33.0995 19.5081 31.0684C19.7941 29.0373 20.3663 25.5225 21.3559 25.8371C22.3454 26.1517 23.735 30.4021 24.4917 32.6735C25.2484 34.9448 25.3301 35.1083 25.4131 35.0699C25.4961 35.0315 25.5778 34.7863 26.0695 32.5961C26.5612 30.4058 27.4603 26.278 28.7409 25.9702C30.0215 25.6625 31.6562 29.2999 32.8049 30.4585C33.9536 31.6171 34.5667 30.1866 34.9438 29.368C35.4048 28.3671 35.7742 27.7679 36.1655 27.1889C36.2929 27.0005 36.516 27.2638 36.682 27.5939C37.9058 30.0279 37.7991 33.5788 37.7173 34.3838C37.6802 34.7494 35.1785 35.2706 30.8958 36.3629C28.7544 36.9091 26.6132 37.1691 24.8645 37.3376C21.8174 37.6311 19.8883 37.3834 18.96 37.1363C18.5955 37.0393 18.4814 36.8892 18.3569 36.6217C18.0532 35.969 17.9018 34.8705 17.7779 32.8785C17.4274 27.24 17.9414 26.1591 18.3736 25.4947C19.2688 24.1186 21.0784 22.6456 21.3664 22.4394C21.6835 22.2122 23.4997 22.2728 26.098 22.3137C28.5968 22.353 29.8283 22.6022 32.9566 22.9731C34.1502 23.1147 34.7004 23.92 35.319 24.6841C35.5661 24.9925 35.9339 25.4829 36.2052 25.756C36.4764 26.0291 36.6399 26.0699 36.8083 26.112" stroke="#D9D9D9" stroke-width="7.98" stroke-linecap="round"/>
<path d="M15.5479 33.0352V33.3952" stroke="#0D0D0D" stroke-width="2.5" stroke-linecap="round"/>
<path d="M21.0479 33.0352V33.2752" stroke="#0D0D0D" stroke-width="2.5" stroke-linecap="round"/>
<path d="M15.4424 38.5378C16.4793 38.6578 17.9147 38.4994 19.2583 38.398C19.8374 38.3385 20.6775 38.2977 21.8938 38.2779C22.5557 38.2581 23.3082 38.2185 24.0835 38.1777" stroke="#0D0D0D" stroke-width="2" stroke-linecap="round"/>
<path d="M20.5861 1.91184C19.278 2.03061 17.7068 2.21966 16.1647 2.46475C15.1361 2.62825 14.682 2.80685 14.2659 2.97335C13.3545 3.33798 12.6593 3.76878 12.1186 4.03492C10.5417 4.81113 10.4738 5.39805 10.2568 5.78524C9.83594 6.53611 10.1778 7.6489 10.4857 8.00071C10.8501 8.41699 12.5098 8.79958 14.6666 9.35964C15.6621 9.61814 16.4888 9.7461 17.6112 9.84677C18.7335 9.94745 20.1346 9.99694 21.0259 10.0077C22.257 10.0226 22.9215 9.89189 24.2725 9.68985C25.3029 9.53575 27.0529 9.35326 28.1583 9.20789C29.6837 9.0073 30.5413 8.70022 31.3175 8.33577C32.4479 7.80499 32.8758 7.0916 33.2563 5.89073C33.4063 5.41721 33.2884 5.06716 33.1849 4.79487C33.0019 4.31345 32.1223 3.86732 30.5417 3.27272C29.7075 2.95891 28.1448 2.71937 26.7852 2.48166C25.4257 2.24395 24.2682 2.10752 23.5149 2.03376C22.4475 1.95305 22.0276 1.92529 21.6884 1.8898C21.4455 1.87491 21.0589 1.86635 20.5886 1.79998" stroke="#FFDE09" stroke-width="3.6" stroke-linecap="round"/>
</svg>
