<svg width="47" height="46" viewBox="0 0 47 46" fill="none" xmlns="http://www.w3.org/2000/svg">
<path d="M7.48425 19.9016C6.23952 20.6128 5.42047 21.3349 5.1066 22.1405C4.41136 23.9248 4.6122 25.4624 4.56505 30.1208C4.53835 32.7582 5.41509 34.3534 6.22335 36.0602C7.10145 37.9145 8.73438 38.7558 10.4412 39.7904C11.987 40.7273 13.584 40.9112 25.3093 41.1415C28.8614 41.2113 30.6439 40.7387 33.2492 40.1554C35.3094 39.6942 36.7544 39.3916 38.9084 38.4069C40.9928 37.454 41.2484 34.8222 42.1469 32.1697C42.7846 30.2871 42.7787 23.9968 42.5106 20.1764C42.395 18.5293 40.6287 17.2127 38.7454 15.9545C36.7716 14.6358 34.6152 14.2437 32.1904 13.7964C30.5855 13.5004 21.8445 13.4354 16.1583 13.7479C14.3371 13.848 12.9697 14.5993 10.6365 15.7659C9.00486 16.5817 8.02849 18.188 7.21752 19.6267C6.4462 20.9951 6.22874 22.4988 6.2705 29.5725C6.28782 32.5078 8.19553 33.6367 9.49954 34.7158C10.3322 35.4048 11.3424 35.7059 14.4596 36.1087C22.3278 37.1254 28.7579 36.6085 30.5967 36.1599C31.8132 35.8891 32.7157 35.6197 33.7005 35.2614C34.2407 35.0808 34.863 34.903 35.7737 34.7198" stroke="#D9D9D9" stroke-width="7.98" stroke-linecap="round"/>
<path d="M17.6908 13.6631C16.4548 13.9108 15.5482 14.0743 14.5364 14.1993C13.7765 14.2933 13.153 14.6935 12.2861 15.0242C11.5752 15.2953 10.7603 15.5604 10.0147 15.7883C9.3164 16.0018 8.36756 16.9178 7.66102 17.6448C7.03851 18.2853 6.5049 19.0678 6.09187 19.6468C5.64348 20.2753 5.71971 21.0493 5.45158 21.7107C4.64842 23.6917 5.46953 27.4894 5.71785 28.1303C5.99294 28.8403 6.70554 29.6765 8.14773 30.9553C9.09793 31.7978 10.9919 31.9913 12.7456 31.8296C14.0132 31.7128 13.7686 29.767 13.7692 27.7792C13.7697 26.1588 13.6063 23.2984 13.4614 22.3968C13.1424 20.4118 12.9437 25.7964 12.8818 26.8646C12.8412 27.5641 12.8607 28.5867 13.5964 27.5191C14.332 26.4516 15.8034 23.2637 16.7656 21.3763C17.7279 19.4889 18.1366 18.9984 18.5515 20.3806C18.9664 21.7627 19.3751 25.0323 19.5857 27.0027C19.7962 28.9731 19.7962 29.5453 19.7962 29.5744C19.7962 29.6035 19.7962 29.0722 20.0823 27.0411C20.3684 25.01 20.9405 21.4952 21.9301 21.8098C22.9196 22.1243 24.3092 26.3748 25.0659 28.6461C25.8226 30.9175 25.9043 31.081 25.9873 31.0426C26.0703 31.0042 26.152 30.759 26.6437 28.5687C27.1354 26.3785 28.0345 22.2507 29.3151 21.9429C30.5957 21.6351 32.2305 25.2725 33.3792 26.4311C34.5278 27.5897 35.1409 26.1593 35.518 25.3406C35.9791 24.3398 36.3484 23.7405 36.7398 23.1616C36.8671 22.9731 37.0902 23.2365 37.2562 23.5665C38.4801 26.0006 38.3733 29.5515 38.2916 30.3565C38.2544 30.7221 35.7527 31.2432 31.47 32.3355C29.3286 32.8818 27.1874 33.1418 25.4387 33.3102C22.3916 33.6037 20.4625 33.3561 19.5343 33.109C19.1698 33.012 19.0556 32.8619 18.9311 32.5944C18.6274 31.9417 18.476 30.8432 18.3521 28.8511C18.0016 23.2127 18.5156 22.1318 18.9478 21.4673C19.843 20.0912 21.6527 18.6182 21.9406 18.412C22.2578 18.1849 24.0739 18.2454 26.6722 18.2863C29.171 18.3256 30.4025 18.5749 33.5309 18.9458C34.7245 19.0873 35.2746 19.8926 35.8933 20.6567C36.1403 20.9651 36.5082 21.4556 36.7794 21.7286C37.0506 22.0017 37.2141 22.0426 37.3825 22.0847" stroke="#D9D9D9" stroke-width="7.98" stroke-linecap="round"/>
<path d="M16.1221 29.0078V29.3679" stroke="#0D0D0D" stroke-width="2.5" stroke-linecap="round"/>
<path d="M21.6221 29.0078V29.2478" stroke="#0D0D0D" stroke-width="2.5" stroke-linecap="round"/>
<path d="M16.0166 34.5104C17.0535 34.6304 18.4889 34.472 19.8325 34.3706C20.4116 34.3112 21.2517 34.2704 22.4681 34.2506C23.1299 34.2308 23.8824 34.1912 24.6577 34.1504" stroke="#0D0D0D" stroke-width="2" stroke-linecap="round"/>
<path d="M9.83894 16.4965C9.92829 13.492 10.2706 11.3875 10.4865 10.2762C10.6242 9.56744 11.2368 8.32314 12.3428 6.67226C14.6032 3.29808 17.3638 2.67999 18.3763 2.48689C20.1016 2.15787 22.8342 1.939 23.8788 2.01366C25.1626 2.10541 26.0582 2.15168 26.9473 2.17077C28.3157 2.20016 29.5975 2.96489 30.4403 3.43283C31.3758 3.95225 32.2755 4.81453 32.9142 5.65019C33.5036 6.42141 34.0209 7.11866 34.3558 7.86743C34.6851 8.60386 34.9757 10.6339 35.0605 13.2299C35.0922 14.198 34.5443 14.4354 34.2159 14.5986C33.2303 15.0883 32.3104 15.1427 31.315 15.4563C29.2643 16.1022 26.7835 16.2327 23.7881 16.7561C21.6635 17.1274 17.662 17.4986 15.4371 17.7348C12.0938 18.0898 10.7164 18.0671 9.39772 18.147C8.50861 18.2009 7.51812 18.0491 6.33493 18.0387C5.17185 18.0284 4.07363 17.6173 3.16017 17.4026C2.74615 17.3053 2.34024 17.1297 2.09567 16.9378C1.49926 16.4696 3.88695 15.7209 4.81374 15.1925C5.61261 14.7371 6.60247 14.5145 7.48083 14.2405C7.69211 14.142 7.87301 14.0234 8.13433 13.9426C8.39564 13.8618 8.7319 13.8225 9.07834 13.7819" stroke="#37A2FF" stroke-width="4" stroke-linecap="round"/>
<path d="M16.3776 5.54868C14.332 8.19056 13.1011 10.3061 12.4976 12.2907C12.1834 13.3241 12.1608 14.0581 12.2777 14.023C13.245 13.7326 13.4704 11.8462 14.2232 10.7273C15.9251 8.19803 18.4473 4.82525 19.4613 3.76211C19.6505 3.56372 19.4178 5.4258 18.6627 7.77339C17.425 11.6216 14.4798 13.636 13.5674 14.2873C13.2126 14.5406 12.6067 14.8912 12.3715 15.0191C12.1878 15.119 13.3178 14.4243 14.8418 13.193C16.3658 11.9616 18.6187 9.99344 20.0338 8.65755C21.4489 7.32167 21.9578 6.67772 22.2836 6.2655C22.7367 5.69229 21.2561 7.56559 18.3493 11.0506C15.2643 14.7491 14.0442 15.4105 13.4942 16.1884C13.245 16.5407 15.7386 14.2042 19.8125 10.3583C21.7809 8.49999 22.4721 7.64158 23.1401 6.82553C23.3056 6.62342 23.41 6.40142 23.4317 6.15244C23.4535 5.90347 23.3717 5.62087 23.1049 5.42856C22.8382 5.23624 22.389 5.14276 22.2749 5.05652C21.3349 4.34629 25.9605 4.7186 27.5736 4.80267C28.5795 4.8551 29.7838 5.00864 31.0987 5.49434C32.3487 5.95611 32.7559 7.65608 33.1209 8.87055C33.5791 10.395 32.9495 11.3756 32.3869 12.2294C31.9675 12.866 30.6571 13.1713 28.2 13.7047C23.9087 14.6364 20.752 14.7268 20.0411 14.7362C18.8891 14.7516 17.6681 14.8415 17.122 14.6133C16.1482 14.2064 18.7057 12.4623 19.8804 11.3921C22.9659 8.58124 25.9225 6.00683 26.2699 5.62232C26.4348 5.43986 26.6287 5.33388 26.6708 5.66834C26.9965 8.25491 24.7398 10.5117 24.2624 11.3364C23.0383 13.4508 27.7314 8.00841 27.9437 7.9319C29.3697 7.41815 27.29 10.9051 27.139 11.7639C26.852 13.3959 29.151 9.21891 29.6166 8.79696C29.8744 8.56331 30.1133 8.22527 30.3612 8.84919C30.6092 9.47312 30.8429 11.0527 29.6338 11.9491C24.0819 16.0651 22.1389 13.1374 21.5793 13.1786C21.3085 13.1985 21.0621 13.1661 21.3608 12.8382C21.6596 12.5103 22.5104 11.8751 23.0688 11.5337C23.6272 11.1924 23.8674 11.1643 24.1149 11.1353" stroke="#37A2FF" stroke-width="4" stroke-linecap="round"/>
<path d="M20.2939 3.91699L20.3245 4.17759" stroke="white" stroke-width="2" stroke-linecap="round"/>
<path d="M29.375 5.8916L29.5053 5.87634" stroke="white" stroke-width="2" stroke-linecap="round"/>
<path d="M24.0312 8.7627L24.0618 9.02329" stroke="white" stroke-width="2" stroke-linecap="round"/>
<path d="M13.5547 8.4043L13.685 8.38904" stroke="white" stroke-width="2" stroke-linecap="round"/>
<path d="M3.8291 16.4648L4.16038 16.426" stroke="white" stroke-width="2" stroke-linecap="round"/>
<path d="M10.6865 17.6768L10.7124 17.8976" stroke="white" stroke-width="2" stroke-linecap="round"/>
<path d="M22.3848 17.2029L22.2873 17.3262" stroke="white" stroke-width="2" stroke-linecap="round"/>
<path d="M16.5068 16.3057L16.574 16.2978" stroke="white" stroke-width="2" stroke-linecap="round"/>
<path d="M31.7109 14.5078L31.7267 14.6422" stroke="white" stroke-width="2" stroke-linecap="round"/>
<path d="M8.41797 12.2119C8.97696 12.4557 10.649 13.1448 12.2289 13.4969C13.2866 13.7326 14.551 13.802 15.5093 13.8024C16.2469 13.8027 16.9561 13.8322 18.0712 13.8795C18.6931 13.9059 19.1902 13.9264 21.0444 13.7759C22.7235 13.6396 25.8872 13.2314 27.6247 13.0059C30.0233 12.6947 31.3888 12.3206 32.4318 12.0658C33.3763 11.7773 34.1535 11.5969 34.8402 11.3839C35.0112 11.3192 35.1797 11.2555 35.7169 10.8808" stroke="#078BFF" stroke-width="4" stroke-linecap="round"/>
</svg>
