<svg width="47" height="44" viewBox="0 0 47 44" fill="none" xmlns="http://www.w3.org/2000/svg">
<path d="M7.76745 18.0617C6.52272 18.773 5.70368 19.495 5.3898 20.3006C4.69457 22.085 4.8954 23.6226 4.84825 28.2809C4.82156 30.9183 5.69829 32.5136 6.50655 34.2204C7.38465 36.0746 9.01759 36.916 10.7244 37.9505C12.2702 38.8875 13.8672 39.0713 25.5925 39.3017C29.1446 39.3715 30.9271 38.8989 33.5324 38.3156C35.5926 37.8544 37.0376 37.5518 39.1916 36.567C41.276 35.6141 41.5316 32.9824 42.4301 30.3299C43.0678 28.4473 43.0619 22.1569 42.7938 18.3365C42.6782 16.6895 40.9119 15.3729 39.0286 14.1147C37.0548 12.7959 34.8984 12.4038 32.4736 11.9566C30.8687 11.6606 22.1277 11.5955 16.4415 11.9081C14.6203 12.0082 13.2529 12.7595 10.9197 13.9261C9.28807 14.7419 8.3117 16.3482 7.50073 17.7869C6.72941 19.1553 6.51194 20.659 6.5537 27.7327C6.57103 30.6679 8.47873 31.7969 9.78274 32.8759C10.6154 33.5649 11.6256 33.8661 14.7428 34.2689C22.611 35.2855 29.0411 34.7686 30.8799 34.3201C32.0964 34.0493 32.9989 33.7799 33.9837 33.4215C34.5239 33.241 35.1462 33.0632 36.0569 32.88" stroke="#D9D9D9" stroke-width="7.98" stroke-linecap="round"/>
<path d="M17.974 11.8232C16.738 12.0709 15.8314 12.2344 14.8196 12.3595C14.0597 12.4534 13.4362 12.8537 12.5693 13.1843C11.8584 13.4555 11.0435 13.7206 10.2979 13.9485C9.5996 14.1619 8.65076 15.0779 7.94422 15.8049C7.32171 16.4454 6.7881 17.2279 6.37507 17.8069C5.92668 18.4355 6.00291 19.2095 5.73478 19.8708C4.93162 21.8518 5.75274 25.6496 6.00106 26.2905C6.27614 27.0005 6.98874 27.8367 8.43094 29.1154C9.38114 29.9579 11.2751 30.1514 13.0288 29.9898C14.2964 29.873 14.0518 27.9271 14.0524 25.9394C14.0529 24.3189 13.8895 21.4586 13.7446 20.557C13.4256 18.572 13.2269 23.9566 13.165 25.0247C13.1245 25.7242 13.1439 26.7468 13.8796 25.6793C14.6153 24.6117 16.0866 21.4239 17.0489 19.5365C18.0111 17.649 18.4198 17.1586 18.8347 18.5407C19.2496 19.9229 19.6583 23.1924 19.8689 25.1628C20.0794 27.1333 20.0794 27.7054 20.0794 27.7345C20.0794 27.7636 20.0794 27.2323 20.3655 25.2012C20.6516 23.1701 21.2237 19.6553 22.2133 19.9699C23.2028 20.2845 24.5924 24.5349 25.3491 26.8063C26.1058 29.0777 26.1875 29.2411 26.2705 29.2027C26.3535 29.1643 26.4352 28.9191 26.9269 26.7289C27.4186 24.5386 28.3177 20.4108 29.5983 20.1031C30.8789 19.7953 32.5137 23.4327 33.6624 24.5913C34.811 25.7499 35.4241 24.3194 35.8012 23.5008C36.2623 22.5 36.6316 21.9007 37.023 21.3217C37.1503 21.1333 37.3734 21.3966 37.5394 21.7267C38.7633 24.1608 38.6565 27.7116 38.5748 28.5166C38.5376 28.8822 36.0359 29.4034 31.7533 30.4957C29.6118 31.0419 27.4706 31.302 25.7219 31.4704C22.6748 31.7639 20.7457 31.5162 19.8175 31.2691C19.453 31.1721 19.3388 31.0221 19.2143 30.7545C18.9106 30.1018 18.7592 29.0033 18.6353 27.0113C18.2848 21.3728 18.7988 20.2919 19.231 19.6275C20.1262 18.2514 21.9359 16.7784 22.2238 16.5722C22.541 16.3451 24.3571 16.4056 26.9554 16.4465C29.4542 16.4858 30.6857 16.735 33.8141 17.1059C35.0077 17.2475 35.5578 18.0528 36.1765 18.8169C36.4235 19.1253 36.7914 19.6157 37.0626 19.8888C37.3338 20.1619 37.4973 20.2028 37.6657 20.2449" stroke="#D9D9D9" stroke-width="7.98" stroke-linecap="round"/>
<path d="M16.4053 27.168V27.528" stroke="#0D0D0D" stroke-width="2.5" stroke-linecap="round"/>
<path d="M21.9053 27.168V27.408" stroke="#0D0D0D" stroke-width="2.5" stroke-linecap="round"/>
<path d="M16.2998 32.6706C17.3367 32.7906 18.7721 32.6322 20.1157 32.5308C20.6948 32.4714 21.5349 32.4306 22.7513 32.4108C23.4132 32.391 24.1657 32.3513 24.941 32.3105" stroke="#0D0D0D" stroke-width="2" stroke-linecap="round"/>
<path d="M9.84335 16.1838C10.002 13.1822 10.3927 11.0861 10.6342 9.98008C10.7882 9.27469 11.4294 8.04485 12.5731 6.41992C14.9107 3.09877 17.6849 2.54453 18.7016 2.37484C20.434 2.08569 23.1709 1.92991 24.2135 2.02865C25.4949 2.14999 26.3892 2.2169 27.2776 2.25649C28.6449 2.31743 29.9088 3.11153 30.7406 3.59878C31.6639 4.13965 32.5434 5.02244 33.1626 5.87261C33.7341 6.65723 34.2352 7.36622 34.5527 8.12251C34.865 8.86634 35.1086 10.9026 35.1336 13.4998C35.1429 14.4684 34.5897 14.6931 34.2576 14.8487C33.261 15.3155 32.3401 15.3487 31.3377 15.6392C29.2727 16.2377 26.7895 16.3109 23.7828 16.7651C21.6502 17.0872 17.6412 17.3661 15.4115 17.5509C12.0608 17.8287 10.6844 17.7742 9.36418 17.8237C8.47406 17.857 7.48734 17.6825 6.3047 17.6447C5.14217 17.6076 4.05373 17.1713 3.14546 16.9356C2.73379 16.8288 2.33204 16.6439 2.09197 16.4463C1.50651 15.9646 3.91084 15.2711 4.84957 14.7643C5.65873 14.3274 6.65346 14.1277 7.53791 13.874C7.75141 13.7804 7.93499 13.666 8.1981 13.5913C8.46121 13.5166 8.79828 13.4849 9.14557 13.4524" stroke="#F15659" stroke-width="4" stroke-linecap="round"/>
<path d="M16.6326 5.38992C14.5266 7.98391 13.2473 10.0705 12.5981 12.0406C12.2601 13.0665 12.2207 13.7998 12.3383 13.7674C13.3121 13.4994 13.5809 11.6187 14.3594 10.5175C16.1191 8.02812 18.7184 4.71442 19.7566 3.67495C19.9504 3.48097 19.6748 5.33719 18.8658 7.66674C17.5397 11.4854 14.5487 13.4313 13.6216 14.0614C13.2611 14.3064 12.6472 14.643 12.4091 14.7654C12.2232 14.8611 13.3689 14.1926 14.9209 12.9967C16.4729 11.8009 18.7706 9.88518 20.2161 8.58229C21.6617 7.2794 22.1853 6.64737 22.5205 6.24277C22.9866 5.68016 21.4633 7.51881 18.4769 10.9358C15.3074 14.5622 14.0724 15.1953 13.5045 15.9603C13.2473 16.3067 15.7941 14.0284 19.9556 10.2775C21.9664 8.46507 22.6772 7.62283 23.3639 6.8224C23.534 6.62416 23.6434 6.40463 23.6709 6.15622C23.6984 5.90781 23.6231 5.62341 23.3609 5.42499C23.0987 5.22657 22.6517 5.12276 22.5396 5.03391C21.6163 4.30219 26.2321 4.78108 27.8428 4.90234C28.8473 4.97796 30.0477 5.15924 31.351 5.67514C32.5901 6.16561 32.9579 7.87453 33.2948 9.0971C33.7178 10.6317 33.0657 11.5975 32.4836 12.4382C32.0496 13.0649 30.7325 13.3399 28.2637 13.8165C23.9521 14.6489 20.7941 14.6665 20.0832 14.6595C18.9312 14.6483 17.7084 14.71 17.1677 14.4693C16.2036 14.04 18.8006 12.3554 19.9997 11.3126C23.1492 8.57362 26.1643 6.0681 26.5206 5.69171C26.6897 5.5131 26.8859 5.41162 26.9203 5.74696C27.1863 8.34035 24.8781 10.5445 24.3818 11.358C23.1093 13.4436 27.9266 8.11087 28.1407 8.03927C29.5781 7.55855 27.4185 10.9966 27.2477 11.8517C26.9232 13.4767 29.3179 9.35379 29.7931 8.94269C30.0562 8.71505 30.3029 8.38261 30.5364 9.01209C30.7699 9.64156 30.967 11.2261 29.7376 12.0944C24.0922 16.0813 22.2173 13.1095 21.6569 13.1378C21.3857 13.1515 21.1401 13.1134 21.4464 12.7925C21.7526 12.4716 22.6179 11.8561 23.184 11.5277C23.7501 11.1993 23.9909 11.1768 24.2389 11.1535" stroke="#F15659" stroke-width="4" stroke-linecap="round"/>
<path d="M8.52148 11.8682C9.0747 12.1247 10.7304 12.8523 12.3017 13.2407C13.3537 13.5007 14.6162 13.5993 15.5742 13.6218C16.3117 13.6391 17.02 13.685 18.1337 13.758C18.7548 13.7987 19.2513 13.8307 21.1085 13.723C22.7903 13.6254 25.9626 13.2903 27.7048 13.105C30.1099 12.8491 31.4837 12.5066 32.5323 12.276C33.4832 12.0093 34.2643 11.847 34.9558 11.6498C35.1283 11.5891 35.2982 11.5293 35.8439 11.167" stroke="#D93033" stroke-width="4" stroke-linecap="round"/>
<path d="M8.96191 10.001C9.35692 10.1037 10.2294 10.3755 10.8128 10.5674C11.4269 10.7696 12.0726 10.8378 12.6569 10.854C13.3646 10.8735 14.0605 10.969 14.6871 11.0516C15.4432 11.1512 16.2247 11.0837 16.8486 11.149C17.7418 11.2426 18.5902 11.1096 19.4406 11.1351C20.3306 11.1619 21.7976 11.1264 22.775 11.1226C23.6036 11.1194 24.1682 11.1158 24.8077 11.1611C25.0209 11.1763 25.3012 11.1853 26.6751 11.0744C28.049 10.9636 30.5079 10.7329 31.8596 10.5887C33.7393 10.3881 34.6946 10.1285 35.5092 9.92933C35.7948 9.77974 36.0661 9.64736 36.3371 9.53407C36.4728 9.4684 36.6048 9.38614 36.731 9.19644" stroke="#FFF06C" stroke-linecap="round"/>
</svg>
