<svg width="47" height="44" viewBox="0 0 47 44" fill="none" xmlns="http://www.w3.org/2000/svg">
<path d="M6.91003 18.3605C5.6653 19.0718 4.84626 19.7939 4.53238 20.5994C3.83714 22.3838 4.03798 23.9214 3.99083 28.5798C3.96414 31.2172 4.84087 32.8124 5.64913 34.5192C6.52723 36.3735 8.16017 37.2148 9.86696 38.2494C11.4127 39.1863 13.0098 39.3702 24.7351 39.6005C28.2871 39.6703 30.0697 39.1977 32.675 38.6144C34.7352 38.1532 36.1802 37.8506 38.3342 36.8659C40.4186 35.913 40.6742 33.2812 41.5727 30.6287C42.2104 28.7461 42.2045 22.4558 41.9364 18.6354C41.8208 16.9883 40.0545 15.6717 38.1712 14.4135C36.1974 13.0948 34.041 12.7026 31.6162 12.2554C30.0113 11.9594 21.2703 11.8944 15.5841 12.2069C13.7629 12.307 12.3955 13.0583 10.0623 14.2249C8.43064 15.0407 7.45427 16.647 6.64331 18.0857C5.87198 19.4541 5.65452 20.9578 5.69628 28.0315C5.7136 30.9668 7.62131 32.0957 8.92532 33.1748C9.75796 33.8638 10.7682 34.1649 13.8854 34.5677C21.7536 35.5844 28.1837 35.0675 30.0225 34.6189C31.239 34.3481 32.1415 34.0787 33.1263 33.7203C33.6665 33.5398 34.2888 33.362 35.1995 33.1788" stroke="#D9D9D9" stroke-width="7.98" stroke-linecap="round"/>
<path d="M17.1166 12.1221C15.8806 12.3698 14.974 12.5332 13.9622 12.6583C13.2023 12.7523 12.5788 13.1525 11.7119 13.4832C11.001 13.7543 10.1861 14.0194 9.44052 14.2473C8.74218 14.4607 7.79334 15.3768 7.0868 16.1038C6.46429 16.7443 5.93068 17.5268 5.51765 18.1058C5.06926 18.7343 5.14549 19.5083 4.87736 20.1697C4.0742 22.1507 4.89532 25.9484 5.14363 26.5893C5.41872 27.2993 6.13132 28.1355 7.57351 29.4143C8.52372 30.2568 10.4177 30.4502 12.1714 30.2886C13.439 30.1718 13.1943 28.2259 13.1949 26.2382C13.1955 24.6178 13.0321 21.7574 12.8872 20.8558C12.5682 18.8708 12.3695 24.2554 12.3076 25.3236C12.267 26.0231 12.2865 27.0457 13.0222 25.9781C13.7578 24.9105 15.2291 21.7227 16.1914 19.8353C17.1537 17.9478 17.5624 17.4574 17.9773 18.8395C18.3922 20.2217 18.8009 23.4913 19.0114 25.4617C19.222 27.4321 19.222 28.0043 19.222 28.0334C19.222 28.0625 19.222 27.5312 19.5081 25.5001C19.7941 23.469 20.3663 19.9542 21.3559 20.2687C22.3454 20.5833 23.735 24.8338 24.4917 27.1051C25.2484 29.3765 25.3301 29.54 25.4131 29.5016C25.4961 29.4632 25.5778 29.218 26.0695 27.0277C26.5612 24.8375 27.4603 20.7096 28.7409 20.4019C30.0215 20.0941 31.6562 23.7315 32.8049 24.8901C33.9536 26.0487 34.5667 24.6183 34.9438 23.7996C35.4048 22.7988 35.7742 22.1995 36.1655 21.6205C36.2929 21.4321 36.516 21.6955 36.682 22.0255C37.9058 24.4596 37.7991 28.0104 37.7173 28.8155C37.6802 29.1811 35.1785 29.7022 30.8958 30.7945C28.7544 31.3407 26.6132 31.6008 24.8645 31.7692C21.8174 32.0627 19.8883 31.815 18.96 31.568C18.5955 31.4709 18.4814 31.3209 18.3569 31.0534C18.0532 30.4006 17.9018 29.3022 17.7779 27.3101C17.4274 21.6717 17.9414 20.5908 18.3736 19.9263C19.2688 18.5502 21.0784 17.0772 21.3664 16.871C21.6835 16.6439 23.4997 16.7044 26.098 16.7453C28.5968 16.7846 29.8283 17.0339 32.9566 17.4048C34.1502 17.5463 34.7004 18.3516 35.319 19.1157C35.5661 19.4241 35.9339 19.9145 36.2052 20.1876C36.4764 20.4607 36.6399 20.5016 36.8083 20.5437" stroke="#D9D9D9" stroke-width="7.98" stroke-linecap="round"/>
<path d="M15.5479 27.4668V27.8268" stroke="#0D0D0D" stroke-width="2.5" stroke-linecap="round"/>
<path d="M21.0479 27.4668V27.7068" stroke="#0D0D0D" stroke-width="2.5" stroke-linecap="round"/>
<path d="M15.4424 32.9694C16.4793 33.0894 17.9147 32.931 19.2583 32.8296C19.8374 32.7702 20.6775 32.7294 21.8938 32.7096C22.5557 32.6898 23.3082 32.6502 24.0835 32.6094" stroke="#0D0D0D" stroke-width="2" stroke-linecap="round"/>
<path d="M10.2872 6.66522C7.75751 6.91563 6.73693 7.66981 5.57813 8.75755C5.04041 9.2623 4.94205 9.92626 4.89941 10.7232C4.81718 12.2604 5.33203 13.4654 5.62463 13.9113C6.20277 14.7922 7.68525 15.2914 9.07632 15.4852C10.3439 15.6617 11.2692 15.5637 13.0657 15.3904C14.5221 15.2499 16.0924 15.5549 17.1068 15.6211C18.1586 15.6897 19.3133 16.183 21.1946 16.7926C22.807 17.3151 23.8931 17.3419 24.9107 17.2775C26.6381 17.168 28.44 16.8111 29.3405 16.4542C30.2413 16.0971 30.9113 15.03 31.8278 14.4128C32.6325 13.871 33.4686 13.4895 34.4274 13.1753C35.2771 12.8968 38.0846 12.4838 39.9898 12.0134C41.087 11.7425 41.0702 10.1719 41.2209 9.04636C41.3186 8.31726 41.0355 7.70905 40.829 7.32818C40.3441 6.43381 39.1108 6.028 38.1929 5.53939C37.3027 5.06547 36.0078 4.76734 34.0346 4.22139C32.3375 3.75186 31.2546 4.19641 30.1062 4.22909C27.6365 4.29936 26.7734 4.82281 25.8074 5.08569C24.9391 5.32198 24.0798 5.7631 23.1793 6.12004C22.015 6.58153 17.3757 7.52279 14.7288 7.73952C13.5593 7.83528 12.1272 7.64032 10.4293 7.82527C8.76102 8.00701 9.53426 10.8216 9.32448 11.5249C8.96593 12.7268 8.79271 9.18621 8.40226 9.13682C6.46355 8.89156 6.03473 12.597 5.9641 13.0174C5.78091 14.1078 10.9232 11.4131 12.6123 10.6263C14.4668 9.76246 10.7434 13.2235 10.6731 13.4644C10.3753 14.4846 14.5611 11.6747 16.0349 10.5098C17.3605 9.46208 13.2543 13.1806 13.2399 13.2865C12.8225 16.3475 19.3565 9.56106 20.9426 8.95119C21.5784 8.70671 19.2807 11.7621 17.9685 13.4389C17.193 14.4299 21.8432 10.5012 24.5302 8.96879C25.4016 8.47185 25.4332 8.8549 24.7114 9.69747C23.9897 10.54 22.5546 11.9098 21.6547 12.7395C20.4572 13.8436 22.9581 11.59 27.1626 8.04784C28.1315 7.23158 23.5315 12.8823 21.3631 15.4143C17.7794 19.599 28.6149 11.0873 28.9665 11.1891C30.1064 11.5192 26.5508 13.8312 25.6632 14.7046C22.2739 18.0398 30.8681 11.0296 31.1173 10.967C32.8852 10.5232 28.8652 13.9251 28.6471 14.0341C26.8299 14.9426 31.8303 11.6652 32.0684 11.528C32.3313 11.3764 31.7818 12.3868 31.5461 12.7285C30.4936 14.2551 35.6954 9.58461 36.3867 9.384C36.6928 9.29517 36.0328 10.4555 35.4726 11.049C35.2544 11.2803 36.2052 9.92615 36.9505 9.38451C37.2094 9.19634 37.3736 9.44705 37.5217 9.40403C37.6697 9.361 37.8343 9.08384 37.7625 8.9121C36.6632 6.28121 29.7468 9.54274 28.4311 9.34234C28.1481 9.29925 27.9393 9.12997 27.9469 9.02493C27.9697 8.71192 30.9394 8.39944 34.6099 7.83554C35.7931 7.65376 35.574 7.54827 34.7347 7.38447C33.8954 7.22068 32.4367 6.9671 31.9913 6.84451C30.5704 6.45337 35.393 7.05755 36.0495 6.96655C36.3619 6.92325 33.4204 6.72023 29.7733 6.84495C24.9941 7.00838 23.1463 7.12897 21.0977 7.36141C20.6116 7.41657 20.2378 7.63411 20.1462 7.75012C20.0546 7.86613 20.268 7.93797 20.5524 7.95058C22.2036 8.02382 23.9447 7.06665 25.985 6.6536C26.9846 6.48769 28.58 6.26467 29.5301 6.15728C30.4801 6.0499 30.7363 6.06491 31.1514 6.05926" stroke="white" stroke-width="4" stroke-linecap="round"/>
<path d="M24.0532 2.47865C23.9661 2.44933 23.3196 2.43531 21.5488 2.59859C20.3733 2.70697 18.661 3.08401 17.5122 3.37034C15.8083 3.79508 15.1601 4.22418 14.8786 4.3786C14.2168 4.74164 13.1245 5.36578 12.6098 5.77507C12.4348 5.91424 12.3029 6.13206 12.259 6.49284C12.1917 7.0464 12.4065 7.4802 12.5477 7.66953C12.9861 8.25733 14.2534 8.12436 15.2362 8.10173C15.5125 8.09537 15.8694 8.12861 16.8284 8.05743C18.6258 7.92403 20.0481 7.58723 20.5428 7.45521C21.2175 7.27511 22.1169 7.08803 22.757 6.94636C23.5192 6.77769 23.9302 6.7088 24.7573 6.41587C25.3355 6.21108 25.8464 6.02217 26.2537 5.78728C26.4178 5.69262 26.6114 5.64296 26.7863 5.47232C27.1331 5.13384 27.0351 4.62104 26.9279 3.92391C26.8647 3.51263 26.412 3.3034 26.0957 3.13696C25.7667 2.96383 25.398 2.94084 24.9518 2.97147C24.7325 2.98652 23.4726 3.18798 21.6391 3.55935C20.9551 3.69789 20.7796 3.77381 20.1093 3.97189C18.2852 4.51094 16.8354 4.95395 16.4139 5.15939C16.1614 5.28245 16.0189 5.42461 15.9142 5.57507C15.8661 5.64423 15.8937 5.7345 15.9446 5.80128C15.9954 5.86806 16.0854 5.91774 16.2275 5.96105C16.3697 6.00437 16.5614 6.03982 17.8641 5.83793C19.1667 5.63603 21.5745 5.19571 22.8541 4.95302C24.1337 4.71032 24.2123 4.67859 24.2932 4.64589" stroke="#FFE749" stroke-width="4" stroke-linecap="round"/>
</svg>
