<svg width="47" height="51" viewBox="0 0 47 51" fill="none" xmlns="http://www.w3.org/2000/svg">
<path d="M6.91003 25.1125C5.6653 25.8238 4.84626 26.5458 4.53238 27.3514C3.83714 29.1357 4.03798 30.6734 3.99083 35.3317C3.96414 37.9691 4.84087 39.5644 5.64913 41.2711C6.52723 43.1254 8.16017 43.9667 9.86696 45.0013C11.4127 45.9383 13.0098 46.1221 24.7351 46.3525C28.2871 46.4222 30.0697 45.9497 32.675 45.3664C34.7352 44.9051 36.1802 44.6026 38.3342 43.6178C40.4186 42.6649 40.6742 40.0331 41.5727 37.3807C42.2104 35.498 42.2045 29.2077 41.9364 25.3873C41.8208 23.7403 40.0545 22.4236 38.1712 21.1654C36.1974 19.8467 34.041 19.4546 31.6162 19.0074C30.0113 18.7113 21.2703 18.6463 15.5841 18.9589C13.7629 19.059 12.3955 19.8102 10.0623 20.9768C8.43064 21.7927 7.45427 23.399 6.64331 24.8377C5.87198 26.206 5.65452 27.7097 5.69628 34.7834C5.7136 37.7187 7.62131 38.8477 8.92532 39.9267C9.75796 40.6157 10.7682 40.9169 13.8854 41.3196C21.7536 42.3363 28.1837 41.8194 30.0225 41.3708C31.239 41.1001 32.1415 40.8306 33.1263 40.4723C33.6665 40.2918 34.2888 40.114 35.1995 39.9308" stroke="#D9D9D9" stroke-width="7.98" stroke-linecap="round"/>
<path d="M17.1166 18.874C15.8806 19.1217 14.974 19.2852 13.9622 19.4103C13.2023 19.5042 12.5788 19.9044 11.7119 20.2351C11.001 20.5062 10.1861 20.7714 9.44052 20.9992C8.74218 21.2127 7.79334 22.1287 7.0868 22.8557C6.46429 23.4962 5.93068 24.2787 5.51765 24.8577C5.06926 25.4863 5.14549 26.2603 4.87736 26.9216C4.0742 28.9026 4.89532 32.7003 5.14363 33.3413C5.41872 34.0513 6.13132 34.8875 7.57351 36.1662C8.52372 37.0087 10.4177 37.2022 12.1714 37.0406C13.439 36.9237 13.1943 34.9779 13.1949 32.9901C13.1955 31.3697 13.0321 28.5093 12.8872 27.6077C12.5682 25.6228 12.3695 31.0073 12.3076 32.0755C12.267 32.775 12.2865 33.7976 13.0222 32.7301C13.7578 31.6625 15.2291 28.4747 16.1914 26.5872C17.1537 24.6998 17.5624 24.2094 17.9773 25.5915C18.3922 26.9736 18.8009 30.2432 19.0114 32.2136C19.222 34.184 19.222 34.7562 19.222 34.7853C19.222 34.8144 19.222 34.2831 19.5081 32.252C19.7941 30.2209 20.3663 26.7061 21.3559 27.0207C22.3454 27.3353 23.735 31.5857 24.4917 33.8571C25.2484 36.1284 25.3301 36.2919 25.4131 36.2535C25.4961 36.2151 25.5778 35.9699 26.0695 33.7797C26.5612 31.5894 27.4603 27.4616 28.7409 27.1538C30.0215 26.8461 31.6562 30.4835 32.8049 31.6421C33.9536 32.8007 34.5667 31.3702 34.9438 30.5516C35.4048 29.5507 35.7742 28.9515 36.1655 28.3725C36.2929 28.1841 36.516 28.4474 36.682 28.7775C37.9058 31.2115 37.7991 34.7624 37.7173 35.5674C37.6802 35.933 35.1785 36.4542 30.8958 37.5465C28.7544 38.0927 26.6132 38.3527 24.8645 38.5212C21.8174 38.8147 19.8883 38.567 18.96 38.3199C18.5955 38.2229 18.4814 38.0728 18.3569 37.8053C18.0532 37.1526 17.9018 36.0541 17.7779 34.062C17.4274 28.4236 17.9414 27.3427 18.3736 26.6783C19.2688 25.3022 21.0784 23.8292 21.3664 23.6229C21.6835 23.3958 23.4997 23.4564 26.098 23.4972C28.5968 23.5365 29.8283 23.7858 32.9566 24.1567C34.1502 24.2983 34.7004 25.1035 35.319 25.8677C35.5661 26.1761 35.9339 26.6665 36.2052 26.9396C36.4764 27.2127 36.6399 27.2535 36.8083 27.2956" stroke="#D9D9D9" stroke-width="7.98" stroke-linecap="round"/>
<path d="M15.5479 34.2188V34.5788" stroke="#0D0D0D" stroke-width="2.5" stroke-linecap="round"/>
<path d="M21.0479 34.2188V34.4588" stroke="#0D0D0D" stroke-width="2.5" stroke-linecap="round"/>
<path d="M15.4424 39.7214C16.4793 39.8414 17.9147 39.683 19.2583 39.5815C19.8374 39.5221 20.6775 39.4813 21.8938 39.4615C22.5557 39.4417 23.3082 39.4021 24.0835 39.3613" stroke="#0D0D0D" stroke-width="2" stroke-linecap="round"/>
<path d="M13.2931 14.1974C10.8752 14.8379 10.2358 14.9788 9.31189 15.8829C8.09817 17.0707 8.02823 18.036 7.99087 18.7673C7.97454 19.0869 8.27482 19.3555 8.5054 19.6218C9.09587 20.3038 10.618 20.5297 11.4223 20.6199C12.8524 20.7803 14.7833 20.9908 15.4259 21.2598C16.0936 21.5394 17.4819 22.306 20.2749 22.4709C21.7687 22.5591 22.435 21.6719 23.3413 21.1205C24.3446 20.5101 24.9969 20.3183 28.7732 20.0178C31.4419 19.8055 31.3314 17.3336 31.5289 16.4081C31.7425 15.4068 31.3709 14.5198 31.016 14.1114C30.1687 13.1368 28.526 12.9527 27.7425 12.8278C27.0721 12.7209 26.2139 12.7029 24.8112 12.6143C22.339 12.4581 21.2672 12.8801 20.0433 13.0045C17.1828 13.2951 16.5702 13.6273 15.5033 13.6812C14.5237 13.7307 13.4745 14.2315 12.7796 14.4989C11.6461 14.9351 10.0927 15.9032 9.70045 16.3483C9.51093 16.5634 9.52165 16.9002 9.5035 17.2194C9.49333 17.3982 9.59103 17.609 9.69778 17.7708C9.89856 18.075 10.302 18.1823 10.7103 18.2004C11.4999 18.2355 13.4553 17.2995 15.5823 16.2288C15.9278 16.0549 16.1005 15.9779 16.2617 15.9064C16.4229 15.8349 16.5638 15.7644 16.4427 16.0452C15.5283 18.1639 14.3979 18.9285 14.2543 19.0891C14.0597 19.3069 15.9853 18.225 18.1699 16.9467C19.9544 15.9025 21.011 15.0887 21.2981 15.1037C22.2356 15.1525 18.9988 17.4959 17.025 19.2204C16.2739 19.8766 16.0728 20.1347 16.1577 20.1913C16.2425 20.2479 16.63 20.107 17.8688 19.4003C19.1076 18.6936 21.186 17.4254 22.3448 16.7017C23.5035 15.9779 23.6797 15.837 23.6647 15.923C23.5855 16.3783 22.0582 17.9912 20.2792 20.0899C19.6464 20.8364 19.6275 20.9908 20.7366 20.0771C21.8457 19.1633 24.1003 17.1906 25.2441 16.3153C26.3879 15.4399 26.3527 15.7217 26.2112 16.0783C25.8902 16.8875 25.2521 17.7158 24.8246 18.2682C23.7052 19.7146 28.699 14.7674 28.9301 14.7311C29.954 14.5703 27.7788 17.6795 27.5616 18.1823C27.4498 18.4411 28.4097 17.0155 29.3347 16.0361C29.6275 15.726 29.696 15.9374 29.6965 16.1338C29.6971 16.3302 29.6619 16.5416 29.6085 16.7209C29.5551 16.9002 29.4846 17.0411 29.4121 17.2931" stroke="#FBFFE5" stroke-width="3.5" stroke-linecap="round"/>
<path d="M13.9336 13.7702C14.145 12.7134 14.5709 11.0417 15.2978 8.64678C16.5972 4.36623 16.9567 3.77425 17.3303 2.67261C17.4666 2.27087 17.5983 1.99369 17.7045 1.85065C18.1576 1.24048 18.3444 3.59065 19.1077 6.03839C19.6009 7.62007 19.8389 8.39432 20.1949 9.51358C20.4089 10.2816 20.552 10.9904 20.7292 11.6683C20.7655 11.8466 20.7655 12.0579 20.979 12.3824" stroke="#C59163" stroke-width="3.5" stroke-linecap="round"/>
<path d="M14.4668 14.4103C14.8564 14.375 15.7072 14.1626 17.0592 13.8776C18.0589 13.6278 18.6983 13.4858 19.2838 13.3791C19.5875 13.3428 19.9046 13.3428 20.2312 13.3428" stroke="#C59163" stroke-width="3.5" stroke-linecap="round"/>
<path d="M17.9896 6.51074C17.8487 8.06073 17.7761 9.91601 17.7056 11.5877C17.6352 12.2026 17.4943 12.3435 17.3336 12.4513C17.173 12.5591 16.9968 12.6296 16.4951 12.7021" stroke="#C59163" stroke-width="3.5" stroke-linecap="round"/>
<path d="M11.0225 15.6567C11.1701 15.7676 11.6143 15.9899 11.9779 16.1576C12.3492 16.3289 12.7299 16.4546 13.0829 16.5017C13.4571 16.5516 13.7886 16.604 14.4359 16.6502C16.2921 16.7829 16.7777 16.4936 17.336 16.2797C17.6824 16.1469 18.0047 15.9732 18.3396 15.8152C18.7209 15.6353 19.0267 15.5831 19.3705 15.4898C19.6927 15.4023 20.0298 15.3413 20.8823 15.3131C21.424 15.2952 21.9801 15.2298 22.7402 15.1833C22.9964 15.1676 23.1325 15.0069 23.1888 14.9512C23.2804 14.8604 22.8555 14.969 22.7346 14.988C22.644 15.0022 22.8355 14.7656 22.9558 14.6728C23.0946 14.6168 23.2439 14.5795 23.383 14.5241C23.4484 14.487 23.5036 14.4318 23.6719 14.375" stroke="#FBFFE5" stroke-width="3.5" stroke-linecap="round"/>
<path d="M20.7695 15.2466C20.8833 15.2292 21.0942 15.1938 21.301 15.1675C21.5267 15.1389 21.8756 15.1146 22.1414 15.0927C22.2896 15.0805 22.4146 15.0795 22.45 15.062C22.5454 15.0146 22.2393 15.0705 22.2083 15.0837C22.0908 15.1338 22.441 15.0267 22.4764 15.0005C22.4905 14.99 22.4421 14.9568 22.4067 14.9433C22.2668 14.89 22.0989 15.0001 21.9579 15.0572C21.8121 15.1163 21.6327 15.141 21.5307 15.1629C21.3535 15.201 21.8861 15.0882 22.058 15.04C22.2216 14.9942 22.4141 14.9388 22.6165 14.886C22.7219 14.877 22.8193 14.8596 22.9114 14.8332C22.96 14.8242 23.0122 14.8242 23.0925 14.7979" stroke="#FBFFE5" stroke-width="3.5" stroke-linecap="round"/>
</svg>
