<svg width="47" height="55" viewBox="0 0 47 55" fill="none" xmlns="http://www.w3.org/2000/svg">
<path d="M6.91003 29.5148C5.6653 30.2261 4.84626 30.9482 4.53238 31.7537C3.83714 33.5381 4.03798 35.0757 3.99083 39.7341C3.96414 42.3715 4.84087 43.9667 5.64913 45.6735C6.52723 47.5278 8.16017 48.3691 9.86696 49.4037C11.4127 50.3406 13.0098 50.5245 24.7351 50.7548C28.2871 50.8246 30.0697 50.352 32.675 49.7687C34.7352 49.3075 36.1802 49.0049 38.3342 48.0202C40.4186 47.0673 40.6742 44.4355 41.5727 41.783C42.2104 39.9004 42.2045 33.6101 41.9364 29.7897C41.8208 28.1426 40.0545 26.826 38.1712 25.5678C36.1974 24.2491 34.041 23.8569 31.6162 23.4097C30.0113 23.1137 21.2703 23.0487 15.5841 23.3612C13.7629 23.4613 12.3955 24.2126 10.0623 25.3792C8.43064 26.195 7.45427 27.8013 6.64331 29.24C5.87198 30.6084 5.65452 32.1121 5.69628 39.1858C5.7136 42.1211 7.62131 43.25 8.92532 44.3291C9.75796 45.0181 10.7682 45.3192 13.8854 45.722C21.7536 46.7387 28.1837 46.2218 30.0225 45.7732C31.239 45.5024 32.1415 45.233 33.1263 44.8746C33.6665 44.6941 34.2888 44.5163 35.1995 44.3331" stroke="#D9D9D9" stroke-width="7.98" stroke-linecap="round"/>
<path d="M17.1166 23.2764C15.8806 23.5241 14.974 23.6875 13.9622 23.8126C13.2023 23.9066 12.5788 24.3068 11.7119 24.6374C11.001 24.9086 10.1861 25.1737 9.44052 25.4016C8.74218 25.615 7.79334 26.5311 7.0868 27.2581C6.46429 27.8986 5.93068 28.6811 5.51765 29.2601C5.06926 29.8886 5.14549 30.6626 4.87736 31.324C4.0742 33.305 4.89532 37.1027 5.14363 37.7436C5.41872 38.4536 6.13132 39.2898 7.57351 40.5686C8.52372 41.411 10.4177 41.6045 12.1714 41.4429C13.439 41.3261 13.1943 39.3802 13.1949 37.3925C13.1955 35.7721 13.0321 32.9117 12.8872 32.0101C12.5682 30.0251 12.3695 35.4097 12.3076 36.4779C12.267 37.1774 12.2865 38.2 13.0222 37.1324C13.7578 36.0648 15.2291 32.877 16.1914 30.9896C17.1537 29.1021 17.5624 28.6117 17.9773 29.9938C18.3922 31.376 18.8009 34.6455 19.0114 36.616C19.222 38.5864 19.222 39.1586 19.222 39.1877C19.222 39.2168 19.222 38.6855 19.5081 36.6544C19.7941 34.6233 20.3663 31.1085 21.3559 31.423C22.3454 31.7376 23.735 35.9881 24.4917 38.2594C25.2484 40.5308 25.3301 40.6943 25.4131 40.6559C25.4961 40.6175 25.5778 40.3723 26.0695 38.182C26.5612 35.9918 27.4603 31.8639 28.7409 31.5562C30.0215 31.2484 31.6562 34.8858 32.8049 36.0444C33.9536 37.203 34.5667 35.7726 34.9438 34.9539C35.4048 33.9531 35.7742 33.3538 36.1655 32.7748C36.2929 32.5864 36.516 32.8498 36.682 33.1798C37.9058 35.6139 37.7991 39.1647 37.7173 39.9698C37.6802 40.3354 35.1785 40.8565 30.8958 41.9488C28.7544 42.495 26.6132 42.7551 24.8645 42.9235C21.8174 43.217 19.8883 42.9693 18.96 42.7223C18.5955 42.6252 18.4814 42.4752 18.3569 42.2077C18.0532 41.5549 17.9018 40.4565 17.7779 38.4644C17.4274 32.826 17.9414 31.745 18.3736 31.0806C19.2688 29.7045 21.0784 28.2315 21.3664 28.0253C21.6835 27.7982 23.4997 27.8587 26.098 27.8996C28.5968 27.9389 29.8283 28.1882 32.9566 28.5591C34.1502 28.7006 34.7004 29.5059 35.319 30.27C35.5661 30.5784 35.9339 31.0688 36.2052 31.3419C36.4764 31.615 36.6399 31.6559 36.8083 31.698" stroke="#D9D9D9" stroke-width="7.98" stroke-linecap="round"/>
<path d="M15.5479 38.6211V38.9811" stroke="#0D0D0D" stroke-width="2.5" stroke-linecap="round"/>
<path d="M21.0479 38.6211V38.8611" stroke="#0D0D0D" stroke-width="2.5" stroke-linecap="round"/>
<path d="M15.4424 44.1237C16.4793 44.2437 17.9147 44.0853 19.2583 43.9839C19.8374 43.9245 20.6775 43.8837 21.8938 43.8639C22.5557 43.8441 23.3082 43.8045 24.0835 43.7637" stroke="#0D0D0D" stroke-width="2" stroke-linecap="round"/>
<path d="M12.3439 22.4182C12.7107 20.5785 13.8223 17.2381 14.5185 15.7082C15.3331 13.9181 17.0516 9.75686 18.455 7.139C18.6517 6.77205 18.8246 6.39977 19.1025 6.21079C19.3804 6.02182 19.7473 6.02182 20.028 6.20524C21.5158 7.17746 22.4374 9.25663 23.6407 12.0315C24.7047 14.4851 25.1275 16.3877 25.8195 18.5192C26.4825 20.5613 26.4225 22.5016 26.1043 24.5886C23.5573 25.011 17.3073 25.1972 13.2304 24.3218C12.8108 23.9967 12.4439 23.6299 11.7881 22.974" stroke="#FF7B00" stroke-width="3.85" stroke-linecap="round"/>
<path d="M19.7977 8.88281C18.211 13.303 16.7702 16.9967 15.5991 19.5683C15.0693 20.7315 14.5979 21.5731 14.2794 22.096C13.9609 22.6189 13.7909 22.7889 14.2983 22.1965C17.4326 18.5372 18.3037 17.1324 19.65 14.9584C20.0635 14.2907 20.2545 13.7512 20.4829 13.1802C20.5979 12.8925 20.7113 12.6092 20.5713 13.1999C19.3711 18.2661 17.7405 21.5285 16.9385 22.9297C16.5562 23.5978 16.365 24.2211 16.4191 24.1112C17.7506 21.4058 19.2173 19.9967 20.2519 18.562C21.6544 16.6171 22.2001 15.0683 22.486 14.8931C24.9159 13.4046 22.0885 20.8416 21.6884 22.3287C21.528 22.9249 21.3432 23.4191 21.4282 23.6501C21.9534 25.0771 23.3987 20.9086 24.1998 20.2775C24.4909 20.1564 24.5476 20.4398 24.6051 20.6991C24.6626 20.9584 24.7193 21.185 24.7777 21.5903" stroke="#FF7B00" stroke-width="3.85" stroke-linecap="round"/>
<path d="M19.4551 21.9336C19.9084 22.0469 20.3618 22.1603 20.737 22.2753C21.1122 22.3904 21.3956 22.5037 21.8592 22.6205" stroke="#FF7B00" stroke-width="3.85" stroke-linecap="round"/>
<path d="M15.8486 9.56934C16.7038 9.626 17.9608 9.74106 19.5596 9.88358C20.413 9.91278 21.8864 9.91278 22.7588 9.85611C23.6311 9.79944 23.8578 9.68611 24.263 9.56934" stroke="#FFF200" stroke-width="2.31" stroke-linecap="round"/>
<path d="M13.1006 14.8936C14.0073 15.1202 17.6478 15.237 22.5694 15.2087C24.5442 15.1237 25.0611 15.0086 25.6321 14.9227C25.9197 14.8936 26.203 14.8936 26.495 14.8936" stroke="#FFF200" stroke-width="2.31" stroke-linecap="round"/>
<path d="M11.3838 20.7314C12.4055 20.7314 14.698 20.8448 16.5827 21.0457C18.5721 21.0749 20.1382 21.1316 21.9001 21.2174C23.322 21.2466 25.8154 21.2466 28.3843 21.0749" stroke="#FFF200" stroke-width="2.31" stroke-linecap="round"/>
<path d="M10.8681 24.6815C10.8681 24.9082 10.8114 25.2516 10.8105 25.6801C10.8101 25.8894 11.0364 26.0518 11.1806 26.0261C11.3249 26.0003 11.4382 25.7736 11.4966 25.7702C11.7269 25.7567 11.725 26.397 12.1242 26.7113C12.575 27.0661 13.4954 27.0856 14.3541 26.9439C14.6742 26.8911 14.646 26.5189 14.5326 26.3163C14.3061 25.9112 13.6757 25.8269 13.1614 25.826C12.9238 25.8256 12.7605 26.0518 12.7579 26.2528C12.752 26.7119 13.3271 27.0272 13.8123 27.2556C15.5183 28.0588 17.9637 27.4874 18.3921 27.2024C18.6127 27.0556 18.7639 26.804 18.7381 26.6022C18.7124 26.4004 18.4857 26.2304 18.1989 26.1429C17.9121 26.0553 17.5721 26.0553 17.3686 26.1686C17.1652 26.2819 17.1085 26.5086 17.136 26.7387C17.1634 26.9688 17.2768 27.1955 17.5052 27.3973C18.8926 28.6231 21.4531 27.7175 22.14 27.2324C22.4245 27.0315 22.3735 26.6906 22.1752 26.5447C21.9768 26.3987 21.5801 26.3987 21.3475 26.5121C21.1148 26.6254 21.0581 26.8521 21.0856 27.0822C21.1131 27.3123 21.2264 27.539 21.4548 27.7124C21.9618 28.0974 23.3369 28.1159 24.8532 28.0026C25.416 27.9605 25.5195 27.6626 25.5495 27.4325C25.5796 27.2024 25.5229 26.9757 25.3804 26.7739C25.2378 26.5722 25.0112 26.4022 24.7811 26.3146C24.5509 26.227 24.3243 26.227 24.1225 26.312C23.9207 26.397 23.7507 26.567 23.6915 26.7679C23.6322 26.9688 23.6889 27.1955 23.8881 27.369C25.3183 28.6142 27.9236 27.6592 28.3237 27.3458C28.7662 26.9992 28.7272 26.2871 28.6139 25.8011C28.5612 25.575 28.2739 25.4852 28.0154 25.4268C27.757 25.3684 27.4737 25.3684 27.356 25.4817C27.2384 25.5951 27.2951 25.8217 27.4376 25.9952C27.7344 26.3564 28.4937 26.3987 29.2656 26.3137C29.5933 26.2776 29.7541 26.0587 29.8701 25.8578C29.986 25.6569 30.0426 25.4302 30.0152 25.2001C29.9877 24.97 29.8743 24.7433 29.6176 24.6265C29.3609 24.5098 28.9642 24.5098 28.8732 24.5098C28.7822 24.5098 29.0089 24.5098 29.7576 24.6815" stroke="#FFF200" stroke-width="2.31" stroke-linecap="round"/>
<path d="M9.49474 24.5098C9.38141 24.5098 9.20968 24.7364 9.03796 25.1932C8.95441 25.4154 8.97957 25.65 9.12124 25.7951C9.26291 25.9402 9.54625 25.9969 9.94723 26.0261C10.3482 26.0553 10.8582 26.0553 11.212 25.5401" stroke="#FFF200" stroke-width="2.31" stroke-linecap="round"/>
<path d="M20.1415 1.15527C20.0282 1.15527 19.5731 1.15527 18.8871 1.26861C18.5805 1.31926 18.4277 1.60863 18.3401 2.00874C18.1325 2.95705 18.3659 3.78607 18.6509 4.15785C18.9227 4.51224 19.6229 4.41801 20.2231 4.30467C20.7619 4.20293 20.9984 3.56111 21.2843 3.19019C21.5658 2.82499 21.5153 2.18904 21.4019 1.64554C21.3145 1.22643 20.6017 1.27033 20.1733 1.2978C19.9715 1.38195 19.8015 1.60863 19.7139 1.92374C19.6263 2.23885 19.6263 2.63553 19.798 3.38767" stroke="#FFF200" stroke-width="2.31" stroke-linecap="round"/>
</svg>
