<svg width="47" height="49" viewBox="0 0 47 49" fill="none" xmlns="http://www.w3.org/2000/svg">
<path d="M6.91003 23.7394C5.6653 24.4507 4.84626 25.1728 4.53238 25.9783C3.83714 27.7627 4.03798 29.3003 3.99083 33.9587C3.96414 36.5961 4.84087 38.1913 5.64913 39.8981C6.52723 41.7524 8.16017 42.5937 9.86696 43.6283C11.4127 44.5652 13.0098 44.7491 24.7351 44.9794C28.2871 45.0492 30.0697 44.5766 32.675 43.9933C34.7352 43.5321 36.1802 43.2295 38.3342 42.2448C40.4186 41.2919 40.6742 38.6601 41.5727 36.0076C42.2104 34.125 42.2045 27.8347 41.9364 24.0143C41.8208 22.3672 40.0545 21.0506 38.1712 19.7924C36.1974 18.4737 34.041 18.0815 31.6162 17.6343C30.0113 17.3383 21.2703 17.2733 15.5841 17.5858C13.7629 17.6859 12.3955 18.4372 10.0623 19.6038C8.43064 20.4196 7.45427 22.0259 6.64331 23.4646C5.87198 24.833 5.65452 26.3367 5.69628 33.4104C5.7136 36.3457 7.62131 37.4746 8.92532 38.5537C9.75796 39.2427 10.7682 39.5438 13.8854 39.9466C21.7536 40.9633 28.1837 40.4464 30.0225 39.9978C31.239 39.727 32.1415 39.4576 33.1263 39.0993C33.6665 38.9187 34.2888 38.7409 35.1995 38.5577" stroke="#D9D9D9" stroke-width="7.98" stroke-linecap="round"/>
<path d="M17.1166 17.501C15.8806 17.7487 14.974 17.9121 13.9622 18.0372C13.2023 18.1312 12.5788 18.5314 11.7119 18.8621C11.001 19.1332 10.1861 19.3983 9.44052 19.6262C8.74218 19.8396 7.79334 20.7557 7.0868 21.4827C6.46429 22.1232 5.93068 22.9057 5.51765 23.4847C5.06926 24.1132 5.14549 24.8872 4.87736 25.5486C4.0742 27.5296 4.89532 31.3273 5.14363 31.9682C5.41872 32.6782 6.13132 33.5144 7.57351 34.7932C8.52372 35.6357 10.4177 35.8291 12.1714 35.6675C13.439 35.5507 13.1943 33.6049 13.1949 31.6171C13.1955 29.9967 13.0321 27.1363 12.8872 26.2347C12.5682 24.2497 12.3695 29.6343 12.3076 30.7025C12.267 31.402 12.2865 32.4246 13.0222 31.357C13.7578 30.2895 15.2291 27.1016 16.1914 25.2142C17.1537 23.3268 17.5624 22.8363 17.9773 24.2185C18.3922 25.6006 18.8009 28.8702 19.0114 30.8406C19.222 32.811 19.222 33.3832 19.222 33.4123C19.222 33.4414 19.222 32.9101 19.5081 30.879C19.7941 28.8479 20.3663 25.3331 21.3559 25.6477C22.3454 25.9622 23.735 30.2127 24.4917 32.484C25.2484 34.7554 25.3301 34.9189 25.4131 34.8805C25.4961 34.8421 25.5778 34.5969 26.0695 32.4066C26.5612 30.2164 27.4603 26.0886 28.7409 25.7808C30.0215 25.473 31.6562 29.1104 32.8049 30.269C33.9536 31.4276 34.5667 29.9972 34.9438 29.1785C35.4048 28.1777 35.7742 27.5784 36.1655 26.9994C36.2929 26.811 36.516 27.0744 36.682 27.4044C37.9058 29.8385 37.7991 33.3894 37.7173 34.1944C37.6802 34.56 35.1785 35.0811 30.8958 36.1734C28.7544 36.7196 26.6132 36.9797 24.8645 37.1481C21.8174 37.4416 19.8883 37.1939 18.96 36.9469C18.5955 36.8498 18.4814 36.6998 18.3569 36.4323C18.0532 35.7795 17.9018 34.6811 17.7779 32.689C17.4274 27.0506 17.9414 25.9697 18.3736 25.3052C19.2688 23.9291 21.0784 22.4561 21.3664 22.2499C21.6835 22.0228 23.4997 22.0833 26.098 22.1242C28.5968 22.1635 29.8283 22.4128 32.9566 22.7837C34.1502 22.9252 34.7004 23.7305 35.319 24.4946C35.5661 24.803 35.9339 25.2935 36.2052 25.5665C36.4764 25.8396 36.6399 25.8805 36.8083 25.9226" stroke="#D9D9D9" stroke-width="7.98" stroke-linecap="round"/>
<path d="M15.5479 32.8457V33.2058" stroke="#0D0D0D" stroke-width="2.5" stroke-linecap="round"/>
<path d="M21.0479 32.8457V33.0857" stroke="#0D0D0D" stroke-width="2.5" stroke-linecap="round"/>
<path d="M15.4424 38.3483C16.4793 38.4683 17.9147 38.3099 19.2583 38.2085C19.8374 38.1491 20.6775 38.1083 21.8938 38.0885C22.5557 38.0687 23.3082 38.0291 24.0835 37.9883" stroke="#0D0D0D" stroke-width="2" stroke-linecap="round"/>
<path d="M13.6073 8.83698C13.013 9.75048 12.6373 10.4422 12.3243 11.1059C12.0267 11.7369 11.5466 13.3346 11.2015 14.5874C10.7658 16.1685 10.5146 16.8427 10.4229 17.5827C10.3419 18.2361 10.1753 18.9221 10.1295 19.5363C10.0738 20.2831 9.96173 21.3432 10.1988 22.0873C10.4627 22.9158 11.9755 23.0431 13.5203 23.1181C13.8387 23.1336 14.0259 23.1633 15.572 23.1745C17.118 23.1858 20.0174 23.1768 21.6201 23.1874C24.6021 23.2071 26.6248 23.1884 26.8599 22.9996C27.1513 22.7657 27.1898 22.3061 27.2824 21.851C27.408 21.2332 27.5277 19.4832 27.4894 17.1706C27.4573 15.2396 27.0096 14.4976 26.8495 13.8997C26.6538 13.1687 26.2466 12.1722 25.9767 11.4933C25.5996 10.5449 25.0429 9.68569 24.5846 9.19822C24.138 8.72321 22.8721 8.52571 20.943 8.39C18.1791 8.19555 16.3474 8.38728 15.9239 8.43583C15.4067 8.4535 14.9307 8.48616 14.5851 8.55005C14.4265 8.58219 14.3019 8.61376 14.079 8.64657" stroke="#FFE749" stroke-width="3.2" stroke-linecap="round"/>
<path d="M16.7261 9.20519C14.816 11.9782 14.0043 13.7389 13.3923 14.864C12.6261 16.2728 12.5629 16.8363 11.8791 19.3495C11.7086 19.9763 11.7538 20.3608 11.8944 20.4595C12.2462 20.7067 13.0387 19.7701 14.2103 18.4665C14.9861 17.6034 15.9713 16.1947 16.7627 15.0491C18.8201 12.0711 19.2173 11.3117 19.658 10.7095C19.8435 10.456 20.066 10.2038 20.3166 9.99845C20.4324 9.90362 20.5676 9.88667 20.6323 10.0263C21.0621 10.9542 20.1696 11.9304 19.2626 12.9856C17.0246 15.5895 16.4043 16.2878 15.9953 16.7794C15.4039 17.4903 14.5221 18.6233 14.0515 19.3348C13.3339 20.4194 13.2361 20.992 13.2677 21.2748C13.2834 21.4153 13.4862 21.4947 13.6446 21.5424C13.9489 21.634 14.431 21.5258 15.292 21.1948C16.7095 20.65 18.1362 19.4094 19.5928 18.1338C20.3661 17.4565 21.0796 16.5775 21.774 15.6585C23.9735 12.7472 24.0395 12.0506 24.337 11.3893C24.4545 11.128 24.3829 10.6703 24.2733 10.5237C23.6206 9.65055 22.343 12.1145 21.6852 12.9172C20.4199 14.4609 19.4882 15.1748 18.828 15.8561C17.6184 17.1045 17.0107 18.6761 16.7588 19.563C16.6795 19.8422 16.6967 20.0998 16.8226 20.3351C17.1451 20.9378 18.487 20.7253 19.5601 20.3771C19.9771 20.2418 21.1868 19.1213 22.9115 17.3389C24.6399 15.5526 25.1789 14.4731 25.5892 14.1374C26.8412 13.1132 25.5752 18.589 24.9004 19.2547C24.397 19.7513 23.784 19.7943 22.9833 20.3783C22.8005 20.5116 22.7152 20.6158 22.7297 20.7263C22.7443 20.8368 22.8694 20.9611 22.9962 21.0405C23.229 21.1863 24.0934 21.1802 24.6654 21.1628C27.1168 21.0884 21.4586 21.1884 20.5149 21.3638C20.135 21.4344 19.8205 21.4769 19.6778 21.4929C19.4735 21.5159 20.2581 21.5389 21.5388 21.4409C24.6229 21.2049 26.6513 21.0476 26.5565 20.7966C26.452 20.5197 25.7385 19.4529 24.6177 17.6803C23.6574 16.1615 22.5436 15.2371 21.7241 14.5013C20.551 13.351 20.0776 13.0379 19.7783 12.7875C19.6353 12.6614 19.5102 12.5371 19.2868 12.4093" stroke="#FFE749" stroke-width="3.2" stroke-linecap="round"/>
<path d="M18.243 9.77011C17.1155 10.9047 16.2102 11.8844 15.6847 12.5689C14.9641 13.5076 14.5031 14.6779 14.3652 15.0167C14.3229 15.1206 14.6048 14.647 15.1439 13.9922C15.5895 13.451 16.4173 12.5126 16.9249 11.9055C17.6031 11.0579 17.8471 10.7072 18.0104 10.5166C18.1054 10.429 18.2251 10.3601 18.4522 10.2368" stroke="#FFE749" stroke-width="3.2" stroke-linecap="round"/>
<path d="M14.6514 7.33963C14.2031 7.47864 13.7885 7.75673 13.4689 8.00882C13.199 8.2217 13.0463 8.55465 12.8996 8.89319C12.8387 9.03379 12.8399 9.31662 12.8752 9.66238C12.9208 10.1078 13.4475 10.3025 14.1825 10.6118C14.6596 10.8126 14.9725 10.7314 15.8053 10.7548C16.535 10.7752 17.8891 10.7571 18.6208 10.7463C19.6134 10.7316 20.2662 10.6459 20.7708 10.5926C21.1529 10.5523 21.6358 10.5035 21.9392 10.4763C22.2811 10.4457 22.7592 10.3784 23.1332 10.3256C23.4885 10.2754 23.9022 10.2025 24.2147 10.1576C24.4957 10.1173 24.802 9.95767 25.0878 9.7919C25.2151 9.71813 25.2521 9.42085 25.2338 9.04907C25.2145 8.65654 24.9384 8.39927 24.6781 8.20923C24.4301 8.02816 24.0378 8.05516 23.6995 7.98688C23.4109 7.92863 23.1367 7.85023 22.73 7.82527C22.404 7.80526 22.0633 7.69777 21.5958 7.673C21.2806 7.6563 20.9724 7.5973 19.7636 7.57483C19.4134 7.56832 19.1888 7.53325 18.9296 7.52549C18.7034 7.51871 17.6904 7.48598 16.28 7.49893C15.5504 7.50563 15.208 7.63184 14.87 7.66768C14.7902 7.67615 14.7232 7.71955 14.6964 7.70302C14.6696 7.68648 14.6865 7.61788 14.7294 7.55673C14.9136 7.29429 15.2555 7.21727 15.5927 7.0947C15.9446 6.96675 16.2758 6.98871 18.5966 6.97241C19.3586 6.96705 19.8075 7.08056 20.5422 7.13072C20.9798 7.1606 21.4855 7.26645 21.8689 7.31693C22.2157 7.36259 22.6305 7.40103 22.908 7.4695C23.1856 7.53796 23.4621 7.60618 23.7395 7.64011C24.0398 7.67684 24.2938 7.86325 24.5629 7.99199C24.8285 8.11902 24.954 8.43142 25.1367 8.70817C25.1819 8.77672 25.215 8.84607 25.2329 8.9156C25.2507 8.98514 25.251 9.05369 25.1911 9.10632C24.8726 9.38662 24.3023 9.26541 22.8337 9.2962C22.5345 9.30247 22.4661 9.32305 21.5484 9.369C20.6306 9.41496 18.8656 9.489 17.9136 9.53584C16.8759 9.60009 16.5992 9.61861 16.2793 9.62817C16.148 9.63715 16.0795 9.6545 16.0089 9.67237" stroke="#BA5801" stroke-width="3.2" stroke-linecap="round"/>
<path d="M18.5407 5.56273C18.6089 5.61393 18.9213 5.71734 19.0251 5.67417C19.0763 5.65284 19.06 5.54553 19.0255 5.49293C18.9574 5.38893 18.7832 5.38904 18.645 5.38064C18.5751 5.37639 18.507 5.42365 18.4719 5.49283C18.4368 5.56201 18.4371 5.66484 18.4631 5.74343C18.489 5.82203 18.5406 5.87328 18.6529 5.89942C18.7651 5.92556 18.9365 5.92502 19.059 5.89037C19.1814 5.85571 19.2498 5.78695 19.2934 5.71722C19.3371 5.6475 19.354 5.57889 19.3541 5.5093C19.3541 5.43971 19.3367 5.37122 19.2935 5.32747C19.2503 5.28372 19.1817 5.26679 19.0778 5.25829C18.9739 5.24978 18.8368 5.25021 18.5918 5.3029" stroke="#FF0000" stroke-width="3.2" stroke-linecap="round"/>
<path d="M18.9522 4.19729C18.9856 3.92298 19.0367 3.62733 19.1985 3.1532C19.5479 2.35287 19.8953 1.68602 20.1958 1.28832C20.3768 1.06237 20.6159 0.787419 21.0177 0.399792" stroke="#FF0000" stroke-width="0.8" stroke-linecap="round"/>
</svg>
