<svg width="47" height="49" viewBox="0 0 47 49" fill="none" xmlns="http://www.w3.org/2000/svg">
<path d="M6.91003 23.3215C5.6653 24.0327 4.84626 24.7548 4.53238 25.5604C3.83714 27.3447 4.03798 28.8824 3.99083 33.5407C3.96414 36.1781 4.84087 37.7733 5.64913 39.4801C6.52723 41.3344 8.16017 42.1757 9.86696 43.2103C11.4127 44.1473 13.0098 44.3311 24.7351 44.5614C28.2871 44.6312 30.0697 44.1587 32.675 43.5754C34.7352 43.1141 36.1802 42.8115 38.3342 41.8268C40.4186 40.8739 40.6742 38.2421 41.5727 35.5897C42.2104 33.707 42.2045 27.4167 41.9364 23.5963C41.8208 21.9493 40.0545 20.6326 38.1712 19.3744C36.1974 18.0557 34.041 17.6636 31.6162 17.2163C30.0113 16.9203 21.2703 16.8553 15.5841 17.1678C13.7629 17.2679 12.3955 18.0192 10.0623 19.1858C8.43064 20.0017 7.45427 21.6079 6.64331 23.0467C5.87198 24.415 5.65452 25.9187 5.69628 32.9924C5.7136 35.9277 7.62131 37.0567 8.92532 38.1357C9.75796 38.8247 10.7682 39.1258 13.8854 39.5286C21.7536 40.5453 28.1837 40.0284 30.0225 39.5798C31.239 39.309 32.1415 39.0396 33.1263 38.6813C33.6665 38.5008 34.2888 38.323 35.1995 38.1398" stroke="#D9D9D9" stroke-width="7.98" stroke-linecap="round"/>
<path d="M17.1166 17.083C15.8806 17.3307 14.974 17.4942 13.9622 17.6193C13.2023 17.7132 12.5788 18.1134 11.7119 18.4441C11.001 18.7152 10.1861 18.9803 9.44052 19.2082C8.74218 19.4217 7.79334 20.3377 7.0868 21.0647C6.46429 21.7052 5.93068 22.4877 5.51765 23.0667C5.06926 23.6952 5.14549 24.4693 4.87736 25.1306C4.0742 27.1116 4.89532 30.9093 5.14363 31.5502C5.41872 32.2602 6.13132 33.0965 7.57351 34.3752C8.52372 35.2177 10.4177 35.4112 12.1714 35.2496C13.439 35.1327 13.1943 33.1869 13.1949 31.1991C13.1955 29.5787 13.0321 26.7183 12.8872 25.8167C12.5682 23.8318 12.3695 29.2163 12.3076 30.2845C12.267 30.984 12.2865 32.0066 13.0222 30.939C13.7578 29.8715 15.2291 26.6837 16.1914 24.7962C17.1537 22.9088 17.5624 22.4183 17.9773 23.8005C18.3922 25.1826 18.8009 28.4522 19.0114 30.4226C19.222 32.393 19.222 32.9652 19.222 32.9943C19.222 33.0234 19.222 32.4921 19.5081 30.461C19.7941 28.4299 20.3663 24.9151 21.3559 25.2297C22.3454 25.5443 23.735 29.7947 24.4917 32.0661C25.2484 34.3374 25.3301 34.5009 25.4131 34.4625C25.4961 34.4241 25.5778 34.1789 26.0695 31.9887C26.5612 29.7984 27.4603 25.6706 28.7409 25.3628C30.0215 25.0551 31.6562 28.6925 32.8049 29.851C33.9536 31.0096 34.5667 29.5792 34.9438 28.7606C35.4048 27.7597 35.7742 27.1605 36.1655 26.5815C36.2929 26.3931 36.516 26.6564 36.682 26.9865C37.9058 29.4205 37.7991 32.9714 37.7173 33.7764C37.6802 34.142 35.1785 34.6631 30.8958 35.7555C28.7544 36.3017 26.6132 36.5617 24.8645 36.7301C21.8174 37.0236 19.8883 36.776 18.96 36.5289C18.5955 36.4319 18.4814 36.2818 18.3569 36.0143C18.0532 35.3616 17.9018 34.2631 17.7779 32.271C17.4274 26.6326 17.9414 25.5517 18.3736 24.8872C19.2688 23.5112 21.0784 22.0381 21.3664 21.8319C21.6835 21.6048 23.4997 21.6654 26.098 21.7062C28.5968 21.7455 29.8283 21.9948 32.9566 22.3657C34.1502 22.5072 34.7004 23.3125 35.319 24.0767C35.5661 24.385 35.9339 24.8755 36.2052 25.1486C36.4764 25.4216 36.6399 25.4625 36.8083 25.5046" stroke="#D9D9D9" stroke-width="7.98" stroke-linecap="round"/>
<path d="M15.5479 32.4277V32.7878" stroke="#0D0D0D" stroke-width="2.5" stroke-linecap="round"/>
<path d="M21.0479 32.4277V32.6678" stroke="#0D0D0D" stroke-width="2.5" stroke-linecap="round"/>
<path d="M15.4424 37.9304C16.4793 38.0504 17.9147 37.8919 19.2583 37.7905C19.8374 37.7311 20.6775 37.6903 21.8938 37.6705C22.5557 37.6507 23.3082 37.6111 24.0835 37.5703" stroke="#0D0D0D" stroke-width="2" stroke-linecap="round"/>
<path d="M14.1998 7.14081C13.6735 7.96842 13.3417 8.59445 13.0662 9.19464C12.8042 9.76519 12.3869 11.2075 12.0879 12.3382C11.7105 13.7652 11.4906 14.3742 11.4149 15.041C11.3481 15.6298 11.2045 16.2487 11.1689 16.8019C11.1257 17.4744 11.0347 18.4295 11.255 19.0971C11.5001 19.8402 12.8627 19.9407 14.2537 19.9939C14.5404 20.0049 14.7091 20.0299 16.1006 20.0258C17.4921 20.0216 20.1013 19.9866 21.5438 19.9813C24.2276 19.9715 26.0477 19.9359 26.2576 19.7639C26.5176 19.5507 26.5481 19.1367 26.6272 18.7262C26.7345 18.1691 26.8261 16.5931 26.7701 14.5122C26.7234 12.7747 26.3137 12.1111 26.164 11.5744C25.9812 10.9184 25.6055 10.0254 25.3563 9.41693C25.0081 8.56683 24.4991 7.79877 24.0822 7.36432C23.6759 6.94097 22.5348 6.77494 20.7975 6.67066C18.3082 6.52124 16.6616 6.71074 16.2809 6.75836C15.8156 6.77905 15.3875 6.81284 15.0771 6.87354C14.9347 6.90394 14.8228 6.93349 14.6226 6.96509" stroke="#FEAFB0" stroke-width="2.88" stroke-linecap="round"/>
<path d="M17.0099 7.44375C15.3165 9.95702 14.6023 11.549 14.062 12.5673C13.3854 13.8422 13.3338 14.35 12.7417 16.618C12.594 17.1837 12.6383 17.5293 12.7657 17.6168C13.0846 17.836 13.7891 16.9858 14.8315 15.8018C15.5217 15.0178 16.3953 13.7409 17.0969 12.7027C18.9209 10.0035 19.2713 9.31648 19.6624 8.77044C19.827 8.5406 20.0248 8.31152 20.2485 8.12443C20.3518 8.03801 20.4733 8.02151 20.5328 8.14656C20.9282 8.97763 20.1341 9.86444 19.3276 10.8225C17.3376 13.1866 16.7858 13.8208 16.4223 14.2669C15.8966 14.9122 15.1135 15.94 14.6966 16.5846C14.0608 17.5674 13.9781 18.0836 14.0092 18.3378C14.0246 18.4641 14.2078 18.5337 14.3508 18.5752C14.6255 18.6548 15.0584 18.553 15.8302 18.2471C17.1008 17.7437 18.3733 16.614 19.6723 15.4525C20.3621 14.8359 20.9961 14.0382 21.6124 13.2047C23.565 10.5644 23.6179 9.93682 23.8795 9.33895C23.9828 9.10267 23.9142 8.69139 23.8142 8.5605C23.2187 7.78076 22.0917 10.01 21.5071 10.7385C20.3828 12.1395 19.5508 12.7905 18.963 13.4098C17.886 14.5445 17.3536 15.9645 17.1351 16.765C17.0664 17.017 17.0842 17.2486 17.1997 17.4592C17.4955 17.9987 18.7012 17.795 19.6637 17.4717C20.0377 17.3461 21.116 16.3265 22.6517 14.7065C24.1907 13.0829 24.6657 12.1064 25.0319 11.8005C26.1492 10.8672 25.0605 15.8068 24.4593 16.4122C24.0109 16.8638 23.4596 16.9082 22.7444 17.4411C22.5811 17.5628 22.5054 17.6573 22.5195 17.7566C22.5335 17.8559 22.6473 17.9666 22.7622 18.0369C22.973 18.166 23.7509 18.1525 24.2655 18.1316C26.4709 18.0419 21.3798 18.1843 20.5321 18.3508C20.1908 18.4179 19.9082 18.4591 19.78 18.4748C19.5963 18.4974 20.3026 18.5108 21.4543 18.4107C24.2277 18.1699 26.0517 18.0095 25.9641 17.7845C25.8674 17.5363 25.2154 16.5828 24.1904 14.9979C23.3121 13.6399 22.3011 12.8183 21.5568 12.1638C20.4904 11.1394 20.0615 10.862 19.7899 10.6394C19.66 10.5272 19.5462 10.4165 19.344 10.3036" stroke="#FEAFB0" stroke-width="2.88" stroke-linecap="round"/>
<path d="M18.3803 7.93837C17.376 8.96988 16.5704 9.85991 16.1038 10.4808C15.464 11.3323 15.0599 12.3898 14.9389 12.6959C14.9019 12.7898 15.1511 12.361 15.6302 11.7668C16.0263 11.2755 16.7626 10.4234 17.2137 9.87233C17.8162 9.10328 18.0326 8.78534 18.1778 8.61231C18.2625 8.53265 18.3696 8.46951 18.5728 8.35648" stroke="#FEAFB0" stroke-width="2.88" stroke-linecap="round"/>
<path d="M15.1261 5.78404C14.724 5.91329 14.3534 6.1674 14.0681 6.39722C13.8272 6.5913 13.6928 6.89235 13.564 7.19838C13.5104 7.32547 13.5142 7.58 13.5492 7.89084C13.5943 8.29125 14.07 8.46161 14.7344 8.73318C15.1656 8.90944 15.4465 8.83349 16.1962 8.84682C16.853 8.8585 18.0715 8.82965 18.7299 8.81312C19.6231 8.79069 20.2098 8.70752 20.6634 8.65494C21.0069 8.61512 21.441 8.5667 21.7139 8.53944C22.0212 8.50873 22.4509 8.44379 22.787 8.39278C23.1062 8.34433 23.4779 8.27485 23.7587 8.23159C24.0112 8.1927 24.2854 8.04621 24.5411 7.89438C24.6549 7.82682 24.6855 7.55893 24.6656 7.22452C24.6446 6.87144 24.3937 6.64246 24.1577 6.47384C23.9329 6.31319 23.5801 6.34112 23.275 6.2828C23.0147 6.23305 22.7672 6.16503 22.4009 6.14633C22.1074 6.13134 21.7998 6.03776 21.3788 6.01979C21.095 6.00767 20.8171 5.95743 19.729 5.9484C19.4139 5.94578 19.2114 5.9163 18.9781 5.91171C18.7744 5.90771 17.8624 5.88762 16.5932 5.91233C15.9367 5.92511 15.6297 6.04186 15.3259 6.07725C15.2541 6.08561 15.1943 6.12529 15.17 6.11065C15.1457 6.09602 15.1603 6.03413 15.1984 5.97869C15.3617 5.74081 15.6687 5.66833 15.971 5.5549C16.2865 5.4365 16.5847 5.45319 18.6732 5.41704C19.359 5.40517 19.764 5.50317 20.4257 5.54152C20.8197 5.56435 21.2758 5.65493 21.6213 5.69682C21.9338 5.7347 22.3075 5.76546 22.5579 5.8245C22.8083 5.88355 23.0578 5.94238 23.3077 5.97035C23.5784 6.00063 23.8086 6.16604 24.0521 6.2794C24.2923 6.39127 24.4081 6.67125 24.575 6.91863C24.6164 6.9799 24.6468 7.042 24.6635 7.10441C24.6803 7.16682 24.6811 7.22851 24.6277 7.27644C24.3437 7.53164 23.8293 7.42783 22.5079 7.46913C22.2387 7.47755 22.1774 7.4967 21.3518 7.54655C20.5263 7.5964 18.9386 7.67937 18.0823 7.73034C17.149 7.79776 16.9001 7.81698 16.6124 7.82855C16.4942 7.83785 16.4327 7.85409 16.3694 7.87084" stroke="#FFFAF5" stroke-width="2.88" stroke-linecap="round"/>
<path d="M9.70703 20.5098L9.70907 20.6623" stroke="#FFFAF5" stroke-width="4.32" stroke-linecap="round"/>
<path d="M13.3703 20.6903L13.1447 20.9221" stroke="#FFFAF5" stroke-width="4.32" stroke-linecap="round"/>
<path d="M17.1856 20.8681L17.1104 20.9454" stroke="#FFFAF5" stroke-width="4.32" stroke-linecap="round"/>
<path d="M21.1515 20.8905L21 20.9688" stroke="#FFFAF5" stroke-width="4.32" stroke-linecap="round"/>
<path d="M24.8037 20.3076L24.8068 20.5364" stroke="#FFFAF5" stroke-width="4.32" stroke-linecap="round"/>
<path d="M28.083 20.2637L28.084 20.3399" stroke="#FFFAF5" stroke-width="4.32" stroke-linecap="round"/>
<path d="M18.7101 1.44044C18.2605 1.97953 17.9617 2.38848 17.4757 3.08134C17.2929 3.34197 17.1879 3.54429 17.1547 3.91117C17.0921 4.602 17.2844 5.16966 17.6044 5.43152C18.3247 6.02099 18.8695 5.93774 19.3252 5.85613C19.7406 5.78175 19.8552 5.34113 19.9025 5.08693C20.0195 4.4583 19.9108 3.73966 19.7909 3.33403C19.6998 3.13239 19.5945 2.90425 19.5025 2.6645C19.4624 2.54988 19.4359 2.44957 19.253 2.11952" stroke="#FC5B44" stroke-width="2.88" stroke-linecap="round"/>
<path d="M19.2334 2.3291C19.3729 2.66482 19.4799 2.93856 19.5421 3.13337C19.5692 3.22738 19.5872 3.31154 19.5974 3.42239C19.6076 3.53325 19.6094 3.66826 19.6112 3.80736" stroke="#FFFAF5" stroke-width="0.72" stroke-linecap="round"/>
<path d="M19.7347 5.39092L19.6836 5.3916" stroke="#FFFAF5" stroke-width="0.72" stroke-linecap="round"/>
<path d="M12.668 12.4443L12.6688 12.5047" stroke="#FC5B44" stroke-width="0.72" stroke-linecap="round"/>
<path d="M17.4637 14.4933L17.4033 14.4941" stroke="#FC5B44" stroke-width="0.72" stroke-linecap="round"/>
<path d="M21.7754 11.9609L21.7762 12.0213" stroke="#FC5B44" stroke-width="0.72" stroke-linecap="round"/>
<path d="M26.1551 14.5578L26.0947 14.5586" stroke="#FC5B44" stroke-width="0.72" stroke-linecap="round"/>
<path d="M11.5186 16.7451L11.5194 16.8055" stroke="#FC5B44" stroke-width="0.72" stroke-linecap="round"/>
<path d="M21.0576 16.9795L21.0584 17.0398" stroke="#FC5B44" stroke-width="0.72" stroke-linecap="round"/>
</svg>
