<svg width="47" height="46" viewBox="0 0 47 46" fill="none" xmlns="http://www.w3.org/2000/svg">
<path d="M6.91003 20.3596C5.6653 21.0708 4.84626 21.7929 4.53238 22.5985C3.83714 24.3828 4.03798 25.9204 3.99083 30.5788C3.96414 33.2162 4.84087 34.8114 5.64913 36.5182C6.52723 38.3725 8.16017 39.2138 9.86696 40.2484C11.4127 41.1854 13.0098 41.3692 24.7351 41.5995C28.2871 41.6693 30.0697 41.1967 32.675 40.6134C34.7352 40.1522 36.1802 39.8496 38.3342 38.8649C40.4186 37.912 40.6742 35.2802 41.5727 32.6277C42.2104 30.7451 42.2045 24.4548 41.9364 20.6344C41.8208 18.9873 40.0545 17.6707 38.1712 16.4125C36.1974 15.0938 34.041 14.7017 31.6162 14.2544C30.0113 13.9584 21.2703 13.8934 15.5841 14.2059C13.7629 14.306 12.3955 15.0573 10.0623 16.2239C8.43064 17.0397 7.45427 18.646 6.64331 20.0847C5.87198 21.4531 5.65452 22.9568 5.69628 30.0305C5.7136 32.9658 7.62131 34.0947 8.92532 35.1738C9.75796 35.8628 10.7682 36.1639 13.8854 36.5667C21.7536 37.5834 28.1837 37.0665 30.0225 36.6179C31.239 36.3471 32.1415 36.0777 33.1263 35.7194C33.6665 35.5389 34.2888 35.361 35.1995 35.1778" stroke="#D9D9D9" stroke-width="7.98" stroke-linecap="round"/>
<path d="M17.1166 14.1211C15.8806 14.3688 14.974 14.5323 13.9622 14.6574C13.2023 14.7513 12.5788 15.1515 11.7119 15.4822C11.001 15.7533 10.1861 16.0184 9.44052 16.2463C8.74218 16.4598 7.79334 17.3758 7.0868 18.1028C6.46429 18.7433 5.93068 19.5258 5.51765 20.1048C5.06926 20.7333 5.14549 21.5073 4.87736 22.1687C4.0742 24.1497 4.89532 27.9474 5.14363 28.5883C5.41872 29.2983 6.13132 30.1346 7.57351 31.4133C8.52372 32.2558 10.4177 32.4493 12.1714 32.2876C13.439 32.1708 13.1943 30.225 13.1949 28.2372C13.1955 26.6168 13.0321 23.7564 12.8872 22.8548C12.5682 20.8698 12.3695 26.2544 12.3076 27.3226C12.267 28.0221 12.2865 29.0447 13.0222 27.9771C13.7578 26.9096 15.2291 23.7217 16.1914 21.8343C17.1537 19.9469 17.5624 19.4564 17.9773 20.8386C18.3922 22.2207 18.8009 25.4903 19.0114 27.4607C19.222 29.4311 19.222 30.0033 19.222 30.0324C19.222 30.0615 19.222 29.5302 19.5081 27.4991C19.7941 25.468 20.3663 21.9532 21.3559 22.2678C22.3454 22.5823 23.735 26.8328 24.4917 29.1042C25.2484 31.3755 25.3301 31.539 25.4131 31.5006C25.4961 31.4622 25.5778 31.217 26.0695 29.0267C26.5612 26.8365 27.4603 22.7087 28.7409 22.4009C30.0215 22.0931 31.6562 25.7305 32.8049 26.8891C33.9536 28.0477 34.5667 26.6173 34.9438 25.7987C35.4048 24.7978 35.7742 24.1986 36.1655 23.6196C36.2929 23.4311 36.516 23.6945 36.682 24.0245C37.9058 26.4586 37.7991 30.0095 37.7173 30.8145C37.6802 31.1801 35.1785 31.7012 30.8958 32.7936C28.7544 33.3398 26.6132 33.5998 24.8645 33.7682C21.8174 34.0617 19.8883 33.8141 18.96 33.567C18.5955 33.47 18.4814 33.3199 18.3569 33.0524C18.0532 32.3997 17.9018 31.3012 17.7779 29.3091C17.4274 23.6707 17.9414 22.5898 18.3736 21.9253C19.2688 20.5492 21.0784 19.0762 21.3664 18.87C21.6835 18.6429 23.4997 18.7034 26.098 18.7443C28.5968 18.7836 29.8283 19.0329 32.9566 19.4038C34.1502 19.5453 34.7004 20.3506 35.319 21.1148C35.5661 21.4231 35.9339 21.9136 36.2052 22.1867C36.4764 22.4597 36.6399 22.5006 36.8083 22.5427" stroke="#D9D9D9" stroke-width="7.98" stroke-linecap="round"/>
<path d="M15.5479 29.4658V29.8259" stroke="#0D0D0D" stroke-width="2.5" stroke-linecap="round"/>
<path d="M21.0479 29.4658V29.7059" stroke="#0D0D0D" stroke-width="2.5" stroke-linecap="round"/>
<path d="M15.4424 34.9684C16.4793 35.0885 17.9147 34.93 19.2583 34.8286C19.8374 34.7692 20.6775 34.7284 21.8938 34.7086C22.5557 34.6888 23.3082 34.6492 24.0835 34.6084" stroke="#0D0D0D" stroke-width="2" stroke-linecap="round"/>
<path d="M12.0133 17.6407C11.4922 16.4622 10.3945 14.2204 9.34287 12.1274C8.89498 11.236 8.50964 10.3835 8.37921 9.61638C8.3595 9.50047 8.55189 9.48737 8.69561 9.56045C9.48826 9.96344 10.1386 10.56 10.6563 10.8182C11.1908 11.0848 11.8146 11.3921 12.4833 11.6731C13.2183 11.9819 13.7843 12.2083 14.0279 12.2009C14.6565 12.1817 14.6211 10.9593 15.2521 9.07613C15.7595 7.56185 16.0134 6.76977 16.5041 5.41346C16.962 4.14744 17.1037 3.70624 17.2328 3.50456C17.2915 3.41288 17.4513 3.44981 17.6004 3.55486C18.4142 4.12831 18.9415 5.51598 19.6339 6.51569C20.1126 7.20687 20.6732 8.04016 21.169 8.64793C21.5255 9.08499 21.796 9.4594 21.9917 9.65525C22.0889 9.75256 22.2398 9.77756 22.3941 9.72032C23.1259 9.4488 23.4645 8.88755 24.4568 8.18314C25.1378 7.69968 25.7437 7.26356 26.29 6.91009C26.7918 6.58536 27.2504 6.48724 27.4228 6.4412C27.9165 6.30932 27.1212 7.64908 26.9173 8.68117C26.7919 9.31533 26.6305 10.7653 26.4056 12.0707C26.2702 12.8567 26.2289 13.6526 26.1683 14.3683C26.1028 14.657 26.0492 14.9289 26.0125 15.1961C25.9862 15.332 25.9443 15.4685 25.9331 15.8001" stroke="#FFDE09" stroke-width="2.8" stroke-linecap="round"/>
<path d="M11.6919 13.3766C12.1713 14.6926 13.2146 16.8149 13.5145 17.0439C14.0776 17.4739 13.3178 15.2689 13.0724 14.4892C13.0139 14.3034 12.9872 14.08 13.047 14.0504C13.8245 13.665 14.3846 15.6044 14.8647 15.9337C15.0165 16.0378 15.0766 15.8221 15.1006 15.5728C15.1557 14.9996 15.0398 14.0326 15.0587 13.372C15.0798 12.6357 15.9615 14.6554 16.0778 14.6702C17.7646 14.8858 16.4898 10.9726 16.4759 10.6962C16.3975 9.13678 17.5417 15.109 17.7377 15.3068C18.4573 16.0328 17.9438 11.2756 17.8091 9.37888C17.793 9.15243 17.7767 8.89564 17.7053 8.3694C17.6338 7.84315 17.502 7.05571 17.7818 8.24325C18.0616 9.43079 18.7572 12.6172 19.1918 14.424C19.6263 16.2308 19.7789 16.5614 19.7201 15.6214C19.5216 12.4494 19.2924 10.1412 19.6681 10.2401C21.5262 10.7296 21.782 14.654 22.102 15.0998C23.3426 16.8285 21.654 11.347 21.9002 11.6478C22.2378 12.0603 22.6978 13.484 23.3294 14.8207C23.916 16.0623 24.0092 12.7247 24.264 11.8941C24.5737 10.8847 24.2534 15.3194 24.1961 16.0758C24.101 17.3301 24.8879 12.9092 25.4433 11.3453C25.721 10.5634 25.6481 9.99612 25.4736 9.53423C25.3712 9.2631 23.8777 10.8676 22.098 12.7352C20.9445 13.9456 20.25 14.8517 19.073 15.6218C18.0769 16.2736 17.2139 16.2452 16.6282 16.4743C15.9516 16.739 15.0967 17.0904 14.5952 17.3216C13.9925 17.5995 13.259 17.8241 12.6906 17.9517C12.5818 17.9761 15.2047 17.6945 18.6745 17.1295C20.3559 16.8558 21.833 16.7806 23.016 16.6639C23.7923 16.5506 24.4104 16.4795 24.7667 16.4688C24.9918 16.4478 25.3068 16.3951 25.8382 16.4042" stroke="#FFDE09" stroke-width="2.8" stroke-linecap="round"/>
<path d="M7.75781 8.0498L7.78978 8.2407" stroke="#C8E1FF" stroke-width="2.8" stroke-linecap="round"/>
<path d="M17.3945 1.72656L17.4425 2.0129" stroke="#C8E1FF" stroke-width="2.8" stroke-linecap="round"/>
<path d="M28.5977 5.34473L28.6136 5.44017" stroke="#C8E1FF" stroke-width="2.8" stroke-linecap="round"/>
<path d="M17.8549 8.13555C17.6193 8.90453 17.4203 9.32134 17.1717 10.0735C17.1165 10.2406 17.069 10.3225 17.0622 10.4009C17.0308 10.7651 17.647 11.033 17.9761 11.2764C18.318 11.4789 18.5583 11.6503 18.7214 11.7666C18.8197 11.8366 18.9493 11.9291 19.139 12.015" stroke="#C8E1FF" stroke-width="1.4" stroke-linecap="round"/>
<path d="M18.0225 8.10645C18.2521 8.22081 19.095 8.6915 19.7158 9.04226C19.8157 9.09873 19.8764 9.1973 19.8976 9.31889C19.9864 9.82718 19.8326 10.2992 19.6198 10.9796C19.5311 11.2539 19.487 11.4551 19.4746 11.6105C19.4684 11.6889 19.4623 11.766 19.3999 11.8549" stroke="#C8E1FF" stroke-width="1.4" stroke-linecap="round"/>
</svg>
