<svg width="47" height="40" viewBox="0 0 47 40" fill="none" xmlns="http://www.w3.org/2000/svg">
<path d="M6.91003 14.4006C5.6653 15.1118 4.84626 15.8339 4.53238 16.6395C3.83714 18.4238 4.03798 19.9615 3.99083 24.6198C3.96414 27.2572 4.84087 28.8524 5.64913 30.5592C6.52723 32.4135 8.16017 33.2548 9.86696 34.2894C11.4127 35.2264 13.0098 35.4102 24.7351 35.6406C28.2871 35.7103 30.0697 35.2378 32.675 34.6545C34.7352 34.1932 36.1802 33.8906 38.3342 32.9059C40.4186 31.953 40.6742 29.3212 41.5727 26.6688C42.2104 24.7861 42.2045 18.4958 41.9364 14.6754C41.8208 13.0284 40.0545 11.7117 38.1712 10.4535C36.1974 9.13481 34.041 8.74268 31.6162 8.29544C30.0113 7.99942 21.2703 7.93441 15.5841 8.24694C13.7629 8.34704 12.3955 9.09832 10.0623 10.2649C8.43064 11.0808 7.45427 12.687 6.64331 14.1258C5.87198 15.4941 5.65452 16.9978 5.69628 24.0715C5.7136 27.0068 7.62131 28.1358 8.92532 29.2148C9.75796 29.9038 10.7682 30.2049 13.8854 30.6077C21.7536 31.6244 28.1837 31.1075 30.0225 30.6589C31.239 30.3881 32.1415 30.1187 33.1263 29.7604C33.6665 29.5799 34.2888 29.4021 35.1995 29.2189" stroke="#D9D9D9" stroke-width="7.98" stroke-linecap="round"/>
<path d="M17.1166 8.16211C15.8806 8.40981 14.974 8.57328 13.9622 8.69837C13.2023 8.79231 12.5788 9.19252 11.7119 9.52319C11.001 9.79433 10.1861 10.0594 9.44052 10.2873C8.74218 10.5008 7.79334 11.4168 7.0868 12.1438C6.46429 12.7843 5.93068 13.5668 5.51765 14.1458C5.06926 14.7743 5.14549 15.5484 4.87736 16.2097C4.0742 18.1907 4.89532 21.9884 5.14363 22.6293C5.41872 23.3393 6.13132 24.1756 7.57351 25.4543C8.52372 26.2968 10.4177 26.4903 12.1714 26.3287C13.439 26.2118 13.1943 24.266 13.1949 22.2782C13.1955 20.6578 13.0321 17.7974 12.8872 16.8958C12.5682 14.9109 12.3695 20.2954 12.3076 21.3636C12.267 22.0631 12.2865 23.0857 13.0222 22.0181C13.7578 20.9506 15.2291 17.7628 16.1914 15.8753C17.1537 13.9879 17.5624 13.4975 17.9773 14.8796C18.3922 16.2617 18.8009 19.5313 19.0114 21.5017C19.222 23.4721 19.222 24.0443 19.222 24.0734C19.222 24.1025 19.222 23.5712 19.5081 21.5401C19.7941 19.509 20.3663 15.9942 21.3559 16.3088C22.3454 16.6234 23.735 20.8738 24.4917 23.1452C25.2484 25.4165 25.3301 25.58 25.4131 25.5416C25.4961 25.5032 25.5778 25.258 26.0695 23.0678C26.5612 20.8775 27.4603 16.7497 28.7409 16.4419C30.0215 16.1342 31.6562 19.7716 32.8049 20.9301C33.9536 22.0887 34.5667 20.6583 34.9438 19.8397C35.4048 18.8388 35.7742 18.2396 36.1655 17.6606C36.2929 17.4722 36.516 17.7355 36.682 18.0656C37.9058 20.4996 37.7991 24.0505 37.7173 24.8555C37.6802 25.2211 35.1785 25.7422 30.8958 26.8346C28.7544 27.3808 26.6132 27.6408 24.8645 27.8093C21.8174 28.1027 19.8883 27.8551 18.96 27.608C18.5955 27.511 18.4814 27.3609 18.3569 27.0934C18.0532 26.4407 17.9018 25.3422 17.7779 23.3501C17.4274 17.7117 17.9414 16.6308 18.3736 15.9663C19.2688 14.5903 21.0784 13.1172 21.3664 12.911C21.6835 12.6839 23.4997 12.7445 26.098 12.7853C28.5968 12.8246 29.8283 13.0739 32.9566 13.4448C34.1502 13.5863 34.7004 14.3916 35.319 15.1558C35.5661 15.4641 35.9339 15.9546 36.2052 16.2277C36.4764 16.5008 36.6399 16.5416 36.8083 16.5837" stroke="#D9D9D9" stroke-width="7.98" stroke-linecap="round"/>
<path d="M15.5479 23.5068V23.8669" stroke="#0D0D0D" stroke-width="2.5" stroke-linecap="round"/>
<path d="M21.0479 23.5068V23.7469" stroke="#0D0D0D" stroke-width="2.5" stroke-linecap="round"/>
<path d="M15.4424 29.0095C16.4793 29.1295 17.9147 28.971 19.2583 28.8696C19.8374 28.8102 20.6775 28.7694 21.8938 28.7496C22.5557 28.7298 23.3082 28.6902 24.0835 28.6494" stroke="#0D0D0D" stroke-width="2" stroke-linecap="round"/>
<path d="M4.77783 10.8492C5.14932 9.88729 6.38279 7.78132 7.24465 6.65489C8.0431 5.61134 9.11845 4.74336 10.2581 3.9246C11.3282 3.15587 12.605 2.94303 13.5054 2.7577C14.6817 2.53905 15.7799 2.48635 17.5449 2.6796C18.6745 2.88197 20.7025 3.28681 22.792 3.70391" stroke="#AE6163" stroke-width="5.12" stroke-linecap="round"/>
<path d="M4.83063 11.2671C6.05586 11.6476 8.97607 12.0511 9.72225 12.0627C10.6295 12.0769 11.7363 11.8325 12.8852 11.5398C13.7057 11.3307 14.5878 10.9524 16.3945 10.2933C17.3836 9.93241 18.2832 9.46836 19.0435 8.96275C19.7532 8.49084 20.4285 8.03931 20.9657 7.39807C21.5678 6.67941 21.9025 5.88617 22.1948 5.21848C22.2671 5.0535 22.2865 4.87511 21.9936 4.88123C20.1547 4.91966 19.1468 5.64609 18.0509 5.90523C17.1258 6.12397 16.2775 6.61517 15.4317 6.87802C14.3199 7.22353 12.7468 7.76493 11.5314 8.13891C10.4715 8.44877 9.74807 8.66738 9.31744 8.78469C9.11978 8.85876 8.96449 8.96237 8.67374 9.04302" stroke="#AE6163" stroke-width="5.12" stroke-linecap="round"/>
<path d="M13.1676 3.35791C13.1806 3.29285 13.1936 3.22779 13.236 3.09993C13.2785 2.97206 13.35 2.78337 13.4433 2.49038" stroke="#EAAB74" stroke-width="0.32" stroke-linecap="round"/>
<path d="M16.9133 3.5925C16.9459 3.599 16.9784 3.60549 17.0537 3.56978C17.129 3.53407 17.2461 3.45596 17.5046 3.198" stroke="#EAAB74" stroke-width="0.32" stroke-linecap="round"/>
<path d="M19.7139 7.02148L20.8968 7.25762" stroke="#EAAB74" stroke-width="0.32" stroke-linecap="round"/>
<path d="M15.2188 7.96973L15.8301 8.50179" stroke="#EAAB74" stroke-width="0.32" stroke-linecap="round"/>
<path d="M12.025 6.51177C11.947 6.56385 11.8689 6.61592 11.7702 6.6818C11.6714 6.74768 11.5543 6.8258 11.2366 6.86692" stroke="#EAAB74" stroke-width="0.32" stroke-linecap="round"/>
<path d="M8.83257 11.2059C8.89763 11.2189 8.96269 11.2319 9.11656 11.2288C9.27043 11.2256 9.51113 11.206 9.87739 11.1069" stroke="#EAAB74" stroke-width="0.32" stroke-linecap="round"/>
<path d="M7.27419 7.20371L6.80117 7.51931" stroke="#EAAB74" stroke-width="0.32" stroke-linecap="round"/>
</svg>
