<svg width="47" height="48" viewBox="0 0 47 48" fill="none" xmlns="http://www.w3.org/2000/svg">
<path d="M6.91003 22.2599C5.6653 22.9712 4.84626 23.6933 4.53238 24.4989C3.83714 26.2832 4.03798 27.8208 3.99083 32.4792C3.96414 35.1166 4.84087 36.7118 5.64913 38.4186C6.52723 40.2729 8.16017 41.1142 9.86696 42.1488C11.4127 43.0857 13.0098 43.2696 24.7351 43.4999C28.2871 43.5697 30.0697 43.0971 32.675 42.5138C34.7352 42.0526 36.1802 41.75 38.3342 40.7653C40.4186 39.8124 40.6742 37.1806 41.5727 34.5281C42.2104 32.6455 42.2045 26.3552 41.9364 22.5348C41.8208 20.8877 40.0545 19.5711 38.1712 18.3129C36.1974 16.9942 34.041 16.6021 31.6162 16.1548C30.0113 15.8588 21.2703 15.7938 15.5841 16.1063C13.7629 16.2064 12.3955 16.9577 10.0623 18.1243C8.43064 18.9401 7.45427 20.5464 6.64331 21.9851C5.87198 23.3535 5.65452 24.8572 5.69628 31.9309C5.7136 34.8662 7.62131 35.9951 8.92532 37.0742C9.75796 37.7632 10.7682 38.0643 13.8854 38.4671C21.7536 39.4838 28.1837 38.9669 30.0225 38.5183C31.239 38.2475 32.1415 37.9781 33.1263 37.6198C33.6665 37.4392 34.2888 37.2614 35.1995 37.0782" stroke="#D9D9D9" stroke-width="7.98" stroke-linecap="round"/>
<path d="M17.1166 16.0215C15.8806 16.2692 14.974 16.4327 13.9622 16.5577C13.2023 16.6517 12.5788 17.0519 11.7119 17.3826C11.001 17.6537 10.1861 17.9188 9.44052 18.1467C8.74218 18.3602 7.79334 19.2762 7.0868 20.0032C6.46429 20.6437 5.93068 21.4262 5.51765 22.0052C5.06926 22.6337 5.14549 23.4077 4.87736 24.0691C4.0742 26.0501 4.89532 29.8478 5.14363 30.4887C5.41872 31.1987 6.13132 32.0349 7.57351 33.3137C8.52372 34.1562 10.4177 34.3497 12.1714 34.188C13.439 34.0712 13.1943 32.1254 13.1949 30.1376C13.1955 28.5172 13.0321 25.6568 12.8872 24.7552C12.5682 22.7702 12.3695 28.1548 12.3076 29.223C12.267 29.9225 12.2865 30.9451 13.0222 29.8775C13.7578 28.81 15.2291 25.6221 16.1914 23.7347C17.1537 21.8473 17.5624 21.3568 17.9773 22.739C18.3922 24.1211 18.8009 27.3907 19.0114 29.3611C19.222 31.3315 19.222 31.9037 19.222 31.9328C19.222 31.9619 19.222 31.4306 19.5081 29.3995C19.7941 27.3684 20.3663 23.8536 21.3559 24.1682C22.3454 24.4827 23.735 28.7332 24.4917 31.0045C25.2484 33.2759 25.3301 33.4394 25.4131 33.401C25.4961 33.3626 25.5778 33.1174 26.0695 30.9271C26.5612 28.7369 27.4603 24.6091 28.7409 24.3013C30.0215 23.9935 31.6562 27.6309 32.8049 28.7895C33.9536 29.9481 34.5667 28.5177 34.9438 27.699C35.4048 26.6982 35.7742 26.0989 36.1655 25.52C36.2929 25.3315 36.516 25.5949 36.682 25.9249C37.9058 28.359 37.7991 31.9099 37.7173 32.7149C37.6802 33.0805 35.1785 33.6016 30.8958 34.6939C28.7544 35.2402 26.6132 35.5002 24.8645 35.6686C21.8174 35.9621 19.8883 35.7145 18.96 35.4674C18.5955 35.3704 18.4814 35.2203 18.3569 34.9528C18.0532 34.3001 17.9018 33.2016 17.7779 31.2095C17.4274 25.5711 17.9414 24.4902 18.3736 23.8257C19.2688 22.4496 21.0784 20.9766 21.3664 20.7704C21.6835 20.5433 23.4997 20.6038 26.098 20.6447C28.5968 20.684 29.8283 20.9333 32.9566 21.3042C34.1502 21.4457 34.7004 22.251 35.319 23.0151C35.5661 23.3235 35.9339 23.814 36.2052 24.087C36.4764 24.3601 36.6399 24.401 36.8083 24.4431" stroke="#D9D9D9" stroke-width="7.98" stroke-linecap="round"/>
<path d="M15.5479 31.3662V31.7263" stroke="#0D0D0D" stroke-width="2.5" stroke-linecap="round"/>
<path d="M21.0479 31.3662V31.6062" stroke="#0D0D0D" stroke-width="2.5" stroke-linecap="round"/>
<path d="M15.4424 36.8688C16.4793 36.9888 17.9147 36.8304 19.2583 36.729C19.8374 36.6696 20.6775 36.6288 21.8938 36.609C22.5557 36.5892 23.3082 36.5496 24.0835 36.5088" stroke="#0D0D0D" stroke-width="2" stroke-linecap="round"/>
<path d="M14.8438 10.0537C13.0652 10.2152 12.2579 10.5369 11.286 11.4662C10.5903 12.1315 10.6772 13.1253 10.6347 14.5202C10.6079 15.3994 11.3206 16.0002 11.9276 16.5872C12.4856 17.1267 13.2218 17.2555 14.777 17.318C15.6618 17.3536 16.4585 16.935 17.1481 16.5101C17.4637 16.3156 17.9567 15.9249 18.5224 15.279C19.0249 14.7053 19.093 13.6619 19.053 12.6105C19.0162 11.6445 18.1242 11.1488 17.5172 10.9041C16.7587 10.5985 15.6572 10.702 12.9529 10.7408C11.9094 10.7558 11.3655 11.3467 11.022 11.7303C10.4834 12.3317 10.3129 13.1665 10.1096 13.8148C9.79354 14.8225 10.1478 16.4032 10.6729 17.1529C11.3896 18.1762 12.2506 18.1466 12.9997 18.2079C14.15 18.3021 15.7714 18.2292 16.5204 18.027C17.2561 17.8285 17.8353 17.5007 18.5036 17.1978C19.2766 16.8475 19.7778 16.2478 20.0436 15.6007C20.3831 14.7746 20.1857 13.742 20.0448 12.9699C19.9195 12.2826 19.297 11.7971 18.832 11.2896C18.3575 10.7717 17.6799 10.6607 16.9715 10.4592C16.019 10.3378 15.5334 10.1751 15.3908 10.1751C15.4084 10.1751 15.2504 10.3144 15.6996 9.9502" stroke="#FF0000" stroke-width="9" stroke-linecap="round"/>
<path d="M14.7178 7.53956C14.7178 7.01374 14.8346 5.98334 15.1723 4.51121C15.4987 3.08846 16.2209 2.34773 16.7348 1.96576C17.57 1.40851 18.3445 1.01901 19.108 0.930488C19.6086 0.900391 20.3389 0.900391 21.0914 0.900391" stroke="#62A565" stroke-width="1.8" stroke-linecap="round"/>
<path d="M21.0916 0.900391C21.0916 1.54749 21.0331 2.31321 20.8415 2.87532C20.6162 3.5361 20.3267 4.20227 20.0156 4.69047C19.6906 5.20037 17.7135 6.11612 16.5787 6.63884C16.4601 6.68355 16.3432 6.71276 16.1954 6.75702C16.0476 6.80128 15.8723 6.85971 15.5146 7.09695" stroke="#62A565" stroke-width="1.8" stroke-linecap="round"/>
<path d="M17.5508 2.58243C17.4339 2.69928 16.8479 3.84033 16.431 4.93756C15.943 6.22174 18.1404 2.64262 18.2143 2.58243C18.8869 2.03464 17.7872 4.20416 17.7867 4.29356C17.7856 4.52732 18.49 3.23838 19.2279 2.42486C19.8882 1.69674 19.0265 4.11563 19.0844 4.07359C19.6224 3.68347 19.7913 2.76213 20.0719 2.49523C20.6331 1.96146 19.6762 3.90849 19.5142 4.028C19.4089 2.99937 19.6744 2.11149 19.8364 1.87602C19.9108 1.7574 19.9692 1.64055 20.295 1.43164" stroke="#62A565" stroke-width="1.8" stroke-linecap="round"/>
</svg>
