<svg width="47" height="40" viewBox="0 0 47 40" fill="none" xmlns="http://www.w3.org/2000/svg">
<path d="M6.91003 14.3596C5.6653 15.0708 4.84626 15.7929 4.53238 16.5985C3.83714 18.3828 4.03798 19.9204 3.99083 24.5788C3.96414 27.2162 4.84087 28.8114 5.64913 30.5182C6.52723 32.3725 8.16017 33.2138 9.86696 34.2484C11.4127 35.1854 13.0098 35.3692 24.7351 35.5995C28.2871 35.6693 30.0697 35.1967 32.675 34.6134C34.7352 34.1522 36.1802 33.8496 38.3342 32.8649C40.4186 31.912 40.6742 29.2802 41.5727 26.6277C42.2104 24.7451 42.2045 18.4548 41.9364 14.6344C41.8208 12.9873 40.0545 11.6707 38.1712 10.4125C36.1974 9.09379 34.041 8.70166 31.6162 8.25442C30.0113 7.95841 21.2703 7.8934 15.5841 8.20593C13.7629 8.30602 12.3955 9.0573 10.0623 10.2239C8.43064 11.0397 7.45427 12.646 6.64331 14.0847C5.87198 15.4531 5.65452 16.9568 5.69628 24.0305C5.7136 26.9658 7.62131 28.0947 8.92532 29.1738C9.75796 29.8628 10.7682 30.1639 13.8854 30.5667C21.7536 31.5834 28.1837 31.0665 30.0225 30.6179C31.239 30.3471 32.1415 30.0777 33.1263 29.7194C33.6665 29.5389 34.2888 29.361 35.1995 29.1778" stroke="#D9D9D9" stroke-width="7.98" stroke-linecap="round"/>
<path d="M17.1166 8.12109C15.8806 8.36879 14.974 8.53227 13.9622 8.65735C13.2023 8.75129 12.5788 9.1515 11.7119 9.48217C11.001 9.75331 10.1861 10.0184 9.44052 10.2463C8.74218 10.4598 7.79334 11.3758 7.0868 12.1028C6.46429 12.7433 5.93068 13.5258 5.51765 14.1048C5.06926 14.7333 5.14549 15.5073 4.87736 16.1687C4.0742 18.1497 4.89532 21.9474 5.14363 22.5883C5.41872 23.2983 6.13132 24.1346 7.57351 25.4133C8.52372 26.2558 10.4177 26.4493 12.1714 26.2876C13.439 26.1708 13.1943 24.225 13.1949 22.2372C13.1955 20.6168 13.0321 17.7564 12.8872 16.8548C12.5682 14.8698 12.3695 20.2544 12.3076 21.3226C12.267 22.0221 12.2865 23.0447 13.0222 21.9771C13.7578 20.9096 15.2291 17.7217 16.1914 15.8343C17.1537 13.9469 17.5624 13.4564 17.9773 14.8386C18.3922 16.2207 18.8009 19.4903 19.0114 21.4607C19.222 23.4311 19.222 24.0033 19.222 24.0324C19.222 24.0615 19.222 23.5302 19.5081 21.4991C19.7941 19.468 20.3663 15.9532 21.3559 16.2678C22.3454 16.5823 23.735 20.8328 24.4917 23.1042C25.2484 25.3755 25.3301 25.539 25.4131 25.5006C25.4961 25.4622 25.5778 25.217 26.0695 23.0267C26.5612 20.8365 27.4603 16.7087 28.7409 16.4009C30.0215 16.0931 31.6562 19.7305 32.8049 20.8891C33.9536 22.0477 34.5667 20.6173 34.9438 19.7987C35.4048 18.7978 35.7742 18.1986 36.1655 17.6196C36.2929 17.4311 36.516 17.6945 36.682 18.0245C37.9058 20.4586 37.7991 24.0095 37.7173 24.8145C37.6802 25.1801 35.1785 25.7012 30.8958 26.7936C28.7544 27.3398 26.6132 27.5998 24.8645 27.7682C21.8174 28.0617 19.8883 27.8141 18.96 27.567C18.5955 27.47 18.4814 27.3199 18.3569 27.0524C18.0532 26.3997 17.9018 25.3012 17.7779 23.3091C17.4274 17.6707 17.9414 16.5898 18.3736 15.9253C19.2688 14.5492 21.0784 13.0762 21.3664 12.87C21.6835 12.6429 23.4997 12.7034 26.098 12.7443C28.5968 12.7836 29.8283 13.0329 32.9566 13.4038C34.1502 13.5453 34.7004 14.3506 35.319 15.1148C35.5661 15.4231 35.9339 15.9136 36.2052 16.1867C36.4764 16.4597 36.6399 16.5006 36.8083 16.5427" stroke="#D9D9D9" stroke-width="7.98" stroke-linecap="round"/>
<path d="M15.5479 23.4658V23.8259" stroke="#0D0D0D" stroke-width="2.5" stroke-linecap="round"/>
<path d="M21.0479 23.4658V23.7059" stroke="#0D0D0D" stroke-width="2.5" stroke-linecap="round"/>
<path d="M15.4424 28.9684C16.4793 29.0885 17.9147 28.93 19.2583 28.8286C19.8374 28.7692 20.6775 28.7284 21.8938 28.7086C22.5557 28.6888 23.3082 28.6492 24.0835 28.6084" stroke="#0D0D0D" stroke-width="2" stroke-linecap="round"/>
<path d="M14.8397 3.50482C13.7293 3.62381 11.2787 3.91512 10.057 4.60634C8.74139 5.35072 8.3648 7.33003 8.33927 8.4377C8.30982 9.71559 9.14513 11.3001 9.88775 11.853C10.6905 12.4506 12.2592 13.0281 14.8031 13.1273C19.0034 13.291 20.1031 11.3209 21.2734 10.531C21.9989 10.0413 22.5465 9.27778 22.9173 8.58216C23.6436 7.21982 22.267 5.13129 21.6456 4.41128C21.0377 3.70705 20.2136 3.29534 19.1055 2.9182C17.9109 2.51163 16.9922 2.68596 15.5095 2.86979C13.5749 3.10965 12.228 3.78278 11.8693 4.09236C11.5107 4.40194 11.2132 4.75187 11.0472 5.17612C10.6667 6.14823 11.2713 7.57885 12.0413 8.89395C12.539 9.74413 13.0836 10.1942 13.4759 10.3412C13.6663 10.4126 13.8804 10.3224 14.0295 10.149C14.6892 9.38181 14.2498 8.09866 14.1686 6.69347C14.1498 6.36859 14.1277 6.10147 14.2226 5.9377C14.3175 5.77393 14.5213 5.72223 14.7031 5.78458C15.6678 6.11541 16.4461 8.1266 17.0414 9.27153C17.3863 9.93485 17.8212 6.43334 18.1224 5.2204C18.826 5.83328 19.2915 6.37261 19.5756 6.73773C19.7061 6.92486 19.8088 7.11577 19.9537 7.46688" stroke="#FF7B00" stroke-width="5" stroke-linecap="round"/>
<path d="M16.5437 2.00924C16.4887 2.05671 16.4338 2.10417 16.044 2.42139C15.6543 2.73861 14.9314 3.32415 14.5041 3.67326C14.0767 4.02237 13.9668 4.11729 13.5914 4.38314" stroke="#0B7F28" stroke-width="0.5" stroke-linecap="round"/>
<path d="M13.418 2.49707C14.1552 2.6127 15.1117 2.91237 15.8643 3.07689C16.1869 3.1474 16.4516 3.24987 16.702 3.3722C16.8339 3.42403 16.9759 3.45505 17.4326 3.50982" stroke="#0B7F28" stroke-width="0.5" stroke-linecap="round"/>
<path d="M15.1094 1.56055C15.1568 1.61553 15.2043 1.67052 15.3246 2.07671C15.4449 2.48289 15.6366 3.2386 15.8341 4.01721" stroke="#0B7F28" stroke-width="0.5" stroke-linecap="round"/>
<path d="M15.3945 9.36133L15.7917 9.44814" stroke="#0D0D0D" stroke-width="0.3" stroke-linecap="round"/>
<path d="M9.34766 7.70605L9.43707 8.05851" stroke="#0D0D0D" stroke-width="0.3" stroke-linecap="round"/>
<path d="M19.8516 5.51562L20.1172 5.82337" stroke="#0D0D0D" stroke-width="0.3" stroke-linecap="round"/>
<path d="M20.5996 9.91602L20.689 10.2685" stroke="#0D0D0D" stroke-width="0.3" stroke-linecap="round"/>
<path d="M12.1441 12.8114L12.4071 12.3696" stroke="#0D0D0D" stroke-width="0.3" stroke-linecap="round"/>
</svg>
