<svg width="47" height="51" viewBox="0 0 47 51" fill="none" xmlns="http://www.w3.org/2000/svg">
<path d="M6.91003 25.3596C5.6653 26.0708 4.84626 26.7929 4.53238 27.5985C3.83714 29.3828 4.03798 30.9204 3.99083 35.5788C3.96414 38.2162 4.84087 39.8114 5.64913 41.5182C6.52723 43.3725 8.16017 44.2138 9.86696 45.2484C11.4127 46.1854 13.0098 46.3692 24.7351 46.5995C28.2871 46.6693 30.0697 46.1967 32.675 45.6134C34.7352 45.1522 36.1802 44.8496 38.3342 43.8649C40.4186 42.912 40.6742 40.2802 41.5727 37.6277C42.2104 35.7451 42.2045 29.4548 41.9364 25.6344C41.8208 23.9873 40.0545 22.6707 38.1712 21.4125C36.1974 20.0938 34.041 19.7017 31.6162 19.2544C30.0113 18.9584 21.2703 18.8934 15.5841 19.2059C13.7629 19.306 12.3955 20.0573 10.0623 21.2239C8.43064 22.0397 7.45427 23.646 6.64331 25.0847C5.87198 26.4531 5.65452 27.9568 5.69628 35.0305C5.7136 37.9658 7.62131 39.0947 8.92532 40.1738C9.75796 40.8628 10.7682 41.1639 13.8854 41.5667C21.7536 42.5834 28.1837 42.0665 30.0225 41.6179C31.239 41.3471 32.1415 41.0777 33.1263 40.7194C33.6665 40.5389 34.2888 40.361 35.1995 40.1778" stroke="#D9D9D9" stroke-width="7.98" stroke-linecap="round"/>
<path d="M17.1166 19.1211C15.8806 19.3688 14.974 19.5323 13.9622 19.6574C13.2023 19.7513 12.5788 20.1515 11.7119 20.4822C11.001 20.7533 10.1861 21.0184 9.44052 21.2463C8.74218 21.4598 7.79334 22.3758 7.0868 23.1028C6.46429 23.7433 5.93068 24.5258 5.51765 25.1048C5.06926 25.7333 5.14549 26.5073 4.87736 27.1687C4.0742 29.1497 4.89532 32.9474 5.14363 33.5883C5.41872 34.2983 6.13132 35.1346 7.57351 36.4133C8.52372 37.2558 10.4177 37.4493 12.1714 37.2876C13.439 37.1708 13.1943 35.225 13.1949 33.2372C13.1955 31.6168 13.0321 28.7564 12.8872 27.8548C12.5682 25.8698 12.3695 31.2544 12.3076 32.3226C12.267 33.0221 12.2865 34.0447 13.0222 32.9771C13.7578 31.9096 15.2291 28.7217 16.1914 26.8343C17.1537 24.9469 17.5624 24.4564 17.9773 25.8386C18.3922 27.2207 18.8009 30.4903 19.0114 32.4607C19.222 34.4311 19.222 35.0033 19.222 35.0324C19.222 35.0615 19.222 34.5302 19.5081 32.4991C19.7941 30.468 20.3663 26.9532 21.3559 27.2678C22.3454 27.5823 23.735 31.8328 24.4917 34.1042C25.2484 36.3755 25.3301 36.539 25.4131 36.5006C25.4961 36.4622 25.5778 36.217 26.0695 34.0267C26.5612 31.8365 27.4603 27.7087 28.7409 27.4009C30.0215 27.0931 31.6562 30.7305 32.8049 31.8891C33.9536 33.0477 34.5667 31.6173 34.9438 30.7987C35.4048 29.7978 35.7742 29.1986 36.1655 28.6196C36.2929 28.4311 36.516 28.6945 36.682 29.0245C37.9058 31.4586 37.7991 35.0095 37.7173 35.8145C37.6802 36.1801 35.1785 36.7012 30.8958 37.7936C28.7544 38.3398 26.6132 38.5998 24.8645 38.7682C21.8174 39.0617 19.8883 38.8141 18.96 38.567C18.5955 38.47 18.4814 38.3199 18.3569 38.0524C18.0532 37.3997 17.9018 36.3012 17.7779 34.3091C17.4274 28.6707 17.9414 27.5898 18.3736 26.9253C19.2688 25.5492 21.0784 24.0762 21.3664 23.87C21.6835 23.6429 23.4997 23.7034 26.098 23.7443C28.5968 23.7836 29.8283 24.0329 32.9566 24.4038C34.1502 24.5453 34.7004 25.3506 35.319 26.1148C35.5661 26.4231 35.9339 26.9136 36.2052 27.1867C36.4764 27.4597 36.6399 27.5006 36.8083 27.5427" stroke="#D9D9D9" stroke-width="7.98" stroke-linecap="round"/>
<path d="M15.5479 34.4658V34.8259" stroke="#0D0D0D" stroke-width="2.5" stroke-linecap="round"/>
<path d="M21.0479 34.4658V34.7059" stroke="#0D0D0D" stroke-width="2.5" stroke-linecap="round"/>
<path d="M15.4424 39.9684C16.4793 40.0885 17.9147 39.93 19.2583 39.8286C19.8374 39.7692 20.6775 39.7284 21.8938 39.7086C22.5557 39.6888 23.3082 39.6492 24.0835 39.6084" stroke="#0D0D0D" stroke-width="2" stroke-linecap="round"/>
<path d="M25.0475 11.6374C23.8867 11.5093 22.7596 11.522 20.3046 12.1421C18.365 12.632 15.0723 13.6855 13.2432 14.2654C10.5851 15.1082 9.65383 15.6522 8.48661 16.2654C7.07401 17.0074 6.62446 17.7411 5.92449 18.7538C5.79242 18.9448 5.99813 19.0779 6.23157 19.1201C7.29883 19.3133 8.36435 19.3036 9.40323 19.2271C10.3183 19.1598 12.4929 18.3625 14.1233 17.7074C15.481 17.1619 16.1659 16.8427 16.8911 16.613C17.7703 16.3345 18.4527 15.8966 19.334 15.4916C20.3012 15.0472 21.3645 14.4625 22.2089 14.0025C22.9201 13.615 23.4913 13.2361 24.0498 12.8035C24.2026 12.7043 24.3702 12.6193 24.5692 12.4236C24.7682 12.2279 24.9935 11.924 25.021 11.4592" stroke="#FFA24F" stroke-width="5.4" stroke-linecap="round"/>
<path d="M28.0722 17.3359C27.8542 17.7006 26.2677 19.984 24.6819 21.5553C23.6007 22.6266 21.0759 23.5013 19.7966 24.0123C18.87 24.3824 18.2327 24.6247 16.6969 25.0946C15.5675 25.4401 14.7398 25.628 13.9765 25.8033C12.8064 26.072 11.6525 26.0884 10.8023 26.0932C10.0022 26.0304 9.25689 25.898 8.54517 25.716C8.37014 25.6655 8.18502 25.6329 7.99429 25.5994" stroke="#FFA24F" stroke-width="5.4" stroke-linecap="round"/>
<path d="M5.08667 21.6555C5.3904 21.6713 6.2697 21.4797 8.683 21.1062C9.92279 20.9143 10.9604 20.5717 11.823 20.4422C12.7184 20.3077 13.6322 19.9617 14.4345 19.736C15.2613 19.5034 16.3694 19.1909 17.2323 18.9562C17.9731 18.7547 18.728 18.5073 19.7658 18.2461C20.8375 17.9765 21.6927 17.4295 22.5917 17.1439C24.0779 16.6718 24.6497 16.0798 25.3405 15.719C26.0822 15.3317 26.7667 15.0078 27.6637 14.509C28.4367 14.1815 28.8849 13.9319 29.2191 13.8372C29.377 13.7687 29.5108 13.6587 29.6488 13.5453" stroke="#EC0808" stroke-width="7.56" stroke-linecap="round"/>
<path d="M32.6561 13.2899C31.7913 12.6488 30.1288 11.5948 29.824 11.7433C29.1779 12.0581 28.7869 12.4312 28.4082 12.8411C28.0988 13.176 27.9279 13.5084 27.8935 13.8564C27.7655 15.1481 28.2532 15.7015 28.2156 16.1989C28.1992 16.4157 28.037 16.5631 27.8645 16.6749C27.4312 16.9557 26.6183 16.8614 25.9363 16.8077C24.7414 16.7136 24.1552 16.0897 23.025 15.7745C21.9003 15.4609 21.219 16.1606 20.3504 16.8229C19.2632 17.6519 19.4703 18.3517 19.1981 19.0033C18.8427 19.854 18.0072 20.3302 17.4706 20.4875C16.7558 20.6971 15.8796 20.4066 14.9223 19.9384C14.071 19.5221 13.4239 18.9772 12.9652 18.8471C12.2537 18.6454 10.7944 19.124 9.88875 19.5088C9.12909 19.8315 8.82778 21.9593 8.71282 23.037C8.65544 23.5749 8.11604 23.7837 7.89245 23.8428C7.39781 23.8226 6.86056 23.5748 6.14578 23.09C5.59876 22.6998 4.67757 22.0169 3.65526 21.1689" stroke="#FF0004" stroke-width="0.648" stroke-linecap="round"/>
<path d="M31.3267 11.3129C31.3502 12.0494 31.2388 12.686 30.8457 13.3998C30.5389 13.957 30.1617 14.2629 29.9004 14.3535C28.8846 14.7055 27.7739 14.3258 27.3079 14.2651C26.5968 14.1725 25.5749 14.1339 24.9118 14.2753C24.291 14.4078 23.5931 14.9789 23.0876 15.6396C22.7958 16.0209 22.7516 16.6368 22.6035 17.3246C22.5108 17.7552 21.9453 18.4975 21.3689 18.993C20.9084 19.3889 20.4031 19.2845 19.8701 19.3544C19.3826 19.4182 18.5465 18.9589 17.8518 18.7151C17.1272 18.4609 16.6761 18.2338 15.9619 18.0644C15.1909 17.8814 14.3004 18.12 13.4108 18.4842C12.579 18.8248 12.1809 19.6758 11.0408 21.1524C10.5485 21.7899 9.85826 21.9191 9.35839 21.9856C8.82342 22.0568 8.28968 21.9296 7.55081 21.772C6.8293 21.5084 6.17202 21.2609 5.5531 21.1026C5.41641 21.0621 5.32542 21.0244 4.97097 20.9725" stroke="#FFF200" stroke-width="0.648" stroke-linecap="round"/>
<path d="M9.36995 14.5867C9.18463 14.7741 8.9993 14.9615 8.83336 15.1218C8.66743 15.2821 8.52649 15.4096 8.38129 15.541" stroke="#ED7003" stroke-width="0.648" stroke-linecap="round"/>
<path d="M12.5537 14.2754L11.9483 15.092" stroke="#ED7003" stroke-width="0.648" stroke-linecap="round"/>
<path d="M15.5996 13.5811L15.2633 14.0347" stroke="#ED7003" stroke-width="0.648" stroke-linecap="round"/>
<path d="M19.3174 11.9785L18.4429 13.1581" stroke="#ED7003" stroke-width="0.648" stroke-linecap="round"/>
<path d="M22.8408 11.7783L22.5045 12.232" stroke="#ED7003" stroke-width="0.648" stroke-linecap="round"/>
<path d="M9.85742 26.332L9.46056 26.8674" stroke="#ED7003" stroke-width="0.648" stroke-linecap="round"/>
<path d="M14.5986 25.5322L14.043 26.2817" stroke="#ED7003" stroke-width="0.648" stroke-linecap="round"/>
<path d="M18.1406 25.0068L17.585 25.7563" stroke="#ED7003" stroke-width="0.648" stroke-linecap="round"/>
<path d="M21.7305 23.5205L21.3613 24.2423" stroke="#ED7003" stroke-width="0.648" stroke-linecap="round"/>
</svg>
