<svg width="47" height="47" viewBox="0 0 47 47" fill="none" xmlns="http://www.w3.org/2000/svg">
<path d="M6.91003 20.7746C5.6653 21.4859 4.84626 22.2079 4.53238 23.0135C3.83714 24.7978 4.03798 26.3355 3.99083 30.9938C3.96414 33.6312 4.84087 35.2265 5.64913 36.9333C6.52723 38.7875 8.16017 39.6288 9.86696 40.6634C11.4127 41.6004 13.0098 41.7842 24.7351 42.0146C28.2871 42.0844 30.0697 41.6118 32.675 41.0285C34.7352 40.5672 36.1802 40.2647 38.3342 39.2799C40.4186 38.327 40.6742 35.6953 41.5727 33.0428C42.2104 31.1602 42.2045 24.8698 41.9364 21.0494C41.8208 19.4024 40.0545 18.0857 38.1712 16.8275C36.1974 15.5088 34.041 15.1167 31.6162 14.6695C30.0113 14.3734 21.2703 14.3084 15.5841 14.621C13.7629 14.7211 12.3955 15.4723 10.0623 16.6389C8.43064 17.4548 7.45427 19.0611 6.64331 20.4998C5.87198 21.8682 5.65452 23.3718 5.69628 30.4455C5.7136 33.3808 7.62131 34.5098 8.92532 35.5888C9.75796 36.2778 10.7682 36.579 13.8854 36.9818C21.7536 37.9984 28.1837 37.4815 30.0225 37.0329C31.239 36.7622 32.1415 36.4927 33.1263 36.1344C33.6665 35.9539 34.2888 35.7761 35.1995 35.5929" stroke="#D9D9D9" stroke-width="7.98" stroke-linecap="round"/>
<path d="M17.1166 14.5361C15.8806 14.7838 14.974 14.9473 13.9622 15.0724C13.2023 15.1663 12.5788 15.5665 11.7119 15.8972C11.001 16.1684 10.1861 16.4335 9.44052 16.6614C8.74218 16.8748 7.79334 17.7908 7.0868 18.5178C6.46429 19.1583 5.93068 19.9408 5.51765 20.5198C5.06926 21.1484 5.14549 21.9224 4.87736 22.5837C4.0742 24.5647 4.89532 28.3625 5.14363 29.0034C5.41872 29.7134 6.13132 30.5496 7.57351 31.8283C8.52372 32.6708 10.4177 32.8643 12.1714 32.7027C13.439 32.5859 13.1943 30.64 13.1949 28.6523C13.1955 27.0318 13.0321 24.1715 12.8872 23.2698C12.5682 21.2849 12.3695 26.6695 12.3076 27.7376C12.267 28.4371 12.2865 29.4597 13.0222 28.3922C13.7578 27.3246 15.2291 24.1368 16.1914 22.2493C17.1537 20.3619 17.5624 19.8715 17.9773 21.2536C18.3922 22.6357 18.8009 25.9053 19.0114 27.8757C19.222 29.8461 19.222 30.4183 19.222 30.4474C19.222 30.4765 19.222 29.9452 19.5081 27.9141C19.7941 25.883 20.3663 22.3682 21.3559 22.6828C22.3454 22.9974 23.735 27.2478 24.4917 29.5192C25.2484 31.7906 25.3301 31.954 25.4131 31.9156C25.4961 31.8772 25.5778 31.632 26.0695 29.4418C26.5612 27.2515 27.4603 23.1237 28.7409 22.8159C30.0215 22.5082 31.6562 26.1456 32.8049 27.3042C33.9536 28.4628 34.5667 27.0323 34.9438 26.2137C35.4048 25.2129 35.7742 24.6136 36.1655 24.0346C36.2929 23.8462 36.516 24.1095 36.682 24.4396C37.9058 26.8736 37.7991 30.4245 37.7173 31.2295C37.6802 31.5951 35.1785 32.1163 30.8958 33.2086C28.7544 33.7548 26.6132 34.0148 24.8645 34.1833C21.8174 34.4768 19.8883 34.2291 18.96 33.982C18.5955 33.885 18.4814 33.7349 18.3569 33.4674C18.0532 32.8147 17.9018 31.7162 17.7779 29.7242C17.4274 24.0857 17.9414 23.0048 18.3736 22.3404C19.2688 20.9643 21.0784 19.4913 21.3664 19.2851C21.6835 19.0579 23.4997 19.1185 26.098 19.1594C28.5968 19.1987 29.8283 19.4479 32.9566 19.8188C34.1502 19.9604 34.7004 20.7657 35.319 21.5298C35.5661 21.8382 35.9339 22.3286 36.2052 22.6017C36.4764 22.8748 36.6399 22.9156 36.8083 22.9578" stroke="#D9D9D9" stroke-width="7.98" stroke-linecap="round"/>
<path d="M15.5479 29.8809V30.2409" stroke="#0D0D0D" stroke-width="2.5" stroke-linecap="round"/>
<path d="M21.0479 29.8809V30.1209" stroke="#0D0D0D" stroke-width="2.5" stroke-linecap="round"/>
<path d="M15.4424 35.3835C16.4793 35.5035 17.9147 35.3451 19.2583 35.2437C19.8374 35.1842 20.6775 35.1434 21.8938 35.1236C22.5557 35.1038 23.3082 35.0642 24.0835 35.0234" stroke="#0D0D0D" stroke-width="2" stroke-linecap="round"/>
<path d="M20.5855 10.673C20.6179 9.10205 20.8943 6.84113 21.1594 6.26139C21.4456 5.63538 21.7359 5.20735 22.0619 4.74537C22.5301 4.08179 23.0663 3.72284 23.7692 3.21908C24.3439 2.80726 25.2271 2.63265 25.7967 2.4647C26.5148 2.25296 28.7866 2.36506 30.4938 2.93305C31.308 3.20393 31.9469 3.76218 32.3879 4.19735C32.772 4.57634 32.9827 5.1694 33.0578 5.67633C33.1272 6.14486 33.3192 6.63841 33.4122 7.27034C33.4926 7.81686 33.4256 9.35645 33.0941 10.4814C32.931 11.0352 32.3687 11.2892 31.8264 11.5C31.4768 11.6358 31.1188 11.6702 29.7711 11.6543C28.5627 11.64 26.2952 11.4266 25.0463 11.3072C23.6317 11.1718 23.3653 11.0168 23.152 10.9045C22.9007 10.7721 22.7938 10.4758 22.7156 10.221C22.4705 9.4231 23.226 7.93235 23.7469 7.31189C24.1209 6.86637 24.6168 6.41897 25.0785 6.1877C25.5293 5.96196 26.6834 5.79325 28.3346 5.84364C28.9653 5.86289 29.4463 6.05003 30.2353 6.45419C30.5402 6.61038 30.6933 6.86313 30.8129 7.12098C30.9453 7.40621 30.8615 7.98326 30.7747 8.60112C30.7411 8.84109 30.6281 8.91223 30.4704 8.98432C30.1006 9.15334 29.745 9.2095 29.466 9.24434C29.0796 9.29256 27.376 9.14664 25.0477 8.91979C24.1928 8.8365 24.0042 8.78756 23.8707 8.69486C23.7372 8.60215 23.6653 8.45943 23.6322 8.33123C23.5992 8.20303 23.6072 8.09368 23.6564 7.9857C23.9692 7.29885 25.1746 6.73824 25.7801 6.46175C26.5058 6.13033 27.6647 5.33913 28.577 5.02985C29.3393 4.77141 29.8165 4.80131 30.2599 4.81939C30.7731 4.84031 31.2793 5.29549 31.7646 5.67813C32.6876 6.40591 32.9492 7.13921 33.1241 7.59685C33.2887 8.02732 33.3486 8.50124 33.3997 8.94976C33.51 9.9178 33.3105 11.3036 33.2225 11.3675C32.7861 11.6844 33.5414 10.4078 33.7264 9.97661C33.9152 9.53663 34.0854 9.06023 34.2331 8.37814C34.5619 6.85951 34.1187 6.36913 33.9851 5.91453C33.8335 5.39836 33.3614 4.98074 32.9404 4.65698C32.5199 4.3335 32.095 4.08125 31.6628 3.90992C31.2378 3.7414 30.71 3.67275 30.2433 3.78955C30.0333 3.8421 30.0552 4.2292 30.0671 4.4408C30.0992 5.01165 30.8027 5.34368 31.3407 5.59236C32.1224 5.95365 32.6103 6.44795 33.0691 7.00937C33.4935 7.52867 33.5347 8.23676 33.7611 8.9339C33.9254 9.43974 33.8811 9.95636 33.931 10.4048C34.0621 11.5841 33.6892 13.3312 33.4648 13.3701C32.7261 13.498 31.6057 13.3719 31.0086 13.37C30.8279 13.3694 30.6072 13.3816 29.236 13.2948C27.8648 13.208 25.3498 13.0228 24.0025 12.8823C22.3091 12.7058 21.9056 12.381 21.4234 12.1377C21.317 12.0603 21.2411 11.9722 21.1336 11.9219C21.0261 11.8715 20.8894 11.8614 20.7486 11.851" stroke="#8B4A2A" stroke-width="4.73088" stroke-linecap="round"/>
<path d="M27.8912 4.21473C27.2379 4.08333 26.2784 4.28751 25.6599 4.57679C24.9288 4.91871 24.4494 4.98738 24.0334 5.34444C23.9005 5.45846 23.9467 5.75159 24.0184 5.89805C24.2807 6.43408 26.5767 6.36671 27.8147 6.36127C28.2927 6.35917 28.6059 5.79654 28.9379 5.44535C29.248 5.1173 29.1881 4.70002 29.1466 4.51665C28.9982 3.86017 27.4927 4.37861 27.033 4.58088C26.8015 4.71583 26.5673 4.86599 26.3357 5.00136C26.2196 5.06277 26.1062 5.10939 25.9894 5.15742" stroke="#A99124" stroke-width="4.73088" stroke-linecap="round"/>
<path d="M18.5762 14.0167C18.5213 14.0126 18.3832 14.0025 18.2117 14.0589C18.1269 14.0867 18.1399 14.2607 18.1876 14.3629C18.3803 14.776 19.0474 14.776 20.4998 14.8976C21.7071 14.9987 23.2715 14.9766 24.9082 15.0549C26.1063 15.1122 27.4997 15.1206 28.5151 15.1532C28.7811 15.1617 29.0304 15.1497 30.1199 15.2157C31.2095 15.2817 33.1319 15.4233 34.1782 15.4865C35.3363 15.5304 35.5614 15.5185 35.7838 15.5211C35.8963 15.5156 36.0082 15.4962 36.2128 15.3992" stroke="#4B3429" stroke-width="1.89235" stroke-linecap="round"/>
<path d="M18.3675 11.2318C18.5843 11.2728 19.0182 11.3857 19.4256 11.4866C19.7841 11.5755 20.2152 11.6461 20.6422 11.6778C21.1584 11.7162 21.3808 11.5907 21.7579 11.55C21.8433 11.5408 21.9647 11.5474 22.0747 11.563C22.5935 11.6363 22.8064 11.7658 23.132 11.8558C23.2875 11.8988 23.4857 11.9377 23.704 11.9689C23.9101 11.9985 24.2009 11.9806 24.617 11.9631C25.0928 11.943 25.5057 11.9045 25.9335 11.9256C26.4847 11.9528 26.6797 12.117 26.9501 12.2078C27.0848 12.2531 27.3866 12.2857 27.6332 12.3115C28.0691 12.3572 28.3833 12.2583 29.1206 12.1887C29.4136 12.1611 29.7177 12.174 29.9917 12.1992C30.531 12.2487 30.8091 12.3704 31.2171 12.4639C31.4082 12.5077 31.6545 12.5393 31.8735 12.5631C32.3522 12.6151 32.624 12.5098 32.9591 12.4712C33.1441 12.4498 33.3219 12.4294 33.5829 12.4384C34.2196 12.4605 34.6342 12.6117 35.1 12.6842C35.2014 12.6999 35.3197 12.698 35.4176 12.6926C35.8223 12.644 36.1856 12.5999 36.3531 12.5718C36.4376 12.5577 36.5207 12.5437 36.7737 12.5113" stroke="#FCFCFC" stroke-width="4.73088" stroke-linecap="round"/>
<path d="M24.7263 4.31562L24.2141 5.26139" stroke="#A66B38" stroke-width="0.236544" stroke-linecap="round"/>
<path d="M26.6544 4.85028C26.6275 4.99435 26.6007 5.13842 26.5839 5.25299C26.5671 5.36756 26.5612 5.44826 26.555 5.53141" stroke="#A66B38" stroke-width="0.236544" stroke-linecap="round"/>
<path d="M29.4668 4.71387C29.4656 4.73001 29.4644 4.74615 29.5275 4.88086C29.5906 5.01557 29.7181 5.26837 29.8457 5.57774" stroke="#A66B38" stroke-width="0.236544" stroke-linecap="round"/>
<path d="M28.7013 6.42743L28.6091 7.01074" stroke="#A66B38" stroke-width="0.236544" stroke-linecap="round"/>
<path d="M24.9307 6.8877L25.5665 6.93452" stroke="#A66B38" stroke-width="0.236544" stroke-linecap="round"/>
<path d="M25.4995 3.8317C25.7661 3.73774 26.0326 3.64378 26.2028 3.58968C26.373 3.53558 26.4388 3.5242 26.513 3.5213C26.5872 3.51841 26.6679 3.52435 26.7511 3.53048" stroke="#A66B38" stroke-width="0.236544" stroke-linecap="round"/>
<path d="M28.1212 4.95868C28.092 5.13503 28.0627 5.31138 28.0447 5.44258C28.0267 5.57378 28.0208 5.65448 28.0146 5.73763" stroke="#A66B38" stroke-width="0.236544" stroke-linecap="round"/>
<path d="M23.209 6.20887C23.3691 6.19179 23.5291 6.1747 23.6778 6.14912C23.8264 6.12354 23.9588 6.08998 24.0635 6.06816C24.1681 6.04633 24.241 6.03726 24.3192 5.9844" stroke="#A66B38" stroke-width="0.236544" stroke-linecap="round"/>
<path d="M27.4848 6.96118C27.4003 7.1282 27.3158 7.29521 27.2558 7.40891C27.1959 7.52261 27.1629 7.57793 27.1366 7.63461C27.1104 7.6913 27.0918 7.74768 27.0726 7.80576" stroke="#A66B38" stroke-width="0.236544" stroke-linecap="round"/>
</svg>
