<svg width="47" height="45" viewBox="0 0 47 45" fill="none" xmlns="http://www.w3.org/2000/svg">
<path d="M6.91003 19.3596C5.6653 20.0708 4.84626 20.7929 4.53238 21.5985C3.83714 23.3828 4.03798 24.9204 3.99083 29.5788C3.96414 32.2162 4.84087 33.8114 5.64913 35.5182C6.52723 37.3725 8.16017 38.2138 9.86696 39.2484C11.4127 40.1854 13.0098 40.3692 24.7351 40.5995C28.2871 40.6693 30.0697 40.1967 32.675 39.6134C34.7352 39.1522 36.1802 38.8496 38.3342 37.8649C40.4186 36.912 40.6742 34.2802 41.5727 31.6277C42.2104 29.7451 42.2045 23.4548 41.9364 19.6344C41.8208 17.9873 40.0545 16.6707 38.1712 15.4125C36.1974 14.0938 34.041 13.7017 31.6162 13.2544C30.0113 12.9584 21.2703 12.8934 15.5841 13.2059C13.7629 13.306 12.3955 14.0573 10.0623 15.2239C8.43064 16.0397 7.45427 17.646 6.64331 19.0847C5.87198 20.4531 5.65452 21.9568 5.69628 29.0305C5.7136 31.9658 7.62131 33.0947 8.92532 34.1738C9.75796 34.8628 10.7682 35.1639 13.8854 35.5667C21.7536 36.5834 28.1837 36.0665 30.0225 35.6179C31.239 35.3471 32.1415 35.0777 33.1263 34.7194C33.6665 34.5389 34.2888 34.361 35.1995 34.1778" stroke="#D9D9D9" stroke-width="7.98" stroke-linecap="round"/>
<path d="M17.1166 13.1211C15.8806 13.3688 14.974 13.5323 13.9622 13.6574C13.2023 13.7513 12.5788 14.1515 11.7119 14.4822C11.001 14.7533 10.1861 15.0184 9.44052 15.2463C8.74218 15.4598 7.79334 16.3758 7.0868 17.1028C6.46429 17.7433 5.93068 18.5258 5.51765 19.1048C5.06926 19.7333 5.14549 20.5073 4.87736 21.1687C4.0742 23.1497 4.89532 26.9474 5.14363 27.5883C5.41872 28.2983 6.13132 29.1346 7.57351 30.4133C8.52372 31.2558 10.4177 31.4493 12.1714 31.2876C13.439 31.1708 13.1943 29.225 13.1949 27.2372C13.1955 25.6168 13.0321 22.7564 12.8872 21.8548C12.5682 19.8698 12.3695 25.2544 12.3076 26.3226C12.267 27.0221 12.2865 28.0447 13.0222 26.9771C13.7578 25.9096 15.2291 22.7217 16.1914 20.8343C17.1537 18.9469 17.5624 18.4564 17.9773 19.8386C18.3922 21.2207 18.8009 24.4903 19.0114 26.4607C19.222 28.4311 19.222 29.0033 19.222 29.0324C19.222 29.0615 19.222 28.5302 19.5081 26.4991C19.7941 24.468 20.3663 20.9532 21.3559 21.2678C22.3454 21.5823 23.735 25.8328 24.4917 28.1042C25.2484 30.3755 25.3301 30.539 25.4131 30.5006C25.4961 30.4622 25.5778 30.217 26.0695 28.0267C26.5612 25.8365 27.4603 21.7087 28.7409 21.4009C30.0215 21.0931 31.6562 24.7305 32.8049 25.8891C33.9536 27.0477 34.5667 25.6173 34.9438 24.7987C35.4048 23.7978 35.7742 23.1986 36.1655 22.6196C36.2929 22.4311 36.516 22.6945 36.682 23.0245C37.9058 25.4586 37.7991 29.0095 37.7173 29.8145C37.6802 30.1801 35.1785 30.7012 30.8958 31.7936C28.7544 32.3398 26.6132 32.5998 24.8645 32.7682C21.8174 33.0617 19.8883 32.8141 18.96 32.567C18.5955 32.47 18.4814 32.3199 18.3569 32.0524C18.0532 31.3997 17.9018 30.3012 17.7779 28.3091C17.4274 22.6707 17.9414 21.5898 18.3736 20.9253C19.2688 19.5492 21.0784 18.0762 21.3664 17.87C21.6835 17.6429 23.4997 17.7034 26.098 17.7443C28.5968 17.7836 29.8283 18.0329 32.9566 18.4038C34.1502 18.5453 34.7004 19.3506 35.319 20.1148C35.5661 20.4231 35.9339 20.9136 36.2052 21.1867C36.4764 21.4597 36.6399 21.5006 36.8083 21.5427" stroke="#D9D9D9" stroke-width="7.98" stroke-linecap="round"/>
<path d="M15.5479 28.4658V28.8259" stroke="#0D0D0D" stroke-width="2.5" stroke-linecap="round"/>
<path d="M21.0479 28.4658V28.7059" stroke="#0D0D0D" stroke-width="2.5" stroke-linecap="round"/>
<path d="M15.4424 33.9684C16.4793 34.0885 17.9147 33.93 19.2583 33.8286C19.8374 33.7692 20.6775 33.7284 21.8938 33.7086C22.5557 33.6888 23.3082 33.6492 24.0835 33.6084" stroke="#0D0D0D" stroke-width="2" stroke-linecap="round"/>
<path d="M8.94336 10.2233C8.94336 9.67642 9.61483 6.97784 10.4669 4.40134C10.5937 4.01781 10.8052 3.95115 10.9756 3.97087C11.8389 4.07073 12.3745 5.21778 13.306 6.34007C14.0177 7.19749 14.6203 8.01556 15.5512 8.61073C16.4755 9.20169 17.7144 8.61327 18.4545 8.46512C21.4982 7.85586 25.8979 8.31569 26.1942 8.21077C26.9316 7.94969 27.546 6.12325 28.2716 5.03275C28.4789 4.72104 28.7809 4.45984 29.0556 4.18452C29.1852 4.05458 29.3722 4.03509 29.5426 4.05544C30.4185 4.16002 31.4044 5.59676 32.2132 6.49014C32.5515 6.78708 32.8504 7.08466 33.1041 7.40196C33.2319 7.55139 33.3578 7.67729 33.4875 7.93417" stroke="#CEB6A1" stroke-width="4" stroke-linecap="round"/>
<path d="M9.07 11.7496C7.88475 12.0879 6.87247 12.7619 6.14695 13.5484C5.54142 14.2049 5.55242 15.0942 5.53017 15.8585C5.4998 16.9016 6.26967 17.7241 6.92651 18.4445C7.68338 19.2747 9.73638 19.6317 10.9528 19.8034C11.6113 19.8963 14.0513 20.0157 17.3349 19.9948C18.8991 19.9848 19.4955 19.8886 20.6534 19.8256C23.1159 19.6918 24.88 19.4651 25.2602 19.4015C26.8953 19.1281 29.9567 18.7033 31.7008 18.3428C33.2845 18.0154 34.3314 17.2205 35.158 16.6482C36.1948 15.9304 36.5365 15.0586 36.8774 14.2962C37.2255 13.5173 37.0478 12.3498 36.6052 11.3503C36.1627 10.8645 35.7773 10.4791 35.4816 10.2464C35.3119 10.1396 35.102 10.0557 34.5043 9.71484" stroke="#CEB6A1" stroke-width="4" stroke-linecap="round"/>
<path d="M26.3496 6.83848C26.5423 6.3547 27.0621 5.51077 27.4028 4.99098C27.7342 4.48541 28.0998 4.01759 28.4088 3.54695C28.7633 3.00709 29.2678 2.39591 29.6577 2.06934C30.134 1.67031 30.6637 3.10454 31.0044 3.54354C31.3564 3.99715 31.604 4.56463 31.9778 5.01969C32.4338 5.57484 32.6747 6.31674 32.9677 6.83653C33.2918 7.48481 33.617 8.13504 33.7304 8.39396C33.7795 8.5244 33.8116 8.65288 34.0394 9.07728" stroke="#CEB6A1" stroke-width="4" stroke-linecap="round"/>
<path d="M34.2342 8.88281C35.1384 8.88281 36.3717 9.07555 36.9738 9.43327C37.2508 9.5979 37.5427 9.66055 37.7369 9.87081C38.162 10.3311 38.2562 10.9892 38.4032 11.6536C38.681 12.9091 38.0635 13.5843 37.7719 14.0564C37.494 14.5065 37.351 15.0132 37.0419 15.5647C36.7661 16.0568 36.1517 16.5045 35.4373 16.9445C34.9109 17.2686 34.3665 17.4798 33.6852 17.8205C33.1445 18.0908 32.6144 18.2585 32.0946 18.4376C31.5359 18.6302 30.9597 18.7783 30.4238 18.8435C29.8057 18.9188 29.1764 19.1346 28.4775 19.2816C27.789 19.4264 27.2608 19.4928 26.4519 19.5736C24.3814 19.7804 23.595 19.7848 22.9939 19.8656C22.2355 19.9675 21.6482 19.9795 20.9176 20.0603C20.2536 20.1337 18.6404 20.1742 16.6595 20.255C13.6085 20.3794 11.3935 20.2394 11.0698 20.1747C10.2382 20.0083 9.253 19.9483 8.70108 19.6724C8.34579 19.4947 8.01873 19.2991 7.77587 19.1049C7.6615 19.0071 7.56513 18.9107 7.17383 18.6167" stroke="#CEB6A1" stroke-width="4" stroke-linecap="round"/>
<path d="M9.89963 12.6789C9.89963 12.7431 9.22507 14.0611 8.36362 15.7188C7.7811 16.8397 9.57452 13.882 9.88211 13.4109C10.3546 12.6872 10.7406 11.2597 11.0181 10.3938C11.2867 9.55548 11.716 9.11236 11.9267 8.59257C11.9791 8.4634 12.008 8.33365 12.0245 8.44413C12.1757 9.45359 11.3013 11.7834 10.5834 13.5335C9.72122 15.6356 9.31754 16.4712 9.15304 16.9448C8.85685 17.7974 10.9996 15.7645 12.4728 14.6145C13.9237 13.4819 14.278 12.455 14.6678 11.8213C14.8444 11.5343 15.0576 11.285 15.1555 11.2027C16.3474 10.2006 12.9853 14.7191 12.5132 15.4988C12.0833 16.2088 11.5252 16.8917 11.2307 17.56C11.1662 17.7065 11.0696 17.8671 11.0843 17.9819C11.0989 18.0968 11.2273 18.161 11.3738 18.1299C11.7124 18.0579 12.1355 17.6772 12.9108 17.193C14.1091 16.4445 15.7303 14.9595 17.3188 13.4357C18.6385 12.1698 19.3396 11.7074 20.0847 11.0752C20.2718 10.9164 20.4415 10.8314 20.46 10.7496C20.6138 10.0697 18.7264 10.991 18.4514 11.1526C18.2997 11.2417 18.1443 11.3784 18.2864 11.4125C19.5719 11.7207 21.9191 10.3505 23.4901 9.85701C25.3472 9.27364 26.2799 9.3051 27.0936 9.15909C27.6882 9.05241 28.3571 8.65682 29.1378 8.39692C29.4408 8.29602 29.6907 8.16915 29.9817 8.13654C30.772 8.04799 31.6024 8.75026 32.1884 9.18926C32.8401 9.67752 33.4207 10.405 33.7468 10.9248C34.0938 11.478 34.2987 12.2214 34.2836 13.0166C34.2704 13.715 33.2319 14.1039 32.6308 14.4621C31.7952 14.9601 30.6718 15.3051 26.8999 16.1315C25.8505 16.3614 24.5434 16.4089 22.6968 16.6036C20.4576 16.8397 18.4158 16.7671 16.6423 16.462C16.2448 16.3936 17.4064 15.5465 18.5623 14.9751C19.7182 14.4037 20.971 13.8898 22.5318 13.3038C24.0927 12.7178 25.9236 12.0754 26.9793 11.7284C28.6316 11.1852 29.2351 11.0572 29.9321 10.9433C30.1728 10.904 30.4966 10.9268 30.6942 10.991C30.8918 11.0553 30.9561 11.1837 30.9249 11.3142C30.8543 11.61 30.0226 12.0909 27.6524 12.9159C25.9392 13.5122 23.0015 13.8372 21.6246 14.0854C20.2478 14.3336 20.4726 14.3336 22.3873 13.9C24.302 13.4664 27.8996 12.5991 29.8975 12.1362C32.1771 11.6081 32.5787 11.5118 32.7408 11.3015C32.9004 11.0945 32.8717 10.7662 32.7914 10.4425C32.6942 10.0509 32.2565 9.88913 31.837 9.77573C31.552 9.69871 31.0962 9.69445 29.3388 9.8867C27.5813 10.0789 24.5297 10.4965 22.8774 10.7116C20.6741 10.991 19.7036 11.3463 18.8125 11.7191C18.4353 11.8671 18.2105 11.9313 17.8815 12.0948" stroke="#CEB6A1" stroke-width="4" stroke-linecap="round"/>
<path d="M17.0869 12.5635V12.7152" stroke="#0D0D0D" stroke-width="2" stroke-linecap="round"/>
<path d="M23.5361 11.7285V11.8803" stroke="#0D0D0D" stroke-width="2" stroke-linecap="round"/>
<path d="M10.002 9.1075C10.1044 8.64682 10.3594 7.93038 10.5662 7.38881C10.6764 7.10039 10.8486 6.8742 11.015 6.74594C11.0974 6.68241 11.2068 6.66851 11.31 6.68084C11.738 6.73194 12.1559 7.33257 12.4151 7.79633C12.4714 7.89693 12.5426 8.00125 12.5819 8.11719C12.6212 8.23313 12.6212 8.36024 12.4814 8.47657C11.6467 8.79935 11.1852 8.8502 10.7099 8.95304C10.5936 8.97885 10.4919 9.00427 10.3871 9.03046" stroke="#8F6E51" stroke-width="2" stroke-linecap="round"/>
<path d="M30.2632 3.71484C29.905 3.99603 29.3927 4.45748 28.8014 5.06067C28.6777 5.18683 28.6716 5.30488 28.7221 5.38269C28.8414 5.56666 29.6916 5.56373 30.693 5.46204C31.0466 5.42614 31.0335 5.15697 31.0081 5.00136C30.9319 4.74405 30.8541 4.51217 30.8028 4.25603C30.777 4.12699 30.7516 3.99988 30.6484 3.71484" stroke="#8F6E51" stroke-width="2" stroke-linecap="round"/>
<path d="M1.99023 13.9606C2.80374 13.9352 3.61725 13.9098 5.1422 13.8712C6.66714 13.8327 8.87887 13.7819 11.1576 13.7295" stroke="#8F6E51" stroke-linecap="round"/>
<path d="M11.2349 15.9639C11.184 15.9639 11.1332 15.9639 9.63252 16.4215C8.13184 16.8791 5.18287 17.7943 2.14453 18.8142" stroke="#8F6E51" stroke-linecap="round"/>
<path d="M30.2627 11.5727C31.9914 11.2677 33.7201 10.9626 35.3733 10.6911C37.0265 10.4195 38.5519 10.1907 39.452 10.0728C40.3522 9.95497 40.581 9.95497 41.0479 9.87793" stroke="#8F6E51" stroke-linecap="round"/>
<path d="M30.8018 13.8066C32.0983 13.9338 33.3948 14.0609 35.1686 14.2407C36.9424 14.4206 39.1541 14.6494 41.4328 14.8852" stroke="#8F6E51" stroke-linecap="round"/>
</svg>
