<svg width="47" height="45" viewBox="0 0 47 45" fill="none" xmlns="http://www.w3.org/2000/svg">
<path d="M6.91003 19.3596C5.6653 20.0708 4.84626 20.7929 4.53238 21.5985C3.83714 23.3828 4.03798 24.9204 3.99083 29.5788C3.96414 32.2162 4.84087 33.8114 5.64913 35.5182C6.52723 37.3725 8.16017 38.2138 9.86696 39.2484C11.4127 40.1854 13.0098 40.3692 24.7351 40.5995C28.2871 40.6693 30.0697 40.1967 32.675 39.6134C34.7352 39.1522 36.1802 38.8496 38.3342 37.8649C40.4186 36.912 40.6742 34.2802 41.5727 31.6277C42.2104 29.7451 42.2045 23.4548 41.9364 19.6344C41.8208 17.9873 40.0545 16.6707 38.1712 15.4125C36.1974 14.0938 34.041 13.7017 31.6162 13.2544C30.0113 12.9584 21.2703 12.8934 15.5841 13.2059C13.7629 13.306 12.3955 14.0573 10.0623 15.2239C8.43064 16.0397 7.45427 17.646 6.64331 19.0847C5.87198 20.4531 5.65452 21.9568 5.69628 29.0305C5.7136 31.9658 7.62131 33.0947 8.92532 34.1738C9.75796 34.8628 10.7682 35.1639 13.8854 35.5667C21.7536 36.5834 28.1837 36.0665 30.0225 35.6179C31.239 35.3471 32.1415 35.0777 33.1263 34.7194C33.6665 34.5389 34.2888 34.361 35.1995 34.1778" stroke="#D9D9D9" stroke-width="7.98" stroke-linecap="round"/>
<path d="M17.1166 13.1211C15.8806 13.3688 14.974 13.5323 13.9622 13.6574C13.2023 13.7513 12.5788 14.1515 11.7119 14.4822C11.001 14.7533 10.1861 15.0184 9.44052 15.2463C8.74218 15.4598 7.79334 16.3758 7.0868 17.1028C6.46429 17.7433 5.93068 18.5258 5.51765 19.1048C5.06926 19.7333 5.14549 20.5073 4.87736 21.1687C4.0742 23.1497 4.89532 26.9474 5.14363 27.5883C5.41872 28.2983 6.13132 29.1346 7.57351 30.4133C8.52372 31.2558 10.4177 31.4493 12.1714 31.2876C13.439 31.1708 13.1943 29.225 13.1949 27.2372C13.1955 25.6168 13.0321 22.7564 12.8872 21.8548C12.5682 19.8698 12.3695 25.2544 12.3076 26.3226C12.267 27.0221 12.2865 28.0447 13.0222 26.9771C13.7578 25.9096 15.2291 22.7217 16.1914 20.8343C17.1537 18.9469 17.5624 18.4564 17.9773 19.8386C18.3922 21.2207 18.8009 24.4903 19.0114 26.4607C19.222 28.4311 19.222 29.0033 19.222 29.0324C19.222 29.0615 19.222 28.5302 19.5081 26.4991C19.7941 24.468 20.3663 20.9532 21.3559 21.2678C22.3454 21.5823 23.735 25.8328 24.4917 28.1042C25.2484 30.3755 25.3301 30.539 25.4131 30.5006C25.4961 30.4622 25.5778 30.217 26.0695 28.0267C26.5612 25.8365 27.4603 21.7087 28.7409 21.4009C30.0215 21.0931 31.6562 24.7305 32.8049 25.8891C33.9536 27.0477 34.5667 25.6173 34.9438 24.7987C35.4048 23.7978 35.7742 23.1986 36.1655 22.6196C36.2929 22.4311 36.516 22.6945 36.682 23.0245C37.9058 25.4586 37.7991 29.0095 37.7173 29.8145C37.6802 30.1801 35.1785 30.7012 30.8958 31.7936C28.7544 32.3398 26.6132 32.5998 24.8645 32.7682C21.8174 33.0617 19.8883 32.8141 18.96 32.567C18.5955 32.47 18.4814 32.3199 18.3569 32.0524C18.0532 31.3997 17.9018 30.3012 17.7779 28.3091C17.4274 22.6707 17.9414 21.5898 18.3736 20.9253C19.2688 19.5492 21.0784 18.0762 21.3664 17.87C21.6835 17.6429 23.4997 17.7034 26.098 17.7443C28.5968 17.7836 29.8283 18.0329 32.9566 18.4038C34.1502 18.5453 34.7004 19.3506 35.319 20.1148C35.5661 20.4231 35.9339 20.9136 36.2052 21.1867C36.4764 21.4597 36.6399 21.5006 36.8083 21.5427" stroke="#D9D9D9" stroke-width="7.98" stroke-linecap="round"/>
<path d="M15.5479 28.4658V28.8259" stroke="#0D0D0D" stroke-width="2.5" stroke-linecap="round"/>
<path d="M21.0479 28.4658V28.7059" stroke="#0D0D0D" stroke-width="2.5" stroke-linecap="round"/>
<path d="M15.4424 33.9684C16.4793 34.0885 17.9147 33.93 19.2583 33.8286C19.8374 33.7692 20.6775 33.7284 21.8938 33.7086C22.5557 33.6888 23.3082 33.6492 24.0835 33.6084" stroke="#0D0D0D" stroke-width="2" stroke-linecap="round"/>
<path d="M9.94238 10.2233C9.94238 9.67642 10.6139 6.97784 11.4659 4.40134C11.5927 4.01781 11.8042 3.95115 11.9746 3.97087C12.8379 4.07073 13.3735 5.21778 14.305 6.34007C15.0167 7.19749 15.6193 8.01556 16.5502 8.61073C17.4746 9.20169 18.7134 8.61327 19.4536 8.46512C22.4972 7.85586 26.8969 8.31569 27.1932 8.21077C27.9306 7.94969 28.5451 6.12325 29.2706 5.03275C29.478 4.72104 29.7799 4.45984 30.0546 4.18452C30.1842 4.05458 30.3712 4.03509 30.5417 4.05544C31.4175 4.16002 32.4035 5.59676 33.2123 6.49014C33.5505 6.78708 33.8494 7.08466 34.1031 7.40196C34.2309 7.55139 34.3568 7.67729 34.4865 7.93417" stroke="#FFC871" stroke-width="4" stroke-linecap="round"/>
<path d="M10.07 11.7496C8.88475 12.0879 7.87247 12.7619 7.14695 13.5484C6.54142 14.2049 6.55242 15.0942 6.53017 15.8585C6.4998 16.9016 7.26967 17.7241 7.92651 18.4445C8.68338 19.2747 10.7364 19.6317 11.9528 19.8034C12.6113 19.8963 15.0513 20.0157 18.3349 19.9948C19.8991 19.9848 20.4955 19.8886 21.6534 19.8256C24.1159 19.6918 25.88 19.4651 26.2602 19.4015C27.8953 19.1281 30.9567 18.7033 32.7008 18.3428C34.2845 18.0154 35.3314 17.2205 36.158 16.6482C37.1948 15.9304 37.5365 15.0586 37.8774 14.2962C38.2255 13.5173 38.0478 12.3498 37.6052 11.3503C37.1627 10.8645 36.7773 10.4791 36.4816 10.2464C36.3119 10.1396 36.102 10.0557 35.5043 9.71484" stroke="#FFC871" stroke-width="4" stroke-linecap="round"/>
<path d="M27.3496 6.83848C27.5423 6.3547 28.0621 5.51077 28.4028 4.99098C28.7342 4.48541 29.0998 4.01759 29.4088 3.54695C29.7633 3.00709 30.2678 2.39591 30.6577 2.06934C31.134 1.67031 31.6637 3.10454 32.0044 3.54354C32.3564 3.99715 32.604 4.56463 32.9778 5.01969C33.4338 5.57484 33.6747 6.31674 33.9677 6.83653C34.2918 7.48481 34.617 8.13504 34.7304 8.39396C34.7795 8.5244 34.8116 8.65288 35.0394 9.07728" stroke="#FFC871" stroke-width="4" stroke-linecap="round"/>
<path d="M35.2342 8.88281C36.1384 8.88281 37.3717 9.07555 37.9738 9.43327C38.2508 9.5979 38.5427 9.66055 38.7369 9.87081C39.162 10.3311 39.2562 10.9892 39.4032 11.6536C39.681 12.9091 39.0635 13.5843 38.7719 14.0564C38.494 14.5065 38.351 15.0132 38.0419 15.5647C37.7661 16.0568 37.1517 16.5045 36.4373 16.9445C35.9109 17.2686 35.3665 17.4798 34.6852 17.8205C34.1445 18.0908 33.6144 18.2585 33.0946 18.4376C32.5359 18.6302 31.9597 18.7783 31.4238 18.8435C30.8057 18.9188 30.1764 19.1346 29.4775 19.2816C28.789 19.4264 28.2608 19.4928 27.4519 19.5736C25.3814 19.7804 24.595 19.7848 23.9939 19.8656C23.2355 19.9675 22.6482 19.9795 21.9176 20.0603C21.2536 20.1337 19.6404 20.1742 17.6595 20.255C14.6085 20.3794 12.3935 20.2394 12.0698 20.1747C11.2382 20.0083 10.253 19.9483 9.70108 19.6724C9.34579 19.4947 9.01873 19.2991 8.77587 19.1049C8.6615 19.0071 8.56513 18.9107 8.17383 18.6167" stroke="#FFC871" stroke-width="4" stroke-linecap="round"/>
<path d="M10.8987 12.6789C10.8987 12.7431 10.2241 14.0611 9.36264 15.7188C8.78012 16.8397 10.5735 13.882 10.8811 13.4109C11.3536 12.6872 11.7397 11.2597 12.0171 10.3938C12.2857 9.55548 12.715 9.11236 12.9257 8.59257C12.9781 8.4634 13.007 8.33365 13.0236 8.44413C13.1748 9.45359 12.3003 11.7834 11.5825 13.5335C10.7202 15.6356 10.3166 16.4712 10.1521 16.9448C9.85588 17.7974 11.9986 15.7645 13.4718 14.6145C14.9227 13.4819 15.277 12.455 15.6668 11.8213C15.8434 11.5343 16.0567 11.285 16.1545 11.2027C17.3464 10.2006 13.9843 14.7191 13.5122 15.4988C13.0823 16.2088 12.5242 16.8917 12.2298 17.56C12.1652 17.7065 12.0687 17.8671 12.0833 17.9819C12.0979 18.0968 12.2264 18.161 12.3729 18.1299C12.7114 18.0579 13.1345 17.6772 13.9098 17.193C15.1082 16.4445 16.7293 14.9595 18.3179 13.4357C19.6375 12.1698 20.3386 11.7074 21.0838 11.0752C21.2709 10.9164 21.4405 10.8314 21.459 10.7496C21.6128 10.0697 19.7254 10.991 19.4504 11.1526C19.2988 11.2417 19.1433 11.3784 19.2854 11.4125C20.5709 11.7207 22.9181 10.3505 24.4892 9.85701C26.3463 9.27364 27.2789 9.3051 28.0927 9.15909C28.6872 9.05241 29.3561 8.65682 30.1368 8.39692C30.4399 8.29602 30.6897 8.16915 30.9807 8.13654C31.771 8.04799 32.6014 8.75026 33.1874 9.18926C33.8391 9.67752 34.4197 10.405 34.7458 10.9248C35.0928 11.478 35.2977 12.2214 35.2826 13.0166C35.2694 13.715 34.2309 14.1039 33.6298 14.4621C32.7942 14.9601 31.6709 15.3051 27.899 16.1315C26.8496 16.3614 25.5424 16.4089 23.6958 16.6036C21.4566 16.8397 19.4149 16.7671 17.6413 16.462C17.2438 16.3936 18.4055 15.5465 19.5614 14.9751C20.7173 14.4037 21.97 13.8898 23.5309 13.3038C25.0917 12.7178 26.9226 12.0754 27.9783 11.7284C29.6306 11.1852 30.2341 11.0572 30.9311 10.9433C31.1718 10.904 31.4957 10.9268 31.6932 10.991C31.8908 11.0553 31.9551 11.1837 31.9239 11.3142C31.8533 11.61 31.0216 12.0909 28.6514 12.9159C26.9382 13.5122 24.0005 13.8372 22.6237 14.0854C21.2468 14.3336 21.4716 14.3336 23.3863 13.9C25.301 13.4664 28.8986 12.5991 30.8965 12.1362C33.1761 11.6081 33.5777 11.5118 33.7398 11.3015C33.8994 11.0945 33.8707 10.7662 33.7904 10.4425C33.6933 10.0509 33.2555 9.88913 32.836 9.77573C32.5511 9.69871 32.0953 9.69445 30.3378 9.8867C28.5803 10.0789 25.5287 10.4965 23.8764 10.7116C21.6731 10.991 20.7027 11.3463 19.8115 11.7191C19.4343 11.8671 19.2095 11.9313 18.8805 12.0948" stroke="#FFC871" stroke-width="4" stroke-linecap="round"/>
<path d="M18.0869 11.8486V12.0004" stroke="#0D0D0D" stroke-width="2" stroke-linecap="round"/>
<path d="M24.5361 11.0137V11.1654" stroke="#0D0D0D" stroke-width="2" stroke-linecap="round"/>
<path d="M11.002 8.39266C11.1044 7.93198 11.3594 7.21554 11.5662 6.67396C11.6764 6.38555 11.8486 6.15936 12.015 6.03109C12.0974 5.96756 12.2068 5.95367 12.31 5.966C12.738 6.0171 13.1559 6.61773 13.4151 7.08149C13.4714 7.18208 13.5426 7.28641 13.5819 7.40235C13.6212 7.51829 13.6212 7.6454 13.4814 7.76172C12.6467 8.08451 12.1852 8.13535 11.7099 8.2382C11.5936 8.26401 11.4919 8.28943 11.3871 8.31562" stroke="#EDA666" stroke-width="2" stroke-linecap="round"/>
<path d="M31.2632 3C30.905 3.28118 30.3927 3.74263 29.8014 4.34583C29.6777 4.47199 29.6716 4.59004 29.7221 4.66785C29.8414 4.85182 30.6916 4.84888 31.693 4.74719C32.0466 4.71129 32.0335 4.44213 32.0081 4.28651C31.9319 4.02921 31.8541 3.79733 31.8028 3.54118C31.777 3.41214 31.7516 3.28503 31.6484 3" stroke="#EDA666" stroke-width="2" stroke-linecap="round"/>
<path d="M2.99023 13.2458C3.80374 13.2203 4.61725 13.1949 6.1422 13.1564C7.66714 13.1179 9.87887 13.067 12.1576 13.0146" stroke="#EDA666" stroke-linecap="round"/>
<path d="M12.2349 15.249C12.184 15.249 12.1332 15.249 10.6325 15.7066C9.13184 16.1642 6.18287 17.0794 3.14453 18.0994" stroke="#EDA666" stroke-linecap="round"/>
<path d="M31.2627 10.8579C32.9914 10.5528 34.7201 10.2478 36.3733 9.97621C38.0265 9.70465 39.5519 9.47585 40.452 9.35799C41.3522 9.24012 41.581 9.24012 42.0479 9.16309" stroke="#EDA666" stroke-linecap="round"/>
<path d="M31.8018 13.0918C33.0983 13.2189 34.3948 13.346 36.1686 13.5259C37.9424 13.7058 40.1541 13.9346 42.4328 14.1703" stroke="#EDA666" stroke-linecap="round"/>
</svg>
