<svg width="49" height="44" viewBox="0 0 49 44" fill="none" xmlns="http://www.w3.org/2000/svg">
<path d="M13.7414 38.7234C10.9978 33.5333 6.02613 21.5541 6.23801 16.0976C6.27799 15.0678 7.31928 15.1321 8.05104 15.6367C11.5297 18.0354 11.4085 21.9648 13.2237 25.3856C14.6213 28.0193 15.3404 30.2655 15.561 33.6862C15.6132 34.496 15.7772 35.0711 15.8515 34.2148C16.4052 27.8305 16.3626 24.9006 16.7252 20.1103C17.4523 10.5043 17.8131 7.86245 19.1237 5.81785C19.4088 5.37306 20.1372 5.52076 20.5064 5.88119C25.5474 10.8029 20.8799 25.4511 20.5872 29.75C20.2611 34.5391 19.7135 36.242 19.4951 36.8274C18.1415 40.4548 23.3439 26.6481 24.4405 23.3737C25.9196 18.957 28.8748 15.4379 31.2077 13.6816C31.7913 13.2423 32.3698 12.6681 32.8111 12.6593C33.2523 12.6506 33.5406 13.2273 33.6892 13.9569C34.36 17.2521 31.6621 21.0823 29.9124 23.5703C28.1668 26.0525 26.1312 28.3694 23.7983 31.2135C21.7349 33.729 20.4431 35.3682 20.4387 35.8094C20.3868 41.0612 31.1902 28.1073 34.2658 25.6979C36.597 23.8717 38.4904 22.7075 39.4385 22.6311C39.7481 22.6061 39.3773 23.5638 38.9404 24.1514C37.201 26.4909 33.4183 27.6442 29.2658 30.7023C26.0439 33.0751 22.9333 36.0847 21.7471 37.8475C19.0485 41.8582 30.465 35.0886 34.2615 33.5595C38.5088 31.8489 43.1476 31.2965 44.8208 31.5849C45.5342 31.7078 45.7732 32.4499 45.7776 33.1794C45.7873 34.7991 44.3315 36.242 42.8046 37.3319C40.644 38.8744 37.6386 39.3001 34.7945 39.9598C32.2431 40.1782 20.9761 40.4709 14.9122 39.0205C14.4753 38.7234 13.8987 38.7234 13.3045 38.7234" stroke="#FF6868" stroke-width="6.156" stroke-linecap="round"/>
<path d="M39.74 35.249L30.9434 37.0084" stroke="#FF6868" stroke-width="4.617" stroke-linecap="round"/>
<path d="M5.56445 17.5273C5.56445 17.8053 5.61471 18.362 5.65317 19.3892C5.67475 19.9658 5.76701 20.4698 5.81803 21.3821C5.85424 22.0295 5.99547 22.6782 6.16033 23.148C6.30435 23.5585 6.37622 24.023 6.47788 24.4556C6.58084 24.8936 6.75698 25.3435 6.90928 25.8259C7.0579 26.2967 7.16362 26.7142 7.3026 27.1208C7.43923 27.5206 7.51849 27.9326 7.68335 28.3393C7.84491 28.7377 7.92513 29.151 8.0009 29.5577C8.07892 29.9764 8.28 30.4197 8.39422 30.8522C8.5063 31.2766 8.66075 31.664 8.82562 32.0707C8.98717 32.4691 9.11766 32.8824 9.23188 33.2891C9.39713 33.6957 9.49841 34.0255 9.59969 34.2661C9.65071 34.3811 9.70097 34.4816 9.75276 34.5852" stroke="#FF6868" stroke-width="4.617" stroke-linecap="round"/>
<path d="M6.14205 16.4204C6.11239 17.2579 6.05218 19.2186 6.15642 20.5368C6.19837 21.0673 6.47092 21.51 6.53113 22.0792C6.59698 22.7019 6.77105 23.2766 6.93504 23.9361C7.07484 24.4984 7.15923 25.1636 7.30974 25.838C7.43991 26.4212 7.48991 26.9014 7.6539 27.3813C7.84542 27.9417 7.99851 28.668 8.14812 29.2081C8.32812 29.8578 8.56641 30.5533 8.68771 31.3045C8.77398 31.8387 8.98694 32.2929 9.09207 32.7727C9.2096 33.3091 9.43623 34.029 9.58584 34.6593C9.73153 35.2731 10.0347 35.7668 10.2598 36.2772C10.4645 36.7414 10.6637 37.2351 10.9184 37.7149C11.1876 38.2219 11.591 38.6728 11.9815 39.2124C12.2927 39.6426 12.7592 39.9021 13.239 40.2166C13.6825 40.5072 14.2562 40.6209 14.7963 40.7117C15.4348 40.819 15.9635 40.921 16.5036 41.1008C17.104 41.3006 17.8487 41.2212 19.8153 41.2958C21.2399 41.3498 23.9393 41.311 25.3887 41.2962C27.436 41.2753 28.4537 41.1619 29.71 41.1165C30.3426 41.0118 30.9392 40.9516 31.8225 40.877C32.1074 40.8617 32.4632 40.8617 33.0994 40.7719" stroke="#FF6868" stroke-width="4.617" stroke-linecap="round"/>
<path d="M6.174 21.7153C6.09785 22.5461 6.19836 24.175 6.38912 24.6708C6.54795 25.0835 6.68116 25.4955 6.84603 25.9021C7.00759 26.3006 7.13807 26.7139 7.2523 27.1205C7.28175 27.2254 7.34063 27.3231 7.36652 27.2492C7.59297 26.6032 7.266 26.1595 7.15178 25.6897C7.0397 25.2287 6.88525 24.7385 6.78359 24.167C6.67388 23.5502 6.60654 22.8348 6.49155 22.5781C6.2112 21.9524 6.6309 23.5673 6.6309 23.6317C6.6309 24.1512 6.52962 22.7571 6.46642 22.655C6.00971 21.9177 6.37656 25.0386 6.46566 25.4578C6.56373 25.9192 6.60501 26.3331 6.70668 26.7398C6.80834 27.1464 6.85936 27.6018 6.98577 28.0595C7.12932 28.5792 7.21422 29.0487 7.37909 29.4812C7.52738 29.8703 7.56909 30.293 7.63343 30.7628C7.69496 31.2121 7.87369 31.714 8.01381 32.2223C8.14951 32.7146 8.28034 33.1106 8.50841 33.5172C8.72089 33.8961 8.86365 34.329 9.05441 34.7988C9.224 35.2165 9.47286 35.6236 9.73939 36.0934C9.97823 36.5145 10.2846 36.9684 10.5896 37.3503C10.929 37.7752 11.3751 38.1868 11.883 38.5181C12.7222 39.0653 13.5561 39.4311 14.7113 39.7368C15.1715 39.8586 16.2678 39.8393 17.7889 39.8141C18.8101 39.7973 19.3215 39.6367 19.5621 39.5103C19.7776 39.3336 19.9566 39.1295 20.0959 38.927C20.1599 38.8249 20.2102 38.7244 20.2619 38.6209" stroke="#FF6868" stroke-width="4.617" stroke-linecap="round"/>
<path d="M18.1162 28.7754L18.1519 29.0811" stroke="#0D0D0D" stroke-width="2.25" stroke-linecap="round"/>
<path d="M24.2725 27.8521L24.3082 28.1578" stroke="#0D0D0D" stroke-width="2.25" stroke-linecap="round"/>
<path d="M14.1143 24.7739L18.1619 25.5436" stroke="#0D0D0D" stroke-width="1.8" stroke-linecap="round"/>
<path d="M23.6574 32.1853C21.9292 32.094 20.2867 32.2747 19.4628 32.5037C18.6091 32.741 18.0038 33.8533 17.6967 34.4947C17.3397 35.2407 17.543 36.0459 17.7401 36.3954C18.0124 36.8782 19.7812 36.7476 20.857 36.5961C21.4933 36.5065 21.9821 36.4136 22.937 36.2311C25.1082 35.8162 25.9349 35.8369 26.3783 35.4564C27.0283 34.8987 26.2761 32.9828 25.8336 32.3993C25.7268 32.3377 25.6064 32.3075 25.3637 32.292C25.1209 32.2765 24.7596 32.2765 24.1136 32.1853" stroke="#0D0D0D" stroke-width="1.8" stroke-linecap="round"/>
<path d="M23.041 24.8682L25.5398 23.5426" stroke="#0D0D0D" stroke-width="1.8" stroke-linecap="round"/>
<path d="M9.83894 16.497C9.92829 13.4925 10.2706 11.388 10.4865 10.2767C10.6242 9.56793 11.2368 8.32363 12.3428 6.67275C14.6032 3.29857 17.3638 2.68048 18.3763 2.48738C20.1016 2.15835 22.8342 1.93949 23.8788 2.01415C25.1626 2.1059 26.0582 2.15217 26.9473 2.17126C28.3157 2.20064 29.5975 2.96538 30.4403 3.43332C31.3758 3.95274 32.2755 4.81502 32.9142 5.65068C33.5036 6.4219 34.0209 7.11915 34.3558 7.86791C34.6851 8.60435 34.9757 10.6344 35.0605 13.2304C35.0922 14.1985 34.5443 14.4359 34.2159 14.5991C33.2303 15.0888 32.3104 15.1432 31.315 15.4568C29.2643 16.1027 26.7835 16.2331 23.7881 16.7566C21.6635 17.1279 17.662 17.4991 15.4371 17.7353C12.0938 18.0903 10.7164 18.0676 9.39772 18.1475C8.50861 18.2014 7.51812 18.0496 6.33493 18.0391C5.17185 18.0288 4.07363 17.6178 3.16017 17.4031C2.74615 17.3058 2.34024 17.1302 2.09567 16.9383C1.49926 16.4701 3.88695 15.7214 4.81374 15.193C5.61261 14.7376 6.60247 14.515 7.48083 14.241C7.69211 14.1425 7.87301 14.0239 8.13433 13.9431C8.39564 13.8623 8.7319 13.823 9.07834 13.7824" stroke="#37A2FF" stroke-width="4" stroke-linecap="round"/>
<path d="M16.3776 5.54966C14.332 8.19154 13.1011 10.3071 12.4976 12.2917C12.1834 13.325 12.1608 14.059 12.2777 14.024C13.245 13.7336 13.4704 11.8472 14.2232 10.7283C15.9251 8.199 18.4473 4.82623 19.4613 3.76309C19.6505 3.5647 19.4178 5.42678 18.6627 7.77437C17.425 11.6226 14.4798 13.637 13.5674 14.2883C13.2126 14.5416 12.6067 14.8922 12.3715 15.0201C12.1878 15.12 13.3178 14.4253 14.8418 13.1939C16.3658 11.9626 18.6187 9.99442 20.0338 8.65853C21.4489 7.32264 21.9578 6.6787 22.2836 6.26648C22.7367 5.69327 21.2561 7.56656 18.3493 11.0515C15.2643 14.7501 14.0442 15.4115 13.4942 16.1894C13.245 16.5417 15.7386 14.2052 19.8125 10.3593C21.7809 8.50097 22.4721 7.64255 23.1401 6.82651C23.3056 6.6244 23.41 6.40239 23.4317 6.15342C23.4535 5.90444 23.3717 5.62185 23.1049 5.42953C22.8382 5.23722 22.389 5.14374 22.2749 5.0575C21.3349 4.34727 25.9605 4.71957 27.5736 4.80365C28.5795 4.85608 29.7838 5.00962 31.0987 5.49532C32.3487 5.95708 32.7559 7.65706 33.1209 8.87153C33.5791 10.396 32.9495 11.3765 32.3869 12.2304C31.9675 12.867 30.6571 13.1723 28.2 13.7057C23.9087 14.6374 20.752 14.7277 20.0411 14.7372C18.8891 14.7526 17.6681 14.8425 17.122 14.6143C16.1482 14.2074 18.7057 12.4633 19.8804 11.3931C22.9659 8.58221 25.9225 6.00781 26.2699 5.6233C26.4348 5.44084 26.6287 5.33486 26.6708 5.66932C26.9965 8.25588 24.7398 10.5127 24.2624 11.3374C23.0383 13.4518 27.7314 8.00939 27.9437 7.93287C29.3697 7.41913 27.29 10.9061 27.139 11.7649C26.852 13.3969 29.151 9.21989 29.6166 8.79793C29.8744 8.56429 30.1133 8.22624 30.3612 8.85017C30.6092 9.47409 30.8429 11.0537 29.6338 11.95C24.0819 16.0661 22.1389 13.1384 21.5793 13.1796C21.3085 13.1995 21.0621 13.1671 21.3608 12.8392C21.6596 12.5113 22.5104 11.876 23.0688 11.5347C23.6272 11.1934 23.8674 11.1652 24.1149 11.1363" stroke="#37A2FF" stroke-width="4" stroke-linecap="round"/>
<path d="M20.2939 3.91748L20.3245 4.17808" stroke="white" stroke-width="2" stroke-linecap="round"/>
<path d="M29.375 5.89209L29.5053 5.87683" stroke="white" stroke-width="2" stroke-linecap="round"/>
<path d="M24.0312 8.76318L24.0618 9.02378" stroke="white" stroke-width="2" stroke-linecap="round"/>
<path d="M13.5547 8.40527L13.685 8.39001" stroke="white" stroke-width="2" stroke-linecap="round"/>
<path d="M3.8291 16.4658L4.16038 16.427" stroke="white" stroke-width="2" stroke-linecap="round"/>
<path d="M10.6865 17.6772L10.7124 17.8981" stroke="white" stroke-width="2" stroke-linecap="round"/>
<path d="M22.3848 17.2029L22.2873 17.3262" stroke="white" stroke-width="2" stroke-linecap="round"/>
<path d="M16.5068 16.3062L16.574 16.2983" stroke="white" stroke-width="2" stroke-linecap="round"/>
<path d="M31.7109 14.5088L31.7267 14.6432" stroke="white" stroke-width="2" stroke-linecap="round"/>
<path d="M8.41797 12.2129C8.97696 12.4566 10.649 13.1458 12.2289 13.4978C13.2866 13.7335 14.551 13.803 15.5093 13.8034C16.2469 13.8037 16.9561 13.8332 18.0712 13.8805C18.6931 13.9069 19.1902 13.9274 21.0444 13.7769C22.7235 13.6406 25.8872 13.2324 27.6247 13.0069C30.0233 12.6956 31.3888 12.3215 32.4318 12.0668C33.3763 11.7782 34.1535 11.5979 34.8402 11.3849C35.0112 11.3202 35.1797 11.2565 35.7169 10.8817" stroke="#078BFF" stroke-width="4" stroke-linecap="round"/>
</svg>
