<svg width="48" height="45" viewBox="0 0 48 45" fill="none" xmlns="http://www.w3.org/2000/svg">
<path d="M12.6437 39.4968C9.90014 34.3067 4.92847 22.3276 5.14035 16.871C5.18034 15.8412 6.22162 15.9055 6.95339 16.4101C10.4321 18.8088 10.3108 22.7383 12.126 26.159C13.5236 28.7927 14.2427 31.0389 14.4633 34.4597C14.5155 35.2694 14.6796 35.8446 14.7538 34.9883C15.3076 28.6039 15.265 25.6741 15.6276 20.8837C16.3547 11.2778 16.7154 8.63589 18.026 6.59128C18.3111 6.1465 19.0396 6.2942 19.4088 6.65462C24.4498 11.5763 19.7823 26.2245 19.4896 30.5234C19.1635 35.3126 18.6158 37.0154 18.3974 37.6008C17.0439 41.2282 22.2463 27.4216 23.3428 24.1472C24.822 19.7304 27.7771 16.2113 30.1101 14.4551C30.6936 14.0158 31.2722 13.4415 31.7134 13.4328C32.1546 13.424 32.443 14.0007 32.5915 14.7303C33.2624 18.0256 30.5644 21.8558 28.8147 24.3438C27.0691 26.8259 25.0335 29.1429 22.7006 31.9869C20.6373 34.5024 19.3454 36.1416 19.341 36.5829C19.2891 41.8346 30.0926 28.8807 33.1682 26.4714C35.4994 24.6452 37.3928 23.4809 38.3408 23.4045C38.6505 23.3795 38.2797 24.3372 37.8428 24.9248C36.1034 27.2643 32.3207 28.4176 28.1681 31.4758C24.9462 33.8486 21.8356 36.8581 20.6495 38.6209C17.9508 42.6316 29.3674 35.862 33.1638 34.333C37.4111 32.6223 42.0499 32.07 43.7231 32.3583C44.4366 32.4812 44.6755 33.2233 44.6799 33.9529C44.6896 35.5725 43.2338 37.0154 41.7069 38.1054C39.5463 39.6478 36.5409 40.0735 33.6968 40.7332C31.1455 40.9517 19.8784 41.2444 13.8146 39.7939C13.3777 39.4968 12.801 39.4968 12.2069 39.4968" stroke="#FF6868" stroke-width="6.156" stroke-linecap="round"/>
<path d="M38.6423 36.0225L29.8457 37.7818" stroke="#FF6868" stroke-width="4.617" stroke-linecap="round"/>
<path d="M4.4668 18.3008C4.4668 18.5787 4.51706 19.1354 4.55551 20.1627C4.57709 20.7392 4.66936 21.2433 4.72038 22.1555C4.75659 22.803 4.89781 23.4516 5.06268 23.9215C5.20669 24.3319 5.27857 24.7965 5.38023 25.229C5.48319 25.6671 5.65932 26.1169 5.81162 26.5993C5.96025 27.0701 6.06597 27.4876 6.20494 27.8943C6.34157 28.2941 6.42083 28.7061 6.5857 29.1127C6.74725 29.5112 6.82748 29.9245 6.90325 30.3311C6.98127 30.7499 7.18234 31.1931 7.29657 31.6257C7.40864 32.0501 7.5631 32.4375 7.72796 32.8441C7.88952 33.2426 8.02 33.6559 8.13423 34.0625C8.29948 34.4692 8.40076 34.7989 8.50204 35.0395C8.55306 35.1545 8.60332 35.255 8.6551 35.3586" stroke="#FF6868" stroke-width="4.617" stroke-linecap="round"/>
<path d="M5.04439 17.1938C5.01473 18.0313 4.95453 19.992 5.05877 21.3102C5.10071 21.8407 5.37326 22.2834 5.43347 22.8526C5.49932 23.4753 5.67339 24.05 5.83738 24.7096C5.97718 25.2718 6.06158 25.937 6.21209 26.6114C6.34226 27.1946 6.39226 27.6749 6.55625 28.1547C6.74776 28.7151 6.90085 29.4415 7.05046 29.9815C7.23046 30.6313 7.46875 31.3267 7.59006 32.0779C7.67632 32.6121 7.88929 33.0663 7.99442 33.5462C8.11194 34.0826 8.33858 34.8024 8.48819 35.4327C8.63387 36.0465 8.93703 36.5402 9.16212 37.0506C9.36686 37.5149 9.56603 38.0085 9.82078 38.4884C10.0899 38.9953 10.4934 39.4462 10.8838 39.9858C11.1951 40.416 11.6615 40.6755 12.1414 40.99C12.5848 41.2806 13.1585 41.3944 13.6986 41.4851C14.3372 41.5924 14.8658 41.6945 15.4059 41.8742C16.0063 42.074 16.7511 41.9946 18.7176 42.0692C20.1423 42.1232 22.8416 42.0845 24.291 42.0696C26.3384 42.0487 27.3561 41.9353 28.6123 41.8899C29.2449 41.7852 29.8416 41.725 30.7249 41.6505C31.0097 41.6352 31.3655 41.6352 32.0017 41.5453" stroke="#FF6868" stroke-width="4.617" stroke-linecap="round"/>
<path d="M5.07634 22.4888C5.00019 23.3196 5.10071 24.9484 5.29147 25.4442C5.45029 25.8569 5.58351 26.2689 5.74837 26.6756C5.90993 27.074 6.04041 27.4873 6.15464 27.894C6.18409 27.9988 6.24297 28.0965 6.26886 28.0227C6.49532 27.3766 6.16835 26.9329 6.05412 26.4631C5.94205 26.0021 5.78759 25.512 5.68593 24.9405C5.57622 24.3237 5.50888 23.6082 5.39389 23.3516C5.11354 22.7259 5.53325 24.3408 5.53325 24.4051C5.53325 24.9247 5.43197 23.5305 5.36876 23.4285C4.91206 22.6911 5.2789 25.812 5.368 26.2312C5.46608 26.6927 5.50735 27.1066 5.60902 27.5132C5.71068 27.9199 5.7617 28.3752 5.88811 28.8329C6.03167 29.3527 6.11656 29.8221 6.28143 30.2547C6.42973 30.6437 6.47143 31.0664 6.53578 31.5363C6.59731 31.9856 6.77603 32.4874 6.91615 32.9957C7.05185 33.488 7.18268 33.884 7.41075 34.2907C7.62323 34.6695 7.76599 35.1024 7.95675 35.5723C8.12634 35.99 8.3752 36.397 8.64173 36.8668C8.88058 37.2879 9.18697 37.7418 9.49196 38.1237C9.83131 38.5487 10.2775 38.9602 10.7854 39.2915C11.6245 39.8388 12.4584 40.2045 13.6136 40.5103C14.0738 40.6321 15.1702 40.6127 16.6913 40.5876C17.7124 40.5707 18.2238 40.4101 18.4644 40.2837C18.68 40.1071 18.8589 39.903 18.9983 39.7004C19.0622 39.5984 19.1125 39.4979 19.1643 39.3943" stroke="#FF6868" stroke-width="4.617" stroke-linecap="round"/>
<path d="M17.0186 29.5488L17.0543 29.8545" stroke="#0D0D0D" stroke-width="2.25" stroke-linecap="round"/>
<path d="M23.1748 28.6255L23.2105 28.9312" stroke="#0D0D0D" stroke-width="2.25" stroke-linecap="round"/>
<path d="M13.0166 25.5474L17.0643 26.317" stroke="#0D0D0D" stroke-width="1.8" stroke-linecap="round"/>
<path d="M22.5597 32.9587C20.8315 32.8675 19.1891 33.0481 18.3651 33.2772C17.5114 33.5145 16.9061 34.6267 16.5991 35.2681C16.242 36.0141 16.4453 36.8193 16.6424 37.1688C16.9147 37.6516 18.6836 37.521 19.7594 37.3695C20.3956 37.28 20.8844 37.187 21.8393 37.0046C24.0105 36.5896 24.8372 36.6104 25.2807 36.2299C25.9307 35.6721 25.1785 33.7562 24.7359 33.1727C24.6292 33.1111 24.5087 33.081 24.266 33.0655C24.0233 33.05 23.662 33.05 23.0159 32.9587" stroke="#0D0D0D" stroke-width="1.8" stroke-linecap="round"/>
<path d="M21.9434 25.6416L24.4421 24.316" stroke="#0D0D0D" stroke-width="1.8" stroke-linecap="round"/>
<path d="M9.84335 16.1843C10.002 13.1827 10.3927 11.0866 10.6342 9.98057C10.7882 9.27518 11.4294 8.04534 12.5731 6.42041C14.9107 3.09926 17.6849 2.54502 18.7016 2.37533C20.434 2.08618 23.1709 1.9304 24.2135 2.02913C25.4949 2.15047 26.3892 2.21738 27.2776 2.25698C28.6449 2.31792 29.9088 3.11202 30.7406 3.59927C31.6639 4.14014 32.5434 5.02293 33.1626 5.8731C33.7341 6.65772 34.2352 7.36671 34.5527 8.123C34.865 8.86683 35.1086 10.9031 35.1336 13.5003C35.1429 14.4689 34.5897 14.6936 34.2576 14.8492C33.261 15.316 32.3401 15.3492 31.3377 15.6397C29.2727 16.2382 26.7895 16.3113 23.7828 16.7656C21.6502 17.0877 17.6412 17.3666 15.4115 17.5514C12.0608 17.8292 10.6844 17.7747 9.36418 17.8242C8.47406 17.8575 7.48734 17.683 6.3047 17.6452C5.14217 17.6081 4.05373 17.1718 3.14546 16.9361C2.73379 16.8293 2.33204 16.6444 2.09197 16.4468C1.50651 15.9651 3.91084 15.2716 4.84957 14.7648C5.65873 14.3279 6.65346 14.1282 7.53791 13.8745C7.75141 13.7809 7.93499 13.6665 8.1981 13.5918C8.46121 13.517 8.79828 13.4854 9.14557 13.4529" stroke="#F15659" stroke-width="4" stroke-linecap="round"/>
<path d="M16.6326 5.3904C14.5266 7.9844 13.2473 10.071 12.5981 12.0411C12.2601 13.067 12.2207 13.8003 12.3383 13.7679C13.3121 13.4999 13.5809 11.6192 14.3594 10.518C16.1191 8.02861 18.7184 4.71491 19.7566 3.67544C19.9504 3.48146 19.6748 5.33768 18.8658 7.66723C17.5397 11.4859 14.5487 13.4318 13.6216 14.0619C13.2611 14.3069 12.6472 14.6435 12.4091 14.7659C12.2232 14.8615 13.3689 14.1931 14.9209 12.9972C16.4729 11.8014 18.7706 9.88567 20.2161 8.58278C21.6617 7.27989 22.1853 6.64786 22.5205 6.24326C22.9866 5.68065 21.4633 7.5193 18.4769 10.9363C15.3074 14.5627 14.0724 15.1958 13.5045 15.9608C13.2473 16.3072 15.7941 14.0289 19.9556 10.278C21.9664 8.46556 22.6772 7.62331 23.3639 6.82289C23.534 6.62465 23.6434 6.40512 23.6709 6.15671C23.6984 5.9083 23.6231 5.6239 23.3609 5.42548C23.0987 5.22706 22.6517 5.12325 22.5396 5.0344C21.6163 4.30268 26.2321 4.78157 27.8428 4.90283C28.8473 4.97845 30.0477 5.15973 31.351 5.67563C32.5901 6.1661 32.9579 7.87501 33.2948 9.09758C33.7178 10.6322 33.0657 11.598 32.4836 12.4386C32.0496 13.0654 30.7325 13.3404 28.2637 13.817C23.9521 14.6494 20.7941 14.6669 20.0832 14.66C18.9312 14.6488 17.7084 14.7105 17.1677 14.4698C16.2036 14.0405 18.8006 12.3559 19.9997 11.3131C23.1492 8.57411 26.1643 6.06859 26.5206 5.69219C26.6897 5.51359 26.8859 5.41211 26.9203 5.74745C27.1863 8.34084 24.8781 10.545 24.3818 11.3584C23.1093 13.4441 27.9266 8.11136 28.1407 8.03976C29.5781 7.55904 27.4185 10.9971 27.2477 11.8522C26.9232 13.4772 29.3179 9.35428 29.7931 8.94318C30.0562 8.71554 30.3029 8.3831 30.5364 9.01257C30.7699 9.64205 30.967 11.2266 29.7376 12.0948C24.0922 16.0818 22.2173 13.11 21.6569 13.1383C21.3857 13.152 21.1401 13.1139 21.4464 12.793C21.7526 12.472 22.6179 11.8565 23.184 11.5282C23.7501 11.1998 23.9909 11.1772 24.2389 11.154" stroke="#F15659" stroke-width="4" stroke-linecap="round"/>
<path d="M8.52148 11.8687C9.0747 12.1252 10.7304 12.8527 12.3017 13.2412C13.3537 13.5012 14.6162 13.5998 15.5742 13.6223C16.3117 13.6396 17.02 13.6854 18.1337 13.7585C18.7548 13.7992 19.2513 13.8312 21.1085 13.7235C22.7903 13.6259 25.9626 13.2908 27.7048 13.1055C30.1099 12.8496 31.4837 12.5071 32.5323 12.2765C33.4832 12.0098 34.2643 11.8475 34.9558 11.6503C35.1283 11.5896 35.2982 11.5298 35.8439 11.1675" stroke="#D93033" stroke-width="4" stroke-linecap="round"/>
<path d="M8.96191 10.002C9.35692 10.1047 10.2294 10.3764 10.8128 10.5684C11.4269 10.7705 12.0726 10.8388 12.6569 10.8549C13.3646 10.8745 14.0605 10.97 14.6871 11.0526C15.4432 11.1522 16.2247 11.0846 16.8486 11.15C17.7418 11.2436 18.5902 11.1105 19.4406 11.1361C20.3306 11.1629 21.7976 11.1273 22.775 11.1235C23.6036 11.1203 24.1682 11.1168 24.8077 11.1621C25.0209 11.1773 25.3012 11.1862 26.6751 11.0754C28.049 10.9645 30.5079 10.7339 31.8596 10.5897C33.7393 10.3891 34.6946 10.1295 35.5092 9.93031C35.7948 9.78071 36.0661 9.64833 36.3371 9.53504C36.4728 9.46938 36.6048 9.38712 36.731 9.19742" stroke="#FFF06C" stroke-linecap="round"/>
</svg>
