<svg width="49" height="43" viewBox="0 0 49 43" fill="none" xmlns="http://www.w3.org/2000/svg">
<path d="M13.1447 37.6282C10.4011 32.4381 5.42945 20.4589 5.64133 15.0023C5.68131 13.9725 6.7226 14.0368 7.45436 14.5414C10.933 16.9402 10.8118 20.8696 12.627 24.2903C14.0246 26.9241 14.7437 29.1703 14.9643 32.591C15.0165 33.4008 15.1805 33.9759 15.2548 33.1196C15.8086 26.7352 15.766 23.8054 16.1286 19.0151C16.8557 9.40912 17.2164 6.76724 18.527 4.72263C18.8121 4.27785 19.5406 4.42555 19.9097 4.78597C24.9507 9.70768 20.2833 24.3559 19.9906 28.6547C19.6645 33.4439 19.1168 35.1467 18.8984 35.7321C17.5449 39.3595 22.7473 25.5529 23.8438 22.2785C25.323 17.8618 28.2781 14.3427 30.611 12.5864C31.1946 12.1471 31.7731 11.5729 32.2144 11.5641C32.6556 11.5554 32.944 12.1321 33.0925 12.8617C33.7634 16.1569 31.0654 19.9871 29.3157 22.4751C27.5701 24.9573 25.5345 27.2742 23.2016 30.1183C21.1382 32.6338 19.8464 34.273 19.842 34.7142C19.7901 39.966 30.5936 27.0121 33.6692 24.6027C36.0003 22.7765 37.8938 21.6123 38.8418 21.5358C39.1514 21.5109 38.7806 22.4686 38.3438 23.0562C36.6043 25.3957 32.8216 26.549 28.6691 29.6071C25.4472 31.9799 22.3366 34.9895 21.1505 36.7523C18.4518 40.763 29.8683 33.9934 33.6648 32.4643C37.9121 30.7537 42.5509 30.2013 44.2241 30.4896C44.9375 30.6126 45.1765 31.3546 45.1809 32.0842C45.1906 33.7039 43.7348 35.1467 42.2079 36.2367C40.0473 37.7792 37.0419 38.2049 34.1978 38.8646C31.6464 39.083 20.3794 39.3757 14.3155 37.9253C13.8787 37.6282 13.302 37.6282 12.7078 37.6282" stroke="#FF6868" stroke-width="6.156" stroke-linecap="round"/>
<path d="M39.1433 34.1538L30.3467 35.9132" stroke="#FF6868" stroke-width="4.617" stroke-linecap="round"/>
<path d="M4.96777 16.4321C4.96777 16.7101 5.01803 17.2667 5.05649 18.294C5.07807 18.8705 5.17033 19.3746 5.22135 20.2869C5.25756 20.9343 5.39879 21.583 5.56365 22.0528C5.70767 22.4633 5.77954 22.9278 5.8812 23.3603C5.98416 23.7984 6.1603 24.2483 6.3126 24.7307C6.46122 25.2015 6.56694 25.619 6.70592 26.0256C6.84255 26.4254 6.92181 26.8374 7.08667 27.244C7.24823 27.6425 7.32845 28.0558 7.40422 28.4625C7.48224 28.8812 7.68332 29.3245 7.79754 29.757C7.90962 30.1814 8.06407 30.5688 8.22894 30.9754C8.39049 31.3739 8.52098 31.7872 8.6352 32.1939C8.80045 32.6005 8.90173 32.9302 9.00301 33.1709C9.05403 33.2859 9.10429 33.3864 9.15608 33.49" stroke="#FF6868" stroke-width="4.617" stroke-linecap="round"/>
<path d="M5.54537 15.3252C5.51571 16.1627 5.4555 18.1234 5.55974 19.4416C5.60169 19.9721 5.87424 20.4147 5.93445 20.984C6.0003 21.6067 6.17437 22.1813 6.33836 22.8409C6.47816 23.4032 6.56255 24.0684 6.71306 24.7427C6.84323 25.326 6.89323 25.8062 7.05722 26.2861C7.24874 26.8465 7.40183 27.5728 7.55144 28.1129C7.73144 28.7626 7.96973 29.458 8.09104 30.2092C8.1773 30.7434 8.39026 31.1977 8.49539 31.6775C8.61292 32.2139 8.83955 32.9337 8.98916 33.5641C9.13485 34.1779 9.438 34.6716 9.6631 35.182C9.86784 35.6462 10.067 36.1399 10.3218 36.6197C10.5909 37.1267 10.9943 37.5776 11.3848 38.1172C11.696 38.5474 12.1625 38.8068 12.6423 39.1213C13.0858 39.412 13.6595 39.5257 14.1996 39.6165C14.8382 39.7238 15.3668 39.8258 15.9069 40.0055C16.5073 40.2053 17.252 40.126 19.2186 40.2005C20.6432 40.2546 23.3426 40.2158 24.792 40.201C26.8393 40.18 27.8571 40.0666 29.1133 40.0213C29.7459 39.9166 30.3425 39.8564 31.2258 39.7818C31.5107 39.7665 31.8665 39.7665 32.5027 39.6767" stroke="#FF6868" stroke-width="4.617" stroke-linecap="round"/>
<path d="M5.57732 20.6201C5.50117 21.4509 5.60168 23.0798 5.79245 23.5755C5.95127 23.9883 6.08448 24.4003 6.24935 24.8069C6.41091 25.2054 6.54139 25.6187 6.65562 26.0253C6.68507 26.1302 6.74395 26.2279 6.76984 26.154C6.99629 25.508 6.66932 25.0643 6.5551 24.5944C6.44302 24.1334 6.28857 23.6433 6.18691 23.0718C6.0772 22.455 6.00986 21.7395 5.89487 21.4829C5.61452 20.8572 6.03422 22.4721 6.03422 22.5365C6.03422 23.056 5.93294 21.6619 5.86974 21.5598C5.41303 20.8225 5.77988 23.9433 5.86898 24.3626C5.96705 24.824 6.00833 25.2379 6.11 25.6446C6.21166 26.0512 6.26268 26.5066 6.38909 26.9643C6.53264 27.484 6.61754 27.9535 6.78241 28.386C6.9307 28.7751 6.97241 29.1978 7.03675 29.6676C7.09828 30.1169 7.27701 30.6188 7.41713 31.1271C7.55283 31.6194 7.68366 32.0154 7.91173 32.422C8.12421 32.8009 8.26697 33.2338 8.45773 33.7036C8.62732 34.1213 8.87618 34.5283 9.14271 34.9982C9.38156 35.4192 9.68795 35.8732 9.99293 36.2551C10.3323 36.68 10.7784 37.0916 11.2864 37.4228C12.1255 37.9701 12.9594 38.3359 14.1146 38.6416C14.5748 38.7634 15.6711 38.7441 17.1922 38.7189C18.2134 38.7021 18.7248 38.5415 18.9654 38.4151C19.1809 38.2384 19.3599 38.0343 19.4992 37.8318C19.5632 37.7297 19.6135 37.6292 19.6653 37.5256" stroke="#FF6868" stroke-width="4.617" stroke-linecap="round"/>
<path d="M17.5195 27.6802L17.5553 27.9859" stroke="#0D0D0D" stroke-width="2.25" stroke-linecap="round"/>
<path d="M23.6758 26.7568L23.7115 27.0626" stroke="#0D0D0D" stroke-width="2.25" stroke-linecap="round"/>
<path d="M13.5176 23.6787L17.5653 24.4484" stroke="#0D0D0D" stroke-width="1.8" stroke-linecap="round"/>
<path d="M23.0607 31.0901C21.3325 30.9988 19.6901 31.1795 18.8661 31.4085C18.0124 31.6458 17.4071 32.758 17.1001 33.3995C16.743 34.1455 16.9463 34.9507 17.1434 35.3001C17.4157 35.783 19.1846 35.6524 20.2604 35.5009C20.8966 35.4113 21.3854 35.3184 22.3403 35.1359C24.5115 34.721 25.3382 34.7417 25.7816 34.3612C26.4316 33.8035 25.6794 31.8876 25.2369 31.304C25.1301 31.2424 25.0097 31.2123 24.767 31.1968C24.5243 31.1813 24.1629 31.1813 23.5169 31.0901" stroke="#0D0D0D" stroke-width="1.8" stroke-linecap="round"/>
<path d="M22.4443 23.7729L24.9431 22.4473" stroke="#0D0D0D" stroke-width="1.8" stroke-linecap="round"/>
<path d="M7.39659 6.66522C4.86689 6.91563 3.8463 7.66981 2.6875 8.75755C2.14979 9.2623 2.05142 9.92626 2.00879 10.7232C1.92655 12.2604 2.4414 13.4654 2.73401 13.9113C3.31214 14.7922 4.79462 15.2914 6.18569 15.4852C7.45327 15.6617 8.3786 15.5637 10.1751 15.3904C11.6315 15.2499 13.2018 15.5549 14.2161 15.6211C15.268 15.6897 16.4227 16.183 18.304 16.7926C19.9164 17.3151 21.0024 17.3419 22.0201 17.2775C23.7475 17.168 25.5493 16.8111 26.4498 16.4542C27.3506 16.0971 28.0206 15.03 28.9371 14.4128C29.7418 13.871 30.578 13.4895 31.5368 13.1753C32.3865 12.8968 35.194 12.4838 37.0992 12.0134C38.1964 11.7425 38.1795 10.1719 38.3303 9.04636C38.4279 8.31726 38.1449 7.70905 37.9384 7.32818C37.4535 6.43381 36.2201 6.028 35.3023 5.53939C34.4121 5.06547 33.1172 4.76734 31.1439 4.22139C29.4469 3.75186 28.3639 4.19641 27.2155 4.22909C24.7458 4.29936 23.8828 4.82281 22.9168 5.08569C22.0485 5.32198 21.1892 5.7631 20.2887 6.12004C19.1244 6.58153 14.4851 7.52279 11.8382 7.73952C10.6686 7.83528 9.23653 7.64032 7.53872 7.82527C5.8704 8.00701 6.64364 10.8216 6.43386 11.5249C6.07531 12.7268 5.90209 9.18621 5.51163 9.13682C3.57293 8.89156 3.1441 12.597 3.07348 13.0174C2.89029 14.1078 8.03253 11.4131 9.72169 10.6263C11.5762 9.76246 7.85276 13.2235 7.78246 13.4644C7.48472 14.4846 11.6705 11.6747 13.1443 10.5098C14.4699 9.46208 10.3637 13.1806 10.3493 13.2865C9.93192 16.3475 16.4659 9.56106 18.052 8.95119C18.6878 8.70671 16.39 11.7621 15.0779 13.4389C14.3024 14.4299 18.9526 10.5012 21.6396 8.96879C22.511 8.47185 22.5425 8.8549 21.8208 9.69747C21.0991 10.54 19.6639 11.9098 18.764 12.7395C17.5666 13.8436 20.0675 11.59 24.272 8.04784C25.2409 7.23158 20.6409 12.8823 18.4725 15.4143C14.8887 19.599 25.7243 11.0873 26.0758 11.1891C27.2158 11.5192 23.6602 13.8312 22.7726 14.7046C19.3833 18.0398 27.9775 11.0296 28.2267 10.967C29.9946 10.5232 25.9746 13.9251 25.7565 14.0341C23.9393 14.9426 28.9397 11.6652 29.1778 11.528C29.4407 11.3764 28.8911 12.3868 28.6555 12.7285C27.603 14.2551 32.8048 9.58461 33.4961 9.384C33.8022 9.29517 33.1422 10.4555 32.582 11.049C32.3638 11.2803 33.3146 9.92615 34.0599 9.38451C34.3188 9.19634 34.483 9.44705 34.631 9.40403C34.7791 9.361 34.9436 9.08384 34.8719 8.9121C33.7726 6.28121 26.8562 9.54274 25.5404 9.34234C25.2575 9.29925 25.0486 9.12997 25.0563 9.02493C25.0791 8.71192 28.0488 8.39944 31.7192 7.83554C32.9024 7.65376 32.6834 7.54827 31.8441 7.38447C31.0048 7.22068 29.5461 6.9671 29.1007 6.84451C27.6798 6.45337 32.5023 7.05755 33.1589 6.96655C33.4713 6.92325 30.5297 6.72023 26.8827 6.84495C22.1035 7.00838 20.2557 7.12897 18.2071 7.36141C17.721 7.41657 17.3472 7.63411 17.2556 7.75012C17.164 7.86613 17.3774 7.93797 17.6618 7.95058C19.313 8.02382 21.0541 7.06665 23.0943 6.6536C24.094 6.48769 25.6894 6.26467 26.6394 6.15728C27.5895 6.0499 27.8457 6.06491 28.2608 6.05926" stroke="white" stroke-width="4" stroke-linecap="round"/>
<path d="M21.1626 2.47816C21.0755 2.44884 20.429 2.43483 18.6581 2.5981C17.4827 2.70648 15.7703 3.08352 14.6216 3.36985C12.9176 3.79459 12.2695 4.22369 11.988 4.37811C11.3262 4.74115 10.2339 5.36529 9.71922 5.77458C9.54422 5.91375 9.41228 6.13158 9.36839 6.49235C9.30105 7.04591 9.51584 7.47971 9.65706 7.66904C10.0955 8.25684 11.3627 8.12387 12.3455 8.10124C12.6219 8.09488 12.9787 8.12812 13.9378 8.05694C15.7352 7.92354 17.1575 7.58675 17.6522 7.45472C18.3269 7.27462 19.2263 7.08754 19.8664 6.94588C20.6286 6.7772 21.0395 6.70832 21.8667 6.41538C22.4449 6.21059 22.9557 6.02168 23.3631 5.78679C23.5272 5.69213 23.7208 5.64247 23.8956 5.47183C24.2425 5.13335 24.1445 4.62055 24.0373 3.92342C23.9741 3.51214 23.5214 3.30291 23.2051 3.13647C22.8761 2.96334 22.5074 2.94035 22.0611 2.97098C21.8418 2.98603 20.582 3.18749 18.7484 3.55886C18.0644 3.6974 17.889 3.77332 17.2187 3.9714C15.3945 4.51045 13.9447 4.95347 13.5232 5.1589C13.2707 5.28196 13.1283 5.42412 13.0236 5.57458C12.9754 5.64375 13.0031 5.73401 13.054 5.80079C13.1048 5.86757 13.1947 5.91725 13.3369 5.96057C13.4791 6.00388 13.6708 6.03934 14.9735 5.83744C16.2761 5.63554 18.6838 5.19523 19.9635 4.95253C21.2431 4.70983 21.3217 4.6781 21.4026 4.64541" stroke="#FFE749" stroke-width="4" stroke-linecap="round"/>
</svg>
