<svg width="46" height="48" viewBox="0 0 46 48" fill="none" xmlns="http://www.w3.org/2000/svg">
<path d="M10.5881 42.9343C7.84448 37.7442 2.87281 25.7651 3.08468 20.3085C3.12467 19.2787 4.16596 19.343 4.89772 19.8476C8.3764 22.2463 8.25514 26.1758 10.0704 29.5965C11.468 32.2302 12.187 34.4764 12.4077 37.8972C12.4599 38.7069 12.6239 39.2821 12.6982 38.4258C13.2519 32.0414 13.2093 29.1116 13.5719 24.3212C14.299 14.7153 14.6598 12.0734 15.9704 10.0288C16.2555 9.584 16.9839 9.7317 17.3531 10.0921C22.3941 15.0138 17.7266 29.662 17.4339 33.9609C17.1078 38.7501 16.5602 40.4529 16.3417 41.0383C14.9882 44.6657 20.1906 30.8591 21.2872 27.5847C22.7663 23.1679 25.7215 19.6488 28.0544 17.8926C28.638 17.4533 29.2165 16.879 29.6577 16.8703C30.099 16.8615 30.3873 17.4382 30.5358 18.1678C31.2067 21.4631 28.5087 25.2933 26.759 27.7813C25.0135 30.2634 22.9779 32.5804 20.645 35.4244C18.5816 37.9399 17.2897 39.5791 17.2854 40.0204C17.2335 45.2721 28.0369 32.3182 31.1125 29.9089C33.4437 28.0827 35.3371 26.9184 36.2852 26.842C36.5948 26.817 36.224 27.7747 35.7871 28.3623C34.0477 30.7018 30.265 31.8551 26.1125 34.9133C22.8906 37.2861 19.78 40.2956 18.5938 42.0584C15.8951 46.0691 27.3117 39.2995 31.1082 37.7705C35.3555 36.0598 39.9942 35.5075 41.6675 35.7958C42.3809 35.9187 42.6199 36.6608 42.6242 37.3904C42.6339 39.01 41.1782 40.4529 39.6513 41.5429C37.4906 43.0853 34.4852 43.511 31.6412 44.1707C29.0898 44.3892 17.8227 44.6819 11.7589 43.2314C11.322 42.9343 10.7453 42.9343 10.1512 42.9343" stroke="#FF6868" stroke-width="6.156" stroke-linecap="round"/>
<path d="M36.5867 39.46L27.79 41.2193" stroke="#FF6868" stroke-width="4.617" stroke-linecap="round"/>
<path d="M2.41113 21.7383C2.41113 22.0162 2.46139 22.5729 2.49985 23.6002C2.52143 24.1767 2.61369 24.6808 2.66471 25.593C2.70092 26.2405 2.84215 26.8891 3.00701 27.359C3.15103 27.7694 3.2229 28.234 3.32456 28.6665C3.42752 29.1046 3.60366 29.5544 3.75596 30.0368C3.90458 30.5076 4.0103 30.9251 4.14928 31.3318C4.28591 31.7316 4.36517 32.1436 4.53003 32.5502C4.69159 32.9487 4.77181 33.362 4.84758 33.7686C4.9256 34.1874 5.12668 34.6306 5.2409 35.0632C5.35297 35.4876 5.50743 35.875 5.6723 36.2816C5.83385 36.6801 5.96434 37.0934 6.07856 37.5C6.24381 37.9067 6.34509 38.2364 6.44637 38.477C6.49739 38.592 6.54765 38.6925 6.59944 38.7961" stroke="#FF6868" stroke-width="4.617" stroke-linecap="round"/>
<path d="M2.98873 20.6313C2.95907 21.4688 2.89886 23.4295 3.0031 24.7477C3.04505 25.2782 3.3176 25.7209 3.3778 26.2901C3.44366 26.9128 3.61773 27.4875 3.78172 28.1471C3.92152 28.7093 4.00591 29.3745 4.15642 30.0489C4.28659 30.6321 4.33659 31.1124 4.50058 31.5922C4.6921 32.1526 4.84519 32.879 4.9948 33.419C5.1748 34.0688 5.41309 34.7642 5.53439 35.5154C5.62066 36.0496 5.83362 36.5038 5.93875 36.9837C6.05628 37.5201 6.28291 38.2399 6.43252 38.8702C6.57821 39.484 6.88136 39.9777 7.10646 40.4881C7.3112 40.9524 7.51037 41.446 7.76512 41.9259C8.03426 42.4328 8.4377 42.8837 8.82814 43.4233C9.13941 43.8535 9.60586 44.113 10.0857 44.4275C10.5291 44.7181 11.1029 44.8319 11.6429 44.9226C12.2815 45.0299 12.8102 45.132 13.3502 45.3117C13.9506 45.5115 14.6954 45.4321 16.6619 45.5067C18.0866 45.5607 20.786 45.522 22.2354 45.5071C24.2827 45.4862 25.3004 45.3728 26.5566 45.3274C27.1892 45.2227 27.7859 45.1625 28.6692 45.088C28.954 45.0727 29.3099 45.0727 29.9461 44.9828" stroke="#FF6868" stroke-width="4.617" stroke-linecap="round"/>
<path d="M3.02068 25.9263C2.94453 26.7571 3.04504 28.3859 3.2358 28.8817C3.39463 29.2944 3.52784 29.7064 3.69271 30.1131C3.85427 30.5115 3.98475 30.9248 4.09898 31.3315C4.12843 31.4363 4.18731 31.534 4.2132 31.4602C4.43965 30.8141 4.11268 30.3704 3.99846 29.9006C3.88638 29.4396 3.73193 28.9495 3.63027 28.378C3.52055 27.7612 3.45322 27.0457 3.33823 26.7891C3.05788 26.1634 3.47758 27.7783 3.47758 27.8426C3.47758 28.3622 3.3763 26.968 3.3131 26.866C2.85639 26.1286 3.22324 29.2495 3.31234 29.6687C3.41041 30.1302 3.45169 30.5441 3.55336 30.9507C3.65502 31.3574 3.70604 31.8127 3.83245 32.2704C3.976 32.7902 4.0609 33.2596 4.22577 33.6922C4.37406 34.0812 4.41576 34.5039 4.48011 34.9738C4.54164 35.4231 4.72037 35.9249 4.86049 36.4332C4.99619 36.9255 5.12702 37.3215 5.35509 37.7282C5.56757 38.107 5.71033 38.5399 5.90109 39.0098C6.07068 39.4275 6.31954 39.8345 6.58607 40.3043C6.82491 40.7254 7.13131 41.1793 7.43629 41.5612C7.77565 41.9862 8.22179 42.3977 8.72972 42.729C9.56888 43.2763 10.4028 43.642 11.558 43.9478C12.0182 44.0696 13.1145 44.0502 14.6356 44.0251C15.6568 44.0082 16.1681 43.8476 16.4088 43.7212C16.6243 43.5446 16.8032 43.3405 16.9426 43.1379C17.0066 43.0359 17.0568 42.9354 17.1086 42.8318" stroke="#FF6868" stroke-width="4.617" stroke-linecap="round"/>
<path d="M14.9629 32.9863L14.9986 33.292" stroke="#0D0D0D" stroke-width="2.25" stroke-linecap="round"/>
<path d="M21.1191 32.063L21.1549 32.3687" stroke="#0D0D0D" stroke-width="2.25" stroke-linecap="round"/>
<path d="M10.9609 28.9849L15.0086 29.7545" stroke="#0D0D0D" stroke-width="1.8" stroke-linecap="round"/>
<path d="M20.504 36.3962C18.7758 36.305 17.1334 36.4856 16.3095 36.7147C15.4558 36.952 14.8505 38.0642 14.5434 38.7056C14.1863 39.4516 14.3897 40.2568 14.5868 40.6063C14.8591 41.0891 16.6279 40.9585 17.7037 40.807C18.34 40.7175 18.8288 40.6245 19.7837 40.4421C21.9549 40.0271 22.7815 40.0479 23.225 39.6674C23.875 39.1096 23.1228 37.1937 22.6803 36.6102C22.5735 36.5486 22.4531 36.5185 22.2103 36.503C21.9676 36.4875 21.6063 36.4875 20.9603 36.3962" stroke="#0D0D0D" stroke-width="1.8" stroke-linecap="round"/>
<path d="M19.8877 29.0791L22.3865 27.7535" stroke="#0D0D0D" stroke-width="1.8" stroke-linecap="round"/>
<path d="M12.714 14.1974C10.2961 14.8379 9.65669 14.9788 8.73278 15.8829C7.51906 17.0707 7.44913 18.036 7.41177 18.7673C7.39544 19.0869 7.69572 19.3555 7.9263 19.6218C8.51677 20.3038 10.0389 20.5297 10.8432 20.6199C12.2733 20.7803 14.2042 20.9908 14.8468 21.2598C15.5145 21.5394 16.9028 22.306 19.6958 22.4709C21.1896 22.5591 21.8559 21.6719 22.7622 21.1205C23.7655 20.5101 24.4178 20.3183 28.1941 20.0178C30.8628 19.8055 30.7523 17.3336 30.9498 16.4081C31.1634 15.4068 30.7918 14.5198 30.4369 14.1114C29.5896 13.1368 27.9469 12.9527 27.1634 12.8278C26.493 12.7209 25.6348 12.7029 24.2321 12.6143C21.7599 12.4581 20.6881 12.8801 19.4642 13.0045C16.6037 13.2951 15.9911 13.6273 14.9242 13.6812C13.9446 13.7307 12.8954 14.2315 12.2005 14.4989C11.067 14.9351 9.51365 15.9032 9.12135 16.3483C8.93183 16.5634 8.94254 16.9002 8.9244 17.2194C8.91423 17.3982 9.01193 17.609 9.11868 17.7708C9.31946 18.075 9.72287 18.1823 10.1312 18.2004C10.9208 18.2355 12.8762 17.2995 15.0032 16.2288C15.3487 16.0549 15.5214 15.9779 15.6826 15.9064C15.8438 15.8349 15.9847 15.7644 15.8636 16.0452C14.9492 18.1639 13.8188 18.9285 13.6752 19.0891C13.4806 19.3069 15.4062 18.225 17.5908 16.9467C19.3753 15.9025 20.4319 15.0887 20.719 15.1037C21.6565 15.1525 18.4197 17.4959 16.4459 19.2204C15.6948 19.8766 15.4937 20.1347 15.5786 20.1913C15.6634 20.2479 16.0509 20.107 17.2897 19.4003C18.5285 18.6936 20.6069 17.4254 21.7657 16.7017C22.9244 15.9779 23.1006 15.837 23.0856 15.923C23.0064 16.3783 21.4791 17.9912 19.7001 20.0899C19.0673 20.8364 19.0484 20.9908 20.1575 20.0771C21.2666 19.1633 23.5212 17.1906 24.665 16.3153C25.8088 15.4399 25.7736 15.7217 25.6321 16.0783C25.3111 16.8875 24.673 17.7158 24.2454 18.2682C23.126 19.7146 28.1199 14.7674 28.351 14.7311C29.3749 14.5703 27.1997 17.6795 26.9825 18.1823C26.8707 18.4411 27.8306 17.0155 28.7556 16.0361C29.0484 15.726 29.1169 15.9374 29.1174 16.1338C29.118 16.3302 29.0828 16.5416 29.0294 16.7209C28.976 16.9002 28.9055 17.0411 28.833 17.2931" stroke="#FBFFE5" stroke-width="3.5" stroke-linecap="round"/>
<path d="M13.3545 13.7707C13.5659 12.7138 13.9918 11.0422 14.7187 8.64727C16.0181 4.36672 16.3776 3.77474 16.7512 2.6731C16.8875 2.27136 17.0192 1.99418 17.1254 1.85114C17.5784 1.24097 17.7653 3.59113 18.5286 6.03888C19.0218 7.62056 19.2598 8.39481 19.6158 9.51407C19.8298 10.2821 19.9729 10.9909 20.1501 11.6688C20.1864 11.8471 20.1864 12.0584 20.3999 12.3829" stroke="#C59163" stroke-width="3.5" stroke-linecap="round"/>
<path d="M13.8877 14.4112C14.2773 14.376 15.1281 14.1636 16.4801 13.8786C17.4798 13.6288 18.1192 13.4868 18.7047 13.38C19.0084 13.3438 19.3255 13.3438 19.6521 13.3438" stroke="#C59163" stroke-width="3.5" stroke-linecap="round"/>
<path d="M17.4105 6.51172C17.2696 8.06171 17.197 9.91699 17.1265 11.5887C17.0561 12.2035 16.9152 12.3444 16.7545 12.4523C16.5939 12.5601 16.4177 12.6305 15.916 12.7031" stroke="#C59163" stroke-width="3.5" stroke-linecap="round"/>
<path d="M10.4434 15.6576C10.591 15.7685 11.0352 15.9909 11.3988 16.1586C11.7701 16.3299 12.1508 16.4556 12.5038 16.5027C12.878 16.5526 13.2095 16.605 13.8568 16.6512C15.713 16.7838 16.1986 16.4946 16.7569 16.2806C17.1033 16.1479 17.4256 15.9742 17.7605 15.8162C18.1418 15.6363 18.4476 15.5841 18.7914 15.4907C19.1136 15.4033 19.4507 15.3422 20.3032 15.3141C20.8449 15.2962 21.401 15.2308 22.1611 15.1843C22.4173 15.1686 22.5534 15.0079 22.6097 14.9522C22.7013 14.8614 22.2764 14.97 22.1555 14.9889C22.0649 15.0031 22.2564 14.7666 22.3767 14.6738C22.5155 14.6178 22.6648 14.5805 22.8039 14.525C22.8693 14.488 22.9245 14.4328 23.0928 14.376" stroke="#FBFFE5" stroke-width="3.5" stroke-linecap="round"/>
<path d="M20.1904 15.2471C20.3042 15.2297 20.5151 15.1943 20.7219 15.168C20.9476 15.1394 21.2965 15.1151 21.5623 15.0932C21.7105 15.081 21.8355 15.08 21.8709 15.0624C21.9663 15.0151 21.6602 15.071 21.6292 15.0842C21.5117 15.1342 21.8619 15.0272 21.8973 15.0009C21.9114 14.9905 21.863 14.9573 21.8276 14.9438C21.6877 14.8905 21.5198 15.0005 21.3788 15.0577C21.233 15.1168 21.0536 15.1415 20.9516 15.1634C20.7744 15.2015 21.307 15.0887 21.4789 15.0405C21.6425 14.9947 21.835 14.9393 22.0374 14.8865C22.1428 14.8775 22.2402 14.8601 22.3323 14.8337C22.3809 14.8247 22.4331 14.8247 22.5134 14.7983" stroke="#FBFFE5" stroke-width="3.5" stroke-linecap="round"/>
</svg>
