<svg width="46" height="52" viewBox="0 0 46 52" fill="none" xmlns="http://www.w3.org/2000/svg">
<path d="M10.5881 46.2307C7.84448 41.0406 2.87281 29.0615 3.08468 23.6049C3.12467 22.5751 4.16596 22.6394 4.89772 23.144C8.3764 25.5427 8.25514 29.4722 10.0704 32.8929C11.468 35.5266 12.187 37.7728 12.4077 41.1935C12.4599 42.0033 12.6239 42.5785 12.6982 41.7222C13.2519 35.3378 13.2093 32.408 13.5719 27.6176C14.299 18.0117 14.6598 15.3698 15.9704 13.3252C16.2555 12.8804 16.9839 13.0281 17.3531 13.3885C22.3941 18.3102 17.7266 32.9584 17.4339 37.2573C17.1078 42.0465 16.5602 43.7493 16.3417 44.3347C14.9882 47.9621 20.1906 34.1555 21.2872 30.8811C22.7663 26.4643 25.7215 22.9452 28.0544 21.189C28.638 20.7497 29.2165 20.1754 29.6577 20.1667C30.099 20.1579 30.3873 20.7346 30.5358 21.4642C31.2067 24.7594 28.5087 28.5897 26.759 31.0777C25.0135 33.5598 22.9779 35.8768 20.645 38.7208C18.5816 41.2363 17.2897 42.8755 17.2854 43.3168C17.2335 48.5685 28.0369 35.6146 31.1125 33.2052C33.4437 31.379 35.3371 30.2148 36.2852 30.1384C36.5948 30.1134 36.224 31.0711 35.7871 31.6587C34.0477 33.9982 30.265 35.1515 26.1125 38.2097C22.8906 40.5824 19.78 43.592 18.5938 45.3548C15.8951 49.3655 27.3117 42.5959 31.1082 41.0669C35.3555 39.3562 39.9942 38.8038 41.6675 39.0922C42.3809 39.2151 42.6199 39.9572 42.6242 40.6868C42.6339 42.3064 41.1782 43.7493 39.6513 44.8393C37.4906 46.3817 34.4852 46.8074 31.6412 47.4671C29.0898 47.6855 17.8227 47.9782 11.7589 46.5278C11.322 46.2307 10.7453 46.2307 10.1512 46.2307" stroke="#FF6868" stroke-width="6.156" stroke-linecap="round"/>
<path d="M36.5867 42.7563L27.79 44.5157" stroke="#FF6868" stroke-width="4.617" stroke-linecap="round"/>
<path d="M2.41113 25.0347C2.41113 25.3126 2.46139 25.8693 2.49985 26.8966C2.52143 27.4731 2.61369 27.9771 2.66471 28.8894C2.70092 29.5369 2.84215 30.1855 3.00701 30.6554C3.15103 31.0658 3.2229 31.5303 3.32456 31.9629C3.42752 32.401 3.60366 32.8508 3.75596 33.3332C3.90458 33.804 4.0103 34.2215 4.14928 34.6282C4.28591 35.028 4.36517 35.4399 4.53003 35.8466C4.69159 36.2451 4.77181 36.6584 4.84758 37.065C4.9256 37.4838 5.12668 37.927 5.2409 38.3596C5.35297 38.784 5.50743 39.1713 5.6723 39.578C5.83385 39.9765 5.96434 40.3898 6.07856 40.7964C6.24381 41.203 6.34509 41.5328 6.44637 41.7734C6.49739 41.8884 6.54765 41.9889 6.59944 42.0925" stroke="#FF6868" stroke-width="4.617" stroke-linecap="round"/>
<path d="M2.98873 23.9277C2.95907 24.7652 2.89886 26.7259 3.0031 28.0441C3.04505 28.5746 3.3176 29.0173 3.3778 29.5865C3.44366 30.2092 3.61773 30.7839 3.78172 31.4434C3.92152 32.0057 4.00591 32.6709 4.15642 33.3453C4.28659 33.9285 4.33659 34.4088 4.50058 34.8886C4.6921 35.449 4.84519 36.1754 4.9948 36.7154C5.1748 37.3651 5.41309 38.0606 5.53439 38.8118C5.62066 39.346 5.83362 39.8002 5.93875 40.2801C6.05628 40.8165 6.28291 41.5363 6.43252 42.1666C6.57821 42.7804 6.88136 43.2741 7.10646 43.7845C7.3112 44.2488 7.51037 44.7424 7.76512 45.2222C8.03426 45.7292 8.4377 46.1801 8.82814 46.7197C9.13941 47.1499 9.60586 47.4094 10.0857 47.7239C10.5291 48.0145 11.1029 48.1282 11.6429 48.219C12.2815 48.3263 12.8102 48.4284 13.3502 48.6081C13.9506 48.8079 14.6954 48.7285 16.6619 48.8031C18.0866 48.8571 20.786 48.8184 22.2354 48.8035C24.2827 48.7826 25.3004 48.6692 26.5566 48.6238C27.1892 48.5191 27.7859 48.4589 28.6692 48.3843C28.954 48.3691 29.3099 48.3691 29.9461 48.2792" stroke="#FF6868" stroke-width="4.617" stroke-linecap="round"/>
<path d="M3.02068 29.2227C2.94453 30.0535 3.04504 31.6823 3.2358 32.1781C3.39463 32.5908 3.52784 33.0028 3.69271 33.4094C3.85427 33.8079 3.98475 34.2212 4.09898 34.6279C4.12843 34.7327 4.18731 34.8304 4.2132 34.7566C4.43965 34.1105 4.11268 33.6668 3.99846 33.197C3.88638 32.736 3.73193 32.2459 3.63027 31.6743C3.52055 31.0576 3.45322 30.3421 3.33823 30.0854C3.05788 29.4598 3.47758 31.0746 3.47758 31.139C3.47758 31.6586 3.3763 30.2644 3.3131 30.1624C2.85639 29.425 3.22324 32.5459 3.31234 32.9651C3.41041 33.4266 3.45169 33.8405 3.55336 34.2471C3.65502 34.6537 3.70604 35.1091 3.83245 35.5668C3.976 36.0866 4.0609 36.556 4.22577 36.9885C4.37406 37.3776 4.41576 37.8003 4.48011 38.2702C4.54164 38.7195 4.72037 39.2213 4.86049 39.7296C4.99619 40.2219 5.12702 40.6179 5.35509 41.0245C5.56757 41.4034 5.71033 41.8363 5.90109 42.3062C6.07068 42.7239 6.31954 43.1309 6.58607 43.6007C6.82491 44.0218 7.13131 44.4757 7.43629 44.8576C7.77565 45.2825 8.22179 45.6941 8.72972 46.0254C9.56888 46.5727 10.4028 46.9384 11.558 47.2442C12.0182 47.366 13.1145 47.3466 14.6356 47.3215C15.6568 47.3046 16.1681 47.144 16.4088 47.0176C16.6243 46.841 16.8032 46.6369 16.9426 46.4343C17.0066 46.3323 17.0568 46.2317 17.1086 46.1282" stroke="#FF6868" stroke-width="4.617" stroke-linecap="round"/>
<path d="M14.9629 36.2827L14.9986 36.5884" stroke="#0D0D0D" stroke-width="2.25" stroke-linecap="round"/>
<path d="M21.1191 35.3594L21.1549 35.6651" stroke="#0D0D0D" stroke-width="2.25" stroke-linecap="round"/>
<path d="M10.9609 32.2812L15.0086 33.0509" stroke="#0D0D0D" stroke-width="1.8" stroke-linecap="round"/>
<path d="M20.504 39.6926C18.7758 39.6014 17.1334 39.782 16.3095 40.0111C15.4558 40.2484 14.8505 41.3606 14.5434 42.002C14.1863 42.748 14.3897 43.5532 14.5868 43.9027C14.8591 44.3855 16.6279 44.2549 17.7037 44.1034C18.34 44.0138 18.8288 43.9209 19.7837 43.7384C21.9549 43.3235 22.7815 43.3443 23.225 42.9638C23.875 42.406 23.1228 40.4901 22.6803 39.9066C22.5735 39.845 22.4531 39.8149 22.2103 39.7994C21.9676 39.7839 21.6063 39.7839 20.9603 39.6926" stroke="#0D0D0D" stroke-width="1.8" stroke-linecap="round"/>
<path d="M19.8877 32.3755L22.3865 31.0499" stroke="#0D0D0D" stroke-width="1.8" stroke-linecap="round"/>
<path d="M10.4604 20.3796C10.7938 18.7071 11.8044 15.6704 12.4373 14.2796C13.1778 12.6522 14.7401 8.86929 16.0159 6.48942C16.1947 6.15584 16.3519 5.8174 16.6046 5.6456C16.8572 5.4738 17.1907 5.4738 17.4459 5.64055C18.7984 6.52439 19.6363 8.41454 20.7302 10.9372C21.6975 13.1677 22.0818 14.8973 22.7109 16.8351C23.3136 18.6915 23.2591 20.4554 22.9698 22.3527C20.6544 22.7367 14.9725 22.906 11.2663 22.1102C10.8848 21.8146 10.5513 21.4811 9.95508 20.8849" stroke="#FF7B00" stroke-width="3.5" stroke-linecap="round"/>
<path d="M17.2363 8.07471C15.7938 12.093 14.484 15.451 13.4194 17.7888C12.9378 18.8462 12.5092 19.6114 12.2196 20.0867C11.9301 20.5621 11.7755 20.7166 12.2368 20.178C15.0862 16.8514 15.8781 15.5743 17.102 13.5979C17.4779 12.991 17.6515 12.5005 17.8592 11.9814C17.9638 11.7199 18.0668 11.4623 17.9396 11.9994C16.8484 16.6049 15.3661 19.5708 14.637 20.8446C14.2894 21.452 14.1156 22.0186 14.1648 21.9187C15.3753 19.4592 16.7086 18.1782 17.6492 16.8739C18.9242 15.1058 19.4203 13.6978 19.6802 13.5386C21.8892 12.1854 19.3188 18.9463 18.9551 20.2982C18.8093 20.8402 18.6413 21.2895 18.7186 21.4995C19.196 22.7968 20.5099 19.0072 21.2382 18.4335C21.5028 18.3234 21.5543 18.581 21.6066 18.8167C21.6589 19.0525 21.7105 19.2585 21.7635 19.627" stroke="#FF7B00" stroke-width="3.5" stroke-linecap="round"/>
<path d="M16.9238 19.9395C17.336 20.0425 17.7481 20.1455 18.0892 20.2501C18.4303 20.3547 18.6879 20.4577 19.1094 20.5639" stroke="#FF7B00" stroke-width="3.5" stroke-linecap="round"/>
<path d="M13.6455 8.69922C14.4229 8.75073 15.5657 8.85533 17.0191 8.9849C17.795 9.01144 19.1344 9.01144 19.9274 8.95992C20.7205 8.90841 20.9266 8.80537 21.295 8.69922" stroke="#FFF200" stroke-width="2.1" stroke-linecap="round"/>
<path d="M11.1484 13.5386C11.9727 13.7446 15.2823 13.8508 19.7564 13.825C21.5517 13.7478 22.0216 13.6432 22.5407 13.5651C22.8022 13.5386 23.0598 13.5386 23.3251 13.5386" stroke="#FFF200" stroke-width="2.1" stroke-linecap="round"/>
<path d="M9.58691 18.8467C10.5158 18.8467 12.5999 18.9497 14.3132 19.1324C16.1217 19.1589 17.5455 19.2104 19.1472 19.2885C20.4398 19.315 22.7065 19.315 25.042 19.1589" stroke="#FFF200" stroke-width="2.1" stroke-linecap="round"/>
<path d="M9.1187 22.4374C9.1187 22.6434 9.06719 22.9557 9.06641 23.3452C9.06603 23.5355 9.2717 23.6831 9.40283 23.6597C9.53396 23.6363 9.637 23.4302 9.69007 23.4271C9.89948 23.4148 9.8977 23.9969 10.2607 24.2826C10.6705 24.6052 11.5072 24.6229 12.2878 24.4941C12.5788 24.4461 12.5532 24.1078 12.4501 23.9235C12.2441 23.5553 11.6711 23.4786 11.2036 23.4778C10.9876 23.4775 10.8391 23.6831 10.8367 23.8658C10.8314 24.2832 11.3542 24.5698 11.7952 24.7775C13.3461 25.5076 15.5692 24.9882 15.9587 24.7291C16.1593 24.5957 16.2967 24.3669 16.2733 24.1835C16.2499 24 16.0438 23.8455 15.7831 23.7659C15.5224 23.6863 15.2133 23.6863 15.0283 23.7893C14.8433 23.8923 14.7918 24.0984 14.8168 24.3076C14.8418 24.5168 14.9448 24.7228 15.1524 24.9063C16.4138 26.0206 18.7414 25.1974 19.3659 24.7564C19.6245 24.5737 19.5782 24.2639 19.3979 24.1312C19.2176 23.9985 18.8569 23.9985 18.6454 24.1015C18.4339 24.2045 18.3824 24.4106 18.4073 24.6198C18.4323 24.829 18.5354 25.0351 18.743 25.1927C19.2039 25.5428 20.454 25.5596 21.8324 25.4566C22.3441 25.4183 22.4381 25.1475 22.4655 24.9383C22.4928 24.7291 22.4413 24.523 22.3117 24.3396C22.1821 24.1562 21.9761 24.0016 21.7669 23.922C21.5577 23.8424 21.3516 23.8424 21.1682 23.9196C20.9847 23.9969 20.8302 24.1515 20.7763 24.3341C20.7225 24.5168 20.774 24.7228 20.9551 24.8805C22.2553 26.0125 24.6237 25.1443 24.9874 24.8594C25.3897 24.5444 25.3543 23.897 25.2513 23.4552C25.2033 23.2497 24.9422 23.168 24.7072 23.1149C24.4723 23.0618 24.2147 23.0618 24.1078 23.1648C24.0008 23.2679 24.0523 23.4739 24.1819 23.6316C24.4517 23.96 25.142 23.9985 25.8437 23.9212C26.1416 23.8884 26.2879 23.6894 26.3932 23.5067C26.4986 23.3241 26.5501 23.118 26.5251 22.9088C26.5002 22.6996 26.3971 22.4936 26.1637 22.3874C25.9304 22.2812 25.5697 22.2812 25.487 22.2812C25.4043 22.2812 25.6103 22.2812 26.291 22.4374" stroke="#FFF200" stroke-width="2.1" stroke-linecap="round"/>
<path d="M7.86978 22.2812C7.76674 22.2812 7.61063 22.4873 7.45452 22.9026C7.37857 23.1046 7.40144 23.3178 7.53023 23.4497C7.65902 23.5817 7.9166 23.6332 8.28113 23.6597C8.64565 23.6863 9.1093 23.6863 9.43089 23.2179" stroke="#FFF200" stroke-width="2.1" stroke-linecap="round"/>
<path d="M17.5486 1.0498C17.4456 1.0498 17.0319 1.0498 16.4082 1.15284C16.1295 1.19889 15.9906 1.46194 15.911 1.82568C15.7223 2.68778 15.9344 3.44144 16.1936 3.77942C16.4406 4.10159 17.0772 4.01593 17.6228 3.9129C18.1126 3.8204 18.3276 3.23693 18.5876 2.89973C18.8435 2.56773 18.7975 1.98959 18.6945 1.4955C18.615 1.11449 17.967 1.1544 17.5775 1.17938C17.3941 1.25587 17.2395 1.46194 17.1599 1.74841C17.0803 2.03487 17.0803 2.39549 17.2364 3.07925" stroke="#FFF200" stroke-width="2.1" stroke-linecap="round"/>
</svg>
