<svg width="46" height="50" viewBox="0 0 46 50" fill="none" xmlns="http://www.w3.org/2000/svg">
<path d="M10.5881 44.1809C7.84448 38.9908 2.87281 27.0117 3.08468 21.5551C3.12467 20.5253 4.16596 20.5896 4.89772 21.0942C8.3764 23.4929 8.25514 27.4223 10.0704 30.8431C11.468 33.4768 12.187 35.723 12.4077 39.1437C12.4599 39.9535 12.6239 40.5286 12.6982 39.6724C13.2519 33.288 13.2093 30.3581 13.5719 25.5678C14.299 15.9619 14.6598 13.32 15.9704 11.2754C16.2555 10.8306 16.9839 10.9783 17.3531 11.3387C22.3941 16.2604 17.7266 30.9086 17.4339 35.2075C17.1078 39.9966 16.5602 41.6995 16.3417 42.2849C14.9882 45.9123 20.1906 32.1056 21.2872 28.8313C22.7663 24.4145 25.7215 20.8954 28.0544 19.1392C28.638 18.6998 29.2165 18.1256 29.6577 18.1169C30.099 18.1081 30.3873 18.6848 30.5358 19.4144C31.2067 22.7096 28.5087 26.5398 26.759 29.0279C25.0135 31.51 22.9779 33.827 20.645 36.671C18.5816 39.1865 17.2897 40.8257 17.2854 41.267C17.2335 46.5187 28.0369 33.5648 31.1125 31.1554C33.4437 29.3292 35.3371 28.165 36.2852 28.0886C36.5948 28.0636 36.224 29.0213 35.7871 29.6089C34.0477 31.9484 30.265 33.1017 26.1125 36.1599C22.8906 38.5326 19.78 41.5422 18.5938 43.305C15.8951 47.3157 27.3117 40.5461 31.1082 39.0171C35.3555 37.3064 39.9942 36.754 41.6675 37.0424C42.3809 37.1653 42.6199 37.9074 42.6242 38.637C42.6339 40.2566 41.1782 41.6995 39.6513 42.7895C37.4906 44.3319 34.4852 44.7576 31.6412 45.4173C29.0898 45.6357 17.8227 45.9284 11.7589 44.478C11.322 44.1809 10.7453 44.1809 10.1512 44.1809" stroke="#FF6868" stroke-width="6.156" stroke-linecap="round"/>
<path d="M36.5867 40.7065L27.79 42.4659" stroke="#FF6868" stroke-width="4.617" stroke-linecap="round"/>
<path d="M2.41113 22.9849C2.41113 23.2628 2.46139 23.8195 2.49985 24.8468C2.52143 25.4233 2.61369 25.9273 2.66471 26.8396C2.70092 27.4871 2.84215 28.1357 3.00701 28.6056C3.15103 29.016 3.2229 29.4805 3.32456 29.9131C3.42752 30.3512 3.60366 30.801 3.75596 31.2834C3.90458 31.7542 4.0103 32.1717 4.14928 32.5784C4.28591 32.9782 4.36517 33.3901 4.53003 33.7968C4.69159 34.1953 4.77181 34.6086 4.84758 35.0152C4.9256 35.4339 5.12668 35.8772 5.2409 36.3098C5.35297 36.7342 5.50743 37.1215 5.6723 37.5282C5.83385 37.9267 5.96434 38.34 6.07856 38.7466C6.24381 39.1532 6.34509 39.483 6.44637 39.7236C6.49739 39.8386 6.54765 39.9391 6.59944 40.0427" stroke="#FF6868" stroke-width="4.617" stroke-linecap="round"/>
<path d="M2.98873 21.8779C2.95907 22.7154 2.89886 24.6761 3.0031 25.9943C3.04505 26.5248 3.3176 26.9675 3.3778 27.5367C3.44366 28.1594 3.61773 28.7341 3.78172 29.3936C3.92152 29.9559 4.00591 30.6211 4.15642 31.2955C4.28659 31.8787 4.33659 32.3589 4.50058 32.8388C4.6921 33.3992 4.84519 34.1256 4.9948 34.6656C5.1748 35.3153 5.41309 36.0108 5.53439 36.762C5.62066 37.2962 5.83362 37.7504 5.93875 38.2303C6.05628 38.7667 6.28291 39.4865 6.43252 40.1168C6.57821 40.7306 6.88136 41.2243 7.10646 41.7347C7.3112 42.199 7.51037 42.6926 7.76512 43.1724C8.03426 43.6794 8.4377 44.1303 8.82814 44.6699C9.13941 45.1001 9.60586 45.3596 10.0857 45.6741C10.5291 45.9647 11.1029 46.0784 11.6429 46.1692C12.2815 46.2765 12.8102 46.3786 13.3502 46.5583C13.9506 46.7581 14.6954 46.6787 16.6619 46.7533C18.0866 46.8073 20.786 46.7686 22.2354 46.7537C24.2827 46.7328 25.3004 46.6194 26.5566 46.574C27.1892 46.4693 27.7859 46.4091 28.6692 46.3345C28.954 46.3193 29.3099 46.3193 29.9461 46.2294" stroke="#FF6868" stroke-width="4.617" stroke-linecap="round"/>
<path d="M3.02068 27.1729C2.94453 28.0037 3.04504 29.6325 3.2358 30.1283C3.39463 30.541 3.52784 30.953 3.69271 31.3596C3.85427 31.7581 3.98475 32.1714 4.09898 32.578C4.12843 32.6829 4.18731 32.7806 4.2132 32.7067C4.43965 32.0607 4.11268 31.617 3.99846 31.1472C3.88638 30.6862 3.73193 30.196 3.63027 29.6245C3.52055 29.0078 3.45322 28.2923 3.33823 28.0356C3.05788 27.41 3.47758 29.0248 3.47758 29.0892C3.47758 29.6088 3.3763 28.2146 3.3131 28.1126C2.85639 27.3752 3.22324 30.4961 3.31234 30.9153C3.41041 31.3768 3.45169 31.7907 3.55336 32.1973C3.65502 32.6039 3.70604 33.0593 3.83245 33.517C3.976 34.0368 4.0609 34.5062 4.22577 34.9387C4.37406 35.3278 4.41576 35.7505 4.48011 36.2204C4.54164 36.6696 4.72037 37.1715 4.86049 37.6798C4.99619 38.1721 5.12702 38.5681 5.35509 38.9747C5.56757 39.3536 5.71033 39.7865 5.90109 40.2564C6.07068 40.6741 6.31954 41.0811 6.58607 41.5509C6.82491 41.972 7.13131 42.4259 7.43629 42.8078C7.77565 43.2327 8.22179 43.6443 8.72972 43.9756C9.56888 44.5229 10.4028 44.8886 11.558 45.1944C12.0182 45.3162 13.1145 45.2968 14.6356 45.2717C15.6568 45.2548 16.1681 45.0942 16.4088 44.9678C16.6243 44.7912 16.8032 44.5871 16.9426 44.3845C17.0066 44.2825 17.0568 44.1819 17.1086 44.0784" stroke="#FF6868" stroke-width="4.617" stroke-linecap="round"/>
<path d="M14.9629 34.2329L14.9986 34.5386" stroke="#0D0D0D" stroke-width="2.25" stroke-linecap="round"/>
<path d="M21.1191 33.3096L21.1549 33.6153" stroke="#0D0D0D" stroke-width="2.25" stroke-linecap="round"/>
<path d="M10.9609 30.2314L15.0086 31.0011" stroke="#0D0D0D" stroke-width="1.8" stroke-linecap="round"/>
<path d="M20.504 37.6428C18.7758 37.5516 17.1334 37.7322 16.3095 37.9612C15.4558 38.1985 14.8505 39.3108 14.5434 39.9522C14.1863 40.6982 14.3897 41.5034 14.5868 41.8529C14.8591 42.3357 16.6279 42.2051 17.7037 42.0536C18.34 41.964 18.8288 41.8711 19.7837 41.6886C21.9549 41.2737 22.7815 41.2945 23.225 40.914C23.875 40.3562 23.1228 38.4403 22.6803 37.8568C22.5735 37.7952 22.4531 37.7651 22.2103 37.7496C21.9676 37.734 21.6063 37.734 20.9603 37.6428" stroke="#0D0D0D" stroke-width="1.8" stroke-linecap="round"/>
<path d="M19.8877 30.3257L22.3865 29.0001" stroke="#0D0D0D" stroke-width="1.8" stroke-linecap="round"/>
<path d="M8.37862 10.6453C7.94506 11.6451 7.68995 12.3898 7.49202 13.0964C7.30386 13.7682 7.09692 15.4236 6.96551 16.7164C6.79966 18.348 6.66435 19.0547 6.69735 19.7996C6.72648 20.4573 6.67659 21.1616 6.73386 21.7748C6.80349 22.5204 6.8698 23.5843 7.22766 24.2785C7.62606 25.0514 9.13885 24.9246 10.6746 24.7409C10.9911 24.7031 11.1806 24.7012 12.7069 24.4544C14.2332 24.2077 17.0904 23.7153 18.6725 23.4585C21.616 22.9806 23.6072 22.6248 23.8075 22.3995C24.0558 22.1203 24.0172 21.6607 24.0326 21.1964C24.0534 20.5663 23.8796 18.8209 23.4561 16.5472C23.1025 14.6485 22.5373 13.9916 22.2798 13.4287C21.9649 12.7406 21.3972 11.826 21.0178 11.2016C20.4878 10.3293 19.7956 9.57501 19.2625 9.1708C18.7429 8.77692 17.4618 8.7933 15.5371 8.9812C12.7794 9.25042 11.0054 9.74493 10.5959 9.86344C10.0889 9.96711 9.62498 10.0787 9.29491 10.1993C9.14388 10.2575 9.02628 10.3094 8.81202 10.3789" stroke="#FFE749" stroke-width="3.2" stroke-linecap="round"/>
<path d="M11.515 10.4883C10.0941 13.5411 9.58736 15.4124 9.17159 16.6239C8.65101 18.1408 8.68266 18.7069 8.42764 21.2989C8.36404 21.9454 8.4727 22.3169 8.6278 22.3909C9.01591 22.5758 9.64107 21.5203 10.5789 20.0395C11.1999 19.0591 11.9364 17.5058 12.5256 16.2443C14.0576 12.9649 14.3226 12.1499 14.6567 11.4826C14.7973 11.2018 14.9746 10.9159 15.1875 10.6717C15.2858 10.5589 15.4163 10.5196 15.5033 10.6465C16.0819 11.4897 15.3647 12.6011 14.6464 13.7928C12.874 16.7335 12.3788 17.5254 12.0576 18.0783C11.593 18.878 10.9125 20.1421 10.5671 20.9221C10.0405 22.1112 10.0395 22.6921 10.1179 22.9657C10.1567 23.1016 10.3699 23.1461 10.534 23.1667C10.8494 23.2063 11.3067 23.0192 12.1005 22.5492C13.4072 21.7756 14.6071 20.3145 15.8305 18.8138C16.4801 18.017 17.037 17.0313 17.5684 16.0094C19.2516 12.7721 19.2005 12.0743 19.3835 11.3726C19.4558 11.0954 19.3089 10.656 19.1764 10.5297C18.3871 9.77767 17.5384 12.4201 17.0236 13.3213C16.0336 15.0544 15.2339 15.9137 14.6966 16.6956C13.7122 18.1282 13.375 19.7791 13.2746 20.6956C13.243 20.9842 13.3029 21.2353 13.4662 21.4463C13.8847 21.9868 15.1724 21.5534 16.1724 21.0312C16.561 20.8282 17.5668 19.5216 18.9701 17.4766C20.3765 15.4271 20.7279 14.2728 21.0765 13.8734C22.1402 12.6547 21.8051 18.2649 21.2507 19.0339C20.8372 19.6075 20.2399 19.7521 19.5478 20.4615C19.3898 20.6234 19.3231 20.7403 19.3559 20.8468C19.3886 20.9534 19.5327 21.0551 19.671 21.1122C19.9249 21.2172 20.7762 21.067 21.3373 20.9545C23.7419 20.4723 18.1797 21.5145 17.2784 21.8448C16.9155 21.9777 16.6125 22.0722 16.4746 22.1118C16.2769 22.1685 17.0543 22.0603 18.3008 21.7501C21.3024 21.0031 23.2761 20.5096 23.1408 20.278C22.9916 20.0224 22.1101 19.0895 20.7095 17.5287C19.5093 16.1913 18.2569 15.4656 17.3262 14.8768C15.9776 13.9382 15.4587 13.7084 15.1219 13.5115C14.9598 13.411 14.8157 13.3092 14.5742 13.2205" stroke="#FFE749" stroke-width="3.2" stroke-linecap="round"/>
<path d="M13.1044 10.792C12.1818 12.0988 11.4526 13.2157 11.0487 13.9783C10.4947 15.024 10.2353 16.2548 10.1558 16.6119C10.1315 16.7213 10.3304 16.2074 10.7527 15.4719C11.1019 14.8639 11.7616 13.8006 12.1608 13.1174C12.6882 12.1686 12.8703 11.782 12.9995 11.5669C13.0786 11.4647 13.1851 11.3768 13.3885 11.2173" stroke="#FFE749" stroke-width="3.2" stroke-linecap="round"/>
<path d="M9.15895 8.99519C8.74014 9.20702 8.37773 9.55036 8.10461 9.85222C7.87397 10.1071 7.77896 10.4609 7.69078 10.8191C7.65415 10.9679 7.70253 11.2466 7.79504 11.5816C7.91422 12.0132 8.46599 12.1173 9.24231 12.2997C9.74619 12.4181 10.0412 12.2859 10.8662 12.1701C11.5891 12.0686 12.9213 11.8249 13.6409 11.6921C14.6171 11.5121 15.2465 11.3187 15.7352 11.1821C16.1052 11.0786 16.5731 10.9499 16.8678 10.8725C17.1998 10.7854 17.66 10.6393 18.02 10.5248C18.3619 10.4161 18.7577 10.2752 19.0583 10.1788C19.3286 10.0922 19.604 9.88376 19.8582 9.67263C19.9713 9.57869 19.9583 9.27939 19.8783 8.91587C19.7937 8.53205 19.4786 8.32444 19.1903 8.18046C18.9156 8.04328 18.5333 8.13533 18.1883 8.12443C17.894 8.11512 17.6106 8.08356 17.2054 8.12677C16.8806 8.16141 16.5268 8.11224 16.0617 8.16578C15.7482 8.20187 15.4344 8.1951 14.2388 8.37454C13.8925 8.42651 13.6651 8.4294 13.4083 8.46497C13.1841 8.49601 12.1798 8.63268 10.7913 8.88067C10.0731 9.00894 9.75647 9.19049 9.42921 9.28219C9.35192 9.30385 9.29311 9.35782 9.26393 9.34599C9.23475 9.33415 9.24 9.26369 9.27211 9.19623C9.40993 8.90675 9.7342 8.7738 10.0462 8.59671C10.3719 8.41186 10.7021 8.37829 12.9877 7.97517C13.7381 7.84281 14.1996 7.87987 14.9325 7.8068C15.3689 7.76328 15.8851 7.78332 16.2716 7.76915C16.6212 7.75633 17.0366 7.72506 17.3216 7.74629C17.6067 7.76751 17.8907 7.78865 18.1699 7.77584C18.4721 7.76198 18.7536 7.90343 19.0405 7.98547C19.3235 8.06643 19.4994 8.35352 19.7256 8.59594C19.7817 8.65599 19.8259 8.71885 19.8551 8.78443C19.8843 8.85 19.8959 8.91756 19.8457 8.97944C19.5784 9.30893 18.9959 9.28452 17.553 9.55979C17.2591 9.61587 17.195 9.64757 16.2978 9.84594C15.4005 10.0443 13.6726 10.4117 12.7417 10.6166C11.7293 10.853 11.4595 10.9174 11.1457 10.9802C11.0177 11.011 10.9531 11.0395 10.8865 11.0689" stroke="#BA5801" stroke-width="3.2" stroke-linecap="round"/>
<path d="M12.6979 6.59395C12.7737 6.63307 13.099 6.68293 13.1941 6.62306C13.2411 6.59348 13.2071 6.4904 13.1643 6.44428C13.0799 6.35309 12.9081 6.38225 12.7704 6.39702C12.7008 6.40449 12.6415 6.46244 12.6185 6.53651C12.5954 6.61057 12.6129 6.7119 12.6516 6.78507C12.6903 6.85824 12.7496 6.90017 12.8647 6.90722C12.9797 6.91427 13.1486 6.88517 13.2636 6.83058C13.3785 6.77598 13.4345 6.69679 13.4659 6.62075C13.4973 6.54472 13.5026 6.47426 13.491 6.40564C13.4794 6.33701 13.4509 6.27237 13.401 6.23644C13.351 6.20052 13.2806 6.19527 13.1767 6.20421C13.0729 6.21315 12.9377 6.23644 12.705 6.32924" stroke="#FF0000" stroke-width="3.2" stroke-linecap="round"/>
<path d="M12.8753 5.17983C12.8625 4.90379 12.8635 4.60377 12.944 4.10929C13.155 3.26191 13.3864 2.54645 13.6163 2.10421C13.7572 1.85122 13.947 1.54026 14.2786 1.09105" stroke="#FF0000" stroke-width="0.8" stroke-linecap="round"/>
</svg>
