<svg width="46" height="48" viewBox="0 0 46 48" fill="none" xmlns="http://www.w3.org/2000/svg">
<path d="M10.5881 43.0935C7.84448 37.9034 2.87281 25.9243 3.08468 20.4677C3.12467 19.4379 4.16596 19.5022 4.89772 20.0068C8.3764 22.4055 8.25514 26.3349 10.0704 29.7557C11.468 32.3894 12.187 34.6356 12.4077 38.0563C12.4599 38.8661 12.6239 39.4412 12.6982 38.585C13.2519 32.2006 13.2093 29.2707 13.5719 24.4804C14.299 14.8744 14.6598 12.2326 15.9704 10.188C16.2555 9.74318 16.9839 9.89088 17.3531 10.2513C22.3941 15.173 17.7266 29.8212 17.4339 34.1201C17.1078 38.9092 16.5602 40.6121 16.3417 41.1975C14.9882 44.8249 20.1906 31.0182 21.2872 27.7439C22.7663 23.3271 25.7215 19.808 28.0544 18.0518C28.638 17.6124 29.2165 17.0382 29.6577 17.0295C30.099 17.0207 30.3873 17.5974 30.5358 18.327C31.2067 21.6222 28.5087 25.4524 26.759 27.9405C25.0135 30.4226 22.9779 32.7396 20.645 35.5836C18.5816 38.0991 17.2897 39.7383 17.2854 40.1796C17.2335 45.4313 28.0369 32.4774 31.1125 30.068C33.4437 28.2418 35.3371 27.0776 36.2852 27.0012C36.5948 26.9762 36.224 27.9339 35.7871 28.5215C34.0477 30.861 30.265 32.0143 26.1125 35.0725C22.8906 37.4452 19.78 40.4548 18.5938 42.2176C15.8951 46.2283 27.3117 39.4587 31.1082 37.9296C35.3555 36.219 39.9942 35.6666 41.6675 35.955C42.3809 36.0779 42.6199 36.82 42.6242 37.5496C42.6339 39.1692 41.1782 40.6121 39.6513 41.7021C37.4906 43.2445 34.4852 43.6702 31.6412 44.3299C29.0898 44.5483 17.8227 44.841 11.7589 43.3906C11.322 43.0935 10.7453 43.0935 10.1512 43.0935" stroke="#FF6868" stroke-width="6.156" stroke-linecap="round"/>
<path d="M36.5867 39.6191L27.79 41.3785" stroke="#FF6868" stroke-width="4.617" stroke-linecap="round"/>
<path d="M2.41113 21.8975C2.41113 22.1754 2.46139 22.7321 2.49985 23.7594C2.52143 24.3359 2.61369 24.8399 2.66471 25.7522C2.70092 26.3997 2.84215 27.0483 3.00701 27.5182C3.15103 27.9286 3.2229 28.3931 3.32456 28.8257C3.42752 29.2637 3.60366 29.7136 3.75596 30.196C3.90458 30.6668 4.0103 31.0843 4.14928 31.491C4.28591 31.8907 4.36517 32.3027 4.53003 32.7094C4.69159 33.1079 4.77181 33.5211 4.84758 33.9278C4.9256 34.3465 5.12668 34.7898 5.2409 35.2224C5.35297 35.6468 5.50743 36.0341 5.6723 36.4408C5.83385 36.8393 5.96434 37.2526 6.07856 37.6592C6.24381 38.0658 6.34509 38.3956 6.44637 38.6362C6.49739 38.7512 6.54765 38.8517 6.59944 38.9553" stroke="#FF6868" stroke-width="4.617" stroke-linecap="round"/>
<path d="M2.98873 20.7905C2.95907 21.628 2.89886 23.5887 3.0031 24.9069C3.04505 25.4374 3.3176 25.8801 3.3778 26.4493C3.44366 27.072 3.61773 27.6467 3.78172 28.3062C3.92152 28.8685 4.00591 29.5337 4.15642 30.2081C4.28659 30.7913 4.33659 31.2715 4.50058 31.7514C4.6921 32.3118 4.84519 33.0381 4.9948 33.5782C5.1748 34.2279 5.41309 34.9234 5.53439 35.6746C5.62066 36.2088 5.83362 36.663 5.93875 37.1429C6.05628 37.6793 6.28291 38.3991 6.43252 39.0294C6.57821 39.6432 6.88136 40.1369 7.10646 40.6473C7.3112 41.1115 7.51037 41.6052 7.76512 42.085C8.03426 42.592 8.4377 43.0429 8.82814 43.5825C9.13941 44.0127 9.60586 44.2722 10.0857 44.5867C10.5291 44.8773 11.1029 44.991 11.6429 45.0818C12.2815 45.1891 12.8102 45.2912 13.3502 45.4709C13.9506 45.6707 14.6954 45.5913 16.6619 45.6659C18.0866 45.7199 20.786 45.6812 22.2354 45.6663C24.2827 45.6454 25.3004 45.532 26.5566 45.4866C27.1892 45.3819 27.7859 45.3217 28.6692 45.2471C28.954 45.2319 29.3099 45.2319 29.9461 45.142" stroke="#FF6868" stroke-width="4.617" stroke-linecap="round"/>
<path d="M3.02068 26.0854C2.94453 26.9163 3.04504 28.5451 3.2358 29.0409C3.39463 29.4536 3.52784 29.8656 3.69271 30.2722C3.85427 30.6707 3.98475 31.084 4.09898 31.4906C4.12843 31.5955 4.18731 31.6932 4.2132 31.6193C4.43965 30.9733 4.11268 30.5296 3.99846 30.0598C3.88638 29.5988 3.73193 29.1086 3.63027 28.5371C3.52055 27.9203 3.45322 27.2049 3.33823 26.9482C3.05788 26.3226 3.47758 27.9374 3.47758 28.0018C3.47758 28.5214 3.3763 27.1272 3.3131 27.0252C2.85639 26.2878 3.22324 29.4087 3.31234 29.8279C3.41041 30.2894 3.45169 30.7032 3.55336 31.1099C3.65502 31.5165 3.70604 31.9719 3.83245 32.4296C3.976 32.9494 4.0609 33.4188 4.22577 33.8513C4.37406 34.2404 4.41576 34.6631 4.48011 35.133C4.54164 35.5822 4.72037 36.0841 4.86049 36.5924C4.99619 37.0847 5.12702 37.4807 5.35509 37.8873C5.56757 38.2662 5.71033 38.6991 5.90109 39.169C6.07068 39.5867 6.31954 39.9937 6.58607 40.4635C6.82491 40.8846 7.13131 41.3385 7.43629 41.7204C7.77565 42.1453 8.22179 42.5569 8.72972 42.8882C9.56888 43.4354 10.4028 43.8012 11.558 44.107C12.0182 44.2288 13.1145 44.2094 14.6356 44.1843C15.6568 44.1674 16.1681 44.0068 16.4088 43.8804C16.6243 43.7037 16.8032 43.4997 16.9426 43.2971C17.0066 43.1951 17.0568 43.0945 17.1086 42.991" stroke="#FF6868" stroke-width="4.617" stroke-linecap="round"/>
<path d="M14.9629 33.1455L14.9986 33.4512" stroke="#0D0D0D" stroke-width="2.25" stroke-linecap="round"/>
<path d="M21.1191 32.2222L21.1549 32.5279" stroke="#0D0D0D" stroke-width="2.25" stroke-linecap="round"/>
<path d="M10.9609 29.144L15.0086 29.9137" stroke="#0D0D0D" stroke-width="1.8" stroke-linecap="round"/>
<path d="M20.504 36.5554C18.7758 36.4642 17.1334 36.6448 16.3095 36.8738C15.4558 37.1111 14.8505 38.2234 14.5434 38.8648C14.1863 39.6108 14.3897 40.416 14.5868 40.7655C14.8591 41.2483 16.6279 41.1177 17.7037 40.9662C18.34 40.8766 18.8288 40.7837 19.7837 40.6012C21.9549 40.1863 22.7815 40.2071 23.225 39.8266C23.875 39.2688 23.1228 37.3529 22.6803 36.7694C22.5735 36.7078 22.4531 36.6777 22.2103 36.6622C21.9676 36.6466 21.6063 36.6466 20.9603 36.5554" stroke="#0D0D0D" stroke-width="1.8" stroke-linecap="round"/>
<path d="M19.8877 29.2383L22.3865 27.9127" stroke="#0D0D0D" stroke-width="1.8" stroke-linecap="round"/>
<path d="M9.10508 21.1689C8.47965 19.7547 7.16247 17.0645 5.90051 14.5529C5.36304 13.4832 4.90063 12.4601 4.74411 11.5397C4.72046 11.4006 4.95133 11.3848 5.1238 11.4725C6.07497 11.9561 6.85543 12.672 7.47664 12.9819C8.11797 13.3018 8.86661 13.6705 9.66903 14.0077C10.551 14.3783 11.2302 14.65 11.5225 14.641C12.2768 14.618 12.2344 13.1512 12.9916 10.8914C13.6005 9.07421 13.9052 8.12373 14.4939 6.49615C15.0435 4.97693 15.2135 4.44749 15.3684 4.20547C15.4389 4.09545 15.6306 4.13977 15.8095 4.26583C16.7861 4.95398 17.4188 6.61917 18.2497 7.81883C18.8242 8.64824 19.4969 9.64819 20.0918 10.3775C20.5196 10.902 20.8442 11.3513 21.0791 11.5863C21.1957 11.7031 21.3768 11.7331 21.562 11.6644C22.4402 11.3386 22.8464 10.6651 24.0372 9.81977C24.8545 9.23962 25.5815 8.71627 26.237 8.2921C26.8392 7.90243 27.3896 7.78468 27.5964 7.72944C28.1889 7.57119 27.2345 9.1789 26.9898 10.4174C26.8394 11.1784 26.6456 12.9183 26.3757 14.4849C26.2133 15.4281 26.1638 16.3832 26.091 17.242C26.0124 17.5884 25.9481 17.9147 25.9041 18.2353C25.8725 18.3984 25.8222 18.5622 25.8088 18.9601" stroke="#FFDE09" stroke-width="3.36" stroke-linecap="round"/>
<path d="M8.71909 16.0526C9.29443 17.6318 10.5464 20.1786 10.9062 20.4534C11.582 20.9694 10.6702 18.3234 10.3757 17.3877C10.3056 17.1648 10.2735 16.8967 10.3452 16.8612C11.2782 16.3987 11.9504 18.7259 12.5264 19.1211C12.7087 19.2461 12.7807 18.9872 12.8095 18.688C12.8757 18.0002 12.7367 16.8398 12.7593 16.0471C12.7846 15.1635 13.8427 17.5871 13.9823 17.605C16.0064 17.8637 14.4767 13.1678 14.46 12.8362C14.3659 10.9648 15.7389 18.1315 15.9742 18.3688C16.8377 19.2401 16.2214 13.5315 16.0598 11.2553C16.0405 10.9836 16.021 10.6755 15.9352 10.044C15.8495 9.41246 15.6912 8.46754 16.027 9.89258C16.3628 11.3176 17.1975 15.1413 17.719 17.3094C18.2405 19.4776 18.4235 19.8744 18.3529 18.7464C18.1148 14.94 17.8397 12.1701 18.2906 12.2888C20.5203 12.8763 20.8273 17.5854 21.2113 18.1205C22.7 20.1949 20.6737 13.6171 20.9691 13.978C21.3742 14.4731 21.9263 16.1815 22.6841 17.7855C23.3881 19.2754 23.4999 15.2703 23.8057 14.2736C24.1773 13.0623 23.7929 18.384 23.7241 19.2916C23.6101 20.7968 24.5543 15.4917 25.2208 13.615C25.5541 12.6767 25.4666 11.996 25.2572 11.4418C25.1343 11.1164 23.3421 13.0418 21.2065 15.2829C19.8223 16.7354 18.9889 17.8227 17.5765 18.7469C16.3811 19.5291 15.3456 19.495 14.6427 19.7699C13.8308 20.0874 12.8049 20.5092 12.2031 20.7866C11.4799 21.12 10.5997 21.3896 9.91763 21.5427C9.78704 21.572 12.9345 21.234 17.0982 20.5561C19.116 20.2276 20.8885 20.1374 22.3081 19.9974C23.2396 19.8614 23.9813 19.776 24.4089 19.7633C24.6791 19.7381 25.0571 19.6748 25.6947 19.6857" stroke="#FFDE09" stroke-width="3.36" stroke-linecap="round"/>
<path d="M3.99805 9.66016L4.03641 9.88923" stroke="#C8E1FF" stroke-width="3.36" stroke-linecap="round"/>
<path d="M15.5615 2.07178L15.6191 2.41539" stroke="#C8E1FF" stroke-width="3.36" stroke-linecap="round"/>
<path d="M29.0059 6.41406L29.025 6.5286" stroke="#C8E1FF" stroke-width="3.36" stroke-linecap="round"/>
<path d="M16.1142 9.76207C15.8314 10.6848 15.5927 11.185 15.2944 12.0876C15.2281 12.2882 15.1711 12.3864 15.1629 12.4805C15.1252 12.9176 15.8647 13.2391 16.2596 13.531C16.6699 13.7741 16.9583 13.9798 17.154 14.1193C17.2719 14.2034 17.4275 14.3143 17.6551 14.4174" stroke="#C8E1FF" stroke-width="1.68" stroke-linecap="round"/>
<path d="M16.3164 9.72852C16.592 9.86575 17.6035 10.4306 18.3484 10.8515C18.4683 10.9193 18.5411 11.0375 18.5666 11.1834C18.6731 11.7934 18.4885 12.3598 18.2332 13.1762C18.1268 13.5055 18.0738 13.7469 18.059 13.9334C18.0516 14.0274 18.0443 14.12 17.9694 14.2266" stroke="#C8E1FF" stroke-width="1.68" stroke-linecap="round"/>
</svg>
