<svg width="46" height="46" viewBox="0 0 46 46" fill="none" xmlns="http://www.w3.org/2000/svg">
<path d="M10.5881 41.0808C7.84448 35.8907 2.87281 23.9116 3.08468 18.455C3.12467 17.4252 4.16596 17.4895 4.89772 17.9941C8.3764 20.3928 8.25514 24.3223 10.0704 27.743C11.468 30.3767 12.187 32.6229 12.4077 36.0436C12.4599 36.8534 12.6239 37.4285 12.6982 36.5723C13.2519 30.1879 13.2093 27.258 13.5719 22.4677C14.299 12.8618 14.6598 10.2199 15.9704 8.17527C16.2555 7.73049 16.9839 7.87818 17.3531 8.23861C22.3941 13.1603 17.7266 27.8085 17.4339 32.1074C17.1078 36.8965 16.5602 38.5994 16.3417 39.1848C14.9882 42.8122 20.1906 29.0056 21.2872 25.7312C22.7663 21.3144 25.7215 17.7953 28.0544 16.0391C28.638 15.5997 29.2165 15.0255 29.6577 15.0168C30.099 15.008 30.3873 15.5847 30.5358 16.3143C31.2067 19.6095 28.5087 23.4397 26.759 25.9278C25.0135 28.4099 22.9779 30.7269 20.645 33.5709C18.5816 36.0864 17.2897 37.7256 17.2854 38.1669C17.2335 43.4186 28.0369 30.4647 31.1125 28.0553C33.4437 26.2291 35.3371 25.0649 36.2852 24.9885C36.5948 24.9635 36.224 25.9212 35.7871 26.5088C34.0477 28.8483 30.265 30.0016 26.1125 33.0598C22.8906 35.4325 19.78 38.4421 18.5938 40.2049C15.8951 44.2156 27.3117 37.446 31.1082 35.917C35.3555 34.2063 39.9942 33.6539 41.6675 33.9423C42.3809 34.0652 42.6199 34.8073 42.6242 35.5369C42.6339 37.1565 41.1782 38.5994 39.6513 39.6894C37.4906 41.2318 34.4852 41.6575 31.6412 42.3172C29.0898 42.5356 17.8227 42.8283 11.7589 41.3779C11.322 41.0808 10.7453 41.0808 10.1512 41.0808" stroke="#FF6868" stroke-width="6.156" stroke-linecap="round"/>
<path d="M36.5867 37.6064L27.79 39.3658" stroke="#FF6868" stroke-width="4.617" stroke-linecap="round"/>
<path d="M2.41113 19.8848C2.41113 20.1627 2.46139 20.7194 2.49985 21.7467C2.52143 22.3232 2.61369 22.8272 2.66471 23.7395C2.70092 24.387 2.84215 25.0356 3.00701 25.5055C3.15103 25.9159 3.2229 26.3804 3.32456 26.813C3.42752 27.2511 3.60366 27.7009 3.75596 28.1833C3.90458 28.6541 4.0103 29.0716 4.14928 29.4783C4.28591 29.8781 4.36517 30.29 4.53003 30.6967C4.69159 31.0952 4.77181 31.5085 4.84758 31.9151C4.9256 32.3338 5.12668 32.7771 5.2409 33.2097C5.35297 33.6341 5.50743 34.0214 5.6723 34.4281C5.83385 34.8266 5.96434 35.2399 6.07856 35.6465C6.24381 36.0531 6.34509 36.3829 6.44637 36.6235C6.49739 36.7385 6.54765 36.839 6.59944 36.9426" stroke="#FF6868" stroke-width="4.617" stroke-linecap="round"/>
<path d="M2.98873 18.7778C2.95907 19.6153 2.89886 21.576 3.0031 22.8942C3.04505 23.4247 3.3176 23.8674 3.3778 24.4366C3.44366 25.0593 3.61773 25.634 3.78172 26.2935C3.92152 26.8558 4.00591 27.521 4.15642 28.1954C4.28659 28.7786 4.33659 29.2588 4.50058 29.7387C4.6921 30.2991 4.84519 31.0255 4.9948 31.5655C5.1748 32.2152 5.41309 32.9107 5.53439 33.6619C5.62066 34.1961 5.83362 34.6503 5.93875 35.1302C6.05628 35.6666 6.28291 36.3864 6.43252 37.0167C6.57821 37.6305 6.88136 38.1242 7.10646 38.6346C7.3112 39.0989 7.51037 39.5925 7.76512 40.0723C8.03426 40.5793 8.4377 41.0302 8.82814 41.5698C9.13941 42 9.60586 42.2595 10.0857 42.574C10.5291 42.8646 11.1029 42.9783 11.6429 43.0691C12.2815 43.1764 12.8102 43.2785 13.3502 43.4582C13.9506 43.658 14.6954 43.5786 16.6619 43.6532C18.0866 43.7072 20.786 43.6685 22.2354 43.6536C24.2827 43.6327 25.3004 43.5193 26.5566 43.4739C27.1892 43.3692 27.7859 43.309 28.6692 43.2344C28.954 43.2192 29.3099 43.2192 29.9461 43.1293" stroke="#FF6868" stroke-width="4.617" stroke-linecap="round"/>
<path d="M3.02068 24.0728C2.94453 24.9036 3.04504 26.5324 3.2358 27.0282C3.39463 27.4409 3.52784 27.8529 3.69271 28.2595C3.85427 28.658 3.98475 29.0713 4.09898 29.478C4.12843 29.5828 4.18731 29.6805 4.2132 29.6066C4.43965 28.9606 4.11268 28.5169 3.99846 28.0471C3.88638 27.5861 3.73193 27.0959 3.63027 26.5244C3.52055 25.9077 3.45322 25.1922 3.33823 24.9355C3.05788 24.3099 3.47758 25.9247 3.47758 25.9891C3.47758 26.5087 3.3763 25.1145 3.3131 25.0125C2.85639 24.2751 3.22324 27.396 3.31234 27.8152C3.41041 28.2767 3.45169 28.6906 3.55336 29.0972C3.65502 29.5038 3.70604 29.9592 3.83245 30.4169C3.976 30.9367 4.0609 31.4061 4.22577 31.8386C4.37406 32.2277 4.41576 32.6504 4.48011 33.1203C4.54164 33.5696 4.72037 34.0714 4.86049 34.5797C4.99619 35.072 5.12702 35.468 5.35509 35.8746C5.56757 36.2535 5.71033 36.6864 5.90109 37.1563C6.07068 37.574 6.31954 37.981 6.58607 38.4508C6.82491 38.8719 7.13131 39.3258 7.43629 39.7077C7.77565 40.1326 8.22179 40.5442 8.72972 40.8755C9.56888 41.4228 10.4028 41.7885 11.558 42.0943C12.0182 42.2161 13.1145 42.1967 14.6356 42.1716C15.6568 42.1547 16.1681 41.9941 16.4088 41.8677C16.6243 41.6911 16.8032 41.487 16.9426 41.2844C17.0066 41.1824 17.0568 41.0818 17.1086 40.9783" stroke="#FF6868" stroke-width="4.617" stroke-linecap="round"/>
<path d="M14.9629 31.1328L14.9986 31.4385" stroke="#0D0D0D" stroke-width="2.25" stroke-linecap="round"/>
<path d="M21.1191 30.2095L21.1549 30.5152" stroke="#0D0D0D" stroke-width="2.25" stroke-linecap="round"/>
<path d="M10.9609 27.1313L15.0086 27.901" stroke="#0D0D0D" stroke-width="1.8" stroke-linecap="round"/>
<path d="M20.504 34.5427C18.7758 34.4515 17.1334 34.6321 16.3095 34.8611C15.4558 35.0984 14.8505 36.2107 14.5434 36.8521C14.1863 37.5981 14.3897 38.4033 14.5868 38.7528C14.8591 39.2356 16.6279 39.105 17.7037 38.9535C18.34 38.8639 18.8288 38.771 19.7837 38.5885C21.9549 38.1736 22.7815 38.1944 23.225 37.8139C23.875 37.2561 23.1228 35.3402 22.6803 34.7567C22.5735 34.6951 22.4531 34.665 22.2103 34.6495C21.9676 34.6339 21.6063 34.6339 20.9603 34.5427" stroke="#0D0D0D" stroke-width="1.8" stroke-linecap="round"/>
<path d="M19.8877 27.2256L22.3865 25.9" stroke="#0D0D0D" stroke-width="1.8" stroke-linecap="round"/>
<path d="M14.2647 10.0532C12.4861 10.2147 11.6788 10.5364 10.7069 11.4658C10.0112 12.131 10.0981 13.1248 10.0556 14.5197C10.0288 15.3989 10.7415 15.9997 11.3485 16.5867C11.9065 17.1262 12.6427 17.255 14.1979 17.3175C15.0827 17.3531 15.8794 16.9345 16.569 16.5096C16.8846 16.3151 17.3776 15.9244 17.9433 15.2785C18.4458 14.7049 18.5139 13.6614 18.4739 12.61C18.4371 11.644 17.5451 11.1483 16.9381 10.9036C16.1796 10.598 15.0781 10.7015 12.3738 10.7404C11.3303 10.7553 10.7864 11.3462 10.4429 11.7298C9.90427 12.3312 9.73384 13.166 9.53049 13.8144C9.21444 14.822 9.56873 16.4027 10.0938 17.1524C10.8105 18.1757 11.6715 18.1461 12.4206 18.2074C13.5709 18.3016 15.1923 18.2287 15.9413 18.0265C16.677 17.828 17.2562 17.5002 17.9245 17.1973C18.6975 16.847 19.1987 16.2473 19.4645 15.6002C19.804 14.7741 19.6066 13.7415 19.4657 12.9694C19.3404 12.2821 18.7179 11.7966 18.2529 11.2891C17.7784 10.7712 17.1008 10.6602 16.3924 10.4587C15.4399 10.3373 14.9543 10.1746 14.8116 10.1746C14.8293 10.1746 14.6713 10.3139 15.1205 9.94971" stroke="#FF0000" stroke-width="9" stroke-linecap="round"/>
<path d="M14.1387 7.53907C14.1387 7.01325 14.2555 5.98285 14.5932 4.51072C14.9196 3.08797 15.6418 2.34724 16.1557 1.96527C16.9909 1.40802 17.7654 1.01852 18.5289 0.93C19.0295 0.899902 19.7598 0.899902 20.5123 0.899902" stroke="#62A565" stroke-width="1.8" stroke-linecap="round"/>
<path d="M20.5124 0.899902C20.5124 1.547 20.454 2.31272 20.2624 2.87483C20.0371 3.53561 19.7476 4.20178 19.4365 4.68998C19.1115 5.19988 17.1344 6.11563 15.9996 6.63836C15.881 6.68306 15.7641 6.71227 15.6163 6.75653C15.4685 6.8008 15.2932 6.85922 14.9355 7.09646" stroke="#62A565" stroke-width="1.8" stroke-linecap="round"/>
<path d="M16.9717 2.58194C16.8548 2.69879 16.2688 3.83984 15.8519 4.93708C15.3639 6.22126 17.5613 2.64214 17.6352 2.58194C18.3078 2.03415 17.2081 4.20367 17.2076 4.29307C17.2065 4.52683 17.9109 3.23789 18.6488 2.42437C19.3091 1.69625 18.4474 4.11514 18.5053 4.0731C19.0433 3.68298 19.2122 2.76164 19.4928 2.49475C20.054 1.96097 19.0971 3.908 18.9351 4.02751C18.8298 2.99888 19.0953 2.111 19.2573 1.87553C19.3317 1.75691 19.3901 1.64006 19.7159 1.43115" stroke="#62A565" stroke-width="1.8" stroke-linecap="round"/>
</svg>
