<svg width="49" height="48" viewBox="0 0 49 48" fill="none" xmlns="http://www.w3.org/2000/svg">
<path d="M13.1769 42.1809C10.4333 36.9908 5.46168 25.0117 5.67355 19.5551C5.71354 18.5253 6.75482 18.5896 7.48659 19.0942C10.9653 21.4929 10.844 25.4223 12.6592 28.8431C14.0568 31.4768 14.7759 33.723 14.9965 37.1437C15.0487 37.9535 15.2128 38.5286 15.287 37.6724C15.8408 31.288 15.7982 28.3581 16.1608 23.5678C16.8879 13.9619 17.2486 11.32 18.5592 9.27537C18.8443 8.83058 19.5728 8.97828 19.942 9.33871C24.983 14.2604 20.3155 28.9086 20.0228 33.2075C19.6967 37.9966 19.149 39.6995 18.9306 40.2849C17.5771 43.9123 22.7795 30.1056 23.876 26.8313C25.3552 22.4145 28.3103 18.8954 30.6433 17.1392C31.2268 16.6998 31.8054 16.1256 32.2466 16.1169C32.6878 16.1081 32.9762 16.6848 33.1247 17.4144C33.7956 20.7096 31.0976 24.5398 29.3479 27.0279C27.6023 29.51 25.5667 31.827 23.2338 34.671C21.1705 37.1865 19.8786 38.8257 19.8742 39.267C19.8223 44.5187 30.6258 31.5648 33.7014 29.1554C36.0326 27.3292 37.926 26.165 38.874 26.0886C39.1837 26.0636 38.8129 27.0213 38.376 27.6089C36.6366 29.9484 32.8539 31.1017 28.7013 34.1599C25.4794 36.5326 22.3688 39.5422 21.1827 41.305C18.484 45.3157 29.9006 38.5461 33.697 37.0171C37.9443 35.3064 42.5831 34.754 44.2563 35.0424C44.9698 35.1653 45.2087 35.9074 45.2131 36.637C45.2228 38.2566 43.767 39.6995 42.2402 40.7895C40.0795 42.3319 37.0741 42.7576 34.23 43.4173C31.6787 43.6357 20.4116 43.9284 14.3478 42.478C13.9109 42.1809 13.3342 42.1809 12.7401 42.1809" stroke="#FF6868" stroke-width="6.156" stroke-linecap="round"/>
<path d="M39.1755 38.7065L30.3789 40.4659" stroke="#FF6868" stroke-width="4.617" stroke-linecap="round"/>
<path d="M5 20.9849C5 21.2628 5.05026 21.8195 5.08871 22.8468C5.1103 23.4233 5.20256 23.9273 5.25358 24.8396C5.28979 25.4871 5.43101 26.1357 5.59588 26.6056C5.73989 27.016 5.81177 27.4805 5.91343 27.9131C6.01639 28.3512 6.19252 28.801 6.34482 29.2834C6.49345 29.7542 6.59917 30.1717 6.73814 30.5784C6.87477 30.9782 6.95403 31.3901 7.1189 31.7968C7.28045 32.1953 7.36068 32.6086 7.43645 33.0152C7.51447 33.4339 7.71554 33.8772 7.82977 34.3098C7.94184 34.7342 8.0963 35.1215 8.26116 35.5282C8.42272 35.9267 8.5532 36.34 8.66743 36.7466C8.83268 37.1532 8.93396 37.483 9.03524 37.7236C9.08626 37.8386 9.13652 37.9391 9.18831 38.0427" stroke="#FF6868" stroke-width="4.617" stroke-linecap="round"/>
<path d="M5.57759 19.8779C5.54794 20.7154 5.48773 22.6761 5.59197 23.9943C5.63392 24.5248 5.90647 24.9675 5.96667 25.5367C6.03253 26.1594 6.20659 26.7341 6.37058 27.3936C6.51039 27.9559 6.59478 28.6211 6.74529 29.2955C6.87546 29.8787 6.92546 30.3589 7.08945 30.8388C7.28096 31.3992 7.43405 32.1256 7.58367 32.6656C7.76366 33.3153 8.00195 34.0108 8.12326 34.762C8.20952 35.2962 8.42249 35.7504 8.52762 36.2303C8.64514 36.7667 8.87178 37.4865 9.02139 38.1168C9.16708 38.7306 9.47023 39.2243 9.69533 39.7347C9.90007 40.199 10.0992 40.6926 10.354 41.1724C10.6231 41.6794 11.0266 42.1303 11.417 42.6699C11.7283 43.1001 12.1947 43.3596 12.6746 43.6741C13.118 43.9647 13.6918 44.0784 14.2318 44.1692C14.8704 44.2765 15.3991 44.3786 15.9391 44.5583C16.5395 44.7581 17.2843 44.6787 19.2508 44.7533C20.6755 44.8073 23.3748 44.7686 24.8242 44.7537C26.8716 44.7328 27.8893 44.6194 29.1455 44.574C29.7781 44.4693 30.3748 44.4091 31.2581 44.3345C31.5429 44.3193 31.8987 44.3193 32.5349 44.2294" stroke="#FF6868" stroke-width="4.617" stroke-linecap="round"/>
<path d="M5.60954 25.1729C5.53339 26.0037 5.63391 27.6325 5.82467 28.1283C5.9835 28.541 6.11671 28.953 6.28158 29.3596C6.44313 29.7581 6.57362 30.1714 6.68784 30.578C6.7173 30.6829 6.77618 30.7806 6.80207 30.7067C7.02852 30.0607 6.70155 29.617 6.58732 29.1472C6.47525 28.6862 6.32079 28.196 6.21913 27.6245C6.10942 27.0078 6.04208 26.2923 5.92709 26.0356C5.64675 25.41 6.06645 27.0248 6.06645 27.0892C6.06645 27.6088 5.96517 26.2146 5.90196 26.1126C5.44526 25.3752 5.81211 28.4961 5.9012 28.9153C5.99928 29.3768 6.04056 29.7907 6.14222 30.1973C6.24389 30.6039 6.2949 31.0593 6.42131 31.517C6.56487 32.0368 6.64977 32.5062 6.81463 32.9387C6.96293 33.3278 7.00463 33.7505 7.06898 34.2204C7.13051 34.6696 7.30924 35.1715 7.44935 35.6798C7.58506 36.1721 7.71588 36.5681 7.94395 36.9747C8.15643 37.3536 8.2992 37.7865 8.48996 38.2564C8.65955 38.6741 8.90841 39.0811 9.17494 39.5509C9.41378 39.972 9.72018 40.4259 10.0252 40.8078C10.3645 41.2327 10.8107 41.6443 11.3186 41.9756C12.1578 42.5229 12.9916 42.8886 14.1468 43.1944C14.607 43.3162 15.7034 43.2968 17.2245 43.2717C18.2456 43.2548 18.757 43.0942 18.9977 42.9678C19.2132 42.7912 19.3921 42.5871 19.5315 42.3845C19.5954 42.2825 19.6457 42.1819 19.6975 42.0784" stroke="#FF6868" stroke-width="4.617" stroke-linecap="round"/>
<path d="M17.5518 32.2329L17.5875 32.5386" stroke="#0D0D0D" stroke-width="2.25" stroke-linecap="round"/>
<path d="M23.708 31.3096L23.7437 31.6153" stroke="#0D0D0D" stroke-width="2.25" stroke-linecap="round"/>
<path d="M13.5498 28.2314L17.5975 29.0011" stroke="#0D0D0D" stroke-width="1.8" stroke-linecap="round"/>
<path d="M23.0929 35.6428C21.3647 35.5516 19.7223 35.7322 18.8983 35.9612C18.0446 36.1985 17.4393 37.3108 17.1323 37.9522C16.7752 38.6982 16.9785 39.5034 17.1756 39.8529C17.4479 40.3357 19.2168 40.2051 20.2926 40.0536C20.9289 39.964 21.4176 39.8711 22.3725 39.6886C24.5437 39.2737 25.3704 39.2945 25.8139 38.914C26.4639 38.3562 25.7117 36.4403 25.2691 35.8568C25.1624 35.7952 25.0419 35.7651 24.7992 35.7496C24.5565 35.734 24.1952 35.734 23.5491 35.6428" stroke="#0D0D0D" stroke-width="1.8" stroke-linecap="round"/>
<path d="M22.4766 28.3257L24.9753 27.0001" stroke="#0D0D0D" stroke-width="1.8" stroke-linecap="round"/>
<path d="M18.0259 8.03981C17.0551 8.10758 16.1328 8.28569 14.2122 9.15947C12.6948 9.84981 10.1517 11.2037 8.7383 11.9514C6.68422 13.0379 6.00162 13.6226 5.13583 14.2991C4.08801 15.1177 3.82859 15.7862 3.40536 16.7207C3.32551 16.897 3.51398 16.9755 3.71168 16.9754C4.61552 16.975 5.48773 16.8084 6.32817 16.5911C7.0684 16.3997 8.73285 15.4224 9.97214 14.6426C11.0042 13.9932 11.5183 13.6296 12.0787 13.3333C12.7581 12.9741 13.2525 12.5135 13.9148 12.0503C14.6417 11.542 15.4266 10.9044 16.0505 10.4015C16.576 9.97792 16.9879 9.58225 17.3815 9.14443C17.492 9.04037 17.6168 8.94573 17.7508 8.75563C17.8849 8.56553 18.0244 8.28284 17.9777 7.89766" stroke="#FFA24F" stroke-width="4.5" stroke-linecap="round"/>
<path d="M21.3545 12.2614C21.2299 12.5929 20.2689 14.7012 19.2025 16.2255C18.4754 17.2649 16.5355 18.3578 15.5625 18.9672C14.8579 19.4085 14.3714 19.702 13.182 20.3159C12.3074 20.7673 11.6567 21.0445 11.0569 21.3018C10.1375 21.6963 9.19381 21.8815 8.49745 22.0119C7.83208 22.0795 7.20126 22.0818 6.59061 22.0385C6.43958 22.0232 6.28295 22.024 6.12156 22.0249" stroke="#FFA24F" stroke-width="4.5" stroke-linecap="round"/>
<path d="M3.15003 19.2244C3.40143 19.1922 4.09388 18.9042 6.01705 18.2388C7.00505 17.897 7.80483 17.4616 8.49282 17.2271C9.20704 16.9836 9.90478 16.5639 10.529 16.2594C11.1723 15.9457 12.0344 15.5245 12.7069 15.2037C13.2844 14.9282 13.8665 14.613 14.6786 14.2444C15.5172 13.8638 16.137 13.2881 16.8317 12.9201C17.98 12.3119 18.3608 11.7413 18.8734 11.3427C19.424 10.9148 19.937 10.5473 20.5982 10.0048C21.1834 9.62129 21.5137 9.34994 21.7736 9.22255C21.8928 9.14289 21.9862 9.03275 22.0825 8.91927" stroke="#EC0808" stroke-width="6.3" stroke-linecap="round"/>
<path d="M24.5103 8.26195C23.7058 7.865 22.1857 7.24816 21.958 7.41528C21.475 7.76961 21.2099 8.13365 20.9604 8.52617C20.7566 8.84678 20.666 9.14476 20.6895 9.43521C20.7768 10.5134 21.259 10.8945 21.3022 11.308C21.321 11.4882 21.21 11.6332 21.0852 11.7506C20.7717 12.0452 20.0911 12.0889 19.5239 12.1463C18.5302 12.2471 17.9567 11.8228 16.9831 11.7325C16.0142 11.6427 15.5597 12.3178 14.9461 12.9901C14.1781 13.8316 14.452 14.3746 14.3258 14.9494C14.161 15.6998 13.5468 16.2146 13.1302 16.4234C12.5753 16.7017 11.8137 16.5939 10.9591 16.3524C10.1991 16.1378 9.58739 15.7873 9.19193 15.7489C8.57857 15.6894 7.45328 16.299 6.76793 16.7493C6.19309 17.1269 6.26268 18.9164 6.32881 19.8172C6.36181 20.2668 5.9506 20.5182 5.77607 20.5999C5.36749 20.657 4.8901 20.5338 4.23188 20.2426C3.72529 20.0041 2.86834 19.5813 1.90391 19.0381" stroke="#FF0004" stroke-width="0.54" stroke-linecap="round"/>
<path d="M23.1269 6.83933C23.2558 7.43976 23.2592 7.97826 23.0431 8.62206C22.8744 9.12459 22.6107 9.43158 22.4099 9.54474C21.6294 9.98455 20.6622 9.83845 20.2711 9.85805C19.6742 9.88796 18.8306 10.0084 18.3079 10.223C17.8186 10.424 17.3314 10.9962 17.0152 11.6131C16.8327 11.9692 16.8881 12.4808 16.8691 13.0667C16.8572 13.4337 16.504 14.1264 16.1051 14.6185C15.7864 15.0117 15.3565 15.0012 14.9299 15.1378C14.5397 15.2627 13.7858 15.0106 13.1799 14.9141C12.548 14.8134 12.1443 14.6944 11.5334 14.6617C10.874 14.6265 10.1794 14.9546 9.50419 15.3856C8.87287 15.7887 8.67311 16.5457 7.958 17.9261C7.64926 18.5221 7.10252 18.7307 6.70255 18.8596C6.2745 18.9976 5.81793 18.9727 5.18866 18.9535C4.55784 18.8447 3.98207 18.7396 3.45104 18.7019C3.33294 18.689 3.25272 18.6717 2.95437 18.6819" stroke="#FFF200" stroke-width="0.54" stroke-linecap="round"/>
<path d="M5.61023 12.7908C5.48616 12.9721 5.3621 13.1533 5.24989 13.3094C5.13769 13.4656 5.04111 13.5911 4.9416 13.7204" stroke="#ED7003" stroke-width="0.54" stroke-linecap="round"/>
<path d="M8.17383 12.062L7.79898 12.8217" stroke="#ED7003" stroke-width="0.54" stroke-linecap="round"/>
<path d="M10.5684 11.0391L10.3601 11.4611" stroke="#ED7003" stroke-width="0.54" stroke-linecap="round"/>
<path d="M13.3789 9.17188L12.8375 10.2692" stroke="#ED7003" stroke-width="0.54" stroke-linecap="round"/>
<path d="M16.2373 8.4834L16.0291 8.90544" stroke="#ED7003" stroke-width="0.54" stroke-linecap="round"/>
<path d="M7.75781 22.3486L7.51208 22.8466" stroke="#ED7003" stroke-width="0.54" stroke-linecap="round"/>
<path d="M11.5264 20.9878L11.1823 21.685" stroke="#ED7003" stroke-width="0.54" stroke-linecap="round"/>
<path d="M14.3525 20.0293L14.0085 20.7265" stroke="#ED7003" stroke-width="0.54" stroke-linecap="round"/>
<path d="M17.0752 18.2764L16.8799 18.9231" stroke="#ED7003" stroke-width="0.54" stroke-linecap="round"/>
</svg>
