<svg width="46" height="42" viewBox="0 0 46 42" fill="none" xmlns="http://www.w3.org/2000/svg">
<path d="M10.5881 36.3474C7.84448 31.1573 2.87281 19.1782 3.08468 13.7216C3.12467 12.6918 4.16596 12.7561 4.89772 13.2607C8.3764 15.6594 8.25514 19.5889 10.0704 23.0096C11.468 25.6433 12.187 27.8895 12.4077 31.3102C12.4599 32.12 12.6239 32.6952 12.6982 31.8389C13.2519 25.4545 13.2093 22.5247 13.5719 17.7343C14.299 8.12835 14.6598 5.48648 15.9704 3.44187C16.2555 2.99709 16.9839 3.14479 17.3531 3.50521C22.3941 8.42692 17.7266 23.0751 17.4339 27.374C17.1078 32.1632 16.5602 33.866 16.3417 34.4514C14.9882 38.0788 20.1906 24.2722 21.2872 20.9978C22.7663 16.581 25.7215 13.0619 28.0544 11.3057C28.638 10.8664 29.2165 10.2921 29.6577 10.2834C30.099 10.2746 30.3873 10.8513 30.5358 11.5809C31.2067 14.8761 28.5087 18.7063 26.759 21.1944C25.0135 23.6765 22.9779 25.9935 20.645 28.8375C18.5816 31.353 17.2897 32.9922 17.2854 33.4335C17.2335 38.6852 28.0369 25.7313 31.1125 23.3219C33.4437 21.4957 35.3371 20.3315 36.2852 20.2551C36.5948 20.2301 36.224 21.1878 35.7871 21.7754C34.0477 24.1149 30.265 25.2682 26.1125 28.3264C22.8906 30.6991 19.78 33.7087 18.5938 35.4715C15.8951 39.4822 27.3117 32.7126 31.1082 31.1836C35.3555 29.4729 39.9942 28.9205 41.6675 29.2089C42.3809 29.3318 42.6199 30.0739 42.6242 30.8035C42.6339 32.4231 41.1782 33.866 39.6513 34.956C37.4906 36.4984 34.4852 36.9241 31.6412 37.5838C29.0898 37.8022 17.8227 38.0949 11.7589 36.6445C11.322 36.3474 10.7453 36.3474 10.1512 36.3474" stroke="#FF6868" stroke-width="6.156" stroke-linecap="round"/>
<path d="M36.5867 32.873L27.79 34.6324" stroke="#FF6868" stroke-width="4.617" stroke-linecap="round"/>
<path d="M2.41113 15.1514C2.41113 15.4293 2.46139 15.986 2.49985 17.0133C2.52143 17.5898 2.61369 18.0938 2.66471 19.0061C2.70092 19.6536 2.84215 20.3022 3.00701 20.7721C3.15103 21.1825 3.2229 21.647 3.32456 22.0796C3.42752 22.5177 3.60366 22.9675 3.75596 23.4499C3.90458 23.9207 4.0103 24.3382 4.14928 24.7449C4.28591 25.1447 4.36517 25.5566 4.53003 25.9633C4.69159 26.3618 4.77181 26.7751 4.84758 27.1817C4.9256 27.6005 5.12668 28.0437 5.2409 28.4763C5.35297 28.9007 5.50743 29.288 5.6723 29.6947C5.83385 30.0932 5.96434 30.5065 6.07856 30.9131C6.24381 31.3197 6.34509 31.6495 6.44637 31.8901C6.49739 32.0051 6.54765 32.1056 6.59944 32.2092" stroke="#FF6868" stroke-width="4.617" stroke-linecap="round"/>
<path d="M2.98873 14.0444C2.95907 14.8819 2.89886 16.8426 3.0031 18.1608C3.04505 18.6913 3.3176 19.134 3.3778 19.7032C3.44366 20.3259 3.61773 20.9006 3.78172 21.5601C3.92152 22.1224 4.00591 22.7876 4.15642 23.462C4.28659 24.0452 4.33659 24.5255 4.50058 25.0053C4.6921 25.5657 4.84519 26.2921 4.9948 26.8321C5.1748 27.4818 5.41309 28.1773 5.53439 28.9285C5.62066 29.4627 5.83362 29.9169 5.93875 30.3968C6.05628 30.9332 6.28291 31.653 6.43252 32.2833C6.57821 32.8971 6.88136 33.3908 7.10646 33.9012C7.3112 34.3655 7.51037 34.8591 7.76512 35.3389C8.03426 35.8459 8.4377 36.2968 8.82814 36.8364C9.13941 37.2666 9.60586 37.5261 10.0857 37.8406C10.5291 38.1312 11.1029 38.2449 11.6429 38.3357C12.2815 38.443 12.8102 38.5451 13.3502 38.7248C13.9506 38.9246 14.6954 38.8452 16.6619 38.9198C18.0866 38.9738 20.786 38.9351 22.2354 38.9202C24.2827 38.8993 25.3004 38.7859 26.5566 38.7405C27.1892 38.6358 27.7859 38.5756 28.6692 38.501C28.954 38.4858 29.3099 38.4858 29.9461 38.3959" stroke="#FF6868" stroke-width="4.617" stroke-linecap="round"/>
<path d="M3.02068 19.3394C2.94453 20.1702 3.04504 21.799 3.2358 22.2948C3.39463 22.7075 3.52784 23.1195 3.69271 23.5261C3.85427 23.9246 3.98475 24.3379 4.09898 24.7446C4.12843 24.8494 4.18731 24.9471 4.2132 24.8732C4.43965 24.2272 4.11268 23.7835 3.99846 23.3137C3.88638 22.8527 3.73193 22.3626 3.63027 21.791C3.52055 21.1743 3.45322 20.4588 3.33823 20.2021C3.05788 19.5765 3.47758 21.1913 3.47758 21.2557C3.47758 21.7753 3.3763 20.3811 3.3131 20.2791C2.85639 19.5417 3.22324 22.6626 3.31234 23.0818C3.41041 23.5433 3.45169 23.9572 3.55336 24.3638C3.65502 24.7704 3.70604 25.2258 3.83245 25.6835C3.976 26.2033 4.0609 26.6727 4.22577 27.1052C4.37406 27.4943 4.41576 27.917 4.48011 28.3869C4.54164 28.8362 4.72037 29.338 4.86049 29.8463C4.99619 30.3386 5.12702 30.7346 5.35509 31.1412C5.56757 31.5201 5.71033 31.953 5.90109 32.4229C6.07068 32.8406 6.31954 33.2476 6.58607 33.7174C6.82491 34.1385 7.13131 34.5924 7.43629 34.9743C7.77565 35.3992 8.22179 35.8108 8.72972 36.1421C9.56888 36.6894 10.4028 37.0551 11.558 37.3609C12.0182 37.4827 13.1145 37.4633 14.6356 37.4382C15.6568 37.4213 16.1681 37.2607 16.4088 37.1343C16.6243 36.9577 16.8032 36.7536 16.9426 36.551C17.0066 36.449 17.0568 36.3484 17.1086 36.2449" stroke="#FF6868" stroke-width="4.617" stroke-linecap="round"/>
<path d="M14.9629 26.3994L14.9986 26.7051" stroke="#0D0D0D" stroke-width="2.25" stroke-linecap="round"/>
<path d="M21.1191 25.4761L21.1549 25.7818" stroke="#0D0D0D" stroke-width="2.25" stroke-linecap="round"/>
<path d="M10.9609 22.3979L15.0086 23.1676" stroke="#0D0D0D" stroke-width="1.8" stroke-linecap="round"/>
<path d="M20.504 29.8093C18.7758 29.7181 17.1334 29.8987 16.3095 30.1278C15.4558 30.3651 14.8505 31.4773 14.5434 32.1187C14.1863 32.8647 14.3897 33.6699 14.5868 34.0194C14.8591 34.5022 16.6279 34.3716 17.7037 34.2201C18.34 34.1305 18.8288 34.0376 19.7837 33.8551C21.9549 33.4402 22.7815 33.461 23.225 33.0805C23.875 32.5227 23.1228 30.6068 22.6803 30.0233C22.5735 29.9617 22.4531 29.9316 22.2103 29.9161C21.9676 29.9005 21.6063 29.9005 20.9603 29.8093" stroke="#0D0D0D" stroke-width="1.8" stroke-linecap="round"/>
<path d="M19.8877 22.4922L22.3865 21.1666" stroke="#0D0D0D" stroke-width="1.8" stroke-linecap="round"/>
<path d="M9.5027 10.4925C9.43752 9.00598 9.56087 6.85255 9.77601 6.28852C10.0083 5.67949 10.2565 5.25729 10.5364 4.80084C10.9384 4.1452 11.4232 3.77329 12.0568 3.25436C12.5748 2.83014 13.3987 2.61127 13.9267 2.41783C14.5924 2.17393 16.7461 2.14133 18.3941 2.57396C19.18 2.78028 19.8178 3.26886 20.2611 3.65321C20.6472 3.98793 20.8824 4.53553 20.9843 5.01C21.0785 5.44853 21.2901 5.90322 21.4165 6.49473C21.5258 7.00629 21.5564 8.4653 21.3117 9.54861C21.1913 10.0819 20.6755 10.3562 20.1759 10.5885C19.8538 10.7382 19.5176 10.7925 18.243 10.8596C17.1002 10.9198 14.9444 10.8565 13.7569 10.8197C12.4118 10.7781 12.1506 10.6479 11.9422 10.5547C11.6966 10.445 11.5776 10.1715 11.4881 9.93547C11.2078 9.19639 11.8309 7.74155 12.2852 7.12345C12.6115 6.67962 13.0528 6.22659 13.4751 5.97988C13.8873 5.73905 14.9677 5.50924 16.5312 5.45616C17.1283 5.43588 17.5943 5.58339 18.3645 5.91722C18.6622 6.04622 18.8222 6.27574 18.9511 6.5121C19.0936 6.77358 19.0495 7.324 19.0052 7.91317C18.988 8.14199 18.8857 8.21611 18.741 8.29386C18.4019 8.47614 18.0693 8.55089 17.8077 8.60083C17.4455 8.66996 15.8266 8.63597 13.6126 8.56359C12.7996 8.53701 12.6185 8.50227 12.4866 8.42281C12.3548 8.34334 12.2781 8.21285 12.2391 8.09372C12.2 7.97459 12.201 7.87076 12.2409 7.76572C12.4946 7.09757 13.5995 6.49427 14.1548 6.19606C14.8204 5.83861 15.8673 5.02025 16.7105 4.67234C17.4152 4.38163 17.8679 4.38077 18.2881 4.37082C18.7743 4.35929 19.2804 4.75857 19.7624 5.09056C20.679 5.72203 20.971 6.39905 21.1642 6.82085C21.3459 7.21761 21.4315 7.66181 21.5071 8.08255C21.6704 8.99062 21.5664 10.3124 21.4871 10.3781C21.094 10.7042 21.7299 9.45172 21.8784 9.03301C22.03 8.60571 22.1618 8.14512 22.2598 7.49154C22.4779 6.03638 22.0291 5.6 21.8752 5.17855C21.7005 4.7 21.2288 4.33415 20.8113 4.05387C20.3941 3.77383 19.9772 3.56136 19.5584 3.4258C19.1465 3.29248 18.6435 3.25979 18.2096 3.39863C18.0144 3.4611 18.0586 3.82558 18.0828 4.02481C18.1479 4.56231 18.833 4.83317 19.3566 5.03536C20.1173 5.32911 20.6086 5.76647 21.0764 6.26903C21.5091 6.7339 21.5912 7.40053 21.8477 8.04552C22.0338 8.51352 22.0234 9.00443 22.0979 9.42516C22.2937 10.5316 22.0479 12.2054 21.8382 12.2558C21.1479 12.4218 20.0814 12.3709 19.5171 12.4055C19.3463 12.4159 19.1384 12.441 17.8373 12.4426C16.5363 12.4441 14.1483 12.4225 12.8666 12.3719C11.2555 12.3084 10.8544 12.0261 10.3838 11.8255C10.2786 11.7589 10.2015 11.6803 10.0968 11.6393C9.99219 11.5982 9.8624 11.597 9.72869 11.5958" stroke="#8B4A2A" stroke-width="4.48" stroke-linecap="round"/>
<path d="M16.0125 3.9439C15.3871 3.85957 14.4928 4.11104 13.9259 4.42213C13.256 4.78983 12.8071 4.88396 12.4357 5.24676C12.3171 5.36261 12.3787 5.6368 12.4553 5.77083C12.7359 6.26139 14.9015 6.0577 16.0711 5.97705C16.5226 5.94592 16.7843 5.39513 17.0766 5.04301C17.3496 4.71409 17.2676 4.32341 17.2172 4.15265C17.0369 3.54133 15.6458 4.12307 15.2238 4.34225C15.0133 4.4839 14.801 4.64009 14.5905 4.78213C14.4845 4.84725 14.3802 4.89822 14.2728 4.95073" stroke="#A99124" stroke-width="4.48" stroke-linecap="round"/>
<path d="M7.80835 13.775C7.75619 13.7746 7.62502 13.7734 7.4664 13.8371C7.38801 13.8686 7.4109 14.0322 7.4622 14.1259C7.66948 14.5045 8.29995 14.4638 9.67986 14.4902C10.827 14.5121 12.3039 14.3958 13.8554 14.37C14.9911 14.3511 16.3084 14.2741 17.27 14.2429C17.5218 14.2347 17.7567 14.2082 18.7903 14.2041C19.824 14.2 21.6493 14.2166 22.6419 14.2126C23.739 14.1834 23.951 14.1584 24.1613 14.1473C24.2673 14.1352 24.3718 14.1101 24.5593 14.0059" stroke="#4B3429" stroke-width="1.792" stroke-linecap="round"/>
<path d="M7.44076 11.1552C7.64816 11.1808 8.06505 11.261 8.45618 11.3315C8.8004 11.3936 9.21214 11.4341 9.61758 11.438C10.1078 11.4428 10.3102 11.3106 10.6641 11.2492C10.7443 11.2353 10.8594 11.2341 10.9643 11.2421C11.459 11.2797 11.6681 11.3892 11.9813 11.4544C12.1309 11.4855 12.3205 11.5101 12.5288 11.5264C12.7253 11.5417 12.9991 11.5071 13.3912 11.4651C13.8396 11.4171 14.2274 11.3556 14.633 11.3494C15.1555 11.3415 15.3499 11.4848 15.6109 11.5542C15.7409 11.5887 16.0281 11.6011 16.2627 11.6105C16.6774 11.6271 16.9684 11.5144 17.6608 11.4037C17.936 11.3597 18.2243 11.3534 18.4847 11.3605C18.9974 11.3744 19.2676 11.4724 19.6588 11.5359C19.8421 11.5657 20.0768 11.5805 20.2851 11.5896C20.7407 11.6096 20.9912 11.4935 21.3055 11.4365C21.479 11.4051 21.6457 11.3749 21.893 11.3676C22.496 11.3496 22.897 11.4672 23.3417 11.5073C23.4384 11.516 23.5501 11.5069 23.6422 11.4959C24.0217 11.4253 24.3624 11.3614 24.519 11.3247C24.5979 11.3061 24.6756 11.2879 24.9127 11.2419" stroke="#FCFCFC" stroke-width="4.48" stroke-linecap="round"/>
<path d="M13.0283 4.23182L12.6019 5.15681" stroke="#A66B38" stroke-width="0.224" stroke-linecap="round"/>
<path d="M14.8824 4.62005C14.8658 4.75783 14.8492 4.89562 14.8403 5.00491C14.8315 5.1142 14.8308 5.19083 14.83 5.26978" stroke="#A66B38" stroke-width="0.224" stroke-linecap="round"/>
<path d="M17.5332 4.31885C17.5331 4.33417 17.5329 4.3495 17.6008 4.47295C17.6686 4.59641 17.8045 4.82753 17.944 5.1121" stroke="#A66B38" stroke-width="0.224" stroke-linecap="round"/>
<path d="M16.9136 5.98528L16.8621 6.54213" stroke="#A66B38" stroke-width="0.224" stroke-linecap="round"/>
<path d="M13.3779 6.6499L13.9816 6.65537" stroke="#A66B38" stroke-width="0.224" stroke-linecap="round"/>
<path d="M13.73 3.72698C13.9762 3.62193 14.2224 3.51688 14.3799 3.45538C14.5374 3.39387 14.5989 3.3791 14.6688 3.37184C14.7388 3.36458 14.8154 3.36528 14.8944 3.36599" stroke="#A66B38" stroke-width="0.224" stroke-linecap="round"/>
<path d="M16.2759 4.63275C16.2591 4.80118 16.2422 4.96962 16.2332 5.0947C16.2242 5.21978 16.2235 5.2964 16.2228 5.37535" stroke="#A66B38" stroke-width="0.224" stroke-linecap="round"/>
<path d="M11.7103 6.1139C11.8605 6.08799 12.0107 6.06209 12.1496 6.02885C12.2885 5.9956 12.4116 5.95582 12.5092 5.92881C12.6067 5.90181 12.675 5.88879 12.7457 5.83407" stroke="#A66B38" stroke-width="0.224" stroke-linecap="round"/>
<path d="M15.7963 6.56403C15.7267 6.72701 15.657 6.89 15.6073 7.0011C15.5575 7.1122 15.5297 7.16649 15.5084 7.22166C15.487 7.27683 15.4729 7.33124 15.4583 7.3873" stroke="#A66B38" stroke-width="0.224" stroke-linecap="round"/>
</svg>
