<svg width="49" height="49" viewBox="0 0 49 49" fill="none" xmlns="http://www.w3.org/2000/svg">
<path d="M13.6769 43.1809C10.9333 37.9908 5.96168 26.0117 6.17355 20.5551C6.21354 19.5253 7.25482 19.5896 7.98659 20.0942C11.4653 22.4929 11.344 26.4223 13.1592 29.8431C14.5568 32.4768 15.2759 34.723 15.4965 38.1437C15.5487 38.9535 15.7128 39.5286 15.787 38.6724C16.3408 32.288 16.2982 29.3581 16.6608 24.5678C17.3879 14.9619 17.7486 12.32 19.0592 10.2754C19.3443 9.83058 20.0728 9.97828 20.442 10.3387C25.483 15.2604 20.8155 29.9086 20.5228 34.2075C20.1967 38.9966 19.649 40.6995 19.4306 41.2849C18.0771 44.9123 23.2795 31.1056 24.376 27.8313C25.8552 23.4145 28.8103 19.8954 31.1433 18.1392C31.7268 17.6998 32.3054 17.1256 32.7466 17.1169C33.1878 17.1081 33.4762 17.6848 33.6247 18.4144C34.2956 21.7096 31.5976 25.5398 29.8479 28.0279C28.1023 30.51 26.0667 32.827 23.7338 35.671C21.6705 38.1865 20.3786 39.8257 20.3742 40.267C20.3223 45.5187 31.1258 32.5648 34.2014 30.1554C36.5326 28.3292 38.426 27.165 39.374 27.0886C39.6837 27.0636 39.3129 28.0213 38.876 28.6089C37.1366 30.9484 33.3539 32.1017 29.2013 35.1599C25.9794 37.5326 22.8688 40.5422 21.6827 42.305C18.984 46.3157 30.4006 39.5461 34.197 38.0171C38.4443 36.3064 43.0831 35.754 44.7563 36.0424C45.4698 36.1653 45.7087 36.9074 45.7131 37.637C45.7228 39.2566 44.267 40.6995 42.7402 41.7895C40.5795 43.3319 37.5741 43.7576 34.73 44.4173C32.1787 44.6357 20.9116 44.9284 14.8478 43.478C14.4109 43.1809 13.8342 43.1809 13.2401 43.1809" stroke="#FF6868" stroke-width="6.156" stroke-linecap="round"/>
<path d="M39.6755 39.7065L30.8789 41.4659" stroke="#FF6868" stroke-width="4.617" stroke-linecap="round"/>
<path d="M5.5 21.9849C5.5 22.2628 5.55026 22.8195 5.58871 23.8468C5.6103 24.4233 5.70256 24.9273 5.75358 25.8396C5.78979 26.4871 5.93101 27.1357 6.09588 27.6056C6.23989 28.016 6.31177 28.4805 6.41343 28.9131C6.51639 29.3512 6.69252 29.801 6.84482 30.2834C6.99345 30.7542 7.09917 31.1717 7.23814 31.5784C7.37477 31.9782 7.45403 32.3901 7.6189 32.7968C7.78045 33.1953 7.86068 33.6086 7.93645 34.0152C8.01447 34.4339 8.21554 34.8772 8.32977 35.3098C8.44184 35.7342 8.5963 36.1215 8.76116 36.5282C8.92272 36.9267 9.0532 37.34 9.16743 37.7466C9.33268 38.1532 9.43396 38.483 9.53524 38.7236C9.58626 38.8386 9.63652 38.9391 9.68831 39.0427" stroke="#FF6868" stroke-width="4.617" stroke-linecap="round"/>
<path d="M6.07759 20.8779C6.04794 21.7154 5.98773 23.6761 6.09197 24.9943C6.13392 25.5248 6.40647 25.9675 6.46667 26.5367C6.53253 27.1594 6.70659 27.7341 6.87058 28.3936C7.01039 28.9559 7.09478 29.6211 7.24529 30.2955C7.37546 30.8787 7.42546 31.3589 7.58945 31.8388C7.78096 32.3992 7.93405 33.1256 8.08367 33.6656C8.26366 34.3153 8.50195 35.0108 8.62326 35.762C8.70952 36.2962 8.92249 36.7504 9.02762 37.2303C9.14514 37.7667 9.37178 38.4865 9.52139 39.1168C9.66708 39.7306 9.97023 40.2243 10.1953 40.7347C10.4001 41.199 10.5992 41.6926 10.854 42.1724C11.1231 42.6794 11.5266 43.1303 11.917 43.6699C12.2283 44.1001 12.6947 44.3596 13.1746 44.6741C13.618 44.9647 14.1918 45.0784 14.7318 45.1692C15.3704 45.2765 15.8991 45.3786 16.4391 45.5583C17.0395 45.7581 17.7843 45.6787 19.7508 45.7533C21.1755 45.8073 23.8748 45.7686 25.3242 45.7537C27.3716 45.7328 28.3893 45.6194 29.6455 45.574C30.2781 45.4693 30.8748 45.4091 31.7581 45.3345C32.0429 45.3193 32.3987 45.3193 33.0349 45.2294" stroke="#FF6868" stroke-width="4.617" stroke-linecap="round"/>
<path d="M6.10954 26.1729C6.03339 27.0037 6.13391 28.6325 6.32467 29.1283C6.4835 29.541 6.61671 29.953 6.78158 30.3596C6.94313 30.7581 7.07362 31.1714 7.18784 31.578C7.2173 31.6829 7.27618 31.7806 7.30207 31.7067C7.52852 31.0607 7.20155 30.617 7.08732 30.1472C6.97525 29.6862 6.82079 29.196 6.71913 28.6245C6.60942 28.0078 6.54208 27.2923 6.42709 27.0356C6.14675 26.41 6.56645 28.0248 6.56645 28.0892C6.56645 28.6088 6.46517 27.2146 6.40196 27.1126C5.94526 26.3752 6.31211 29.4961 6.4012 29.9153C6.49928 30.3768 6.54056 30.7907 6.64222 31.1973C6.74389 31.6039 6.7949 32.0593 6.92131 32.517C7.06487 33.0368 7.14977 33.5062 7.31463 33.9387C7.46293 34.3278 7.50463 34.7505 7.56898 35.2204C7.63051 35.6696 7.80924 36.1715 7.94935 36.6798C8.08506 37.1721 8.21588 37.5681 8.44395 37.9747C8.65643 38.3536 8.7992 38.7865 8.98996 39.2564C9.15955 39.6741 9.40841 40.0811 9.67494 40.5509C9.91378 40.972 10.2202 41.4259 10.5252 41.8078C10.8645 42.2327 11.3107 42.6443 11.8186 42.9756C12.6578 43.5229 13.4916 43.8886 14.6468 44.1944C15.107 44.3162 16.2034 44.2968 17.7245 44.2717C18.7456 44.2548 19.257 44.0942 19.4977 43.9678C19.7132 43.7912 19.8921 43.5871 20.0315 43.3845C20.0954 43.2825 20.1457 43.1819 20.1975 43.0784" stroke="#FF6868" stroke-width="4.617" stroke-linecap="round"/>
<path d="M18.0518 33.2329L18.0875 33.5386" stroke="#0D0D0D" stroke-width="2.25" stroke-linecap="round"/>
<path d="M24.208 32.3096L24.2437 32.6153" stroke="#0D0D0D" stroke-width="2.25" stroke-linecap="round"/>
<path d="M14.0498 29.2314L18.0975 30.0011" stroke="#0D0D0D" stroke-width="1.8" stroke-linecap="round"/>
<path d="M23.5929 36.6428C21.8647 36.5516 20.2223 36.7322 19.3983 36.9612C18.5446 37.1985 17.9393 38.3108 17.6323 38.9522C17.2752 39.6982 17.4785 40.5034 17.6756 40.8529C17.9479 41.3357 19.7168 41.2051 20.7926 41.0536C21.4289 40.964 21.9176 40.8711 22.8725 40.6886C25.0437 40.2737 25.8704 40.2945 26.3139 39.914C26.9639 39.3562 26.2117 37.4403 25.7691 36.8568C25.6624 36.7952 25.5419 36.7651 25.2992 36.7496C25.0565 36.734 24.6952 36.734 24.0491 36.6428" stroke="#0D0D0D" stroke-width="1.8" stroke-linecap="round"/>
<path d="M22.9766 29.3257L25.4753 28.0001" stroke="#0D0D0D" stroke-width="1.8" stroke-linecap="round"/>
<path d="M7.45312 10.2238C7.45312 9.67691 8.12459 6.97833 8.97665 4.40183C9.10348 4.0183 9.31493 3.95164 9.48533 3.97135C10.3487 4.07122 10.8842 5.21827 11.8158 6.34056C12.5274 7.19798 13.1301 8.01605 14.061 8.61121C14.9853 9.20218 16.2242 8.61376 16.9643 8.46561C20.008 7.85635 24.4077 8.31617 24.704 8.21126C25.4413 7.95018 26.0558 6.12374 26.7813 5.03324C26.9887 4.72153 27.2906 4.46033 27.5653 4.185C27.695 4.05507 27.882 4.03558 28.0524 4.05593C28.9283 4.16051 29.9142 5.59725 30.723 6.49063C31.0613 6.78757 31.3601 7.08515 31.6138 7.40245C31.7416 7.55188 31.8676 7.67778 31.9973 7.93466" stroke="#CEB6A1" stroke-width="4" stroke-linecap="round"/>
<path d="M7.57976 11.7496C6.39452 12.0879 5.38223 12.7619 4.65672 13.5484C4.05119 14.2049 4.06219 15.0942 4.03993 15.8585C4.00956 16.9016 4.77944 17.7241 5.43628 18.4445C6.19314 19.2747 8.24614 19.6317 9.46253 19.8034C10.1211 19.8963 12.5611 20.0157 15.8446 19.9948C17.4088 19.9848 18.0053 19.8886 19.1632 19.8256C21.6257 19.6918 23.3897 19.4651 23.77 19.4015C25.405 19.1281 28.4664 18.7033 30.2106 18.3428C31.7943 18.0154 32.8411 17.2205 33.6678 16.6482C34.7046 15.9304 35.0463 15.0586 35.3871 14.2962C35.7353 13.5173 35.5575 12.3498 35.115 11.3503C34.6724 10.8645 34.2871 10.4791 33.9914 10.2464C33.8216 10.1396 33.6118 10.0557 33.0141 9.71484" stroke="#CEB6A1" stroke-width="4" stroke-linecap="round"/>
<path d="M24.8594 6.83848C25.0521 6.3547 25.5719 5.51077 25.9126 4.99098C26.244 4.48541 26.6095 4.01759 26.9186 3.54695C27.2731 3.00709 27.7776 2.39591 28.1675 2.06934C28.6438 1.67031 29.1735 3.10454 29.5141 3.54354C29.8662 3.99715 30.1138 4.56463 30.4875 5.01969C30.9435 5.57484 31.1845 6.31674 31.4775 6.83653C31.8016 7.48481 32.1267 8.13504 32.2401 8.39396C32.2893 8.5244 32.3214 8.65288 32.5492 9.07728" stroke="#CEB6A1" stroke-width="4" stroke-linecap="round"/>
<path d="M32.7439 8.88281C33.6482 8.88281 34.8815 9.07555 35.4835 9.43327C35.7606 9.5979 36.0525 9.66055 36.2467 9.87081C36.6718 10.3311 36.766 10.9892 36.913 11.6536C37.1907 12.9091 36.5732 13.5843 36.2817 14.0564C36.0038 14.5065 35.8607 15.0132 35.5517 15.5647C35.2759 16.0568 34.6615 16.5045 33.947 16.9445C33.4207 17.2686 32.8763 17.4798 32.1949 17.8205C31.6543 18.0908 31.1242 18.2585 30.6044 18.4376C30.0457 18.6302 29.4694 18.7783 28.9336 18.8435C28.3155 18.9188 27.6862 19.1346 26.9873 19.2816C26.2988 19.4264 25.7705 19.4928 24.9616 19.5736C22.8912 19.7804 22.1047 19.7848 21.5037 19.8656C20.7453 19.9675 20.1579 19.9795 19.4274 20.0603C18.7634 20.1337 17.1502 20.1742 15.1693 20.255C12.1183 20.3794 9.90325 20.2394 9.5796 20.1747C8.74794 20.0083 7.76276 19.9483 7.21085 19.6724C6.85556 19.4947 6.5285 19.2991 6.28564 19.1049C6.17126 19.0071 6.0749 18.9107 5.68359 18.6167" stroke="#CEB6A1" stroke-width="4" stroke-linecap="round"/>
<path d="M8.4094 12.6789C8.4094 12.7431 7.73484 14.0611 6.87338 15.7188C6.29086 16.8397 8.08428 13.882 8.39188 13.4109C8.86437 12.6872 9.25041 11.2597 9.52783 10.3938C9.79644 9.55548 10.2257 9.11236 10.4365 8.59257C10.4889 8.4634 10.5178 8.33365 10.5343 8.44413C10.6855 9.45359 9.81108 11.7834 9.0932 13.5335C8.23098 15.6356 7.82731 16.4712 7.66281 16.9448C7.36662 17.7974 9.50933 15.7645 10.9826 14.6145C12.4334 13.4819 12.7877 12.455 13.1776 11.8213C13.3542 11.5343 13.5674 11.285 13.6652 11.2027C14.8572 10.2006 11.4951 14.7191 11.023 15.4988C10.5931 16.2088 10.035 16.8917 9.74051 17.56C9.67593 17.7065 9.57942 17.8671 9.59402 17.9819C9.60862 18.0968 9.73711 18.161 9.8836 18.1299C10.2222 18.0579 10.6453 17.6772 11.4206 17.193C12.6189 16.4445 14.24 14.9595 15.8286 13.4357C17.1482 12.1698 17.8494 11.7074 18.5945 11.0752C18.7816 10.9164 18.9512 10.8314 18.9697 10.7496C19.1235 10.0697 17.2361 10.991 16.9611 11.1526C16.8095 11.2417 16.654 11.3784 16.7961 11.4125C18.0817 11.7207 20.4289 10.3505 21.9999 9.85701C23.857 9.27364 24.7897 9.3051 25.6034 9.15909C26.198 9.05241 26.8669 8.65682 27.6475 8.39692C27.9506 8.29602 28.2004 8.16915 28.4915 8.13654C29.2817 8.04799 30.1122 8.75026 30.6981 9.18926C31.3499 9.67752 31.9305 10.405 32.2565 10.9248C32.6036 11.478 32.8085 12.2214 32.7934 13.0166C32.7801 13.715 31.7416 14.1039 31.1406 14.4621C30.3049 14.9601 29.1816 15.3051 25.4097 16.1315C24.3603 16.3614 23.0531 16.4089 21.2066 16.6036C18.9673 16.8397 16.9256 16.7671 15.1521 16.462C14.7546 16.3936 15.9162 15.5465 17.0721 14.9751C18.228 14.4037 19.4808 13.8898 21.0416 13.3038C22.6024 12.7178 24.4334 12.0754 25.489 11.7284C27.1414 11.1852 27.7449 11.0572 28.4418 10.9433C28.6825 10.904 29.0064 10.9268 29.204 10.991C29.4016 11.0553 29.4658 11.1837 29.4347 11.3142C29.364 11.61 28.5323 12.0909 26.1621 12.9159C24.449 13.5122 21.5113 13.8372 20.1344 14.0854C18.7575 14.3336 18.9824 14.3336 20.8971 13.9C22.8117 13.4664 26.4094 12.5991 28.4073 12.1362C30.6868 11.6081 31.0885 11.5118 31.2505 11.3015C31.4101 11.0945 31.3815 10.7662 31.3012 10.4425C31.204 10.0509 30.7663 9.88913 30.3468 9.77573C30.0618 9.69871 29.606 9.69445 27.8485 9.8867C26.0911 10.0789 23.0395 10.4965 21.3872 10.7116C19.1839 10.991 18.2134 11.3463 17.3223 11.7191C16.9451 11.8671 16.7202 11.9313 16.3912 12.0948" stroke="#CEB6A1" stroke-width="4" stroke-linecap="round"/>
<path d="M15.5967 12.5635V12.7152" stroke="#0D0D0D" stroke-width="2" stroke-linecap="round"/>
<path d="M22.0459 11.7285V11.8803" stroke="#0D0D0D" stroke-width="2" stroke-linecap="round"/>
<path d="M8.51172 9.1075C8.61418 8.64682 8.86917 7.93038 9.07601 7.38881C9.18617 7.10039 9.35835 6.8742 9.52475 6.74594C9.60716 6.68241 9.71657 6.66851 9.8198 6.68084C10.2478 6.73194 10.6657 7.33257 10.9249 7.79633C10.9811 7.89693 11.0524 8.00125 11.0917 8.11719C11.131 8.23313 11.131 8.36024 10.9912 8.47657C10.1565 8.79935 9.695 8.8502 9.21969 8.95304C9.10336 8.97885 9.00167 9.00427 8.8969 9.03046" stroke="#8F6E51" stroke-width="2" stroke-linecap="round"/>
<path d="M28.7729 3.71484C28.4147 3.99603 27.9024 4.45748 27.3112 5.06067C27.1875 5.18683 27.1814 5.30488 27.2318 5.38269C27.3511 5.56666 28.2013 5.56373 29.2028 5.46204C29.5564 5.42614 29.5433 5.15697 29.5179 5.00136C29.4416 4.74405 29.3638 4.51217 29.3126 4.25603C29.2868 4.12699 29.2614 3.99988 29.1581 3.71484" stroke="#8F6E51" stroke-width="2" stroke-linecap="round"/>
<path d="M0.5 13.9606C1.31351 13.9352 2.12702 13.9098 3.65196 13.8712C5.17691 13.8327 7.38864 13.7819 9.66739 13.7295" stroke="#8F6E51" stroke-linecap="round"/>
<path d="M9.74465 15.9639C9.69381 15.9639 9.64296 15.9639 8.14228 16.4215C6.6416 16.8791 3.69263 17.7943 0.654297 18.8142" stroke="#8F6E51" stroke-linecap="round"/>
<path d="M28.7725 11.5727C30.5012 11.2677 32.2299 10.9626 33.8831 10.6911C35.5363 10.4195 37.0616 10.1907 37.9618 10.0728C38.862 9.95497 39.0908 9.95497 39.5576 9.87793" stroke="#8F6E51" stroke-linecap="round"/>
<path d="M29.3115 13.8066C30.6081 13.9338 31.9046 14.0609 33.6784 14.2407C35.4521 14.4206 37.6639 14.6494 39.9426 14.8852" stroke="#8F6E51" stroke-linecap="round"/>
</svg>
