<svg width="48" height="49" viewBox="0 0 48 49" fill="none" xmlns="http://www.w3.org/2000/svg">
<path d="M12.6769 43.1809C9.93335 37.9908 4.96168 26.0117 5.17355 20.5551C5.21354 19.5253 6.25482 19.5896 6.98659 20.0942C10.4653 22.4929 10.344 26.4223 12.1592 29.8431C13.5568 32.4768 14.2759 34.723 14.4965 38.1437C14.5487 38.9535 14.7128 39.5286 14.787 38.6724C15.3408 32.288 15.2982 29.3581 15.6608 24.5678C16.3879 14.9619 16.7486 12.32 18.0592 10.2754C18.3443 9.83058 19.0728 9.97828 19.442 10.3387C24.483 15.2604 19.8155 29.9086 19.5228 34.2075C19.1967 38.9966 18.649 40.6995 18.4306 41.2849C17.0771 44.9123 22.2795 31.1056 23.376 27.8313C24.8552 23.4145 27.8103 19.8954 30.1433 18.1392C30.7268 17.6998 31.3054 17.1256 31.7466 17.1169C32.1878 17.1081 32.4762 17.6848 32.6247 18.4144C33.2956 21.7096 30.5976 25.5398 28.8479 28.0279C27.1023 30.51 25.0667 32.827 22.7338 35.671C20.6705 38.1865 19.3786 39.8257 19.3742 40.267C19.3223 45.5187 30.1258 32.5648 33.2014 30.1554C35.5326 28.3292 37.426 27.165 38.374 27.0886C38.6837 27.0636 38.3129 28.0213 37.876 28.6089C36.1366 30.9484 32.3539 32.1017 28.2013 35.1599C24.9794 37.5326 21.8688 40.5422 20.6827 42.305C17.984 46.3157 29.4006 39.5461 33.197 38.0171C37.4443 36.3064 42.0831 35.754 43.7563 36.0424C44.4698 36.1653 44.7087 36.9074 44.7131 37.637C44.7228 39.2566 43.267 40.6995 41.7402 41.7895C39.5795 43.3319 36.5741 43.7576 33.73 44.4173C31.1787 44.6357 19.9116 44.9284 13.8478 43.478C13.4109 43.1809 12.8342 43.1809 12.2401 43.1809" stroke="#FF6868" stroke-width="6.156" stroke-linecap="round"/>
<path d="M38.6755 39.7065L29.8789 41.4659" stroke="#FF6868" stroke-width="4.617" stroke-linecap="round"/>
<path d="M4.5 21.9849C4.5 22.2628 4.55026 22.8195 4.58871 23.8468C4.6103 24.4233 4.70256 24.9273 4.75358 25.8396C4.78979 26.4871 4.93101 27.1357 5.09588 27.6056C5.23989 28.016 5.31177 28.4805 5.41343 28.9131C5.51639 29.3512 5.69252 29.801 5.84482 30.2834C5.99345 30.7542 6.09917 31.1717 6.23814 31.5784C6.37477 31.9782 6.45403 32.3901 6.6189 32.7968C6.78045 33.1953 6.86068 33.6086 6.93645 34.0152C7.01447 34.4339 7.21554 34.8772 7.32977 35.3098C7.44184 35.7342 7.5963 36.1215 7.76116 36.5282C7.92272 36.9267 8.0532 37.34 8.16743 37.7466C8.33268 38.1532 8.43396 38.483 8.53524 38.7236C8.58626 38.8386 8.63652 38.9391 8.68831 39.0427" stroke="#FF6868" stroke-width="4.617" stroke-linecap="round"/>
<path d="M5.07759 20.8779C5.04794 21.7154 4.98773 23.6761 5.09197 24.9943C5.13392 25.5248 5.40647 25.9675 5.46667 26.5367C5.53253 27.1594 5.70659 27.7341 5.87058 28.3936C6.01039 28.9559 6.09478 29.6211 6.24529 30.2955C6.37546 30.8787 6.42546 31.3589 6.58945 31.8388C6.78096 32.3992 6.93405 33.1256 7.08367 33.6656C7.26366 34.3153 7.50195 35.0108 7.62326 35.762C7.70952 36.2962 7.92249 36.7504 8.02762 37.2303C8.14514 37.7667 8.37178 38.4865 8.52139 39.1168C8.66708 39.7306 8.97023 40.2243 9.19533 40.7347C9.40007 41.199 9.59924 41.6926 9.85398 42.1724C10.1231 42.6794 10.5266 43.1303 10.917 43.6699C11.2283 44.1001 11.6947 44.3596 12.1746 44.6741C12.618 44.9647 13.1918 45.0784 13.7318 45.1692C14.3704 45.2765 14.8991 45.3786 15.4391 45.5583C16.0395 45.7581 16.7843 45.6787 18.7508 45.7533C20.1755 45.8073 22.8748 45.7686 24.3242 45.7537C26.3716 45.7328 27.3893 45.6194 28.6455 45.574C29.2781 45.4693 29.8748 45.4091 30.7581 45.3345C31.0429 45.3193 31.3987 45.3193 32.0349 45.2294" stroke="#FF6868" stroke-width="4.617" stroke-linecap="round"/>
<path d="M5.10954 26.1729C5.03339 27.0037 5.13391 28.6325 5.32467 29.1283C5.4835 29.541 5.61671 29.953 5.78158 30.3596C5.94313 30.7581 6.07362 31.1714 6.18784 31.578C6.2173 31.6829 6.27618 31.7806 6.30207 31.7067C6.52852 31.0607 6.20155 30.617 6.08732 30.1472C5.97525 29.6862 5.82079 29.196 5.71913 28.6245C5.60942 28.0078 5.54208 27.2923 5.42709 27.0356C5.14675 26.41 5.56645 28.0248 5.56645 28.0892C5.56645 28.6088 5.46517 27.2146 5.40196 27.1126C4.94526 26.3752 5.31211 29.4961 5.4012 29.9153C5.49928 30.3768 5.54056 30.7907 5.64222 31.1973C5.74389 31.6039 5.7949 32.0593 5.92131 32.517C6.06487 33.0368 6.14977 33.5062 6.31463 33.9387C6.46293 34.3278 6.50463 34.7505 6.56898 35.2204C6.63051 35.6696 6.80924 36.1715 6.94935 36.6798C7.08506 37.1721 7.21588 37.5681 7.44395 37.9747C7.65643 38.3536 7.7992 38.7865 7.98996 39.2564C8.15955 39.6741 8.40841 40.0811 8.67494 40.5509C8.91378 40.972 9.22018 41.4259 9.52516 41.8078C9.86452 42.2327 10.3107 42.6443 10.8186 42.9756C11.6578 43.5229 12.4916 43.8886 13.6468 44.1944C14.107 44.3162 15.2034 44.2968 16.7245 44.2717C17.7456 44.2548 18.257 44.0942 18.4977 43.9678C18.7132 43.7912 18.8921 43.5871 19.0315 43.3845C19.0954 43.2825 19.1457 43.1819 19.1975 43.0784" stroke="#FF6868" stroke-width="4.617" stroke-linecap="round"/>
<path d="M17.0518 33.2329L17.0875 33.5386" stroke="#0D0D0D" stroke-width="2.25" stroke-linecap="round"/>
<path d="M23.208 32.3096L23.2437 32.6153" stroke="#0D0D0D" stroke-width="2.25" stroke-linecap="round"/>
<path d="M13.0498 29.2314L17.0975 30.0011" stroke="#0D0D0D" stroke-width="1.8" stroke-linecap="round"/>
<path d="M22.5929 36.6428C20.8647 36.5516 19.2223 36.7322 18.3983 36.9612C17.5446 37.1985 16.9393 38.3108 16.6323 38.9522C16.2752 39.6982 16.4785 40.5034 16.6756 40.8529C16.9479 41.3357 18.7168 41.2051 19.7926 41.0536C20.4289 40.964 20.9176 40.8711 21.8725 40.6886C24.0437 40.2737 24.8704 40.2945 25.3139 39.914C25.9639 39.3562 25.2117 37.4403 24.7691 36.8568C24.6624 36.7952 24.5419 36.7651 24.2992 36.7496C24.0565 36.734 23.6952 36.734 23.0491 36.6428" stroke="#0D0D0D" stroke-width="1.8" stroke-linecap="round"/>
<path d="M21.9766 29.3257L24.4753 28.0001" stroke="#0D0D0D" stroke-width="1.8" stroke-linecap="round"/>
<path d="M7.45215 10.2238C7.45215 9.67691 8.12362 6.97833 8.97567 4.40183C9.10251 4.0183 9.31395 3.95164 9.48436 3.97135C10.3477 4.07122 10.8832 5.21827 11.8148 6.34056C12.5265 7.19798 13.1291 8.01605 14.06 8.61121C14.9843 9.20218 16.2232 8.61376 16.9633 8.46561C20.007 7.85635 24.4067 8.31617 24.703 8.21126C25.4404 7.95018 26.0548 6.12374 26.7803 5.03324C26.9877 4.72153 27.2897 4.46033 27.5644 4.185C27.694 4.05507 27.881 4.03558 28.0514 4.05593C28.9273 4.16051 29.9132 5.59725 30.722 6.49063C31.0603 6.78757 31.3592 7.08515 31.6129 7.40245C31.7407 7.55188 31.8666 7.67778 31.9963 7.93466" stroke="#FFC871" stroke-width="4" stroke-linecap="round"/>
<path d="M7.57976 11.7496C6.39452 12.0879 5.38223 12.7619 4.65672 13.5484C4.05119 14.2049 4.06219 15.0942 4.03993 15.8585C4.00956 16.9016 4.77944 17.7241 5.43628 18.4445C6.19314 19.2747 8.24614 19.6317 9.46253 19.8034C10.1211 19.8963 12.5611 20.0157 15.8446 19.9948C17.4088 19.9848 18.0053 19.8886 19.1632 19.8256C21.6257 19.6918 23.3897 19.4651 23.77 19.4015C25.405 19.1281 28.4664 18.7033 30.2106 18.3428C31.7943 18.0154 32.8411 17.2205 33.6678 16.6482C34.7046 15.9304 35.0463 15.0586 35.3871 14.2962C35.7353 13.5173 35.5575 12.3498 35.115 11.3503C34.6724 10.8645 34.2871 10.4791 33.9914 10.2464C33.8216 10.1396 33.6118 10.0557 33.0141 9.71484" stroke="#FFC871" stroke-width="4" stroke-linecap="round"/>
<path d="M24.8594 6.83848C25.0521 6.3547 25.5719 5.51077 25.9126 4.99098C26.244 4.48541 26.6095 4.01759 26.9186 3.54695C27.2731 3.00709 27.7776 2.39591 28.1675 2.06934C28.6438 1.67031 29.1735 3.10454 29.5141 3.54354C29.8662 3.99715 30.1138 4.56463 30.4875 5.01969C30.9435 5.57484 31.1845 6.31674 31.4775 6.83653C31.8016 7.48481 32.1267 8.13504 32.2401 8.39396C32.2893 8.5244 32.3214 8.65288 32.5492 9.07728" stroke="#FFC871" stroke-width="4" stroke-linecap="round"/>
<path d="M32.7439 8.88281C33.6482 8.88281 34.8815 9.07555 35.4835 9.43327C35.7606 9.5979 36.0525 9.66055 36.2467 9.87081C36.6718 10.3311 36.766 10.9892 36.913 11.6536C37.1907 12.9091 36.5732 13.5843 36.2817 14.0564C36.0038 14.5065 35.8607 15.0132 35.5517 15.5647C35.2759 16.0568 34.6615 16.5045 33.947 16.9445C33.4207 17.2686 32.8763 17.4798 32.1949 17.8205C31.6543 18.0908 31.1242 18.2585 30.6044 18.4376C30.0457 18.6302 29.4694 18.7783 28.9336 18.8435C28.3155 18.9188 27.6862 19.1346 26.9873 19.2816C26.2988 19.4264 25.7705 19.4928 24.9616 19.5736C22.8912 19.7804 22.1047 19.7848 21.5037 19.8656C20.7453 19.9675 20.1579 19.9795 19.4274 20.0603C18.7634 20.1337 17.1502 20.1742 15.1693 20.255C12.1183 20.3794 9.90325 20.2394 9.5796 20.1747C8.74794 20.0083 7.76276 19.9483 7.21085 19.6724C6.85556 19.4947 6.5285 19.2991 6.28564 19.1049C6.17126 19.0071 6.0749 18.9107 5.68359 18.6167" stroke="#FFC871" stroke-width="4" stroke-linecap="round"/>
<path d="M8.40842 12.6789C8.40842 12.7431 7.73386 14.0611 6.87241 15.7188C6.28989 16.8397 8.08331 13.882 8.3909 13.4109C8.86339 12.6872 9.24943 11.2597 9.52685 10.3938C9.79546 9.55548 10.2248 9.11236 10.4355 8.59257C10.4879 8.4634 10.5168 8.33365 10.5333 8.44413C10.6845 9.45359 9.81011 11.7834 9.09223 13.5335C8.23001 15.6356 7.82633 16.4712 7.66183 16.9448C7.36564 17.7974 9.50835 15.7645 10.9816 14.6145C12.4325 13.4819 12.7867 12.455 13.1766 11.8213C13.3532 11.5343 13.5664 11.285 13.6643 11.2027C14.8562 10.2006 11.4941 14.7191 11.022 15.4988C10.5921 16.2088 10.034 16.8917 9.73953 17.56C9.67495 17.7065 9.57844 17.8671 9.59304 17.9819C9.60764 18.0968 9.73613 18.161 9.88263 18.1299C10.2212 18.0579 10.6443 17.6772 11.4196 17.193C12.6179 16.4445 14.239 14.9595 15.8276 13.4357C17.1472 12.1698 17.8484 11.7074 18.5935 11.0752C18.7806 10.9164 18.9503 10.8314 18.9688 10.7496C19.1226 10.0697 17.2351 10.991 16.9602 11.1526C16.8085 11.2417 16.6531 11.3784 16.7952 11.4125C18.0807 11.7207 20.4279 10.3505 21.9989 9.85701C23.856 9.27364 24.7887 9.3051 25.6024 9.15909C26.197 9.05241 26.8659 8.65682 27.6466 8.39692C27.9496 8.29602 28.1994 8.16915 28.4905 8.13654C29.2807 8.04799 30.1112 8.75026 30.6972 9.18926C31.3489 9.67752 31.9295 10.405 32.2556 10.9248C32.6026 11.478 32.8075 12.2214 32.7924 13.0166C32.7791 13.715 31.7406 14.1039 31.1396 14.4621C30.304 14.9601 29.1806 15.3051 25.4087 16.1315C24.3593 16.3614 23.0521 16.4089 21.2056 16.6036C18.9664 16.8397 16.9246 16.7671 15.1511 16.462C14.7536 16.3936 15.9152 15.5465 17.0711 14.9751C18.227 14.4037 19.4798 13.8898 21.0406 13.3038C22.6015 12.7178 24.4324 12.0754 25.4881 11.7284C27.1404 11.1852 27.7439 11.0572 28.4408 10.9433C28.6816 10.904 29.0054 10.9268 29.203 10.991C29.4006 11.0553 29.4649 11.1837 29.4337 11.3142C29.3631 11.61 28.5314 12.0909 26.1612 12.9159C24.448 13.5122 21.5103 13.8372 20.1334 14.0854C18.7566 14.3336 18.9814 14.3336 20.8961 13.9C22.8107 13.4664 26.4084 12.5991 28.4063 12.1362C30.6859 11.6081 31.0875 11.5118 31.2496 11.3015C31.4091 11.0945 31.3805 10.7662 31.3002 10.4425C31.203 10.0509 30.7653 9.88913 30.3458 9.77573C30.0608 9.69871 29.605 9.69445 27.8476 9.8867C26.0901 10.0789 23.0385 10.4965 21.3862 10.7116C19.1829 10.991 18.2124 11.3463 17.3213 11.7191C16.9441 11.8671 16.7192 11.9313 16.3902 12.0948" stroke="#FFC871" stroke-width="4" stroke-linecap="round"/>
<path d="M15.5967 11.8486V12.0004" stroke="#0D0D0D" stroke-width="2" stroke-linecap="round"/>
<path d="M22.0459 11.0137V11.1654" stroke="#0D0D0D" stroke-width="2" stroke-linecap="round"/>
<path d="M8.51172 8.39266C8.61418 7.93198 8.86917 7.21554 9.07601 6.67396C9.18617 6.38555 9.35835 6.15936 9.52475 6.03109C9.60716 5.96756 9.71657 5.95367 9.8198 5.966C10.2478 6.0171 10.6657 6.61773 10.9249 7.08149C10.9811 7.18208 11.0524 7.28641 11.0917 7.40235C11.131 7.51829 11.131 7.6454 10.9912 7.76172C10.1565 8.08451 9.695 8.13535 9.21969 8.2382C9.10336 8.26401 9.00167 8.28943 8.8969 8.31562" stroke="#EDA666" stroke-width="2" stroke-linecap="round"/>
<path d="M28.7729 3C28.4147 3.28118 27.9024 3.74263 27.3112 4.34583C27.1875 4.47199 27.1814 4.59004 27.2318 4.66785C27.3511 4.85182 28.2013 4.84888 29.2028 4.74719C29.5564 4.71129 29.5433 4.44213 29.5179 4.28651C29.4416 4.02921 29.3638 3.79733 29.3126 3.54118C29.2868 3.41214 29.2614 3.28503 29.1581 3" stroke="#EDA666" stroke-width="2" stroke-linecap="round"/>
<path d="M0.5 13.2458C1.31351 13.2203 2.12702 13.1949 3.65196 13.1564C5.17691 13.1179 7.38864 13.067 9.66739 13.0146" stroke="#EDA666" stroke-linecap="round"/>
<path d="M9.74465 15.249C9.69381 15.249 9.64296 15.249 8.14228 15.7066C6.6416 16.1642 3.69263 17.0794 0.654297 18.0994" stroke="#EDA666" stroke-linecap="round"/>
<path d="M28.7725 10.8579C30.5012 10.5528 32.2299 10.2478 33.8831 9.97621C35.5363 9.70465 37.0616 9.47585 37.9618 9.35799C38.862 9.24012 39.0908 9.24012 39.5576 9.16309" stroke="#EDA666" stroke-linecap="round"/>
<path d="M29.3115 13.0918C30.6081 13.2189 31.9046 13.346 33.6784 13.5259C35.4521 13.7058 37.6639 13.9346 39.9426 14.1703" stroke="#EDA666" stroke-linecap="round"/>
</svg>
