<svg width="46" height="48" viewBox="0 0 46 48" fill="none" xmlns="http://www.w3.org/2000/svg">
<path d="M10.5881 42.1809C7.84448 36.9908 2.87281 25.0117 3.08468 19.5551C3.12467 18.5253 4.16596 18.5896 4.89772 19.0942C8.3764 21.4929 8.25514 25.4223 10.0704 28.8431C11.468 31.4768 12.187 33.723 12.4077 37.1437C12.4599 37.9535 12.6239 38.5286 12.6982 37.6724C13.2519 31.288 13.2093 28.3581 13.5719 23.5678C14.299 13.9619 14.6598 11.32 15.9704 9.27537C16.2555 8.83058 16.9839 8.97828 17.3531 9.33871C22.3941 14.2604 17.7266 28.9086 17.4339 33.2075C17.1078 37.9966 16.5602 39.6995 16.3417 40.2849C14.9882 43.9123 20.1906 30.1056 21.2872 26.8313C22.7663 22.4145 25.7215 18.8954 28.0544 17.1392C28.638 16.6998 29.2165 16.1256 29.6577 16.1169C30.099 16.1081 30.3873 16.6848 30.5358 17.4144C31.2067 20.7096 28.5087 24.5398 26.759 27.0279C25.0135 29.51 22.9779 31.827 20.645 34.671C18.5816 37.1865 17.2897 38.8257 17.2854 39.267C17.2335 44.5187 28.0369 31.5648 31.1125 29.1554C33.4437 27.3292 35.3371 26.165 36.2852 26.0886C36.5948 26.0636 36.224 27.0213 35.7871 27.6089C34.0477 29.9484 30.265 31.1017 26.1125 34.1599C22.8906 36.5326 19.78 39.5422 18.5938 41.305C15.8951 45.3157 27.3117 38.5461 31.1082 37.0171C35.3555 35.3064 39.9942 34.754 41.6675 35.0424C42.3809 35.1653 42.6199 35.9074 42.6242 36.637C42.6339 38.2566 41.1782 39.6995 39.6513 40.7895C37.4906 42.3319 34.4852 42.7576 31.6412 43.4173C29.0898 43.6357 17.8227 43.9284 11.7589 42.478C11.322 42.1809 10.7453 42.1809 10.1512 42.1809" stroke="#FF6868" stroke-width="6.156" stroke-linecap="round"/>
<path d="M36.5867 38.7065L27.79 40.4659" stroke="#FF6868" stroke-width="4.617" stroke-linecap="round"/>
<path d="M2.41113 20.9849C2.41113 21.2628 2.46139 21.8195 2.49985 22.8468C2.52143 23.4233 2.61369 23.9273 2.66471 24.8396C2.70092 25.4871 2.84215 26.1357 3.00701 26.6056C3.15103 27.016 3.2229 27.4805 3.32456 27.9131C3.42752 28.3512 3.60366 28.801 3.75596 29.2834C3.90458 29.7542 4.0103 30.1717 4.14928 30.5784C4.28591 30.9782 4.36517 31.3901 4.53003 31.7968C4.69159 32.1953 4.77181 32.6086 4.84758 33.0152C4.9256 33.4339 5.12668 33.8772 5.2409 34.3098C5.35297 34.7342 5.50743 35.1215 5.6723 35.5282C5.83385 35.9267 5.96434 36.34 6.07856 36.7466C6.24381 37.1532 6.34509 37.483 6.44637 37.7236C6.49739 37.8386 6.54765 37.9391 6.59944 38.0427" stroke="#FF6868" stroke-width="4.617" stroke-linecap="round"/>
<path d="M2.98873 19.8779C2.95907 20.7154 2.89886 22.6761 3.0031 23.9943C3.04505 24.5248 3.3176 24.9675 3.3778 25.5367C3.44366 26.1594 3.61773 26.7341 3.78172 27.3936C3.92152 27.9559 4.00591 28.6211 4.15642 29.2955C4.28659 29.8787 4.33659 30.3589 4.50058 30.8388C4.6921 31.3992 4.84519 32.1256 4.9948 32.6656C5.1748 33.3153 5.41309 34.0108 5.53439 34.762C5.62066 35.2962 5.83362 35.7504 5.93875 36.2303C6.05628 36.7667 6.28291 37.4865 6.43252 38.1168C6.57821 38.7306 6.88136 39.2243 7.10646 39.7347C7.3112 40.199 7.51037 40.6926 7.76512 41.1724C8.03426 41.6794 8.4377 42.1303 8.82814 42.6699C9.13941 43.1001 9.60586 43.3596 10.0857 43.6741C10.5291 43.9647 11.1029 44.0784 11.6429 44.1692C12.2815 44.2765 12.8102 44.3786 13.3502 44.5583C13.9506 44.7581 14.6954 44.6787 16.6619 44.7533C18.0866 44.8073 20.786 44.7686 22.2354 44.7537C24.2827 44.7328 25.3004 44.6194 26.5566 44.574C27.1892 44.4693 27.7859 44.4091 28.6692 44.3345C28.954 44.3193 29.3099 44.3193 29.9461 44.2294" stroke="#FF6868" stroke-width="4.617" stroke-linecap="round"/>
<path d="M3.02068 25.1729C2.94453 26.0037 3.04504 27.6325 3.2358 28.1283C3.39463 28.541 3.52784 28.953 3.69271 29.3596C3.85427 29.7581 3.98475 30.1714 4.09898 30.578C4.12843 30.6829 4.18731 30.7806 4.2132 30.7067C4.43965 30.0607 4.11268 29.617 3.99846 29.1472C3.88638 28.6862 3.73193 28.196 3.63027 27.6245C3.52055 27.0078 3.45322 26.2923 3.33823 26.0356C3.05788 25.41 3.47758 27.0248 3.47758 27.0892C3.47758 27.6088 3.3763 26.2146 3.3131 26.1126C2.85639 25.3752 3.22324 28.4961 3.31234 28.9153C3.41041 29.3768 3.45169 29.7907 3.55336 30.1973C3.65502 30.6039 3.70604 31.0593 3.83245 31.517C3.976 32.0368 4.0609 32.5062 4.22577 32.9387C4.37406 33.3278 4.41576 33.7505 4.48011 34.2204C4.54164 34.6696 4.72037 35.1715 4.86049 35.6798C4.99619 36.1721 5.12702 36.5681 5.35509 36.9747C5.56757 37.3536 5.71033 37.7865 5.90109 38.2564C6.07068 38.6741 6.31954 39.0811 6.58607 39.5509C6.82491 39.972 7.13131 40.4259 7.43629 40.8078C7.77565 41.2327 8.22179 41.6443 8.72972 41.9756C9.56888 42.5229 10.4028 42.8886 11.558 43.1944C12.0182 43.3162 13.1145 43.2968 14.6356 43.2717C15.6568 43.2548 16.1681 43.0942 16.4088 42.9678C16.6243 42.7912 16.8032 42.5871 16.9426 42.3845C17.0066 42.2825 17.0568 42.1819 17.1086 42.0784" stroke="#FF6868" stroke-width="4.617" stroke-linecap="round"/>
<path d="M14.9629 32.2329L14.9986 32.5386" stroke="#0D0D0D" stroke-width="2.25" stroke-linecap="round"/>
<path d="M21.1191 31.3096L21.1549 31.6153" stroke="#0D0D0D" stroke-width="2.25" stroke-linecap="round"/>
<path d="M10.9609 28.2314L15.0086 29.0011" stroke="#0D0D0D" stroke-width="1.8" stroke-linecap="round"/>
<path d="M20.504 35.6428C18.7758 35.5516 17.1334 35.7322 16.3095 35.9612C15.4558 36.1985 14.8505 37.3108 14.5434 37.9522C14.1863 38.6982 14.3897 39.5034 14.5868 39.8529C14.8591 40.3357 16.6279 40.2051 17.7037 40.0536C18.34 39.964 18.8288 39.8711 19.7837 39.6886C21.9549 39.2737 22.7815 39.2945 23.225 38.914C23.875 38.3562 23.1228 36.4403 22.6803 35.8568C22.5735 35.7952 22.4531 35.7651 22.2103 35.7496C21.9676 35.734 21.6063 35.734 20.9603 35.6428" stroke="#0D0D0D" stroke-width="1.8" stroke-linecap="round"/>
<path d="M19.8877 28.3257L22.3865 27.0001" stroke="#0D0D0D" stroke-width="1.8" stroke-linecap="round"/>
<path d="M9.0112 7.98715C8.62835 8.89013 8.40421 9.56223 8.23126 10.1996C8.06685 10.8055 7.89275 12.2968 7.78396 13.4613C7.64667 14.931 7.53008 15.5679 7.56523 16.2381C7.59627 16.8298 7.55654 17.464 7.61258 18.0154C7.68071 18.6859 7.74818 19.6429 8.07534 20.2651C8.43955 20.9577 9.80009 20.8325 11.1808 20.656C11.4654 20.6196 11.636 20.6165 13.0078 20.3832C14.3796 20.15 16.9474 19.6859 18.3693 19.4431C21.0149 18.9915 22.8043 18.6567 22.983 18.4524C23.2044 18.1993 23.1662 17.786 23.1767 17.3681C23.1908 16.8008 23.0216 15.2313 22.6238 13.1881C22.2916 11.4819 21.7782 10.8949 21.5422 10.3902C21.2538 9.77322 20.7362 8.95426 20.3902 8.39514C19.9068 7.61397 19.2783 6.9402 18.7955 6.58033C18.3251 6.22966 17.1722 6.2538 15.4414 6.43701C12.9616 6.69952 11.3686 7.15757 11.001 7.26723C10.5454 7.36425 10.1287 7.46807 9.83257 7.57906C9.69707 7.63249 9.59162 7.68007 9.3993 7.7442" stroke="#FEAFB0" stroke-width="2.88" stroke-linecap="round"/>
<path d="M11.8332 7.8227C10.5768 10.5805 10.1345 12.2684 9.7692 13.3617C9.31182 14.7307 9.34445 15.24 9.13395 17.5746C9.08145 18.1568 9.18197 18.4904 9.32209 18.5558C9.67274 18.7194 10.2276 17.7648 11.0608 16.4254C11.6125 15.5384 12.2639 14.1351 12.785 12.9955C14.1396 10.0329 14.3721 9.29749 14.6679 8.69451C14.7924 8.4407 14.9499 8.18216 15.1397 7.9608C15.2274 7.85855 15.3445 7.82226 15.4238 7.93581C15.9506 8.69043 15.3133 9.6959 14.6756 10.7737C13.1021 13.4332 12.6622 14.1495 12.3771 14.6495C11.9649 15.3725 11.3617 16.5153 11.0566 17.2197C10.5914 18.2938 10.5948 18.8165 10.6673 19.0622C10.7033 19.1842 10.8955 19.2227 11.0433 19.24C11.3274 19.2734 11.7376 19.1016 12.4485 18.6729C13.6189 17.967 14.688 16.6433 15.7781 15.2838C16.3568 14.5619 16.8508 13.6707 17.3215 12.7471C18.8127 9.82133 18.7616 9.19363 18.9211 8.56085C18.9841 8.31078 18.8487 7.91642 18.7285 7.80378C18.0127 7.13274 17.2683 9.5171 16.8116 10.3319C15.9333 11.8989 15.2199 12.6781 14.7421 13.3857C13.8666 14.6822 13.5753 16.1705 13.4916 16.9961C13.4653 17.256 13.521 17.4815 13.6696 17.6702C14.0502 18.1536 15.2059 17.7541 16.102 17.2768C16.4503 17.0913 17.3459 15.908 18.5939 14.0573C19.8445 12.2024 20.1523 11.1611 20.4631 10.799C21.4114 9.69449 21.151 14.746 20.6577 15.4421C20.2898 15.9613 19.7533 16.0959 19.1356 16.7393C18.9946 16.8862 18.9355 16.9919 18.9657 17.0876C18.996 17.1832 19.1264 17.2737 19.2513 17.3241C19.4805 17.4167 20.2456 17.2753 20.7497 17.1699C22.9102 16.7183 17.9121 17.697 17.1034 18.0009C16.7778 18.1232 16.5058 18.2104 16.3819 18.2471C16.2044 18.2996 16.9033 18.1965 18.0228 17.9082C20.7187 17.2139 22.4914 16.7553 22.3679 16.5478C22.2317 16.3189 21.4316 15.4858 20.1596 14.0914C19.0697 12.8965 17.9372 12.2526 17.0953 11.7296C15.8748 10.8948 15.4061 10.6918 15.1014 10.517C14.9548 10.4277 14.8244 10.3372 14.6064 10.2591" stroke="#FEAFB0" stroke-width="2.88" stroke-linecap="round"/>
<path d="M13.266 8.08448C12.4454 9.26728 11.7973 10.2778 11.4393 10.9671C10.9484 11.9123 10.724 13.0219 10.6551 13.3438C10.634 13.4425 10.8092 12.9785 11.1839 12.3135C11.4937 11.7637 12.0796 10.802 12.4339 10.1841C12.9015 9.32637 13.0626 8.97713 13.1773 8.78257C13.2477 8.69005 13.343 8.61013 13.5248 8.46517" stroke="#FEAFB0" stroke-width="2.88" stroke-linecap="round"/>
<path d="M9.70171 6.49643C9.32636 6.69014 9.00271 7.00179 8.75912 7.27546C8.55342 7.50657 8.47051 7.82562 8.39378 8.1487C8.36191 8.28287 8.40748 8.53331 8.4932 8.83415C8.60362 9.22166 9.10096 9.31136 9.80096 9.46982C10.2553 9.57267 10.5198 9.4515 11.2615 9.3412C11.9113 9.24456 13.1084 9.01547 13.7551 8.89075C14.6324 8.72156 15.1974 8.54292 15.6362 8.41635C15.9684 8.32052 16.3886 8.20128 16.6532 8.12946C16.9513 8.04857 17.3645 7.91376 17.6876 7.8081C17.9945 7.70775 18.3496 7.57801 18.6195 7.4891C18.8621 7.40917 19.1084 7.21954 19.3357 7.02766C19.4368 6.94228 19.4229 6.67302 19.3482 6.34644C19.2693 6.00164 18.9842 5.81711 18.7236 5.68965C18.4754 5.5682 18.132 5.65385 17.8215 5.64656C17.5566 5.64035 17.3012 5.61402 16.9369 5.65588C16.6449 5.68943 16.3261 5.64778 15.9079 5.69937C15.626 5.73415 15.3436 5.73036 14.2689 5.90062C13.9576 5.94993 13.753 5.9542 13.5221 5.98809C13.3206 6.01767 12.4178 6.14803 11.1699 6.3814C10.5245 6.5021 10.2409 6.66781 9.94705 6.75274C9.87765 6.7728 9.82512 6.8218 9.79877 6.81137C9.77242 6.80093 9.77663 6.73748 9.80503 6.67653C9.92694 6.415 10.2178 6.29297 10.4973 6.13131C10.7891 5.96256 11.086 5.92992 13.14 5.55037C13.8144 5.42575 14.23 5.45571 14.889 5.38458C15.2814 5.34222 15.7462 5.35646 16.0939 5.34088C16.4084 5.32678 16.782 5.29559 17.0387 5.3126C17.2954 5.32961 17.5512 5.34656 17.8023 5.33299C18.0743 5.31829 18.3286 5.44352 18.5874 5.51526C18.8427 5.58605 19.0031 5.84313 19.2085 6.05964C19.2594 6.11327 19.2996 6.16952 19.3264 6.22832C19.3531 6.28713 19.3641 6.34784 19.3194 6.40389C19.0812 6.70239 18.5568 6.6847 17.2603 6.94301C16.9961 6.99564 16.9387 7.02463 16.1327 7.20974C15.3266 7.39484 13.7743 7.73811 12.938 7.92939C12.0286 8.14957 11.7863 8.20951 11.5043 8.26831C11.3893 8.29693 11.3314 8.32308 11.2716 8.35002" stroke="#FFFAF5" stroke-width="2.88" stroke-linecap="round"/>
<path d="M6.78125 21.9141L6.80838 22.0641" stroke="#FFFAF5" stroke-width="4.32" stroke-linecap="round"/>
<path d="M10.4234 21.4881L10.2389 21.7539" stroke="#FFFAF5" stroke-width="4.32" stroke-linecap="round"/>
<path d="M14.2166 21.0353L14.1552 21.1239" stroke="#FFFAF5" stroke-width="4.32" stroke-linecap="round"/>
<path d="M18.1315 20.405L17.995 20.5072" stroke="#FFFAF5" stroke-width="4.32" stroke-linecap="round"/>
<path d="M21.6387 19.2285L21.6794 19.4536" stroke="#FFFAF5" stroke-width="4.32" stroke-linecap="round"/>
<path d="M24.8652 18.6455L24.8788 18.7205" stroke="#FFFAF5" stroke-width="4.32" stroke-linecap="round"/>
<path d="M12.5206 1.62198C12.166 2.22774 11.9386 2.68031 11.5732 3.44375C11.4358 3.73093 11.3656 3.94777 11.3933 4.31511C11.4453 5.00681 11.7284 5.53505 12.0872 5.74066C12.8947 6.20347 13.4184 6.03164 13.8544 5.87612C14.2519 5.73434 14.2924 5.28088 14.2972 5.02235C14.3091 4.38303 14.0835 3.69211 13.8985 3.31175C13.7754 3.12788 13.634 2.92018 13.5037 2.69886C13.4454 2.5924 13.4027 2.49782 13.168 2.20239" stroke="#FC5B44" stroke-width="2.88" stroke-linecap="round"/>
<path d="M13.1836 2.41162C13.3765 2.71978 13.5271 2.97217 13.6205 3.15408C13.6627 3.24234 13.6943 3.32238 13.7226 3.43005C13.7509 3.53772 13.7749 3.67059 13.7997 3.80748" stroke="#FFFAF5" stroke-width="0.72" stroke-linecap="round"/>
<path d="M14.1822 5.34979L14.1318 5.35889" stroke="#FFFAF5" stroke-width="0.72" stroke-linecap="round"/>
<path d="M8.37305 13.4707L8.38378 13.5301" stroke="#FC5B44" stroke-width="0.72" stroke-linecap="round"/>
<path d="M13.4412 14.7017L13.3818 14.7124" stroke="#FC5B44" stroke-width="0.72" stroke-linecap="round"/>
<path d="M17.2764 11.4937L17.2871 11.553" stroke="#FC5B44" stroke-width="0.72" stroke-linecap="round"/>
<path d="M22.0252 13.334L21.9658 13.3447" stroke="#FC5B44" stroke-width="0.72" stroke-linecap="round"/>
<path d="M7.94824 17.9023L7.95898 17.9617" stroke="#FC5B44" stroke-width="0.72" stroke-linecap="round"/>
<path d="M17.3955 16.5625L17.4062 16.6219" stroke="#FC5B44" stroke-width="0.72" stroke-linecap="round"/>
</svg>
